<?xml version="1.0" encoding="utf-8"?>
<!-- Generator: Adobe Illustrator 16.0.3, SVG Export Plug-In . SVG Version: 6.00 Build 0)  -->
<!DOCTYPE svg PUBLIC "-//W3C//DTD SVG 1.1//EN" "http://www.w3.org/Graphics/SVG/1.1/DTD/svg11.dtd">
<svg version="1.1" id="Calque_1" xmlns="http://www.w3.org/2000/svg" xmlns:xlink="http://www.w3.org/1999/xlink" x="0px" y="0px"
	 width="841.89px" height="888.31px" viewBox="0 0 841.89 888.31" enable-background="new 0 0 841.89 888.31" xml:space="preserve">
<rect fill="#5BC1CF" width="841.89" height="888.31"/>
<path fill="#FFFFFF" d="M499.061,399.132c0,15.914-12.809,28.816-28.604,28.816h-88.499c-15.795,0-28.6-12.902-28.6-28.816
	c0-14.374,10.443-26.281,24.105-28.461c-0.174-1.008-0.27-2.047-0.27-3.114c0-10.084,8.113-18.258,18.125-18.258
	c4.465,0,8.557,1.627,11.713,4.333c5.627-12.776,12.842-24.436,33.079-24.436c24.545,0,36.178,19.073,36.178,39.198
	c0,0.843-0.035,1.677-0.092,2.501C489.242,373.574,499.061,385.197,499.061,399.132"/>
<path fill="#FFFFFF" d="M268.655,660.763c0,15.914-12.809,28.816-28.604,28.816h-88.498c-15.795,0-28.6-12.902-28.6-28.816
	c0-14.373,10.443-26.281,24.105-28.461c-0.174-1.008-0.27-2.047-0.27-3.113c0-10.084,8.113-18.258,18.125-18.258
	c4.465,0,8.557,1.627,11.713,4.332c5.627-12.775,12.842-24.436,33.078-24.436c24.545,0,36.178,19.074,36.178,39.199
	c0,0.842-0.035,1.676-0.092,2.5C258.837,635.204,268.655,646.827,268.655,660.763"/>
<path fill="#FFFFFF" d="M785.357,86.152c0,15.914-12.809,28.816-28.603,28.816h-88.499c-15.794,0-28.599-12.902-28.599-28.816
	c0-14.374,10.442-26.281,24.104-28.461c-0.173-1.008-0.27-2.047-0.27-3.114c0-10.084,8.114-18.258,18.125-18.258
	c4.465,0,8.557,1.627,11.713,4.333c5.627-12.776,12.842-24.436,33.079-24.436c24.544,0,36.177,19.073,36.177,39.198
	c0,0.843-0.035,1.677-0.092,2.501C775.539,60.593,785.357,72.216,785.357,86.152"/>
<path fill="#FFFFFF" d="M517.93,135.528c0,15.914-12.809,28.816-28.604,28.816h-88.499c-15.794,0-28.599-12.902-28.599-28.816
	c0-14.374,10.442-26.281,24.104-28.461c-0.173-1.008-0.27-2.047-0.27-3.114c0-10.084,8.114-18.258,18.125-18.258
	c4.465,0,8.557,1.627,11.713,4.333c5.626-12.776,12.841-24.436,33.078-24.436c24.545,0,36.178,19.073,36.178,39.198
	c0,0.843-0.035,1.677-0.092,2.501C508.111,109.969,517.93,121.592,517.93,135.528"/>
<path fill="#FFFFFF" d="M191.008,172.015c0,15.914-12.809,28.816-28.603,28.816H73.906c-15.794,0-28.599-12.902-28.599-28.816
	c0-14.374,10.442-26.281,24.104-28.461c-0.173-1.008-0.27-2.047-0.27-3.114c0-10.084,8.114-18.258,18.125-18.258
	c4.465,0,8.557,1.627,11.713,4.333c5.627-12.776,12.842-24.436,33.079-24.436c24.544,0,36.177,19.073,36.177,39.198
	c0,0.843-0.035,1.677-0.092,2.501C181.189,146.456,191.008,158.079,191.008,172.015"/>
<path fill="#FFFFFF" d="M779.952,744.573c0,15.914-12.809,28.816-28.603,28.816h-88.499c-15.794,0-28.599-12.902-28.599-28.816
	c0-14.375,10.442-26.281,24.104-28.461c-0.173-1.008-0.27-2.047-0.27-3.115c0-10.084,8.114-18.258,18.125-18.258
	c4.465,0,8.557,1.627,11.713,4.334c5.627-12.777,12.842-24.436,33.079-24.436c24.544,0,36.177,19.072,36.177,39.197
	c0,0.844-0.035,1.678-0.092,2.502C770.134,719.015,779.952,730.638,779.952,744.573"/>
<path fill="#FFFFFF" d="M512.524,793.948c0,15.914-12.809,28.816-28.604,28.816h-88.499c-15.794,0-28.599-12.902-28.599-28.816
	c0-14.373,10.442-26.281,24.104-28.461c-0.173-1.008-0.27-2.047-0.27-3.113c0-10.084,8.114-18.258,18.125-18.258
	c4.465,0,8.557,1.627,11.713,4.332c5.626-12.775,12.841-24.436,33.079-24.436c24.545,0,36.178,19.074,36.178,39.199
	c0,0.842-0.035,1.676-0.092,2.5C502.706,768.39,512.524,780.013,512.524,793.948"/>
<path fill="#FFFFFF" d="M185.603,830.436c0,15.914-12.809,28.816-28.603,28.816H68.501c-15.794,0-28.599-12.902-28.599-28.816
	c0-14.374,10.442-26.281,24.104-28.461c-0.173-1.008-0.27-2.047-0.27-3.114c0-10.084,8.114-18.258,18.125-18.258
	c4.465,0,8.557,1.627,11.713,4.333c5.627-12.776,12.842-24.436,33.079-24.436c24.544,0,36.177,19.073,36.177,39.198
	c0,0.843-0.035,1.677-0.092,2.501C175.784,804.877,185.603,816.5,185.603,830.436"/>
<path fill="#FFFFFF" d="M329.608,294.758c-0.392,0-0.775,0.034-1.16,0.058c0.077-0.796,0.122-1.602,0.122-2.418
	c0-13.516-10.956-24.472-24.471-24.472c-4.368,0-8.46,1.158-12.009,3.162c-3.507-12.192-14.734-21.115-28.055-21.115
	c-16.125,0-29.196,13.072-29.196,29.196c0,1.539,0.121,3.05,0.351,4.525c-0.555-0.041-1.108-0.085-1.673-0.085
	c-12.628,0-22.866,10.237-22.866,22.866c0,12.628,10.238,22.865,22.866,22.865c4.37,0,8.44-1.249,11.913-3.376
	c4.751,8.741,14.015,14.676,24.663,14.676c10.265,0,19.236-5.516,24.126-13.742c2.009,4.339,6.389,7.356,11.485,7.356
	c5.222,0,9.704-3.164,11.64-7.678c3.26,2.885,7.547,4.654,12.264,4.654c10.176,0,18.425-8.165,18.425-18.236
	C348.033,302.923,339.784,294.758,329.608,294.758z"/>
<path fill="#FFFFFF" d="M744.425,472.734c-0.393,0-0.775,0.034-1.16,0.058c0.076-0.795,0.121-1.602,0.121-2.418
	c0-13.516-10.955-24.473-24.471-24.473c-4.367,0-8.459,1.158-12.008,3.162c-3.508-12.191-14.734-21.114-28.055-21.114
	c-16.125,0-29.197,13.071-29.197,29.196c0,1.539,0.121,3.051,0.352,4.525c-0.555-0.041-1.108-0.085-1.673-0.085
	c-12.628,0-22.866,10.237-22.866,22.866c0,12.626,10.238,22.865,22.866,22.865c4.37,0,8.44-1.248,11.913-3.377
	c4.751,8.742,14.014,14.676,24.662,14.676c10.266,0,19.236-5.516,24.127-13.742c2.008,4.34,6.389,7.357,11.484,7.357
	c5.223,0,9.705-3.164,11.641-7.678c3.26,2.885,7.547,4.654,12.264,4.654c10.176,0,18.424-8.166,18.424-18.236
	C762.849,480.899,754.601,472.734,744.425,472.734z"/>
<path fill="#FFFFFF" d="M473.736,580.734c0.026-0.366,0.056-0.733,0.056-1.107c0-8.202-6.649-14.852-14.853-14.852
	c-2.801,0-5.41,0.789-7.646,2.137c-3.75-10.437-13.731-17.902-25.459-17.902c-12.286,0-22.652,8.194-25.949,19.415
	c-2.76-1.368-5.859-2.156-9.148-2.156c-11.41,0-20.66,9.249-20.66,20.659c0,0.383,0.036,0.757,0.057,1.134
	c-0.887-0.131-1.788-0.222-2.712-0.222c-10.173,0-18.419,8.249-18.419,18.42c0,10.174,8.247,18.42,18.419,18.42
	c3.695,0,7.13-1.1,10.014-2.973c2.81,4.326,7.676,7.195,13.22,7.195c5.267,0,9.919-2.596,12.781-6.564
	c2.039,3.672,5.952,6.158,10.449,6.158c3.823,0,7.218-1.801,9.405-4.596c3.248,5.242,9.033,8.744,15.653,8.744
	c6.78,0,12.691-3.676,15.889-9.133c2.683,1.07,5.605,1.666,8.67,1.666c12.923,0,23.397-10.477,23.397-23.398
	C486.9,592.527,481.529,584.531,473.736,580.734z"/>
<path fill="#FFFFFF" d="M201.375,470.376c0.026-0.367,0.056-0.734,0.056-1.107c0-8.203-6.649-14.852-14.852-14.852
	c-2.801,0-5.411,0.789-7.646,2.137c-3.75-10.438-13.732-17.902-25.459-17.902c-12.287,0-22.653,8.193-25.949,19.414
	c-2.76-1.367-5.859-2.156-9.148-2.156c-11.41,0-20.66,9.25-20.66,20.66c0,0.383,0.036,0.756,0.057,1.133
	c-0.887-0.131-1.788-0.221-2.712-0.221c-10.173,0-18.419,8.248-18.419,18.42c0,10.174,8.247,18.42,18.419,18.42
	c3.695,0,7.13-1.1,10.014-2.973c2.81,4.326,7.676,7.195,13.22,7.195c5.267,0,9.919-2.596,12.781-6.564
	c2.039,3.672,5.952,6.158,10.449,6.158c3.823,0,7.218-1.801,9.405-4.596c3.247,5.242,9.033,8.744,15.653,8.744
	c6.781,0,12.691-3.676,15.889-9.133c2.683,1.07,5.605,1.666,8.67,1.666c12.923,0,23.397-10.477,23.397-23.398
	C214.54,482.169,209.168,474.173,201.375,470.376z"/>
<path fill="#FFFFFF" d="M729.874,248.706c0.027-0.367,0.057-0.734,0.057-1.107c0-8.203-6.65-14.852-14.853-14.852
	c-2.802,0-5.411,0.789-7.646,2.137c-3.75-10.438-13.731-17.902-25.459-17.902c-12.286,0-22.653,8.193-25.949,19.414
	c-2.761-1.367-5.858-2.156-9.147-2.156c-11.41,0-20.66,9.25-20.66,20.66c0,0.383,0.036,0.756,0.057,1.133
	c-0.887-0.131-1.787-0.221-2.711-0.221c-10.174,0-18.42,8.248-18.42,18.42c0,10.174,8.246,18.42,18.42,18.42
	c3.695,0,7.129-1.1,10.014-2.973c2.81,4.326,7.676,7.195,13.219,7.195c5.268,0,9.92-2.596,12.781-6.564
	c2.039,3.672,5.952,6.158,10.449,6.158c3.822,0,7.218-1.801,9.405-4.596c3.247,5.242,9.033,8.744,15.653,8.744
	c6.78,0,12.691-3.676,15.889-9.133c2.682,1.07,5.605,1.666,8.67,1.666c12.922,0,23.396-10.477,23.396-23.398
	C743.038,260.499,737.667,252.502,729.874,248.706z"/>
</svg>
