<?xml version="1.0" encoding="utf-8"?>
<!-- Generator: Adobe Illustrator 16.0.3, SVG Export Plug-In . SVG Version: 6.00 Build 0)  -->
<!DOCTYPE svg PUBLIC "-//W3C//DTD SVG 1.1//EN" "http://www.w3.org/Graphics/SVG/1.1/DTD/svg11.dtd">
<svg version="1.1" id="Layer_1" xmlns="http://www.w3.org/2000/svg" xmlns:xlink="http://www.w3.org/1999/xlink" x="0px" y="0px"
	 width="1280px" height="720px" viewBox="0 0 1280 720" enable-background="new 0 0 1280 720" xml:space="preserve">
<rect fill="#58CDFA" width="1280" height="720"/>
<path fill-rule="evenodd" clip-rule="evenodd" fill="#75D8FE" d="M86.1,464.5c80.4,29.7,440.9-17.9,624.9-12.3
	c267.8,8.1,80.3-72.3,445.2-52.7l7.9,0.4c37.5,2,78.1,0.3,117.9-4v-98.4c-112.8,4.7-16.7,14.8-181.1,4.6
	c-169.4-10.5-284.7,16.2-426.5-7.5c-148.9-24.9-419.8,42-624.8,44.1c-12.9,0.1-19.5,4.1-44,0.8l-0.3-9.2
	c-0.6-19.8,131.3-64.4,141.1-79c298.6-36.5,285.2,22.9,533.1-61.8c0.4-0.1,132.4-14.3,143.3-16.4c97.4-18.4,147.1,47,332.9-23
	c5.2-2,62-2.9,126.3-7.1V57.2c-100.2,0.1-216.1,0.9-260.9-13.6c-9.9-3.2-5.6-1.6-15.9-2.2c-6.5-11.6-536.5-3.4-610.6-1.2l-59.6,1.8
	C282.2,43.7,118.1,40.2-2,39.8v21.7c267.1,11.1,858.3-0.6,978.1,11.3c28.8,2.9,236.4,19.4,240,21.5c1,0.6,5,5.2,6.7,7.1
	c1.2,2.9,2,2.8,0.7,5.3l-6.5,1.2c-111.2,21.3-54-11-212.2,33.1c-17.3,4.8-340.2,10.7-416.4,18C453.8,172,412.1,165.2,231.8,186
	c-31.6,3.6-131.5,18-233.8,39.9v178.8c336.6-2.3,966.8-41.5,1144.6-45.9c-11-1.5-463.4,39.4-531.6,42
	c-167.8,6.3-332.2,58.2-593.8,58.5c-3.5,2.8-8.9,6.4-5.5,12.3C16.5,472.4,79.3,468.2,86.1,464.5L86.1,464.5z M1222.1,616.2
	c-78.5,17.4-440.9,17.6-624.1,30.5c-266.7,18.9-84.3-26.6-447.2,2.8l-7.9,0.6c-45.7,3.7-96.4,5.2-144.8,5.2v-41.7
	c145.9-6.5,29.6,5.3,202.4-9.3c168.4-14.3,284.9-9.4,425.1-27.7c147.1-19.3,421.3-6,625.9-16.8c10.1-0.5,16.5,0.2,30.6-0.9v27.7
	c-341.3,17.9-946.7,36.4-1120.1,44.5c10.8-1.3,464.6-9.6,532.8-12.4c165.9-6.8,331.2,5.8,587.3-8.4v5.3
	C1261.6,616.4,1227.1,617.1,1222.1,616.2L1222.1,616.2z M1282,548.5c-34.1-7.6-123.7-16.2-132.2-20.8c-300,1.4-283.2,26.2-535.4,3.9
	c-0.4,0-132.9,1.4-143.9,1.2c-98.2-2.3-144.1,28.7-333.4,9.2c-5.7-0.6-69.5,2.7-139,4.6v-36.9c101.6-5.8,222.1-12.2,267.1-21.3
	c9.7-1.9,5.5-1,15.7-1.9c5.8-5.4,535-32.2,609.2-35.5l59.6-2.6c52.2-2.3,212.9-13,332.3-20.1v9.5c-268.1,20.1-852.2,48.7-970.3,60.6
	c-28.6,2.9-234.8,21.9-238.2,23c-1,0.3-4.6,2.5-6.3,3.4c-1,1.3-1.9,1.3-0.4,2.3l6.6,0.2c112.1,2.8,53.3-7.9,213.6,2.1
	c17.6,1.1,340.1-14.9,416.4-16.1c135-2.1,176.3-7.4,357.3-8.8c30.3-0.2,123.1,0.2,221.3,3.3V548.5z"/>
<g display="none">
	<defs>
		<rect id="SVGID_1_" width="1280" height="720"/>
	</defs>
	<clipPath id="SVGID_2_" display="inline">
		<use xlink:href="#SVGID_1_"  overflow="visible"/>
	</clipPath>
	<rect clip-path="url(#SVGID_2_)" fill="#58C4D1" width="1280" height="720"/>
	
		<linearGradient id="SVGID_3_" gradientUnits="userSpaceOnUse" x1="1487.3779" y1="205.3467" x2="1487.3779" y2="500.3139" gradientTransform="matrix(0.9099 -0.4149 0.4149 0.9099 -242.1928 439.0727)">
		<stop  offset="0" style="stop-color:#000000"/>
		<stop  offset="1" style="stop-color:#000000;stop-opacity:0"/>
	</linearGradient>
	<polygon opacity="0.22" clip-path="url(#SVGID_2_)" fill="url(#SVGID_3_)" points="1412.4,227.1 1290.1,294.1 1101.6,56.5 
		1269.6,32.8 	"/>
	<g opacity="0.23" clip-path="url(#SVGID_2_)">
		<linearGradient id="SVGID_4_" gradientUnits="userSpaceOnUse" x1="223.1963" y1="146.0293" x2="223.1963" y2="146.0293">
			<stop  offset="0" style="stop-color:#000000"/>
			<stop  offset="1" style="stop-color:#000000;stop-opacity:0"/>
		</linearGradient>
		<path display="inline" fill="url(#SVGID_4_)" d="M223.2,146"/>
	</g>
	
		<linearGradient id="SVGID_5_" gradientUnits="userSpaceOnUse" x1="813.0332" y1="601.707" x2="813.0332" y2="896.6708" gradientTransform="matrix(0.9099 -0.4149 0.4149 0.9099 -242.1928 439.0727)">
		<stop  offset="0" style="stop-color:#000000"/>
		<stop  offset="1" style="stop-color:#000000;stop-opacity:0"/>
	</linearGradient>
	<polygon display="inline" opacity="0.22" clip-path="url(#SVGID_2_)" fill="url(#SVGID_5_)" points="990.5,863.2 750.4,975.8 
		628.3,707.9 818.7,621.1 	"/>
	
		<linearGradient id="SVGID_6_" gradientUnits="userSpaceOnUse" x1="524.0352" y1="-288.6035" x2="524.0352" y2="130.0031" gradientTransform="matrix(0.3289 -0.15 9.760000e-002 0.2141 -91.3457 160.4917)">
		<stop  offset="0" style="stop-color:#000000"/>
		<stop  offset="1" style="stop-color:#000000;stop-opacity:0"/>
	</linearGradient>
	<polygon opacity="0.23" clip-path="url(#SVGID_2_)" fill="url(#SVGID_6_)" points="129.2,72.8 86.1,114.4 17.4,57.3 65.3,15.9 	"/>
	<g clip-path="url(#SVGID_2_)">
		<rect x="32" y="24" display="inline" fill="#FFFFFF" width="8" height="28"/>
		<path display="inline" fill="#416D76" d="M1254,48.7c0,6.8-4,12.3-9,12.3h-136.7c-5,0-9.3-5.5-9.3-12.3V26.3
			c0-6.8,4.3-12.3,9.3-12.3H1245c5,0,9,5.5,9,12.3V48.7z"/>
		<rect x="45" y="24" display="inline" fill="#FFFFFF" width="8" height="28"/>
		<path display="inline" fill="#416D76" d="M69,51.7c0,5.1-4.1,9.3-9.3,9.3H25.3c-5.1,0-9.3-4.1-9.3-9.3V23.3c0-5.1,4.1-9.3,9.3-9.3
			h34.5c5.1,0,9.3,4.1,9.3,9.3V51.7z"/>
	</g>
	<rect x="627" y="645" display="inline" clip-path="url(#SVGID_2_)" fill="#67838E" width="27" height="34"/>
	<rect x="461" y="705" display="inline" clip-path="url(#SVGID_2_)" fill="#D5675C" width="357" height="15"/>
	<rect x="461" y="705" display="inline" clip-path="url(#SVGID_2_)" fill="#D5675C" width="357" height="15"/>
	<rect x="461" y="707" display="inline" clip-path="url(#SVGID_2_)" fill="#BBD9C1" width="9" height="8"/>
	<rect x="461" y="716" display="inline" clip-path="url(#SVGID_2_)" fill="#BBD9C1" width="12" height="4"/>
	<rect x="808" y="716" display="inline" clip-path="url(#SVGID_2_)" fill="#BBD9C1" width="10" height="4"/>
	<rect x="805" y="707" display="inline" clip-path="url(#SVGID_2_)" fill="#BBD9C1" width="13" height="8"/>
	<rect x="786" y="718" display="inline" clip-path="url(#SVGID_2_)" fill="#C5544C" width="19" height="2"/>
	<rect x="514" y="709" display="inline" clip-path="url(#SVGID_2_)" fill="#C5544C" width="24" height="9"/>
	<polygon display="inline" clip-path="url(#SVGID_2_)" fill="#5D617A" points="455.3,690.8 460.4,621 818.1,621 825,690.3 	"/>
	<rect x="522" y="677" display="inline" clip-path="url(#SVGID_2_)" fill="#BBD9C1" width="48" height="4"/>
	<rect x="528" y="639" display="inline" clip-path="url(#SVGID_2_)" fill="#D96565" width="38" height="38"/>
	<rect x="533" y="643" display="inline" clip-path="url(#SVGID_2_)" fill="#67838E" width="29" height="34"/>
	<rect x="533" y="643" display="inline" clip-path="url(#SVGID_2_)" fill="#B3E2EC" width="29" height="2"/>
	<rect x="533" y="649" display="inline" clip-path="url(#SVGID_2_)" fill="#B3E2EC" width="29" height="2"/>
	<rect x="533" y="655" display="inline" clip-path="url(#SVGID_2_)" fill="#B3E2EC" width="29" height="1"/>
	<rect x="533" y="660" display="inline" clip-path="url(#SVGID_2_)" fill="#B3E2EC" width="29" height="2"/>
	<rect x="533" y="666" display="inline" clip-path="url(#SVGID_2_)" fill="#B3E2EC" width="29" height="2"/>
	<rect x="533" y="671" display="inline" clip-path="url(#SVGID_2_)" fill="#B3E2EC" width="29" height="2"/>
	<rect x="616" y="677" display="inline" clip-path="url(#SVGID_2_)" fill="#BBD9C1" width="49" height="4"/>
	<rect x="621" y="639" display="inline" clip-path="url(#SVGID_2_)" fill="#D96565" width="40" height="38"/>
	<rect x="627" y="668" display="inline" clip-path="url(#SVGID_2_)" fill="#B3E2EC" width="27" height="2"/>
	<rect x="627" y="662" display="inline" clip-path="url(#SVGID_2_)" fill="#B3E2EC" width="27" height="1"/>
	<rect x="627" y="656" display="inline" clip-path="url(#SVGID_2_)" fill="#B3E2EC" width="27" height="3"/>
	<rect x="627" y="651" display="inline" clip-path="url(#SVGID_2_)" fill="#B3E2EC" width="27" height="1"/>
	<rect x="627" y="645" display="inline" clip-path="url(#SVGID_2_)" fill="#B3E2EC" width="27" height="2"/>
	<rect x="627" y="643" display="inline" clip-path="url(#SVGID_2_)" fill="#67838E" width="27" height="34"/>
	<rect x="627" y="643" display="inline" clip-path="url(#SVGID_2_)" fill="#B3E2EC" width="27" height="2"/>
	<rect x="627" y="649" display="inline" clip-path="url(#SVGID_2_)" fill="#B3E2EC" width="27" height="2"/>
	<rect x="627" y="655" display="inline" clip-path="url(#SVGID_2_)" fill="#B3E2EC" width="27" height="1"/>
	<rect x="627" y="660" display="inline" clip-path="url(#SVGID_2_)" fill="#B3E2EC" width="27" height="2"/>
	<rect x="627" y="666" display="inline" clip-path="url(#SVGID_2_)" fill="#B3E2EC" width="27" height="2"/>
	<rect x="627" y="671" display="inline" clip-path="url(#SVGID_2_)" fill="#B3E2EC" width="27" height="2"/>
	<rect x="451" y="690" display="inline" clip-path="url(#SVGID_2_)" fill="#BBD9C1" width="377" height="15"/>
	<rect x="711" y="677" display="inline" clip-path="url(#SVGID_2_)" fill="#BBD9C1" width="50" height="4"/>
	<rect x="717" y="639" display="inline" clip-path="url(#SVGID_2_)" fill="#D96565" width="39" height="38"/>
	<rect x="723" y="643" display="inline" clip-path="url(#SVGID_2_)" fill="#67838E" width="28" height="34"/>
	<rect x="723" y="643" display="inline" clip-path="url(#SVGID_2_)" fill="#B3E2EC" width="28" height="2"/>
	<rect x="723" y="649" display="inline" clip-path="url(#SVGID_2_)" fill="#B3E2EC" width="28" height="2"/>
	<rect x="723" y="655" display="inline" clip-path="url(#SVGID_2_)" fill="#B3E2EC" width="28" height="1"/>
	<rect x="723" y="660" display="inline" clip-path="url(#SVGID_2_)" fill="#B3E2EC" width="28" height="2"/>
	<rect x="723" y="666" display="inline" clip-path="url(#SVGID_2_)" fill="#B3E2EC" width="28" height="2"/>
	<rect x="723" y="671" display="inline" clip-path="url(#SVGID_2_)" fill="#B3E2EC" width="28" height="2"/>
	<g clip-path="url(#SVGID_2_)">
		
			<text transform="matrix(1 0 0 1 1117.2412 47.6665)" display="inline" fill="#F0AD35" font-family="'FuturaBT-Medium'" font-size="25">112359</text>
	</g>
	<g clip-path="url(#SVGID_2_)">
		<defs>
			<rect id="SVGID_7_" width="1280" height="720"/>
		</defs>
		<clipPath id="SVGID_8_" display="inline">
			<use xlink:href="#SVGID_7_"  overflow="visible"/>
		</clipPath>
		<path display="inline" clip-path="url(#SVGID_8_)" fill="#F0AD35" d="M1244.9,65.8c-15,0-27.3-11.6-27.3-27.1
			c0-15.4,15.5-27.6,27.2-26.9c11.7,0.7,27.2,11.5,27.2,26.9C1272,54.2,1260,65.8,1244.9,65.8"/>
		<path display="inline" clip-path="url(#SVGID_8_)" fill="#D19428" d="M1244.9,66.2c-15,0-35-21.3-21.7-29.2
			c23.4-14.1,26.4-14.2,38.2,0.9C1270.9,50,1260,66.2,1244.9,66.2"/>
		<path display="inline" clip-path="url(#SVGID_8_)" fill="#833F00" d="M1225.7,41.4c-1,0-2.5-1.6-2.5-2.6s0.8-1.8,1.8-1.8
			c1,0,3.8,0.2,3.8,1.2S1226.7,41.4,1225.7,41.4"/>
		<path display="inline" clip-path="url(#SVGID_8_)" fill="#833F00" d="M1241.6,34.5c-1,0-1.8-0.8-1.8-1.8c0-1,0.8-1.8,1.8-1.8
			c1,0,2.7,0.9,2.7,1.9S1242.5,34.5,1241.6,34.5"/>
		<path display="inline" clip-path="url(#SVGID_8_)" fill="#833F00" d="M1237.9,57.1c-1,0-1.9-1.7-1.9-2.7c0-1,0.8-1.8,1.8-1.8
			s2.5,1.2,2.5,2.2S1238.9,57.1,1237.9,57.1"/>
		<path display="inline" clip-path="url(#SVGID_8_)" fill="#833F00" d="M1264.3,38.9c-1,0-2.1-1.6-2.1-2.7s1.4-1.8,2.4-1.8
			c1,0,1.8,0.8,1.8,1.8C1266.4,37.4,1265.3,38.9,1264.3,38.9"/>
		<path display="inline" clip-path="url(#SVGID_8_)" fill="#833F00" d="M1256.1,58.5c-1,0-2.1-1.6-2.1-2.7c0-1,1.4-1.8,2.4-1.8
			c1,0,1.8,0.8,1.8,1.8S1257.1,58.5,1256.1,58.5"/>
		<path display="inline" clip-path="url(#SVGID_8_)" fill="#833F00" d="M1241.9,20.2c-1,0-2.4-0.5-2.4-1.5s1.4-2.2,2.4-2.2
			c1,0,2.5,0.9,2.5,1.9S1242.9,20.2,1241.9,20.2"/>
	</g>
	<g clip-path="url(#SVGID_2_)">
		<defs>
			<rect id="SVGID_9_" width="1280" height="720"/>
		</defs>
		<clipPath id="SVGID_10_" display="inline">
			<use xlink:href="#SVGID_9_"  overflow="visible"/>
		</clipPath>
		<path display="inline" clip-path="url(#SVGID_10_)" fill="#7C694A" d="M623.6,562c1.9-1.6-6.3,5.5-14.5,4.8
			c-8.2-0.7-8.2-13.1-8.5-21.2c0,0-2-17.9,0-23c11.9-36.4,65.4-39.1,76.5,3.4c1.3,13.9,0.5,26.5-3.2,38.9c0,0-3.3,3.5-8.5,0
			c-4.4-2.3-5.3-2.5-8.9-3.7"/>
		<path display="inline" clip-path="url(#SVGID_10_)" fill="none" stroke="#000000" stroke-width="0.3" stroke-miterlimit="10" d="
			M623.6,562c1.9-1.6-6.3,5.5-14.5,4.8c-8.2-0.7-8.2-13.1-8.5-21.2c0,0-2-17.9,0-23c11.9-36.4,65.4-39.1,76.5,3.4
			c1.3,13.9,0.5,26.5-3.2,38.9c0,0-3.3,3.5-8.5,0c-4.4-2.3-5.3-2.5-8.9-3.7"/>
		<path display="inline" clip-path="url(#SVGID_10_)" fill="#D3BB93" d="M601.3,544.6c0,0-2-17.3,0-22.2
			c13.7-36.9,63.6-37.4,73.9,3.3c0.3,4.6,1.4,6.3,1.9,15.1c0-7.6-0.2-13.5-0.6-15.3c-11-42.4-64.3-39.7-76.2-3.4
			c-2,5.1-0.1,23.1-0.1,23.1c0.1,2.4,0.2,6.8,0.4,7.8C600.6,551.2,601.3,548.9,601.3,544.6"/>
		<g display="inline" opacity="0.3" clip-path="url(#SVGID_10_)">
			<g>
				<defs>
					<rect id="SVGID_11_" x="603.1" y="505.2" width="70.5" height="58"/>
				</defs>
				<clipPath id="SVGID_12_">
					<use xlink:href="#SVGID_11_"  overflow="visible"/>
				</clipPath>
				<line clip-path="url(#SVGID_12_)" fill="#41AF68" x1="663.3" y1="518.5" x2="663.3" y2="518.5"/>
				<g opacity="0.4" clip-path="url(#SVGID_12_)">
					<g>
						<defs>
							<rect id="SVGID_13_" x="603.1" y="505.2" width="70.5" height="58"/>
						</defs>
						<clipPath id="SVGID_14_">
							<use xlink:href="#SVGID_13_"  overflow="visible"/>
						</clipPath>
						<path clip-path="url(#SVGID_14_)" d="M662.5,517.4c-8.2-2.6-21.8-0.2-24.1-9.6c-2.7,6.5-8.4,4.6-24,8.9
							c-14.6,7.8-7.6,34.8-4.5,41.9c-7.9-12.2-7.3-27-5.9-32.3c1.4-5.2,6.9-11,10.5-12.3c3.6-1.3,21.6-2.4,24.3-8.9
							c2.3,9.4,19.2,4.5,26,10.3c0.4,0.5,6.7,3.7,8.3,10.1c1.6,6.4-0.4,29.7-8.2,37.6C664.9,563.2,681.4,527.5,662.5,517.4"/>
					</g>
				</g>
			</g>
		</g>
		<path display="inline" clip-path="url(#SVGID_10_)" fill="#1F1A12" d="M612.9,566.2c-0.1-0.1-0.1-0.2-0.2-0.3
			c-0.1-0.2-0.3-0.5-0.5-0.9c-1.8-3.8-5.2-14.2-5.4-16.7c1.4,2.5,10.6,12.4,16.3,13.3C620.3,563.5,616,565.2,612.9,566.2"/>
		<path display="inline" clip-path="url(#SVGID_10_)" fill="#1F1A12" d="M664.2,564.3c0.1-0.1,0.2-0.3,0.4-0.5
			c1.5-2.5,5.1-13.7,5.1-14.9c-1.2,2-8.8,9.8-13.7,12.1c2.7,0.9,5,1.6,7.6,3C663.7,564.1,664.1,564.2,664.2,564.3"/>
		<line display="inline" clip-path="url(#SVGID_10_)" x1="638.7" y1="507.2" x2="638.7" y2="502.1"/>
		
			<line display="inline" clip-path="url(#SVGID_10_)" fill="none" stroke="#000000" stroke-width="0.2" stroke-miterlimit="10" x1="638.7" y1="507.2" x2="638.7" y2="502.1"/>
		<path display="inline" clip-path="url(#SVGID_10_)" fill="#E65151" d="M651.1,494.8c0,4-5.7,7.2-12.7,7.2s-12.2-3.2-12.2-7.2
			c0-4,5.2-7.2,12.2-7.2S651.1,490.8,651.1,494.8"/>
		<path display="inline" clip-path="url(#SVGID_10_)" fill="none" stroke="#000000" stroke-width="0.3" stroke-miterlimit="10" d="
			M651.1,494.8c0,4-5.7,7.2-12.7,7.2s-12.2-3.2-12.2-7.2c0-4,5.2-7.2,12.2-7.2S651.1,490.8,651.1,494.8z"/>
		<g display="inline" opacity="0.9" clip-path="url(#SVGID_10_)">
			<g>
				<defs>
					<rect id="SVGID_15_" x="626.5" y="487.6" width="24.3" height="6.1"/>
				</defs>
				<clipPath id="SVGID_16_">
					<use xlink:href="#SVGID_15_"  overflow="visible"/>
				</clipPath>
				<path clip-path="url(#SVGID_16_)" fill="#E5E1DB" d="M650.8,493.4c-1.2-3.3-6.3-5.8-12.4-5.8c-6.1,0-10.8,2.5-11.9,5.8l0.2,0.3
					c1.4-3,5.9-5.5,11.8-5.5c5.9,0,10.8,2.5,12.3,5.5L650.8,493.4z"/>
			</g>
		</g>
		<g display="inline" opacity="0.3" clip-path="url(#SVGID_10_)">
			<g>
				<defs>
					<rect id="SVGID_17_" x="626.2" y="493.4" width="24.9" height="12.1"/>
				</defs>
				<clipPath id="SVGID_18_">
					<use xlink:href="#SVGID_17_"  overflow="visible"/>
				</clipPath>
				<path clip-path="url(#SVGID_18_)" fill="#403F3A" d="M638.4,498.8c-5.8,0-10.5-2.3-11.9-5.4c-0.3,0.6-0.3,1.2-0.3,1.9
					c0,3.7,5.2,10.2,12.2,10.2s12.7-6.5,12.7-10.2c0-0.7,0.1-1.3-0.3-1.9C649.3,496.5,644.2,498.8,638.4,498.8"/>
			</g>
		</g>
		<path display="inline" clip-path="url(#SVGID_10_)" fill="#593324" d="M647.1,617.8c-0.4-1.8,0.9-1.5,3.2-1.5
			c2.8,0,2.8,0.7,2.8,1.9c0,0.7-0.5,0.9-2.8,0.9C647.1,619.1,647.3,618.9,647.1,617.8"/>
		<path display="inline" clip-path="url(#SVGID_10_)" fill="none" stroke="#804933" stroke-width="0.5" stroke-miterlimit="10" d="
			M647.1,617.8c-0.4-1.8,0.9-1.5,3.2-1.5c2.8,0,2.8,0.7,2.8,1.9c0,0.7-0.5,0.9-2.8,0.9C647.1,619.1,647.3,618.9,647.1,617.8z"/>
		<path display="inline" clip-path="url(#SVGID_10_)" fill="#593324" d="M631.4,617.7c-0.1,1.2-1.1,1.5-3.2,1.5
			c-2.1,0-2.8-0.3-2.8-1.5c0-0.7,0.5-1.4,2.8-1.4C631.4,616.3,631.5,616,631.4,617.7"/>
		<path display="inline" clip-path="url(#SVGID_10_)" fill="none" stroke="#804933" stroke-miterlimit="10" d="M631.4,617.7
			c-0.1,1.2-1.1,1.5-3.2,1.5c-2.1,0-2.8-0.3-2.8-1.5c0-0.7,0.5-1.4,2.8-1.4C631.4,616.3,631.5,616,631.4,617.7z"/>
		<path display="inline" clip-path="url(#SVGID_10_)" fill="#7C694A" d="M609.5,506.6c-5.2-4.1-12.8-9.2-20.4-8.1
			c-3.1,12.4,6.6,26.1,10.5,26C600.9,519.1,604.6,512.4,609.5,506.6"/>
		<path display="inline" clip-path="url(#SVGID_10_)" fill="none" stroke="#000000" stroke-width="0.3" stroke-miterlimit="10" d="
			M609.5,506.6c-5.2-4.1-12.8-9.2-20.4-8.1c-3.1,12.4,6.6,26.1,10.5,26C600.9,519.1,604.6,512.4,609.5,506.6z"/>
		<path display="inline" clip-path="url(#SVGID_10_)" fill="#7C694A" d="M667.1,506.8c5.2-4.1,11.6-9.4,20.4-8.1
			c3.1,12.4-6.9,27.1-10.8,27.1C675.4,520.3,672,512.6,667.1,506.8"/>
		<path display="inline" clip-path="url(#SVGID_10_)" fill="none" stroke="#000000" stroke-width="0.3" stroke-miterlimit="10" d="
			M667.1,506.8c5.2-4.1,11.6-9.4,20.4-8.1c3.1,12.4-6.9,27.1-10.8,27.1C675.4,520.3,672,512.6,667.1,506.8z"/>
		<path display="inline" clip-path="url(#SVGID_10_)" fill="#B09063" d="M687.5,498.8c-8.2-1.4-15.3,3.9-20.3,8.1
			c0.5,0.6,0.9,1.1,1.4,1.7c4.7-4.5,10.5-9.5,19-9.2L687.5,498.8z"/>
		<path display="inline" clip-path="url(#SVGID_10_)" fill="#B09A75" d="M609.5,506.7c-5.2-4.1-12.8-9.2-20.4-8.1c0,0.1,0,0.1,0,0.2
			c7.3,1.3,13.8,5.9,18.6,10.2L609.5,506.7z"/>
		<path display="inline" clip-path="url(#SVGID_10_)" fill="#5D4F38" d="M675,520.3c0,0,1.7,5.5,2,5.5c3.4-0.4,11.1-10.5,11.1-21.7
			C687.1,509.5,680.3,517.8,675,520.3"/>
		<path display="inline" clip-path="url(#SVGID_10_)" fill="#F0ABAB" d="M605.4,511.5c-2.8-2.2-8.1-8.8-12.2-8.2
			c-0.3,6.1,3.7,15.5,7.7,16.9C601.6,517.2,602.8,514.6,605.4,511.5"/>
		<path display="inline" clip-path="url(#SVGID_10_)" fill="none" stroke="#000000" stroke-width="0.3" stroke-miterlimit="10" d="
			M605.4,511.5c-2.8-2.2-8.1-8.8-12.2-8.2c-0.3,6.1,3.7,15.5,7.7,16.9C601.6,517.2,602.8,514.6,605.4,511.5z"/>
		<g display="inline" opacity="0.3" clip-path="url(#SVGID_10_)">
			<g>
				<defs>
					<rect id="SVGID_19_" x="593.3" y="503.2" width="12" height="16.9"/>
				</defs>
				<clipPath id="SVGID_20_">
					<use xlink:href="#SVGID_19_"  overflow="visible"/>
				</clipPath>
				<path clip-path="url(#SVGID_20_)" fill="#785656" d="M600.9,520.1c0.9-1.3,3.3-7.3,4.4-8.7c-2.8-2.2-7.7-8.2-12-8.2
					c4.8,3.8,7.7,10.1,6.6,16.4C599.8,520.3,600.9,519.7,600.9,520.1"/>
			</g>
		</g>
		<path display="inline" clip-path="url(#SVGID_10_)" fill="#F0ABAB" d="M671.2,511.7c2.8-2.2,8.1-8.8,12.2-8.2
			c0.3,6.1-3.7,15.5-7.7,16.9C675,517.4,673.8,514.8,671.2,511.7"/>
		<path display="inline" clip-path="url(#SVGID_10_)" fill="none" stroke="#000000" stroke-width="0.3" stroke-miterlimit="10" d="
			M671.2,511.7c2.8-2.2,8.1-8.8,12.2-8.2c0.3,6.1-3.7,15.5-7.7,16.9C675,517.4,673.8,514.8,671.2,511.7z"/>
		<g display="inline" opacity="0.3" clip-path="url(#SVGID_10_)">
			<g>
				<defs>
					<rect id="SVGID_21_" x="671.4" y="503.4" width="12" height="16.9"/>
				</defs>
				<clipPath id="SVGID_22_">
					<use xlink:href="#SVGID_21_"  overflow="visible"/>
				</clipPath>
				<path clip-path="url(#SVGID_22_)" fill="#785656" d="M675.8,520.3c0-1.8-3.3-7.3-4.4-8.7c2.8-2.2,7.7-8.2,12-8.2
					c-6.8,4.8-6.5,12.3-6.2,15.1C677.3,519.2,675.8,519.9,675.8,520.3"/>
			</g>
		</g>
		<path display="inline" clip-path="url(#SVGID_10_)" fill="#7A8BA9" d="M655.8,591.9c0.1,1.4-0.7,4.3-0.7,4.3
			c-0.6,10.8-3.2,16.6-2.3,19.9c-0.4,0.2-5.1,0.4-5.5,0.1c0-5.4-3.9-10.8-3.9-10.8c-0.2-0.8-5.8-0.5-8.4,0.5
			c-1.1,0.5-3.9,6.6-3.9,10.2c-1.1,0.4-3.6,0.4-4.7-0.2c-0.6-4.4-2-20.5-2.6-23.4C627.6,596.1,653.1,593.5,655.8,591.9"/>
		<path display="inline" clip-path="url(#SVGID_10_)" fill="none" stroke="#000000" stroke-width="0.3" stroke-miterlimit="10" d="
			M655.8,591.9c0.1,1.4-0.7,4.3-0.7,4.3c-0.6,10.8-3.2,16.6-2.3,19.9c-0.4,0.2-5.1,0.4-5.5,0.1c0-5.4-3.9-10.8-3.9-10.8
			c-0.2-0.8-5.8-0.5-8.4,0.5c-1.1,0.5-3.9,6.6-3.9,10.2c-1.1,0.4-3.6,0.4-4.7-0.2c-0.6-4.4-2-20.5-2.6-23.4
			C627.6,596.1,653.1,593.5,655.8,591.9z"/>
		<g display="inline" opacity="0.7" clip-path="url(#SVGID_10_)">
			<g>
				<defs>
					<rect id="SVGID_23_" x="623.7" y="592.2" width="3.4" height="23.3"/>
				</defs>
				<clipPath id="SVGID_24_">
					<use xlink:href="#SVGID_23_"  overflow="visible"/>
				</clipPath>
				<line clip-path="url(#SVGID_24_)" x1="624.2" y1="592.3" x2="626.6" y2="615.5"/>
				
					<line clip-path="url(#SVGID_24_)" fill="none" stroke="#C0D8EC" stroke-miterlimit="10" x1="624.2" y1="592.3" x2="626.6" y2="615.5"/>
			</g>
		</g>
		<g display="inline" opacity="0.7" clip-path="url(#SVGID_10_)">
			<g>
				<defs>
					<rect id="SVGID_25_" x="651.7" y="591.8" width="4.6" height="24.4"/>
				</defs>
				<clipPath id="SVGID_26_">
					<use xlink:href="#SVGID_25_"  overflow="visible"/>
				</clipPath>
				<path clip-path="url(#SVGID_26_)" fill="none" stroke="#C0D8EC" stroke-miterlimit="10" d="M652.2,616.1c0,0,0.5-4.8,0.6-6.1
					c0.9-3,2.1-12.9,2.1-14.1c0.5-1.3,0.9-4,0.9-4"/>
			</g>
		</g>
		<path display="inline" clip-path="url(#SVGID_10_)" fill="#16252B" d="M647.3,615.8c0-0.8-0.2-1.6-0.3-2.5
			c-0.8-3.5-3.3-7.7-3.7-8.2c-0.7-0.5-5.8-0.3-8.2,0.6c-1.3,0.3-3.9,6.4-3.9,10v-2.6c0-3.6,2.5-7.6,3.6-8.2
			c1.3-0.6,9.2-0.6,10.3,0.2c0.3,1.5,2.7,5.5,2.7,8.7L647.3,615.8z"/>
		<path display="inline" clip-path="url(#SVGID_10_)" fill="#CADBF8" d="M631.4,615.5c-0.6,0.4-1.7,0.2-2.6,0.2
			c-1.1,0-2.2,0-2.9-0.4l0.1-1c0.6,0.4,1.8,0.4,2.7,0.4c0.9,0,2,0,2.6-0.3V615.5z"/>
		<path display="inline" clip-path="url(#SVGID_10_)" fill="#CADBF8" d="M652.6,615.7c-0.6,0.4-1.7,0.2-2.6,0.2
			c-1.1,0-2.2,0-2.9-0.4l0.1-1c0.6,0.4,1.8,0.4,2.7,0.4c0.9,0,2,0,2.6-0.3V615.7z"/>
		<path display="inline" clip-path="url(#SVGID_10_)" fill="none" stroke="#2A313D" stroke-miterlimit="10" d="M653.8,597.7
			c-1.5-0.4-3.2-1.1-3.8-2.7"/>
		<path display="inline" clip-path="url(#SVGID_10_)" fill="#2A313D" d="M638.6,595.5c0,0,0.2,0.5,0.3,1.2c0.2,0.7,0.3,1.7,0.3,2.7
			c0,1,0,2-0.1,2.7c-0.1,0.8-0.2,1.3-0.2,1.3s-0.2-0.5-0.3-1.2c-0.2-0.7-0.3-1.7-0.3-2.7c0-1,0-2,0.1-2.7
			C638.5,596,638.6,595.5,638.6,595.5"/>
		<line display="inline" clip-path="url(#SVGID_10_)" fill="#BFD5FB" x1="639.7" y1="596.7" x2="640.1" y2="601.7"/>
		<path display="inline" clip-path="url(#SVGID_10_)" fill="#2A313D" d="M639.7,596.7c0,0,0.2,0.3,0.3,0.8c0.2,0.5,0.3,1.1,0.3,1.7
			c0,0.6,0,1.3-0.1,1.7c-0.1,0.5-0.2,0.8-0.2,0.8s-0.2-0.3-0.3-0.8c-0.2-0.5-0.3-1.1-0.3-1.7c0-0.6,0-1.3,0.1-1.7
			C639.6,597,639.7,596.7,639.7,596.7"/>
		<path display="inline" clip-path="url(#SVGID_10_)" fill="none" stroke="#2A313D" stroke-miterlimit="10" d="M628,594.8
			c-0.4,1.6-1.6,2.9-3,3.5"/>
		<path display="inline" clip-path="url(#SVGID_10_)" fill="#872C2A" d="M623.5,592.3c-0.4-0.3-1.1-0.4-1.1-0.4
			c1.2-1,1.3-6.9,1.3-6.9c-2.7-7.6-1.3-20,3.2-22c6.5,2.2,15.8,2.7,23.7,0c5,2.2,6.2,18,4,22.4c0.5,1.2,1.1,6,1.1,6.5
			c0,0-1.4,0.7-0.9,0.5C653.6,593.2,630,596.3,623.5,592.3"/>
		<path display="inline" clip-path="url(#SVGID_10_)" fill="none" stroke="#000000" stroke-width="0.3" stroke-miterlimit="10" d="
			M623.5,592.3c-0.4-0.3-1.1-0.4-1.1-0.4c1.2-1,1.3-6.9,1.3-6.9c-2.7-7.6-1.3-20,3.2-22c6.5,2.2,15.8,2.7,23.7,0
			c5,2.2,6.2,18,4,22.4c0.5,1.2,1.1,6,1.1,6.5c0,0-1.4,0.7-0.9,0.5C653.6,593.2,630,596.3,623.5,592.3z"/>
		<polyline display="inline" clip-path="url(#SVGID_10_)" fill="#801913" points="623.6,585 622.7,579.9 624.8,579.9 		"/>
		<path display="inline" clip-path="url(#SVGID_10_)" fill="#801913" d="M653.8,581.3c0,0,0.8-0.2,1.9-0.1c-0.3,2.1-0.8,4.1-1,4.6
			L653.8,581.3z"/>
		<path display="inline" clip-path="url(#SVGID_10_)" fill="#9E4441" d="M650.9,563.1c-3.3,1-7.3,1.6-11.7,1.6
			c-4.6,0-8.8-0.7-12.3-1.8l-1.3,1c3.1,2.7,8.1,4.1,13.4,4.1c5.1,0,9.7-1.6,12.9-4.2L650.9,563.1"/>
		<path display="inline" clip-path="url(#SVGID_10_)" fill="#9E4441" d="M650.2,567.8c-2.2,1.8-6.7,4.1-11.1,4.1
			c-4.6,0-8.8-1.1-11.1-3.6l-1.6,5.4c3.1,2.7,7.3,3.6,12.6,3.6c5.1,0,9.3-2.1,12.4-4.7L650.2,567.8z"/>
		<path display="inline" clip-path="url(#SVGID_10_)" fill="#9E4441" d="M654.4,583.9c-3.1,2.6-10.2,5.2-15.4,5.2
			c-5.3,0-11.4-2.1-14.9-5.6l0.7-4.9c2.4,2,9.8,3.3,14.4,3.3c4.4,0,11.3-0.9,13.8-3.3L654.4,583.9z"/>
		<path display="inline" clip-path="url(#SVGID_10_)" fill="#9E4441" d="M655.3,572.2c-1,0.4-2.1,0.7-3.2,1l0.7,3.3
			c1-0.3,2-0.5,3-0.8 M626.6,573.3c-1.3-0.4-2.6-0.8-3.8-1.2l-0.2,3.6c1,0.3,2.1,0.6,3.2,0.9"/>
		<line display="inline" clip-path="url(#SVGID_10_)" fill="#311201" x1="623.7" y1="584.6" x2="627.6" y2="570.2"/>
		<path display="inline" clip-path="url(#SVGID_10_)" fill="#3F0400" d="M623.6,584.6c0,0-0.2-0.3-0.3-0.8c-0.2-0.5-0.4-1.1-0.5-1.9
			c-0.1-0.8-0.2-1.6-0.1-2.5c0-0.4,0.1-0.9,0.1-1.4c0.1-0.5,0.2-0.9,0.3-1.4c0.1-0.4,0.3-0.9,0.4-1.3c0.2-0.4,0.4-0.8,0.6-1.2
			c0.4-0.8,0.9-1.5,1.4-2.1c0.5-0.6,1-1.1,1.4-1.4c0.4-0.3,0.7-0.5,0.7-0.5l0.3,0.1c0,0-0.2,0.9-0.5,2.3c-0.4,1.4-0.8,3.2-1.3,5
			c-0.5,1.8-1,3.6-1.4,4.9c-0.4,1.3-0.7,2.2-0.7,2.2L623.6,584.6z"/>
		<line display="inline" clip-path="url(#SVGID_10_)" fill="#311201" x1="650.8" y1="570.5" x2="654.7" y2="585"/>
		<path display="inline" clip-path="url(#SVGID_10_)" fill="#3F0400" d="M650.9,570.5c0,0,0.3,0.2,0.7,0.5c0.4,0.3,0.9,0.8,1.4,1.4
			c0.5,0.6,1,1.3,1.4,2.1c0.2,0.4,0.4,0.8,0.6,1.2c0.2,0.4,0.3,0.9,0.4,1.3c0.1,0.5,0.2,0.9,0.3,1.4c0.1,0.5,0.1,0.9,0.1,1.4
			c0,0.9,0,1.8-0.1,2.5c-0.1,0.8-0.3,1.4-0.5,1.9c-0.2,0.5-0.3,0.8-0.3,0.8l-0.3,0.1c0,0-0.3-0.9-0.7-2.2c-0.4-1.3-0.9-3.1-1.4-4.9
			c-0.5-1.8-0.9-3.6-1.3-5c-0.3-1.4-0.5-2.3-0.5-2.3L650.9,570.5z"/>
		<g display="inline" opacity="0.4" clip-path="url(#SVGID_10_)">
			<g>
				<defs>
					<rect id="SVGID_27_" x="622.7" y="592.1" width="33.2" height="3.7"/>
				</defs>
				<clipPath id="SVGID_28_">
					<use xlink:href="#SVGID_27_"  overflow="visible"/>
				</clipPath>
				<path clip-path="url(#SVGID_28_)" fill="#05113B" d="M643.5,594.1c-1.5,0.1-2.7,0.2-4.2,0.2c-0.4,0-1,0.1-1.4,0.1l-15.2-2
					c5,2.2,10.6,3.5,16.4,3.5c6,0,11.7-1.3,16.9-3.7L643.5,594.1z"/>
			</g>
		</g>
		<path display="inline" clip-path="url(#SVGID_10_)" fill="#872C2A" d="M643.4,594.2l12.4-2.1l-0.4-2.6
			C651.7,591.9,647.7,593.5,643.4,594.2C643.4,594.2,643.4,594.2,643.4,594.2"/>
		<path display="inline" clip-path="url(#SVGID_10_)" fill="#872C2A" d="M622.5,592.3l9.2,1.3c-3-0.8-5.9-2-8.5-3.6L622.5,592.3
			L622.5,592.3"/>
		<path display="inline" clip-path="url(#SVGID_10_)" fill="#FFE9D8" d="M672,533c0,16.9-4,20.9-11.9,25.7c-5.2,3.1-11.1,6-21.8,6
			c-19.5-0.1-37.5-14.9-33.8-30.6c0-17.3,10.9-20.2,33.5-20.2C660.5,513.9,672,516.9,672,533"/>
		<path display="inline" clip-path="url(#SVGID_10_)" fill="none" stroke="#000000" stroke-miterlimit="10" d="M672,533
			c0,16.9-4,20.9-11.9,25.7c-5.2,3.1-11.1,6-21.8,6c-19.5-0.1-37.5-14.9-33.8-30.6c0-17.3,10.9-20.2,33.5-20.2
			C660.5,513.9,672,516.9,672,533z"/>
		<g display="inline" opacity="0.3" clip-path="url(#SVGID_10_)">
			<g>
				<defs>
					<rect id="SVGID_29_" x="604" y="522.6" width="68" height="42.1"/>
				</defs>
				<clipPath id="SVGID_30_">
					<use xlink:href="#SVGID_29_"  overflow="visible"/>
				</clipPath>
				<path clip-path="url(#SVGID_30_)" d="M669.7,523c1.4,2.6,1.5,5.9,1.5,10c0,15.8-4.5,20.5-11.9,25c-4.8,2.9-11,5.7-20.9,5.7
					c-18.2-0.1-36.2-14.6-32.8-29.3c0-4.1-1.2-7.7,0.6-10c-1.9,3.1-1.6,5.8-1.6,9.6c-3.7,15.7,14.3,30.5,33.8,30.6
					c10.7,0,16.7-2.8,21.8-6c8-4.9,11.9-8.9,11.9-25.7C672.1,529.2,672.5,525.5,669.7,523"/>
			</g>
		</g>
		<path display="inline" clip-path="url(#SVGID_10_)" fill="#FFFFFF" d="M628.1,543c0,2.9-1.5,7.2-5.9,7.2c-4.4,0-5.9-2.9-5.9-7.2
			c0-3.7,4.2-5.5,5.9-5.5C625.3,537.6,628.1,540.7,628.1,543"/>
		<path display="inline" clip-path="url(#SVGID_10_)" fill="none" stroke="#000000" stroke-miterlimit="10" d="M628.1,543
			c0,2.9-1.5,7.2-5.9,7.2c-4.4,0-5.9-2.9-5.9-7.2c0-3.7,4.2-5.5,5.9-5.5C625.3,537.6,628.1,540.7,628.1,543z"/>
		<path display="inline" clip-path="url(#SVGID_10_)" fill="#FFFFFF" d="M649.9,544.8c-0.2-2.9,1.3-7.2,5.7-7.2c3.7,0,6,2.8,6,7.1
			c0,3.2-2.2,5.5-6,5.5C651.2,550.2,650.1,546.8,649.9,544.8"/>
		<path display="inline" clip-path="url(#SVGID_10_)" fill="none" stroke="#000000" stroke-miterlimit="10" d="M649.9,544.8
			c-0.2-2.9,1.3-7.2,5.7-7.2c3.7,0,6,2.8,6,7.1c0,3.2-2.2,5.5-6,5.5C651.2,550.2,650.1,546.8,649.9,544.8z"/>
		<path display="inline" clip-path="url(#SVGID_10_)" d="M627.6,543.1c0,2.8-2.1,5-4.4,5c-2.8,0-4.2-2.3-4.2-5
			c0-2.8,2.5-4.5,4.3-4.5C625.1,538.5,627.6,540.3,627.6,543.1"/>
		<path display="inline" clip-path="url(#SVGID_10_)" d="M658.8,542.8c0,2.8-1.5,5.3-3.9,5.3c-2.8,0-4.3-2.4-4.3-5.1
			c0-2.8,2.2-4.4,4.1-4.4S658.8,540,658.8,542.8"/>
		<path display="inline" clip-path="url(#SVGID_10_)" fill="#FFFCF5" d="M622.6,543.9c0,0.5-0.4,0.9-0.9,0.9c-0.5,0-0.9-0.4-0.9-0.9
			s0.4-0.9,0.9-0.9C622.2,543,622.6,543.4,622.6,543.9"/>
		<path display="inline" clip-path="url(#SVGID_10_)" fill="#FFFCF5" d="M623.2,541.2c0,0.9-0.7,1.6-1.6,1.6c-0.9,0-1.6-0.7-1.6-1.6
			s0.7-1.6,1.6-1.6C622.5,539.7,623.2,540.4,623.2,541.2"/>
		<path display="inline" clip-path="url(#SVGID_10_)" fill="#FFFCF5" d="M653.8,541.5c0,0.8-0.6,1.4-1.4,1.4c-0.8,0-1.4-0.6-1.4-1.4
			s0.6-1.4,1.4-1.4C653.2,540.1,653.8,540.7,653.8,541.5"/>
		<path display="inline" clip-path="url(#SVGID_10_)" fill="#FFFCF5" d="M653.6,544.4c0,0.5-0.4,0.9-0.9,0.9c-0.5,0-0.9-0.4-0.9-0.9
			c0-0.5,0.4-0.9,0.9-0.9C653.2,543.6,653.6,544,653.6,544.4"/>
		<path display="inline" clip-path="url(#SVGID_10_)" fill="none" stroke="#000000" stroke-miterlimit="10" d="M641.2,558
			c-0.5,0.7-1.3,1.2-2.5,1.2c-0.6,0-0.9,0-1.4-0.2"/>
		<path display="inline" clip-path="url(#SVGID_10_)" fill="none" stroke="#000000" stroke-miterlimit="10" d="M638.9,553.6
			c-0.5,0.6-1.7,0.5-1.7,0.5c-1.3,0-2.4-1.1-2.4-2.4c0-1.3,1.4-2.6,2.4-2.5c0.5,0,1.3-0.9,1.7-1.6c0.4-1,0.4-1.4,0.4-1.7"/>
		<g display="inline" opacity="0.1" clip-path="url(#SVGID_10_)">
			<g>
				<defs>
					<rect id="SVGID_31_" x="614.4" y="509.4" width="49" height="25.1"/>
				</defs>
				<clipPath id="SVGID_32_">
					<use xlink:href="#SVGID_31_"  overflow="visible"/>
				</clipPath>
				<path clip-path="url(#SVGID_32_)" d="M662.9,519.1c0.4,0.5,0.5,1.5,0.5,2c-1.9,3-8,5.4-8,5.4c0.7-1.1,1.2-1.6,3.8-4.6
					c-9.5,9.3-22.7,11.1-22.7,11.1c1.8-1.2,11-7,14.1-11.5c-4.4,8.8-31.4,13.7-29.3,12.8c2.2-0.9,7.9-12,7.9-12
					c-3.5,5.1-10.1,8.3-10.6,9c-0.5,0.7-1.4,0.5-0.7,0c1.1-1,3.1-7.3,3.2-10.6c-0.1-0.2-0.3-0.4-0.7-0.3c-1.3,1.2-1.4,3.5-2,6.6
					c-3.6-2-4.3-7.4-4.1-8.1c15.6-4.3,21.6-3.1,24.3-9.5C641,518.8,656,513.4,662.9,519.1"/>
			</g>
		</g>
		<path display="inline" clip-path="url(#SVGID_10_)" fill="#654427" d="M664.8,518.1c0.4,0.5-0.4,1.2-0.4,1.7
			c-1.9,3-7.9,5.3-7.9,5.3c0.7-1.1,0.9-1.8,3.6-4.7c-9.5,9.3-20.3,9.8-20.3,9.8c1.8-1.2,7.8-6.4,10.8-10.9
			c-4.4,8.8-32.4,14.5-30.2,13.6c2.2-0.9,8.9-12.8,8.9-12.8c-3.5,5.1-10.1,8.3-10.6,9c-0.5,0.7-1.4,0.5-0.7,0
			c1.1-1,3.1-7.3,3.2-10.6c-0.1-0.2-0.3-0.4-0.7-0.3c-1.3,1.2-3.2,4.5-3.7,7.6c-3.6-2-2.6-8.4-2.3-9.1c15.1-5.9,21.6-3.1,24.3-9.5
			C641,516.6,657.9,512.4,664.8,518.1"/>
		<path display="inline" clip-path="url(#SVGID_10_)" fill="none" stroke="#000000" stroke-width="0.5" stroke-miterlimit="10" d="
			M664.8,518.1c0.4,0.5-0.4,1.2-0.4,1.7c-1.9,3-7.9,5.3-7.9,5.3c0.7-1.1,0.9-1.8,3.6-4.7c-9.5,9.3-20.3,9.8-20.3,9.8
			c1.8-1.2,7.8-6.4,10.8-10.9c-4.4,8.8-32.4,14.5-30.2,13.6c2.2-0.9,8.9-12.8,8.9-12.8c-3.5,5.1-10.1,8.3-10.6,9
			c-0.5,0.7-1.4,0.5-0.7,0c1.1-1,3.1-7.3,3.2-10.6c-0.1-0.2-0.3-0.4-0.7-0.3c-1.3,1.2-3.2,4.5-3.7,7.6c-3.6-2-2.6-8.4-2.3-9.1
			c15.1-5.9,21.6-3.1,24.3-9.5C641,516.6,657.9,512.4,664.8,518.1z"/>
		<g display="inline" opacity="0.15" clip-path="url(#SVGID_10_)">
			<g>
				<defs>
					<rect id="SVGID_33_" x="634.9" y="553.6" width="4.2" height="1.6"/>
				</defs>
				<clipPath id="SVGID_34_">
					<use xlink:href="#SVGID_33_"  overflow="visible"/>
				</clipPath>
				<path clip-path="url(#SVGID_34_)" d="M639.1,553.6c0,0.9-0.9,1.6-2.1,1.6c-1.2,0-2.1-0.7-2.1-1.6"/>
			</g>
		</g>
	</g>
</g>
<path display="none" fill="#FFFFFF" d="M1092.5,348"/>
<g>
	<path fill="#FFFFFF" d="M297.7,606.9c0,11.9-9.5,21.5-21.3,21.5h-65.9c-11.8,0-21.3-9.6-21.3-21.5c0-10.7,7.8-19.6,18-21.2
		c-0.1-0.8-0.2-1.5-0.2-2.3c0-7.5,6-13.6,13.5-13.6c3.3,0,6.4,1.2,8.7,3.2c4.2-9.5,9.6-18.2,24.6-18.2c18.3,0,26.9,14.2,26.9,29.2
		c0,0.6,0,1.2-0.1,1.9C290.4,587.9,297.7,596.6,297.7,606.9"/>
	<path fill="#F4F4F4" d="M298.1,606.9c0,11.9-9.5,21.5-21.3,21.5h-47.6l0-55.3c4.2-9.5,9.6-18.2,24.6-18.2
		c18.3,0,27.3,14.2,27.3,29.2c0,0.6,0,1.2-0.1,1.9C290.8,587.9,298.1,596.6,298.1,606.9"/>
</g>
<g>
	<path fill="#FFFFFF" d="M179,360.7c0,11.9-9.5,21.5-21.3,21.5H91.8c-11.8,0-21.3-9.6-21.3-21.5c0-10.7,7.8-19.6,18-21.2
		c-0.1-0.8-0.2-1.5-0.2-2.3c0-7.5,6-13.6,13.5-13.6c3.3,0,6.4,1.2,8.7,3.2c4.2-9.5,9.6-18.2,24.6-18.2c18.3,0,26.9,14.2,26.9,29.2
		c0,0.6,0,1.2-0.1,1.9C171.7,341.7,179,350.3,179,360.7"/>
	<path fill="#F4F4F4" d="M179.4,360.7c0,11.9-9.5,21.5-21.3,21.5h-47.6l0-55.3c4.2-9.5,9.6-18.2,24.6-18.2
		c18.3,0,27.3,14.2,27.3,29.2c0,0.6,0,1.2-0.1,1.9C172.1,341.7,179.4,350.3,179.4,360.7"/>
</g>
<g>
	<path fill="#FFFFFF" d="M406.6,135c0,11.9-9.5,21.5-21.3,21.5h-65.9c-11.8,0-21.3-9.6-21.3-21.5c0-10.7,7.8-19.6,18-21.2
		c-0.1-0.8-0.2-1.5-0.2-2.3c0-7.5,6-13.6,13.5-13.6c3.3,0,6.4,1.2,8.7,3.2c4.2-9.5,9.6-18.2,24.6-18.2c18.3,0,26.9,14.2,26.9,29.2
		c0,0.6,0,1.2-0.1,1.9C399.3,116,406.6,124.7,406.6,135"/>
	<path fill="#F4F4F4" d="M407,135c0,11.9-9.5,21.5-21.3,21.5h-47.6l0-55.3c4.2-9.5,9.6-18.2,24.6-18.2C381,83,390,97.2,390,112.1
		c0,0.6,0,1.2-0.1,1.9C399.7,116,407,124.7,407,135"/>
</g>
<g>
	<path fill="#FFFFFF" d="M1000.2,606.9c0,11.9-9.5,21.5-21.3,21.5h-65.9c-11.8,0-21.3-9.6-21.3-21.5c0-10.7,7.8-19.6,18-21.2
		c-0.1-0.8-0.2-1.5-0.2-2.3c0-7.5,6-13.6,13.5-13.6c3.3,0,6.4,1.2,8.7,3.2c4.2-9.5,9.6-18.2,24.6-18.2c18.3,0,26.9,14.2,26.9,29.2
		c0,0.6,0,1.2-0.1,1.9C992.8,587.9,1000.2,596.6,1000.2,606.9"/>
	<path fill="#F4F4F4" d="M1000.5,606.9c0,11.9-9.5,21.5-21.3,21.5h-47.6l0-55.3c4.2-9.5,9.6-18.2,24.6-18.2
		c18.3,0,27.3,14.2,27.3,29.2c0,0.6,0,1.2-0.1,1.9C993.2,587.9,1000.5,596.6,1000.5,606.9"/>
</g>
<g>
	<path fill="#FFFFFF" d="M1208.9,360.7c0,11.9-9.5,21.5-21.3,21.5h-65.9c-11.8,0-21.3-9.6-21.3-21.5c0-10.7,7.8-19.6,18-21.2
		c-0.1-0.8-0.2-1.5-0.2-2.3c0-7.5,6-13.6,13.5-13.6c3.3,0,6.4,1.2,8.7,3.2c4.2-9.5,9.6-18.2,24.6-18.2c18.3,0,26.9,14.2,26.9,29.2
		c0,0.6,0,1.2-0.1,1.9C1201.6,341.7,1208.9,350.3,1208.9,360.7"/>
	<path fill="#F4F4F4" d="M1209.3,360.7c0,11.9-9.5,21.5-21.3,21.5h-47.6l0-55.3c4.2-9.5,9.6-18.2,24.6-18.2
		c18.3,0,27.3,14.2,27.3,29.2c0,0.6,0,1.2-0.1,1.9C1202,341.7,1209.3,350.3,1209.3,360.7"/>
</g>
<g>
	<path fill="#FFFFFF" d="M965.7,124.3c0,11.9-9.5,21.5-21.3,21.5h-65.9c-11.8,0-21.3-9.6-21.3-21.5c0-10.7,7.8-19.6,18-21.2
		c-0.1-0.8-0.2-1.5-0.2-2.3c0-7.5,6-13.6,13.5-13.6c3.3,0,6.4,1.2,8.7,3.2c4.2-9.5,9.6-18.2,24.6-18.2c18.3,0,26.9,14.2,26.9,29.2
		c0,0.6,0,1.2-0.1,1.9C958.4,105.2,965.7,113.9,965.7,124.3"/>
	<path fill="#F4F4F4" d="M966.1,124.3c0,11.9-9.5,21.5-21.3,21.5h-47.6l0-55.3c4.2-9.5,9.6-18.2,24.6-18.2
		c18.3,0,27.3,14.2,27.3,29.2c0,0.6,0,1.2-0.1,1.9C958.8,105.2,966.1,113.9,966.1,124.3"/>
</g>
</svg>
