<?xml version="1.0" encoding="utf-8"?>
<!-- Generator: Adobe Illustrator 16.0.0, SVG Export Plug-In . SVG Version: 6.00 Build 0)  -->
<!DOCTYPE svg PUBLIC "-//W3C//DTD SVG 1.1//EN" "http://www.w3.org/Graphics/SVG/1.1/DTD/svg11.dtd">
<svg version="1.1" xmlns="http://www.w3.org/2000/svg" xmlns:xlink="http://www.w3.org/1999/xlink" x="0px" y="0px"
	 width="841.89px" height="1450.521px" viewBox="0 0 841.89 1450.521" enable-background="new 0 0 841.89 1450.521"
	 xml:space="preserve">
<g id="Calque_4">
	<rect x="-49.082" y="-49.403" fill="#3F3F3F" width="935.954" height="1552.422"/>
</g>
<g id="Calque_2">
	<rect x="-20.583" y="-17.911" fill="#10334E" width="883.456" height="1489.423"/>
	<path fill="#FFFFFF" d="M120.744,58.567c0-2.236,1.812-4.048,4.048-4.048c2.234,0,4.048,1.812,4.048,4.048
		c0,2.235-1.813,4.048-4.048,4.048C122.556,62.615,120.744,60.802,120.744,58.567"/>
	<path fill="#FFFFFF" d="M673.724,78.447c0-2.235,1.812-4.047,4.047-4.047s4.048,1.812,4.048,4.047c0,2.236-1.813,4.048-4.048,4.048
		S673.724,80.683,673.724,78.447"/>
	<path fill="#FFFFFF" d="M13.241,62.249c0-2.236,1.813-4.048,4.047-4.048c2.236,0,4.049,1.812,4.049,4.048
		c0,2.235-1.813,4.047-4.049,4.047C15.054,66.296,13.241,64.484,13.241,62.249"/>
	<polygon fill="#FFFFFF" points="748.969,41.484 755.616,15.779 761.192,41.484 	"/>
	<polyline fill="#FFFFFF" points="749.035,47.375 761.67,47.375 754.816,73.079 	"/>
	<polyline fill="#FFFFFF" points="758.607,51.056 758.607,38.388 784.312,45.258 	"/>
	<polyline fill="#FFFFFF" points="751.98,39.275 751.98,51.46 726.276,44.832 	"/>
	<rect x="750.508" y="39.275" fill="#FFFFFF" width="9.572" height="11.781"/>
	<polygon fill="#FFFFFF" points="484.628,34.857 491.276,9.152 496.853,34.857 	"/>
	<polyline fill="#FFFFFF" points="484.695,40.748 497.329,40.748 490.477,66.452 	"/>
	<polyline fill="#FFFFFF" points="494.268,44.429 494.268,31.761 519.972,38.63 	"/>
	<polyline fill="#FFFFFF" points="487.641,32.648 487.641,44.833 461.936,38.205 	"/>
	<rect x="486.167" y="32.648" fill="#FFFFFF" width="9.573" height="11.781"/>
	<path fill="#FFFFFF" d="M94.292,929.875c0-2.236,1.812-4.048,4.048-4.048c2.234,0,4.048,1.812,4.048,4.048
		c0,2.235-1.813,4.047-4.048,4.047C96.103,933.923,94.292,932.11,94.292,929.875"/>
	<path fill="#FFFFFF" d="M589.27,925.828c0-2.236,1.812-4.048,4.048-4.048c2.234,0,4.048,1.812,4.048,4.048
		c0,2.235-1.813,4.047-4.048,4.047C591.081,929.875,589.27,928.063,589.27,925.828"/>
	<path fill="#FFFFFF" d="M500.677,775.383c0-2.236,1.812-4.048,4.048-4.048c2.234,0,4.048,1.812,4.048,4.048
		c0,2.235-1.813,4.047-4.048,4.047C502.488,779.43,500.677,777.618,500.677,775.383"/>
	<path fill="#FFFFFF" d="M390.681,1016.38c0-2.236,1.812-4.048,4.048-4.048c2.234,0,4.048,1.812,4.048,4.048
		c0,2.235-1.813,4.047-4.048,4.047C392.492,1020.427,390.681,1018.615,390.681,1016.38"/>
	<path fill="#FFFFFF" d="M701.849,952.374c0-2.236,1.812-4.048,4.048-4.048c2.234,0,4.048,1.812,4.048,4.048
		c0,2.235-1.813,4.047-4.048,4.047C703.66,956.421,701.849,954.609,701.849,952.374"/>
	<path fill="#FFFFFF" d="M382.585,893.877c0-2.236,1.812-4.048,4.048-4.048c2.234,0,4.048,1.812,4.048,4.048
		c0,2.235-1.813,4.047-4.048,4.047C384.396,897.924,382.585,896.112,382.585,893.877"/>
	<path fill="#FFFFFF" d="M399.514,752.002c0-2.236,1.812-4.048,4.048-4.048c2.234,0,4.048,1.812,4.048,4.048
		c0,2.235-1.813,4.047-4.048,4.047C401.326,756.05,399.514,754.237,399.514,752.002"/>
	<path fill="#FFFFFF" d="M552.745,658.555c0-2.236,1.812-4.048,4.048-4.048c2.234,0,4.048,1.812,4.048,4.048
		c0,2.235-1.813,4.047-4.048,4.047C554.557,662.602,552.745,660.79,552.745,658.555"/>
	<path fill="#FFFFFF" d="M662.096,558.06c0-2.236,1.812-4.048,4.048-4.048c2.234,0,4.048,1.812,4.048,4.048
		c0,2.235-1.813,4.047-4.048,4.047C663.907,562.107,662.096,560.294,662.096,558.06"/>
	<path fill="#FFFFFF" d="M560.841,525.062c0-2.236,1.812-4.048,4.048-4.048c2.234,0,4.048,1.812,4.048,4.048
		c0,2.235-1.813,4.047-4.048,4.047C562.652,529.109,560.841,527.296,560.841,525.062"/>
	<path fill="#FFFFFF" d="M407.61,566.155c0-2.236,1.812-4.048,4.048-4.048c2.234,0,4.048,1.812,4.048,4.048
		c0,2.235-1.813,4.047-4.048,4.047C409.421,570.202,407.61,568.39,407.61,566.155"/>
	<path fill="#FFFFFF" d="M539.491,570.202c0-2.236,1.812-4.048,4.048-4.048c2.234,0,4.048,1.812,4.048,4.048
		c0,2.235-1.813,4.047-4.048,4.047C541.303,574.25,539.491,572.437,539.491,570.202"/>
	<path fill="#FFFFFF" d="M476.907,641.008c0-2.236,1.812-4.048,4.048-4.048c2.234,0,4.048,1.812,4.048,4.048
		c0,2.235-1.813,4.047-4.048,4.047C478.719,645.056,476.907,643.243,476.907,641.008"/>
	<path fill="#FFFFFF" d="M357.85,645.056c0-2.236,1.812-4.048,4.048-4.048c2.234,0,4.048,1.812,4.048,4.048
		c0,2.235-1.813,4.047-4.048,4.047C359.662,649.104,357.85,647.291,357.85,645.056"/>
	<path fill="#FFFFFF" d="M268.735,743.907c0-2.236,1.812-4.048,4.048-4.048c2.234,0,4.048,1.812,4.048,4.048
		c0,2.235-1.813,4.047-4.048,4.047C270.546,747.955,268.735,746.142,268.735,743.907"/>
	<path fill="#FFFFFF" d="M127.299,712.552c0-2.236,1.812-4.048,4.048-4.048c2.234,0,4.048,1.812,4.048,4.048
		c0,2.235-1.813,4.047-4.048,4.047C129.111,716.6,127.299,714.787,127.299,712.552"/>
	<path fill="#FFFFFF" d="M65.079,789.787c0-2.236,1.812-4.048,4.048-4.048c2.234,0,4.048,1.812,4.048,4.048
		c0,2.235-1.813,4.047-4.048,4.047C66.89,793.834,65.079,792.021,65.079,789.787"/>
	<path fill="#FFFFFF" d="M73.174,693.505c0-2.236,1.812-4.048,4.048-4.048c2.234,0,4.048,1.812,4.048,4.048
		c0,2.235-1.813,4.047-4.048,4.047C74.986,697.553,73.174,695.74,73.174,693.505"/>
	<path fill="#FFFFFF" d="M77.222,609.51c0-2.236,1.812-4.048,4.048-4.048c2.234,0,4.048,1.812,4.048,4.048
		c0,2.235-1.813,4.047-4.048,4.047C79.034,613.557,77.222,611.745,77.222,609.51"/>
	<path fill="#FFFFFF" d="M148.87,574.25c0-2.236,1.812-4.048,4.048-4.048c2.234,0,4.048,1.812,4.048,4.048
		c0,2.235-1.813,4.047-4.048,4.047C150.681,578.297,148.87,576.484,148.87,574.25"/>
	<path fill="#FFFFFF" d="M90.244,454.565c0-2.236,1.812-4.048,4.048-4.048c2.234,0,4.048,1.812,4.048,4.048
		c0,2.235-1.813,4.047-4.048,4.047C92.055,458.612,90.244,456.8,90.244,454.565"/>
	<path fill="#FFFFFF" d="M222.857,386.021c0-2.236,1.812-4.048,4.048-4.048c2.234,0,4.048,1.812,4.048,4.048
		c0,2.235-1.813,4.047-4.048,4.047C224.668,390.068,222.857,388.256,222.857,386.021"/>
	<path fill="#FFFFFF" d="M361.898,354.522c0-2.236,1.812-4.048,4.048-4.048c2.234,0,4.048,1.812,4.048,4.048
		c0,2.235-1.813,4.047-4.048,4.047C363.709,358.57,361.898,356.757,361.898,354.522"/>
	<path fill="#FFFFFF" d="M504.725,358.57c0-2.236,1.812-4.048,4.048-4.048c2.234,0,4.048,1.812,4.048,4.048
		c0,2.235-1.813,4.047-4.048,4.047C506.536,362.618,504.725,360.805,504.725,358.57"/>
	<path fill="#FFFFFF" d="M763.696,267.527c0-2.236,1.812-4.048,4.048-4.048c2.234,0,4.048,1.812,4.048,4.048
		c0,2.235-1.813,4.047-4.048,4.047C765.508,271.574,763.696,269.762,763.696,267.527"/>
	<path fill="#FFFFFF" d="M674.238,394.116c0-2.236,1.812-4.048,4.048-4.048c2.234,0,4.048,1.812,4.048,4.048
		c0,2.235-1.813,4.047-4.048,4.047C676.05,398.164,674.238,396.351,674.238,394.116"/>
	<path fill="#FFFFFF" d="M701.849,480.516c0-2.236,1.812-4.048,4.048-4.048c2.234,0,4.048,1.812,4.048,4.048
		c0,2.235-1.813,4.047-4.048,4.047C703.66,484.563,701.849,482.751,701.849,480.516"/>
	<path fill="#FFFFFF" d="M759.648,502.563c0-2.236,1.812-4.048,4.048-4.048c2.234,0,4.048,1.812,4.048,4.048
		c0,2.235-1.813,4.047-4.048,4.047C761.46,506.61,759.648,504.797,759.648,502.563"/>
	<path fill="#FFFFFF" d="M755.733,605.462c0-2.236,1.812-4.048,4.048-4.048c2.234,0,4.048,1.812,4.048,4.048
		c0,2.235-1.813,4.047-4.048,4.047C757.545,609.509,755.733,607.697,755.733,605.462"/>
	<path fill="#FFFFFF" d="M780.264,756.05c0-2.236,1.812-4.048,4.048-4.048c2.234,0,4.048,1.812,4.048,4.048
		c0,2.235-1.813,4.047-4.048,4.047C782.075,760.098,780.264,758.285,780.264,756.05"/>
	<path fill="#FFFFFF" d="M709.944,725.261c0-2.236,1.812-4.048,4.048-4.048c2.234,0,4.048,1.812,4.048,4.048
		c0,2.235-1.813,4.047-4.048,4.047C711.756,729.309,709.944,727.496,709.944,725.261"/>
	<path fill="#FFFFFF" d="M784.312,893.877c0-2.236,1.812-4.048,4.048-4.048c2.234,0,4.048,1.812,4.048,4.048
		c0,2.235-1.813,4.047-4.048,4.047C786.123,897.924,784.312,896.112,784.312,893.877"/>
	<path fill="#FFFFFF" d="M635.336,693.505c0-2.236,1.812-4.048,4.048-4.048c2.234,0,4.048,1.812,4.048,4.048
		c0,2.235-1.813,4.047-4.048,4.047C637.147,697.553,635.336,695.74,635.336,693.505"/>
	<path fill="#FFFFFF" d="M457.888,450.517c0-2.236,1.812-4.048,4.048-4.048c2.234,0,4.048,1.812,4.048,4.048
		c0,2.235-1.813,4.047-4.048,4.047C459.699,454.564,457.888,452.752,457.888,450.517"/>
	<path fill="#FFFFFF" d="M262.844,601.415c0-2.236,1.812-4.048,4.048-4.048c2.234,0,4.048,1.812,4.048,4.048
		c0,2.235-1.813,4.047-4.048,4.047C264.656,605.462,262.844,603.649,262.844,601.415"/>
	<path fill="#FFFFFF" d="M300.922,484.564c0-2.236,1.812-4.048,4.048-4.048c2.234,0,4.048,1.812,4.048,4.048
		c0,2.235-1.813,4.047-4.048,4.047C302.734,488.611,300.922,486.799,300.922,484.564"/>
	<path fill="#FFFFFF" d="M144.822,323.024c0-2.236,1.812-4.048,4.048-4.048c2.234,0,4.048,1.812,4.048,4.048
		c0,2.235-1.813,4.047-4.048,4.047C146.633,327.071,144.822,325.259,144.822,323.024"/>
	<path fill="#FFFFFF" d="M65.079,219.529c0-2.236,1.812-4.048,4.048-4.048c2.234,0,4.048,1.812,4.048,4.048
		c0,2.235-1.813,4.047-4.048,4.047C66.89,223.577,65.079,221.764,65.079,219.529"/>
	<path fill="#FFFFFF" d="M180.859,186.531c0-2.236,1.812-4.048,4.048-4.048c2.234,0,4.048,1.812,4.048,4.048
		c0,2.235-1.813,4.047-4.048,4.047C182.67,190.578,180.859,188.766,180.859,186.531"/>
	<path fill="#FFFFFF" d="M280.43,271.575c0-2.236,1.812-4.048,4.048-4.048c2.234,0,4.048,1.812,4.048,4.048
		c0,2.235-1.813,4.047-4.048,4.047C282.241,275.622,280.43,273.81,280.43,271.575"/>
	<path fill="#FFFFFF" d="M322.642,178.436c0-2.236,1.812-4.048,4.048-4.048c2.234,0,4.048,1.812,4.048,4.048
		c0,2.235-1.813,4.047-4.048,4.047C324.454,182.483,322.642,180.67,322.642,178.436"/>
	<path fill="#FFFFFF" d="M428.798,275.622c0-2.236,1.812-4.048,4.048-4.048c2.234,0,4.048,1.812,4.048,4.048
		c0,2.235-1.813,4.047-4.048,4.047C430.61,279.669,428.798,277.857,428.798,275.622"/>
	<path fill="#FFFFFF" d="M589.27,271.574c0-2.236,1.812-4.048,4.048-4.048c2.234,0,4.048,1.812,4.048,4.048
		c0,2.235-1.813,4.047-4.048,4.047C591.081,275.622,589.27,273.809,589.27,271.574"/>
	<path fill="#FFFFFF" d="M490.22,190.578c0-2.236,1.812-4.048,4.048-4.048c2.234,0,4.048,1.812,4.048,4.048
		c0,2.235-1.813,4.047-4.048,4.047C492.031,194.625,490.22,192.813,490.22,190.578"/>
	<path fill="#FFFFFF" d="M643.432,174.388c0-2.236,1.812-4.048,4.048-4.048c2.234,0,4.048,1.812,4.048,4.048
		c0,2.235-1.813,4.047-4.048,4.047C645.243,178.436,643.432,176.623,643.432,174.388"/>
	<path fill="#FFFFFF" d="M674.238,793.834c0-2.236,1.812-4.048,4.048-4.048c2.234,0,4.048,1.812,4.048,4.048
		c0,2.235-1.813,4.047-4.048,4.047C676.05,797.882,674.238,796.069,674.238,793.834"/>
	<polygon fill="#FFFFFF" points="487.942,890.932 494.59,865.227 500.166,890.932 	"/>
	<polyline fill="#FFFFFF" points="488.009,896.822 500.644,896.822 493.79,922.527 	"/>
	<polyline fill="#FFFFFF" points="497.581,900.504 497.581,887.835 523.285,894.706 	"/>
	<polyline fill="#FFFFFF" points="490.954,888.723 490.954,900.908 465.25,894.28 	"/>
	<rect x="489.481" y="888.723" fill="#FFFFFF" width="9.572" height="11.781"/>
	<polygon fill="#FFFFFF" points="248.873,891.87 255.52,866.166 261.096,891.87 	"/>
	<polyline fill="#FFFFFF" points="248.939,897.761 261.574,897.761 254.72,923.465 	"/>
	<polyline fill="#FFFFFF" points="258.511,901.442 258.511,888.774 284.215,895.644 	"/>
	<polyline fill="#FFFFFF" points="251.884,889.661 251.884,901.846 226.18,895.218 	"/>
	<rect x="250.412" y="889.661" fill="#FFFFFF" width="9.572" height="11.781"/>
	<polygon fill="#FFFFFF" points="379.969,668.484 386.616,642.779 392.192,668.484 	"/>
	<polyline fill="#FFFFFF" points="380.035,674.375 392.67,674.375 385.816,700.079 	"/>
	<polyline fill="#FFFFFF" points="389.607,678.056 389.607,665.388 415.312,672.258 	"/>
	<polyline fill="#FFFFFF" points="382.98,666.275 382.98,678.46 357.276,671.832 	"/>
	<rect x="381.508" y="666.275" fill="#FFFFFF" width="9.572" height="11.781"/>
	<polygon fill="#FFFFFF" points="194.827,651.562 201.474,625.857 207.05,651.562 	"/>
	<polyline fill="#FFFFFF" points="194.893,657.452 207.528,657.452 200.674,683.157 	"/>
	<polyline fill="#FFFFFF" points="204.465,661.134 204.465,648.465 230.169,655.335 	"/>
	<polyline fill="#FFFFFF" points="197.838,649.353 197.838,661.538 172.134,654.91 	"/>
	<rect x="196.366" y="649.353" fill="#FFFFFF" width="9.572" height="11.781"/>
	<polygon fill="#FFFFFF" points="308.221,419.82 314.869,394.116 320.445,419.82 	"/>
	<polyline fill="#FFFFFF" points="308.288,425.711 320.922,425.711 314.069,451.416 	"/>
	<polyline fill="#FFFFFF" points="317.86,429.393 317.86,416.724 343.564,423.594 	"/>
	<polyline fill="#FFFFFF" points="311.233,417.611 311.233,429.796 285.529,423.168 	"/>
	<rect x="309.76" y="417.611" fill="#FFFFFF" width="9.572" height="11.781"/>
	<polygon fill="#FFFFFF" points="591.04,347.529 597.688,321.825 603.264,347.529 	"/>
	<polyline fill="#FFFFFF" points="591.106,353.42 603.741,353.42 596.888,379.125 	"/>
	<polyline fill="#FFFFFF" points="600.679,357.102 600.679,344.433 626.383,351.303 	"/>
	<polyline fill="#FFFFFF" points="594.052,345.32 594.052,357.505 568.348,350.877 	"/>
	<rect x="592.579" y="345.32" fill="#FFFFFF" width="9.572" height="11.781"/>
	<polygon fill="#FFFFFF" points="157.641,249.281 164.289,223.577 169.865,249.281 	"/>
	<polyline fill="#FFFFFF" points="157.708,255.172 170.342,255.172 163.489,280.876 	"/>
	<polyline fill="#FFFFFF" points="167.28,258.854 167.28,246.185 192.984,253.055 	"/>
	<polyline fill="#FFFFFF" points="160.653,247.072 160.653,259.257 134.949,252.629 	"/>
	<rect x="159.18" y="247.072" fill="#FFFFFF" width="9.572" height="11.781"/>
</g>
<g id="Calque_3">
	<path fill="#FFFFFF" d="M108.376,1166.542c0-2.236,1.811-4.048,4.047-4.048c2.235,0,4.048,1.812,4.048,4.048
		c0,2.235-1.813,4.048-4.048,4.048C110.187,1170.59,108.376,1168.778,108.376,1166.542"/>
	<path fill="#FFFFFF" d="M296.875,1191.577c0-2.235,1.813-4.047,4.047-4.047c2.236,0,4.049,1.812,4.049,4.047
		s-1.813,4.048-4.049,4.048C298.687,1195.625,296.875,1193.813,296.875,1191.577"/>
	<path fill="#FFFFFF" d="M204.833,1298.344c0-2.234,1.813-4.047,4.048-4.047s4.048,1.813,4.048,4.047
		c0,2.236-1.813,4.049-4.048,4.049S204.833,1300.58,204.833,1298.344"/>
	<path fill="#FFFFFF" d="M260.026,32.678c0-2.234,1.813-4.047,4.048-4.047s4.048,1.813,4.048,4.047c0,2.236-1.813,4.049-4.048,4.049
		S260.026,34.915,260.026,32.678"/>
	<path fill="#FFFFFF" d="M280.43,1390.973c0-2.234,1.813-4.047,4.048-4.047s4.048,1.813,4.048,4.047
		c0,2.236-1.813,4.049-4.048,4.049S280.43,1393.209,280.43,1390.973"/>
	<path fill="#FFFFFF" d="M548.697,1286.563c0-2.234,1.813-4.047,4.047-4.047c2.236,0,4.049,1.813,4.049,4.047
		c0,2.236-1.813,4.049-4.049,4.049C550.51,1290.611,548.697,1288.799,548.697,1286.563"/>
	<path fill="#FFFFFF" d="M480.955,1154.761c0-2.235,1.813-4.048,4.047-4.048c2.236,0,4.049,1.813,4.049,4.048
		s-1.813,4.048-4.049,4.048C482.768,1158.809,480.955,1156.997,480.955,1154.761"/>
	<path fill="#FFFFFF" d="M314.546,1076.711c0-2.235,1.813-4.048,4.047-4.048c2.236,0,4.049,1.813,4.049,4.048
		s-1.813,4.048-4.049,4.048C316.359,1080.759,314.546,1078.946,314.546,1076.711"/>
	<path fill="#FFFFFF" d="M535.443,1053.885c0-2.235,1.813-4.047,4.047-4.047c2.236,0,4.049,1.812,4.049,4.047
		s-1.813,4.048-4.049,4.048C537.256,1057.933,535.443,1056.12,535.443,1053.885"/>
	<path fill="#FFFFFF" d="M140.774,1414.684c0-2.236,1.812-4.048,4.048-4.048c2.234,0,4.048,1.812,4.048,4.048
		c0,2.235-1.813,4.048-4.048,4.048C142.585,1418.731,140.774,1416.919,140.774,1414.684"/>
	<path fill="#FFFFFF" d="M25.171,1306.443c0-2.235,1.813-4.047,4.047-4.047c2.236,0,4.049,1.812,4.049,4.047
		c0,2.236-1.813,4.049-4.049,4.049C26.984,1310.492,25.171,1308.68,25.171,1306.443"/>
	<path fill="#FFFFFF" d="M690.072,1286.563c0-2.234,1.811-4.047,4.047-4.047c2.234,0,4.047,1.813,4.047,4.047
		c0,2.236-1.813,4.049-4.047,4.049C691.883,1290.611,690.072,1288.799,690.072,1286.563"/>
	<path fill="#FFFFFF" d="M693.754,1434.564c0-2.236,1.811-4.048,4.047-4.048c2.234,0,4.047,1.812,4.047,4.048
		c0,2.235-1.813,4.047-4.047,4.047C695.564,1438.611,693.754,1436.8,693.754,1434.564"/>
	<path fill="#FFFFFF" d="M690.072,1154.761c0-2.235,1.811-4.048,4.047-4.048c2.234,0,4.047,1.813,4.047,4.048
		s-1.813,4.048-4.047,4.048C691.883,1158.809,690.072,1156.997,690.072,1154.761"/>
	<path fill="#FFFFFF" d="M827.764,1073.029c0-2.235,1.813-4.048,4.049-4.048c2.234,0,4.047,1.813,4.047,4.048
		s-1.813,4.048-4.047,4.048C829.576,1077.077,827.764,1075.265,827.764,1073.029"/>
	<path fill="#FFFFFF" d="M824.082,1357.986c0-2.235,1.813-4.047,4.049-4.047c2.234,0,4.047,1.812,4.047,4.047
		c0,2.236-1.813,4.048-4.047,4.048C825.895,1362.034,824.082,1360.223,824.082,1357.986"/>
	<path fill="#FFFFFF" d="M159.918,1031.059c0-2.236,1.812-4.048,4.048-4.048c2.234,0,4.048,1.812,4.048,4.048
		c0,2.235-1.813,4.047-4.048,4.047C161.73,1035.106,159.918,1033.294,159.918,1031.059"/>
	<path fill="#FFFFFF" d="M144.822,841.38c0-2.236,1.812-4.048,4.048-4.048c2.234,0,4.048,1.812,4.048,4.048
		c0,2.235-1.813,4.047-4.048,4.047C146.633,845.427,144.822,843.615,144.822,841.38"/>
	<path fill="#FFFFFF" d="M201.152,1199.677c0-2.235,1.813-4.047,4.048-4.047s4.048,1.812,4.048,4.047s-1.813,4.048-4.048,4.048
		S201.152,1201.912,201.152,1199.677"/>
	<path fill="#FFFFFF" d="M827.764,1220.294c0-2.235,1.813-4.047,4.049-4.047c2.234,0,4.047,1.812,4.047,4.047
		s-1.813,4.048-4.047,4.048C829.576,1224.342,827.764,1222.529,827.764,1220.294"/>
	<path fill="#FFFFFF" d="M670.191,1057.566c0-2.235,1.811-4.047,4.045-4.047c2.238,0,4.049,1.812,4.049,4.047
		s-1.811,4.048-4.049,4.048C672.002,1061.614,670.191,1059.802,670.191,1057.566"/>
	<path fill="#FFFFFF" d="M619.385,1207.777c0-2.236,1.813-4.048,4.047-4.048c2.236,0,4.047,1.812,4.047,4.048
		c0,2.235-1.811,4.047-4.047,4.047C621.197,1211.824,619.385,1210.012,619.385,1207.777"/>
	<path fill="#FFFFFF" d="M21.49,1084.811c0-2.236,1.813-4.047,4.047-4.047c2.236,0,4.049,1.812,4.049,4.047
		c0,2.235-1.813,4.048-4.049,4.048C23.302,1088.858,21.49,1087.046,21.49,1084.811"/>
	<path fill="#FFFFFF" d="M395.466,1336.403c0-2.235,1.813-4.048,4.048-4.048c2.236,0,4.048,1.813,4.048,4.048
		s-1.812,4.048-4.048,4.048C397.279,1340.451,395.466,1338.639,395.466,1336.403"/>
	<path fill="#FFFFFF" d="M112.058,1251.956c0-2.236,1.811-4.048,4.047-4.048c2.235,0,4.048,1.812,4.048,4.048
		c0,2.235-1.813,4.048-4.048,4.048C113.869,1256.004,112.058,1254.191,112.058,1251.956"/>
	<path fill="#FFFFFF" d="M33.271,1418.365c0-2.236,1.813-4.048,4.047-4.048c2.236,0,4.049,1.812,4.049,4.048
		c0,2.235-1.813,4.047-4.049,4.047C35.083,1422.412,33.271,1420.601,33.271,1418.365"/>
	<polygon fill="#FFFFFF" points="121.01,1082.454 126.42,1061.532 130.96,1082.454 	"/>
	<polyline fill="#FFFFFF" points="121.1,1086.872 131.347,1086.872 125.789,1107.794 	"/>
	<polyline fill="#FFFFFF" points="128.463,1089.817 128.463,1079.854 149.386,1085.271 	"/>
	<polyline fill="#FFFFFF" points="123.309,1080.245 123.309,1090.493 102.387,1084.934 	"/>
	<rect x="122.574" y="1080.245" fill="#FFFFFF" width="7.363" height="9.572"/>
	<polygon fill="#FFFFFF" points="40.751,1222.355 46.162,1201.434 50.701,1222.355 	"/>
	<polyline fill="#FFFFFF" points="40.841,1226.773 51.087,1226.773 45.529,1247.695 	"/>
	<polyline fill="#FFFFFF" points="48.205,1229.719 48.205,1219.755 69.126,1225.173 	"/>
	<polyline fill="#FFFFFF" points="43.05,1220.146 43.05,1230.395 22.128,1224.835 	"/>
	<rect x="42.314" y="1220.146" fill="#FFFFFF" width="7.363" height="9.572"/>
	<polygon fill="#FFFFFF" points="264.074,1256.227 270.123,1232.837 275.197,1256.227 	"/>
	<polyline fill="#FFFFFF" points="263.947,1260.645 275.63,1260.645 269.301,1284.033 	"/>
	<polyline fill="#FFFFFF" points="272.783,1264.326 272.783,1252.625 296.172,1258.963 	"/>
	<polyline fill="#FFFFFF" points="266.892,1253.281 266.892,1264.52 243.503,1258.413 	"/>
	<rect x="266.156" y="1253.281" fill="#FFFFFF" width="8.1" height="11.045"/>
	<polygon fill="#FFFFFF" points="749.83,1086.872 755.24,1065.95 759.781,1086.872 	"/>
	<polyline fill="#FFFFFF" points="749.92,1091.29 760.168,1091.29 754.607,1112.212 	"/>
	<polyline fill="#FFFFFF" points="757.283,1094.235 757.283,1084.271 778.205,1089.689 	"/>
	<polyline fill="#FFFFFF" points="752.129,1084.663 752.129,1094.911 731.207,1089.352 	"/>
	<rect x="751.395" y="1084.663" fill="#FFFFFF" width="7.363" height="9.572"/>
	<polygon fill="#FFFFFF" points="768.998,1397.601 775.646,1371.896 781.223,1397.601 	"/>
	<polyline fill="#FFFFFF" points="769.064,1403.491 781.699,1403.491 774.846,1429.195 	"/>
	<polyline fill="#FFFFFF" points="778.637,1407.173 778.637,1394.504 804.342,1401.375 	"/>
	<polyline fill="#FFFFFF" points="772.01,1395.392 772.01,1407.576 746.307,1400.949 	"/>
	<rect x="770.537" y="1395.392" fill="#FFFFFF" width="9.572" height="11.781"/>
	<polygon fill="#FFFFFF" points="504.658,1390.974 511.307,1365.27 516.883,1390.974 	"/>
	<polyline fill="#FFFFFF" points="504.725,1396.864 517.359,1396.864 510.506,1422.568 	"/>
	<polyline fill="#FFFFFF" points="514.297,1400.546 514.297,1387.877 540.002,1394.747 	"/>
	<polyline fill="#FFFFFF" points="507.67,1388.765 507.67,1400.95 481.965,1394.322 	"/>
	<rect x="506.197" y="1388.765" fill="#FFFFFF" width="9.572" height="11.781"/>
</g>
</svg>
