<?xml version="1.0" encoding="utf-8"?>
<!-- Generator: Adobe Illustrator 16.0.4, SVG Export Plug-In . SVG Version: 6.00 Build 0)  -->
<!DOCTYPE svg PUBLIC "-//W3C//DTD SVG 1.1//EN" "http://www.w3.org/Graphics/SVG/1.1/DTD/svg11.dtd">
<svg version="1.1" xmlns="http://www.w3.org/2000/svg" xmlns:xlink="http://www.w3.org/1999/xlink" x="0px" y="0px" width="1280px"
	 height="720px" viewBox="0 0 1280 720" enable-background="new 0 0 1280 720" xml:space="preserve">
<g id="HUD">
	<rect fill="#10324E" width="1280" height="720"/>
	<g id="Modele">
	</g>
	<circle fill="#FFFFFF" cx="212.2" cy="272.2" r="5.5"/>
	<circle fill="#FFFFFF" cx="468.2" cy="306.2" r="5.5"/>
	<circle fill="#FFFFFF" cx="343.2" cy="451.2" r="5.5"/>
	<circle fill="#FFFFFF" cx="810.2" cy="435.2" r="5.5"/>
	<circle fill="#FFFFFF" cx="718.2" cy="256.2" r="5.5"/>
	<circle fill="#FFFFFF" cx="492.2" cy="150.2" r="5.5"/>
	<circle fill="#FFFFFF" cx="792.2" cy="119.2" r="5.5"/>
	<circle fill="#FFFFFF" cx="256.2" cy="609.2" r="5.5"/>
	<circle fill="#FFFFFF" cx="99.2" cy="462.2" r="5.5"/>
	<circle fill="#FFFFFF" cx="1002.2" cy="435.2" r="5.5"/>
	<circle fill="#FFFFFF" cx="1007.2" cy="636.2" r="5.5"/>
	<circle fill="#FFFFFF" cx="1002.2" cy="256.2" r="5.5"/>
	<circle fill="#FFFFFF" cx="1189.2" cy="145.2" r="5.5"/>
	<circle fill="#FFFFFF" cx="1184.2" cy="532.2" r="5.5"/>
	<circle fill="#FFFFFF" cx="282.2" cy="88.2" r="5.5"/>
	<circle fill="#FFFFFF" cx="338.2" cy="317.2" r="5.5"/>
	<circle fill="#FFFFFF" cx="1189.2" cy="345.2" r="5.5"/>
	<circle fill="#FFFFFF" cx="975.2" cy="124.2" r="5.5"/>
	<circle fill="#FFFFFF" cx="906.2" cy="328.2" r="5.5"/>
	<circle fill="#FFFFFF" cx="94.2" cy="161.2" r="5.5"/>
	<circle fill="#FFFFFF" cx="645.2" cy="383.2" r="5.5"/>
	<circle fill="#FFFFFF" cx="217.2" cy="388.2" r="5.5"/>
	<circle fill="#FFFFFF" cx="110.2" cy="614.2" r="5.5"/>
	<polygon fill="#FFFFFF" points="223.9,158 231.2,129.6 237.4,158 	"/>
	<polyline fill="#FFFFFF" points="224,164 237.9,164 230.4,192.4 	"/>
	<polyline fill="#FFFFFF" points="234,168 234,154.5 262.4,161.8 	"/>
	<polyline fill="#FFFFFF" points="227,155 227,168.9 198.6,161.4 	"/>
	<rect x="226" y="155" fill="#FFFFFF" width="10" height="13"/>
	<polygon fill="#FFFFFF" points="114.9,348 122.2,319.6 128.4,348 	"/>
	<polyline fill="#FFFFFF" points="115,354 128.9,354 121.4,382.4 	"/>
	<polyline fill="#FFFFFF" points="125,358 125,344.5 153.4,351.8 	"/>
	<polyline fill="#FFFFFF" points="118,345 118,358.9 89.6,351.4 	"/>
	<rect x="117" y="345" fill="#FFFFFF" width="10" height="13"/>
	<polygon fill="#FFFFFF" points="418.2,394 426.4,362.2 433.3,394 	"/>
	<polyline fill="#FFFFFF" points="418,400 433.9,400 425.3,431.8 	"/>
	<polyline fill="#FFFFFF" points="430,405 430,389.1 461.8,397.7 	"/>
	<polyline fill="#FFFFFF" points="422,390 422,405.3 390.2,397 	"/>
	<rect x="421" y="390" fill="#FFFFFF" width="11" height="15"/>
	<polygon fill="#FFFFFF" points="1077.9,164 1085.2,135.6 1091.4,164 	"/>
	<polyline fill="#FFFFFF" points="1078,170 1091.9,170 1084.4,198.4 	"/>
	<polyline fill="#FFFFFF" points="1088,174 1088,160.5 1116.4,167.8 	"/>
	<polyline fill="#FFFFFF" points="1081,161 1081,174.9 1052.6,167.4 	"/>
	<rect x="1080" y="161" fill="#FFFFFF" width="10" height="13"/>
	<polygon fill="#FFFFFF" points="1103.9,586 1112.9,551.1 1120.5,586 	"/>
	<polyline fill="#FFFFFF" points="1104,594 1121.2,594 1111.9,628.9 	"/>
	<polyline fill="#FFFFFF" points="1117,599 1117,581.8 1151.9,591.1 	"/>
	<polyline fill="#FFFFFF" points="1108,583 1108,599.5 1073.1,590.5 	"/>
	<rect x="1106" y="583" fill="#FFFFFF" width="13" height="16"/>
	<sodipodi:namedview  bordercolor="#666666" borderopacity="1.0" pagecolor="#ffffff" id="base"></sodipodi:namedview>
	<sodipodi:namedview  bordercolor="#666666" borderopacity="1.0" pagecolor="#ffffff" id="base"></sodipodi:namedview>
</g>
<g id="Calque_4">
</g>
<g id="Calque_9">
</g>
</svg>
