<?xml version="1.0" encoding="utf-8"?>
<!-- Generator: Adobe Illustrator 16.0.0, SVG Export Plug-In . SVG Version: 6.00 Build 0)  -->
<!DOCTYPE svg PUBLIC "-//W3C//DTD SVG 1.1//EN" "http://www.w3.org/Graphics/SVG/1.1/DTD/svg11.dtd">
<svg version="1.1" id="Calque_1" xmlns="http://www.w3.org/2000/svg" xmlns:xlink="http://www.w3.org/1999/xlink" x="0px" y="0px"
	 width="833px" height="1519px" viewBox="3.445 6.065 833 1519" enable-background="new 3.445 6.065 833 1519" xml:space="preserve"
	>
<rect x="0" y="0" fill="#5BC1CF" width="841.889" height="1530.129"/>
<path fill="#FFFFFF" d="M499.061,1040.953c0,15.914-12.809,28.816-28.604,28.816h-88.499c-15.795,0-28.6-12.902-28.6-28.816
	c0-14.374,10.442-26.28,24.104-28.461c-0.174-1.008-0.27-2.047-0.27-3.113c0-10.084,8.113-18.259,18.125-18.259
	c4.465,0,8.557,1.627,11.713,4.333c5.627-12.775,12.842-24.436,33.079-24.436c24.545,0,36.179,19.073,36.179,39.198
	c0,0.843-0.035,1.677-0.093,2.501C489.242,1015.394,499.061,1027.017,499.061,1040.953"/>
<path fill="#FFFFFF" d="M268.655,1302.583c0,15.914-12.809,28.816-28.604,28.816h-88.497c-15.796,0-28.601-12.902-28.601-28.816
	c0-14.373,10.443-26.28,24.105-28.461c-0.175-1.008-0.271-2.047-0.271-3.112c0-10.084,8.113-18.259,18.125-18.259
	c4.465,0,8.558,1.627,11.713,4.332c5.627-12.774,12.842-24.436,33.078-24.436c24.545,0,36.178,19.074,36.178,39.199
	c0,0.842-0.034,1.676-0.092,2.5C258.837,1277.024,268.655,1288.647,268.655,1302.583"/>
<path fill="#FFFFFF" d="M767.009,723.336c0,15.913-12.81,28.815-28.604,28.815h-88.499c-15.794,0-28.599-12.902-28.599-28.815
	c0-14.374,10.441-26.281,24.104-28.462c-0.173-1.008-0.27-2.047-0.27-3.113c0-10.084,8.114-18.258,18.125-18.258
	c4.465,0,8.557,1.627,11.713,4.333c5.627-12.776,12.842-24.437,33.079-24.437c24.544,0,36.177,19.073,36.177,39.198
	c0,0.843-0.035,1.677-0.092,2.501C757.189,697.776,767.009,709.399,767.009,723.336"/>
<path fill="#FFFFFF" d="M517.93,777.348c0,15.914-12.81,28.815-28.604,28.815h-88.499c-15.794,0-28.599-12.901-28.599-28.815
	c0-14.374,10.441-26.281,24.104-28.461c-0.173-1.008-0.27-2.047-0.27-3.114c0-10.084,8.114-18.258,18.125-18.258
	c4.465,0,8.557,1.627,11.713,4.333c5.627-12.776,12.842-24.437,33.079-24.437c24.544,0,36.177,19.073,36.177,39.198
	c0,0.843-0.034,1.677-0.092,2.501C508.111,751.79,517.93,763.413,517.93,777.348"/>
<path fill="#FFFFFF" d="M191.008,813.836c0,15.913-12.809,28.815-28.603,28.815H73.906c-15.794,0-28.599-12.902-28.599-28.815
	c0-14.374,10.441-26.281,24.104-28.462c-0.173-1.008-0.27-2.047-0.27-3.113c0-10.084,8.113-18.258,18.125-18.258
	c4.465,0,8.557,1.627,11.713,4.333c5.627-12.776,12.842-24.437,33.079-24.437c24.544,0,36.177,19.073,36.177,39.198
	c0,0.843-0.035,1.677-0.092,2.501C181.189,788.276,191.008,799.899,191.008,813.836"/>
<path fill="#FFFFFF" d="M779.952,1386.394c0,15.914-12.809,28.816-28.603,28.816H662.85c-15.794,0-28.599-12.902-28.599-28.816
	c0-14.375,10.441-26.281,24.104-28.461c-0.173-1.008-0.27-2.047-0.27-3.115c0-10.084,8.113-18.258,18.125-18.258
	c4.465,0,8.557,1.627,11.713,4.334c5.627-12.777,12.842-24.437,33.078-24.437c24.545,0,36.178,19.072,36.178,39.197
	c0,0.844-0.035,1.678-0.092,2.502C770.135,1360.835,779.952,1372.458,779.952,1386.394"/>
<path fill="#FFFFFF" d="M512.524,1435.769c0,15.914-12.809,28.816-28.604,28.816h-88.5c-15.794,0-28.599-12.902-28.599-28.816
	c0-14.373,10.442-26.281,24.104-28.461c-0.173-1.008-0.27-2.047-0.27-3.113c0-10.084,8.114-18.258,18.125-18.258
	c4.465,0,8.557,1.627,11.713,4.332c5.626-12.775,12.842-24.437,33.079-24.437c24.545,0,36.179,19.074,36.179,39.199
	c0,0.842-0.035,1.676-0.093,2.5C502.706,1410.21,512.524,1421.833,512.524,1435.769"/>
<path fill="#FFFFFF" d="M185.603,1472.257c0,15.914-12.81,28.815-28.604,28.815H68.501c-15.794,0-28.599-12.901-28.599-28.815
	c0-14.374,10.442-26.281,24.104-28.461c-0.173-1.009-0.27-2.048-0.27-3.114c0-10.084,8.114-18.259,18.125-18.259
	c4.465,0,8.557,1.627,11.713,4.334c5.627-12.776,12.842-24.437,33.079-24.437c24.544,0,36.177,19.073,36.177,39.198
	c0,0.843-0.035,1.677-0.092,2.501C175.784,1446.697,185.603,1458.32,185.603,1472.257"/>
<path fill="#FFFFFF" d="M329.608,936.579c-0.393,0-0.775,0.034-1.16,0.059c0.077-0.796,0.122-1.603,0.122-2.418
	c0-13.517-10.956-24.473-24.471-24.473c-4.368,0-8.46,1.158-12.01,3.162c-3.507-12.191-14.733-21.115-28.055-21.115
	c-16.125,0-29.196,13.072-29.196,29.196c0,1.539,0.121,3.05,0.352,4.525c-0.555-0.041-1.108-0.085-1.673-0.085
	c-12.628,0-22.866,10.236-22.866,22.866c0,12.628,10.238,22.864,22.866,22.864c4.37,0,8.439-1.249,11.913-3.376
	c4.751,8.741,14.015,14.677,24.662,14.677c10.266,0,19.236-5.517,24.127-13.742c2.009,4.339,6.389,7.355,11.484,7.355
	c5.222,0,9.704-3.164,11.641-7.678c3.26,2.885,7.547,4.654,12.264,4.654c10.176,0,18.425-8.165,18.425-18.236
	S339.784,936.579,329.608,936.579z"/>
<path fill="#FFFFFF" d="M744.426,1114.554c-0.394,0-0.775,0.034-1.16,0.058c0.076-0.795,0.121-1.602,0.121-2.418
	c0-13.516-10.955-24.473-24.472-24.473c-4.366,0-8.459,1.158-12.008,3.162c-3.508-12.191-14.733-21.114-28.055-21.114
	c-16.125,0-29.197,13.071-29.197,29.196c0,1.539,0.121,3.051,0.353,4.524c-0.556-0.041-1.108-0.085-1.674-0.085
	c-12.628,0-22.865,10.237-22.865,22.866c0,12.626,10.237,22.865,22.865,22.865c4.37,0,8.44-1.248,11.913-3.377
	c4.751,8.741,14.015,14.676,24.662,14.676c10.267,0,19.236-5.516,24.127-13.742c2.009,4.34,6.39,7.357,11.484,7.357
	c5.223,0,9.705-3.164,11.641-7.678c3.261,2.885,7.548,4.653,12.265,4.653c10.176,0,18.424-8.166,18.424-18.235
	C762.849,1122.719,754.601,1114.554,744.426,1114.554z"/>
<path fill="#FFFFFF" d="M473.736,1222.554c0.026-0.366,0.057-0.733,0.057-1.107c0-8.202-6.649-14.852-14.854-14.852
	c-2.801,0-5.41,0.788-7.646,2.137c-3.75-10.438-13.73-17.902-25.459-17.902c-12.286,0-22.651,8.194-25.949,19.415
	c-2.76-1.368-5.858-2.156-9.147-2.156c-11.41,0-20.66,9.25-20.66,20.659c0,0.384,0.036,0.757,0.057,1.135
	c-0.887-0.132-1.787-0.223-2.712-0.223c-10.173,0-18.419,8.249-18.419,18.42c0,10.175,8.247,18.421,18.419,18.421
	c3.695,0,7.13-1.101,10.015-2.974c2.81,4.326,7.676,7.195,13.22,7.195c5.267,0,9.919-2.597,12.781-6.564
	c2.039,3.672,5.952,6.158,10.449,6.158c3.822,0,7.218-1.801,9.404-4.596c3.248,5.241,9.033,8.744,15.653,8.744
	c6.78,0,12.691-3.677,15.89-9.134c2.683,1.07,5.604,1.666,8.67,1.666c12.923,0,23.396-10.477,23.396-23.397
	C486.9,1234.348,481.529,1226.351,473.736,1222.554z"/>
<path fill="#FFFFFF" d="M201.375,1112.196c0.026-0.367,0.057-0.733,0.057-1.106c0-8.203-6.649-14.853-14.853-14.853
	c-2.801,0-5.411,0.789-7.646,2.137c-3.75-10.438-13.732-17.901-25.459-17.901c-12.287,0-22.653,8.192-25.949,19.414
	c-2.76-1.367-5.859-2.156-9.148-2.156c-11.41,0-20.66,9.25-20.66,20.66c0,0.383,0.036,0.756,0.058,1.133
	c-0.887-0.131-1.788-0.221-2.712-0.221c-10.173,0-18.419,8.248-18.419,18.42c0,10.174,8.247,18.42,18.419,18.42
	c3.694,0,7.13-1.1,10.014-2.973c2.811,4.325,7.676,7.194,13.22,7.194c5.268,0,9.919-2.596,12.781-6.563
	c2.039,3.672,5.952,6.157,10.449,6.157c3.823,0,7.218-1.801,9.405-4.596c3.247,5.242,9.032,8.744,15.652,8.744
	c6.781,0,12.691-3.676,15.89-9.133c2.683,1.07,5.604,1.666,8.67,1.666c12.923,0,23.396-10.478,23.396-23.398
	C214.54,1123.989,209.168,1115.993,201.375,1112.196z"/>
<path fill="#FFFFFF" d="M729.875,890.526c0.026-0.367,0.057-0.734,0.057-1.106c0-8.203-6.65-14.853-14.854-14.853
	c-2.802,0-5.41,0.789-7.646,2.137c-3.75-10.438-13.731-17.901-25.459-17.901c-12.286,0-22.653,8.192-25.949,19.414
	c-2.761-1.367-5.857-2.156-9.146-2.156c-11.41,0-20.66,9.25-20.66,20.66c0,0.383,0.036,0.756,0.057,1.133
	c-0.887-0.131-1.787-0.221-2.711-0.221c-10.174,0-18.42,8.248-18.42,18.42c0,10.174,8.246,18.42,18.42,18.42
	c3.695,0,7.129-1.101,10.014-2.974c2.811,4.326,7.677,7.195,13.22,7.195c5.268,0,9.92-2.596,12.78-6.563
	c2.039,3.672,5.952,6.157,10.449,6.157c3.822,0,7.218-1.801,9.405-4.596c3.247,5.242,9.033,8.744,15.653,8.744
	c6.779,0,12.69-3.676,15.889-9.133c2.682,1.069,5.604,1.666,8.67,1.666c12.922,0,23.396-10.478,23.396-23.398
	C743.038,902.319,737.668,894.323,729.875,890.526z"/>
<path fill="#FFFFFF" d="M508.938,401.951c0,15.914-12.809,28.816-28.604,28.816h-88.499c-15.795,0-28.6-12.902-28.6-28.816
	c0-14.374,10.443-26.28,24.104-28.461c-0.174-1.008-0.27-2.047-0.27-3.114c0-10.084,8.113-18.258,18.125-18.258
	c4.465,0,8.557,1.627,11.713,4.333c5.627-12.775,12.842-24.436,33.079-24.436c24.545,0,36.179,19.073,36.179,39.198
	c0,0.843-0.035,1.677-0.093,2.501C499.119,376.392,508.938,388.015,508.938,401.951"/>
<path fill="#FFFFFF" d="M278.532,663.581c0,15.914-12.809,28.816-28.604,28.816H161.43c-15.795,0-28.601-12.902-28.601-28.816
	c0-14.373,10.443-26.28,24.105-28.461c-0.174-1.008-0.271-2.047-0.271-3.112c0-10.084,8.113-18.259,18.125-18.259
	c4.465,0,8.558,1.628,11.713,4.332c5.627-12.774,12.843-24.436,33.078-24.436c24.545,0,36.178,19.074,36.178,39.199
	c0,0.842-0.034,1.676-0.092,2.5C268.714,638.022,278.532,649.646,278.532,663.581"/>
<path fill="#FFFFFF" d="M795.234,88.97c0,15.914-12.809,28.815-28.603,28.815h-88.499c-15.794,0-28.6-12.901-28.6-28.815
	c0-14.374,10.442-26.281,24.104-28.461c-0.173-1.009-0.271-2.048-0.271-3.114c0-10.084,8.114-18.258,18.125-18.258
	c4.465,0,8.558,1.627,11.713,4.333c5.627-12.776,12.843-24.437,33.079-24.437c24.544,0,36.177,19.073,36.177,39.198
	c0,0.843-0.034,1.677-0.092,2.501C785.416,63.412,795.234,75.035,795.234,88.97"/>
<path fill="#FFFFFF" d="M527.807,138.346c0,15.914-12.81,28.815-28.604,28.815h-88.499c-15.794,0-28.599-12.901-28.599-28.815
	c0-14.374,10.441-26.281,24.104-28.461c-0.173-1.009-0.27-2.048-0.27-3.114c0-10.084,8.114-18.258,18.125-18.258
	c4.465,0,8.557,1.627,11.713,4.333c5.626-12.776,12.841-24.437,33.078-24.437c24.545,0,36.178,19.073,36.178,39.198
	c0,0.843-0.035,1.677-0.092,2.501C517.988,112.788,527.807,124.411,527.807,138.346"/>
<path fill="#FFFFFF" d="M200.885,174.833c0,15.914-12.81,28.816-28.604,28.816H83.783c-15.794,0-28.599-12.902-28.599-28.816
	c0-14.374,10.441-26.28,24.104-28.461c-0.173-1.008-0.27-2.047-0.27-3.114c0-10.084,8.113-18.258,18.125-18.258
	c4.465,0,8.557,1.627,11.713,4.333c5.627-12.775,12.842-24.436,33.079-24.436c24.544,0,36.177,19.073,36.177,39.198
	c0,0.843-0.035,1.677-0.092,2.501C191.066,149.274,200.885,160.897,200.885,174.833"/>
<path fill="#FFFFFF" d="M339.485,297.577c-0.393,0-0.775,0.034-1.16,0.059c0.077-0.797,0.122-1.603,0.122-2.419
	c0-13.516-10.956-24.472-24.471-24.472c-4.368,0-8.46,1.158-12.01,3.162c-3.507-12.192-14.733-21.115-28.055-21.115
	c-16.125,0-29.196,13.072-29.196,29.196c0,1.539,0.121,3.05,0.352,4.525c-0.555-0.041-1.108-0.085-1.673-0.085
	c-12.628,0-22.866,10.236-22.866,22.866c0,12.628,10.238,22.864,22.866,22.864c4.37,0,8.439-1.249,11.913-3.376
	c4.751,8.741,14.015,14.676,24.663,14.676c10.265,0,19.235-5.516,24.126-13.741c2.009,4.339,6.389,7.355,11.484,7.355
	c5.223,0,9.704-3.164,11.641-7.678c3.26,2.885,7.547,4.654,12.264,4.654c10.176,0,18.425-8.165,18.425-18.236
	S349.661,297.577,339.485,297.577z"/>
<path fill="#FFFFFF" d="M754.302,475.552c-0.394,0-0.775,0.034-1.16,0.058c0.076-0.795,0.121-1.602,0.121-2.418
	c0-13.516-10.955-24.473-24.471-24.473c-4.367,0-8.459,1.158-12.009,3.162c-3.508-12.191-14.733-21.114-28.055-21.114
	c-16.125,0-29.197,13.071-29.197,29.196c0,1.539,0.121,3.051,0.353,4.524c-0.556-0.041-1.108-0.085-1.673-0.085
	c-12.628,0-22.866,10.237-22.866,22.866c0,12.626,10.237,22.865,22.866,22.865c4.369,0,8.439-1.248,11.913-3.377
	c4.75,8.741,14.014,14.676,24.661,14.676c10.267,0,19.236-5.517,24.127-13.742c2.009,4.34,6.39,7.357,11.484,7.357
	c5.223,0,9.705-3.164,11.641-7.679c3.261,2.886,7.548,4.654,12.265,4.654c10.176,0,18.424-8.166,18.424-18.236
	S764.478,475.552,754.302,475.552z"/>
<path fill="#FFFFFF" d="M483.613,583.552c0.026-0.366,0.057-0.733,0.057-1.107c0-8.202-6.649-14.852-14.854-14.852
	c-2.801,0-5.41,0.789-7.646,2.137c-3.75-10.437-13.731-17.902-25.459-17.902c-12.286,0-22.652,8.194-25.949,19.415
	c-2.761-1.367-5.859-2.155-9.148-2.155c-11.41,0-20.66,9.249-20.66,20.658c0,0.384,0.036,0.758,0.058,1.135
	c-0.888-0.132-1.788-0.223-2.713-0.223c-10.173,0-18.419,8.249-18.419,18.42c0,10.175,8.247,18.42,18.419,18.42
	c3.695,0,7.131-1.1,10.015-2.973c2.81,4.326,7.676,7.195,13.22,7.195c5.267,0,9.919-2.597,12.781-6.564
	c2.039,3.672,5.952,6.158,10.449,6.158c3.822,0,7.217-1.801,9.404-4.596c3.247,5.241,9.032,8.744,15.652,8.744
	c6.78,0,12.691-3.677,15.889-9.134c2.684,1.07,5.605,1.666,8.671,1.666c12.923,0,23.396-10.477,23.396-23.397
	C496.777,595.346,491.406,587.349,483.613,583.552z"/>
<path fill="#FFFFFF" d="M211.252,473.194c0.026-0.367,0.057-0.733,0.057-1.106c0-8.203-6.649-14.853-14.853-14.853
	c-2.801,0-5.411,0.789-7.646,2.137c-3.75-10.438-13.732-17.901-25.459-17.901c-12.287,0-22.653,8.192-25.949,19.414
	c-2.76-1.367-5.859-2.156-9.148-2.156c-11.409,0-20.659,9.25-20.659,20.66c0,0.383,0.035,0.756,0.057,1.133
	c-0.887-0.131-1.788-0.221-2.712-0.221c-10.173,0-18.419,8.248-18.419,18.42c0,10.174,8.247,18.42,18.419,18.42
	c3.694,0,7.13-1.101,10.014-2.974c2.811,4.326,7.676,7.195,13.22,7.195c5.268,0,9.919-2.596,12.781-6.563
	c2.039,3.672,5.952,6.157,10.449,6.157c3.823,0,7.218-1.801,9.405-4.596c3.247,5.242,9.032,8.744,15.652,8.744
	c6.781,0,12.691-3.676,15.89-9.133c2.683,1.07,5.604,1.666,8.67,1.666c12.923,0,23.396-10.478,23.396-23.398
	C224.417,484.987,219.045,476.991,211.252,473.194z"/>
<path fill="#FFFFFF" d="M739.752,251.524c0.026-0.367,0.057-0.734,0.057-1.107c0-8.203-6.65-14.852-14.854-14.852
	c-2.802,0-5.41,0.789-7.646,2.137c-3.75-10.438-13.731-17.902-25.459-17.902c-12.286,0-22.653,8.193-25.949,19.414
	c-2.761-1.366-5.857-2.155-9.146-2.155c-11.41,0-20.66,9.25-20.66,20.659c0,0.384,0.036,0.757,0.057,1.134
	c-0.887-0.131-1.787-0.222-2.711-0.222c-10.174,0-18.42,8.248-18.42,18.42c0,10.175,8.246,18.421,18.42,18.421
	c3.695,0,7.129-1.101,10.014-2.974c2.811,4.326,7.677,7.195,13.22,7.195c5.268,0,9.92-2.596,12.78-6.564
	c2.039,3.672,5.952,6.158,10.449,6.158c3.822,0,7.218-1.801,9.405-4.596c3.247,5.242,9.033,8.744,15.653,8.744
	c6.779,0,12.69-3.676,15.889-9.134c2.682,1.07,5.604,1.666,8.67,1.666c12.922,0,23.396-10.477,23.396-23.397
	C752.915,263.317,747.545,255.321,739.752,251.524z"/>
</svg>
