<?xml version="1.0" encoding="utf-8"?>
<!-- Generator: Adobe Illustrator 16.0.0, SVG Export Plug-In . SVG Version: 6.00 Build 0)  -->
<!DOCTYPE svg PUBLIC "-//W3C//DTD SVG 1.1//EN" "http://www.w3.org/Graphics/SVG/1.1/DTD/svg11.dtd">
<svg version="1.1" xmlns="http://www.w3.org/2000/svg" xmlns:xlink="http://www.w3.org/1999/xlink" x="0px" y="0px" width="74.2px"
	 height="60px" viewBox="0 0 74.2 60" enable-background="new 0 0 74.2 60" xml:space="preserve">
<g id="Calque_1">
</g>
<g id="Calque_2">
	<line x1="38.1" y1="14.9" x2="38.1" y2="11.1"/>
	<line fill="none" stroke="#000000" stroke-width="0.2" stroke-miterlimit="10" x1="38.1" y1="14.9" x2="38.1" y2="11.1"/>
	<path fill="#7D694B" stroke="#000000" stroke-width="0.3" stroke-miterlimit="10" d="M26.1,55.4c1.4-1.2-4.7,4.1-10.7,3.6
		c-6.1-0.5-6.1-9.7-6.3-15.7c0,0-1.5-13.3,0-17.1c8.8-27,48.5-29,56.8,2.6c1,10.3,0.4,19.7-2.4,28.9c0,0-2.4,2.6-6.3,0
		c-3.3-1.7-3.9-1.9-6.6-2.7"/>
	<path fill="#D2BA92" d="M9.7,42.5c0,0-1.5-12.8,0-16.5C19.8-1.4,56.8-1.7,64.5,28.5c0.2,3.4,1,4.7,1.4,11.2c0-5.6-0.2-10-0.5-11.3
		C57.2-3.1,17.7-1.1,8.9,25.8C7.4,29.6,8.8,43,8.8,43c0.1,1.8,0.1,5,0.3,5.8C9.1,47.3,9.6,45.6,9.7,42.5z"/>
	<g opacity="0.3">
		<line fill="#41AE68" x1="55.7" y1="23.1" x2="55.7" y2="23.1"/>
		<path opacity="0.4" d="M55.1,22.3c-6.1-1.9-16.2-0.2-17.9-7.1c-2,4.8-6.2,3.4-17.8,6.6C8.5,27.5,13.7,47.6,16,52.9
			c-5.9-9.1-5.4-20.1-4.4-23.9c1-3.9,5.1-8.1,7.8-9.1c2.7-1,16-1.8,18-6.6c1.7,7,14.2,3.4,19.3,7.6c0.3,0.4,5,2.7,6.2,7.5
			c1.2,4.7-0.3,22.1-6.1,27.9C56.8,56.3,69.1,29.8,55.1,22.3z"/>
	</g>
	<path d="M12.3,25.4"/>
	<path fill="#1F1A12" d="M18.2,58.5c0-0.1-0.1-0.1-0.1-0.2c-0.1-0.2-0.2-0.4-0.3-0.7c-1.3-2.8-3.8-10.6-4-12.4
		c1,1.9,7.8,9.2,12.1,9.9C23.7,56.5,20.6,57.7,18.2,58.5z"/>
	<path fill="#1F1A12" d="M56.3,57.1c0.1-0.1,0.2-0.2,0.3-0.4c1.1-1.8,3.8-10.2,3.8-11.1c-0.9,1.5-6.5,7.3-10.2,9
		c2,0.7,3.7,1.2,5.6,2.2C56,56.9,56.2,57,56.3,57.1z"/>
	<path fill="#A28460" d="M19.2,60"/>
	<path fill="#A28460" d="M68.6,33.8"/>
	<line stroke="#000000" stroke-width="0.2" stroke-miterlimit="10" x1="37.4" y1="14.7" x2="37.4" y2="10.9"/>
	<path fill="#7D4F23" d="M49.8,15.1"/>
	<path fill="#E45151" stroke="#000000" stroke-width="0.3" stroke-miterlimit="10" d="M46.6,5.5c0,3-4.2,5.4-9.4,5.4
		c-5.2,0-9-2.4-9-5.4c0-3,3.8-5.4,9-5.4C42.4,0.2,46.6,2.6,46.6,5.5z"/>
	<path opacity="0.9" fill="#E4E0DA" d="M46.4,4.5c-0.9-2.4-4.7-4.3-9.2-4.3c-4.5,0-8,1.9-8.8,4.3l0.1,0.2c1-2.2,4.4-4.1,8.7-4.1
		c4.4,0,8,1.8,9.1,4.1L46.4,4.5z"/>
	<path opacity="0.3" fill="#413F3A" d="M37.2,8.5c-4.3,0-7.8-1.7-8.8-4c-0.2,0.4-0.2,0.9-0.2,1.4c0,2.7,3.8,7.6,9,7.6
		c5.2,0,9.4-4.8,9.4-7.6c0-0.5,0.1-1-0.2-1.4C45.3,6.8,41.5,8.5,37.2,8.5z"/>
	<path fill="#7D694B" stroke="#000000" stroke-width="0.3" stroke-miterlimit="10" d="M15.7,14.3c-3.8-3-9.5-6.8-15.2-6
		c-2.3,9.2,4.9,19.3,7.8,19.3C9.3,23.5,12.1,18.6,15.7,14.3z"/>
	<path fill="#7D694B" stroke="#000000" stroke-width="0.3" stroke-miterlimit="10" d="M58.4,14.4c3.8-3,8.6-6.9,15.2-6
		c2.3,9.2-5.2,20.1-8,20.1C64.6,24.4,62.1,18.7,58.4,14.4z"/>
	<g>
		<path fill="#AF8F63" d="M73.6,8.4c-6.1-1-11.3,2.9-15.1,6c0.4,0.4,0.7,0.8,1,1.3c3.5-3.3,7.8-7.1,14.1-6.8L73.6,8.4z"/>
	</g>
	<path fill="#AF9875" d="M15.7,14.3c-3.8-3-9.5-6.8-15.2-6c0,0,0,0.1,0,0.1C6,9.3,10.8,12.8,14.4,16L15.7,14.3z"/>
	<path fill="#5D4F39" d="M64.3,24.4c0,0,1.2,4.1,1.5,4c2.5-0.3,8.2-7.8,8.2-16.1C73.3,16.4,68.3,22.6,64.3,24.4z"/>
	<path fill="#EFAAAA" stroke="#000000" stroke-width="0.3" stroke-miterlimit="10" d="M12.7,17.8c-2.1-1.6-6-6.5-9.1-6.1
		c-0.2,4.6,2.8,11.5,5.7,12.5C9.8,22.1,10.7,20.2,12.7,17.8z"/>
	<path opacity="0.3" fill="#785757" d="M9.3,24.3c0.7-1,2.4-5.4,3.3-6.4c-2.1-1.6-5.7-6.1-8.9-6.1c3.6,2.8,5.7,7.5,4.9,12.1
		C8.5,24.4,9.3,24,9.3,24.3z"/>
	<path fill="#EFAAAA" stroke="#000000" stroke-width="0.3" stroke-miterlimit="10" d="M61.5,18c2.1-1.6,6-6.5,9.1-6.1
		c0.2,4.5-2.8,11.5-5.7,12.5C64.3,22.3,63.5,20.3,61.5,18z"/>
	<path opacity="0.3" fill="#785757" d="M64.9,24.4c0-1.3-2.4-5.4-3.3-6.4c2.1-1.6,5.7-6.1,8.9-6.1c-5.1,3.6-4.8,9.1-4.6,11.2
		C66,23.6,64.9,24.1,64.9,24.4z"/>
	<path fill="#DF9453" stroke="#000000" stroke-width="0.5" stroke-miterlimit="10" d="M59.6,46.4c0.3,4.1-9.5,13.7-8.8,12.8
		c0.6-0.9,0.6-6.6,0.6-6.6c-0.2,2.6-2.1,5.5-2.1,5.9c0,0.3-0.4,0.6-0.3,0.2c0.2-0.6-0.4-3.3-1.2-4.3c-0.1,0-0.2,0-0.3,0.1
		c-0.3,0.8-0.2,2.4,0.3,3.5c-1.9,0.3-2.9-2-3-2.3"/>
	<path fill="#DF9453" stroke="#000000" stroke-width="0.5" stroke-miterlimit="10" d="M14.5,46.4c-0.3,4.1,9.5,13.7,8.8,12.8
		c-0.6-0.9-0.6-6.6-0.6-6.6c0.2,2.6,2.1,5.5,2.1,5.9c0,0.3,0.4,0.6,0.3,0.2c-0.2-0.6,0.4-3.3,1.2-4.3c0.1,0,0.2,0,0.3,0.1
		c0.3,0.8,0.2,2.4-0.3,3.5c1.9,0.3,2.9-2,3-2.3"/>
	<path fill="#FDE8D7" stroke="#000000" stroke-miterlimit="10" d="M62.1,33.8c0,12.5-2.9,15.5-8.8,19.1c-3.8,2.3-8.3,4.4-16.2,4.4
		C22.6,57.3,9.2,46.3,12,34.7c0-12.8,8.1-15,24.8-15C53.6,19.7,62.1,21.9,62.1,33.8z"/>
	<g opacity="0.3">
		<path d="M16.7,26.1"/>
		<path d="M60.4,26.4c1,1.9,1.1,4.4,1.1,7.4c0,11.7-3.3,15.2-8.9,18.6c-3.6,2.2-8.1,4.3-15.5,4.3c-13.5-0.1-26.9-10.8-24.3-21.7
			c0-3-0.9-5.7,0.4-7.4c-1.4,2.3-1.2,4.3-1.2,7.1C9.3,46.3,22.6,57.3,37.1,57.3c7.9,0,12.4-2.1,16.2-4.4c5.9-3.6,8.8-6.6,8.8-19.1
			C62.1,31,62.5,28.3,60.4,26.4z"/>
	</g>
	<radialGradient id="SVGID_1_" cx="26.1709" cy="48.4355" r="3.0439" gradientUnits="userSpaceOnUse">
		<stop  offset="0.3152" style="stop-color:#E86E70;stop-opacity:0.5"/>
		<stop  offset="0.4344" style="stop-color:#EA7F81;stop-opacity:0.413"/>
		<stop  offset="0.6714" style="stop-color:#EEACAD;stop-opacity:0.2399"/>
		<stop  offset="1" style="stop-color:#F4F4F4;stop-opacity:0"/>
	</radialGradient>
	<circle fill="url(#SVGID_1_)" cx="26.2" cy="48.4" r="3"/>
	<radialGradient id="SVGID_2_" cx="50.3232" cy="48.4355" r="3.0439" gradientUnits="userSpaceOnUse">
		<stop  offset="0.3152" style="stop-color:#E86E70;stop-opacity:0.5"/>
		<stop  offset="0.4344" style="stop-color:#EA7F81;stop-opacity:0.413"/>
		<stop  offset="0.6714" style="stop-color:#EEACAD;stop-opacity:0.2399"/>
		<stop  offset="1" style="stop-color:#F4F4F4;stop-opacity:0"/>
	</radialGradient>
	<circle fill="url(#SVGID_2_)" cx="50.3" cy="48.4" r="3"/>
	<circle fill="#65321D" cx="50.8" cy="50.6" r="0.2"/>
	<circle fill="#65321D" cx="26.1" cy="47.9" r="0.2"/>
	<circle fill="#65321D" cx="48.9" cy="47.2" r="0.2"/>
	<circle fill="#65321D" cx="23.8" cy="46.7" r="0.2"/>
	<circle fill="#65321D" cx="48.6" cy="49.6" r="0.2"/>
	<circle fill="#65321D" cx="26.8" cy="48.5" r="0.2"/>
	<circle fill="#65321D" cx="52.1" cy="47.1" r="0.2"/>
	<circle fill="#65321D" cx="24.8" cy="50.4" r="0.2"/>
	<circle fill="#65321D" cx="51.3" cy="49" r="0.2"/>
	<circle fill="#65321D" cx="27.5" cy="45.7" r="0.2"/>
	<line fill="none" stroke="#000000" stroke-miterlimit="10" x1="37.1" y1="45.7" x2="37.1" y2="44.2"/>
	<path fill="none" stroke="#000000" stroke-miterlimit="10" d="M37,48.7c-0.8,0-1.5-0.7-1.5-1.5l0,0c0-0.8,0.7-1.5,1.5-1.5"/>
	<path opacity="0.15" d="M37.1,48.8c-0.2,0.3-0.6,0.4-1.1,0.2c-0.4-0.2-0.6-0.6-0.5-1"/>
	<path fill="#5A483B" d="M29.3,31.9c0.7,0.3,1.8,0.5,2.9,2.1c-1.1-0.8-2.7-1.5-3.3-1.5c-0.6-0.3-2.4-0.7-6.1-0.1
		c0,0-2.7,0.3-3.3,0.2C18.9,32.4,26.9,30.9,29.3,31.9z"/>
	<path fill="#5A483B" d="M46.7,31.9c-0.7,0.3-1.8,0.5-2.9,2.1c1.1-0.8,2.7-1.5,3.3-1.5c0.6-0.3,2.4-0.7,6.1-0.1c0,0,2.7,0.3,3.3,0.2
		C57.1,32.4,49.1,30.9,46.7,31.9z"/>
	<path fill="#FFFFFF" stroke="#000000" stroke-miterlimit="10" d="M29.8,38c0,2.1-1.1,5.3-4.4,5.3c-3.3,0-4.4-2.2-4.4-5.3
		c0-2.8,3.1-4,4.4-4C27.7,34,29.8,36.3,29.8,38z"/>
	<path fill="#FFFFFF" stroke="#000000" stroke-miterlimit="10" d="M46,39.3c-0.2-2.1,0.9-5.3,4.2-5.3c2.8,0,4.5,2.1,4.5,5.2
		c0,2.4-1.6,4.1-4.5,4.1C46.9,43.3,46.1,40.8,46,39.3z"/>
	<path d="M29.4,38c0,2.1-1.6,3.7-3.3,3.7C24,41.8,23,40.1,23,38c0-2.1,1.8-3.4,3.2-3.4C27.6,34.7,29.4,36,29.4,38z"/>
	<path d="M52.5,37.8c0,2.1-1.1,3.9-2.9,3.9c-2.1,0-3.2-1.8-3.2-3.8c0-2.1,1.6-3.3,3-3.3S52.5,35.8,52.5,37.8z"/>
	<circle fill="#FFFCF5" cx="25" cy="38.6" r="0.6"/>
	<circle fill="#FFFCF5" cx="24.9" cy="36.7" r="1.2"/>
	<circle fill="#FFFCF5" cx="47.9" cy="36.8" r="1"/>
	<circle fill="#FFFCF5" cx="48.1" cy="39" r="0.6"/>
	<path opacity="0.1" d="M55.3,23.5c0.3,0.4,0.4,1.1,0.4,1.5c-1.4,2.2-5.9,4-5.9,4c0.5-0.8,0.9-1.2,2.8-3.4c-7,6.9-16.8,8.2-16.8,8.2
		c1.3-0.9,8.2-5.2,10.4-8.5c-3.3,6.5-23.3,10.2-21.7,9.5c1.6-0.7,5.9-8.9,5.9-8.9c-2.6,3.8-7.5,6.2-7.8,6.7c-0.3,0.5-1,0.4-0.5,0
		c0.8-0.8,2.3-5.4,2.4-7.8c0-0.1-0.3-0.3-0.5-0.2c-1,0.9-1.1,2.6-1.5,4.9c-2.7-1.5-3.2-5.5-3-6c11.6-3.2,16-2.3,18-7.1
		C39.1,23.3,50.2,19.3,55.3,23.5z"/>
	<path fill="#DF9453" stroke="#000000" stroke-width="0.5" stroke-miterlimit="10" d="M56.7,22.8c0.3,0.4-0.3,0.9-0.3,1.3
		c-1.4,2.2-5.9,3.9-5.9,3.9c0.5-0.8,0.7-1.3,2.7-3.5c-7,6.9-15.1,7.3-15.1,7.3c1.3-0.9,5.8-4.8,8-8.1c-3.3,6.5-24,10.7-22.4,10.1
		c1.6-0.7,6.6-9.5,6.6-9.5c-2.6,3.8-7.5,6.2-7.8,6.7c-0.3,0.5-1,0.4-0.5,0c0.8-0.8,2.3-5.4,2.4-7.8c0-0.1-0.3-0.3-0.5-0.2
		c-1,0.9-2.4,3.4-2.8,5.6c-2.7-1.5-1.9-6.3-1.7-6.8c11.2-4.4,16-2.3,18-7.1C39.1,21.6,51.6,18.5,56.7,22.8z"/>
	<path fill="none" stroke="#000000" stroke-miterlimit="10" d="M33.5,51.8c1.5,0.6,3.2,0.9,5.1,0.9c0.9,0,1.7-0.1,2.5-0.2"/>
	<path fill="none" stroke="#000000" stroke-miterlimit="10" d="M39.2,54.9c-0.7,0-1.5-0.1-2.2-0.2"/>
	<g>
	</g>
	<g>
	</g>
	<g>
	</g>
	<g>
	</g>
	<g>
	</g>
	<g>
	</g>
	<g>
	</g>
	<g>
	</g>
	<g>
	</g>
	<g>
	</g>
	<g>
	</g>
	<g>
	</g>
	<g>
	</g>
	<g>
	</g>
	<g>
	</g>
</g>
</svg>
