<?xml version="1.0" encoding="utf-8"?>
<!-- Generator: Adobe Illustrator 16.0.3, SVG Export Plug-In . SVG Version: 6.00 Build 0)  -->
<!DOCTYPE svg PUBLIC "-//W3C//DTD SVG 1.1//EN" "http://www.w3.org/Graphics/SVG/1.1/DTD/svg11.dtd">
<svg version="1.1" id="Calque_1" xmlns="http://www.w3.org/2000/svg" xmlns:xlink="http://www.w3.org/1999/xlink" x="0px" y="0px"
	 width="502px" height="444px" viewBox="0 0 502 444" enable-background="new 0 0 502 444" xml:space="preserve">
<path fill="#E895EF" d="M502,356.394C502,404.777,462.777,444,414.394,444H87.606C39.223,444,0,404.777,0,356.394V87.606
	C0,39.223,39.223,0,87.606,0h326.788C462.777,0,502,39.223,502,87.606V356.394z"/>
<g id="sound_off">
	<path fill="#FFFFFF" d="M156.686,141.9c-8.344,5.389-14.264,9.811-24.205,9.811H89.982c-9.936,0-18.061,8.111-18.061,18.048
		v126.455c0,9.937,8.125,18.061,18.061,18.061h42.498c9.941,0,16.137,3.952,24.812,8.797l96.012,53.53
		c8.68,4.828,15.78,0.673,15.78-9.264V87.352c0-9.936-6.83-13.655-15.174-8.267L156.686,141.9z"/>
	<path fill="#FFFFFF" d="M389.741,240.056l39.547-39.563c3.506-3.512,3.506-9.25,0-12.763l-12.768-12.783
		c-3.517-3.499-9.265-3.499-12.771,0l-39.555,39.563l-39.547-39.563c-3.508-3.499-9.258-3.499-12.775,0l-12.766,12.783
		c-3.519,3.513-3.519,9.251,0,12.763l39.547,39.563l-39.547,39.53c-3.519,3.516-3.519,9.268,0,12.782l12.766,12.768
		c3.519,3.499,9.269,3.499,12.775,0l39.547-39.548l39.555,39.548c3.508,3.499,9.256,3.499,12.771,0l12.768-12.768
		c3.506-3.516,3.506-9.268,0-12.782L389.741,240.056z"/>
</g>
</svg>
