<?xml version="1.0" encoding="utf-8"?>
<!-- Generator: Adobe Illustrator 16.0.3, SVG Export Plug-In . SVG Version: 6.00 Build 0)  -->
<!DOCTYPE svg PUBLIC "-//W3C//DTD SVG 1.1//EN" "http://www.w3.org/Graphics/SVG/1.1/DTD/svg11.dtd">
<svg version="1.1" id="Calque_1" xmlns="http://www.w3.org/2000/svg" xmlns:xlink="http://www.w3.org/1999/xlink" x="0px" y="0px"
	 width="502px" height="444px" viewBox="5 32 502 444" enable-background="new 5 32 502 444" xml:space="preserve">
<path fill="#092754" d="M507,388.394C507,436.777,467.777,476,419.395,476H92.606C44.223,476,5,436.777,5,388.394V119.606
	C5,71.223,44.223,32,92.606,32h326.789C467.777,32,507,71.223,507,119.606V388.394z"/>
<g>
	<path fill="#FFFFFF" d="M268.957,283.796l-0.227,43.561c36.727-6.158,64.814-38.304,64.814-76.981
		c0-11.941-2.704-23.282-7.511-33.42c-2.103-4.356-4.507-8.487-7.36-12.392l35.374-32.67c0.826,0.976,1.577,2.028,2.328,3.004
		c15.696,21.029,24.935,47.165,24.935,75.479c0,0.901,0,1.878,0,2.779c-1.127,53.699-35.748,99.136-83.664,116.109
		c-9.238,3.229-18.926,5.482-28.916,6.534l-0.074,42.81l-57.229-50.319l-19.677-17.273l33.346-29.063L268.957,283.796z"/>
	<path fill="#FFFFFF" d="M130.467,247.596c1.202-54.149,36.275-99.887,84.792-116.56c8.787-3.004,18.025-5.107,27.638-6.083
		l0.075-42.809l57.154,50.244l19.677,17.349l-33.271,28.99l-43.86,38.228l0.15-43.485c-36.65,6.233-64.589,38.377-64.589,76.905
		c0,12.018,2.704,23.357,7.585,33.57c2.028,4.356,4.506,8.412,7.285,12.242l-35.298,32.745c-0.977-1.201-1.953-2.479-2.854-3.755
		c-15.396-20.954-24.484-46.789-24.484-74.803C130.467,249.474,130.467,248.497,130.467,247.596z"/>
</g>
</svg>
