<?xml version="1.0" encoding="utf-8"?>
<!-- Generator: Adobe Illustrator 16.0.3, SVG Export Plug-In . SVG Version: 6.00 Build 0)  -->
<!DOCTYPE svg PUBLIC "-//W3C//DTD SVG 1.1//EN" "http://www.w3.org/Graphics/SVG/1.1/DTD/svg11.dtd">
<svg version="1.1" id="Calque_1" xmlns="http://www.w3.org/2000/svg" xmlns:xlink="http://www.w3.org/1999/xlink" x="0px" y="0px"
	 width="502px" height="444px" viewBox="0 0 502 444" enable-background="new 0 0 502 444" xml:space="preserve">
<path fill="#ABAF4A" d="M502,356.394C502,404.777,462.777,444,414.394,444H87.606C39.223,444,0,404.777,0,356.394V87.606
	C0,39.223,39.223,0,87.606,0h326.788C462.777,0,502,39.223,502,87.606V356.394z"/>
<g id="sound_full">
	<path fill="#FFFFFF" d="M157.172,142.038c-8.364,5.411-14.307,9.829-24.25,9.829H90.318c-9.955,0-18.095,8.133-18.095,18.087
		v126.706c0,9.954,8.14,18.087,18.095,18.087h42.604c9.942,0,16.152,3.972,24.849,8.832l96.215,53.619
		c8.696,4.843,15.81,0.678,15.81-9.276V87.373c0-9.955-6.843-13.674-15.199-8.277L157.172,142.038z"/>
	<path fill="#FFFFFF" d="M376.037,346.43c-4.991,0-9.96-2.071-13.547-6.093c-6.64-7.486-5.944-18.913,1.538-25.56
		c0.314-0.268,36.629-33.567,36.629-82.594c0-49.569-36.258-82.297-36.629-82.615c-7.482-6.63-8.176-18.071-1.538-25.556
		c6.642-7.473,18.084-8.167,25.552-1.539c2.003,1.774,48.817,44.045,48.817,109.71c0,65.659-46.815,107.918-48.817,109.688
		C384.602,344.927,380.319,346.43,376.037,346.43L376.037,346.43z"/>
	<path fill="#FFFFFF" d="M314.078,313.654c-4.421,0-8.871-1.613-12.358-4.89c-7.308-6.835-7.678-18.294-0.849-25.591
		c7.124-7.661,25.67-31.828,25.67-50.99c0-15.353-17.732-41.511-26.332-51.767c-6.42-7.661-5.407-19.089,2.263-25.495
		c7.644-6.411,19.07-5.415,25.494,2.259c3.553,4.261,34.778,42.481,34.778,75.003c0,36.809-31.819,71.865-35.451,75.729
		C323.732,311.727,318.911,313.654,314.078,313.654L314.078,313.654z"/>
</g>
</svg>
