<?xml version="1.0" encoding="utf-8"?>
<!-- Generator: Adobe Illustrator 16.0.3, SVG Export Plug-In . SVG Version: 6.00 Build 0)  -->
<!DOCTYPE svg PUBLIC "-//W3C//DTD SVG 1.1//EN" "http://www.w3.org/Graphics/SVG/1.1/DTD/svg11.dtd">
<svg version="1.1" id="Calque_1" xmlns="http://www.w3.org/2000/svg" xmlns:xlink="http://www.w3.org/1999/xlink" x="0px" y="0px"
	 width="1197px" height="361px" viewBox="0 0 1197 361" enable-background="new 0 0 1197 361" xml:space="preserve">
<path fill="#092754" d="M1197,349c0,6.627-5.373,12-12,12H12c-6.627,0-12-5.373-12-12V12C0,5.373,5.373,0,12,0h1173
	c6.627,0,12,5.373,12,12V349z"/>
<g enable-background="new    ">
	<path fill="#FFFFFF" d="M388.195,102.617c0.949,1.901,1.14,3.611,0.57,5.13c-0.57,1.523-1.474,2.708-2.708,3.563
		c-1.238,0.855-2.756,1.283-4.56,1.283c-1.808,0-3.375-0.57-4.703-1.71c-1.523-1.141-2.378-2.708-2.565-4.703
		c-0.191-1.995-0.811-3.99-1.853-5.984c-1.046-1.995-3.042-3.75-5.985-5.273c-2.948-1.518-7.744-2.279-14.393-2.279
		c-3.803,0-7.081,1.665-9.833,4.987c-2.757,3.326-4.988,7.979-6.698,13.965s-2.948,13.11-3.705,21.375
		c-0.761,8.265-1.046,17.341-0.855,27.218c0,6.652,1.376,12.21,4.133,16.672c2.752,4.467,6.172,8.457,10.26,11.971
		c4.083,3.518,8.501,6.746,13.252,9.689c4.747,2.948,9.214,6.128,13.395,9.548c4.177,3.42,7.695,7.365,10.545,11.827
		c2.85,4.467,4.369,9.931,4.56,16.388c0.379,9.503-1.189,17.007-4.702,22.515c-3.518,5.514-8.363,9.312-14.535,11.4
		c-6.177,2.093-13.493,2.521-21.945,1.282c-8.457-1.233-17.434-4.034-26.933-8.407c-2.093-0.948-3.135-2.324-3.135-4.133
		c0-1.803,0.664-3.513,1.995-5.13c1.327-1.611,3.135-2.752,5.415-3.42c2.28-0.663,4.653-0.329,7.125,0.998
		c2.659,1.331,6.413,2.756,11.257,4.274c4.845,1.523,9.592,2.28,14.25,2.28c4.654,0,8.786-1.042,12.397-3.135
		c3.607-2.089,5.415-6.079,5.415-11.971c0-5.887-1.38-10.874-4.132-14.962c-2.756-4.084-6.27-7.882-10.545-11.4
		c-4.275-3.514-8.933-6.934-13.965-10.26c-5.037-3.322-9.646-7.125-13.823-11.4c-4.182-4.274-7.695-9.307-10.545-15.104
		c-2.85-5.794-4.182-12.776-3.99-20.947c0.187-9.12,0.615-18.383,1.283-27.788c0.664-9.404,2.182-17.906,4.56-25.507
		c2.374-7.598,5.887-13.867,10.545-18.811c4.653-4.938,10.973-7.597,18.953-7.979c7.789-0.379,14.009,0.569,18.667,2.85
		c4.653,2.28,8.265,4.894,10.83,7.838c2.565,2.947,4.275,5.749,5.13,8.407C387.482,100.436,388.003,102.047,388.195,102.617z"/>
	<path fill="#FFFFFF" d="M424.104,86.087c0.378-0.378,2.467-0.757,6.27-1.14c3.798-0.379,8.408-0.757,13.823-1.14
		c5.415-0.379,11.302-0.713,17.67-0.998c6.363-0.285,12.255-0.472,17.67-0.569c5.415-0.094,10.068-0.094,13.965,0
		c3.892,0.098,6.127,0.334,6.698,0.712c1.71,1.332,3.037,3.327,3.99,5.985c0.949,2.663,0.187,4.845-2.28,6.555
		c-1.332,0.953-3.184,1.475-5.558,1.567c-2.378,0.099-4.894,0.191-7.552,0.285c-2.663,0.098-5.179,0.334-7.553,0.713
		c-2.378,0.383-4.23,1.237-5.558,2.564c-0.57,0.57-1.046,3.376-1.425,8.408c-0.383,5.036-0.619,11.399-0.712,19.095
		c-0.098,7.695-0.098,16.437,0,26.22c0.093,9.788,0.187,19.763,0.285,29.925c0.094,10.167,0.187,20.142,0.285,29.926
		c0.094,9.787,0.143,18.573,0.143,26.362c0,7.793-0.098,14.205-0.285,19.237c-0.191,5.036-0.477,7.936-0.855,8.692
		c-1.71,3.042-4.088,4.467-7.125,4.275c-3.042-0.188-5.415-1.042-7.125-2.565c-0.383-0.379-0.619-3.086-0.712-8.122
		c-0.098-5.032-0.049-11.494,0.143-19.38c0.187-7.883,0.472-16.86,0.855-26.933c0.378-10.069,0.757-20.329,1.14-30.78
		c0.378-10.447,0.712-20.707,0.997-30.78c0.285-10.068,0.428-19.046,0.428-26.933c0-7.882-0.143-14.294-0.428-19.237
		c-0.285-4.938-0.81-7.597-1.567-7.979c-1.523-0.57-4.039-0.758-7.552-0.57c-3.518,0.191-7.174,0.428-10.973,0.713
		c-3.803,0.284-7.316,0.525-10.545,0.712c-3.233,0.191-5.415-0.187-6.555-1.14c-2.093-1.71-2.948-4.133-2.565-7.268
		C421.918,89.365,422.773,87.228,424.104,86.087z"/>
	<path fill="#FFFFFF" d="M573.729,81.242c1.14,0,2.324,0.143,3.563,0.428c1.233,0.285,2.374,0.904,3.42,1.853
		c1.042,0.953,1.946,2.378,2.708,4.274c0.757,1.902,1.14,4.561,1.14,7.98c0,1.71,0.472,5.228,1.425,10.545
		c0.948,5.321,2.182,11.734,3.705,19.237c1.519,7.508,3.277,15.817,5.272,24.938s4.034,18.338,6.127,27.646
		c2.089,9.312,4.178,18.382,6.271,27.217c2.089,8.836,3.94,16.722,5.558,23.655c1.611,6.938,2.895,12.638,3.848,17.101
		c0.948,4.466,1.518,6.982,1.709,7.552c0.188,1.141,0.428,2.329,0.713,3.563c0.285,1.238,0.33,2.472,0.143,3.705
		c-0.191,1.238-0.57,2.423-1.14,3.563c-0.57,1.141-1.616,1.995-3.136,2.565c-1.522,0.57-2.947,0.619-4.274,0.143
		c-1.331-0.473-2.565-1.283-3.705-2.423s-2.138-2.467-2.992-3.99c-0.855-1.519-1.474-3.037-1.853-4.56
		c-0.191-0.57-0.477-2.04-0.855-4.418c-0.383-2.373-0.854-5.316-1.425-8.835c-0.569-3.513-1.238-7.552-1.995-12.112
		c-0.761-4.56-1.523-9.213-2.28-13.965c0-0.188-0.855-0.285-2.565-0.285s-3.896,0.049-6.555,0.143
		c-2.663,0.098-5.7,0.334-9.12,0.713c-3.42,0.383-6.84,0.668-10.26,0.854c-7.223,0.57-13.729,1.141-19.522,1.71
		c-5.798,0.57-8.791,1.332-8.978,2.28c-2.28,9.12-3.99,15.817-5.13,20.093c-1.14,4.274-1.808,6.604-1.995,6.982
		c-0.57,1.71-1.38,4.039-2.422,6.982c-1.047,2.948-2.329,5.749-3.848,8.407c-1.523,2.663-3.277,4.845-5.272,6.555
		s-4.132,2.28-6.413,1.71c-1.523-0.378-2.471-1.469-2.85-3.277c-0.378-1.803-0.33-4.132,0.143-6.982
		c0.472-2.85,1.233-5.984,2.28-9.404c1.042-3.421,2.324-6.934,3.847-10.546c0.757-1.71,2.467-6.457,5.13-14.25
		c2.658-7.788,5.793-17.002,9.405-27.645c3.607-10.639,7.41-21.945,11.4-33.915c3.99-11.97,7.74-23.13,11.258-33.487
		c3.513-10.354,6.412-19.14,8.692-26.362c2.28-7.219,3.607-11.303,3.99-12.256c0.949-3.036,1.804-6.078,2.565-9.119
		C570.21,82.766,571.635,81.242,573.729,81.242z M544.088,204.362c-0.383,0.57,0.093,0.997,1.425,1.282
		c1.327,0.285,3.135,0.383,5.415,0.285c2.28-0.094,4.938-0.236,7.98-0.428c3.037-0.187,6.172-0.472,9.405-0.854
		c6.648-0.57,12.442-1.091,17.385-1.567c4.938-0.473,7.219-1.091,6.84-1.853c-1.71-9.69-3.469-19.237-5.272-28.643
		c-1.808-9.405-3.563-17.813-5.272-25.223s-3.326-13.439-4.845-18.098c-1.523-4.653-2.757-6.982-3.705-6.982
		c-1.14,0-2.806,2.565-4.987,7.695c-2.187,5.13-4.658,11.641-7.41,19.522c-2.756,7.887-5.606,16.672-8.55,26.362
		C549.548,185.553,546.747,195.056,544.088,204.362z"/>
	<path fill="#FFFFFF" d="M653.81,87.513c-0.191-1.71,0.093-3.037,0.854-3.99c0.758-0.948,1.755-1.661,2.993-2.138
		c1.233-0.472,2.565-0.806,3.989-0.997c1.426-0.188,2.895-0.473,4.418-0.855c0.949-0.187,3.371-0.329,7.268-0.428
		c3.893-0.093,8.501,0.384,13.822,1.426c5.317,1.046,10.973,2.898,16.957,5.557c5.986,2.663,11.4,6.511,16.246,11.543
		c4.845,5.036,8.785,11.592,11.827,19.665c3.037,8.078,4.368,18.098,3.989,30.067c-0.569,13.302-2.328,24.323-5.271,33.06
		c-2.948,8.742-6.697,15.867-11.258,21.375c-4.561,5.514-9.646,9.646-15.248,12.398c-5.605,2.756-11.164,4.702-16.672,5.842
		c-1.332,0.383-1.809,0.713-1.426,0.998c0.379,0.285,0.855,0.712,1.426,1.282c4.561,4.182,9.262,8.407,14.107,12.683
		c4.845,4.274,9.307,8.122,13.395,11.542c4.084,3.42,7.598,6.319,10.545,8.692c2.943,2.379,4.797,3.848,5.559,4.418
		c1.326,0.953,1.945,2.423,1.852,4.418c-0.098,1.994-0.619,3.896-1.567,5.699c-0.952,1.809-2.28,3.233-3.989,4.275
		c-1.711,1.042-3.42,1.185-5.131,0.428c-1.14-0.383-3.705-2.423-7.695-6.128c-3.989-3.705-8.549-8.122-13.68-13.252
		c-5.13-5.131-10.451-10.496-15.959-16.103c-5.514-5.603-10.358-10.403-14.535-14.393c-0.953-0.949-1.617-1.327-1.996-1.141
		c-0.383,0.191-0.668,0.383-0.854,0.57c-0.569,0.57-0.953,2.992-1.14,7.268c-0.191,4.275-0.383,8.978-0.57,14.107
		c-0.191,5.13-0.383,9.975-0.57,14.535c-0.191,4.56-0.57,7.41-1.14,8.55c-0.953,2.472-2.663,3.945-5.13,4.418
		c-2.472,0.476-4.182-0.33-5.13-2.423c-0.57-1.14-0.997-3.514-1.282-7.125c-0.285-3.607-0.477-9.022-0.57-16.245
		c-0.098-7.219-0.049-16.432,0.143-27.645c0.187-11.209,0.472-24.982,0.854-41.325c0.188-10.26,0.379-20.378,0.57-30.353
		c0.187-9.976,0.285-19.14,0.285-27.503c0-8.358,0-15.483,0-21.375C654.095,93.025,653.996,89.223,653.81,87.513z M665.494,101.192
		c0,0.57,0.045,3.375,0.143,8.407c0.094,5.037,0.188,11.213,0.285,18.525c0.094,7.316,0.188,15.154,0.285,23.513
		c0.094,8.362,0.236,16.151,0.428,23.37c0.187,7.223,0.329,13.301,0.428,18.239c0.093,4.943,0.143,7.602,0.143,7.98
		c0,0.569,0.044,1.331,0.143,2.28c0.093,0.952,0.284,1.808,0.569,2.564c0.285,0.762,0.806,1.425,1.567,1.995
		c0.758,0.57,1.896,0.762,3.42,0.57c0.949-0.188,2.895-0.428,5.843-0.713c2.943-0.285,6.271-0.997,9.976-2.138
		c3.704-1.14,7.646-2.943,11.826-5.415c4.178-2.467,7.98-5.842,11.4-10.117s6.271-9.641,8.551-16.103
		c2.279-6.457,3.514-14.438,3.705-23.94c0-9.307-1.047-17.145-3.136-23.512c-2.093-6.364-4.894-11.494-8.407-15.391
		c-3.518-3.892-7.316-6.84-11.4-8.835c-4.088-1.995-8.078-3.42-11.97-4.274c-3.896-0.855-7.41-1.283-10.545-1.283
		c-3.136,0-5.272,0-6.413,0c-3.803,0-5.891,0.334-6.27,0.998C665.682,98.583,665.494,99.674,665.494,101.192z"/>
	<path fill="#FFFFFF" d="M762.106,86.087c0.379-0.378,2.467-0.757,6.271-1.14c3.798-0.379,8.407-0.757,13.822-1.14
		c5.415-0.379,11.302-0.713,17.67-0.998c6.363-0.285,12.255-0.472,17.67-0.569c5.415-0.094,10.068-0.094,13.965,0
		c3.893,0.098,6.128,0.334,6.697,0.712c1.71,1.332,3.037,3.327,3.99,5.985c0.948,2.663,0.188,4.845-2.28,6.555
		c-1.331,0.953-3.184,1.475-5.557,1.567c-2.379,0.099-4.895,0.191-7.553,0.285c-2.663,0.098-5.18,0.334-7.553,0.713
		c-2.378,0.383-4.23,1.237-5.558,2.564c-0.57,0.57-1.046,3.376-1.425,8.408c-0.383,5.036-0.619,11.399-0.713,19.095
		c-0.098,7.695-0.098,16.437,0,26.22c0.094,9.788,0.188,19.763,0.285,29.925c0.094,10.167,0.188,20.142,0.285,29.926
		c0.094,9.787,0.143,18.573,0.143,26.362c0,7.793-0.098,14.205-0.285,19.237c-0.191,5.036-0.477,7.936-0.854,8.692
		c-1.71,3.042-4.089,4.467-7.125,4.275c-3.042-0.188-5.415-1.042-7.125-2.565c-0.384-0.379-0.619-3.086-0.713-8.122
		c-0.098-5.032-0.049-11.494,0.143-19.38c0.187-7.883,0.472-16.86,0.854-26.933c0.379-10.069,0.758-20.329,1.141-30.78
		c0.378-10.447,0.712-20.707,0.997-30.78c0.285-10.068,0.428-19.046,0.428-26.933c0-7.882-0.143-14.294-0.428-19.237
		c-0.285-4.938-0.811-7.597-1.567-7.979c-1.522-0.57-4.039-0.758-7.553-0.57c-3.518,0.191-7.174,0.428-10.973,0.713
		c-3.803,0.284-7.316,0.525-10.545,0.712c-3.232,0.191-5.415-0.187-6.555-1.14c-2.093-1.71-2.948-4.133-2.564-7.268
		C759.92,89.365,760.775,87.228,762.106,86.087z"/>
</g>
</svg>
