<?xml version="1.0" encoding="utf-8"?>
<!-- Generator: Adobe Illustrator 16.0.0, SVG Export Plug-In . SVG Version: 6.00 Build 0)  -->
<!DOCTYPE svg PUBLIC "-//W3C//DTD SVG 1.1//EN" "http://www.w3.org/Graphics/SVG/1.1/DTD/svg11.dtd">
<svg version="1.1" id="Calque_1" xmlns="http://www.w3.org/2000/svg" xmlns:xlink="http://www.w3.org/1999/xlink" x="0px" y="0px"
	 width="502px" height="444px" viewBox="0 0 502 444" enable-background="new 0 0 502 444" xml:space="preserve">
<path fill="#092754" d="M502,356.394C502,404.777,462.777,444,414.395,444H87.606C39.223,444,0,404.777,0,356.394V87.606
	C0,39.223,39.223,0,87.606,0h326.789C462.777,0,502,39.223,502,87.606V356.394z"/>
<g>
	<defs>
		<rect id="SVGID_1_" x="50.173" y="23.173" width="401.654" height="401.654"/>
	</defs>
	<clipPath id="SVGID_2_">
		<use xlink:href="#SVGID_1_"  overflow="visible"/>
	</clipPath>
	<path clip-path="url(#SVGID_2_)" d="M427.246,224.009c0,97.489-79.03,176.519-176.519,176.519S74.209,321.498,74.209,224.009
		c0-97.488,79.03-176.518,176.518-176.518S427.246,126.521,427.246,224.009"/>
	<circle clip-path="url(#SVGID_2_)" fill="none" stroke="#000000" cx="250.728" cy="224.009" r="176.518"/>
	<path clip-path="url(#SVGID_2_)" fill="#5E5E5E" d="M426.203,221.944c0,94.129-77.665,170.436-173.472,170.436
		c-95.806,0-173.472-76.307-173.472-170.436c0-94.128,77.667-170.435,173.472-170.435
		C348.538,51.51,426.203,127.816,426.203,221.944"/>
	<ellipse clip-path="url(#SVGID_2_)" fill="none" stroke="#000000" cx="252.731" cy="221.944" rx="173.472" ry="170.436"/>
	<path clip-path="url(#SVGID_2_)" fill="#D2D2D2" d="M408.065,194.518c0,73.44-59.535,132.977-132.977,132.977
		c-73.44,0-132.975-59.536-132.975-132.977c0-73.441,59.535-132.977,132.975-132.977C348.53,61.541,408.065,121.077,408.065,194.518
		"/>
	<path clip-path="url(#SVGID_2_)" fill="#D2D2D2" d="M281.873,73.563c12.164,19.451-11.486,56.173-52.821,82.022
		c-41.336,25.849-84.706,31.037-96.869,11.586c-12.164-19.45,11.485-56.173,52.82-82.022
		C226.339,59.3,269.709,54.113,281.873,73.563"/>
	<path clip-path="url(#SVGID_2_)" fill="#D2D2D2" d="M260.537,137.573c12.163,19.451-11.486,56.173-52.821,82.022
		c-41.335,25.85-84.706,31.037-96.869,11.586c-12.164-19.45,11.485-56.173,52.821-82.021
		C205.003,123.31,248.373,118.123,260.537,137.573"/>
	<path clip-path="url(#SVGID_2_)" fill="#D2D2D2" d="M256.469,185.324c12.163,19.45-11.486,56.173-52.821,82.021
		c-41.336,25.851-84.706,31.037-96.869,11.586c-12.164-19.45,11.485-56.173,52.82-82.021
		C200.935,171.061,244.305,165.874,256.469,185.324"/>
	<path clip-path="url(#SVGID_2_)" fill="#D2D2D2" d="M296.097,205.644c12.164,19.451-11.485,56.173-52.821,82.021
		c-41.335,25.85-84.706,31.037-96.869,11.586c-12.164-19.45,11.485-56.173,52.821-82.021
		C240.563,191.381,283.934,186.193,296.097,205.644"/>
	<path clip-path="url(#SVGID_2_)" fill="#D2D2D2" d="M316.418,247.3c12.163,19.45-11.485,56.173-52.82,82.021
		c-41.336,25.851-84.707,31.036-96.87,11.586s11.485-56.173,52.821-82.021C260.885,233.036,304.254,227.85,316.418,247.3"/>
	<path clip-path="url(#SVGID_2_)" fill="#D2D2D2" d="M367.219,250.351c12.164,19.45-11.485,56.173-52.821,82.022
		c-41.335,25.85-84.705,31.036-96.869,11.586c-12.164-19.45,11.485-56.173,52.821-82.022
		C311.686,236.087,355.056,230.9,367.219,250.351"/>
	<path clip-path="url(#SVGID_2_)" fill="#D2D2D2" d="M323.97,341.925c-10.052,20.621-53.728,20.021-97.55-1.342
		c-43.823-21.362-71.201-55.397-61.149-76.019c10.052-20.62,53.727-20.02,97.55,1.343
		C306.644,287.27,334.021,321.304,323.97,341.925"/>
	<path clip-path="url(#SVGID_2_)" fill="#D2D2D2" d="M362.581,320.589c-10.051,20.62-53.727,20.02-97.549-1.343
		c-43.824-21.362-71.202-55.396-61.15-76.018c10.052-20.621,53.726-20.021,97.549,1.342
		C345.256,265.933,372.634,299.968,362.581,320.589"/>
	<path clip-path="url(#SVGID_2_)" fill="#D2D2D2" d="M384.936,294.174c-10.052,20.621-53.728,20.021-97.55-1.342
		c-43.824-21.363-71.201-55.397-61.149-76.019c10.052-20.62,53.727-20.02,97.55,1.343S394.987,273.554,384.936,294.174"/>
	<path clip-path="url(#SVGID_2_)" fill="#D2D2D2" d="M407.289,259.63c-10.052,20.621-53.727,20.021-97.55-1.342
		c-43.823-21.363-71.202-55.397-61.149-76.019c10.052-20.621,53.727-20.02,97.55,1.343S417.341,239.01,407.289,259.63"/>
	<path clip-path="url(#SVGID_2_)" fill="#5E5E5E" d="M166.273,219.637c-3.749,9.729-2.667,22.14,3.997,33.043
		c10.327,16.892,29.971,23.712,43.846,15.227c13.883-8.477,16.771-29.074,6.451-45.965c-2.681-4.374-6.009-8.022-9.673-10.961
		c1.146,1.309,2.227,2.71,3.172,4.254c8.193,13.399,4.937,30.341-7.269,37.801c-12.204,7.461-28.74,2.618-36.934-10.782
		C165.455,235.042,164.452,226.862,166.273,219.637"/>
	<path clip-path="url(#SVGID_2_)" fill="#5E5E5E" d="M259.492,237.503c-1.039-3.194-1.864-6.558-2.184-10.157
		c-1.657-18.996,8.329-35.404,22.297-36.62c13.968-1.224,26.636,13.193,28.299,32.189c0.028,0.391-0.014,0.754,0.008,1.139
		c1.017-3.763,1.464-7.781,1.095-11.941c-1.536-17.604-15.945-30.732-32.146-29.316c-16.202,1.415-28.107,16.855-26.572,34.451
		C250.993,225.284,254.478,232.289,259.492,237.503z"/>
	<path clip-path="url(#SVGID_2_)" fill="#5E5E5E" d="M269.698,295.765c-0.398,2.084-0.975,4.196-1.906,6.266
		c-4.943,10.939-15.726,16.7-24.075,12.859c-8.342-3.847-11.095-15.832-6.159-26.771c0.1-0.22,0.242-0.404,0.348-0.626
		c-1.75,1.736-3.243,3.791-4.331,6.188c-4.573,10.135-0.427,21.977,9.252,26.429c9.68,4.459,21.259-0.149,25.832-10.284
		C270.75,305.203,270.936,300.239,269.698,295.765z"/>
	<path clip-path="url(#SVGID_2_)" fill="#5E5E5E" d="M354.347,195.661c1.607-0.618,3.278-1.073,5.021-1.138
		c9.218-0.349,16.358,7.78,15.945,18.15c-0.404,10.362-8.215,19.046-17.425,19.396c-0.185,0.006-0.355-0.044-0.548-0.044
		c1.736,0.925,3.621,1.437,5.64,1.358c8.542-0.32,15.854-10.348,16.323-22.374c0.476-12.026-6.066-21.529-14.601-21.202
		C360.805,189.957,357.206,192.204,354.347,195.661z"/>
	<path clip-path="url(#SVGID_2_)" fill="#5E5E5E" d="M257.473,93.545c-1.067-2.838-1.743-5.683-1.516-8.463
		c1.216-14.658,21.379-21.799,44.998-15.953c23.62,5.846,41.771,22.474,40.555,37.132c-0.021,0.299-0.178,0.541-0.22,0.833
		c2.495-2.254,4.081-4.972,4.345-8.18c1.131-13.577-20.206-30.105-47.602-36.89c-27.396-6.785-50.561-1.273-51.691,12.304
		C245.83,80.53,250.182,87.321,257.473,93.545"/>
	<path clip-path="url(#SVGID_2_)" fill="#5E5E5E" d="M208.483,98.367c2.233,2.517,4.332,5.271,6.052,8.449
		c9.104,16.756,6.487,35.782-5.838,42.474c-12.319,6.692-29.687-1.48-38.79-18.236c-0.185-0.341-0.285-0.697-0.462-1.039
		c0.569,3.862,1.763,7.717,3.762,11.387c8.428,15.526,26.877,21.828,41.173,14.062c14.288-7.76,19.053-26.664,10.618-42.19
		C221.15,106.183,215.162,101.148,208.483,98.367"/>
</g>
</svg>
