<?xml version="1.0" encoding="utf-8"?>
<!-- Generator: Adobe Illustrator 16.0.0, SVG Export Plug-In . SVG Version: 6.00 Build 0)  -->
<!DOCTYPE svg PUBLIC "-//W3C//DTD SVG 1.1//EN" "http://www.w3.org/Graphics/SVG/1.1/DTD/svg11.dtd">
<svg version="1.1" id="Calque_1" xmlns="http://www.w3.org/2000/svg" xmlns:xlink="http://www.w3.org/1999/xlink" x="0px" y="0px"
	 width="502px" height="443.999px" viewBox="0 0 502 443.999" enable-background="new 0 0 502 443.999" xml:space="preserve">
<path fill="#03BCF4" d="M502,356.394c0,48.383-39.223,87.605-87.605,87.605H87.607C39.225,443.999,0,404.776,0,356.394V87.606
	C0,39.223,39.225,0,87.607,0h326.787C462.777,0,502,39.223,502,87.606V356.394z"/>
<g>
	<rect x="65.886" y="183.747" fill="#D5675C" width="367.516" height="147.008"/>
	<rect x="161.89" y="306.753" fill="#BBD9C1" width="30" height="6"/>
	<rect x="164.89" y="275.255" fill="#B3E2EC" width="24.002" height="31.498"/>
	<rect x="164.89" y="290.253" fill="#67838E" width="24.002" height="1.498"/>
	<rect x="164.89" y="305.255" fill="#67838E" width="24.002" height="1.498"/>
	<rect x="235.393" y="306.753" fill="#BBD9C1" width="28.502" height="6"/>
	<rect x="236.894" y="275.255" fill="#B3E2EC" width="25.5" height="31.498"/>
	<rect x="236.894" y="290.253" fill="#67838E" width="25.5" height="1.498"/>
	<rect x="236.894" y="305.255" fill="#67838E" width="25.5" height="1.498"/>
	<rect x="308.896" y="306.753" fill="#BBD9C1" width="28.502" height="6"/>
	<rect x="311.898" y="275.255" fill="#B3E2EC" width="24" height="31.498"/>
	<rect x="311.898" y="290.253" fill="#67838E" width="23.998" height="1.498"/>
	<rect x="311.898" y="305.255" fill="#67838E" width="23.998" height="1.498"/>
	<rect x="382.4" y="306.753" fill="#BBD9C1" width="30" height="6"/>
	<rect x="385.4" y="275.255" fill="#B3E2EC" width="25.5" height="31.498"/>
	<rect x="385.4" y="290.253" fill="#67838E" width="25.5" height="1.498"/>
	<rect x="86.887" y="306.753" fill="#BBD9C1" width="28.503" height="6"/>
	<rect x="88.386" y="275.255" fill="#B3E2EC" width="25.501" height="31.498"/>
	<rect x="88.386" y="290.253" fill="#67838E" width="25.501" height="1.498"/>
	<rect x="88.386" y="305.255" fill="#67838E" width="25.501" height="1.498"/>
	<rect x="161.89" y="234.75" fill="#BBD9C1" width="30" height="3"/>
	<rect x="164.89" y="201.749" fill="#B3E2EC" width="24.002" height="33.001"/>
	<rect x="164.89" y="216.75" fill="#67838E" width="24.002" height="1.5"/>
	<rect x="164.89" y="231.75" fill="#67838E" width="24.002" height="3"/>
	<rect x="235.393" y="234.75" fill="#BBD9C1" width="28.502" height="3"/>
	<rect x="236.894" y="201.749" fill="#B3E2EC" width="25.5" height="33.001"/>
	<rect x="236.894" y="216.75" fill="#67838E" width="25.5" height="1.5"/>
	<rect x="236.894" y="231.75" fill="#67838E" width="25.5" height="3"/>
	<rect x="308.896" y="234.75" fill="#BBD9C1" width="28.502" height="3"/>
	<rect x="311.898" y="201.749" fill="#B3E2EC" width="24" height="33.001"/>
	<rect x="311.898" y="216.75" fill="#67838E" width="23.998" height="1.5"/>
	<rect x="311.898" y="231.75" fill="#67838E" width="24" height="3"/>
	<rect x="382.4" y="234.75" fill="#BBD9C1" width="30" height="3"/>
	<rect x="385.4" y="201.749" fill="#B3E2EC" width="25.5" height="33.001"/>
	<rect x="385.4" y="216.75" fill="#67838E" width="25.5" height="1.5"/>
	<rect x="385.4" y="231.75" fill="#67838E" width="25.5" height="3"/>
	<rect x="86.887" y="234.75" fill="#BBD9C1" width="28.503" height="3"/>
	<rect x="88.386" y="201.749" fill="#B3E2EC" width="25.501" height="33.001"/>
	<rect x="88.386" y="216.75" fill="#67838E" width="25.501" height="1.5"/>
	<rect x="88.386" y="231.75" fill="#67838E" width="25.501" height="3"/>
	<rect x="385.4" y="305.255" fill="#67838E" width="25.5" height="1.498"/>
	<rect x="263.895" y="258.751" fill="#C5544C" width="24" height="9"/>
	<rect x="280.394" y="275.255" fill="#C5544C" width="22.502" height="8.998"/>
	<rect x="347.898" y="201.749" fill="#C5544C" width="24.002" height="9"/>
	<rect x="280.394" y="195.749" fill="#C5544C" width="18.002" height="8.999"/>
	<rect x="125.889" y="210.749" fill="#C5544C" width="16.501" height="9.001"/>
	<rect x="136.39" y="228.75" fill="#C5544C" width="18" height="9"/>
	<rect x="125.889" y="302.251" fill="#C5544C" width="16.501" height="10.502"/>
	<polygon fill="#5D617A" points="60.066,185.663 65.359,113.245 434.803,113.245 441.934,184.922 	"/>
	<rect x="320.896" y="167.247" fill="#BBD9C1" width="51.004" height="4.5"/>
	<rect x="326.898" y="128.245" fill="#D96565" width="40.5" height="39.002"/>
	<rect x="332.898" y="134.246" fill="#67838E" width="28.5" height="33.001"/>
	<rect x="332.898" y="134.246" fill="#B3E2EC" width="28.5" height="1.5"/>
	<rect x="332.898" y="138.746" fill="#B3E2EC" width="28.5" height="1.5"/>
	<rect x="332.898" y="144.746" fill="#B3E2EC" width="28.5" height="2.999"/>
	<rect x="332.898" y="150.745" fill="#B3E2EC" width="28.5" height="1.502"/>
	<rect x="332.898" y="155.246" fill="#B3E2EC" width="28.5" height="3"/>
	<rect x="332.898" y="162.746" fill="#B3E2EC" width="28.5" height="1.501"/>
	<rect x="221.894" y="165.747" fill="#BBD9C1" width="51.001" height="3"/>
	<rect x="226.395" y="126.745" fill="#D96565" width="42.001" height="39.002"/>
	<rect x="233.894" y="129.746" fill="#67838E" width="28.5" height="36.001"/>
	<rect x="233.894" y="129.746" fill="#B3E2EC" width="28.5" height="4.5"/>
	<rect x="233.894" y="137.246" fill="#B3E2EC" width="28.5" height="1.5"/>
	<rect x="233.894" y="141.746" fill="#B3E2EC" width="28.5" height="3"/>
	<rect x="233.894" y="149.245" fill="#B3E2EC" width="28.5" height="1.5"/>
	<rect x="233.894" y="153.746" fill="#B3E2EC" width="28.5" height="1.5"/>
	<rect x="233.894" y="161.246" fill="#B3E2EC" width="28.5" height="1.5"/>
	<rect x="125.889" y="165.747" fill="#BBD9C1" width="49.502" height="3"/>
	<rect x="130.39" y="126.745" fill="#D96565" width="40.5" height="39.002"/>
	<rect x="136.39" y="129.746" fill="#67838E" width="30.001" height="36.001"/>
	<rect x="136.39" y="129.746" fill="#B3E2EC" width="30.001" height="4.5"/>
	<rect x="136.39" y="137.246" fill="#B3E2EC" width="30.001" height="1.5"/>
	<rect x="136.39" y="141.746" fill="#B3E2EC" width="30.001" height="3"/>
	<rect x="136.39" y="149.245" fill="#B3E2EC" width="30.001" height="1.5"/>
	<rect x="136.39" y="153.746" fill="#B3E2EC" width="30.001" height="1.5"/>
	<rect x="136.39" y="161.246" fill="#B3E2EC" width="30.001" height="1.5"/>
</g>
<path opacity="0.6" fill="#BCCFD3" d="M502,356.394c0,48.383-39.223,87.605-87.605,87.605H87.607
	C39.225,443.999,0,404.776,0,356.394V87.606C0,39.223,39.225,0,87.607,0h326.787C462.777,0,502,39.223,502,87.606V356.394z"/>
</svg>
