<?xml version="1.0" encoding="utf-8"?>
<!-- Generator: Adobe Illustrator 16.0.0, SVG Export Plug-In . SVG Version: 6.00 Build 0)  -->
<!DOCTYPE svg PUBLIC "-//W3C//DTD SVG 1.1//EN" "http://www.w3.org/Graphics/SVG/1.1/DTD/svg11.dtd">
<svg version="1.1" id="Calque_1" xmlns="http://www.w3.org/2000/svg" xmlns:xlink="http://www.w3.org/1999/xlink" x="0px" y="0px"
	 width="502px" height="444px" viewBox="0 0 502 444" enable-background="new 0 0 502 444" xml:space="preserve">
<path fill="#03BCF4" d="M502,356.394C502,404.777,462.777,444,414.395,444H87.606C39.223,444,0,404.777,0,356.394V87.606
	C0,39.223,39.223,0,87.606,0h326.789C462.777,0,502,39.223,502,87.606V356.394z"/>
<path fill="#EDF8FC" d="M394.037,220.438c-1.115,0-2.205,0.098-3.301,0.166c0.221-2.266,0.346-4.56,0.346-6.883
	c0-38.46-31.177-69.637-69.635-69.637c-12.428,0-24.072,3.294-34.172,8.999c-9.979-34.694-41.927-60.084-79.832-60.084
	c-45.885,0-83.081,37.197-83.081,83.081c0,4.379,0.343,8.681,0.999,12.877c-1.578-0.115-3.154-0.241-4.761-0.241
	c-35.935,0-65.067,29.131-65.067,65.066c0,35.935,29.133,65.063,65.067,65.063c12.437,0,24.019-3.551,33.899-9.604
	c13.521,24.873,39.88,41.762,70.182,41.762c29.208,0,54.739-15.697,68.653-39.107c5.716,12.35,18.181,20.934,32.681,20.934
	c14.861,0,27.616-9.002,33.124-21.848c9.272,8.211,21.476,13.246,34.897,13.246c28.957,0,52.43-23.234,52.43-51.895
	S422.994,220.438,394.037,220.438z"/>
</svg>
