<?xml version="1.0" encoding="utf-8"?>
<!-- Generator: Adobe Illustrator 16.0.0, SVG Export Plug-In . SVG Version: 6.00 Build 0)  -->
<!DOCTYPE svg PUBLIC "-//W3C//DTD SVG 1.1//EN" "http://www.w3.org/Graphics/SVG/1.1/DTD/svg11.dtd">
<svg version="1.1" id="Calque_1" xmlns="http://www.w3.org/2000/svg" xmlns:xlink="http://www.w3.org/1999/xlink" x="0px" y="0px"
	 width="502px" height="444px" viewBox="0 0 502 444" enable-background="new 0 0 502 444" xml:space="preserve">
<path fill="#092754" d="M502,356.4c0,48.4-39.2,87.6-87.6,87.6H87.6C39.2,444,0,404.8,0,356.4V87.6C0,39.2,39.2,0,87.6,0h326.8
	C462.8,0,502,39.2,502,87.6V356.4z"/>
<g display="none">
	<g display="inline">
		<defs>
			<rect id="SVGID_1_" x="50.2" y="23.2" width="401.7" height="401.7"/>
		</defs>
		<clipPath id="SVGID_2_">
			<use xlink:href="#SVGID_1_"  overflow="visible"/>
		</clipPath>
		<path clip-path="url(#SVGID_2_)" d="M427.2,224c0,97.5-79,176.5-176.5,176.5c-97.5,0-176.5-79-176.5-176.5s79-176.5,176.5-176.5
			C348.2,47.5,427.2,126.5,427.2,224"/>
	</g>
	<g display="inline">
		<defs>
			<rect id="SVGID_3_" x="50.2" y="23.2" width="401.7" height="401.7"/>
		</defs>
		<clipPath id="SVGID_4_">
			<use xlink:href="#SVGID_3_"  overflow="visible"/>
		</clipPath>
		<circle clip-path="url(#SVGID_4_)" fill="none" stroke="#000000" cx="250.7" cy="224" r="176.5"/>
	</g>
	<g display="inline">
		<defs>
			<rect id="SVGID_5_" x="50.2" y="23.2" width="401.7" height="401.7"/>
		</defs>
		<clipPath id="SVGID_6_">
			<use xlink:href="#SVGID_5_"  overflow="visible"/>
		</clipPath>
		<path clip-path="url(#SVGID_6_)" fill="#5E5E5E" d="M426.2,221.9c0,94.1-77.7,170.4-173.5,170.4S79.3,316.1,79.3,221.9
			c0-94.1,77.7-170.4,173.5-170.4C348.5,51.5,426.2,127.8,426.2,221.9"/>
	</g>
	<g display="inline">
		<defs>
			<rect id="SVGID_7_" x="50.2" y="23.2" width="401.7" height="401.7"/>
		</defs>
		<clipPath id="SVGID_8_">
			<use xlink:href="#SVGID_7_"  overflow="visible"/>
		</clipPath>
		<ellipse clip-path="url(#SVGID_8_)" fill="none" stroke="#000000" cx="252.7" cy="221.9" rx="173.5" ry="170.4"/>
	</g>
	<g display="inline">
		<defs>
			<rect id="SVGID_9_" x="50.2" y="23.2" width="401.7" height="401.7"/>
		</defs>
		<clipPath id="SVGID_10_">
			<use xlink:href="#SVGID_9_"  overflow="visible"/>
		</clipPath>
		<path clip-path="url(#SVGID_10_)" fill="#D2D2D2" d="M408.1,194.5c0,73.4-59.5,133-133,133c-73.4,0-133-59.5-133-133
			c0-73.4,59.5-133,133-133C348.5,61.5,408.1,121.1,408.1,194.5"/>
	</g>
	<g display="inline">
		<defs>
			<rect id="SVGID_11_" x="50.2" y="23.2" width="401.7" height="401.7"/>
		</defs>
		<clipPath id="SVGID_12_">
			<use xlink:href="#SVGID_11_"  overflow="visible"/>
		</clipPath>
		<path clip-path="url(#SVGID_12_)" fill="#D2D2D2" d="M281.9,73.6c12.2,19.5-11.5,56.2-52.8,82c-41.3,25.8-84.7,31-96.9,11.6
			c-12.2-19.5,11.5-56.2,52.8-82C226.3,59.3,269.7,54.1,281.9,73.6"/>
	</g>
	<g display="inline">
		<defs>
			<rect id="SVGID_13_" x="50.2" y="23.2" width="401.7" height="401.7"/>
		</defs>
		<clipPath id="SVGID_14_">
			<use xlink:href="#SVGID_13_"  overflow="visible"/>
		</clipPath>
		<path clip-path="url(#SVGID_14_)" fill="#D2D2D2" d="M260.5,137.6c12.2,19.5-11.5,56.2-52.8,82c-41.3,25.8-84.7,31-96.9,11.6
			c-12.2-19.5,11.5-56.2,52.8-82C205,123.3,248.4,118.1,260.5,137.6"/>
	</g>
	<g display="inline">
		<defs>
			<rect id="SVGID_15_" x="50.2" y="23.2" width="401.7" height="401.7"/>
		</defs>
		<clipPath id="SVGID_16_">
			<use xlink:href="#SVGID_15_"  overflow="visible"/>
		</clipPath>
		<path clip-path="url(#SVGID_16_)" fill="#D2D2D2" d="M256.5,185.3c12.2,19.4-11.5,56.2-52.8,82c-41.3,25.9-84.7,31-96.9,11.6
			c-12.2-19.5,11.5-56.2,52.8-82C200.9,171.1,244.3,165.9,256.5,185.3"/>
	</g>
	<g display="inline">
		<defs>
			<rect id="SVGID_17_" x="50.2" y="23.2" width="401.7" height="401.7"/>
		</defs>
		<clipPath id="SVGID_18_">
			<use xlink:href="#SVGID_17_"  overflow="visible"/>
		</clipPath>
		<path clip-path="url(#SVGID_18_)" fill="#D2D2D2" d="M296.1,205.6c12.2,19.5-11.5,56.2-52.8,82c-41.3,25.8-84.7,31-96.9,11.6
			c-12.2-19.5,11.5-56.2,52.8-82C240.6,191.4,283.9,186.2,296.1,205.6"/>
	</g>
	<g display="inline">
		<defs>
			<rect id="SVGID_19_" x="50.2" y="23.2" width="401.7" height="401.7"/>
		</defs>
		<clipPath id="SVGID_20_">
			<use xlink:href="#SVGID_19_"  overflow="visible"/>
		</clipPath>
		<path clip-path="url(#SVGID_20_)" fill="#D2D2D2" d="M316.4,247.3c12.2,19.5-11.5,56.2-52.8,82c-41.3,25.9-84.7,31-96.9,11.6
			s11.5-56.2,52.8-82C260.9,233,304.3,227.8,316.4,247.3"/>
	</g>
	<g display="inline">
		<defs>
			<rect id="SVGID_21_" x="50.2" y="23.2" width="401.7" height="401.7"/>
		</defs>
		<clipPath id="SVGID_22_">
			<use xlink:href="#SVGID_21_"  overflow="visible"/>
		</clipPath>
		<path clip-path="url(#SVGID_22_)" fill="#D2D2D2" d="M367.2,250.4c12.2,19.5-11.5,56.2-52.8,82c-41.3,25.9-84.7,31-96.9,11.6
			c-12.2-19.5,11.5-56.2,52.8-82S355.1,230.9,367.2,250.4"/>
	</g>
	<g display="inline">
		<defs>
			<rect id="SVGID_23_" x="50.2" y="23.2" width="401.7" height="401.7"/>
		</defs>
		<clipPath id="SVGID_24_">
			<use xlink:href="#SVGID_23_"  overflow="visible"/>
		</clipPath>
		<path clip-path="url(#SVGID_24_)" fill="#D2D2D2" d="M324,341.9c-10.1,20.6-53.7,20-97.6-1.3c-43.8-21.4-71.2-55.4-61.1-76
			c10.1-20.6,53.7-20,97.5,1.3C306.6,287.3,334,321.3,324,341.9"/>
	</g>
	<g display="inline">
		<defs>
			<rect id="SVGID_25_" x="50.2" y="23.2" width="401.7" height="401.7"/>
		</defs>
		<clipPath id="SVGID_26_">
			<use xlink:href="#SVGID_25_"  overflow="visible"/>
		</clipPath>
		<path clip-path="url(#SVGID_26_)" fill="#D2D2D2" d="M362.6,320.6c-10.1,20.6-53.7,20-97.5-1.3c-43.8-21.4-71.2-55.4-61.2-76
			c10.1-20.6,53.7-20,97.5,1.3C345.3,265.9,372.6,300,362.6,320.6"/>
	</g>
	<g display="inline">
		<defs>
			<rect id="SVGID_27_" x="50.2" y="23.2" width="401.7" height="401.7"/>
		</defs>
		<clipPath id="SVGID_28_">
			<use xlink:href="#SVGID_27_"  overflow="visible"/>
		</clipPath>
		<path clip-path="url(#SVGID_28_)" fill="#D2D2D2" d="M384.9,294.2c-10.1,20.6-53.7,20-97.5-1.3c-43.8-21.4-71.2-55.4-61.1-76
			c10.1-20.6,53.7-20,97.5,1.3C367.6,239.5,395,273.6,384.9,294.2"/>
	</g>
	<g display="inline">
		<defs>
			<rect id="SVGID_29_" x="50.2" y="23.2" width="401.7" height="401.7"/>
		</defs>
		<clipPath id="SVGID_30_">
			<use xlink:href="#SVGID_29_"  overflow="visible"/>
		</clipPath>
		<path clip-path="url(#SVGID_30_)" fill="#D2D2D2" d="M407.3,259.6c-10.1,20.6-53.7,20-97.5-1.3c-43.8-21.4-71.2-55.4-61.1-76
			c10.1-20.6,53.7-20,97.6,1.3C390,205,417.3,239,407.3,259.6"/>
	</g>
	<g display="inline">
		<defs>
			<rect id="SVGID_31_" x="50.2" y="23.2" width="401.7" height="401.7"/>
		</defs>
		<clipPath id="SVGID_32_">
			<use xlink:href="#SVGID_31_"  overflow="visible"/>
		</clipPath>
		<path clip-path="url(#SVGID_32_)" fill="#5E5E5E" d="M166.3,219.6c-3.7,9.7-2.7,22.1,4,33c10.3,16.9,30,23.7,43.8,15.2
			c13.9-8.5,16.8-29.1,6.5-46c-2.7-4.4-6-8-9.7-11c1.1,1.3,2.2,2.7,3.2,4.3c8.2,13.4,4.9,30.3-7.3,37.8
			c-12.2,7.5-28.7,2.6-36.9-10.8C165.5,235,164.5,226.9,166.3,219.6"/>
	</g>
	<g display="inline">
		<defs>
			<rect id="SVGID_33_" x="50.2" y="23.2" width="401.7" height="401.7"/>
		</defs>
		<clipPath id="SVGID_34_">
			<use xlink:href="#SVGID_33_"  overflow="visible"/>
		</clipPath>
		<path clip-path="url(#SVGID_34_)" fill="#5E5E5E" d="M259.5,237.5c-1-3.2-1.9-6.6-2.2-10.2c-1.7-19,8.3-35.4,22.3-36.6
			c14-1.2,26.6,13.2,28.3,32.2c0,0.4,0,0.8,0,1.1c1-3.8,1.5-7.8,1.1-11.9c-1.5-17.6-15.9-30.7-32.1-29.3
			c-16.2,1.4-28.1,16.9-26.6,34.5C251,225.3,254.5,232.3,259.5,237.5z"/>
	</g>
	<g display="inline">
		<defs>
			<rect id="SVGID_35_" x="50.2" y="23.2" width="401.7" height="401.7"/>
		</defs>
		<clipPath id="SVGID_36_">
			<use xlink:href="#SVGID_35_"  overflow="visible"/>
		</clipPath>
		<path clip-path="url(#SVGID_36_)" fill="#5E5E5E" d="M269.7,295.8c-0.4,2.1-1,4.2-1.9,6.3c-4.9,10.9-15.7,16.7-24.1,12.9
			c-8.3-3.8-11.1-15.8-6.2-26.8c0.1-0.2,0.2-0.4,0.3-0.6c-1.8,1.7-3.2,3.8-4.3,6.2c-4.6,10.1-0.4,22,9.3,26.4
			c9.7,4.5,21.3-0.1,25.8-10.3C270.7,305.2,270.9,300.2,269.7,295.8z"/>
	</g>
	<g display="inline">
		<defs>
			<rect id="SVGID_37_" x="50.2" y="23.2" width="401.7" height="401.7"/>
		</defs>
		<clipPath id="SVGID_38_">
			<use xlink:href="#SVGID_37_"  overflow="visible"/>
		</clipPath>
		<path clip-path="url(#SVGID_38_)" fill="#5E5E5E" d="M354.3,195.7c1.6-0.6,3.3-1.1,5-1.1c9.2-0.3,16.4,7.8,15.9,18.2
			c-0.4,10.4-8.2,19-17.4,19.4c-0.2,0-0.4,0-0.5,0c1.7,0.9,3.6,1.4,5.6,1.4c8.5-0.3,15.9-10.3,16.3-22.4c0.5-12-6.1-21.5-14.6-21.2
			C360.8,190,357.2,192.2,354.3,195.7z"/>
	</g>
	<g display="inline">
		<defs>
			<rect id="SVGID_39_" x="50.2" y="23.2" width="401.7" height="401.7"/>
		</defs>
		<clipPath id="SVGID_40_">
			<use xlink:href="#SVGID_39_"  overflow="visible"/>
		</clipPath>
		<path clip-path="url(#SVGID_40_)" fill="#5E5E5E" d="M257.5,93.5c-1.1-2.8-1.7-5.7-1.5-8.5c1.2-14.7,21.4-21.8,45-16
			c23.6,5.8,41.8,22.5,40.6,37.1c0,0.3-0.2,0.5-0.2,0.8c2.5-2.3,4.1-5,4.3-8.2c1.1-13.6-20.2-30.1-47.6-36.9
			c-27.4-6.8-50.6-1.3-51.7,12.3C245.8,80.5,250.2,87.3,257.5,93.5"/>
	</g>
	<g display="inline">
		<defs>
			<rect id="SVGID_41_" x="50.2" y="23.2" width="401.7" height="401.7"/>
		</defs>
		<clipPath id="SVGID_42_">
			<use xlink:href="#SVGID_41_"  overflow="visible"/>
		</clipPath>
		<path clip-path="url(#SVGID_42_)" fill="#5E5E5E" d="M208.5,98.4c2.2,2.5,4.3,5.3,6.1,8.4c9.1,16.8,6.5,35.8-5.8,42.5
			c-12.3,6.7-29.7-1.5-38.8-18.2c-0.2-0.3-0.3-0.7-0.5-1c0.6,3.9,1.8,7.7,3.8,11.4c8.4,15.5,26.9,21.8,41.2,14.1
			c14.3-7.8,19.1-26.7,10.6-42.2C221.2,106.2,215.2,101.1,208.5,98.4"/>
	</g>
</g>
<path fill="#092754" enable-background="new    " d="M502,356.4c0,48.4-39.2,87.6-87.6,87.6H87.6C39.2,444,0,404.8,0,356.4V87.6
	C0,39.2,39.2,0,87.6,0h326.8C462.8,0,502,39.2,502,87.6V356.4z"/>
<g id="g846" transform="rotate(136.41 289.51 253.33)">
	<path id="path671" fill="#FF4000" d="M302.2,373.5c0,0,7.1,20.9,15.1,38.6c8,17.6,22.1,26.2,24,26.2c1.9,0,3.8-10,3.3-15.7
		c-0.5-5.7-13.7-17.1,9,1c22.6,18.1,38.6,25.7,37.2,19.5c2.4-15.2-24-47.1-7.1-41.4c17,5.7,45.7,19,27.8-1.9
		c-17.9-20.9-36.3-30.5-20.7-30c15.5,0.5,30.6,7.6,23.1-6.2c-7.5-13.8-43.8-35.3-59.3-44.3C342.3,325.4,318.3,341.6,302.2,373.5
		L302.2,373.5z"/>
	<g>
		<path id="path672" fill="#FFFF33" fill-opacity="0.696" d="M309.3,361.9c0,0,5.2,24.9,10.8,32.4c5.6,7.5,7,6.6,8.4-3.8
			c1.4-10.3-8.4-20.6,8.4-9.4c16.9,11.3,31.4,25.3,23,8c-8.4-17.4-10.8-21.6,0.9-15.5c11.7,6.1,23,10.8,8.9-6.1
			c-10.8-12.2,10.8-15.5,14.5-16.9c8.9,1.4-38-24.9-42.7-24.9C336.5,326.7,311.2,358.2,309.3,361.9L309.3,361.9z"/>
		<g>
			<g>
				<path id="path663" fill="#D9D9D9" stroke="#000000" stroke-width="10" stroke-linejoin="round" d="M162,191.1
					c43.6,0.9,153.9,18.8,196.1,127.1c-14.5,2.8-50.2,37.5-55.8,56.8C194.8,320.2,164.3,233.4,162,191.1L162,191.1z"/>
				<g>
					<path id="path664" fill="#BFBFBF" stroke="#000000" stroke-width="10" stroke-linejoin="round" d="M242.7,335.6
						c0,0,1.9,47.9,1.9,48.3c0,0.5,57.7,26.7,61,28.2l-2.8-37.5C297.5,375.1,251.6,345.5,242.7,335.6L242.7,335.6z"/>
					<path id="path665" fill="#BFBFBF" stroke="#000000" stroke-width="10" stroke-linejoin="round" d="M320.7,257.7
						c0,0,47.3,2.1,47.8,2.1c0.5,0,25.3,58.3,26.6,61.7l-37.5-3.7C352.7,299.4,331.8,268.7,320.7,257.7L320.7,257.7z"/>
					<path id="path666" fill="#BFBFBF" stroke="#000000" stroke-width="10" stroke-linejoin="round" d="M282.3,290.2
						c0,0,7.9,18.9,9.2,22c1.6,2.1,42.9,35.8,46,37.7l-1.8-12C331.3,333.6,293.2,300.2,282.3,290.2L282.3,290.2z"/>
					<path id="path667" fill="#BFBFBF" stroke="#000000" stroke-width="10" stroke-linejoin="round" d="M280.8,289.8l-9.3,13.4
						L283,323l47.5,37.5l6.9-10.3l-45.4-38.3L280.8,289.8L280.8,289.8z"/>
				</g>
			</g>
			<path id="path668" fill="#BFBFBF" stroke="#000000" stroke-width="12.5" stroke-linejoin="round" d="M221.1,246.5
				c-16,21.6,16.9,48.3,32.4,29.1C272.2,252.1,239.8,229.6,221.1,246.5z"/>
			<path id="path669" fill="#AEFFFF" stroke="#000000" stroke-width="10" stroke-linejoin="round" d="M225.3,248.8
				c11.7-11.3,38.9,2.3,26.7,22.5C238.4,288.7,210.8,266.7,225.3,248.8z"/>
		</g>
		<path id="path670" fill="#FFFFFF" fill-opacity="0.75" d="M234.2,248.3c-3.8,2.6-13.8,10.9-5.6,20.7
			C235.6,270.9,245.5,249.3,234.2,248.3z"/>
	</g>
</g>
</svg>
