<?xml version="1.0" encoding="utf-8"?>
<!-- Generator: Adobe Illustrator 16.0.3, SVG Export Plug-In . SVG Version: 6.00 Build 0)  -->
<!DOCTYPE svg PUBLIC "-//W3C//DTD SVG 1.1//EN" "http://www.w3.org/Graphics/SVG/1.1/DTD/svg11.dtd">
<svg version="1.1" id="Calque_2" xmlns="http://www.w3.org/2000/svg" xmlns:xlink="http://www.w3.org/1999/xlink" x="0px" y="0px"
	 width="550px" height="275px" viewBox="0 0 550 275" enable-background="new 0 0 550 275" xml:space="preserve">
<rect x="40.5" y="180.5" fill="#684E2E" stroke="#000000" stroke-width="2" stroke-miterlimit="10" width="469" height="55"/>
<polygon fill="#684E2E" stroke="#000000" stroke-width="2" stroke-miterlimit="10" points="27.5,274.5 5,274.5 5,75 40.5,75 
	40.5,236.5 "/>
<polygon fill="#684E2E" stroke="#000000" stroke-width="2" stroke-miterlimit="10" points="544.5,275 522.5,275 509.5,235.5 
	509.5,7 544.5,7 "/>
<rect x="504" fill="#684E2E" stroke="#000000" stroke-width="2" stroke-miterlimit="10" width="46" height="7"/>
<rect x="40.5" y="90.333" fill="#A1B5BB" stroke="#000000" stroke-width="2" stroke-miterlimit="10" width="362.166" height="90.167"/>
<path fill="#FBFBFC" stroke="#000000" stroke-width="2" stroke-miterlimit="10" d="M483.333,180.5h-80.667V84.333
	c0,0,60.501,0.166,70.667,0c6.5-0.166,10,4.667,10,10.333S483.333,180.5,483.333,180.5z"/>
<path fill="#FBFBFC" stroke="#000000" stroke-width="2" stroke-miterlimit="10" d="M505.667,138.64c-3.5,0-22.334,0-22.334,0V97.333
	c0,0,20.334,0.167,22.334,0c2.439-0.354,3.834,2.167,3.833,3.334c0,1.56,0,23.798,0,33.5
	C509.5,138.333,507.509,138.559,505.667,138.64z"/>
<path fill="none" stroke="#000000" stroke-width="2" stroke-miterlimit="10" d="M505.667,179.98c-3.5,0-22.334,0-22.334,0v-41.307
	c0,0,20.334,0.166,22.334,0c2.439-0.354,3.834,2.166,3.833,3.334c0,1.559,0,23.797,0,33.5
	C509.5,179.674,507.509,179.898,505.667,179.98z"/>
<path fill="#FBFBFC" stroke="#000000" stroke-width="2" stroke-miterlimit="10" d="M367.833,90.13l3.667-2.63c4.5-64.5,66-66,66-66
	s2.25-7.75,7.5-3s-3,7.25-3,7.25c-3.75,57.5-54.75,65.583-65,64.25L367.833,90.13z"/>
<path fill="#FBFBFC" stroke="#000000" stroke-width="2" stroke-miterlimit="10" d="M426.167,84.296l3.98-2.855
	c4.885-70.017,71.646-71.645,71.646-71.645s5.64-5.52,8.142-3.257c5.699,5.156-3.257,7.87-3.257,7.87
	c-4.07,62.418-59.433,71.193-70.56,69.746L426.167,84.296z"/>
<rect y="68.5" fill="#684E2E" stroke="#000000" stroke-width="2" stroke-miterlimit="10" width="46" height="6.5"/>
<circle opacity="0.9" fill="#4B3723" stroke="#000000" stroke-width="2" stroke-miterlimit="10" cx="526.668" cy="198.333" r="4.667"/>
<circle opacity="0.9" fill="#4B3723" stroke="#000000" stroke-width="2" stroke-miterlimit="10" cx="527" cy="217" r="4.667"/>
<circle opacity="0.9" fill="#4B3723" stroke="#000000" stroke-width="2" stroke-miterlimit="10" cx="22.834" cy="199.666" r="4.667"/>
<circle opacity="0.9" fill="#4B3723" stroke="#000000" stroke-width="2" stroke-miterlimit="10" cx="23.166" cy="218.333" r="4.667"/>
</svg>
