<?xml version="1.0" encoding="utf-8"?>
<!-- Generator: Adobe Illustrator 16.0.3, SVG Export Plug-In . SVG Version: 6.00 Build 0)  -->
<!DOCTYPE svg PUBLIC "-//W3C//DTD SVG 1.1//EN" "http://www.w3.org/Graphics/SVG/1.1/DTD/svg11.dtd">
<svg version="1.1" xmlns="http://www.w3.org/2000/svg" xmlns:xlink="http://www.w3.org/1999/xlink" x="0px" y="0px"
	 width="161.529px" height="152.511px" viewBox="0 0 161.529 152.511" enable-background="new 0 0 161.529 152.511"
	 xml:space="preserve">
<g id="Calque_2">
	<ellipse fill="#85431D" cx="44.147" cy="15" rx="11.5" ry="12.667"/>
	<ellipse fill="#85431D" cx="116.646" cy="15" rx="11.5" ry="12.667"/>
	<path fill="#D49247" d="M50.585,10.567c-1.79-1.912-4.204-3.276-6.438-3.276c-4.257,0-7.708,3.451-7.708,7.708
		c0,2.85,2.443,5.73,5.334,7.324L50.585,10.567z"/>
	<path fill="#D49247" d="M119.584,21.692c2.35-1.16,4.354-3.077,4.999-5.215c1.231-4.075-1.074-8.377-5.15-9.608
		c-2.728-0.825-6.191,0.681-8.554,2.988L119.584,21.692z"/>
	<path fill="#85441D" d="M50.959,56.937"/>
	<path fill="#85441D" d="M50.959,56.937"/>
	<path fill="#85441D" d="M50.959,56.937c-11.313,0.438-25.188,15.188-27.063,35.688c0.076,4.973,1.361,8.723,3.816,10.961
		c-45.191-0.211-28.941,49.789,4.809,48.914c15.5-1.125,22.25-8.625,27.125-19.625c13.25,0,35.125,0.125,41.75,0
		c16.25,33.875,58.75,17,60.125-7.75c0.25-9.375-5.541-23.125-27.708-21.375c5.667-7.416,2.458-41.375-23.333-46.792l-0.015-2.473
		c6.131-5.78,9.848-13.357,9.848-21.652C120.313,14.7,102.554,0,80.646,0S40.98,14.7,40.98,32.833
		c0,8.358,3.773,15.986,9.987,21.782C50.967,54.616,51.021,55.25,50.959,56.937"/>
</g>
<g id="Calque_3">
	<ellipse fill="#D49247" cx="80.521" cy="47.519" rx="24.291" ry="15.75"/>
	<ellipse cx="80.647" cy="44.5" rx="8.875" ry="6.042"/>
	<circle fill="#D49247" cx="97.146" cy="26.999" r="4.771"/>
	<ellipse cx="97.146" cy="26.999" rx="2.604" ry="2.774"/>
	<circle fill="#D49247" cx="64.375" cy="27.095" r="4.771"/>
	<ellipse cx="64.375" cy="27.095" rx="2.604" ry="2.774"/>
	<path fill="#D49246" d="M37.771,116.5c24.75,13.375,8.125,46.875-23,28C-5.479,131,3.521,100.25,37.771,116.5z"/>
	<path fill="#D49247" d="M139.312,146.833c-25.546,11.583-41.6-21.738-7.866-35.068C154.346,103.828,172.898,129.45,139.312,146.833
		z"/>
	<path fill="#D49246" d="M103.396,99c0,10.039-2.351,20.309-8.854,25.25c-3.514,2.671-9.641,2.75-14.084,2.75
		c-5.787,0-12.048-0.935-16.084-5.25c-4.799-5.133-6.854-14.35-6.854-22.75c0-15.464,10.27-28,22.938-28
		C93.127,71,103.396,83.536,103.396,99z"/>
	<path fill="#A86B38" d="M94.201,51.992c-1.047-0.658-1.4-1.653-1.748-1.098c-0.318,0.508,0.049,1.496,0.914,2.164l-0.229,0.255
		c-4.262,4.337-10.92,3.253-11.711,0.227c0.021-1.451,0.018-0.928,0-2.998c0,0-0.41,0.078-0.969,0.07
		c-0.477,0.003-0.97-0.07-0.97-0.07s-0.016,1.863,0,2.998c-0.791,3.026-7.448,4.11-11.71-0.227l-0.229-0.255
		c0.866-0.668,1.234-1.656,0.915-2.164c-0.349-0.556-0.7,0.439-1.748,1.098c-1.047,0.658-2.393,0.729-2.044,1.284
		c0.285,0.453,1.22,0.577,2.03,0.253c1.945,2.702,8.883,7.334,13.756,1.95c4.874,5.384,11.811,0.752,13.756-1.95
		c0.811,0.324,1.744,0.2,2.029-0.253C96.594,52.72,95.248,52.65,94.201,51.992z"/>
</g>
</svg>
