<?xml version="1.0" encoding="utf-8"?>
<!-- Generator: Adobe Illustrator 16.0.0, SVG Export Plug-In . SVG Version: 6.00 Build 0)  -->
<!DOCTYPE svg PUBLIC "-//W3C//DTD SVG 1.1//EN" "http://www.w3.org/Graphics/SVG/1.1/DTD/svg11.dtd">
<svg version="1.1"
	 id="svg2" xmlns:dc="http://purl.org/dc/elements/1.1/" xmlns:rdf="http://www.w3.org/1999/02/22-rdf-syntax-ns#" xmlns:sodipodi="http://inkscape.sourceforge.net/DTD/sodipodi-0.dtd" xmlns:svg="http://www.w3.org/2000/svg" xmlns:cc="http://web.resource.org/cc/" sodipodi:docname="moon.svg" sodipodi:docbase="/home/charm/inkscape" sodipodi:version="0.32"
	 xmlns="http://www.w3.org/2000/svg" xmlns:xlink="http://www.w3.org/1999/xlink" x="0px" y="0px" width="494.353px"
	 height="278.178px" viewBox="53.18 200.804 494.353 278.178" enable-background="new 53.18 200.804 494.353 278.178"
	 xml:space="preserve">
<path id="path1291" sodipodi:cy="482.36218" sodipodi:cx="385.71429" sodipodi:ry="140.00000" sodipodi:rx="140.00000" sodipodi:type="arc" stroke="#000000" d="
	M389.607,208.421c0,0,11.845,0.719,18.554,1.843c5.798,5,10.218,8.537,11.164,8.928c3.177,1.313,19.397,6.023,26.26,11.961
	c3.271,3.587,1.175-1.116-0.272,6.514c5.441,0.708,9.433,5.374,11.053,5.277c8.199-4.599-0.524,2.354,20.72,7.694
	c4.525,11.681,10.887,16.409,12.652,19.628c24.053,5.506,20.185,8.325,27.339,14.294c2.757,2.3,0.813,10.211,3.352,12.457
	c2.19,1.938,4.852,1.333,6.856,3.223c11.428,23.642,17.891,25.403,20.249,34.167c-3.323,13.333-12.079,18.451-15.005,29.833
	c-3.736,8.375-13.27,24.3-24.916,30.658c-3.473,11.069-8.03,9.53-19.382,20.416c-11.353,10.887-25.564,13.735-40.146,23.704
	c-17.267,11.805-20.505,5.975-38.131,15.789c-26.584,3.924-62.221,20.422-94.037,15.166c-12.524-0.317,0.625,10.885-35.884,8.735
	c-6.804-2.007-13.399-11.538-20.318-13.881c-13.102-2.466-30.401,13.705-45.173,9.392c-19.721-5.752-19.359,2.441-51.934-9.06
	c-43.878-15.833-77.554-73.644-106.53-114.596c-3.828-27.274,6.088-17.302-2.898-43.855c10.923-3.911,12.247-14.4,21.697-16.944
	c2.975-14.62,8.959-20.349,12.257-31.482c9.429-7.114,51.805-8.842,54.726-12.339c3.473-0.988,4.489-2.989,7.563-8.6
	c7.199,0.774,38.475-14.071,35.281-17.856c-3.193-3.786-7.27-22.607,81.961-17.386c21.101-4.281,52.126,3.367,72.885,3.897
	c19.111-6.133,29.854,3.086,34.273,2.641C380.178,210.612,386.237,210.018,389.607,208.421z"/>
<path id="path1291_1_" sodipodi:cy="482.36218" sodipodi:cx="385.71429" sodipodi:ry="140.00000" sodipodi:rx="140.00000" sodipodi:type="arc" fill="#5E5E5E" stroke="#000000" d="
	M383.35,213.033c0,0,10.641-1.771,17.042-0.699c5.535,4.771,9.752,8.146,10.658,8.519c3.03,1.254,18.512,5.748,25.059,11.417
	c3.12,3.422,1.122-1.066-0.261,6.216c5.191,0.676,13.368,10.962,14.913,10.868c7.639,0.392,12.966,0.594,15.411,1.51
	c4.316,11.147,10.386,15.657,12.071,18.73c22.955,5.256,19.264,7.945,26.09,13.643c2.63,2.194,0.775,9.745,3.198,11.886
	c2.093,1.851,4.631,1.272,6.545,3.078c10.905,22.561,17.074,24.243,19.323,32.604c-3.171,12.724-11.525,17.609-14.318,28.471
	c-3.563,7.991-12.664,23.189-23.779,29.257c-3.313,10.565-7.661,9.096-18.496,19.485c-10.832,10.389-24.399,13.106-38.311,22.62
	c-16.48,11.268-19.57,5.703-36.391,15.067c-25.368,3.744-59.377,19.489-89.74,14.476c-11.95-0.306,0.594,10.388-34.246,8.333
	c-6.493-1.914-12.787-11.009-19.389-13.246c-12.503-2.352-29.012,13.082-43.109,8.963c-18.82-5.488-18.474,2.332-49.563-8.646
	c-41.873-15.111-74.01-70.28-101.662-109.36c-3.654-26.029,5.81-16.514-2.767-41.853c10.424-3.732,11.687-13.743,20.706-16.169
	c2.84-13.952,8.882-18.191,12.029-28.816c8.999-6.788,49.769-7.208,52.557-10.543c3.314-0.944,4.284-2.853,7.216-8.208
	c6.87,0.738,37.286-16.218,34.238-19.831c-3.047-3.614-7.836-20.015,77.319-15.032c20.135-4.085,49.742,3.215,69.555,3.719
	c18.237-5.852,30.38,5.076,34.601,4.649C375.913,216.025,380.136,214.557,383.35,213.033z"/>
<path stroke="#000000" d="M179.398,260.49"/>
<polygon fill="#D2D2D2" points="238.881,264.985 238.401,274.328 242.052,273.345 244.117,268.183 240.681,269.108 "/>
<g>
	<path fill="#D2D2D2" d="M166.899,385.234l-27.621-11.915l-8.375-3.734l-4.831-3.461l-5.236-1.431l-3.595,1.196l-21.55-7.33
		c0,0-6.369,2.866-11.448-0.604c-7.833-3.315-12.455-4.586-12.968-4.725c27.44,21.665,85.961,33.432,124.383,47.297
		c10.582,3.736,4.602-0.347-7.142-7.14L166.899,385.234z"/>
	<path fill="#D2D2D2" d="M64.252,329.13L64.252,329.13c0.002-0.007,0.003-0.015,0.004-0.022L64.252,329.13z"/>
	<path fill="#D2D2D2" d="M525.257,346.973c-0.932-3.462-43.695-18.077-45.801-24.189c-0.503-4.82,16.765,7.847,29.428,10.071
		c-7.216-19.964-89.543-46.864-84.552-57.421c13.132,4.298,41.928,9.448,102.529,44.229c-1.913-1.806-2.749-5.159-4.841-7.009
		c-2.424-2.142-51.915-33.046-54.546-35.24c0.637-3.626,4.354-6.929-36.582-15.261c-7.252-3.391-36.303-11.654-53.863-16.142
		c-4.987-19.386,47.413,8.434,62.174,4.232c-1.545,0.094,33.715,8.893,37.823,29.29c15.643,2.36,16.181,5.934,29.325,12.968
		c1.173-10.893-8.845-20.292-28.108-22.908c-3.462-4.386-9.728-13.562-12.071-18.73c-3.559-2.575-13.304,0.358-16.796-2.16
		c-1.393-1.005-8.324-9.556-13.528-10.218c1.781-4.527-0.017-1.619,1.781-4.527c-4.026-7.085-25.055-12.306-26.677-13.465
		c-11.653-8.339-7.83-5.831-10.561-8.16c-0.904-0.374-14.705-0.899-19.938,1.871c-5.117,0.82-4.541,1.82-10.604-0.064
		c-4.219,0.426-16.46-10.861-34.697-5.01c-19.813-0.503-50.708-7.457-70.843-3.371c-85.156-4.984-78.731,12.359-75.684,15.973
		c-7.712,9.33-27.714,19.28-34.584,18.542c-2.933,5.355-3.903,7.265-7.218,8.208c-2.787,3.336-43.558,3.754-52.556,10.544
		c-3.148,10.625-9.189,14.863-12.029,28.816c-9.019,2.426-10.281,12.437-20.706,16.168c2.406,7.109,3.418,11.574,3.712,14.897
		c0.247-0.728,1.355-3.312,5.516-11.912c6.66-13.768,3.255,0.966,3.255,0.966l3.553,5.495l3.542,2.041l6.813,3.925l-3.03-3.562
		l-4.377-3.427c0,0-1.61-2.561-1.619-6.015c-0.007-3.452,3.875-3.575,3.875-3.575l-0.926,2.553l0.29,1.073l0.62,1.446l0.932,0.9
		l1.52,0.513c0,0-0.651-3.279-0.882-4.139c-0.232-0.859,0.569-1.304,0.569-1.304l2.016-1.925l-0.438,2.651l0.404,1.504l3.295,0.264
		l-0.785,7.352l1.718-0.462l2.296,1.685c0,0,0.875,0.686,1.462,0.298c0.585-0.389,1.205,1.058,1.205,1.058l-0.651,2.71l0.99,1.115
		l1.43-1.537l1.892,0.182l1.437,1.917l1.436,1.917l4.743-0.356l3.684,0.853l6.286-1.462l1.908,1.099l16.108-4.334l2.66-2.098
		l1.057-1.206l4.981-2.031l-0.52-1.933l1.33-1.049l2.767,0.869l-0.321-2.909l0.354-1.247l2.363-0.636l2.883,1.297l-0.09-2.049
		l1.991-0.305l1.428-1.537l3.006-0.809l1.594,7.633l-3.403,2.758l-2.718,1.882l-0.608,1.777l0.245,2.007c0,0,0,0,5.741-1.775
		c4.379-8.55,14.491-10.347,14.491-10.347l-0.207-2.479l0.958-0.718l-1.254-3.809l0.983-2.337c0,0-1.05-1.331,2.801-9.276
		c6.261,0.158,11.266,8.486,11.266,8.486l-7.908,13.413l2.94,1.513l-0.24,1.676l-1.173,0.778l-0.404-1.504l-0.834-0.557
		l-1.132-0.756l-1.041,2.123l2.8,2.701l1.239,2.891c0,0,0,0,5.386-0.527c5.087,0.935-5.081,2.519-8.649,2.096
		c-3.568-0.421-7.912-2.016-12.018,0.701c-3.479,7.615-10.813,1.758-10.813,1.758l-6.517,0.601c0,0,0,0-1.825-2.502
		c-13.407,1.534-10.807,11.199-10.807,11.199l0.809,3.006l2.222,0.554l1.125-3.526l1.428,4.452l3.543,2.041l0.628-1.091
		l-1.454-8.822l2.767,6.856l2.826,4.512l2.988,0.833l-1.71-2.073c0,0,0,0-1.188-6.13c3.295,6.253,5,6.603,5,6.603
		s-0.375-1.398-1.218-6.238c5.154,4.602,3.684,6.84,3.684,6.84s0,0,2.768,0.868c0.728-1.578-1.502-5.585-1.502-5.585l1.775-0.247
		L166.36,343l2.75-0.049c0,0-3.146-3.99-3.788-6.375c3.265,1.859,5.837,6.285,5.837,6.285l2.263-0.148c0,0-0.016-0.917-4.083-6.616
		c3.283,1.075,7.362,5.963,7.362,5.963s-0.966-2.734-2.634-5.51c3.997,0.306,10.639,3.586,10.639,3.586s6.128-1.188,14.05-1.707
		c9.326-0.438,14.703,1.57,17.701,3.297c2.997,1.727,15.602,6.626,13.155,4.379c-2.446-2.247,2.447,2.248-10.214-8.856
		c15.139,10.896,18.015,8.74,18.015,8.74s0,0,3.651,5.006c3.651,5.007,4.508,4.775,13.842,7.791
		c-10.506,3.749-22.171,3.202-22.171,3.202s0.891,1.602,6.443,4.255c6.722,1.496,11.644-0.37,13.124,6.833
		c-17.669,4.524-26.132-2.101-26.132-2.101s-5.181-2.14-12.458-1.795c2.321-5.46,12.333-1.245,12.333-1.245l8.078-0.792
		c0,0,4.221,3.702-0.462-1.718c-4.684-5.418-21.262-0.269-21.262-0.269l0.104-1.323l11.598-3.122l-1.658-1.022
		c0,0-11.654-3.083-17.346,1.443c-0.414,7.021-9.484,6.698-9.484,6.698s-13.215-2.893-23.345-6.297
		c-9.51,4.029-15.163,0.996-15.163,0.996s-2.768-0.868-13.265-5.644c-10.498-4.776,7.55-6.178,7.55-6.178s10.053,3.976,17.751,6.05
		c7.697,2.075,4.75-2.891,4.75-2.891s0,0-7.079-0.628c-0.809-3.007-12.497-7.924-21.743-10.615
		c-3.108-6.417-4.193-3.596-4.193-3.596l0.867,3.222l-4.237,1.371c0,0,1.767,2.288-4.047-3.058
		c-7.772-3.205-6.789-5.543-12.34-2.207c16.494,8.229,5.094,10.376,5.094,10.376s-15.627-5.008-23.499-7.727
		c-8.633,3.013-10.168,1.584-10.168,1.584s-1.743-3.907-4.913-12.267c-3.171-8.361-11.942-10.146-17.543-9.56
		c-4.296,1.156-4.832-1.652-4.832-1.652c0.215,2.66-0.038,4.588-0.394,6.584l3.639,2.866l5.568-2.42l6.351,2.206l3.436,5.065
		l-5.675-0.546l-4.155-0.035l-3.163-2.339l-3.091-0.354l-2.062-1.288l-1.461,0.276c-0.376,2.392-0.657,5.321-0.438,9.685
		c1.814-0.413,16.453-3.358,26.03,6.578c9.17-0.164,9.17-0.164,9.17-0.164s33.699,13.964,35.523,22.456
		c13.694,5.528,29.278,11.837,29.278,11.837c-19.902-11.052-38.68-21.538-30.061-19.023c14.096,4.117,87.441,29.657,110.151,31.884
		c14.869-1.237-63.659-16.919-67.919-23.872c14.646,10.203,100.707,1.92,103.732,26.005c15.013-10.973,56.476,9.762,69.723,10.028
		c-25.446-9.825-37.788-18.62-65.539-20.16c-7.384-9.115-42.003-13.01-31.17-23.398c11.869,3.025,85.675,17.715,88.986,7.15
		c2.413-1.318,25.697-2.077,24.469,8.766c9.021-2.427,18.687-5.028,47.369-1.147c9.482-0.061,14.883-3.466,26.119-5.646
		c6.751-0.037,9.315,1.237,12.213,6.869c7.54-0.079,7.114-5.161,26.463-4.371c-9.722-6.545-1.008-19.149-40.312-8.575
		c1.589-13.051-22.527-19.525-23.314-22.451c5.112-1.194,13.432,2.048,19.478,3.052c5.529,0.916-29.302-21.587-20.28-24.015
		c4.602,1.594,15.675,1.761,25.541-0.091c8.086,8.723,15.091-23.52,26.138,14.966c14.216,1.473,30.32,15.104,46.463,15.837
		c3.691,1.067,5.814,1.585,5.868,1.465c0.698-2.716-28.751-8.604-43.186-21.835C478.817,326.492,508.336,348.166,525.257,346.973z
		 M403.947,221.035l4.88,4.449l-1.503,0.404l-4.882-4.448L403.947,221.035z M397.432,222.071l6.456,4.742c0,0-1.133,0.07-1.72,0.457
		C401.647,227.615,398.787,223.321,397.432,222.071l-0.435-0.318C397.115,221.798,397.263,221.914,397.432,222.071z M314.1,259.489
		c2.091-0.793,6.005,0.919,7.782,0.67c1.776-0.249,3.328,2.099,5.436,2.223c2.105,0.125,5.607,2.868,5.607,2.868
		s7.574,4.181,8.49,4.164c0.406-0.008,1.246,0.093,2.057,0.208l0.011-0.005l0.496,0.079c0.176,0.026,0.348,0.053,0.507,0.078
		c0.569,0.091,0.985,0.163,0.985,0.163l-1.492-0.241c-0.165-0.025-0.334-0.048-0.507-0.074l-2.725,1.585l-6.857-3.223l-14.553-5.295
		l-11.351-1.093l-4.047-3.057l2.776-1.669l2.956,2.429C309.672,259.298,312.01,260.281,314.1,259.489z M280.989,233.156
		l22.029,9.967l-23.227-7.57l-4.725,1.271l-1.616-2.579l-1.348-2.151L280.989,233.156z M244.681,212.065
		c-2.62,1.396,0.172,0.645-2.62,1.396c-2.792,0.751-2.792,0.751-2.792,0.751s-4.905-2.824-15.718-1.067
		C223.552,213.144,236.464,208.057,244.681,212.065z M206.092,235.576c2.693-0.264,2.693-0.264,2.693-0.264
		s-0.934-10.316,17.967-7.7c14.133-1.398,14.133-1.398,14.133-1.398l13.886,1.101l19.527,12.939l-1.426,1.538
		c0,0-8.71-5.257-25.208-1.509c-8.045-3.363-5.41-3.841-8.045-3.363c-2.635,0.478-4.952,0.424-4.952,0.424l-3.093,2.202
		l-2.602,2.312l-2.969-1.044l-3.793-0.117l-1.326,4.489l-12.019,0.7l-17.858-3.025l-5.046-1.638l-3.04-1.023l-5.385,0.527
		C177.536,240.726,191.522,229.363,206.092,235.576z M115.844,260.55l9.656-0.065l-1.958,2.139l-8.895,0.321L115.844,260.55z
		 M87.788,296.657c-0.875,5.304-1.719,0.462-1.719,0.462l-1.016-3.642l3.344-3.113l2.746-5.204l-2.196-2.174l2.792-0.751
		l1.857-1.652l7.814,2.505l-5.798,1.561l-0.769,2.281l-4.048,2.929C90.796,289.859,88.662,291.352,87.788,296.657z M136.438,309.685
		c-23.332,18.575-38.466,4.272-38.466,4.272l-3.584-7.327c0,0,0.455-1.733,6.437-17.163c7.422-25.487,42.99-21.703,42.99-21.703
		l4.865,3.527l4.51-1.213l2.947,10.954c0,0,0,0-2.272,2.683C152.219,291.299,147.709,298.502,136.438,309.685z M164.504,281.314
		l0.403,1.503l2.732,0.733l0.237,2.597l-1.004,3.972c0,0-0.728,1.578-0.711,2.495c0.017,0.917,1.833,5.955,1.833,5.955l-1.015,1.367
		l-1.503,0.405l-1.166-2.623l-1.073,0.29l-1.023-2.949l-5.584,1.502l-4.726,1.271l2.933-1.942l-0.694-2.577l3.403-2.758l3.899,0.794
		l0.785-1.363l-5.76-3.431l7.302-1.965l0.062-1.484l0.555-2.223l-0.649-2.409l5.587,1.081L164.504,281.314z M158.122,253.32
		c-1.363-0.784-1.363-0.784-1.363-0.784s2.999-4.264,8.914-5.395c5.915-1.13,16.768,2.399,16.768,2.399s1.776-0.247,2.363-0.635
		c0.585-0.389,3.676-0.887,3.676-0.887l14.297,4.343l-2.116,2.408l-10.167-4.401c0,0-1.217-1.103-2.07-0.849
		c-0.854,0.255-3.007,0.81-3.007,0.81l-0.622,1.111C184.796,251.441,165.177,243.588,158.122,253.32z M179.281,272.04
		c0,0-1.734-0.454-3.109-0.43c-1.375,0.025-4.4-0.083-4.4-0.083l0.86-0.231c1.934-0.521,16.323-4.392,16.323-4.392l-0.941,1.635
		l-0.785,1.362c-0.242,0.066-0.645,0.173-1.289,0.347C183.362,270.942,179.281,272.04,179.281,272.04z M193.883,331.448
		c-13.853,0.732-18.675-3.496-18.675-3.496l4.328,0.678c0,0,0,0,11.936,0.703c11.284-2.576,13.257,2.192,13.257,2.192
		S201.119,331.804,193.883,331.448z M216.974,310.264c0,0,18.726,0.259,8.48,12.689C223.49,315.651,225.093,314.758,216.974,310.264
		z M420.802,355.606c1.875,5.254,4.08,4.89,4.08,4.89s2.592,0.224,2.916,3.131c-4.337,1.858-9.955,1.527-9.955,1.527s0,0-1.32,4.503
		c-12.334,7.235-21.032-5.395-21.032-5.395s-3.6,3.731-13.957,3.756c-41.202-11.024-32.694-2.08-45.937-1.229
		c-39.153,0.862-74.729-6.378-81.221-13.386c4.354-0.942,8.055,0.828,8.055,0.828s7.814,2.503,9.087,1.24
		c1.271-1.263-2.311-4.306-2.311-4.306l-5.784-1.808l-8.383-1.199c0,0,1.849,0.884-7.951-0.439
		c-9.798-1.325-20.2-10.873-20.2-10.873l13.19,4.511c0,0,0,0-1.164-1.76c-3.602-2.256-1.851-0.884-9.92-8.616
		c6.674,5.114,12.191,5.932,12.191,5.932l-3.948-3.543l6.955,2.734l-3.188-3.288c0,0-2.866-0.38-12.654-7.651
		c11.408,1.306,15.686-0.766,17.397-4.681c1.71-3.915-14.282,0.849-14.976-1.729c-0.694-2.578,0.224-2.593,0.224-2.593l2.139,1.958
		l11.37-2.251l6.291,0.264l2.602,3.676l4.32-2.774c0,0,0,0-5.909-3.131c-8.56,0.332-10.132-0.845-11.557-6.142
		c6.007,6.063,6.266,4.455,11.734,2.523c5.814-0.642,9.521,4.577,9.521,4.577s0.572-1.304,2.134-7.483
		c-9.451,2.543-12.952-6.188-12.952-6.188l-3.65,0.982c0,0,1.2,1.435-0.711,2.494c-6.097,3.023-6.897-2.52-6.897-2.52
		s-3.767,0.554-11.886,2.047c-4.792-2.396-6.881-1.604-6.881-1.604s0,0,0.793,2.091c-8.633,3.014-12.967-7.106-12.967-7.106
		l-0.521,4.055L193.5,294.93l-2.023-7.517l16.839,3.526l12.455-3.813l1.952,0.856l11.158,5.521l8.319-2.469l13.968,5.686
		l0.361,2.205c0,0,0,0-2.831,1.458c1.89,7.613,9.825,4.842,9.825,4.842l-0.452-2.533l-3.369-1.396l0.579-3.841l-1.164-1.759
		l-17.553-7.024l-9.424,0.923l-7.243-3.808l5.203,1.363l4.767-1.973l-1.8-4.123l-3.7-1.769l-5.659,0.371l-17.66-4
		c0,0,0,0-11.564-1.034c-1.262-7.261,7.022-11.563,7.022-11.563l14.192-2.898l7.816-5.19l-0.58,5.547l2.635-0.478l4.115-5.253
		l2.362-0.636l0.347,1.289l-5.115,6.673l5.301,12.854l3.825-0.338l2.758,3.404l4.262,2.999l4.914,0.29l4.493,3.859l2.421-0.422
		l-1.213-4.511l3.831,3.115l0.844-1.147l-3.031-3.56l-1.684-3.693c0,0,0,0,5.41-2.146c4.875-4.998,2.074-7.699,2.074-7.699
		l-4.889-1.908l-3.948-3.543c0,0,0,0-12.39,1.03c9.321-27.843,32.669-4.414,32.669-4.414l11.961-0.917l-7.334,3.817l-0.01,3.918
		l-1.941,3.977c0,0,3.759,1.984,4.552,1.77c0.792-0.213,3.303,0.034,3.303,0.034l6.906-0.017l6.929-1.634l4.363,2.51l7.088-1.907
		l5.285-0.041l9.16,2.373l7.145,4.296l17.404,10.75l2.87,2.113l0.351,3.008l-0.406,4.486l-2.569-1.843l-2.14-1.958l-2.79,0.751
		l1.987,5.685l3.257,0.965c0,0,0,0,2.617,4.594c9.326,11.542,4.112,13.576,4.112,13.576l-10.092,2.715l-8.98-5.126
		c0,0-1.157-4.294-3.533-7.131c-0.624-1.466-13.069-4.062-13.069-4.062l-7.921,0.518l-1.983-2.23l-1.849,5.105l-6.908,0.015
		l0.403,7.493c0,0-5.516-0.817-7.022,10.643c-1.507,11.461,10.722,9.092,10.722,9.092l6.749-1.125l-3.966-7.362l9.326,9.836
		l2.939,1.512l0.942-1.635l-4.154-6.023l4.997,4.875l2.692-0.264l-5.311-8.605c0,0,4.081,3.179,4.255,3.824
		c0.173,0.644,3.014,2.644,3.014,2.644l3.445,2.528l-0.067,2.32l-3.065,0.595l-1.082,2.824l-1.041,2.123l1.834-0.032l2.791-0.751
		l2.266-0.149l3.856,1.495l1.717-0.462l-2.039-2.444c0,0-0.833-1.389-1.121-2.461c-0.289-1.074,1.288-0.347,1.288-0.347l1.649,1.858
		l1.612,2.561l4.996-1.113l-1.667-2.777l-1.768-2.288l1.816-0.949l3.329,2.099l-0.289-1.075l-1.57-3.261l1.117-0.992l4.79,2.396
		l-0.305-1.992l-0.736-1.875c0,0,3.025,0.108,3.28-0.651c0.256-0.76-0.347-1.288-0.347-1.288l2.362-0.636
		c0,0,0.538,2.85,5.741-7.763c5.207-10.615,2.62-13.373-1.798-22.088c2.951-1.023,11.954,7.609,11.954,7.609s0,0,4.063-2.015
		c3.604-3.733,4.313-0.239,4.313-0.239l-0.999,1.42c0,0,0,0,1.419,2.707c10.463-1.341,7.989,1.442,7.989,1.442s0,0-6.511,4.054
		c6.764,1.174,5.92,2.324,5.92,2.324l-9.744,4.004c0,0-0.614,2.007,7.159,5.212c25.861-4.886,28.173,9.693,28.173,9.693
		l-1.875,0.736l-7.03,2.122l2.727,1.569l-0.281,2.378l-7.119,0.074l-2.612-1.141l-5.038,1.817l2.14,1.958l20.98,2.646
		c0,0,0,0,3.534,3.195c-12.219-1.623-13.448,9.606-13.448,9.606l-1.065,3.742c0,0,2.938,1.513,4.253-0.453
		c-2.981-6.799,5.313-7.648,5.313-7.648l1.204,1.057l3.223-0.867l1.552,2.346C417.464,356.042,417.464,356.042,420.802,355.606z
		 M467.712,323.646c-6.392-19.469-18.585-13.426-18.585-13.426l-4.534,2.833l-15.621-1.56l-4.268-2.167l-9.924-0.924l1.734,6.443
		l-24.988-3.848c0,0-2.104-2.681-4.499-9.869c9.43-0.919,7.09-7.895,7.09-7.895s0,0-10.214-2.012
		c-2.401-5.496-6.307-4.599-12.947-1.892c0.543,12.292-11.053,3.437-13.047-3.972c15.308-35.557,36.671-2.384,36.671-2.384
		l0.704-13.313l34.672,33.51c0,0,0,0-3.766,0.554c5.359,7.08,15.486,6.198,15.486,6.198l-3.262-4.421l0.106-3.023l2.421-0.421
		c0,0,0,0,7.318,4.941c18.018-4.622,20.359,13.178,20.359,13.178l7.558,3.263C476.178,323.44,473.699,323.646,467.712,323.646z"/>
	<path fill="#D2D2D2" d="M112.506,284.942l-2.578,0.694l-1.933,0.521c0,0,0.949,1.815,0.362,2.204
		c-0.586,0.389-5.468,1.933-5.468,1.933l-5.602,12.563l1.329,4.938l1.363,0.785l1.536,1.43l0.306,1.99l0.306-3.998l2.412,5.11
		l0.525,1.951l1.995,0.995l-2.495-7.56l1.057-1.207l4.015,8.072l2.363-0.635l-3.379-5.71l4.498,3.877l-3.226-5.141
		c0,0,2.413,2.115,3.659,2.471c1.248,0.355,3.003,1.745,3.003,1.745l-1.046-3.884l4.267,3.019l1.309-1.986l-3.968-2.616
		l-0.636-2.363c0,0-0.094-1.356,0.608-1.314c0.701,0.042,0.62-10.532,0.62-10.532l0.092-3.939c0,0,1.413-2.453,0.553-2.222
		c-0.858,0.23-3.435,0.924-3.435,0.924l4.412-6.715L112.506,284.942z"/>
	<path fill="#D2D2D2" d="M64.256,329.107l0.574-3.217C64.647,326.901,64.44,327.942,64.256,329.107z"/>
	<path fill="#D2D2D2" d="M163.82,379.523l17.185,9.584C175.622,386.073,169.68,382.778,163.82,379.523z"/>
	<path fill="#D2D2D2" d="M181.551,389.416l6.922,3.946C186.339,392.13,184,390.799,181.551,389.416z"/>
	<path fill="#D2D2D2" d="M181.268,389.255l-0.263-0.147c0.184,0.103,0.365,0.206,0.546,0.309L181.268,389.255z"/>
</g>
<path fill="#D2D2D2" d="M487.181,399.614l-27.873-2.771l-3.189-3.289l-6.442,1.734l-2.313,3.386l-4.898,5.762
	c3.396,0.631,8.466,0.647,10.729,0.5c2.265-0.147,4.396,2.64,4.396,2.64l-5.154,1.387l19.189,3.354l-9.657-5.595l14.839,1.296
	L487.181,399.614z"/>
<path fill="#F4F4F4" d="M247.697,242.114l0.461,1.716c0,0,17.074-1.6,21.41,2.531c4.04,5.592,4.04,5.592,4.04,5.592l1.796,3.206
	c0,0,17.079-6.67,22.174-2.284c2.535,0.008,2.535,0.008,2.535,0.008s-6.961-6.187-15.57-4.793c-6.467-2.636-6.467-2.636-6.467-2.636
	l-5.205-3.661c0,0-11.559-4.716-25.208-1.509C247.697,242.114,247.697,242.114,247.697,242.114z"/>
<g>
	<path fill="#F4F4F4" d="M499.63,277.677c-9.894-7.411-10.62-5.624-10.62-5.624l-10.767-2.459c0,0-10.311-13.353-12.071-18.73
		c-4.413-0.707-4.413-0.707-4.413-0.707l-10.998-0.803c0,0-11.913-10.973-14.913-10.869c1.781-4.527,1.781-4.527,1.781-4.527
		s-4.706-4.824-13.096-8.363l4.168,4.434c0,0-5.113,0.688-5.585,1.502c-0.473,0.814-1.063-2.243-1.667-2.771
		c-0.603-0.528-5.88-3.024-5.88-3.024l-3.347-3.019l9.319,2.103l2.143,0.431c-1.54-0.616-3.183-1.188-4.949-1.674
		c-11.381-5.667-11.381-5.667-11.381-5.667l-6.963-5.576c0,0-16.279-1.191-23.595,2.632c-10.109-1.415-10.109-1.415-10.109-1.415
		s-12.256-9.601-29.322-4.547c-2.116,0.487-2.116,0.487-2.116,0.487s-65.262-8.814-70.94-3.731
		c-9.863-0.496-9.863-0.496-9.863-0.496s-70.572-5.239-66.757,14.958c0.936,1.51,0.936,1.51,0.936,1.51s-18.95,18.849-34.584,18.542
		c-4.072,6.716-4.072,6.716-4.072,6.716l-6.363,3.129l-14.081,1.953l18.508,1.887c0,0,11.633-13.73,34.827-7.992
		c23.194,5.739,23.194,5.739,23.194,5.739l-32.137-11.58l12.327-4.262l1.624-5.521l18.802-10.586l16.357-2.56
		c0,0,20.287,0.071,38.318,3.74c9.825,2,14.297,2.909,16.332,3.324c1.699,0.346,1.699,0.346,1.699,0.346l-16.867-7.899
		c0,0,22.667,0.351,32.215,3.309c-11.94,1.343-14.786-0.17-14.786-0.17c11.216,5.736,13.216,2.896,13.216,2.896l6.824,1.387
		l54.531,14.35l0.578,2.147c0,0-32.693-11.933-42.357-3.344c3.187,3.289,6.624,2.363,6.624,2.363l17.511,1.738l22.55,6.771
		l-5.849,3.936l5.914,4.856l9.2,1.671l-3.996,3.976c0,0,3.781,2.069,5.383,1.178c1.603-0.892,6.456-1.69,6.456-1.69l1.972,7.33
		l14.637,6.467l-3.207-11.921c0,0-14.52-9.451-21.54-9.866c-0.412-4.957-0.412-4.957-0.412-4.957l6.13-1.187
		c0,0-1.157-4.294-13.58-11.086c-19.096-5.919-19.096-5.919-19.096-5.919l-20.707-8.478c0,0,37.609,6.234,52.953,13.621
		c11.234,0.663,11.234,0.663,11.234,0.663l7.116,2.482l2.806,1.654l18.067,5.094l19.694,4.544l6.612-0.279l23.714,11.132
		c0,0,12.697,7.801,14.109,18.158c8.6,1.81,8.6,1.81,8.6,1.81l8.321,3.684l12.404,7.475
		C506.352,292.502,509.522,285.086,499.63,277.677z M242.061,213.461l-2.792,0.751c0,0-5.762-2.591-15.718-1.067
		c0,0,14.963-5.175,21.13-1.08C242.061,213.461,242.061,213.461,242.061,213.461z M402.168,227.27l-5.171-5.518l6.891,5.061
		L402.168,227.27z M407.323,225.888l-4.882-4.448l1.505-0.405l4.88,4.449L407.323,225.888z"/>
	<path fill="#F4F4F4" d="M424.33,225.38l-0.646-0.129c0.285,0.113,0.57,0.228,0.849,0.345L424.33,225.38z"/>
</g>
</svg>
