<?xml version="1.0" encoding="utf-8"?>
<!-- Generator: Adobe Illustrator 16.0.0, SVG Export Plug-In . SVG Version: 6.00 Build 0)  -->
<!DOCTYPE svg PUBLIC "-//W3C//DTD SVG 1.1//EN" "http://www.w3.org/Graphics/SVG/1.1/DTD/svg11.dtd">
<svg version="1.1" id="Calque_1" xmlns="http://www.w3.org/2000/svg" xmlns:xlink="http://www.w3.org/1999/xlink" x="0px" y="0px"
	 width="420.409px" height="416.426px" viewBox="0 0 420.409 416.426" enable-background="new 0 0 420.409 416.426"
	 xml:space="preserve">
<g>
	<g>
		<path fill="#F9F9F9" d="M420.409,208.499c0.023,114.813-94.071,207.904-210.163,207.927C94.153,416.448,0.023,323.393,0,208.58
			v-0.081C-0.022,93.688,94.071,0.596,210.164,0.573c116.092-0.022,210.223,93.033,210.245,207.845V208.499z"/>
		<path fill="#37ABC8" d="M150.521,129.6c17.836,5.563-20.295,23.981-8.056,11.429c3.225-4.113-1.201-9.138,6.772-10.01l0.515-1.002
			L150.521,129.6z M117.27,57.556c13.004-3.899,14.072-10.21,27.168-16.295c2.706-6.363,8.869-8.715,14.088-12.03
			c-11.792,2.187-2.355-8.616-14.249,0.587c5.086-8.775-16.12-2.816-1.146-3.051c-7.393,8.369-23.014,21.829-34.688,28.596
			c-2.03-1.422,14.888-15.448,0.183-3.669c-4.631,8.427-19.046,11.383-9.238,1.069c7.044-3.745,4.379-12.468,9.92-7.431
			c9.146-3.94,7.061-4.909,15.948-9.613c-7.495-1.789-17.402,6.339-25.228,8.29c20.678-16.993-13.066-2.872-17.405,7.226
			c-7.61,7.664-25.714,23.4-7.875,9.797c4.226,2.277,26.249-23.468,24.035-9.982c-4.897,4.474-6.724,8.322-12.402,11.285
			c-9.163,9.778,18.231-8.618,1.374,5.105c-11.207,7.452-9.572,22.179-20.746,29.172c-7.338,2.267-9.384,21.159-11.342,14.507
			c-10.114-9.309,20.688-17.349,3.104-16.554c-1.337-3.471-2.25,5.359-6.158-0.063c-4.833,6.585,1.104,15.362-8.303,13.629
			c-8.803,0.07,11.736-9.891-4.206-7.063c-2.497-1.188-6.516,5.277-10.524,10.623c-11.499,8.403-15.284,21.17-19.744,35.42
			c-12.956,41.4-12.517,96.352,4.033,135.322c36.415,85.748,115.112,137.252,205.214,133.453
			c-8.476-3.48-27.809-15.611-10.066-23.355c-10.036-7.026-5.332-17.661-19.088-24.631c9.098-7.831,1.984-19.33-9.469-16.86
			c-10.186,1.531-15.641-10.687-26.285-5.433c-14.983,0.991-31.3-4.318-44.915-11.414c-12.854-12.321-26.987-27.655-26.03-44.911
			c3.381-9.321,5.496-15.316,3.25-24.215c10.804-9.556,15.477-24.729,30.173-24.63c-2.675-12.226,32.032-26.411,8.812-27.172
			c-0.398-11.953,1.172-15.639,6.042-27.43c-1.496-20.299,20.796,5.293,26.067-6.44c10.63-12.075-19.04-25.479,4.35-22.168
			c9.002,0.117,12.07-7.816,0.295-4.229c-9.097-0.646-17.188,1.465-5.542-6.157c-9.401-2.724,10.697-6.544,0.767-12.866
			c-0.536-3.628,4.129-5.114-0.757-4.683c-2.494-3.41,7.207-7.926-1.183-9.899c4.449-12.733,3.906-2.307,6.862-4.035
			c3.597-0.711,8.173,4.02,2.34,9.332c5.03,9.116,11.597,19.5,8.597,25.846c5.324-4.254,15.556-7.702,18.473-11.699
			c-7.812-14.636,15.738-21.781,5.26-8.584c-4.224,9.816,7.737,8.274-0.057,2.519c6.344,1.457,10.367-5.049,4.768-12.031
			c-1.02-9.771-12.138,8.414-14.463-3.095c-7.254-17.431,19.038-19.938,22.208-34.774c-6.296,1.382,14.908-19.489,24.083-9.768
			c10.131,0.486,30.09,12.736,9.195,10.257c0.613-0.689,3.172,11.18,10.267,9.675c8.019,1.893-5.452-5.77,1.655-5.122
			c-1.507-5.801,5.3-9.609-1.956-14.348c12.01-1.77,2.184,4.887,10.159,8.535c8.267,5.596-4.868-19.078,7.081-9.766
			c15.105-15.997-17.841-1.034-18.436-15.609c-6.686-11.354,3.945-19.802,3.851-4.188c2.878,11.316,15.831,8.047,24.67,9.698
			c3.951,0.793-20.693-10.712-12.674-14.532c5.709-1.805,7.926,0.009,4.42-3.608c-2.378-4.164-7.209-9.098-9.486-13.417
			c-15.015-8.377,18.567-0.157,7.04-8.837c-5.049,0.157,4.096-8.984-8.613-6.922c-9.014,5.859-25.484-9.808-8.074-0.951
			c13.496,1.098-14.019-11.451-20.708-12.255c-21.509-2.585-38.562-0.446-59.543,2.248c-11.519,1.479-9.576,9.769-0.967,8.027
			c-2.327,6.655-14.016,4.853-1.506,5.424c-7.855,3.322,16.149,4.299,5.2,11.201c6.462,3.048,16.668,8.051,9.72,9.333
			c13.877-0.329-9.916,11.206-10.573,17.013c-9.412,3.743-17.482,13.809-21.302,9.997c7.016,5.394-6.793,6.367-10.588,4.251
			c-9.403-3.387-22.807,5.954-32.054,12.353C93.902,92.963,105.074,63.378,117.27,57.556z M312.466,385.758
			c5.235-10.813,14.958-18.103,25.052-26.042c12.908-4.744-8.617,18.27-15.828,21.084
			C318.814,382.78,315.966,384.969,312.466,385.758z M314.93,370.363c-1.396,15.433-23.581,15.845-30.682,27.2
			c-7.183,3.593-22.54,13.74-4.407,7.144c46.392-16.878,71.037-41.123,85.999-56.471c34.199-35.082,55.713-88.189,54.476-146.01
			c-1.627-4.229-9.517-41.372-10.616-23.748c-0.128,18.63-0.559,37.338,0.994,55.869c-5.321,24.781-12.919-28.957-14.382-15.315
			c-5.453-1.317-6.069-4.2-12.847-7.543c-4.951,7.519-15.995,16.935-22.919,11.271c-4.773,14.592-17.006,2.088-21.603-1.412
			c-11.619,9.851,16.498,20.959,19.601,13.308c3.743-11.386,1.431-8.949,8.534-4.687c9.026,1.913,1.502,19.161-1.235,27.003
			c-7.376,9.885-11.077,23.898-23.325,31.962c-6.967,9.113-15.979,14.055-15.889-2.314c-8.283-11.988-18.985-14.682-25.693-28.263
			c-0.722-10.129-9.254-12.88-11.637-6.71c-5.774-3.792,8.665,16.407,12.118,19.179c5.312,15.114,15.03,25.568,30.138,29.956
			c1.236,20.297,32.866-31.241,24.786-4.607c-5.754,19.854-21.314,34.018-31.888,51.118
			C318.285,354.35,309.811,362.701,314.93,370.363z M284.141,365.438c6.663,0.233,15.451-11.199,7.054-10.228
			C285.486,355.342,285.662,361.485,284.141,365.438 M208.402,46.472c5.446-7.985,10.613,1.367,5.392,1.831
			c6.493,7.415-5.553-2.485-3.935,9.323C207.962,56.924,199.596,39.009,208.402,46.472z M221.334,92.039
			c1.298,8.109-14.781,13.503-1.232,19.704c-1.412,8.313-7.943,22.656-15.01,22.916c-9.478,6.81,11.599,5.994,14.98,0.755
			c7.795,3.255,6.015-3.474,7.566-7.69c-3.378-9.477,11.395,0.878,3.145-10.326c-8.402,7.255,5.354-8.019,10.742-5.654
			c-2.463-6.391-20.109,10.166-17.113-3.079C212.953,101.089,242.604,87.182,221.334,92.039z M260.192,170.512
			c0.731,4.523-1.253,11.992-4.799,17.624c8.57,10.343,25.518-7.876,38.631,0.013c16.054-10.066-18.945-24.827-21.929-8.806
			c-6.684-5.127,3.865-12.396-6.98-10.965C262.444,167.917,262.414,163.538,260.192,170.512z M324.781,189.33
			c10.716,5.843,22.252-5.233,9.226-12.083c-5.659-7.285-7.337-13.301-15.054-16.514c-3.901-1.598,8.465-18.892-4.819-10.945
			c-9.244,4.223-4.706,16.766,0.33,20.667C327.565,178.577,326.225,173.952,324.781,189.33 M193.008,211.497
			c-8.79,5.58-8.173-8.052-4.583-12.039c-0.656-4.494,7.022-16.168,4.275-2.837C190.698,200.719,196.019,206.571,193.008,211.497
			 M138.821,216.423c6.166,14.866,34.762-2.03,49.827,6.005c7.252-2.705,11.953-1.183,9.404,6.604
			c-10.442,3.777,3.193,9.279,6.656,8.326c10.099,1.371,12.594,10.516,23.603,11.656c8.618,2.571,2.331-19.562,17.519-12.236
			c3.215,5.09,10.388,2.518,16.38,3.911c10.117,3.426,15.424-8.771,25.054-7.077c3.312-7.576,2.356-30.405,1.132-26.982
			c-5.855,5.316-15.46,5.749-23.327,9.571c-4.011-3.032-7.811,3.761-9.113-6.952c-2.745-5.906-3.28-16.448-14.301-6.373
			c-3.23,0.697,10.184,8.028,7.407,11.85c-6.763-4.422-6.096-0.87-7.344,5.393c-6.256-3.777-11.171-20.271-20.011-27.67
			c-9.511-4.508-10.274-13.637-16.963-15.3c-5.191,13.693,22.744,22.983,18.303,26.955c-11.136-6.815,5.212,12.804-9.517,12.238
			c0.098,10.458-20.047-6.67-2.24-1.768c12.667-7.474-10.165-16.32-14.307-23.54c-3.969-16.077-14.465,8.008-22.535-5.366
			c-0.843,7.101-17.558,12.546-15.922,23.366C152.561,214.633,147.634,216.58,138.821,216.423z M141.284,85.881
			c0.484,0.132,7.381-11.694,6.466-4.618c16.438,2.096-0.881,17.723-9.544,7.081C139.232,87.522,140.258,86.702,141.284,85.881"/>
	</g>
</g>
</svg>
