<?xml version="1.0" encoding="utf-8"?>
<!-- Generator: Adobe Illustrator 16.0.4, SVG Export Plug-In . SVG Version: 6.00 Build 0)  -->
<!DOCTYPE svg PUBLIC "-//W3C//DTD SVG 1.1//EN" "http://www.w3.org/Graphics/SVG/1.1/DTD/svg11.dtd">
<svg version="1.1" id="Calque_1" xmlns="http://www.w3.org/2000/svg" xmlns:xlink="http://www.w3.org/1999/xlink" x="0px" y="0px"
	 width="500px" height="500px" viewBox="0 0 500 500" enable-background="new 0 0 500 500" xml:space="preserve">
<g>
	<defs>
		<rect id="SVGID_1_" width="500" height="500"/>
	</defs>
	<clipPath id="SVGID_2_">
		<use xlink:href="#SVGID_1_"  overflow="visible"/>
	</clipPath>
	<path clip-path="url(#SVGID_2_)" d="M469.4,250.011c0,121.359-98.381,219.739-219.739,219.739
		c-121.359,0-219.739-98.38-219.739-219.739s98.38-219.739,219.739-219.739C371.02,30.272,469.4,128.652,469.4,250.011"/>
	<circle clip-path="url(#SVGID_2_)" fill="none" stroke="#000000" cx="249.661" cy="250.011" r="219.739"/>
	<path clip-path="url(#SVGID_2_)" fill="#5E5E5E" d="M468.102,247.441c0,117.176-96.682,212.166-215.946,212.166
		c-119.264,0-215.947-94.99-215.947-212.166S132.892,35.275,252.155,35.275C371.42,35.275,468.102,130.266,468.102,247.441"/>
	<ellipse clip-path="url(#SVGID_2_)" fill="none" stroke="#000000" cx="252.155" cy="247.441" rx="215.947" ry="212.166"/>
	<path clip-path="url(#SVGID_2_)" fill="#D2D2D2" d="M445.523,213.299c0,91.423-74.112,165.536-165.536,165.536
		c-91.423,0-165.535-74.113-165.535-165.536S188.564,47.763,279.987,47.763C371.411,47.763,445.523,121.876,445.523,213.299"/>
	<path clip-path="url(#SVGID_2_)" fill="#D2D2D2" d="M288.432,62.729c15.143,24.213-14.298,69.927-65.754,102.105
		c-51.457,32.179-105.446,38.636-120.588,14.423s14.297-69.927,65.754-102.105C219.301,44.973,273.29,38.516,288.432,62.729"/>
	<path clip-path="url(#SVGID_2_)" fill="#D2D2D2" d="M261.872,142.411c15.142,24.213-14.298,69.927-65.754,102.105
		c-51.457,32.179-105.446,38.636-120.588,14.423c-15.142-24.213,14.297-69.927,65.754-102.105
		C192.741,124.655,246.73,118.198,261.872,142.411"/>
	<path clip-path="url(#SVGID_2_)" fill="#D2D2D2" d="M256.808,201.854c15.142,24.213-14.298,69.927-65.754,102.104
		c-51.457,32.18-105.446,38.637-120.588,14.423c-15.142-24.213,14.297-69.927,65.754-102.104
		C187.677,184.098,241.666,177.641,256.808,201.854"/>
	<path clip-path="url(#SVGID_2_)" fill="#D2D2D2" d="M306.139,227.149c15.143,24.213-14.298,69.927-65.754,102.105
		c-51.457,32.179-105.446,38.636-120.588,14.423s14.297-69.927,65.754-102.105C237.008,209.394,290.997,202.936,306.139,227.149"/>
	<path clip-path="url(#SVGID_2_)" fill="#D2D2D2" d="M331.436,279.005c15.142,24.213-14.297,69.927-65.754,102.104
		c-51.457,32.18-105.446,38.636-120.588,14.423c-15.142-24.213,14.297-69.927,65.754-102.104
		C262.305,261.249,316.293,254.792,331.436,279.005"/>
	<path clip-path="url(#SVGID_2_)" fill="#D2D2D2" d="M394.675,282.803c15.143,24.213-14.298,69.927-65.754,102.105
		c-51.457,32.179-105.446,38.636-120.588,14.423s14.297-69.927,65.754-102.105S379.533,258.59,394.675,282.803"/>
	<path clip-path="url(#SVGID_2_)" fill="#D2D2D2" d="M340.837,396.799c-12.514,25.671-66.883,24.923-121.436-1.671
		c-54.554-26.593-88.635-68.961-76.122-94.631c12.513-25.67,66.882-24.922,121.436,1.671
		C319.269,328.762,353.35,371.129,340.837,396.799"/>
	<path clip-path="url(#SVGID_2_)" fill="#D2D2D2" d="M388.902,370.238c-12.513,25.67-66.882,24.922-121.435-1.671
		c-54.554-26.593-88.635-68.961-76.122-94.631s66.881-24.922,121.435,1.671C367.335,302.2,401.416,344.568,388.902,370.238"/>
	<path clip-path="url(#SVGID_2_)" fill="#D2D2D2" d="M416.729,337.356c-12.513,25.67-66.882,24.922-121.435-1.671
		c-54.554-26.594-88.635-68.961-76.122-94.631c12.513-25.67,66.882-24.922,121.435,1.671
		C395.161,269.318,429.242,311.687,416.729,337.356"/>
	<path clip-path="url(#SVGID_2_)" fill="#D2D2D2" d="M444.557,294.354c-12.513,25.67-66.882,24.922-121.436-1.671
		c-54.554-26.594-88.635-68.961-76.122-94.631s66.881-24.922,121.435,1.671C422.988,226.316,457.069,268.685,444.557,294.354"/>
	<path clip-path="url(#SVGID_2_)" fill="#5E5E5E" d="M144.527,244.568c-4.666,12.112-3.32,27.561,4.976,41.134
		c12.855,21.027,37.309,29.518,54.582,18.955c17.282-10.553,20.877-36.193,8.03-57.22c-3.337-5.445-7.481-9.987-12.041-13.644
		c1.426,1.629,2.772,3.373,3.949,5.295c10.199,16.681,6.145,37.77-9.048,47.057c-15.193,9.287-35.778,3.259-45.977-13.423
		C143.509,263.745,142.26,253.563,144.527,244.568"/>
	<path clip-path="url(#SVGID_2_)" fill="#5E5E5E" d="M260.571,266.809c-1.293-3.976-2.32-8.163-2.718-12.644
		c-2.063-23.648,10.368-44.073,27.756-45.587c17.388-1.523,33.157,16.423,35.229,40.071c0.035,0.487-0.018,0.939,0.009,1.417
		c1.266-4.684,1.823-9.686,1.363-14.865c-1.912-21.913-19.85-38.257-40.018-36.495c-20.169,1.762-34.99,20.983-33.078,42.887
		C249.991,251.599,254.329,260.318,260.571,266.809z"/>
	<path clip-path="url(#SVGID_2_)" fill="#5E5E5E" d="M273.276,339.337c-0.496,2.594-1.213,5.224-2.373,7.8
		c-6.153,13.617-19.575,20.788-29.969,16.007c-10.385-4.788-13.812-19.708-7.667-33.324c0.124-0.274,0.301-0.504,0.433-0.779
		c-2.178,2.161-4.037,4.719-5.391,7.703c-5.693,12.616-0.532,27.357,11.518,32.899c12.05,5.552,26.464-0.186,32.156-12.802
		C274.586,351.086,274.817,344.906,273.276,339.337z"/>
	<path clip-path="url(#SVGID_2_)" fill="#5E5E5E" d="M378.651,214.723c2.001-0.77,4.081-1.337,6.251-1.417
		c11.475-0.433,20.363,9.686,19.85,22.595c-0.504,12.899-10.227,23.71-21.691,24.145c-0.229,0.008-0.442-0.055-0.682-0.055
		c2.161,1.151,4.507,1.789,7.021,1.691c10.634-0.398,19.735-12.882,20.319-27.853c0.593-14.971-7.552-26.8-18.176-26.393
		C386.69,207.622,382.211,210.419,378.651,214.723z"/>
	<path clip-path="url(#SVGID_2_)" fill="#5E5E5E" d="M258.057,87.603c-1.328-3.533-2.169-7.074-1.886-10.536
		c1.514-18.247,26.614-27.136,56.017-19.858c29.403,7.277,51.997,27.977,50.483,46.224c-0.026,0.372-0.221,0.673-0.273,1.036
		c3.106-2.806,5.081-6.189,5.408-10.182c1.408-16.901-25.152-37.477-59.257-45.923c-34.104-8.446-62.94-1.585-64.348,15.317
		C243.564,71.401,248.982,79.855,258.057,87.603"/>
	<path clip-path="url(#SVGID_2_)" fill="#5E5E5E" d="M197.073,93.605c2.78,3.134,5.392,6.561,7.534,10.518
		c11.333,20.859,8.075,44.543-7.268,52.874c-15.335,8.331-36.955-1.842-48.288-22.701c-0.23-0.425-0.354-0.868-0.575-1.293
		c0.708,4.808,2.195,9.607,4.683,14.175c10.492,19.328,33.458,27.172,51.254,17.504c17.787-9.66,23.718-33.192,13.218-52.52
		C212.841,103.335,205.387,97.067,197.073,93.605"/>
</g>
</svg>
