<?xml version="1.0" encoding="utf-8"?>
<!-- Generator: Adobe Illustrator 16.0.4, SVG Export Plug-In . SVG Version: 6.00 Build 0)  -->
<!DOCTYPE svg PUBLIC "-//W3C//DTD SVG 1.1//EN" "http://www.w3.org/Graphics/SVG/1.1/DTD/svg11.dtd">
<svg version="1.1" xmlns="http://www.w3.org/2000/svg" xmlns:xlink="http://www.w3.org/1999/xlink" x="0px" y="0px" width="841.9px"
	 height="595.3px" viewBox="0 0 841.9 595.3" enable-background="new 0 0 841.9 595.3" xml:space="preserve">
<g id="chapeau">
	<path fill="#7C694A" stroke="#000000" stroke-width="0.3" stroke-miterlimit="10" d="M375.6,389.2c5.6-4.8-18.4,16.2-42.4,14.2
		s-24-38.3-25-62.2c0,0-6-52.6,0-67.4c35-106.9,192-114.9,224.5,10.1c3.9,40.8,1.5,77.7-9.5,114.2c0,0-9.6,10.2-25.1,0
		c-12.9-6.8-15.5-7.4-26.2-10.8"/>
	<path fill="#D3BB93" d="M310.4,338.2c0,0-5.8-50.8,0-65.1c40.2-108.3,186.6-109.8,216.9,9.8c0.9,13.5,4,18.5,5.6,44.4
		c-0.1-22.3-0.7-39.6-1.9-44.8c-32.4-124.5-188.8-116.5-223.7-10.1c-6,14.8-0.2,67.9-0.2,67.9c0.3,7,0.6,19.9,1.2,22.9
		C308.2,357.3,310.1,350.7,310.4,338.2z"/>
	<g opacity="0.3">
		<line fill="#41AF68" x1="492.4" y1="261.5" x2="492.4" y2="261.5"/>
		<path opacity="0.4" d="M490,258.3c-24-7.6-64-0.6-70.8-28.1c-7.9,19-24.6,13.5-70.5,26.1c-42.9,22.8-22.2,102.1-13.3,123
			c-23.3-35.8-21.4-79.3-17.3-94.7s20.2-32.2,30.7-36s63.5-7.1,71.3-26.1c6.8,27.5,56.2,13.3,76.4,30.2c1.3,1.5,19.8,10.9,24.4,29.5
			s-1.3,87.3-24,110.4C497,392.7,545.3,287.9,490,258.3z"/>
	</g>
	<path d="M320.8,270.8"/>
	<path fill="#1F1A12" d="M344.2,401.6c-0.2-0.2-0.3-0.5-0.5-0.8c-0.4-0.7-0.9-1.6-1.4-2.7c-5.2-11.2-15.2-41.8-15.8-49.2
		c4,7.3,31,36.3,48,39C366.1,393.5,353.5,398.6,344.2,401.6z"/>
	<path fill="#1F1A12" d="M494.9,396c0.3-0.2,0.7-0.8,1.1-1.5c4.4-7.3,15-40.3,15-43.8c-3.5,5.8-25.8,28.8-40.4,35.5
		c8,2.7,14.8,4.7,22.3,8.8C493.6,395.3,494.5,395.6,494.9,396z"/>
	<path fill="#A38560" d="M348,407.6"/>
	<path fill="#A38560" d="M543.5,304.1"/>
	<line stroke="#000000" stroke-width="0.2" stroke-miterlimit="10" x1="420.1" y1="228.3" x2="420.1" y2="213.3"/>
</g>
<g id="nez__x2B__ombre">
	<path fill="#7D4E24" d="M469,230"/>
	<path fill="#E65151" stroke="#000000" stroke-width="0.3" stroke-miterlimit="10" d="M456.5,192c0,11.7-16.7,21.2-37.2,21.2
		c-20.6,0-35.7-9.5-35.7-21.2c0-11.7,15.2-21.2,35.7-21.2C439.8,170.8,456.5,180.3,456.5,192z"/>
	<path opacity="0.9" fill="#E5E1DB" d="M455.7,187.8c-3.6-9.6-18.5-17-36.4-17c-17.9,0-31.7,7.4-35,17l0.4,0.9
		c4-8.8,17.4-16.1,34.5-16.1c17.2,0,31.7,7.3,36,16.2L455.7,187.8z"/>
	<path opacity="0.3" fill="#403F3A" d="M419.2,203.8c-16.9,0-30.8-6.7-35-16c-0.9,1.8-0.8,3.6-0.8,5.5c0,10.8,15.2,30,35.7,30
		c20.6,0,37.2-19.2,37.2-30c0-1.9,0.2-3.8-0.7-5.5C451.2,197,436.2,203.8,419.2,203.8z"/>
</g>
<g id="Calque_8">
	<path fill="#593324" stroke="#804933" stroke-width="0.5" stroke-miterlimit="10" d="M444.6,552.8c-1.1-5.2,2.7-4.3,9.2-4.3
		c8.2,0,8.2,2,8.2,5.5c0,2.1-1.5,2.8-8.2,2.8C444.6,556.8,445.3,556.2,444.6,552.8z"/>
	<path fill="#593324" stroke="#804933" stroke-miterlimit="10" d="M398.5,552.5c-0.4,3.4-3.2,4.3-9.2,4.3s-8.2-0.8-8.2-4.3
		c0-2.1,1.5-4,8.2-4C398.5,548.5,399,547.6,398.5,552.5z"/>
</g>
<g id="oreilles">
	<path fill="#7C694A" stroke="#000000" stroke-width="0.3" stroke-miterlimit="10" d="M334.4,226.7c-15.2-11.9-37.4-26.9-59.9-23.9
		c-9,36.5,19.5,76.5,30.9,76.4C309,263.3,320,243.7,334.4,226.7z"/>
	<path fill="#7C694A" stroke="#000000" stroke-width="0.3" stroke-miterlimit="10" d="M503.3,227.3c15.2-11.9,34.2-27.5,59.9-23.9
		c9,36.5-20.4,79.5-31.8,79.4C527.9,266.9,517.8,244.2,503.3,227.3z"/>
	<g>
		<path fill="#B09063" d="M563.2,203.6c-24.1-4-44.8,11.5-59.6,23.7c1.5,1.8,2.6,3.2,4.1,5c13.7-13.1,30.9-28,55.9-27L563.2,203.6z"
			/>
	</g>
	<path fill="#B09A75" d="M334.4,226.8c-15.2-11.9-37.4-26.9-59.9-23.9c0,0.2-0.1,0.4-0.1,0.6c21.5,3.7,40.6,17.4,54.7,29.8
		L334.4,226.8z"/>
	<path fill="#5D4F38" d="M526.5,266.8c0,0,4.9,16.1,5.9,16c9.9-1.1,32.6-30.9,32.6-63.6C562,235.1,542.3,259.5,526.5,266.8z"/>
	<path fill="#F0ABAB" stroke="#000000" stroke-width="0.3" stroke-miterlimit="10" d="M322.4,240.8c-8.2-6.4-23.8-25.7-35.9-24.1
		c-0.8,18,11,45.6,22.6,49.5C311.1,257.6,314.6,249.9,322.4,240.8z"/>
	<path opacity="0.3" fill="#785656" d="M309.1,266.2c2.7-3.8,9.6-21.5,12.9-25.4c-8.2-6.4-22.6-24.2-35.3-24.1
		c14.2,11.2,22.7,29.6,19.5,48C305.8,266.8,309,265,309.1,266.2z"/>
	<path fill="#F0ABAB" stroke="#000000" stroke-width="0.3" stroke-miterlimit="10" d="M515.4,241.4c8.2-6.4,23.8-25.7,35.9-24.1
		c0.8,18-11,45.6-22.6,49.5C526.7,258.2,523.2,250.5,515.4,241.4z"/>
	<path opacity="0.3" fill="#785656" d="M528.9,266.7c0.1-5.2-9.6-21.5-12.9-25.4c8.2-6.4,22.6-24.2,35.3-24.1
		c-20,14.1-19.1,36-18.2,44.3C533.3,263.6,529,265.6,528.9,266.7z"/>
</g>
<g id="pantalon">
	<path fill="#7A8BA9" stroke="#000000" stroke-width="0.3" stroke-miterlimit="10" d="M470.1,476.8c0.4,4.2-2.2,12.5-2.2,12.5
		c-1.6,31.6-9.5,48.6-6.7,58.3c-1.3,0.7-15.1,1.1-16.1,0.3c0-15.9-11.3-31.7-11.3-31.7c-0.5-2.4-17.1-1.4-24.8,1.5
		c-3.4,1.4-11.3,19.4-11.3,29.8c-3.2,1.2-10.7,1-13.7-0.6c-1.7-13-5.8-60.2-7.8-68.7C387.5,489.3,462.2,481.5,470.1,476.8z"/>
	<line opacity="0.7" stroke="#C0D8EC" stroke-miterlimit="10" x1="377.5" y1="478.1" x2="384.5" y2="546.1"/>
	<path opacity="0.7" fill="none" stroke="#C0D8EC" stroke-miterlimit="10" d="M459.6,547.9c0,0,1.4-14.1,1.8-17.9
		c2.6-8.9,6.1-37.8,6.1-41.4c1.6-3.8,2.6-11.9,2.6-11.9"/>
	<g>
		<path fill="#16252B" d="M445.2,547.2c0.1-2.3-0.6-4.8-0.8-7.3c-2.5-10.2-9.6-22.6-11-24.2c-1.9-1.3-17.1-1-24.2,1.8
			c-3.8,1-11.3,18.9-11.3,29.3v-7.7c0-10.5,7.3-22.4,10.6-23.9c3.8-1.7,27.1-1.7,30.3,0.6c0.8,4.5,8,16.1,8,25.4L445.2,547.2z"/>
	</g>
	<path fill="#CADBF8" d="M398.5,546.3c-1.9,1-4.8,0.6-7.6,0.6c-3.2,0-6.6,0.1-8.5-1.2l0.4-2.8c1.9,1.1,5.2,1.2,8.1,1.2
		c2.7,0,5.8,0.1,7.6-0.9V546.3z"/>
	<path fill="#CADBF8" d="M460.7,546.9c-1.9,1-4.8,0.6-7.6,0.6c-3.2,0-6.6,0.1-8.5-1.2l0.4-2.8c1.9,1.1,5.2,1.2,8.1,1.2
		c2.7,0,5.8,0.1,7.6-0.9V546.9z"/>
	<path fill="none" stroke="#2A313D" stroke-miterlimit="10" d="M464.3,493.9c-4.3-1.1-9.3-3.2-11-7.9"/>
	<g>
		<path fill="#2A313D" d="M419.8,487.5c0,0,0.1,0.4,0.1,1c0.1,0.6,0.2,1.5,0.3,2.6c0.2,2.2,0.4,5.1,0.5,8c0.1,2.9,0.1,5.8,0.1,8
			c0,1.1-0.1,2-0.1,2.7c0,0.6-0.1,1-0.1,1s-0.1-0.4-0.1-1c-0.1-0.6-0.2-1.5-0.3-2.6c-0.2-2.2-0.4-5.1-0.5-8c-0.1-2.9-0.1-5.8-0.1-8
			c0-1.1,0.1-2,0.1-2.7C419.7,487.9,419.8,487.5,419.8,487.5z"/>
	</g>
	<g>
		<line fill="#BFD5FB" x1="423.1" y1="491" x2="424.2" y2="505.7"/>
		<path fill="#2A313D" d="M423.1,491c0,0,0.2,0.9,0.5,2.3c0.2,1.4,0.5,3.2,0.6,5c0.1,1.8,0.2,3.7,0.2,5c0,1.4-0.1,2.3-0.1,2.3
			s-0.2-0.9-0.5-2.3c-0.2-1.4-0.5-3.2-0.6-5c-0.1-1.8-0.2-3.7-0.2-5C423,492,423.1,491,423.1,491z"/>
	</g>
	<path fill="none" stroke="#2A313D" stroke-miterlimit="10" d="M388.7,485.3c-1.3,4.8-4.6,8.6-8.9,10.2"/>
</g>
<g id="Calque_20">
	<path fill="#DF9553" stroke="#000000" stroke-width="0.5" stroke-miterlimit="10" d="M507.8,353.9c1.1,16.2-37.4,54.3-34.9,50.7
		c2.5-3.5,2.2-26.2,2.2-26.2c-0.8,10.3-8.3,21.8-8.4,23.2c-0.1,1.4-1.7,2.2-1.1,0.7c0.8-2.5-1.8-12.9-4.6-17.1
		c-0.2-0.2-0.9-0.1-1.3,0.4c-1,3-0.8,9.4,1.1,13.9c-7.4,1.3-11.7-8.1-12-9.2"/>
	<path fill="#DF9553" stroke="#000000" stroke-width="0.5" stroke-miterlimit="10" d="M329.6,353.9c-1.1,16.2,37.4,54.3,34.9,50.7
		c-2.5-3.5-2.2-26.2-2.2-26.2c0.8,10.3,8.3,21.8,8.4,23.2c0.1,1.4,1.7,2.2,1.1,0.7c-0.8-2.5,1.8-12.9,4.6-17.1
		c0.2-0.2,0.9-0.1,1.3,0.4c1,3,0.8,9.4-1.1,13.9c7.4,1.3,11.7-8.1,12-9.2"/>
</g>
<g id="haut">
	<path fill="#872C2A" stroke="#000000" stroke-width="0.3" stroke-miterlimit="10" d="M375.3,478c-1.2-0.7-3.1-1.2-3.1-1.2
		c3.4-3,3.8-20.2,3.8-20.2c-8-22.2-3.8-58.8,9.4-64.6c19.1,6.4,46.3,7.9,69.6,0c14.6,6.4,18.1,52.9,11.6,65.9
		c1.4,3.5,3.2,17.6,3.4,19c0,0-4.1,2-2.5,1.5C463.7,480.8,394.4,489.8,375.3,478z"/>
	<polyline fill="#801913" points="375.6,456.5 373.1,441.6 379.4,441.6 	"/>
	<path fill="#801913" d="M464.3,445.9c0,0,2.3-0.4,5.4-0.2c-0.8,6.2-2.3,12-3,13.4L464.3,445.9z"/>
	<path display="none" fill="none" stroke="#000000" stroke-width="0.5" stroke-miterlimit="10" d="M457.3,414.5
		c5.2,19.6,9.5,45,9.5,45c5-13.8,4.5-31.8,0.5-46.4"/>
	<g>
		<path fill="#9E4441" d="M455.8,392.3c-9.7,3-21.6,4.8-34.3,4.8c-13.5,0-26-2-36-5.3l-3.9,3c9.1,8,23.9,12.1,39.3,12.1
			c15.1,0,28.6-4.7,37.7-12.3L455.8,392.3"/>
	</g>
	<g>
		<path fill="#9E4441" d="M453.8,406.3c-6.3,5.4-19.7,12.2-32.5,12.2c-13.5,0-25.7-3.3-32.6-10.5l-4.7,15.9
			c9.1,8,21.5,10.6,36.9,10.6c15.1,0,27.2-6.1,36.3-13.7L453.8,406.3z"/>
	</g>
	<g>
		<path fill="#9E4441" d="M466.1,453.3c-9.1,7.6-30.1,15.4-45.2,15.4c-15.5,0-33.3-6.2-43.7-16.4l2.1-14.4c7.1,6,28.7,9.8,42.2,9.8
			c12.8,0,33.1-2.7,40.4-9.8L466.1,453.3z"/>
	</g>
	<path fill="#9E4441" d="M468.6,419.1c-3,1.1-6.2,2.1-9.4,3l2.2,9.7c3-0.7,5.8-1.6,8.7-2.5 M384.4,422.2c-3.9-1.1-7.6-2.3-11.2-3.6
		l-0.7,10.5c3,1,6.1,1.9,9.3,2.7"/>
	<path fill="#801913" d="M379.3,441.8"/>
	<line display="none" fill="none" x1="390.8" y1="400.7" x2="375.6" y2="456.5"/>
	<path display="none" fill="none" stroke="#000000" stroke-width="0.5" stroke-miterlimit="10" d="M393,395.3
		c-1.7,3.3-3.9,10.3-6.3,18.4c-5.3,18.5-11,42.8-11,42.8c-5.9-23.2-4.1-54.9,9.4-64.6L393,395.3z"/>
	<g>
		<line fill="#311201" x1="376.1" y1="455.5" x2="387.6" y2="413.2"/>
		<path fill="#3F0400" d="M375.9,455.5c0,0,0-0.2,0-0.5c0-0.3,0-0.8,0-1.4c0-1.2,0.1-3,0.4-5c0.1-1,0.2-2.2,0.4-3.3
			c0.2-1.2,0.4-2.4,0.6-3.7c0.3-1.3,0.5-2.6,0.8-3.9c0.3-1.3,0.7-2.6,1-4c0.4-1.3,0.8-2.6,1.2-3.9c0.4-1.3,0.9-2.5,1.3-3.8
			c0.4-1.2,0.9-2.4,1.3-3.5c0.4-1.1,0.9-2.1,1.3-3.1c0.8-1.9,1.6-3.5,2.2-4.5c0.3-0.5,0.6-1,0.7-1.2c0.2-0.3,0.3-0.4,0.3-0.4
			l0.3,0.1c0,0-0.7,2.7-1.7,6.6c-1.1,4-2.5,9.3-3.9,14.6c-1.5,5.3-2.9,10.6-4,14.5c-1.1,4-1.9,6.6-1.9,6.6L375.9,455.5z"/>
	</g>
	<g>
		<line fill="#311201" x1="455.5" y1="414.2" x2="467" y2="456.5"/>
		<path fill="#3F0400" d="M455.6,414.1c0,0,0.1,0.2,0.3,0.4c0.2,0.3,0.4,0.7,0.7,1.2c0.6,1.1,1.4,2.6,2.2,4.5c0.4,1,0.9,2,1.3,3.1
			c0.4,1.1,0.9,2.3,1.3,3.5c0.4,1.2,0.9,2.5,1.2,3.8c0.4,1.3,0.8,2.6,1.2,3.9c0.3,1.3,0.7,2.7,1,4c0.3,1.3,0.6,2.6,0.8,3.9
			c0.3,1.3,0.5,2.5,0.6,3.7c0.2,1.2,0.3,2.3,0.4,3.3c0.2,2.1,0.3,3.8,0.4,5c0,0.6,0,1.1,0,1.4c0,0.3,0,0.5,0,0.5l-0.3,0.1
			c0,0-0.7-2.6-1.9-6.6c-1.1-4-2.6-9.3-4-14.5c-1.4-5.3-2.8-10.6-3.9-14.6c-1-4-1.7-6.6-1.7-6.6L455.6,414.1z"/>
	</g>
	<g>
		<path fill="#9E4441" d="M372.3,476.8"/>
		<path fill="#9E4441" d="M470.1,476.5"/>
	</g>
	<path fill="#872C2A" stroke="#000000" stroke-width="0.3" stroke-miterlimit="10" d="M372.6,477.5"/>
	<path opacity="0.4" fill="#05113B" d="M373.1,478.1 M434.2,483.3c-4.5,0.4-7.8,0.5-12.3,0.5c-1.1,0-3,0.2-4.1,0.2l-44.7-5.8
		c14.7,6.5,31,10.1,48.1,10.1c17.6,0,34.4-3.8,49.5-10.7L434.2,483.3z"/>
	<g>
		<path fill="#872C2A" d="M433.8,483.5l36.3-6l-1.1-7.5c-10.7,7-22.6,11.7-35.3,13.6C433.7,483.5,433.8,483.5,433.8,483.5z"/>
		<path fill="#872C2A" d="M372.5,478.1l27.1,3.9c-8.8-2.2-17.3-5.8-25.1-10.5L372.5,478.1L372.5,478.1"/>
	</g>
</g>
<g id="tete">
	<path fill="#FFE9D8" stroke="#000000" stroke-miterlimit="10" d="M517.8,304c0,49.5-11.6,61.2-35,75.5c-15.1,9.2-32.7,17.5-64,17.5
		c-57.2-0.2-110-43.8-99.2-89.8c0-50.8,32-59.2,98.2-59.2S517.8,256.7,517.8,304z"/>
	<g id="NewCheveux" display="none">
		<path display="inline" opacity="0.7" fill="#CA7326" d="M366.8,251.5c-28.5,9-25.6,20-27.1,36c13.1,9.3,30.6,11.6,46.3,4.4
			c15.7-7.1,31.8-45.8,33.3-61.8C415.3,246.3,378.8,249.6,366.8,251.5z"/>
		<g display="inline" opacity="0.7">
			<g>
				<path fill="#F7F3F0" d="M412.6,242.5c0.6,4.9-5.1,7.6-8.7,9.6c-2.1,1.2-4.1,2.5-6.1,3.9c-9.7,7-19,14.9-25.5,25.1
					c0.2-0.2,0.7-0.2,0.9-0.5c6.6-10.2,15.8-18,25.5-25.1c2.8-2,5.8-3.5,8.7-5.3c3-1.8,6.5-4.2,6-8.1
					C413.4,242.2,412.6,242.4,412.6,242.5L412.6,242.5z"/>
			</g>
		</g>
		<g display="inline" opacity="0.7">
			<g>
				<path fill="#F7F3F0" d="M405.8,245.3c-3,7.9-9.4,13.6-16.2,18.1c-4.4,2.9-9.2,5.4-13.8,7.9c-4.4,2.4-9.1,4.8-14.1,5.5
					c-0.3,0-0.6,0.5-0.9,0.5c5.4-0.7,10.2-3.4,14.9-5.9c3.6-2,7.2-3.9,10.7-6c8.4-4.9,16.7-11.1,20.2-20.5
					C406.6,245,405.9,245,405.8,245.3L405.8,245.3z"/>
			</g>
		</g>
		<g display="inline" opacity="0.7">
			<g>
				<path fill="#F7F3F0" d="M402.3,247c-7.2,5.9-14.8,11.3-21.8,17.5c-7.3,6.5-15.8,11.7-25.6,13c-0.3,0-0.6,0.5-0.9,0.5
					c7.7-1.1,14.7-4.5,21-8.9c4.8-3.3,9-7.5,13.5-11.1c4.8-3.9,9.8-7.6,14.6-11.5C402.9,246.7,402.6,246.8,402.3,247L402.3,247z"/>
			</g>
		</g>
		<g display="inline" opacity="0.7">
			<g>
				<path fill="#F7F3F0" d="M396.3,251c-11.3,12.7-25.2,22.6-36.2,35.5c0.2-0.2,0.7-0.3,0.9-0.5c11-12.9,25-22.8,36.2-35.5
					C397,250.8,396.5,250.8,396.3,251L396.3,251z"/>
			</g>
		</g>
		<g display="inline" opacity="0.7">
			<g>
				<path fill="#F7F3F0" d="M387.3,256.8c-9.2,13.5-25.4,21.6-41.6,22c-0.3,0-0.6,0.5-0.9,0.5c16.6-0.4,33.9-9.1,43.4-23
					C388,256.5,387.5,256.5,387.3,256.8L387.3,256.8z"/>
			</g>
		</g>
		<g display="inline" opacity="0.7">
			<g>
				<path fill="#F7F3F0" d="M397.8,254.5c-3.4,6.8-9,12.2-14.7,17.2c-2.7,2.4-5.5,4.7-8.3,7c-3.6,3.1-7.5,6.2-12.2,7.5
					c-0.3,0.1-0.6,0.4-0.9,0.5c6.5-1.8,11.8-6.8,16.8-11c7.5-6.4,15.5-12.7,20-21.7C398.6,254.3,397.9,254.3,397.8,254.5
					L397.8,254.5z"/>
			</g>
		</g>
		<g display="inline" opacity="0.7">
			<g>
				<path fill="#F7F3F0" d="M394.6,262.8c-3.3,7-10.3,10.9-17.4,13.2c-6.4,2.1-13.5,3.2-20.2,2.5c-0.3,0-0.6,0.5-0.9,0.5
					c8.5,0.8,17.3-1,25.1-4.4c5.8-2.6,11.5-6.5,14.3-12.4C395.3,262.5,394.7,262.5,394.6,262.8L394.6,262.8z"/>
			</g>
		</g>
		<g display="inline" opacity="0.7">
			<g>
				<path fill="#F7F3F0" d="M409.8,243.3c-2.7,11.9-14.3,19.7-22.8,27.5c0.2-0.2,0.6-0.3,0.9-0.5c8.4-7.8,20.1-15.6,22.8-27.5
					C410.6,243,409.9,243.1,409.8,243.3L409.8,243.3z"/>
			</g>
		</g>
		<g display="inline" opacity="0.7">
			<g>
				<path fill="#F7F3F0" d="M402.1,249.5c-3.2,11.9-11.6,21.3-19.8,30.2c0.2-0.2,0.7-0.3,0.9-0.5c8.1-8.9,16.6-18.3,19.8-30.2
					C402.9,249.3,402.1,249.3,402.1,249.5L402.1,249.5z"/>
			</g>
		</g>
		<g display="inline" opacity="0.7">
			<g>
				<path fill="#F7F3F0" d="M403.8,251.3c-3.5,10.3-9.5,19.5-14.2,29.2c0.1-0.2,0.7-0.2,0.9-0.5c4.8-9.7,10.7-18.9,14.2-29.2
					C404.6,251,403.9,251,403.8,251.3L403.8,251.3z"/>
			</g>
		</g>
		<g display="inline" opacity="0.7">
			<g>
				<path fill="#F7F3F0" d="M403.1,256c-2.5,11.7-9.2,21.5-16.5,30.8c0.2-0.2,0.7-0.3,0.9-0.5c7.3-9.3,14-19,16.5-30.8
					C403.9,255.7,403.1,255.8,403.1,256L403.1,256z"/>
			</g>
		</g>
		<g display="inline" opacity="0.7">
			<g>
				<path fill="#F7F3F0" d="M405.3,255.5c-2.1,13.4-14.8,22.9-24.5,31c0.3-0.2,0.6-0.3,0.9-0.5c9.7-8.1,22.4-17.6,24.5-31
					C406.2,255.2,405.4,255.3,405.3,255.5L405.3,255.5z"/>
			</g>
		</g>
		<g display="inline" opacity="0.7">
			<g>
				<path fill="#F7F3F0" d="M394.3,260c-6.9,9-15.5,16.4-24.2,23.5c0.3-0.2,0.6-0.3,0.9-0.5c8.8-7.1,17.4-14.5,24.2-23.5
					C395,259.8,394.5,259.8,394.3,260L394.3,260z"/>
			</g>
		</g>
		<g display="inline" opacity="0.7">
			<g>
				<path fill="#F7F3F0" d="M394.3,257.3c-2.2,9.6-9.1,16.8-16.8,22.5c0.3-0.2,0.6-0.3,0.9-0.5c7.7-5.7,14.6-12.9,16.8-22.5
					C395.1,257,394.4,257.1,394.3,257.3L394.3,257.3z"/>
			</g>
		</g>
		<g display="inline" opacity="0.7">
			<g>
				<path fill="#F7F3F0" d="M389.6,271c-1.8,6.4-4.1,12.7-6.2,19c0.1-0.2,0.8-0.3,0.9-0.5c2.2-6.3,4.5-12.6,6.2-19
					C390.4,270.8,389.6,270.8,389.6,271L389.6,271z"/>
			</g>
		</g>
		<g display="inline" opacity="0.7">
			<g>
				<path fill="#F7F3F0" d="M393.3,271c-2.4,3.2-4.9,6.2-7.5,9.2c-1.2,1.4-2.4,2.8-3.6,4.1c-1,1.1-1.7,2.6-2.8,3.5
					c0.3-0.2,0.6-0.3,0.9-0.5c-0.6,0.1-0.7-0.1-1-0.5c0,0-0.8,0.5-0.9,0.5c1.3,1.7,3.1-1.3,3.7-2.2c1.7-2.4,4-4.5,5.9-6.7
					c2.2-2.5,4.3-5.1,6.3-7.8C394,270.8,393.5,270.8,393.3,271L393.3,271z"/>
			</g>
		</g>
		<g display="inline" opacity="0.7">
			<g>
				<path fill="#F7F3F0" d="M387.8,267c-5,9-13.2,15.4-18.8,24c0.2-0.2,0.7-0.2,0.9-0.5c5.5-8.6,13.8-15,18.8-24
					C388.5,266.8,388,266.8,387.8,267L387.8,267z"/>
			</g>
		</g>
		<g display="inline" opacity="0.7">
			<g>
				<path fill="#F7F3F0" d="M388.9,272.8c-20.3,5.5-41.1,8-61.8,11.8c-0.3,0.1-0.6,0.4-0.9,0.5c20.6-3.8,41.5-6.3,61.8-11.8
					C388.4,273.2,388.6,272.9,388.9,272.8L388.9,272.8z"/>
			</g>
		</g>
		<g display="inline" opacity="0.7">
			<g>
				<path fill="#F7F3F0" d="M380.1,266.5c-5.7,7-13.9,11-21.7,15.3c-0.2,0.1-0.8,0.5-0.7,0.4c8.2-4.5,17.3-8.8,23.3-16.2
					C380.7,266.3,380.3,266.3,380.1,266.5L380.1,266.5z"/>
			</g>
		</g>
		<g display="inline" opacity="0.7">
			<g>
				<path fill="#F7F3F0" d="M390.1,255c-12.6,9-27.5,13.8-41.6,20c-0.3,0.1-0.6,0.4-0.9,0.5c14.7-6.4,30.2-11.6,43.4-21
					C390.7,254.7,390.3,254.8,390.1,255L390.1,255z"/>
			</g>
		</g>
		<g display="inline" opacity="0.7">
			<g>
				<path fill="#F7F3F0" d="M370.1,261c-8.8,6.6-18.4,12-28.9,15.5c-0.3,0.1-0.6,0.4-0.9,0.5c11.1-3.7,21.3-9.5,30.6-16.5
					C370.7,260.7,370.3,260.8,370.1,261L370.1,261z"/>
			</g>
		</g>
		<g display="inline" opacity="0.7">
			<g>
				<path fill="#F7F3F0" d="M373.6,257c-5.1,7.2-12.6,12.2-17.8,19.2c0.2-0.2,0.7-0.3,0.9-0.5c5.2-7.1,12.7-12.1,17.8-19.2
					C374.3,256.8,373.7,256.8,373.6,257L373.6,257z"/>
			</g>
		</g>
		<g display="inline" opacity="0.7">
			<g>
				<path fill="#F7F3F0" d="M393.6,252.5c-5.3,9.8-16.1,13.8-26.1,17c-0.3,0.1-0.6,0.4-0.9,0.5c10.5-3.3,22.3-7.7,27.9-18
					C394.3,252.3,393.7,252.3,393.6,252.5L393.6,252.5z"/>
			</g>
		</g>
		<g display="inline" opacity="0.7">
			<g>
				<path fill="#F7F3F0" d="M384.6,250.3c-2.3,5.7-6.8,10.1-11.5,13.9c-5.5,4.5-11.7,8.1-17.8,11.7c-0.3,0.2,0.5-0.3,0.6-0.3
					c5.4-3.2,10.7-6.4,15.8-10.1c5.6-4.1,11.2-9.2,13.9-15.7C385.3,250,384.7,250,384.6,250.3L384.6,250.3z"/>
			</g>
		</g>
		<g display="inline" opacity="0.7">
			<g>
				<path fill="#F7F3F0" d="M384.6,257.5c-1.5,5.2-3.8,10.1-7.8,14c0.2-0.2,0.6-0.3,0.9-0.5c4-3.9,6.2-8.8,7.8-14
					C385.4,257.3,384.6,257.3,384.6,257.5L384.6,257.5z"/>
			</g>
		</g>
		<g display="inline" opacity="0.7">
			<g>
				<path fill="#F7F3F0" d="M384.1,253c-5.6,7.3-12.7,13-20,18.5c0.3-0.2,0.6-0.3,0.9-0.5c7.3-5.5,14.4-11.2,20-18.5
					C384.7,252.8,384.3,252.8,384.1,253L384.1,253z"/>
			</g>
		</g>
		<g display="inline" opacity="0.7">
			<g>
				<path fill="#F7F3F0" d="M385.1,246.8c-10.8,13.3-26.5,24.4-43.4,28c-0.3,0.1-0.6,0.4-0.9,0.5c17.3-3.7,34.1-15.4,45.1-29
					C385.7,246.5,385.3,246.5,385.1,246.8L385.1,246.8z"/>
			</g>
		</g>
		<g display="inline" opacity="0.7">
			<g>
				<path fill="#F7F3F0" d="M351.8,256.3c0,4.6-0.6,9.2,0.2,13.8c0-0.1,0.9-0.4,0.9-0.5c-0.9-4.6-0.3-9.1-0.2-13.8
					C352.7,255.9,351.8,256.1,351.8,256.3L351.8,256.3z"/>
			</g>
		</g>
		<g display="inline" opacity="0.7">
			<g>
				<path fill="#F7F3F0" d="M384.8,255.8c-8.4,8.8-17.6,16.9-28,23.2c0.3-0.2,0.6-0.3,0.9-0.5c-0.5-1,0-1.4,1-2
					c-0.2,0.1-0.6,0.3-0.8,0.5c-0.8,0.5-1.5,1-1,2c0,0,0.8-0.4,0.9-0.5c10.4-6.4,19.6-14.4,28-23.3
					C385.5,255.5,385,255.5,384.8,255.8L384.8,255.8z"/>
			</g>
		</g>
		<g display="inline" opacity="0.7">
			<g>
				<path fill="#F7F3F0" d="M382.6,262.8c-4.7,2.9-9.2,6.3-14.3,8.5c-1.9,0.8-3.8,1.2-5.8,1.3c-0.1,0,1.7-3,1.9-3.2
					c0.8-0.9,1.7-1.7,2.6-2.5c-0.2,0.2-0.6,0.3-0.9,0.5c-1.1,1-2.2,1.9-3.1,3.1c-0.5,0.6-0.8,1.3-1.1,1.9c-0.6,1.3,0.8,0.7,1.6,0.6
					c2.8-0.4,5.6-1.7,8-3.1c4.1-2.3,7.9-5,11.9-7.5C383.2,262.4,382.8,262.6,382.6,262.8L382.6,262.8z"/>
			</g>
		</g>
		<g display="inline" opacity="0.7">
			<g>
				<path fill="#F7F3F0" d="M374.6,264.3c0.3,1.1,1,2,2,2.5c0.2,0.1,0.7-0.6,0.9-0.5c-1-0.5-1.7-1.4-2-2.5
					C375.5,263.9,374.5,264.2,374.6,264.3L374.6,264.3z"/>
			</g>
		</g>
	</g>
	<g opacity="0.3">
		<path d="M338.2,273.6"/>
		<path d="M511.1,274.7c4,7.6,4.3,17.4,4.3,29.4c0,46.2-13.2,60.1-35,73.4c-14.1,8.6-32.2,16.8-61.4,16.8
			c-53.5-0.2-106.3-42.9-96.2-85.9c0-12-3.5-22.6,1.7-29.2c-5.6,9-4.6,17.1-4.6,28.1c-10.8,46,42,89.5,99.2,89.8
			c31.3,0,48.9-8.3,64-17.5c23.4-14.2,35-26,35-75.5C518,292.9,519.3,282,511.1,274.7z"/>
	</g>
	<g id="taches_de_rousseur">
		<radialGradient id="SVGID_1_" cx="375.7002" cy="361.7725" r="12.041" gradientUnits="userSpaceOnUse">
			<stop  offset="0.3152" style="stop-color:#E86E70;stop-opacity:0.5"/>
			<stop  offset="0.4344" style="stop-color:#EA7F81;stop-opacity:0.413"/>
			<stop  offset="0.6714" style="stop-color:#EEACAD;stop-opacity:0.2399"/>
			<stop  offset="1" style="stop-color:#F4F4F4;stop-opacity:0"/>
		</radialGradient>
		<circle fill="url(#SVGID_1_)" cx="375.7" cy="361.8" r="12"/>
		<radialGradient id="SVGID_2_" cx="471.2363" cy="361.7725" r="12.041" gradientUnits="userSpaceOnUse">
			<stop  offset="0.3152" style="stop-color:#E86E70;stop-opacity:0.5"/>
			<stop  offset="0.4344" style="stop-color:#EA7F81;stop-opacity:0.413"/>
			<stop  offset="0.6714" style="stop-color:#EEACAD;stop-opacity:0.2399"/>
			<stop  offset="1" style="stop-color:#F4F4F4;stop-opacity:0"/>
		</radialGradient>
		<circle fill="url(#SVGID_2_)" cx="471.2" cy="361.8" r="12"/>
		<circle fill="#65311D" cx="473" cy="370.4" r="0.7"/>
		<circle fill="#65311D" cx="375.6" cy="359.5" r="0.7"/>
		<circle fill="#65311D" cx="465.5" cy="357.1" r="0.7"/>
		<circle fill="#65311D" cx="366.2" cy="355" r="0.7"/>
		<circle fill="#65311D" cx="464.5" cy="366.5" r="0.7"/>
		<circle fill="#65311D" cx="378.3" cy="361.9" r="0.7"/>
		<circle fill="#65311D" cx="478.3" cy="356.6" r="0.7"/>
		<circle fill="#65311D" cx="370.2" cy="369.7" r="0.7"/>
		<circle fill="#65311D" cx="475.2" cy="364" r="0.7"/>
		<circle fill="#65311D" cx="381" cy="351.1" r="0.7"/>
	</g>
	<g id="nez">
		<line fill="none" stroke="#000000" stroke-miterlimit="10" x1="418.7" y1="350.8" x2="418.7" y2="344.9"/>
		<path fill="none" stroke="#000000" stroke-miterlimit="10" d="M418.7,362.7c-3.2,0-5.8-2.6-5.8-5.8l0,0c0-3.2,2.6-5.8,5.8-5.8"/>
		<path opacity="0.15" d="M418.9,363.4c-0.6,1.3-2.5,1.7-4.2,0.9c-1.7-0.8-2.6-2.5-1.9-3.8"/>
	</g>
	<g id="yeux">
		<path fill="#59483B" d="M387.9,296.3c2.8,1.1,7.2,2,11.4,8.4c-4.4-3.2-10.6-6-13.1-6c-2.4-1-9.5-2.9-24.2-0.4
			c0,0-10.9,1.2-12.9,0.8S378.4,292.4,387.9,296.3z"/>
		<path fill="#59483B" d="M457,296.3c-2.8,1.1-7.2,2-11.4,8.4c4.4-3.2,10.6-6,13.1-6c2.4-1,9.5-2.9,24.2-0.4c0,0,10.9,1.2,12.9,0.8
			S466.5,292.4,457,296.3z"/>
		<path fill="#FFFFFF" stroke="#000000" stroke-miterlimit="10" d="M390,320.5c0,8.5-4.4,21-17.4,21s-17.3-8.6-17.3-21
			c0-11,12.4-16,17.3-16C381.7,304.5,390,313.6,390,320.5z"/>
		<path fill="#FFFFFF" stroke="#000000" stroke-miterlimit="10" d="M454,325.6c-0.7-8.5,3.7-21.1,16.7-21.1c11,0,17.7,8.3,17.7,20.8
			c0,9.3-6.3,16.2-17.7,16.2C457.7,341.5,454.5,331.5,454,325.6z"/>
		<path d="M388.5,320.6c0,8.2-6.2,14.8-13,14.8c-8.3,0-12.3-6.6-12.3-14.8s7.2-13.3,12.7-13.3S388.5,312.5,388.5,320.6z"/>
		<path d="M480,319.8c0,8.2-4.5,15.6-11.3,15.6c-8.3,0-12.7-6.9-12.7-15.1s6.5-13,11.9-13C473.3,307.3,480,311.6,480,319.8z"/>
		<circle fill="#FFFCF5" cx="371.2" cy="323" r="2.5"/>
		<circle fill="#FFFCF5" cx="370.8" cy="315.2" r="4.6"/>
		<circle fill="#FFFCF5" cx="461.5" cy="315.9" r="4"/>
		<circle fill="#FFFCF5" cx="462.3" cy="324.6" r="2.5"/>
	</g>
	<g id="cheveux">
		<path opacity="0.1" d="M491,263.3c1.3,1.5,1.4,4.4,1.4,5.9C486.9,278,469,285,469,285c2-3.2,3.4-4.8,11.2-13.4
			c-27.8,27.2-66.5,32.5-66.5,32.5c5.2-3.4,32.2-20.4,41.2-33.6c-13,25.8-92.3,40.3-85.9,37.7s23.3-35.3,23.3-35.3
			c-10.2,14.8-29.7,24.3-31,26.3s-4.1,1.5-2,0c3.2-3,9.2-21.5,9.3-31c-0.2-0.5-1-1.1-2-0.8c-3.9,3.5-4.3,10.2-5.9,19.2
			c-10.5-6-12.6-21.7-12-23.7c45.8-12.6,63.5-9,71.3-28C426.9,262.3,470.8,246.4,491,263.3z"/>
		<path fill="#DF9553" stroke="#000000" stroke-width="0.5" stroke-miterlimit="10" d="M496.6,260.4c1.3,1.5-1.1,3.5-1.1,5
			c-5.5,8.8-23.2,15.5-23.2,15.5c2-3.2,2.7-5.2,10.5-13.8c-27.8,27.2-59.7,28.8-59.7,28.8c5.2-3.4,22.8-18.8,31.8-32
			c-13,25.8-95,42.5-88.7,39.8s26-37.5,26-37.5c-10.2,14.8-29.7,24.3-31,26.3s-4.1,1.5-2,0c3.2-3,9.2-21.5,9.3-31
			c-0.2-0.5-1-1.1-2-0.8c-3.9,3.5-9.3,13.3-11,22.3c-10.5-6-7.5-24.8-6.9-26.8c44.2-17.3,63.5-9,71.3-28
			C426.9,255.8,476.4,243.5,496.6,260.4z"/>
		<path fill="#DF9553" stroke="#000000" stroke-width="0.5" stroke-miterlimit="10" d="M373.5,488.5"/>
	</g>
</g>
<g id="Calque_19">
	<path fill="none" stroke="#000000" stroke-miterlimit="10" d="M404.9,375c5.8,2.3,12.7,3.7,20.2,3.7c3.5,0,6.8-0.3,10-0.8"/>
	<path fill="none" stroke="#000000" stroke-miterlimit="10" d="M427.1,387.2c-2.9-0.2-5.8-0.5-8.6-0.9"/>
</g>
</svg>
