<?xml version="1.0" encoding="utf-8"?>
<!-- Generator: Adobe Illustrator 16.0.4, SVG Export Plug-In . SVG Version: 6.00 Build 0)  -->
<!DOCTYPE svg PUBLIC "-//W3C//DTD SVG 1.1//EN" "http://www.w3.org/Graphics/SVG/1.1/DTD/svg11.dtd">
<svg version="1.1" id="Calque_1" xmlns="http://www.w3.org/2000/svg" xmlns:xlink="http://www.w3.org/1999/xlink" x="0px" y="0px"
	 width="452px" height="575px" viewBox="193.45 15.15 452 575" enable-background="new 193.45 15.15 452 575" xml:space="preserve">
<g id="chapeau">
	<path fill="#7C694A" stroke="#000000" stroke-width="0.3" stroke-miterlimit="10" d="M356.089,340.649
		c8.124-6.963-26.695,23.503-61.514,20.602s-34.819-55.564-36.27-90.238c0,0-8.705-76.311,0-97.783
		C309.083,18.142,536.854,6.536,584.005,187.883c5.658,59.192,2.176,112.726-13.782,165.679c0,0-13.927,14.798-36.414,0
		c-18.716-9.865-22.487-10.736-38.011-15.668"/>
	<path fill="#D3BB93" d="M261.497,266.66c0,0-8.414-73.699,0-94.445c58.322-157.12,270.716-159.296,314.674,14.217
		c1.305,19.585,5.803,26.839,8.124,64.415c-0.145-32.354-1.017-57.452-2.758-64.996C534.534,5.23,307.632,16.836,256.999,171.199
		c-8.705,21.471-0.289,98.508-0.289,98.508c0.435,10.155,0.87,28.869,1.74,33.222C258.305,294.371,261.063,284.795,261.497,266.66z"
		/>
	<g opacity="0.3">
		<line fill="none" x1="525.539" y1="155.385" x2="525.539" y2="155.385"/>
		<path opacity="0.4" enable-background="new    " d="M522.057,150.742c-34.818-11.025-92.85-0.87-102.716-40.766
			c-11.46,27.564-35.688,19.585-102.28,37.865c-62.239,33.079-32.208,148.125-19.295,178.447
			c-33.803-51.938-31.047-115.048-25.098-137.389c5.948-22.343,29.306-46.715,44.539-52.228
			c15.233-5.514,92.125-10.301,103.44-37.866c9.865,39.896,81.533,19.295,110.84,43.814c1.886,2.176,28.725,15.814,35.397,42.798
			c6.675,26.984-1.886,126.652-34.818,160.166C532.214,345.727,602.286,193.686,522.057,150.742z"/>
	</g>
	<path d="M276.585,168.877"/>
	<path fill="#1F1A12" d="M310.533,358.639c-0.291-0.29-0.435-0.725-0.726-1.16c-0.581-1.016-1.306-2.322-2.031-3.917
		c-7.543-16.249-22.051-60.643-22.922-71.379c5.803,10.591,44.974,52.663,69.638,56.58
		C342.306,346.887,324.026,354.288,310.533,358.639z"/>
	<path fill="#1F1A12" d="M529.166,350.514c0.435-0.289,1.016-1.16,1.597-2.176c6.383-10.591,21.762-58.466,21.762-63.544
		c-5.078,8.414-37.432,41.782-58.612,51.503c11.606,3.917,21.472,6.818,32.353,12.767C527.28,349.5,528.587,349.935,529.166,350.514
		z"/>
	<path fill="#A38560" d="M316.046,367.344"/>
	<path fill="#A38560" d="M599.675,217.189"/>
	
		<line fill="none" stroke="#000000" stroke-width="0.2" stroke-miterlimit="10" x1="420.648" y1="107.219" x2="420.648" y2="85.458"/>
</g>
<g id="nez__x2B__ombre">
	<path fill="#7D4E24" d="M491.592,109.686"/>
	<path fill="#E65151" stroke="#000000" stroke-width="0.3" stroke-miterlimit="10" d="M473.457,54.556
		c0,16.974-24.229,30.757-53.969,30.757c-29.887,0-51.793-13.783-51.793-30.757c0-16.975,22.052-30.757,51.793-30.757
		S473.457,37.582,473.457,54.556z"/>
	<path opacity="0.9" fill="#E5E1DB" enable-background="new    " d="M472.295,48.463C467.073,34.536,445.456,23.8,419.488,23.8
		c-25.969,0-45.99,10.736-50.778,24.663l0.581,1.307c5.803-12.767,25.244-23.357,50.052-23.357c24.954,0,45.99,10.591,52.229,23.501
		L472.295,48.463z"/>
	<path opacity="0.3" fill="#403F3A" enable-background="new    " d="M419.342,71.675c-24.517,0-44.684-9.719-50.777-23.212
		c-1.307,2.613-1.161,5.224-1.161,7.979c0,15.669,22.052,43.523,51.793,43.523c29.886,0,53.97-27.854,53.97-43.523
		c0-2.756,0.29-5.513-1.017-7.979C465.766,61.81,444.005,71.675,419.342,71.675z"/>
</g>
<g id="Calque_8">
	<path fill="#593324" stroke="#804933" stroke-width="0.5" stroke-miterlimit="10" d="M456.192,577.998
		c-1.596-7.545,3.917-6.24,13.348-6.24c11.896,0,11.896,2.902,11.896,7.979c0,3.048-2.177,4.063-11.896,4.063
		C456.192,583.801,457.208,582.929,456.192,577.998z"/>
	<path fill="#593324" stroke="#804933" stroke-miterlimit="10" d="M389.312,577.561c-0.581,4.933-4.644,6.239-13.349,6.239
		c-8.705,0-11.896-1.162-11.896-6.239c0-3.046,2.176-5.804,11.896-5.804C389.312,571.758,390.037,570.453,389.312,577.561z"/>
</g>
<g id="oreilles">
	<path fill="#7C694A" stroke="#000000" stroke-width="0.3" stroke-miterlimit="10" d="M296.316,104.899
		c-22.052-17.265-54.26-39.027-86.902-34.674c-13.057,52.953,28.29,110.984,44.83,110.84
		C259.466,157.996,275.425,129.562,296.316,104.899z"/>
	<path fill="#7C694A" stroke="#000000" stroke-width="0.3" stroke-miterlimit="10" d="M541.352,105.768
		c22.053-17.263,49.617-39.896,86.901-34.673c13.057,52.954-29.595,115.337-46.135,115.191
		C577.042,163.22,562.389,130.287,541.352,105.768z"/>
	<g>
		<path fill="#B09063" d="M628.254,71.386c-34.964-5.803-64.995,16.684-86.466,34.382c2.176,2.613,3.771,4.643,5.947,7.254
			c19.876-19.004,44.83-40.622,81.1-39.171L628.254,71.386z"/>
	</g>
	<path fill="#B09A75" d="M296.316,105.043c-22.052-17.264-54.26-39.025-86.902-34.673c0,0.291-0.145,0.58-0.145,0.87
		c31.191,5.368,58.901,25.244,79.357,43.233L296.316,105.043z"/>
	<path fill="#5D4F38" d="M575.011,163.074c0,0,7.107,23.358,8.559,23.212c14.363-1.595,47.296-44.828,47.296-92.269
		C626.513,117.086,597.933,152.484,575.011,163.074z"/>
	<path fill="#F0ABAB" stroke="#000000" stroke-width="0.3" stroke-miterlimit="10" d="M278.907,125.354
		c-11.897-9.284-34.528-37.284-52.083-34.963c-1.161,26.114,15.958,66.155,32.789,71.813
		C262.513,149.728,267.591,138.557,278.907,125.354z"/>
	<path opacity="0.3" fill="#785656" enable-background="new    " d="M259.612,162.204c3.916-5.513,13.927-31.192,18.714-36.851
		c-11.896-9.284-32.787-35.107-51.212-34.963c20.601,16.249,32.933,42.942,28.29,69.637
		C254.823,163.074,259.466,160.463,259.612,162.204z"/>
	<path fill="#F0ABAB" stroke="#000000" stroke-width="0.3" stroke-miterlimit="10" d="M558.907,126.225
		c11.896-9.286,34.527-37.285,52.083-34.965c1.16,26.114-15.958,66.156-32.788,71.813
		C575.301,150.598,570.222,139.427,558.907,126.225z"/>
	<path opacity="0.3" fill="#785656" enable-background="new    " d="M578.492,162.929c0.146-7.544-13.927-31.191-18.714-36.85
		c11.896-9.284,32.787-35.108,51.212-34.963c-29.016,20.456-27.711,52.228-26.404,64.27
		C584.876,158.433,578.638,161.334,578.492,162.929z"/>
</g>
<g id="pantalon">
	<path fill="#7A8BA9" stroke="#000000" stroke-width="0.3" stroke-miterlimit="10" d="M493.186,467.738
		c0.581,6.093-3.191,18.135-3.191,18.135c-2.32,45.845-13.782,70.508-9.721,84.58c-1.886,1.016-21.906,1.596-23.356,0.436
		c0-23.068-16.394-45.99-16.394-45.99c-0.726-3.481-24.81-2.03-35.979,2.176c-4.933,2.032-16.395,28.146-16.395,43.233
		c-4.643,1.741-15.524,1.45-19.876-0.87c-2.467-18.86-8.414-87.337-11.316-99.669C373.352,485.873,481.725,474.556,493.186,467.738z
		"/>
	
		<line opacity="0.7" fill="none" stroke="#C0D8EC" stroke-miterlimit="10" enable-background="new    " x1="358.844" y1="469.624" x2="368.999" y2="568.277"/>
	<path opacity="0.7" fill="none" stroke="#C0D8EC" stroke-miterlimit="10" enable-background="new    " d="M477.954,570.888
		c0,0,2.031-20.456,2.611-25.97c3.772-12.911,8.851-54.839,8.851-60.062c2.32-5.513,3.771-17.265,3.771-17.265"/>
	<g>
		<path fill="#16252B" d="M457.062,569.872c0.146-3.336-0.87-6.963-1.161-10.59c-3.627-14.798-13.927-32.787-15.958-35.109
			c-2.756-1.886-24.808-1.45-35.109,2.611c-5.513,1.451-16.393,27.42-16.393,42.509v-11.171c0-15.233,10.59-32.498,15.379-34.675
			c5.513-2.466,39.315-2.466,43.958,0.872c1.16,6.528,11.605,23.356,11.605,36.849L457.062,569.872z"/>
	</g>
	<path fill="#CADBF8" d="M389.312,568.567c-2.757,1.451-6.965,0.87-11.027,0.87c-4.643,0-9.576,0.145-12.332-1.741l0.58-4.062
		c2.757,1.595,7.544,1.741,11.752,1.741c3.917,0,8.415,0.145,11.027-1.307V568.567z"/>
	<path fill="#CADBF8" d="M479.549,569.437c-2.755,1.451-6.963,0.87-11.025,0.87c-4.643,0-9.574,0.146-12.331-1.74l0.581-4.063
		c2.755,1.597,7.543,1.741,11.75,1.741c3.918,0,8.415,0.146,11.025-1.305V569.437z"/>
	<path fill="none" stroke="#2A313D" stroke-miterlimit="10" d="M484.772,492.547c-6.237-1.596-13.491-4.644-15.958-11.462"/>
	<g>
		<path fill="#2A313D" d="M420.213,483.26c0,0,0.145,0.581,0.145,1.451c0.146,0.871,0.291,2.176,0.435,3.772
			c0.291,3.192,0.581,7.398,0.726,11.606c0.146,4.206,0.146,8.414,0.146,11.606c0,1.595-0.146,2.901-0.146,3.917
			c0,0.87-0.145,1.451-0.145,1.451s-0.146-0.581-0.146-1.451c-0.145-0.871-0.289-2.176-0.435-3.772
			c-0.29-3.192-0.579-7.398-0.725-11.606c-0.145-4.206-0.145-8.414-0.145-11.606c0-1.595,0.145-2.901,0.145-3.917
			C420.067,483.842,420.213,483.26,420.213,483.26z"/>
	</g>
	<g>
		<line fill="none" x1="425.001" y1="488.339" x2="426.595" y2="509.665"/>
		<path fill="#2A313D" d="M425.001,488.339c0,0,0.29,1.306,0.725,3.338c0.291,2.03,0.726,4.642,0.87,7.254
			c0.146,2.611,0.291,5.366,0.291,7.254c0,2.03-0.145,3.336-0.145,3.336s-0.291-1.306-0.726-3.336
			c-0.291-2.032-0.726-4.643-0.871-7.254c-0.145-2.612-0.289-5.368-0.289-7.254C424.856,489.789,425.001,488.339,425.001,488.339z"
			/>
	</g>
	<path fill="none" stroke="#2A313D" stroke-miterlimit="10" d="M375.093,480.07c-1.886,6.964-6.673,12.477-12.913,14.797"/>
</g>
<g id="Calque_20">
	<path fill="#DF9553" stroke="#000000" stroke-width="0.5" stroke-miterlimit="10" d="M547.882,289.437
		c1.595,23.503-54.26,78.777-50.633,73.555c3.627-5.077,3.191-38.011,3.191-38.011c-1.16,14.943-12.041,31.627-12.187,33.658
		c-0.145,2.03-2.465,3.192-1.596,1.017c1.16-3.627-2.61-18.716-6.673-24.81c-0.29-0.29-1.306-0.145-1.887,0.581
		c-1.451,4.353-1.16,13.637,1.597,20.165c-10.736,1.887-16.975-11.751-17.409-13.347"/>
	<path fill="#DF9553" stroke="#000000" stroke-width="0.5" stroke-miterlimit="10" d="M289.353,289.437
		c-1.597,23.503,54.258,78.777,50.631,73.555c-3.627-5.077-3.192-38.011-3.192-38.011c1.162,14.943,12.043,31.627,12.188,33.658
		c0.145,2.03,2.466,3.192,1.595,1.017c-1.161-3.627,2.612-18.716,6.674-24.81c0.291-0.29,1.305-0.145,1.886,0.581
		c1.451,4.353,1.16,13.637-1.595,20.165c10.735,1.887,16.973-11.751,17.409-13.347"/>
</g>
<g id="haut">
	<path fill="#872C2A" stroke="#000000" stroke-width="0.3" stroke-miterlimit="10" d="M355.652,469.478
		c-1.74-1.015-4.497-1.74-4.497-1.74c4.934-4.352,5.513-29.306,5.513-29.306c-11.606-32.207-5.513-85.306,13.638-93.721
		c27.709,9.285,67.17,11.462,100.973,0c21.183,9.285,26.26,76.746,16.83,95.606c2.03,5.078,4.643,25.533,4.932,27.564
		c0,0-5.947,2.902-3.627,2.177C483.901,473.542,383.363,486.598,355.652,469.478z"/>
	<polyline fill="#801913" points="356.089,438.287 352.462,416.671 361.601,416.671 	"/>
	<path fill="#801913" d="M484.772,422.909c0,0,3.337-0.581,7.834-0.29c-1.161,8.995-3.337,17.409-4.353,19.44L484.772,422.909z"/>
	<path display="none" fill="none" stroke="#000000" stroke-width="0.5" stroke-miterlimit="10" d="M474.617,377.354
		c7.545,28.436,13.782,65.284,13.782,65.284c7.254-20.02,6.528-46.134,0.726-67.314"/>
	<g>
		<path fill="#9E4441" d="M472.441,345.148c-14.073,4.352-31.338,6.963-49.762,6.963c-19.585,0-37.721-2.901-52.229-7.688
			l-5.657,4.353c13.201,11.605,34.674,17.554,57.015,17.554c21.907,0,41.493-6.819,54.694-17.845L472.441,345.148"/>
	</g>
	<g>
		<path fill="#9E4441" d="M469.54,365.459c-9.14,7.833-28.581,17.698-47.15,17.698c-19.586,0-37.286-4.787-47.296-15.233
			l-6.819,23.068c13.203,11.606,31.191,15.378,53.534,15.378c21.906,0,39.461-8.85,52.663-19.875L469.54,365.459z"/>
	</g>
	<g>
		<path fill="#9E4441" d="M487.384,433.645c-13.201,11.025-43.668,22.341-65.575,22.341c-22.487,0-48.311-8.995-63.399-23.792
			l3.046-20.892c10.301,8.705,41.639,14.218,61.224,14.218c18.569,0,48.021-3.918,58.61-14.218L487.384,433.645z"/>
	</g>
	<path fill="#9E4441" d="M491.01,384.028c-4.353,1.596-8.995,3.046-13.638,4.353l3.192,14.073c4.352-1.017,8.414-2.322,12.621-3.627
		 M368.855,388.525c-5.658-1.595-11.026-3.336-16.249-5.222l-1.016,15.232c4.353,1.451,8.851,2.756,13.492,3.918"/>
	<path fill="#801913" d="M361.455,416.962"/>
	<line display="none" fill="none" x1="378.139" y1="357.334" x2="356.089" y2="438.287"/>
	<path display="none" fill="none" stroke="#000000" stroke-width="0.5" stroke-miterlimit="10" d="M381.331,349.5
		c-2.467,4.788-5.657,14.943-9.14,26.694c-7.689,26.839-15.958,62.093-15.958,62.093c-8.561-33.657-5.948-79.647,13.638-93.72
		L381.331,349.5z"/>
	<g>
		<line fill="none" x1="356.814" y1="436.836" x2="373.498" y2="375.469"/>
		<path fill="#3F0400" d="M356.523,436.836c0,0,0-0.289,0-0.726c0-0.435,0-1.16,0-2.03c0-1.741,0.145-4.352,0.58-7.254
			c0.146-1.45,0.291-3.191,0.581-4.787c0.291-1.741,0.581-3.482,0.87-5.368c0.437-1.886,0.726-3.772,1.162-5.658
			c0.435-1.886,1.014-3.771,1.451-5.804c0.579-1.886,1.16-3.771,1.74-5.656c0.581-1.886,1.306-3.627,1.887-5.513
			c0.579-1.741,1.305-3.482,1.886-5.078c0.579-1.597,1.305-3.048,1.886-4.498c1.16-2.756,2.32-5.078,3.192-6.528
			c0.435-0.726,0.87-1.451,1.016-1.741c0.289-0.436,0.435-0.58,0.435-0.58l0.435,0.145c0,0-1.016,3.918-2.467,9.576
			c-1.595,5.803-3.627,13.492-5.657,21.181c-2.176,7.688-4.208,15.378-5.803,21.036c-1.597,5.804-2.757,9.575-2.757,9.575
			L356.523,436.836z"/>
	</g>
	<g>
		<line fill="none" x1="472.006" y1="376.919" x2="488.69" y2="438.287"/>
		<path fill="#3F0400" d="M472.15,376.774c0,0,0.145,0.291,0.436,0.58c0.29,0.437,0.581,1.016,1.016,1.741
			c0.87,1.597,2.031,3.772,3.192,6.528c0.579,1.45,1.305,2.901,1.886,4.498c0.58,1.596,1.306,3.337,1.886,5.078
			s1.306,3.627,1.741,5.513c0.58,1.886,1.16,3.771,1.741,5.657c0.435,1.887,1.016,3.917,1.45,5.803
			c0.436,1.887,0.87,3.772,1.16,5.658c0.436,1.886,0.726,3.627,0.87,5.368c0.29,1.741,0.437,3.337,0.581,4.788
			c0.29,3.046,0.435,5.513,0.581,7.254c0,0.869,0,1.595,0,2.031c0,0.435,0,0.726,0,0.726l-0.437,0.145c0,0-1.015-3.771-2.756-9.575
			c-1.597-5.803-3.772-13.493-5.803-21.036c-2.032-7.69-4.062-15.379-5.659-21.182c-1.45-5.804-2.466-9.575-2.466-9.575H472.15z"/>
	</g>
	<g>
		<path fill="#9E4441" d="M351.3,467.738"/>
		<path fill="#9E4441" d="M493.186,467.302"/>
	</g>
	<path fill="#872C2A" stroke="#000000" stroke-width="0.3" stroke-miterlimit="10" d="M351.736,468.753"/>
	<path opacity="0.4" fill="#05113B" enable-background="new    " d="M441.103,477.169c-6.528,0.579-11.315,0.726-17.844,0.726
		c-1.596,0-4.353,0.289-5.948,0.289l-64.85-8.415c21.325,9.431,44.974,14.654,69.781,14.654c25.535,0,49.907-5.513,71.813-15.523
		L441.103,477.169z"/>
	<g>
		<path fill="#872C2A" d="M440.524,477.458l52.662-8.705l-1.597-10.881c-15.521,10.155-32.786,16.975-51.212,19.731
			C440.378,477.458,440.524,477.458,440.524,477.458z"/>
		<path fill="#872C2A" d="M351.59,469.624l39.317,5.657c-12.768-3.19-25.1-8.414-36.415-15.232L351.59,469.624L351.59,469.624"/>
	</g>
</g>
<g id="tete">
	<path fill="#FFE9D8" stroke="#000000" stroke-miterlimit="10" d="M562.389,217.043c0,71.813-16.83,88.788-50.777,109.534
		c-21.908,13.348-47.44,25.389-92.85,25.389c-82.985-0.289-159.587-63.544-143.917-130.28c0-73.699,46.425-85.886,142.466-85.886
		C513.353,135.8,562.389,148.422,562.389,217.043z"/>
	<g id="NewCheveux" display="none">
		<path display="inline" opacity="0.7" fill="#CA7326" enable-background="new    " d="M343.321,140.878
			c-41.347,13.057-37.139,29.015-39.315,52.228c19.004,13.492,44.393,16.83,67.17,6.384c22.777-10.301,46.136-66.445,48.312-89.658
			C413.684,133.333,360.73,138.122,343.321,140.878z"/>
		<g display="inline" opacity="0.7">
			<g>
				<path fill="#F7F3F0" d="M409.767,127.821c0.87,7.109-7.398,11.027-12.622,13.928c-3.046,1.74-5.948,3.627-8.849,5.657
					c-14.073,10.155-27.566,21.617-36.997,36.416c0.291-0.291,1.016-0.291,1.307-0.726c9.574-14.798,22.922-26.114,36.995-36.416
					c4.062-2.901,8.414-5.078,12.622-7.688c4.352-2.611,9.43-6.094,8.705-11.751C410.927,127.385,409.767,127.676,409.767,127.821
					L409.767,127.821z"/>
			</g>
		</g>
		<g display="inline" opacity="0.7">
			<g>
				<path fill="#F7F3F0" d="M399.902,131.883c-4.352,11.461-13.638,19.731-23.503,26.26c-6.384,4.207-13.347,7.833-20.022,11.46
					c-6.382,3.482-13.201,6.965-20.455,7.979c-0.435,0-0.87,0.726-1.306,0.726c7.834-1.015,14.798-4.932,21.617-8.559
					c5.222-2.901,10.446-5.658,15.523-8.705c12.186-7.109,24.228-16.104,29.306-29.741
					C401.062,131.448,400.047,131.448,399.902,131.883L399.902,131.883z"/>
			</g>
		</g>
		<g display="inline" opacity="0.7">
			<g>
				<path fill="#F7F3F0" d="M394.824,134.349c-10.446,8.56-21.473,16.394-31.628,25.389c-10.59,9.43-22.922,16.975-37.14,18.86
					c-0.435,0-0.871,0.726-1.306,0.726c11.171-1.595,21.327-6.528,30.466-12.911c6.963-4.789,13.057-10.881,19.585-16.104
					c6.963-5.657,14.219-11.025,21.182-16.684C395.694,133.914,395.26,134.058,394.824,134.349L394.824,134.349z"/>
			</g>
		</g>
		<g display="inline" opacity="0.7">
			<g>
				<path fill="#F7F3F0" d="M386.12,140.152c-16.395,18.425-36.56,32.789-52.519,51.502c0.289-0.291,1.015-0.435,1.305-0.725
					c15.959-18.714,36.27-33.078,52.519-51.503C387.135,139.862,386.41,139.862,386.12,140.152L386.12,140.152z"/>
			</g>
		</g>
		<g display="inline" opacity="0.7">
			<g>
				<path fill="#F7F3F0" d="M373.061,148.566c-13.346,19.585-36.849,31.338-60.352,31.917c-0.435,0-0.87,0.726-1.306,0.726
					c24.083-0.58,49.182-13.202,62.964-33.368C374.077,148.132,373.352,148.132,373.061,148.566L373.061,148.566z"/>
			</g>
		</g>
		<g display="inline" opacity="0.7">
			<g>
				<path fill="#F7F3F0" d="M388.296,145.23c-4.934,9.865-13.059,17.7-21.327,24.954c-3.917,3.482-7.979,6.819-12.042,10.155
					c-5.222,4.497-10.881,8.995-17.698,10.881c-0.437,0.145-0.871,0.581-1.306,0.726c9.43-2.611,17.119-9.865,24.373-15.958
					c10.881-9.286,22.487-18.425,29.016-31.482C389.456,144.939,388.441,144.939,388.296,145.23L388.296,145.23z"/>
			</g>
		</g>
		<g display="inline" opacity="0.7">
			<g>
				<path fill="#F7F3F0" d="M383.653,157.271c-4.789,10.156-14.944,15.814-25.244,19.151c-9.285,3.047-19.585,4.643-29.306,3.627
					c-0.435,0-0.87,0.725-1.305,0.725c12.332,1.161,25.098-1.451,36.414-6.382c8.414-3.773,16.684-9.43,20.746-17.99
					C384.668,156.836,383.798,156.836,383.653,157.271L383.653,157.271z"/>
			</g>
		</g>
		<g display="inline" opacity="0.7">
			<g>
				<path fill="#F7F3F0" d="M405.705,128.981c-3.917,17.265-20.747,28.581-33.079,39.896c0.291-0.289,0.872-0.435,1.307-0.726
					c12.187-11.315,29.161-22.631,33.077-39.896C406.865,128.546,405.85,128.692,405.705,128.981L405.705,128.981z"/>
			</g>
		</g>
		<g display="inline" opacity="0.7">
			<g>
				<path fill="#F7F3F0" d="M394.534,137.976c-4.643,17.265-16.83,30.901-28.727,43.814c0.291-0.291,1.016-0.435,1.306-0.726
					c11.751-12.913,24.084-26.549,28.727-43.813C395.694,137.685,394.534,137.685,394.534,137.976L394.534,137.976z"/>
			</g>
		</g>
		<g display="inline" opacity="0.7">
			<g>
				<path fill="#F7F3F0" d="M397.001,140.587c-5.078,14.944-13.784,28.29-20.602,42.363c0.145-0.291,1.015-0.291,1.305-0.726
					c6.963-14.073,15.523-27.418,20.601-42.363C398.161,140.152,397.145,140.152,397.001,140.587L397.001,140.587z"/>
			</g>
		</g>
		<g display="inline" opacity="0.7">
			<g>
				<path fill="#F7F3F0" d="M395.985,147.406c-3.627,16.974-13.347,31.191-23.938,44.684c0.289-0.289,1.014-0.435,1.305-0.726
					c10.59-13.492,20.312-27.564,23.939-44.684C397.145,146.971,395.985,147.115,395.985,147.406L395.985,147.406z"/>
			</g>
		</g>
		<g display="inline" opacity="0.7">
			<g>
				<path fill="#F7F3F0" d="M399.177,146.68c-3.047,19.441-21.472,33.224-35.545,44.974c0.437-0.291,0.872-0.435,1.307-0.725
					c14.073-11.751,32.498-25.533,35.544-44.974C400.482,146.246,399.321,146.39,399.177,146.68L399.177,146.68z"/>
			</g>
		</g>
		<g display="inline" opacity="0.7">
			<g>
				<path fill="#F7F3F0" d="M383.217,153.209c-10.009,13.057-22.487,23.793-35.107,34.093c0.435-0.291,0.87-0.435,1.305-0.726
					c12.767-10.3,25.244-21.036,35.109-34.093C384.233,152.919,383.507,152.919,383.217,153.209L383.217,153.209z"/>
			</g>
		</g>
		<g display="inline" opacity="0.7">
			<g>
				<path fill="#F7F3F0" d="M383.217,149.292c-3.19,13.928-13.201,24.374-24.373,32.643c0.435-0.289,0.872-0.435,1.306-0.726
					c11.171-8.268,21.181-18.714,24.373-32.643C384.379,148.857,383.363,149.003,383.217,149.292L383.217,149.292z"/>
			</g>
		</g>
		<g display="inline" opacity="0.7">
			<g>
				<path fill="#F7F3F0" d="M376.399,169.168c-2.612,9.286-5.949,18.425-8.995,27.564c0.145-0.29,1.161-0.435,1.305-0.725
					c3.192-9.14,6.528-18.279,8.995-27.565C377.56,168.877,376.399,168.877,376.399,169.168L376.399,169.168z"/>
			</g>
		</g>
		<g display="inline" opacity="0.7">
			<g>
				<path fill="#F7F3F0" d="M381.766,169.168c-3.481,4.643-7.108,8.995-10.881,13.347c-1.74,2.032-3.481,4.062-5.222,5.948
					c-1.451,1.597-2.466,3.773-4.062,5.078c0.435-0.289,0.87-0.435,1.305-0.725c-0.87,0.146-1.015-0.145-1.451-0.726
					c0,0-1.161,0.726-1.305,0.726c1.886,2.466,4.497-1.886,5.368-3.191c2.465-3.482,5.803-6.528,8.559-9.72
					c3.192-3.627,6.238-7.4,9.139-11.316C382.782,168.877,382.056,168.877,381.766,169.168L381.766,169.168z"/>
			</g>
		</g>
		<g display="inline" opacity="0.7">
			<g>
				<path fill="#F7F3F0" d="M373.787,163.365c-7.254,13.057-19.149,22.342-27.274,34.819c0.291-0.291,1.016-0.291,1.306-0.726
					c7.979-12.476,20.021-21.762,27.274-34.819C374.802,163.074,374.077,163.074,373.787,163.365L373.787,163.365z"/>
			</g>
		</g>
		<g display="inline" opacity="0.7">
			<g>
				<path fill="#F7F3F0" d="M375.384,171.779c-29.451,7.979-59.628,11.606-89.658,17.121c-0.437,0.145-0.872,0.579-1.306,0.725
					c29.885-5.514,60.207-9.141,89.658-17.12C374.658,172.36,374.948,171.925,375.384,171.779L375.384,171.779z"/>
			</g>
		</g>
		<g display="inline" opacity="0.7">
			<g>
				<path fill="#F7F3F0" d="M362.617,162.639c-8.27,10.156-20.167,15.958-31.482,22.197c-0.291,0.146-1.161,0.726-1.016,0.581
					c11.896-6.529,25.098-12.767,33.803-23.503C363.487,162.349,362.906,162.349,362.617,162.639L362.617,162.639z"/>
			</g>
		</g>
		<g display="inline" opacity="0.7">
			<g>
				<path fill="#F7F3F0" d="M377.125,145.955c-18.281,13.057-39.896,20.021-60.353,29.016c-0.435,0.146-0.87,0.581-1.305,0.725
					c21.325-9.284,43.812-16.828,62.963-30.466C377.994,145.52,377.414,145.665,377.125,145.955L377.125,145.955z"/>
			</g>
		</g>
		<g display="inline" opacity="0.7">
			<g>
				<path fill="#F7F3F0" d="M348.109,154.66c-12.768,9.576-26.695,17.409-41.928,22.487c-0.435,0.146-0.87,0.581-1.307,0.726
					c16.104-5.368,30.903-13.782,44.395-23.938C348.979,154.225,348.398,154.369,348.109,154.66L348.109,154.66z"/>
			</g>
		</g>
		<g display="inline" opacity="0.7">
			<g>
				<path fill="#F7F3F0" d="M353.187,148.857c-7.4,10.446-18.281,17.7-25.825,27.855c0.291-0.291,1.016-0.435,1.306-0.726
					c7.544-10.3,18.425-17.554,25.824-27.855C354.201,148.566,353.331,148.566,353.187,148.857L353.187,148.857z"/>
			</g>
		</g>
		<g display="inline" opacity="0.7">
			<g>
				<path fill="#F7F3F0" d="M382.202,142.328c-7.69,14.217-23.358,20.021-37.866,24.663c-0.435,0.146-0.87,0.581-1.305,0.726
					c15.233-4.788,32.352-11.171,40.476-26.114C383.217,142.038,382.347,142.038,382.202,142.328L382.202,142.328z"/>
			</g>
		</g>
		<g display="inline" opacity="0.7">
			<g>
				<path fill="#F7F3F0" d="M369.145,139.136c-3.338,8.27-9.866,14.653-16.684,20.166c-7.979,6.529-16.975,11.751-25.825,16.975
					c-0.435,0.291,0.726-0.435,0.872-0.435c7.833-4.643,15.523-9.286,22.922-14.654c8.124-5.947,16.249-13.347,20.166-22.776
					C370.16,138.701,369.29,138.701,369.145,139.136L369.145,139.136z"/>
			</g>
		</g>
		<g display="inline" opacity="0.7">
			<g>
				<path fill="#F7F3F0" d="M369.145,149.582c-2.176,7.544-5.514,14.654-11.317,20.311c0.29-0.29,0.871-0.435,1.306-0.725
					c5.803-5.657,8.995-12.767,11.316-20.311C370.306,149.292,369.145,149.292,369.145,149.582L369.145,149.582z"/>
			</g>
		</g>
		<g display="inline" opacity="0.7">
			<g>
				<path fill="#F7F3F0" d="M368.42,143.053c-8.125,10.591-18.425,18.86-29.016,26.839c0.435-0.29,0.87-0.435,1.305-0.725
					c10.59-7.979,20.892-16.249,29.016-26.839C369.29,142.763,368.709,142.763,368.42,143.053L368.42,143.053z"/>
			</g>
		</g>
		<g display="inline" opacity="0.7">
			<g>
				<path fill="#F7F3F0" d="M369.871,134.058c-15.669,19.297-38.446,35.4-62.964,40.622c-0.435,0.146-0.87,0.581-1.306,0.725
					c25.1-5.367,49.472-22.341,65.431-42.072C370.74,133.624,370.16,133.624,369.871,134.058L369.871,134.058z"/>
			</g>
		</g>
		<g display="inline" opacity="0.7">
			<g>
				<path fill="#F7F3F0" d="M321.559,147.841c0,6.674-0.87,13.347,0.291,20.021c0-0.146,1.306-0.581,1.306-0.725
					c-1.306-6.674-0.435-13.203-0.291-20.022C322.865,147.261,321.559,147.552,321.559,147.841L321.559,147.841z"/>
			</g>
		</g>
		<g display="inline" opacity="0.7">
			<g>
				<path fill="#F7F3F0" d="M369.434,147.115c-12.186,12.768-25.533,24.519-40.622,33.658c0.437-0.291,0.871-0.435,1.306-0.725
					c-0.725-1.451,0-2.03,1.451-2.902c-0.291,0.146-0.87,0.435-1.16,0.726c-1.16,0.725-2.176,1.451-1.451,2.901
					c0,0,1.16-0.579,1.305-0.725c15.089-9.284,28.436-20.891,40.622-33.803C370.45,146.68,369.725,146.68,369.434,147.115
					L369.434,147.115z"/>
			</g>
		</g>
		<g display="inline" opacity="0.7">
			<g>
				<path fill="#F7F3F0" d="M366.244,157.271c-6.819,4.208-13.348,9.141-20.747,12.332c-2.756,1.162-5.513,1.741-8.415,1.887
					c-0.145,0,2.467-4.352,2.757-4.643c1.16-1.306,2.466-2.467,3.771-3.627c-0.291,0.291-0.87,0.435-1.305,0.726
					c-1.597,1.451-3.192,2.755-4.498,4.497c-0.726,0.872-1.161,1.886-1.595,2.757c-0.872,1.886,1.16,1.016,2.32,0.87
					c4.062-0.58,8.125-2.466,11.606-4.497c5.949-3.336,11.462-7.254,17.265-10.881C367.114,156.692,366.533,156.982,366.244,157.271
					L366.244,157.271z"/>
			</g>
		</g>
		<g display="inline" opacity="0.7">
			<g>
				<path fill="#F7F3F0" d="M354.637,159.447c0.435,1.597,1.451,2.902,2.902,3.627c0.289,0.146,1.014-0.87,1.305-0.725
					c-1.451-0.726-2.467-2.03-2.901-3.627C355.943,158.868,354.492,159.302,354.637,159.447L354.637,159.447z"/>
			</g>
		</g>
	</g>
	<g opacity="0.3">
		<path d="M301.829,172.941"/>
		<path d="M552.669,174.536c5.803,11.025,6.238,25.244,6.238,42.653c0,67.026-19.15,87.191-50.777,106.486
			c-20.455,12.478-46.716,24.374-89.077,24.374c-77.618-0.291-154.218-62.239-139.565-124.623c0-17.409-5.078-32.788,2.465-42.363
			c-8.124,13.057-6.673,24.808-6.673,40.768c-15.668,66.736,60.933,129.845,143.917,130.279c45.409,0,70.943-12.041,92.85-25.389
			c33.949-20.601,50.777-37.72,50.777-109.533C562.679,200.94,564.565,185.126,552.669,174.536z"/>
	</g>
	<g id="taches_de_rousseur">
		
			<radialGradient id="SVGID_1_" cx="331.2878" cy="285.8015" r="17.4689" gradientTransform="matrix(1 0 0 -1 24.9448 586.6597)" gradientUnits="userSpaceOnUse">
			<stop  offset="0.3152" style="stop-color:#E86E70;stop-opacity:0.5"/>
			<stop  offset="0.4344" style="stop-color:#EA7F81;stop-opacity:0.413"/>
			<stop  offset="0.6714" style="stop-color:#EEACAD;stop-opacity:0.2399"/>
			<stop  offset="1" style="stop-color:#F4F4F4;stop-opacity:0"/>
		</radialGradient>
		<circle fill="url(#SVGID_1_)" cx="356.233" cy="300.899" r="17.409"/>
		
			<radialGradient id="SVGID_2_" cx="469.8914" cy="285.8015" r="17.4688" gradientTransform="matrix(1 0 0 -1 24.9448 586.6597)" gradientUnits="userSpaceOnUse">
			<stop  offset="0.3152" style="stop-color:#E86E70;stop-opacity:0.5"/>
			<stop  offset="0.4344" style="stop-color:#EA7F81;stop-opacity:0.413"/>
			<stop  offset="0.6714" style="stop-color:#EEACAD;stop-opacity:0.2399"/>
			<stop  offset="1" style="stop-color:#F4F4F4;stop-opacity:0"/>
		</radialGradient>
		<circle fill="url(#SVGID_2_)" cx="494.782" cy="300.899" r="17.409"/>
		<circle fill="#65311D" cx="497.394" cy="313.375" r="1.016"/>
		<circle fill="#65311D" cx="356.089" cy="297.562" r="1.015"/>
		<circle fill="#65311D" cx="486.513" cy="294.08" r="1.016"/>
		<circle fill="#65311D" cx="342.45" cy="291.033" r="1.015"/>
		<circle fill="#65311D" cx="485.063" cy="307.717" r="1.015"/>
		<circle fill="#65311D" cx="360.004" cy="301.044" r="1.016"/>
		<circle fill="#65311D" cx="505.084" cy="293.355" r="1.016"/>
		<circle fill="#65311D" cx="348.254" cy="312.36" r="1.016"/>
		<circle fill="#65311D" cx="500.585" cy="304.09" r="1.015"/>
		<circle fill="#65311D" cx="363.922" cy="285.376" r="1.016"/>
	</g>
	<g id="nez">
		<line fill="none" stroke="#000000" stroke-miterlimit="10" x1="418.616" y1="284.941" x2="418.616" y2="276.381"/>
		<path fill="none" stroke="#000000" stroke-miterlimit="10" d="M418.616,302.204c-4.642,0-8.415-3.771-8.415-8.414l0,0
			c0-4.643,3.773-8.414,8.415-8.414"/>
		<path opacity="0.15" enable-background="new    " d="M418.906,303.219c-0.87,1.886-3.626,2.467-6.093,1.307
			c-2.467-1.162-3.771-3.627-2.756-5.514"/>
	</g>
	<g id="yeux">
		<path fill="#59483B" d="M373.933,205.872c4.062,1.597,10.446,2.902,16.539,12.187c-6.384-4.643-15.379-8.705-19.006-8.705
			c-3.482-1.451-13.782-4.208-35.109-0.581c0,0-15.813,1.741-18.714,1.162C314.741,209.354,360.15,200.215,373.933,205.872z"/>
		<path fill="#59483B" d="M474.182,205.872c-4.063,1.597-10.446,2.902-16.54,12.187c6.385-4.643,15.378-8.705,19.005-8.705
			c3.482-1.451,13.782-4.208,35.109-0.581c0,0,15.813,1.741,18.715,1.162C533.374,209.354,487.965,200.215,474.182,205.872z"/>
		<path fill="#FFFFFF" stroke="#000000" stroke-miterlimit="10" d="M376.979,240.981c0,12.331-6.383,30.466-25.243,30.466
			s-25.1-12.476-25.1-30.466c0-15.958,17.99-23.212,25.1-23.212C364.938,217.769,376.979,230.971,376.979,240.981z"/>
		<path fill="#FFFFFF" stroke="#000000" stroke-miterlimit="10" d="M469.83,248.381c-1.016-12.332,5.367-30.612,24.227-30.612
			c15.959,0,25.68,12.042,25.68,30.177c0,13.492-9.14,23.501-25.68,23.501C475.197,271.447,470.555,256.939,469.83,248.381z"/>
		<path d="M374.802,241.127c0,11.896-8.995,21.472-18.86,21.472c-12.042,0-17.844-9.575-17.844-21.472s10.446-19.295,18.425-19.295
			C364.503,221.832,374.802,229.375,374.802,241.127z"/>
		<path d="M507.55,239.967c0,11.896-6.528,22.632-16.395,22.632c-12.041,0-18.424-10.011-18.424-21.906
			c0-11.897,9.431-18.86,17.264-18.86C497.83,221.832,507.55,228.07,507.55,239.967z"/>
		<circle fill="#FFFCF5" cx="349.704" cy="244.608" r="3.627"/>
		<circle fill="#FFFCF5" cx="349.124" cy="233.293" r="6.674"/>
		<circle fill="#FFFCF5" cx="480.711" cy="234.308" r="5.803"/>
		<circle fill="#FFFCF5" cx="481.871" cy="246.93" r="3.627"/>
	</g>
	<g id="cheveux">
		<path opacity="0.1" enable-background="new    " d="M523.509,157.996c1.886,2.176,2.03,6.384,2.03,8.56
			c-7.979,12.767-33.947,22.922-33.947,22.922c2.901-4.643,4.932-6.963,16.247-19.439c-40.331,39.46-96.476,47.15-96.476,47.15
			c7.544-4.933,46.715-29.597,59.772-48.747c-18.86,37.43-133.906,58.467-124.622,54.695c9.286-3.771,33.803-51.212,33.803-51.212
			c-14.797,21.471-43.087,35.254-44.974,38.155c-1.886,2.901-5.947,2.176-2.901,0c4.643-4.353,13.347-31.192,13.493-44.974
			c-0.291-0.726-1.451-1.595-2.901-1.16c-5.659,5.078-6.24,14.798-8.56,27.855c-15.233-8.705-18.279-31.482-17.41-34.384
			c66.445-18.28,92.125-13.057,103.442-40.622C430.513,156.546,494.203,133.479,523.509,157.996z"/>
		<path fill="#DF9553" stroke="#000000" stroke-width="0.5" stroke-miterlimit="10" d="M531.633,153.79
			c1.886,2.176-1.596,5.078-1.596,7.254c-7.979,12.767-33.658,22.487-33.658,22.487c2.901-4.643,3.917-7.544,15.233-20.021
			c-40.331,39.46-86.611,41.782-86.611,41.782c7.544-4.934,33.077-27.274,46.134-46.425c-18.86,37.43-137.824,61.658-128.684,57.74
			s37.72-54.404,37.72-54.404c-14.798,21.471-43.088,35.253-44.974,38.155c-1.886,2.902-5.947,2.176-2.901,0
			c4.643-4.352,13.347-31.191,13.492-44.974c-0.29-0.726-1.451-1.596-2.901-1.161c-5.657,5.078-13.492,19.295-15.958,32.352
			c-15.233-8.705-10.881-35.979-10.01-38.88c64.124-25.098,92.125-13.057,103.44-40.622
			C430.513,147.115,502.326,129.271,531.633,153.79z"/>
		<path fill="#DF9553" stroke="#000000" stroke-width="0.5" stroke-miterlimit="10" d="M353.041,484.712"/>
	</g>
</g>
<g id="Calque_19">
	<path fill="none" stroke="#000000" stroke-miterlimit="10" d="M398.596,320.049c8.414,3.338,18.425,5.368,29.306,5.368
		c5.077,0,9.864-0.436,14.508-1.16"/>
	<path fill="none" stroke="#000000" stroke-miterlimit="10" d="M430.803,337.748c-4.208-0.29-8.414-0.725-12.476-1.305"/>
</g>
</svg>
