<?xml version="1.0" encoding="utf-8"?>
<!-- Generator: Adobe Illustrator 16.0.4, SVG Export Plug-In . SVG Version: 6.00 Build 0)  -->
<!DOCTYPE svg PUBLIC "-//W3C//DTD SVG 1.1//EN" "http://www.w3.org/Graphics/SVG/1.1/DTD/svg11.dtd">
<svg version="1.1" id="Calque_1" xmlns="http://www.w3.org/2000/svg" xmlns:xlink="http://www.w3.org/1999/xlink" x="0px" y="0px"
	 width="841.891px" height="473.176px" viewBox="0 0 841.891 473.176" enable-background="new 0 0 841.891 473.176"
	 xml:space="preserve">
<g>
	<g>
		<path fill="#83D8EE" d="M719.621,0.656c39.863,0,79.727,0.022,119.589-0.061c2.207-0.004,2.714,0.379,2.713,2.669
			c-0.07,155.947-0.073,311.895,0.013,467.842c0.001,2.559-0.755,2.772-2.938,2.772c-278.492-0.051-556.984-0.051-835.479-0.001
			c-2.18,0.001-2.94-0.208-2.938-2.771C0.666,315.16,0.664,159.214,0.593,3.267c0-2.287,0.502-2.676,2.712-2.67
			c36.576,0.086,73.154,0.062,109.731,0.062c1.133,0.625,2.364,0.316,3.544,0.316c199.833,0.017,399.664,0.017,599.496,0
			C717.258,0.975,718.487,1.281,719.621,0.656z"/>
		<path fill="#89DAEF" d="M719.621,0.656c-1.46,1.145-3.17,0.635-4.763,0.635C557.657,1.316,400.455,1.314,243.253,1.314
			c-41.928,0-83.855,0.005-125.783-0.021c-1.486-0.001-3.087,0.464-4.435-0.638C315.231,0.656,517.427,0.656,719.621,0.656z"/>
		<path fill="#E48329" d="M348.319,131.477c1.915-1.878,4.641-1.708,6.893-2.734c3.597-0.388,7.19-0.504,10.78,0.063
			c1.658,0.943,3.736,0.66,5.316,1.83c2.705-0.724,4.237,1.268,5.945,2.678c3.19,2.632,3.149,2.689,6.593,0.222
			c6.355-4.557,13.237-8.004,20.877-9.82c1.47-0.351,2.965-0.852,4.475-0.126c0.441,0.246,0.631,0.809,1.171,0.939
			c-0.518-0.317-0.525-0.732-0.226-1.215c1.447-1.46,3.454-1.517,5.205-1.624c9.9-0.607,19.605,0.34,28.799,4.446
			c2.789,1.691,6.026,2.483,8.758,4.292c1.791,1.188,3.882,2.08,4.581,4.414c2.896,8.363,3.688,17,3.231,25.771
			c-0.359,6.904-2.016,13.566-4.176,20.107c-0.347,1.044-0.946,1.967-1.821,2.675c-1.772,1.06-3.371,0.06-4.995-0.459
			c-2.371-0.756-4.555-2.044-7.027-2.515c-7.845-1.619-15.805-2.121-23.753-1.595c-9.413,0.621-18.588,2.64-26.828,7.496
			c-8.863,5.227-10.709,12.733-5.704,21.736c1.178,2.119,2.61,4.019,4.4,5.647c1.171,2.376,3.644,3.212,5.585,4.671
			c1.023,0.77,2.203,1.333,3.045,2.343c0.523,0.848,1.269,1.454,2.062,2.043c0.863,0.641,1.318,1.47,0.444,2.485
			c-0.935,0.908-2.212,1.162-3.346,1.195c-7.939,0.245-15.945,1.431-23.711-1.324c-2.235-0.032-2.417-0.88-3.772-2.676
			c3.611,5.6,8.718,10.766,14.073,15.712c0.66,0.609,1.581,0.752,2.22,1.379c2.452,2.91,1.635,6.084,0.566,9.161
			c-0.703,2.024-1.395,4.054-2.039,6.096c-4.195,4.896-7.693,10.176-9.476,16.488c-0.663,2.352-0.087,3.666,2.251,4.479
			c3.081,1.073,6.062,2.411,8.809,4.22c1.193,0.786,2.363,1.568,2.906,2.98c1.305,3.722,4.006,6.789,5.042,10.618
			c0.661,2.446,2.237,4.904,0.354,7.493c-2.059,0.597-2.916-1.037-3.991-2.199c-4.88-5.274-10.639-9.115-17.766-10.524
			c-16.563-3.273-28.549,6.314-30.438,21.332c-1.369,10.893,2.679,19.854,9.815,27.767c1.376,1.525,3.803,2.446,3.448,5.164
			c-1.419,1.285-3.001,0.84-4.587,0.445c-4.061-1.01-7.588-2.961-10.542-5.933c-5.188-6.31-8.029-13.619-9.237-21.629
			c-0.178-1.18-0.356-2.357-0.535-3.537c-1.3-0.688-1.321-1.938-1.271-3.138c0.715-17.635,10.836-31.007,27.195-34.54
			c2.476-0.534,3.198-1.867,3.509-3.941c2.588-3.12,5.982-5.403,8.727-8.382c2.461-2.671,4.729-5.454,6.61-8.886
			c-5.072,2.517-9.202,6.352-14.655,7.585c-2.258,0.985-4.503,2.015-7.056,1.895c-1.63-0.508-3.213-0.154-4.798,0.257
			c-1.355,0.351-2.698,0.842-4.136,0.627c-0.388-0.059-0.755-0.265-1.167-0.196c0.489-0.018,0.823,0.162,0.879,0.7
			c-0.369,0.927-1.168,1.28-2.037,1.454c-17.557,3.512-29.749-4.894-34.566-22.123c-0.383-1.366-0.465-2.821,0.773-3.938
			c1.219-2.031,0.067-4.247,0.49-5.757c-0.04,1.433,0.25,3.46-0.18,5.468c-2.305,0.276-1.937-1.602-2.056-2.788
			c-1.481-14.767,10.761-28.686,25.56-29.281c8.196-0.33,16.116,0.913,23.865,3.509c1.925,0.646,3.805,1.515,6.194,1.806
			c-3.062-8.052-6.553-15.665-5.399-24.269c0.86-2.088,0.95-4.193,0.144-6.317c-0.667-1.983-0.117-4.362-1.949-5.971
			c-0.104-0.304-0.123-0.612-0.053-0.928c1.944-1.469,2.619-3.577,3.19-5.846c2.646-10.507,7.721-19.708,15.171-27.588
			c2.41-2.549,2.316-3.052-0.777-4.726c-1.748-0.945-3.649-1.469-5.521-2.08c-2.252-1.023-4.52-0.98-6.798-0.103
			c-4.876,0.935-8.988,3.179-12.205,7.017c-0.693,0.827-1.415,1.673-2.511,1.97c-0.413,0.018-0.413,0.279-0.295,0.618
			c0.142,1.968-1.095,3.541-1.438,5.361c-0.333,1.14-0.839,2.239-0.748,3.468c-0.062,1.019-0.104,2.035,0.006,3.055
			c-0.112,1.234,0.381,2.347,0.728,3.485c0.643,3.564,3.477,6.076,4.54,9.437c-0.699,1.793-2.146,2.475-3.945,2.643
			c-5.346-2.413-10.057-10.119-9.643-15.757c0.103-0.515,0.117-1.041,0.203-1.558c0.469-1.749,0.049-3.562,0.38-5.32
			c0.658-0.955,0.321-2.157,0.786-3.16c0.484-3.908,2.366-7.076,5.173-9.752C345.497,135.413,347.236,133.84,348.319,131.477z"/>
		<path fill="#8FE0F3" d="M491.571,141.295c17.473,12.548,30.247,28.863,38.839,48.512c7.257,16.595,10.581,34.011,9.718,52.053
			c-0.9,18.806-5.673,36.656-15.181,53.066c-1.861,3.215-3.864,6.349-5.867,9.479c-0.629,0.982-1.104,2.19-2.444,2.511
			c-1.612-0.817-1.765-2.441-1.987-3.91c-0.983-6.45-4.129-11.896-7.785-17.114c-0.565-0.807-1.386-1.388-2.221-1.919
			c-4.726-3.356-9.683-6.169-15.446-7.438c-3.105-0.685-3.628-2.387-2.329-6.062c0.161-0.252,0.356-0.484,0.561-0.701
			c0.907-3.315,0.823-6.638,0.098-9.973c-0.272-0.163-0.481-0.36-0.674-0.6c-0.884-1.605-1.291-3.232-0.311-4.943
			c2.883-1.952,6.263-1.563,9.459-1.888c7.539-0.762,14.873-2.257,21.986-4.952c9.4-3.562,13.858-10.882,14.832-20.268
			c1.25-12.038-3.052-21.85-13.49-28.581c-2.626-1.692-5.555-2.478-8.552-3.104c-1.739-0.735-3.482-0.645-5.229-0.014
			c-6.966,0.938-13.011,4.033-18.65,8.03c-1.861,1.319-3.654,2.738-5.484,4.103c-0.965,0.718-1.938,1.437-3.266,1.168
			c-0.354-0.125-0.613-0.353-0.794-0.679c-0.742-2.652,0.741-4.923,1.403-7.28c3.521-12.536,2.909-24.851-1.544-37.026
			c-0.491-1.339-1.035-2.66-0.792-4.134c1.027-2.718,3.934-3.307,5.785-5.097c1.372-0.986,2.572-2.145,3.511-3.562
			c1.594-2.179,2.923-4.489,3.755-7.08C489.826,142.786,490.157,141.582,491.571,141.295z"/>
		<path fill="#8FE0F3" d="M362.381,270.112c0.233,4.464,0.233,4.464-4.37,5.436c-13.414,2.829-23.875,14.404-25.463,28.262
			c-0.31,2.702-0.376,5.433-0.555,8.148c-0.173,1.395-0.244,2.307-1.685,0.537c-4.08-5.01-7.823-10.231-11.098-15.804
			c-9.185-15.63-14.207-32.49-15.669-50.558c-1.963-24.266,3.249-46.815,15.107-67.982c4.733-8.451,10.69-15.936,17.171-23.058
			c0.159-0.221,0.37-0.302,0.636-0.243c0.321,0.237,0.417,0.612,0.572,0.95c1.047,6.291,4.057,11.371,9.3,15.072
			c3.785,0.883,7.361,2.243,10.525,4.559c2.09,0.001,3.079,0.83,2.548,3.082c-0.209,0.89-0.033,1.872-0.033,2.811
			c0.177,2.231,0.176,4.463,0.001,6.693c-0.049,9.532,3.073,18.205,7.329,26.611c-1.298,0.604-2.177-0.309-3.121-0.66
			c-9.6-3.588-19.359-6.249-29.758-5.665c-15.565,0.875-27.062,15.888-23.705,31.01l0.001,0.014
			c0.875,15.35,13.709,26.582,29.015,25.297c2.259-0.19,4.591-0.098,6.758-0.993c2.945-0.92,5.792-2.289,9.003-2.036
			c2.407-0.668,4.815-1.336,7.225-2.004C364.512,263.039,363.797,266.567,362.381,270.112z"/>
		<path fill="#70B8CA" d="M516.598,312.222c1.426,0.777,2.982,0.58,4.506,0.586c14.007,0.05,27.909,1.066,41.729,3.557
			c3.642,0.655,7.576-0.304,11.375-0.55c6.464-0.418,12.852,0.039,19.12,1.711c1.005,0.269,2.372,0.564,2.36,1.911
			c-0.014,1.425-1.365,1.957-2.491,2.271c-3.586,0.998-7.233,1.748-10.984,1.636c-2.589-0.078-4.643,0.354-6.676,2.485
			c-2.64,2.768-6.472,3.874-10.948,4.453c1.413,1.188,2.314,0.688,3.188,0.64c8.734-0.48,17.472-0.951,26.186,0.326
			c0.431,0.063,0.891,0.111,1.271,0.3c1.133,0.555,2.711,0.742,2.7,2.453c-0.009,1.48-1.315,1.942-2.403,2.388
			c-3.775,1.546-7.792,2.433-11.801,2.601c-9.152,0.383-18.318,1.644-27.488,0.175c-3.747-0.6-6.586,1.507-10.319,3.414
			c3.384,0.493,6.046,0.771,8.655,1.305c1.552,0.317,3.594,0.559,3.804,2.556c0.217,2.054-1.743,2.554-3.249,3.132
			c-9.27,3.558-19.018,4.809-28.787,5.983c-11.279,1.358-22.628,1.753-33.95,2.466c-8.083,0.51-16.175,0.122-24.174-1.294
			c-1.604-0.283-3.14-0.977-4.23-2.329c1.309-1.624,3.047-0.86,4.555-0.656c8.718,1.186,16.754-0.996,24.06-5.445
			c12.189-7.428,19.679-18.268,22.087-32.468C514.925,314.448,515.124,312.978,516.598,312.222z"/>
		<path fill="#7BBECF" d="M425.22,354.901c-1.118,0.415-2.237,0.829-3.356,1.244c-8.516,1.082-16.848-0.308-25.165-1.888
			c-1.597-0.304-3.243-0.521-4.437-1.816c-0.786-1.55,0.198-2.561,1.252-3.312c6.747-4.816,11.122-11.246,13.339-19.199
			c0.3-1.075,0.859-2.004,1.914-2.538c2.168-0.753,4.082,0.343,6.078,0.839c0.88,0.051,1.601,0.36,1.972,1.215
			c0.038,0.322,0.002,0.605-0.435,0.61c0.039,0.129,0.212,0.165,0.429-0.008c0.586-0.469,1.066-1.086,1.855-1.273
			c6.271-0.537,12.602,0.07,18.83-1.268c1.997-0.43,3.562,0.716,4.422,2.615c0.585,1.29,0.98,2.648,1.438,3.98
			c0.301,1.958,0.967,3.701,2.333,5.247c1.062,1.2,1.931,2.65,1.606,4.439c-0.146,0.416-0.314,0.857-0.666,1.112
			C440.131,349.595,433.343,353.68,425.22,354.901z"/>
		<path fill="#D57B26" d="M446.985,343.623c-1.638-2.769-3.861-5.215-4.656-8.448c1.696-0.738,2.812,0.519,4.073,1.214
			c2.133,1.176,3.989,2.901,6.547,3.221c1.271,0.441,2.358,1.188,3.39,2.034c7.868,6.205,16.653,7.713,25.895,4.092
			c13.485-5.284,21.076-15.457,23.078-29.796c0.348-2.495,0.496-5.004,0.396-7.529c0.277-7.639,0.861-15.283-1.279-22.792
			c-0.238-0.836-0.489-1.995,0.903-2.354c6.112,5.075,9.147,11.836,10.622,19.442c0.271,1.395,0.457,2.806,0.683,4.208
			c-0.014,1.77-0.024,3.536-0.037,5.307c-2.014,17.603-10.57,30.817-26.447,38.949c-8.271,4.234-17.061,5.244-26.162,3.225
			c-3.219-1.001-6.289-2.349-9.247-3.959C450.765,349.749,448.122,347.545,446.985,343.623z"/>
		<path fill="#D57B26" d="M408.792,327.995c-2.265,10.105-7.591,18.058-16.521,23.471c-2.207,3.646-6.145,3.968-9.664,4.596
			c-13.106,2.336-24.442-1.82-34.529-10.066c-1.639-1.34-2.554-3.23-3.783-4.884c-0.843-1.328-1.687-2.657-2.529-3.985
			c3.571,1.436,6.855,3.526,10.604,4.573c1.462,0.408,2.897,0.797,4.425,0.714c1.26-0.744,2.267-0.051,3.286,0.569
			c6.53,3.244,13.205,5.727,20.701,4.062c9.991-2.222,16.289-8.277,18.923-18.161c2.262-8.486,0.293-16.343-3.558-23.915
			c-0.582-1.19-1.473-2.338-0.623-3.767c0.253-4.996-2.115-9.17-4.103-13.496c-0.652-1.426-2.702-2.433-1.634-4.495
			c1.617-0.714,2.75,0.271,3.775,1.221c2.237,2.07,4.513,4.115,6.357,6.575c3.073,5.09,6.932,9.76,8.558,15.628
			c1.362,4.916,2.492,9.88,2.116,15.051C410.713,323.993,410.636,326.248,408.792,327.995z"/>
		<path fill="#8FE0F3" d="M409.413,124.169c-9.595,1.361-18.139,5.282-25.691,11.191c-2.674,2.092-4.393,2.521-6.541-0.369
			c-1.48-1.99-3.632-3.283-5.872-4.356c1.189-3.071,4.394-3.16,6.748-4.036c10.57-3.929,21.439-6.612,32.749-7.768
			c12.001-1.228,23.748-0.124,35.495,2.041c1,0.184,1.948,0.296,2.544,1.234c0.501,0.527,0.39,1.108,0.157,1.703
			c-0.658,1.174-1.427,2.276-2.251,3.341c-0.635,0.438-1.322,0.683-2.105,0.574c-11.249-4.471-22.787-6.176-34.77-3.642
			C409.789,124.483,409.632,124.493,409.413,124.169z"/>
		<path fill="#E48429" d="M448.146,123.505c0.231-0.465,0.464-0.931,0.697-1.397c10.402-10.772,24.069-12.081,34.52-3.206
			c5.261,4.47,8.063,10.215,8.246,17.161c0.045,1.742-0.021,3.488-0.037,5.232c-1.271,3.769-2.172,7.719-5.189,10.635
			c-1.443,0.708-2.575,1.722-3.18,3.252c-1.638,1.873-3.78,2.96-6.027,3.889c-1.949,0.084-2.294-1.173-2.287-2.728
			c1.398-1.94,3.302-3.437,4.698-5.404c6.645-9.369,3.729-22.731-6.308-28.354c-4.024-2.254-8.17-4.231-12.996-2.573
			c-3.121,0.53-5.976,1.697-8.556,3.539c-0.876,0.625-1.764,1.255-2.943,1.068C448.28,124.414,447.92,124.127,448.146,123.505z"/>
		<path fill="#70B8CA" d="M344.294,341.111c0.977,0.109,1.404,0.959,2.032,1.526c13.535,12.22,28.551,16.701,45.944,8.828
			c5.931,2.224,12.208,2.564,18.394,3.438c3.726,0.525,7.536,0.229,11.201,1.241c-18.207,5.914-36.648,6.086-55.179,1.956
			c-7.599-1.692-14.286-5.288-19.537-11.241C345.67,345.186,344.505,343.396,344.294,341.111z"/>
		<path fill="#8FE0F3" d="M446.985,343.623c2.438,2.44,4.938,4.808,7.756,6.812c-7.069,2.638-14.461,3.845-21.923,4.324
			c-2.487,0.16-5.059,1.799-7.599,0.141C432.716,351.604,440.091,348.075,446.985,343.623z"/>
		<path fill="#FAFDFD" d="M288.607,419.293c1.395,0,2.79,0.024,4.185-0.007c1.837-0.041,2.526,1.118,2.669,2.667
			c0.141,1.518-0.588,2.495-2.191,2.688c-1.08,0.127-2.153,0.378-3.233,0.404c-3.904,0.095-4.335-0.349-4.213-4.234
			c0.117-3.7-1.585-7.131-1.398-10.882c0.301-6.018,3.136-8.236,8.971-6.62c0.713,0.198,1.292,0.504,2.162,0.239
			c1.743-0.53,1.698,0.426,0.885,1.512c-0.685,0.912-0.398,1.822-0.333,2.803C296.709,417.109,296.248,417.805,288.607,419.293z"/>
		<path fill="#FAFDFD" d="M343.955,419.3c1.403,0,2.809,0.006,4.212-0.002c1.681-0.011,2.31,1.109,2.483,2.501
			c0.186,1.472-0.403,2.472-2.02,2.834c-1.728,0.388-3.455,0.561-5.195,0.366c-1.986-0.22-3.156-0.88-2.637-3.41
			c0.396-1.918,0.276-4.008-0.493-6.021c-1.081-2.82-0.833-5.833-0.338-8.731c0.504-2.94,3.181-4.28,6.897-3.982
			c1.456,0.116,2.695,1.442,4.381,0.541c0.608-0.325,1.213,0.695,0.676,1.262c-1.322,1.399-0.563,2.891-0.438,4.349
			C352.121,416.372,351.028,417.818,343.955,419.3z"/>
		<path fill="#FBFDFE" d="M99.228,415.825c0,2.298,0.017,4.596-0.013,6.893c-0.008,0.619,0.105,1.509-0.741,1.586
			c-1.134,0.104-1.056-0.931-1.041-1.633c0.115-6.116,0.231-12.234,0.459-18.349c0.05-1.345,4.773-2.208,6.424-0.986
			c1.382,1.022,2.083,1.896,3.745,0.059c1.521-1.683,4.566-0.646,5.325,1.636c1.907,5.743,2.116,11.798,2.891,17.745
			c0.063,0.495,0.114,1.259-0.586,1.314c-1.068,0.086-1.109-0.878-1.196-1.601c-0.497-4.119-0.915-8.249-1.447-12.363
			c-0.167-1.287-0.519-2.57-0.948-3.801c-0.354-1.014-0.82-2.185-2.225-2.007c-1.398,0.178-2.04,1.208-2.128,2.528
			c-0.211,3.158-0.353,6.322-0.547,9.48c-0.044,0.721,0.206,1.83-0.778,1.896c-1.251,0.082-1.171-1.159-1.077-1.944
			c0.352-2.941,0.671-5.864-0.104-8.791c-0.446-1.685-1.137-3.258-3.159-3.17c-1.95,0.085-2.392,1.818-2.554,3.323
			c-0.291,2.712-0.323,5.451-0.464,8.179C99.12,415.822,99.174,415.823,99.228,415.825z"/>
		<path fill="#FBFDFE" d="M131.725,403.812c1.365,5.547,0.583,11.281,2.188,16.842c0.99-3.21,1.958-6.427,2.989-9.623
			c0.223-0.689,0.368-1.642,1.293-1.727c1.208-0.11,1.298,1.032,1.53,1.794c1.013,3.325,1.938,6.677,3.173,10.989
			c1.239-5.481,1.216-10.099,1.672-14.651c0.098-0.977,0.072-1.967,0.162-2.944c0.052-0.57,0.374-1.173,0.938-1.196
			c0.922-0.039,0.946,0.779,0.877,1.418c-0.658,6.187-1.343,12.37-2.04,18.553c-0.079,0.707-0.46,1.223-1.267,1.229
			c-0.783,0.008-1.178-0.485-1.386-1.156c-0.646-2.086-1.225-4.195-1.927-6.264c-0.509-1.491-0.435-3.211-1.73-4.645
			c-1.644,3.28-2.115,6.782-3.304,10.039c-0.362,0.992-0.435,2.412-1.92,2.185c-1.214-0.186-1.184-1.527-1.244-2.427
			c-0.39-5.773-0.683-11.556-0.979-17.336C130.734,404.506,130.785,404.008,131.725,403.812z"/>
		<path fill="#FBFDFE" d="M525.643,420.524c0.995-3.22,1.969-6.446,3-9.655c0.225-0.695,0.441-1.626,1.398-1.596
			c0.948,0.029,1.114,0.975,1.325,1.673c1.027,3.417,1.999,6.853,3.229,10.241c1.126-4.732,1.331-9.499,1.68-14.249
			c0.063-0.871,0.054-1.751,0.188-2.61c0.083-0.531,0.385-1.083,1.057-1.021c0.742,0.069,0.754,0.729,0.712,1.246
			c-0.18,2.175-0.392,4.348-0.633,6.518c-0.41,3.688-0.841,7.373-1.288,11.058c-0.112,0.922,0.143,2.174-1.229,2.333
			c-1.55,0.178-1.625-1.246-1.925-2.209c-1.002-3.214-1.901-6.458-2.991-10.206c-1.975,3.551-2.324,7.064-3.539,10.272
			c-0.372,0.985-0.395,2.455-1.817,2.352c-1.441-0.106-1.376-1.638-1.41-2.609c-0.213-6.051-1.28-12.08-0.489-18.183
			C524.965,409.249,523.827,415.058,525.643,420.524z"/>
		<path fill="#F9FCFD" d="M208.128,425.073c-1.427-0.528-1.554-1.348-1.559-2.067c-0.044-5.896-0.094-11.792-0.001-17.688
			c0.028-1.806,0.394-1.9,1.866-0.637c0.837,0.719,1.083-0.105,1.531-0.383c3.537-2.178,6.315-1.274,7.025,2.75
			c0.946,5.361,1.217,10.825,1.207,16.284c-0.001,0.639,0.017,1.498-0.927,1.323c-0.938-0.174-0.902-1.125-0.946-1.875
			c-0.256-4.354-0.486-8.711-0.735-13.064c-0.112-1.975-0.039-4.376-2.637-4.547c-2.482-0.163-3.396,1.977-3.952,4.092
			c-1.1,4.191-0.502,8.474-0.664,12.716C208.3,422.923,208.211,423.864,208.128,425.073z"/>
		<path fill="#F9FCFD" d="M707.076,414.733c0,2.956,0.007,5.911-0.005,8.866c-0.003,0.657-0.001,1.427-0.753,1.658
			c-0.605,0.186-0.942-0.27-1.125-0.877c-0.461-1.542-1.055-0.347-1.597-0.044c-3.567,1.989-6.404,0.893-6.944-3.131
			c-0.696-5.188-0.898-10.441-1.28-15.671c-0.044-0.604-0.173-1.504,0.709-1.579c1.064-0.09,1.101,0.893,1.149,1.624
			c0.252,3.707,0.449,7.419,0.688,11.127c0.084,1.308,0.127,2.63,0.377,3.907c0.254,1.297,0.668,2.595,2.385,2.688
			c1.502,0.08,2.537-0.682,3.203-1.894c0.966-1.758,1.272-3.707,1.29-5.697c0.026-3.504,0.03-7.007,0.064-10.509
			c0.007-0.651,0.056-1.488,0.897-1.479c0.812,0.008,0.915,0.821,0.919,1.486c0.016,3.176,0.007,6.35,0.007,9.523
			C707.067,414.733,707.072,414.733,707.076,414.733z"/>
		<path fill="#F9FCFD" d="M725.615,413.812c0-2.955-0.015-5.911,0.013-8.867c0.006-0.646,0.087-1.402,0.854-1.587
			c0.712-0.169,0.804,0.489,1.017,1.001c0.604,1.45,1.11,0.195,1.604-0.109c3.367-2.085,6.431-0.926,6.931,2.99
			c0.662,5.195,0.894,10.446,1.268,15.678c0.049,0.688,0.311,1.78-0.833,1.77c-0.962-0.011-0.99-1.002-1.034-1.771
			c-0.246-4.365-0.456-8.734-0.739-13.1c-0.128-1.974-0.198-4.374-2.663-4.663c-2.548-0.299-3.405,1.898-3.959,4.009
			c-1.13,4.314-0.37,8.72-0.64,13.073c-0.06,0.951,0.616,2.606-0.974,2.602c-1.19-0.006-0.841-1.563-0.855-2.482
			c-0.05-2.846-0.018-5.693-0.018-8.54C725.595,413.812,725.605,413.812,725.615,413.812z"/>
		<path fill="#F8FCFD" d="M452.069,51.444c0.002-2.748,0.342-5.452,0.693-8.164c0.194-1.502,0.615-2.866,2.146-3.384
			c1.517-0.512,2.742,0.333,3.825,1.311c2.651,2.391,4.214,9.72,2.859,12.903c-0.779,1.828-2.31,1.661-3.839,1.79
			c-1.21,0.103-2.771-0.674-3.505,0.92c-0.39,0.85,0.078,1.777,0.728,2.385c1.112,1.039,2.459,1.369,3.938,0.81
			c0.407-0.155,0.806-0.343,1.19-0.546c0.521-0.275,1.129-0.445,1.444,0.123c0.428,0.769-0.291,1.141-0.804,1.522
			c-3.211,2.395-7.346,1.072-8.199-2.833C452.062,56.073,452.207,53.728,452.069,51.444z"/>
		<path fill="#F8FCFD" d="M587.744,414.361c-0.339-2.964-0.004-5.898,0.492-8.804c0.521-3.06,2.724-3.893,5.263-2.111
			c3.056,2.145,5.046,10.228,3.408,13.59c-0.865,1.778-2.438,1.499-3.944,1.625c-1.123,0.095-2.522-0.562-3.271,0.786
			c-0.472,0.853-0.027,1.738,0.57,2.405c0.949,1.059,2.182,1.263,3.578,1.113c1.068-0.115,2.615-1.932,2.995-0.425
			c0.44,1.759-1.931,2.036-3.281,2.387c-2.81,0.727-5.272-1.099-5.755-4.357C587.501,418.542,587.744,416.434,587.744,414.361z"/>
		<path fill="#FAFDFD" d="M639.441,414.683c-0.004,2.949,0.024,5.896-0.017,8.846c-0.02,1.338-0.545,2.441-1.733,0.833
			c-1.062-1.436-1.414-0.071-1.988,0.228c-3.173,1.654-6.19,0.418-6.613-3.104c-0.638-5.299-0.894-10.645-1.288-15.973
			c-0.049-0.65-0.025-1.493,0.794-1.563c1.163-0.1,0.978,0.964,1.022,1.65c0.271,4.025,0.298,8.079,0.805,12.074
			c0.268,2.114-0.496,5.545,3.054,5.513c3.462-0.031,3.776-3.257,3.954-5.826c0.271-3.916,0.135-7.857,0.192-11.789
			c0.012-0.741-0.081-1.796,0.896-1.827c1.046-0.033,0.907,1.045,0.913,1.767C639.463,408.566,639.445,411.623,639.441,414.683z"/>
		<path fill="#F9FCFD" d="M602.87,424.669c-1.238-0.846-0.874-1.918-0.878-2.829c-0.019-5.353,0.139-10.706-0.004-16.055
			c-0.08-2.969,1.38-3.571,3.856-3.267c2.895,0.357,5.019,1.836,5.646,4.692c0.787,3.573,0.192,6.972-2.604,9.641
			c-0.612,0.584-1.456,0.927-2.259,1.421c0.751,1.181,2.137,1.34,3.184,2.013c0.623,0.4,1.625,0.728,1.143,1.657
			c-0.599,1.156-1.483,0.366-2.222-0.015c-1.53-0.791-2.652-2.265-4.568-2.761C603.506,420.906,604.003,422.877,602.87,424.669z"/>
		<path fill="#FAFDFD" d="M741.373,415.453c0.215-3.046,0.384-6.096,0.657-9.137c0.139-1.554,0.526-3.135,2.224-3.707
			c1.706-0.576,2.904,0.562,4.012,1.628c2.52,2.43,3.977,9.566,2.651,12.665c-0.766,1.793-2.338,1.634-3.871,1.761
			c-1.219,0.102-2.764-0.664-3.55,0.856c-0.443,0.859,0.127,1.733,0.749,2.357c1.188,1.19,2.607,1.53,4.194,0.804
			c0.397-0.183,0.78-0.397,1.184-0.562c0.423-0.172,0.905-0.231,1.174,0.199c0.361,0.586-0.071,0.995-0.465,1.382
			c-2.581,2.55-7.194,1.425-8.296-2.074C741.407,419.629,741.341,417.544,741.373,415.453z"/>
		<path fill="#FAFDFD" d="M377.79,414.215c0.29-2.382,0.493-4.779,0.894-7.144c0.436-2.583,2.008-4.176,4.705-4.107
			c2.674,0.066,5.001,0.983,5.682,3.961c1.219,5.327,0.135,10.432-1.907,15.335c-0.837,2.012-2.87,2.734-4.927,2.56
			c-2.123-0.181-3.19-1.779-3.562-3.758C378.252,418.809,377.802,416.55,377.79,414.215z"/>
		<path fill="#FAFDFD" d="M312.488,410.65c-0.272,3.424-0.525,6.805-1.625,10.048c-0.862,2.544-2.621,4.185-5.294,4.144
			c-2.815-0.043-3.748-2.182-4.14-4.664c-0.688-4.365-0.585-8.694,0.189-13.044c0.504-2.826,2.04-4.366,4.9-4.18
			c2.822,0.186,5.103,1.315,5.611,4.49C312.305,408.521,312.376,409.615,312.488,410.65z"/>
		<path fill="#FAFDFD" d="M679.412,414.305c0.314-2.488,0.523-4.995,0.973-7.459c0.444-2.442,2.023-3.901,4.559-3.884
			c2.552,0.016,4.93,0.828,5.655,3.56c1.464,5.517,0.363,10.863-1.916,15.933c-0.87,1.936-2.929,2.62-5.022,2.323
			c-1.981-0.281-2.965-1.792-3.312-3.624C679.921,418.903,679.426,416.648,679.412,414.305z"/>
		<path fill="#FAFDFD" d="M326.617,51.084c-0.088-2.312,0.253-4.574,0.656-6.843c0.474-2.668,1.957-4.153,4.676-4.062
			c2.694,0.092,5.125,1.048,5.689,3.98c0.97,5.045,0.302,10.041-1.604,14.778c-0.876,2.18-2.842,3.405-5.277,3.095
			c-2.262-0.289-3.139-1.971-3.608-4.102C326.645,55.652,326.7,53.372,326.617,51.084z"/>
		<path fill="#FAFDFD" d="M81.485,414.395c-0.094-2.529,0.203-5.016,0.675-7.498c0.478-2.503,1.875-3.958,4.443-3.948
			c2.696,0.012,5.215,0.889,5.836,3.776c1.105,5.141,0.38,10.241-1.587,15.084c-0.843,2.071-2.764,3.229-5.02,3.031
			c-2.411-0.212-3.374-1.977-3.845-4.25C81.561,418.522,81.583,416.463,81.485,414.395z"/>
		<path fill="#FAFDFD" d="M542.065,414.005c0.198-2.479,0.024-4.877,0.653-7.254c0.651-2.469,2.058-3.861,4.598-3.806
			c2.549,0.059,4.965,0.85,5.585,3.625c1.199,5.378,0.524,10.679-1.771,15.67c-0.878,1.909-2.753,2.805-4.913,2.578
			c-2.184-0.228-3.03-1.771-3.562-3.732C542.011,418.71,542.263,416.306,542.065,414.005z"/>
		<path fill="#FCFDFE" d="M559.358,425.522c-1.851-1.545-1.469-2.703-1.476-3.714c-0.04-5.468-0.039-10.937,0.014-16.402
			c0.008-0.764-0.388-2.082,0.866-2.095c1.333-0.013,0.288,1.482,0.876,2.086c0.653,0.11,0.91-0.455,1.303-0.773
			c3.215-2.612,6.673-1.581,7.207,2.532c0.702,5.403,0.799,10.885,1.169,16.331c0.04,0.593-0.002,1.187-0.71,1.167
			c-0.285-0.007-0.729-0.518-0.801-0.859c-0.244-1.172-0.449-2.365-0.499-3.559c-0.169-3.929-0.136-7.865-0.746-11.771
			c-0.254-1.621-0.646-3.179-2.505-3.344c-1.714-0.151-2.854,1.003-3.421,2.56c-1.063,2.912-1.188,5.979-1.266,9.035
			C559.305,419.409,559.358,422.105,559.358,425.522z"/>
		<path fill="#FCFDFE" d="M324.929,425.255c-1.444-1.528-0.99-2.893-1.003-4.117c-0.052-5.248-0.042-10.498,0.013-15.746
			c0.008-0.76-0.389-2.082,0.878-2.081c1.315,0.001,0.268,1.497,1.014,2.236c0.38-0.304,0.774-0.613,1.164-0.932
			c3.205-2.606,6.667-1.56,7.199,2.555c0.699,5.403,0.798,10.885,1.167,16.332c0.04,0.595-0.013,1.184-0.724,1.147
			c-0.288-0.015-0.723-0.523-0.794-0.871c-0.242-1.17-0.444-2.364-0.495-3.557c-0.167-3.93-0.136-7.865-0.747-11.771
			c-0.254-1.622-0.652-3.176-2.519-3.33c-1.714-0.142-2.846,1.016-3.412,2.572c-1.059,2.915-1.12,5.983-1.278,9.036
			C325.253,419.417,325.764,422.144,324.929,425.255z"/>
		<path fill="#FBFDFE" d="M447.259,418.296c0.91,1.186,2.153,1.425,3.161,2.043c0.606,0.372,1.701,0.621,1.192,1.585
			c-0.601,1.137-1.496,0.358-2.232-0.045c-1.591-0.871-2.862-2.313-4.801-2.851c-0.665,1.896,0.084,3.853-1.007,5.991
			c-1.688-1.982-1.239-4.012-1.085-5.761c0.405-4.586,0.434-9.173,0.332-13.757c-0.062-2.844,1.433-3.374,3.74-2.996
			c2.661,0.437,4.973,1.604,5.437,4.472c0.606,3.741,0.567,7.489-2.831,10.188C448.607,417.609,447.932,417.903,447.259,418.296z"/>
		<path fill="#FCFDFE" d="M712.133,424.929c-0.806-3.753-0.399-6.786-0.407-9.797c-0.008-3.178,0.133-6.358-0.033-9.525
			c-0.15-2.868,1.426-3.393,3.688-3.086c2.673,0.362,4.839,1.553,5.539,4.392c0.886,3.595,0.484,6.971-2.23,9.737
			c-0.67,0.684-1.585,1.126-2.411,1.695c0.67,0.942,1.761,1.228,2.695,1.767c0.764,0.44,2.295,0.747,1.488,1.98
			c-0.735,1.126-1.754-0.021-2.545-0.471c-0.854-0.483-1.68-1.045-2.438-1.667c-1.709-1.399-2.442-1.074-2.354,1.168
			C713.162,422.168,713.268,423.274,712.133,424.929z"/>
		<path fill="#F7FCFD" d="M352.123,50.934c0,2.844-0.059,5.689,0.021,8.531c0.054,1.972-0.854,2.816-2.743,2.787
			c-3.424-0.057-6.315-2.521-6.919-5.899c-0.802-4.474,0.958-9.229,4.202-10.03c2.664-0.657,4.125-1.604,3.726-4.534
			c-0.088-0.653-0.096-1.758,1.004-1.659c0.759,0.066,0.766,0.973,0.771,1.618c0.021,3.062,0.009,6.124,0.009,9.186
			C352.168,50.934,352.145,50.934,352.123,50.934z"/>
		<path fill="#F7FCFD" d="M582.596,402.781c1.327,0.637,0.918,1.866,0.921,2.869c0.018,5.359-0.12,10.72-0.025,16.077
			c0.053,2.932-1.268,3.665-3.877,3.09c-3.847-0.85-5.771-3.152-5.897-7.157c-0.159-5.027,1.485-7.97,5.388-8.882
			c2.036-0.477,2.709-1.436,2.593-3.39C581.643,404.482,581.444,403.37,582.596,402.781z"/>
		<path fill="#FAFCFD" d="M366.622,53.833c0,2.073,0.085,4.152-0.032,6.22c-0.068,1.219-0.04,2.981-2.089,1.167
			c-0.812-0.721-1.843,0.226-2.779,0.376c-1.61,0.259-3.312,0.728-4.562-0.801c-0.962-1.174-1.21-2.597-0.63-4.01
			c0.771-1.879,2.39-2.615,4.26-2.292c3.54,0.61,4.425-1.026,4.025-4.166c-0.179-1.4-0.077-2.834-0.105-4.254
			c-0.053-2.7-1.032-4.412-4.138-4.073c-0.762,0.083-2.083,0.427-2.06-0.836c0.018-1.034,1.259-0.948,2.12-1.019
			c3.909-0.317,4.858,0.562,5.536,4.552C366.683,47.739,366.638,50.781,366.622,53.833z"/>
		<path fill="#FAFDFD" d="M160.874,417.524c0,1.203,0.12,2.421-0.027,3.606c-0.218,1.729,0.524,4.555-3.115,2.864
			c-0.793-0.368-2.084,0.435-3.163,0.559c-2.313,0.266-3.861-0.588-4.059-3.108c-0.19-2.462,0.766-3.957,3.409-4.215
			c5.252-0.511,5.252-0.548,5.102-5.971c-0.021-0.766-0.081-1.528-0.143-2.292c-0.211-2.685-1.009-4.725-4.36-4.195
			c-0.685,0.107-1.762,0.275-1.834-0.789c-0.071-1.028,0.942-0.97,1.688-1.066c4.195-0.547,5.626,0.607,5.982,4.801
			c0.139,1.631,0.388,3.255,0.47,4.888c0.082,1.637,0.018,3.28,0.018,4.92C160.852,417.524,160.863,417.524,160.874,417.524z"/>
		<path fill="#FAFDFD" d="M438.207,417.216c0,1.312,0.103,2.635-0.024,3.935c-0.176,1.796,0.389,4.466-3.132,2.839
			c-0.71-0.328-1.872,0.408-2.84,0.539c-2.394,0.322-4.15-0.351-4.367-3.101c-0.211-2.688,0.986-4.157,3.755-4.195
			c0.766-0.011,1.541-0.086,2.295,0.01c1.863,0.235,2.603-0.538,2.484-2.391c-0.11-1.744-0.02-3.5-0.115-5.245
			c-0.166-2.968-0.799-5.521-4.754-4.823c-0.61,0.106-1.473,0.065-1.509-0.812c-0.034-0.816,0.736-0.909,1.397-1.038
			c4.118-0.804,5.937,0.585,6.29,4.805c0.138,1.631,0.385,3.254,0.472,4.889c0.081,1.525,0.018,3.061,0.018,4.591
			C438.187,417.216,438.196,417.216,438.207,417.216z"/>
		<path fill="#FAFDFD" d="M500.786,52.721c0,1.126,0,1.781,0,2.436c0,6.713,0,6.678-6.521,6.688
			c-2.308,0.004-3.508-1.207-3.714-3.291s0.798-3.553,2.977-4.027c1.675-0.363,3.978,0.797,4.951-0.655
			c1.195-1.78,0.442-4.24,0.396-6.4c-0.1-4.722-0.144-4.722-4.92-5.429c-0.522-0.077-1.212,0.019-1.309-0.671
			c-0.12-0.856,0.614-0.998,1.25-1.161c3.659-0.944,5.729,0.434,6.477,4.176C500.956,47.31,500.674,50.256,500.786,52.721z"/>
		<path fill="#F8FCFD" d="M485.464,40.333c1.185,0.618,0.847,1.601,0.85,2.396c0.016,5.466-0.098,10.934-0.01,16.396
			c0.046,2.803-1.232,3.391-3.693,2.888c-3.604-0.737-5.65-2.801-6.063-6.338c-0.464-3.962,1.229-8.56,4.106-9.219
			c3.061-0.702,4.128-2.28,4.237-5.085C484.902,41.024,485.257,40.69,485.464,40.333z"/>
		<path fill="#F6FBFD" d="M437.735,50.889c-0.001-3.062-0.018-6.127,0.01-9.19c0.008-0.722-0.197-1.798,0.813-1.863
			c0.979-0.064,0.994,0.964,1.031,1.717c0.043,0.874,0.09,1.755,0.017,2.624c-0.152,1.841,0.604,2.402,2.464,2.447
			c4.347,0.104,5.364,1.215,5.461,5.522c0.058,2.514-0.02,5.032-0.104,7.545c-0.023,0.733-0.108,1.788-1.05,1.767
			c-1.114-0.026-0.747-1.128-0.761-1.814c-0.049-2.714,0.802-5.354,0.25-8.153c-0.492-2.501-1.859-3.31-4.092-3.183
			c-2.402,0.136-2.174,1.945-2.166,3.608c0.015,2.844,0.013,5.688-0.038,8.531c-0.013,0.729-0.059,1.72-1.134,1.584
			c-0.835-0.104-0.685-1.01-0.689-1.624C437.721,57.234,437.736,54.061,437.735,50.889z"/>
		<path fill="#F7FCFD" d="M478.589,413.382c0-3.062-0.013-6.122,0.009-9.185c0.004-0.655,0.099-1.537,0.835-1.593
			c1.131-0.085,0.918,0.969,0.97,1.674c0.055,0.762,0.087,1.537,0.006,2.294c-0.221,2.065,0.461,2.859,2.725,2.834
			c4.021-0.043,5.081,1.104,5.196,5.028c0.08,2.729-0.01,5.465-0.084,8.196c-0.019,0.704,0.056,1.775-1.051,1.642
			c-1.06-0.127-0.838-1.174-0.709-1.866c0.484-2.601,0.58-5.208,0.38-7.837c-0.169-2.201-1.38-3.424-3.55-3.52
			c-1.688-0.073-2.978,0.408-2.914,2.565c0.093,3.168,0.035,6.343-0.002,9.513c-0.009,0.705,0.151,1.757-0.969,1.682
			c-0.745-0.05-0.827-0.938-0.831-1.589C478.576,419.941,478.589,416.661,478.589,413.382z"/>
		<path fill="#FBFDFE" d="M232.737,415.592c0,0.767,0.029,1.534-0.005,2.3c-0.1,2.176,0.279,4.375-0.313,6.526
			c-1.952-0.546-3.854-0.199-5.813,0.11c-2.343,0.371-3.771-0.74-3.895-3.251c-0.114-2.33,0.794-3.738,3.255-4.052
			c1.679-0.215,3.974,0.935,4.908-0.688c0.996-1.729,0.404-4.06,0.208-6.13c-0.041-0.435-0.229-0.864-0.214-1.293
			c0.12-3.061-0.922-4.875-4.387-4.337c-0.71,0.11-1.791,0.199-1.813-0.84c-0.021-0.961,0.996-0.933,1.76-1.023
			c4.168-0.496,5.769,0.827,6.154,5.122c0.029,0.327,0.046,0.656,0.047,0.984c0.004,2.189,0.002,4.379,0.002,6.569
			C232.666,415.592,232.701,415.592,232.737,415.592z"/>
		<path fill="#F8FCFD" d="M511.438,51.984c1.104-3.417,2.151-6.853,3.349-10.235c0.268-0.755,0.135-2.442,1.55-1.91
			c1.186,0.446,0.405,1.759,0.123,2.624c-0.784,2.392-1.638,4.762-2.54,7.11c-1.306,3.393-2.429,6.797-1.987,10.523
			c0.084,0.709,0.126,1.747-0.955,1.72c-0.781-0.02-0.906-0.904-0.841-1.552c0.598-5.83-2.241-10.842-3.8-16.158
			c-0.216-0.734-0.494-1.452-0.704-2.188c-0.183-0.637-0.367-1.381,0.483-1.637c0.854-0.255,1.116,0.48,1.313,1.104
			c1.123,3.535,2.226,7.078,3.335,10.617C510.988,51.996,511.214,51.99,511.438,51.984z"/>
		<path fill="#F8FCFD" d="M264.94,414.919c1.13-3.504,2.225-7.02,3.418-10.5c0.252-0.733,0.221-2.176,1.328-1.904
			c1.387,0.339,0.647,1.622,0.391,2.491c-0.403,1.361-0.975,2.673-1.417,4.023c-1.484,4.542-3.848,8.884-3.174,13.929
			c0.082,0.612,0.089,1.465-0.745,1.604c-0.904,0.151-1.086-0.674-1.028-1.299c0.588-6.283-2.546-11.667-4.132-17.425
			c-0.252-0.915-1.406-2.271,0.201-2.746c1.264-0.373,1.278,1.254,1.553,2.081c1.063,3.199,2,6.442,2.983,9.67
			C264.526,414.868,264.733,414.895,264.94,414.919z"/>
		<path fill="#F9FCFD" d="M405.332,47.785c-0.409,3.185,0.305,5.495,3.929,6.371c1.961,0.476,2.315,2.41,2.21,4.298
			c-0.097,1.708-0.873,2.961-2.507,3.479c-1.76,0.56-3.174-0.322-4.472-1.396c-0.44-0.365-0.771-0.836-0.375-1.4
			c0.44-0.63,0.939-0.323,1.386,0.041c1.428,1.166,3.104,1.909,4.079-0.172c1.079-2.304-0.615-3.336-2.633-3.889
			c-1.632-0.448-2.511-1.53-2.911-3.197c-0.839-3.511-0.608-6.948,0.472-10.345c0.548-1.726,1.851-2.386,3.591-2.094
			c1.665,0.28,2.735,1.333,3.197,2.923c0.177,0.609,0.187,1.376-0.603,1.673c-0.677,0.255-0.996-0.269-1.174-0.799
			c-0.377-1.123-0.902-2.152-2.297-1.705c-1.158,0.372-1.571,1.467-1.677,2.609C405.434,45.379,405.399,46.584,405.332,47.785z"/>
		<path fill="#F8FCFD" d="M761.778,414.852c1.073-3.299,2.096-6.616,3.254-9.885c0.321-0.908,0.209-2.81,1.548-2.375
			c1.575,0.51,0.396,2.087,0.092,3.119c-0.593,1.988-1.356,3.931-2.094,5.875c-1.396,3.693-2.773,7.382-2.258,11.46
			c0.079,0.627,0.02,1.48-0.824,1.536c-0.853,0.058-1.02-0.767-0.959-1.406c0.594-6.286-2.575-11.66-4.154-17.419
			c-0.239-0.873-1.201-2.158,0.008-2.604c1.582-0.582,1.505,1.235,1.801,2.106c1.078,3.158,1.989,6.375,2.964,9.568
			C761.362,414.836,761.57,414.844,761.778,414.852z"/>
		<path fill="#F8FCFD" d="M381.867,39.205c1.19,2.172,0.212,3.569-0.23,4.97c-1.671,5.276-4.606,10.238-3.832,16.104
			c0.085,0.644-0.05,1.478-0.854,1.542c-0.856,0.069-1.017-0.749-0.956-1.398c0.561-6.056-2.51-11.227-4.052-16.769
			c-0.117-0.421-0.315-0.821-0.412-1.247c-0.163-0.717-0.596-1.663,0.334-2.009c1.01-0.375,1.222,0.655,1.443,1.354
			c0.727,2.294,1.395,4.606,2.108,6.905c0.354,1.134,0.755,2.253,1.3,3.865C379.117,48.176,379.217,43.434,381.867,39.205z"/>
		<path fill="#FAFDFD" d="M501.542,410.834c0.132,2.709,0.393,5.076,3.634,5.83c1.84,0.429,2.847,1.93,2.825,3.939
			c-0.016,1.629-0.51,3.022-1.995,3.867c-1.697,0.965-3.168,0.072-4.598-0.716c-0.637-0.352-1.477-0.846-0.853-1.77
			c0.551-0.813,1.096-0.125,1.631,0.201c1.372,0.835,2.923,1.676,3.754-0.467c0.696-1.795-0.008-3.276-2.044-3.694
			c-2.623-0.54-3.532-2.388-3.687-4.735c-0.19-2.938-0.354-5.896,0.701-8.746c0.541-1.461,1.417-2.456,3.133-2.322
			c1.825,0.144,3.024,1.121,3.67,2.803c0.248,0.647,0.308,1.383-0.362,1.749c-0.794,0.434-1.126-0.215-1.4-0.856
			c-0.396-0.925-0.854-1.902-2.098-1.65c-1.278,0.26-1.604,1.347-1.762,2.475C501.895,408.145,501.714,409.55,501.542,410.834z"/>
		<path fill="#FAFDFD" d="M166.806,410.804c-0.383,3.158,0.588,5.257,3.992,6.029c1.833,0.418,2.396,2.199,2.43,3.896
			c0.035,1.754-0.819,3.164-2.496,3.897c-1.643,0.719-2.954-0.205-4.252-1.011c-0.578-0.357-1.104-0.918-0.708-1.614
			c0.494-0.869,1.077-0.272,1.598,0.105c1.4,1.02,2.947,1.514,3.834-0.389c0.865-1.853-0.12-3.239-2.043-3.665
			c-2.585-0.572-3.372-2.274-3.763-4.679c-0.508-3.119-0.115-6.091,0.79-9.021c0.518-1.68,1.865-2.439,3.602-2.069
			c1.608,0.342,2.708,1.367,3.045,3.044c0.11,0.546,0.059,1.166-0.481,1.452c-0.604,0.32-1.035-0.059-1.25-0.63
			c-0.396-1.049-0.763-2.214-2.224-1.834c-1.437,0.373-1.501,1.779-1.736,2.909C166.898,408.391,166.908,409.609,166.806,410.804z"
			/>
		<path fill="#FAFDFD" d="M405.364,410.772c-0.362,3.135,0.539,5.279,3.965,6.048c1.84,0.413,2.41,2.182,2.458,3.877
			c0.051,1.756-0.796,3.166-2.464,3.916c-1.64,0.738-2.956-0.177-4.255-0.979c-0.57-0.353-1.123-0.886-0.747-1.604
			c0.473-0.903,1.061-0.328,1.583,0.057c1.39,1.018,2.934,1.552,3.847-0.34c0.889-1.842-0.075-3.25-1.999-3.683
			c-2.569-0.578-3.39-2.244-3.792-4.657c-0.521-3.124-0.1-6.09,0.776-9.024c0.5-1.681,1.839-2.459,3.582-2.106
			c1.616,0.327,2.715,1.355,3.072,3.021c0.116,0.54,0.08,1.155-0.455,1.465c-0.599,0.345-1.036-0.015-1.26-0.583
			c-0.406-1.032-0.739-2.223-2.207-1.869c-1.455,0.349-1.521,1.758-1.761,2.885C405.462,408.359,405.469,409.577,405.364,410.772z"
			/>
		<path fill="#F6FBFD" d="M415.818,417.624c3.309-0.645,2.848-2.914,2.854-4.953c0.009-2.735,0.03-5.472,0.046-8.206
			c0.005-0.921,0.1-1.953,1.278-1.862c1.064,0.082,0.776,1.083,0.759,1.835c-0.077,3.281,0.111,6.593-0.269,9.837
			c-0.305,2.604,2.549,1.869,2.819,3.062c0.392,1.736-3.319,0.642-2.783,3.154c0.226,1.059,0.003,2.246,1.394,2.658
			c0.628,0.187,1.411,0.356,1.086,1.249c-0.35,0.956-1.233,0.799-1.953,0.55c-1.514-0.523-2.37-1.727-2.299-3.254
			C418.843,419.696,418.234,418.363,415.818,417.624z"/>
		<path fill="#F6FBFD" d="M424.704,54.717c3.972-0.6,3.91-2.626,3.848-4.761c-0.075-2.515,0.005-5.033,0.05-7.55
			c0.018-1.033-0.365-2.595,1.207-2.532c1.472,0.058,0.743,1.535,0.743,2.404c0.001,2.735-0.121,5.471-0.118,8.205
			c0.002,1.537-0.566,3.51,2.121,3.457c0.508-0.01,0.862,0.43,0.734,0.854c-0.101,0.338-0.548,0.621-0.899,0.828
			c-2.622,1.539-2.752,3.042-0.331,4.814c0.444,0.325,1.048,0.454,0.828,1.15c-0.254,0.808-0.967,0.82-1.617,0.683
			c-1.591-0.334-2.618-1.458-2.604-2.97C428.687,57.154,428.109,55.597,424.704,54.717z"/>
		<path fill="#F6FBFD" d="M461.31,409.399c0,1.641,0.241,3.327-0.055,4.913c-0.486,2.61,2.582,1.817,2.811,3.053
			c0.315,1.7-3.34,0.631-2.797,3.161c0.227,1.062,0.031,2.24,1.427,2.633c0.64,0.182,1.399,0.391,1.041,1.271
			c-0.378,0.932-1.257,0.771-1.976,0.506c-1.647-0.607-2.281-1.942-2.328-3.605c-0.038-1.314,0.125-2.613-1.741-2.979
			c-1.021-0.199-1.193-1.242-0.086-1.473c2.302-0.48,1.759-2.163,1.793-3.587c0.071-2.952,0.047-5.907,0.067-8.86
			c0.006-0.921,0.125-1.949,1.312-1.819c1.057,0.116,0.729,1.12,0.719,1.865c-0.022,1.641-0.007,3.281-0.007,4.922
			C461.43,409.399,461.369,409.399,461.31,409.399z"/>
		<path fill="#F6FBFD" d="M615.651,417.427c3.398-0.441,2.895-2.73,2.879-4.752c-0.019-2.52,0.008-5.025,0.431-7.524
			c0.222-1.309,0.716-2.295,2.007-2.725c0.64-0.213,1.399-0.277,1.794,0.355c0.469,0.755-0.038,1.206-0.777,1.405
			c-1.531,0.412-1.562,1.644-1.571,2.876c-0.014,2.189,0.016,4.38-0.017,6.569c-0.021,1.579-0.165,3.089,2.151,3.2
			c0.981,0.048,1.318,1.351,0.349,1.465c-3.143,0.368-2.547,2.29-2.177,4.257c0.162,0.859,0.475,1.976-0.66,2.214
			c-1.616,0.338-1.329-1.195-1.365-2.006C618.597,420.573,618.618,418.424,615.651,417.427z"/>
		<path fill="#F6FBFD" d="M187.227,417.067c2.911-0.17,2.91-1.979,2.838-3.927c-0.103-2.733-0.047-5.464,0.439-8.176
			c0.292-1.626,1.116-2.602,2.806-2.617c0.348-0.004,0.804,0.309,1.025,0.61c0.316,0.431,0.006,0.967-0.395,1.058
			c-2.492,0.563-1.976,2.537-2.013,4.216c-0.048,2.078,0.237,4.196-0.067,6.229c-0.399,2.66,2.696,1.686,2.939,3.036
			c0.333,1.846-3.484,0.331-2.858,2.96c0.227,0.953,0.317,1.941,0.417,2.92c0.072,0.707-0.132,1.361-0.952,1.45
			c-0.876,0.097-1.06-0.554-1.113-1.265c-0.082-1.089-0.321-2.188-0.233-3.263C190.212,418.431,188.204,418.714,187.227,417.067z"/>
		<path fill="#F4FBFD" d="M317.534,52.064c0-2.298-0.046-4.598,0.014-6.895c0.05-1.866-0.182-3.354-2.635-2.95
			c-0.633,0.104-1.464,0.271-1.633-0.584c-0.214-1.077,0.791-1.255,1.488-1.305c2.068-0.146,4.148-0.164,6.226-0.192
			c0.571-0.008,1.185,0.252,1.264,0.835c0.086,0.627-0.494,0.951-1.062,0.985c-2.162,0.132-1.898,1.744-1.9,3.126
			c-0.008,4.707,0.073,9.413,0.021,14.118c-0.011,0.951,0.455,2.616-1.134,2.555c-1.263-0.049-0.814-1.57-0.838-2.473
			c-0.062-2.406-0.021-4.814-0.021-7.223C317.393,52.064,317.463,52.064,317.534,52.064z"/>
		<path fill="#F4FBFD" d="M77.625,403.841c-4.356,0.708-3.458,3.769-3.468,6.36c-0.016,4.158,0.047,8.316,0.01,12.476
			c-0.008,0.779,0.148,2.021-1.165,1.88c-0.983-0.108-0.8-1.18-0.794-1.9c0.042-4.705,0.106-9.411,0.205-14.114
			c0.044-2.108,0.135-4.154-3.01-3.516c-0.55,0.112-1.158,0.018-1.288-0.669c-0.129-0.677,0.412-1.035,0.94-1.111
			C71.795,402.854,74.556,402.387,77.625,403.841z"/>
		<path fill="#FAFDFD" d="M365.214,417.528c4.283-0.749,4.058-3.134,4.04-5.449c-0.018-2.402,0.021-4.806,0.062-7.209
			c0.014-0.827-0.29-2.04,0.933-2.087c1.279-0.05,1.028,1.19,0.993,1.995c-0.124,2.832-0.375,5.658-0.472,8.489
			c-0.053,1.552-0.53,3.499,2.132,3.453c0.478-0.009,0.847,0.306,0.847,0.8c0,0.479-0.405,0.66-0.808,0.881
			c-2.897,1.589-3.036,3.193-0.397,4.796c0.465,0.283,1.117,0.359,0.944,1.052c-0.193,0.773-0.9,0.902-1.58,0.818
			c-1.67-0.208-2.663-1.279-2.552-2.866C369.523,419.865,368.699,418.359,365.214,417.528z"/>
		<path fill="#F5FBFD" d="M644.083,415.619c0.112-3.604-0.072-7.221,0.532-10.802c0.111-0.659,0.186-1.455,1.028-1.373
			c0.826,0.08,0.812,0.859,0.775,1.544c-0.245,4.692-0.278,9.407-0.793,14.069c-0.305,2.748,0.211,3.979,3.164,3.612
			c0.861-0.107,2.361-0.581,2.48,0.731c0.125,1.363-1.397,1.019-2.281,1.11c-4.901,0.517-4.904,0.498-4.907-4.297
			C644.083,418.686,644.083,417.152,644.083,415.619z"/>
		<path fill="#F7FCFD" d="M249.894,414.188c0-2.956-0.021-5.912,0.014-8.868c0.008-0.768,0.173-1.771,1.077-1.77
			c1.148,0.004,0.78,1.113,0.753,1.789c-0.177,4.479-0.284,8.969-0.662,13.433c-0.247,2.901,0.435,4.448,3.688,3.887
			c0.665-0.114,1.793-0.368,1.926,0.649c0.172,1.314-1.089,1.072-1.872,1.179c-0.974,0.134-1.979,0.052-2.946,0.212
			c-1.621,0.267-2.183-0.429-2.159-1.97c0.044-2.846,0.014-5.693,0.014-8.541C249.781,414.188,249.837,414.188,249.894,414.188z"/>
		<path fill="#FAFCFD" d="M237.945,414.04c0-2.625-0.053-5.252,0.028-7.873c0.029-0.973-0.49-2.694,1.047-2.594
			c1.459,0.096,0.806,1.785,0.775,2.758c-0.128,4.146-0.275,8.3-0.621,12.433c-0.236,2.834,0.362,4.481,3.666,3.899
			c0.729-0.129,2.021-0.43,1.99,0.911c-0.021,0.951-1.126,0.828-1.854,0.904c-0.979,0.103-1.988,0.024-2.94,0.229
			c-1.895,0.406-2.271-0.536-2.241-2.14c0.055-2.842,0.016-5.687,0.016-8.529C237.855,414.04,237.9,414.04,237.945,414.04z"/>
		<path fill="#FAFDFD" d="M666.677,418.156c1.435,0.504,1.049,1.568,1.301,2.317c0.452,1.343,0.634,2.918,2.582,2.81
			c1.809-0.1,2.204-1.447,2.484-2.933c0.732-3.896,0.571-7.816,0.504-11.742c-0.018-0.968-0.646-2.173,0.801-2.963
			c1.185,1.391,0.623,2.975,0.646,4.396c0.058,3.487,0.056,6.984-0.137,10.466c-0.115,2.093-1.23,3.716-3.354,4.402
			c-1.5,0.486-2.877,0.131-3.858-1.055C666.268,422.192,666.015,420.292,666.677,418.156z"/>
		<path fill="#F7FCFD" d="M316.775,424.71c0-5.776-0.004-11.52,0.005-17.262c0.001-0.684,0.161-1.393,0.986-1.425
			c0.612-0.023,0.969,0.51,0.955,1.104c-0.139,5.842,0.258,11.717-1.008,17.491C317.7,424.678,317.339,424.658,316.775,424.71z"/>
		<path fill="#F7FCFD" d="M397.641,61.948c-1.111-2.337-0.554-4.801-0.646-7.19c-0.128-3.368-0.045-6.742-0.034-10.114
			c0.002-0.683,0.178-1.378,1.016-1.378c0.624,0,0.935,0.539,0.924,1.131C398.797,50.261,399.076,56.156,397.641,61.948z"/>
		<path fill="#F8FCFD" d="M493.483,424.713c0-5.827-0.007-11.653,0.011-17.48c0.001-0.53,0.072-1.175,0.779-1.234
			c0.835-0.069,1.18,0.553,1.153,1.244c-0.222,5.819-0.481,11.638-0.73,17.455C494.292,424.701,493.888,424.708,493.483,424.713z"/>
		<path fill="#F8FCFD" d="M199.688,424.716c0-3.284-0.003-6.567,0.001-9.853c0.003-2.508,0.002-5.017,0.031-7.523
			c0.008-0.655,0.093-1.407,0.988-1.359c0.599,0.032,0.973,0.551,0.949,1.146c-0.23,5.87-0.491,11.74-0.742,17.609
			C200.507,424.729,200.097,424.723,199.688,424.716z"/>
		<path fill="#E48429" d="M348.319,131.477c0.449,0.648,1.776,1.608,0.87,2.012c-2.039,0.906-3.172,4.362-6.278,2.479
			C344.402,134.095,346.12,132.496,348.319,131.477z"/>
		<path fill="#E48429" d="M365.992,128.806c-3.592-0.021-7.185-0.043-10.779-0.063C358.812,127.681,362.407,127.387,365.992,128.806
			z"/>
		<path fill="#7EDDF2" d="M336.531,155.08c-0.237,0.004-0.474,0.009-0.71,0.014c0.016-2.435,0.029-4.869,0.051-7.304
			c0.001-0.086,0.058-0.226,0.121-0.249c0.461-0.168,0.462,0.233,0.579,0.489C337.493,150.386,337.384,152.734,336.531,155.08z"/>
		<path fill="#ADB49A" d="M336.531,155.08c0.013-2.351,0.026-4.7,0.04-7.051c0.166-0.084,0.339-0.148,0.52-0.194
			c0.484,0.433,0.344,1.016,0.375,1.557c-0.102,1.654,0.225,3.326-0.201,4.967c-0.078,0.481-0.157,0.961-0.235,1.442
			C336.862,155.561,336.696,155.32,336.531,155.08z"/>
		<path fill="#E1F4FA" d="M675.383,403.719c0.012,0.67-0.367,0.986-0.979,1.057c-0.467,0.053-0.895-0.094-1.029-0.575
			c-0.184-0.653,0.225-1.063,0.787-1.207C674.731,402.85,675.233,403.045,675.383,403.719z"/>
		<path fill="#F4FBFD" d="M494.621,404.678c-0.474,0.042-0.844-0.095-0.945-0.608c-0.098-0.481,0.113-0.853,0.564-0.997
			c0.632-0.205,1.064,0.091,1.116,0.729C495.393,404.245,495.135,404.611,494.621,404.678z"/>
		<path fill="#F3FAFC" d="M318.667,403.831c-0.082,0.443-0.247,0.838-0.771,0.854c-0.625,0.02-1.021-0.268-0.945-0.945
			c0.058-0.508,0.465-0.71,0.909-0.719C318.358,403.012,318.592,403.366,318.667,403.831z"/>
		<path fill="#F3FAFC" d="M398.843,41.097c-0.084,0.518-0.365,0.847-0.842,0.828c-0.604-0.024-1.017-0.333-0.851-1.024
			c0.116-0.481,0.496-0.662,0.961-0.641C398.659,40.284,398.76,40.707,398.843,41.097z"/>
		<path fill="#F4FBFD" d="M201.596,403.962c-0.081,0.511-0.452,0.722-0.898,0.731c-0.484,0.01-0.831-0.3-0.806-0.784
			c0.031-0.606,0.391-0.979,1.054-0.876C201.46,403.115,201.605,403.493,201.596,403.962z"/>
		<path fill="#F0F9FC" d="M521.895,60.635c0.452,0.028,0.824,0.225,0.874,0.688c0.048,0.449-0.227,0.784-0.693,0.836
			c-0.46,0.05-0.812-0.163-0.837-0.66C521.219,61.064,521.38,60.695,521.895,60.635z"/>
		<path fill="#F0F9FC" d="M772.48,423.411c0.46,0.106,0.723,0.427,0.676,0.866c-0.051,0.47-0.446,0.676-0.89,0.655
			c-0.521-0.024-0.668-0.43-0.638-0.863C771.662,423.575,772.016,423.401,772.48,423.411z"/>
		<path fill="#E48429" d="M337.274,149.213c-0.062-0.459-0.123-0.919-0.185-1.378c0.217-0.705,0.433-1.409,0.648-2.115
			c0.017,1.158,0.035,2.315,0.052,3.473C337.633,149.56,337.459,149.549,337.274,149.213z"/>
		<path fill="#FDD093" d="M398.77,291.181c-2.948-2.709-5.445-5.925-8.982-7.971c-3.793-3.25-8.293-5.134-12.955-6.706
			c-1.23-0.416-2.689-0.653-2.299-2.517c1.549-7.386,4.441-14.046,10.382-19.04c2.402,2.09,3.176,5.611,6.27,7.09
			c1.642,1.888,3.621,2.065,5.917,1.382c5.743-1.711,10.519-5.072,15.194-8.644c1.364-1.042,2.439-2.513,4.232-2.948
			c1.825-0.026,3.007,1.187,4.289,2.213c3.626,3.377,7.417,3.531,12.085,0.439c1.263-0.836,2.387-1.906,3.972-2.144
			c1.385-0.077,2.52,0.561,3.574,1.331c3.407,2.488,7.052,4.618,10.58,6.924c4.703,3.859,8.995,3.725,13.231-0.482
			c0.569-0.566,1.101-1.044,1.945-1.015c1.825,0.341,2.67,1.78,3.514,3.187c1.812,3.027,2.918,6.351,3.785,9.736
			c0.943,3.688,0.214,5.164-3.437,6.592c-11.771,4.61-20.168,12.745-25.445,24.157c-2.026,4.386-3.379,8.966-3.648,13.838
			c-0.221,3.993-1.46,5.41-5.312,6.347c-5.91,1.438-11.923,1.131-17.921,0.987c-1.244-0.029-2.294-0.646-3.266-1.385
			c-1.009-1.105-1.231-2.538-1.492-3.912C410.981,308.065,405.98,299.055,398.77,291.181z"/>
		<path fill="#FDD093" d="M359.424,343.744c-1.17,0.137-1.666-1.059-2.628-1.332c-8.149-6.764-13.484-15.089-14.663-25.844
			c-1.885-17.2,10.785-33.842,32.036-29.65c9.057,1.786,15.787,7.203,21.356,14.282c0.48,1.004,0.963,2.008,1.446,3.011
			c2.895,8.507,0.418,16.379-3.779,23.534c-6.212,10.592-15.517,16.72-28.246,16.678
			C363.07,344.417,361.279,343.842,359.424,343.744z"/>
		<path fill="#D67C27" d="M475.252,156.227c0.641,0.948,1.281,1.896,1.923,2.844c3.408,9.171,5.693,18.521,5.142,28.431
			c-0.398,7.16-1.974,14.022-4.49,20.703c0.83,2.921-1.396,4.892-2.427,7.142c-2.748,5.993-6.833,11.033-12.084,15.086
			c-0.646,0.189-1.328,0.215-1.939-0.005c-7.254-2.615-13.485-0.155-19.415,3.857c-0.452,0.306-0.963,0.544-1.358,0.914
			c-3.686,3.466-7.403,4.332-11.979,1.223c-3.271-2.225-6.728-0.642-9.858,1.16c-0.973,0.264-1.772,1.008-2.831,1.031
			c-1.618-0.034-2.82-0.985-4.082-1.836c-3.329-2.242-6.618-4.562-10.354-6.108c-2.439-1.012-4.978-1.394-7.633-1.302
			c-3.932,0.136-6.801,1.789-8.457,5.417c-0.694,0.462-1.476,0.517-2.151,0.118c-3.866-2.275-6.948-5.407-9.556-9.019
			c-0.396-0.548-0.276-1.241,0.237-1.776c6.838,1.33,13.75,1.483,20.686,1.32c2.601-0.062,5.135-0.409,7.577-1.324
			c0.594-0.515,1.288-0.322,1.96-0.281c6.046,2.313,12.388,3.876,18.771,3.709c8.312-0.218,16.342-2.255,23.647-6.66
			c5.933-3.577,10.92-7.922,14.001-14.268c1.844-3.798,1.893-7.791,1.72-11.843c-0.052-1.173-0.744-2.021-1.609-2.737
			c-1.829-2.021-3.425-4.25-5.441-6.118c-0.69-0.64-1.519-1.333-1.146-2.511c3.604-9.826,5.803-19.885,5.297-30.439
			c-0.247-5.153-1.114-10.182-2.387-15.163c-0.253-0.989-1.171-1.969-0.268-3.074c1.906-0.778,3.041,0.632,4.272,1.588
			c5.728,4.444,10.091,10.054,13.745,16.26C475.452,153.715,476.161,154.864,475.252,156.227z"/>
		<path fill="#FED7A8" d="M390.217,214.979c-5.614-4.831-8.139-11.032-7.693-18.334c0.299-4.914,3.53-8.106,7.384-10.659
			c6.328-4.189,13.487-6.227,20.854-7.484c10.769-1.838,21.528-1.94,32.177,0.957c2.246,1.416,2.573,3.695,2.614,6.037
			c0.147,8.473-3.59,15.166-9.687,20.72c-1.292,1.177-2.68,2.31-4.234,3.091c-2.229,1.117-3.493,2.783-3.771,5.238
			c-2.275,1.424-2.827-0.072-3.2-1.881c0.021-1.309,0.41-2.64-0.232-3.911c-0.232-0.926-0.243-1.907-0.692-2.781
			c-0.084-0.312-0.138-0.63-0.167-0.953c-0.489-2.571-0.416-5.198-0.858-7.787c-0.383-2.236,0.63-4.052,2.758-5.087
			c1.179-0.574,2.344-1.161,3.377-1.986c1.919-1.534,3.088-3.326,2.391-5.936c-0.744-2.783-3.026-2.337-5.039-2.493
			c-2.328-0.579-4.685-0.833-7.08-0.646c-2.469,0.337-4.857,0.882-6.792,2.62c-1.518,2.229-1.118,4.408,1.176,6.45
			c1.607,1.433,3.579,2.049,5.631,2.417c2.14,0.385,3.057,1.663,3.458,3.751c1.01,5.262,0.571,10.651,1.623,15.91
			c0.438,2.188-0.664,3.572-3.058,3.632c-1.31,0.033-2.621,0.024-3.927,0.015c-6.865-0.804-13.068-3.412-18.9-7.026
			c1.423,0.812,2.786,1.712,4.228,2.482c1.452,0.774,3.032,1.261,4.479,2.034c1.251,0.668,2.757,1.262,1.646,3.188
			c-5.083,1.839-10.161,1.505-15.193-0.132C392.371,216.056,391.313,215.448,390.217,214.979z"/>
		<path fill="#FDD093" d="M312.18,239.856c0.03-15.324,6.742-25.345,15.769-28.182c3.271-1.028,6.512-0.253,8.03,2.634
			c6.649,12.649,9.826,25.727,3.806,39.613c-0.689,1.592-1.583,3.142-2.63,4.521c-2.472,3.257-6.464,4.194-9.927,2.021
			C317.946,254.643,312.326,246.525,312.18,239.856z"/>
		<path fill="#FDD093" d="M390.217,214.979c5.07,0.358,10.047,1.846,15.2,1.25c1.162-0.134,2.424,0.241,3.395-0.748
			c1.463-1.416,3.064-0.57,4.596-0.221c1.271,0.29,2.553,0.513,3.83,0.753c5.493,1.447,10.599-0.349,15.729-1.896
			c1.668-0.561,3.214-1.398,4.801-2.144c4.039-2.217,7.479-5.214,10.81-8.358c-3.676,3.405-7.522,6.577-12.008,8.888
			c-1.549,0.891-3.257,1.408-4.895,2.094c-1.338,0.411-2.688,0.938-3.852-0.384c-2.338-2.187-1.063-3.581,1.062-4.756
			c6.08-3.36,10.814-7.972,13.57-14.454c2.18-5.125,2.499-10.298,0.483-15.548c4.013,0.485,7.568,2.266,11.162,3.938
			c3.004,2.104,5.55,4.611,7.078,8.018c2.248,5.132,1.49,10.192-0.613,15.103c-2.55,5.952-7.206,10.148-12.533,13.466
			c-6.639,4.133-13.873,6.424-21.801,7.241c-7.729,0.797-14.867-1.013-22.128-2.789c-1.865-0.739-3.646-1.625-5.113-3.039
			C395.96,219.398,392.554,217.921,390.217,214.979z"/>
		<path fill="#FDD093" d="M346.446,143.379c3.846-5.091,8.443-9.059,15.039-10.027c2.626-0.394,5.25-0.542,7.866,0.075
			c2.814,1.117,5.713,1.982,8.242,3.813c1.478,1.07,1.646,1.729,0.346,2.979c-9.418,9.05-15.346,20.012-17.782,32.839
			c-0.413,2.174-1.825,1.726-3.234,1.519c-3.657-0.251-6.062-2.166-7.36-5.549c-2.444-2.714-4.445-5.675-5.194-9.332
			c-0.832-1.182,0.17-2.672-0.651-3.854c-0.708-0.93-0.702-1.859,0-2.789c0.826-1.189-0.188-2.69,0.658-3.876
			c-0.2-2.244,1.921-3.657,2.067-5.778L346.446,143.379z"/>
		<path fill="#F64051" d="M385.058,234.616c-0.063-3.205,1.547-4.972,4.592-5.863c5.625-1.649,10.827-0.667,15.688,2.305
			c3.624,2.216,7.089,4.692,10.626,7.053c0.327,3.122-1.125,4.362-4.477,3.659c-2.98-0.626-5.897-1.891-9.053-0.483
			c3.016,0.961,6.19,1.11,9.231,1.864c0.962,0.237,2.2,0.432,2.331,1.499c0.169,1.369-1.207,1.703-2.215,1.992
			c-3.463,0.994-7.021,1.732-10.271,4.483c3.658-0.937,6.724-2.194,9.887-3.132c2.799-0.829,3.601-0.295,4.364,2.558
			c-0.447,1.138-1.108,2.135-2.027,2.938c-4.469,3.902-9.391,7.115-14.885,9.366c-2.779,1.141-5.663,1.582-8.475-0.062
			c-3.271-1.603-5.202-4.139-5.46-7.841c0.044-2.182,0.661-4.165,1.557-6.178c1.28-2.88,2.058-5.938,0.011-8.901
			C384.994,238.395,383.572,236.899,385.058,234.616z"/>
		<path fill="#FDD093" d="M473.903,153.076c-4.723-7.053-9.904-13.675-17.16-18.358c-3.6-3.087-7.88-4.998-12.104-6.994
			c0.482-0.295,0.963-0.592,1.441-0.888c0.888-0.912,1.579-2.026,2.741-2.654c3.229-2.776,6.717-5.001,11.129-5.279
			c7.744-1.23,14.888,4.223,18.053,11.625c2.797,6.541,2.542,13.176-0.69,19.563C476.624,151.452,476.039,153.232,473.903,153.076z"
			/>
		<path fill="#CC7625" d="M362.381,270.112c-0.568-3.494-0.117-7.016-0.267-10.521c5.887-2.092,10.745-6.067,16.459-8.729
			C375.602,259.307,369.616,265.225,362.381,270.112z"/>
		<path fill="#262326" d="M404.723,168.256c1.46,4.774-0.641,9.18-4.967,10.417c-4.249,1.214-8.771-1.138-9.918-5.155
			c-1.312-4.603,1.028-8.641,5.762-9.936c0.589,0.594,1.577-0.19,2.109,0.607c0.496,1.609-1.207,2.162-1.615,3.351
			c-0.521,1.512-0.764,3.011,0.352,4.312c1.034,1.206,2.341,1.907,4.044,1.47c1.736-0.444,2.529-1.557,2.501-3.312
			c0.098-0.663,0.338-1.256,0.833-1.728C404.116,168.052,404.417,168.044,404.723,168.256z"/>
		<path fill="#252326" d="M435.679,164.927c1.058-1.783,2.502-3.012,4.643-3.246c1.308,0.507,2.615,0.482,3.926,0.017
			c3.939,1.278,6.09,4.118,5.935,7.838c-0.151,3.626-2.662,6.604-6.227,7.386c-3.849,0.844-6.905-0.757-8.942-4.684
			c-0.39-0.661-0.378-1.202,0.45-1.498c0.575,0.062,0.99,0.391,1.353,0.814c1.759,2.066,3.7,1.541,5.45,0.146
			c1.7-1.354,1.779-3.285,0.613-4.969c-1.289-1.858-3.026-2.89-5.198-1.047c-0.428,0.262-0.886,0.383-1.387,0.315
			C435.797,165.809,435.431,165.542,435.679,164.927z"/>
		<path fill="#4F1409" d="M404.109,151.206c1.395,1.93,0.004,2.961-1.333,3.934c-1.087,0.792-2.462,1.312-3.707,1.061
			c-3.448-0.696-6.14,0.716-8.839,2.513c-1.031,0.686-2.11,1.534-4.067,1.393c1.593-3.829,4.041-6.483,7.405-8.388
			C397.027,150.421,400.561,150.659,404.109,151.206z"/>
		<path fill="#501409" d="M435.065,153.766c-1.646-0.347-2.963-1.216-2.868-3c0.078-1.502,1.405-2.071,2.789-2.295
			c0.472-0.321,0.759-0.021,1.043,0.296c2.292,0.802,4.67-0.216,6.97,0.338c3.77,1.379,6.592,3.792,8.799,7.766
			c-3.146-0.192-5.203-1.735-7.521-2.448c-0.154,0.003-0.309,0.006-0.462,0.009c-1.234-0.023-2.471,0.094-3.7-0.104
			C438.494,153.571,436.771,153.749,435.065,153.766z"/>
		<path fill="#CD7625" d="M385.058,234.616c0.475,1.751,0.949,3.503,1.425,5.255c-5.209-2.754-8.956-7.083-12.43-11.674
			c-2.134-2.818-4.208-5.699-5.103-9.259c2.077,1.356,2.721,4.045,4.986,5.166C376.538,228.78,380.724,231.776,385.058,234.616z"/>
		<path fill="#3B393C" d="M404.041,170.075c0.19,2.931-1.796,4.094-4.124,4.601c-2.271,0.496-4.215-0.696-5.128-2.67
			c-0.983-2.129-0.998-4.469,1.056-6.26c0.571-0.5,1.185-0.951,1.778-1.425c0.438-0.884,1.421-0.186,1.988-0.688
			c1.078,0.001,1.908,0.514,2.623,1.267c0.229,0.239,0.282,0.518,0.186,0.829c-0.506,0.772-1.36,0.992-2.13,1.355
			c-1.028,0.485-1.396,1.335-1.063,2.387c0.375,1.185,1.311,1.291,2.342,0.951C402.376,170.154,403.15,169.728,404.041,170.075z"/>
		<path fill="#E48429" d="M349.561,169.029c2.599,1.657,4.45,4.308,7.36,5.549c-0.021,0.284-0.046,0.568-0.068,0.854
			c-3.987-0.413-7.408-2.136-10.525-4.559C347.406,170.258,348.483,169.644,349.561,169.029z"/>
		<path fill="#632D20" d="M404.109,151.206c-0.523,0.363-1.223,1.156-1.545,1.024c-2.962-1.209-6.02-0.094-8.995-0.514
			C397.617,149.149,401.153,148.978,404.109,151.206z"/>
		<path fill="#663225" d="M442.999,149.106c-2.236,1.237-4.998,0.391-7.214,1.833c-0.478,0.312-1.454,0.393-1.614-0.465
			c-0.188-1.001,0.766-1.138,1.493-1.341c1.208-1.723,3.098-0.521,4.579-1.065C441.212,148.283,442.226,148.374,442.999,149.106z"/>
		<path fill="#E58225" d="M354.891,261.595c-2.936,0.975-5.883,1.889-9.003,2.035c-0.618-0.066-1.235-0.132-1.854-0.198
			C347.75,263.247,350.978,260.2,354.891,261.595z"/>
		<path fill="#ED7B15" d="M359.37,188.018c-0.536-2.23-0.558-4.462-0.001-6.692C360.562,183.555,360.56,185.787,359.37,188.018z"/>
		<path fill="#D17825" d="M398.989,221.393c1.668,0.601,3.283,1.295,4.574,2.567c0.415,0.282,0.403,0.545-0.036,0.789
			c-0.442-0.215-0.886-0.432-1.328-0.646C401.223,223.088,398.954,223.605,398.989,221.393z"/>
		<path fill="#3D0605" d="M435.065,153.766c1.758-0.945,3.51-0.985,5.254,0.034c-0.219,0.388-0.56,0.569-0.995,0.592
			c-0.136-0.005-0.271-0.01-0.407-0.015C437.62,154.247,436.267,154.486,435.065,153.766z"/>
		<path fill="#E48429" d="M369.351,133.428c-2.623-0.025-5.245-0.05-7.867-0.075C364.115,132.452,366.738,132.355,369.351,133.428z"
			/>
		<path fill="#EC7C18" d="M310.114,239.314c0-2.276,0-4.555,0-6.833c0.487,2.296,1.366,4.616,0.002,6.847L310.114,239.314z"/>
		<path fill="#443A36" d="M435.624,170.955c-0.203,0.427-0.407,0.854-0.611,1.282c-1.104-2.044-0.962-4.096-0.039-6.152
			c0.499,0.217,0.812,0.603,1.014,1.096c0.495,1.147,0.684,2.3,0.045,3.463C435.896,170.748,435.76,170.852,435.624,170.955z"/>
		<path fill="#0E1725" d="M399.611,163.632c-0.52,0.645-1.253,0.668-1.988,0.688c-0.751-0.034-1.505-0.063-2.023-0.737
			C396.944,162.984,398.28,163.111,399.611,163.632z"/>
		<path fill="#63240F" d="M440.243,148.068c-1.525,0.355-3.052,0.711-4.579,1.066c-0.227-0.222-0.451-0.442-0.678-0.663
			C436.671,147.447,438.466,147.859,440.243,148.068z"/>
		<path fill="#F2770C" d="M337.274,149.213c0.172-0.008,0.345-0.016,0.517-0.021c-0.182,1.723,0.469,3.529-0.526,5.167
			C337.267,152.644,337.271,150.929,337.274,149.213z"/>
		<path fill="#F38E2C" d="M444.275,154.423c-1.795,1.001-3.582,1.02-5.359-0.047l0.022,0.011c1.783-0.428,3.562-0.483,5.339,0.039
			L444.275,154.423z"/>
		<path fill="#4D403A" d="M402.172,165.827c0.021-0.311,0.042-0.62,0.062-0.93c1.278,0.787,2.168,1.861,2.489,3.358l-0.295,0.006
			l-0.294-0.025C402.394,168.318,401.996,167.306,402.172,165.827z"/>
		<path fill="#E48429" d="M344.374,149.178c-0.083,1.316,0.17,2.688-0.658,3.876C343.828,151.744,343.34,150.332,344.374,149.178z"
			/>
		<path fill="#E48429" d="M343.716,155.842c0.847,1.179,0.553,2.55,0.651,3.854C343.344,158.548,343.826,157.145,343.716,155.842z"
			/>
		<path fill="#0F1826" d="M444.247,161.698c-1.312,0.899-2.62,0.908-3.926-0.017C441.633,161.295,442.94,161.314,444.247,161.698z"
			/>
		<path fill="#EC7A15" d="M409.413,124.169c0.135-0.141,0.288-0.168,0.463-0.085c0.625,0.092,1.25,0.184,2.31,0.34
			C410.889,125.04,410.121,124.884,409.413,124.169z"/>
		<path fill="#E48429" d="M346.441,143.4c-0.467-0.192-1.062-0.291-1.059-0.938c0.001-0.169,0.388-0.336,0.598-0.504
			c0.154,0.474,0.31,0.947,0.466,1.423C346.446,143.379,346.441,143.4,346.441,143.4z"/>
		<path fill="#413A38" d="M435.049,167.546c-0.024-0.487-0.05-0.974-0.074-1.46c0.235-0.386,0.47-0.772,0.705-1.159
			c0.229,0.233,0.462,0.467,0.691,0.7C436.688,166.789,436.607,167.677,435.049,167.546z"/>
		<path fill="#E48329" d="M414.689,322.043c7.546,1.432,15.016,0.812,22.47-0.74c1.988-0.414,2.269-1.812,2.366-3.396
			c0.887-14.213,7.474-25.354,18.398-34.153c3.792-3.055,8.078-5.258,12.672-6.771c1.888-0.621,2.372-1.468,1.924-3.32
			c-1.245-5.151-2.991-10.054-6.4-14.22c-0.289-0.146-0.479-0.373-0.562-0.688c-0.001-2.282,0.604-4.7-1.492-6.506
			c-0.695-1.04-1.229-2.135-1.134-3.436c-0.454-4.029,1.253-7.807,1.374-11.768c-0.421-2.506,0.845-4.53,2.271-6.25
			c5.322-6.412,8.408-13.958,11.379-21.584c0.119-0.309,0.293-0.581,0.512-0.827c6.688-5.718,13.731-10.833,22.373-13.258
			c1.476-0.415,2.948-0.811,4.505-0.664c1.781,0.325,3.562-0.017,5.344-0.028c6.902,0.454,12.306,3.927,16.43,9.098
			c7.886,9.884,9.351,20.94,4.646,32.682c-2.357,5.882-6.798,9.759-12.615,12.199c-9.638,4.042-19.804,5.248-30.103,5.816
			c-0.653,0.035-1.307,0.098-1.958,0.146c-0.935,1.029-2.302,0.357-3.561,0.893c0.856,2.688,2.624,4.714,4.445,6.711
			c0.142,0.294,0.206,0.604,0.211,0.928c-0.375,1.45-0.182,2.891,0.088,4.328c-0.006,1.004,0.163,2.04-0.61,2.88
			c-0.097,0.647-0.12,1.317-0.303,1.942c-0.63,2.177,0.085,3.025,2.405,3.414c5.938,0.995,11.254,3.447,15.566,7.794
			c2.723,8.463,2.201,17.089,1.287,25.734c-0.343,0.12-0.654,0.066-0.938-0.159c-1.053-1.09-1.159-2.566-1.551-3.916
			c-2.966-10.218-11.89-16.599-22.324-17.168c-13.653-0.745-27.538,9.462-32.317,24.21c-0.433,1.337-0.632,2.812-1.998,3.619
			c-1.18-0.148-0.806,1.241-1.521,1.572c-0.202,2.441,0.094,4.898-0.153,7.334c0.329-2.517-0.241-5.09,0.316-7.598
			c0.239-0.32,0.539-0.398,0.906-0.242c1.447,1.254,1.28,2.981,1.186,4.58c-0.332,5.544,1.181,10.569,3.951,15.303
			c0.692,1.187,1.717,2.386,0.649,3.896c-4.377,0.005-7.072-3.349-10.495-5.254c-1.467-1.994-0.803-5.627-3.023-6.392
			c-2.084-0.717-4.843,0.606-7.317,0.93c-4.66,0.608-9.34,0.29-14.014,0.189c-0.416,0.379-0.804,0.43-1.146-0.095
			c-0.716-0.243-1.433-0.487-2.149-0.73c-1.979-2.127-1.31-4.571-0.845-6.993C414.105,321.802,414.391,321.787,414.689,322.043z"/>
		<path fill="#CC7525" d="M478.467,208.382c-1.493,8.178-4.769,15.539-9.95,22.067c-1.442,1.816-3.535,3.368-3.228,6.138
			c-0.333,0.226-0.655,0.212-0.971-0.038c-1.29-2.044-1.558-4.244-0.998-6.57c0.959-2.972,3.816-4.349,5.594-6.645
			c3.618-4.672,6.434-9.797,8.911-15.13C478.039,208.264,478.254,208.323,478.467,208.382z"/>
		<path fill="#CC7727" d="M487.489,262.22c-3.498-1.416-4.441-4.818-5.946-7.753c-0.513-0.996,0.167-1.42,1.138-1.204
			c1.478,0.33,2.938,0.737,4.407,1.111c0.206,1.731,0.411,3.465,0.618,5.195C488.275,260.506,488.509,261.414,487.489,262.22z"/>
		<path fill="#8BE6FD" d="M488.285,259.599c0.02-0.214,0.007-0.437,0.063-0.64c0.09-0.319,0.501-0.546,0.508-0.146
			c0.061,3.855,0.028,7.712,0.011,11.568c0,0.064-0.152,0.13-0.233,0.195c-0.12-0.168-0.24-0.335-0.36-0.505
			C487.518,266.581,487.524,263.09,488.285,259.599z"/>
		<path fill="#9ECECD" d="M488.285,259.599c-0.004,3.491-0.008,6.984-0.012,10.478c-0.204,0.018-0.407,0.029-0.612,0.036
			c-0.048-1.112-0.097-2.227-0.146-3.34c-0.316-1.288-0.351-2.575,0.021-3.858c-0.017-0.231-0.031-0.462-0.049-0.693
			c0.072-0.883,0.146-1.766,0.217-2.649C487.899,259.573,488.094,259.582,488.285,259.599z"/>
		<path fill="#EE7912" d="M510.688,194.433c-1.775,1.125-3.558,1.104-5.344,0.028C507.122,193.945,508.903,193.946,510.688,194.433z
			"/>
		<path fill="#EA7D1C" d="M483.202,155.182c0.099-2.023,1.182-3.085,3.18-3.252C485.588,153.273,484.489,154.32,483.202,155.182z"/>
		<path fill="#CC7625" d="M414.028,322.201c1.541,2.166,0.219,4.604,0.651,6.876c-1.962-0.36-3.925-0.722-5.888-1.082
			c0.23-2.258,0.463-4.517,0.694-6.773C411.237,320.452,412.839,320.369,414.028,322.201z"/>
		<path fill="#6DC5E4" d="M416.829,329.809c0.383,0.031,0.765,0.062,1.146,0.095c-0.363,0.201-0.709,0.517-1.093,0.572
			c-0.407,0.06-0.991,0.37-1.246-0.321C416.032,330.038,416.431,329.925,416.829,329.809z"/>
		<path fill="#FDD093" d="M452.824,340.429c-5.003-7.129-6.885-15.044-5.961-23.666c-0.392-0.422-0.378-0.805,0.111-1.143
			c1.8-6.609,4.582-12.679,9.13-17.934c8.345-9.642,22.811-14.069,33.868-9.817c9.472,3.643,14.95,10.647,16.145,20.839
			c0.281,3.241-0.621,6.255-2.144,9.018c-8.435,15.311-20.821,24.924-38.671,26.579c-3.477,0.323-6.679-0.551-9.793-1.949
			C454.615,341.713,453.72,341.071,452.824,340.429z"/>
		<path fill="#ECC289" d="M455.51,342.355c5.646,0.431,11.235,0.854,16.883-0.536c12.644-3.108,21.711-10.815,28.558-21.51
			c2.3-3.592,3.91-7.524,5.166-11.601c0.164,0.103,0.331,0.198,0.503,0.287c1.017,15.291-5.062,27.071-17.886,35.251
			C477.758,351.248,464.034,350.318,455.51,342.355z"/>
		<path fill="#ECC289" d="M359.424,343.744c1.723-0.979,3.623-0.771,5.446-0.658c12.591,0.771,25.419-9.267,29.542-20.892
			c2.082-5.869,2.663-11.854,2.559-17.982c8.62,13.546,6.455,33.129-7.842,41.167C379.019,351.062,369.025,349.772,359.424,343.744z
			"/>
		<path fill="#E3BA84" d="M414.028,322.201c-1.462-0.568-3.215,0.213-4.542-0.979c-0.194-11.22-3.983-21.154-10.716-30.042
			c8.164,6.729,13,15.439,15.213,25.684c0.367,1.697,0.479,3.45,0.707,5.18C414.469,322.096,414.249,322.149,414.028,322.201z"/>
		<path fill="#E79A4B" d="M448.822,124.182c-0.687,1.119-1.492,2.115-2.741,2.654c0.5-1.228,1.037-2.432,2.064-3.331
			C448.37,123.73,448.597,123.956,448.822,124.182z"/>
		<path fill="#EEC38A" d="M473.903,153.076c6.581-9.775,6.417-19.196-1.103-27.938c-3.221-3.741-7.499-6.362-12.851-6.237
			c10.432-2.852,23.114,6.42,24.382,17.764c0.749,6.709-1.073,12.563-5.59,17.56c-0.919,1.017-1.77,2.316-3.491,2.001
			C474.802,155.177,474.353,154.126,473.903,153.076z"/>
		<path fill="#84D8EE" d="M294.478,411.754c-0.16,1.142,0.537,3.3-1.771,4.482c-3.172,1.626-5.824,0.38-6.534-3.15
			c-0.329-1.639-0.118-3.237,0.13-4.88c0.448-2.975,2.276-3.677,4.918-3.508c2.615,0.167,3.241,1.824,3.257,4.03
			C294.482,409.494,294.478,410.261,294.478,411.754z"/>
		<path fill="#85D9EE" d="M290.166,423.317c-0.943-0.292-2.726,0.493-2.654-0.961c0.085-1.763,2.001-1.169,3.176-1.188
			c0.956-0.019,2.732-0.551,2.669,0.847C293.278,423.755,291.334,423.025,290.166,423.317z"/>
		<path fill="#84D8EE" d="M349.688,411.448c-0.209,1.156,0.566,3.188-1.337,4.525c-2.878,2.021-6.178,0.744-6.934-2.709
			c-0.356-1.635-0.191-3.233,0.048-4.88c0.419-2.866,2.024-3.846,4.775-3.704c2.804,0.143,3.448,1.853,3.446,4.192
			C349.687,409.531,349.688,410.188,349.688,411.448z"/>
		<path fill="#85D9EE" d="M345.571,423.354c-0.998-0.434-2.902,0.639-2.858-1.127c0.038-1.494,1.884-1.114,2.979-1.057
			c1.033,0.053,2.901-0.697,2.874,0.974C348.542,423.594,346.659,423.045,345.571,423.354z"/>
		<path fill="#84D8EE" d="M460.142,50.041c0.159,1.997,0.32,4.115-3.123,4.028c-2.25-0.057-3.238-0.702-3.051-3.021
			c0.193-2.396,0.168-4.811,0.36-7.206c0.068-0.851,0.422-1.789,1.381-2.077c1.118-0.338,1.851,0.407,2.486,1.188
			C459.81,44.936,460.213,47.276,460.142,50.041z"/>
		<path fill="#84D8EE" d="M595.517,412.927c0.342,2.271-0.057,4.024-3.291,3.909c-2.109-0.075-3.026-0.72-2.871-2.864
			c0.181-2.507,0.185-5.026,0.397-7.53c0.071-0.844,0.488-1.766,1.498-1.96c0.965-0.185,1.649,0.427,2.229,1.119
			C595.204,407.657,595.615,410.102,595.517,412.927z"/>
		<path fill="#85D9EE" d="M603.823,410.811c0-0.98-0.064-1.967,0.018-2.94c0.092-1.104-0.488-2.613,1.178-2.997
			c1.55-0.356,3.041-0.076,4.139,1.271c2.233,2.74,1.256,8.059-1.806,9.805c-2.326,1.327-3.323,0.796-3.438-1.871
			c-0.047-1.087-0.008-2.178-0.008-3.267C603.878,410.811,603.85,410.811,603.823,410.811z"/>
		<path fill="#85D9EE" d="M743.233,411.129c0.052-1.351-0.058-3.099,0.495-4.784c0.742-2.267,2.229-2.647,3.71-0.739
			c2.18,2.81,2.777,6.18,2.124,9.577c-0.47,2.438-2.811,1.385-4.389,1.562c-1.629,0.185-1.985-0.928-1.946-2.297
			C743.258,413.47,743.233,412.49,743.233,411.129z"/>
		<path fill="#84D8EE" d="M379.789,413.984c0.09-2.069-0.124-4.154,0.465-6.193c0.44-1.523,0.855-3.003,2.868-3.016
			c1.94-0.013,3.591,0.69,4.095,2.615c1.3,4.963,0.375,9.746-1.744,14.313c-0.479,1.029-1.501,1.604-2.73,1.436
			c-1.341-0.188-2.069-1.016-2.448-2.311C379.633,418.573,379.893,416.271,379.789,413.984z"/>
		<path fill="#84D8EE" d="M302.727,414.14c0.136-2.342,0.129-4.324,0.402-6.269c0.219-1.55,0.818-3.009,2.8-3.097
			c1.801-0.081,3.404,0.475,4.014,2.222c1.805,5.183,0.541,10.128-1.611,14.899c-0.471,1.042-1.605,1.466-2.818,1.205
			c-1.327-0.284-2.173-1.169-2.317-2.462C302.938,418.362,302.857,416.064,302.727,414.14z"/>
		<path fill="#84D8EE" d="M681.438,414.163c0.094-2.178-0.144-4.373,0.503-6.517c0.425-1.412,0.831-2.78,2.65-2.862
			c1.922-0.085,3.653,0.525,4.198,2.441c1.442,5.067,0.464,9.949-1.756,14.601c-0.484,1.018-1.562,1.529-2.791,1.289
			c-1.179-0.229-1.879-0.946-2.249-2.113C681.284,418.755,681.535,416.449,681.438,414.163z"/>
		<path fill="#84D8EE" d="M328.375,51.546c0.113-2.308,0.087-4.29,0.345-6.235c0.22-1.667,0.79-3.26,2.956-3.309
			c1.962-0.043,3.497,0.71,4.076,2.635c1.497,4.989,0.293,9.734-1.664,14.325c-0.497,1.166-1.708,1.683-3.06,1.347
			c-1.32-0.328-2.098-1.27-2.236-2.551C328.556,55.587,328.491,53.398,328.375,51.546z"/>
		<path fill="#84D8EE" d="M83.227,414.229c0.13-2.247,0.129-4.338,0.409-6.391c0.212-1.557,0.847-2.996,2.825-3.067
			c1.802-0.064,3.395,0.502,3.994,2.256c1.774,5.187,0.534,10.131-1.646,14.896c-0.479,1.045-1.625,1.445-2.831,1.174
			c-1.322-0.298-2.147-1.197-2.294-2.488C83.436,418.438,83.362,416.249,83.227,414.229z"/>
		<path fill="#84D8EE" d="M543.465,414.147c0.235-2.061,0.403-4.132,0.729-6.178c0.247-1.557,0.753-3.032,2.716-3.187
			c1.972-0.152,3.646,0.604,4.182,2.469c1.415,4.938,0.492,9.733-1.562,14.325c-0.521,1.168-1.669,1.776-3.003,1.544
			c-1.496-0.259-2.221-1.309-2.35-2.767C543.991,418.288,543.305,416.271,543.465,414.147z"/>
		<path fill="#84D8EE" d="M444.265,410.725c0-0.983-0.071-1.973,0.019-2.948c0.102-1.088-0.55-2.607,1.224-2.934
			c1.547-0.284,3.049-0.135,4.2,1.186c2.229,2.557,1.319,8.17-1.625,9.92c-2.386,1.417-3.605,0.789-3.728-1.947
			c-0.047-1.091-0.008-2.185-0.008-3.275C444.319,410.725,444.292,410.725,444.265,410.725z"/>
		<path fill="#85D9EE" d="M719.744,409.452c0.028,2.236-0.123,3.749-1.099,5.023c-0.964,1.259-2.232,2.271-3.841,2.071
			c-1.957-0.244-1.107-2.055-1.288-3.184c-0.272-1.702-0.388-3.451-0.342-5.173c0.033-1.252-0.736-3.058,1.436-3.394
			c2.143-0.331,3.919,0.344,4.769,2.469C719.729,408.146,719.702,409.174,719.744,409.452z"/>
		<path fill="#84D8EE" d="M350.325,53.854c0,1.086,0.028,2.172-0.005,3.256c-0.082,2.752-1.567,3.606-3.959,2.188
			c-2.512-1.488-2.918-3.93-2.533-6.539c0.373-2.531,1.637-4.478,4.243-5.247c1.556-0.459,2.233,0.206,2.197,1.784
			c-0.035,1.519-0.007,3.038-0.007,4.557C350.282,53.854,350.304,53.854,350.325,53.854z"/>
		<path fill="#84D8EE" d="M581.655,416.407c0,1.194,0.034,2.391-0.007,3.582c-0.089,2.594-1.456,3.422-3.771,2.182
			c-2.578-1.384-3.083-3.803-2.748-6.434c0.339-2.665,1.616-4.72,4.381-5.482c1.327-0.367,2.097,0.113,2.077,1.596
			c-0.021,1.519-0.005,3.038-0.005,4.558C581.606,416.407,581.632,416.407,581.655,416.407z"/>
		<path fill="#87D9EE" d="M361.762,55.857c1.228,0.361,3.254,0.131,2.876,2.142c-0.367,1.947-2.388,1.849-3.987,1.898
			c-1.342,0.042-2.463-0.539-2.354-2.016C358.455,55.754,360.236,55.977,361.762,55.857z"/>
		<path fill="#87D9EE" d="M155.702,422.683c-1.677,0.008-3.075-0.095-3.183-1.857c-0.122-2.01,1.396-2.254,2.874-2.153
			c1.421,0.097,3.494-0.193,3.495,1.894C158.889,422.566,156.782,422.303,155.702,422.683z"/>
		<path fill="#87D9EE" d="M432.852,422.684c-1.517,0.007-2.905-0.11-3-1.875c-0.107-2.013,1.419-2.237,2.891-2.138
			c1.422,0.097,3.5-0.18,3.475,1.911C436.191,422.536,434.146,422.389,432.852,422.684z"/>
		<path fill="#89DAEF" d="M495.507,59.906c-1.777,0.076-3.073-0.39-2.965-2.067c0.123-1.875,1.725-2.058,3.194-1.938
			c1.365,0.11,3.383,0.075,3.306,1.839C498.954,59.767,496.787,59.662,495.507,59.906z"/>
		<path fill="#85D8EE" d="M484.478,53.502c0,0.98,0.092,1.974-0.023,2.94c-0.141,1.183,0.674,2.853-1.155,3.316
			c-1.456,0.37-2.811-0.246-3.862-1.311c-2.592-2.617-1.724-8.535,1.498-10.393c2.317-1.336,3.348-0.797,3.454,1.848
			c0.049,1.197,0.008,2.398,0.008,3.598C484.424,53.502,484.45,53.502,484.478,53.502z"/>
		<path fill="#87D9EE" d="M227.236,422.686c-1.294,0.023-2.475-0.205-2.53-1.812c-0.067-1.967,1.331-2.318,2.852-2.207
			c1.422,0.104,3.262-0.232,3.593,1.854C231.321,421.611,229.229,422.689,227.236,422.686z"/>
		<path fill="#F64051" d="M463.32,229.979c1.771,1.939,1.353,4.312,1.31,6.609c0.183,1.192,0.006,2.341-0.422,3.462
			c-1.146,3.011-1.163,6.055-0.255,9.123c0.398,0.849,0.798,1.697,1.194,2.546c1.272,1.932,0.771,3.973,0.365,6.006
			c-2.781,5.752-6.791,7.312-12.734,4.891c-0.872-0.355-1.876-0.476-2.574-1.215c-4.532-2.552-8.937-5.304-13.028-8.528
			c-1.29-0.34-2.57-0.103-3.858,0.069c-1.402,0.254-2.71,0.817-4.112,1.074c-5.25,0.963-9.185-1.082-12.083-5.304
			c-2.678-3.899-2.353-7.434,0.852-12.064c4.991-3.455,9.333-3.542,14.178,0.074c1.553,1.158,2.571,1.116,3.997,0.016
			c3.289-2.539,6.771-4.772,10.488-6.681C452.235,227.184,457.747,227.349,463.32,229.979z"/>
		<path fill="#D83C48" d="M417.972,236.648c-1.752,4.336-2.335,8.584,1.052,12.475c3.267,3.753,8.018,4.904,12.672,3.175
			c0.667-0.248,1.176-1.079,2.06-0.635c-0.403,2.852-2.793,4.72-6.399,4.957c-2.633,0.174-5.138-0.255-7.39-1.729
			c-1.124-0.825-2.247-1.649-3.371-2.475c-0.808-0.378-1.622-0.751-1.309-1.9c-0.551-1.956-1.591-2.117-3.45-1.406
			c-3.663,1.399-7.454,2.462-11.196,3.653c-0.63,0.2-1.436,0.425-1.823-0.181c-0.545-0.849,0.281-1.425,0.831-1.884
			c2.899-2.414,6.188-4.053,9.903-4.812c1.164-0.237,2.308-0.566,4.147-1.026c-5.376-1.205-10.28-1.512-15.67-3.309
			c4.718-2.713,8.878-2.84,13.064-1.168c2.652,1.06,4.151,0.423,4.872-2.273C416.635,237.623,417.303,237.135,417.972,236.648z"/>
		<path fill="#E3BA85" d="M415.287,250.515c0.437,0.633,0.872,1.267,1.309,1.9c-5.417,5.521-11.629,9.833-19.092,12.074
			c-2.571,0.773-5.177,0.646-7.126-1.698c9.292,0.634,15.689-5.145,22.436-10.14C413.686,252.006,414.466,251.23,415.287,250.515z"
			/>
		<path fill="#E4BB85" d="M419.966,254.89c5.171,1.384,10.029,1.425,13.79-3.228c1.78-1.408,2.455,0.311,3.42,1.21
			c-3.107,2.421-6.137,4.946-10.466,4.765C424.094,257.527,421.755,256.936,419.966,254.89z"/>
		<path fill="#E4BA85" d="M450.204,261.4c1.146,0.33,2.288,0.673,3.438,0.985c5.205,1.415,8.421,0.007,11.018-4.812
			c1.062-0.228,1.396,0.351,1.414,1.278c0.011,0.196,0.024,0.394,0.045,0.589C461.034,265.378,455.767,266.027,450.204,261.4z"/>
		<path fill="#C06F23" d="M403.527,224.749c0.012-0.263,0.024-0.525,0.036-0.789c4.679,0.436,9.11,2.205,13.84,2.446
			c14.24,0.729,26.785-3.251,37.082-13.336c6.089-5.963,7.986-13.351,6.693-21.659c2.055,0.467,1.941,2.232,2.107,3.717
			c1.111,9.896-3.088,17.598-10.689,23.302c-7.62,5.717-16.216,9.111-26.004,9.768C418.53,228.739,411.019,227.207,403.527,224.749z
			"/>
		<path fill="#4E1309" d="M433.872,214.956c-5.343,2.372-10.875,3.228-16.656,2.069c0.037-0.148,0.073-0.297,0.109-0.445
			c1.055-1.156,2.447-0.509,3.522-0.688c-1.292-0.328-2.795,0.558-4.235-0.181c-0.18-0.296-0.164-0.58,0.045-0.854
			c6.519,0.124,6.54,0.122,5.941-6.442c-0.356-3.907-0.911-7.801-1.146-11.714c-0.109-1.855-0.602-2.656-2.591-2.827
			c-2.651-0.229-5.057-1.382-6.935-3.348c-2.5-2.616-2.472-5.494-0.012-7.914c0.543-0.254,0.903,0.018,1.227,0.413
			c1.57,5.531,3.956,7.365,8.919,6.853c5.646-0.585,7.261-3.885,4.296-8.782c0.062-0.143,0.124-0.286,0.188-0.429
			c2.794-0.313,5.097,0.623,6.169,3.246c1.027,2.516-0.249,4.685-1.957,6.522c-1.13,1.216-2.532,2.307-4.112,2.6
			c-3.015,0.559-2.967,2.401-2.65,4.743c0.351,2.589,0.435,5.211,0.634,7.82c-0.661,0.696-0.312,1.569-0.417,2.363
			c0.095-0.796-0.234-1.666,0.416-2.365c0.208,0.913,0.415,1.826,0.621,2.74c0.681,1.329-0.081,2.844,0.539,4.18
			c-0.376,1.833,0.237,2.479,2.037,1.695c1.304-0.242,2.606-0.483,3.909-0.727C432.619,213.723,433.593,213.834,433.872,214.956z"/>
		<path fill="#4D130A" d="M416.658,214.859c0.003,0.239,0.007,0.479,0.011,0.717c0.428,0.243,0.757,0.553,0.732,1.099
			c-0.062,0.118-0.124,0.234-0.187,0.352c-2.94,0.242-5.614-0.971-8.405-1.544c-4.073-1.79-8.166-3.547-11.906-5.99
			c-0.924-0.604-2.656-1.07-1.861-2.549c0.873-1.62,2.117-0.251,3.007,0.322C403.783,210.963,410.021,213.392,416.658,214.859z"/>
		<path fill="#5F281D" d="M412.752,183.362c-0.279-0.249-0.56-0.498-0.838-0.747c1.884-1.789,4.315-2.09,6.719-2.47
			c0.223,0.251,0.335,0.542,0.316,0.88c-0.412,1.258-1.47,1.661-2.596,1.981C415.126,182.814,414.039,184.135,412.752,183.362z"/>
		<path fill="#572219" d="M418.628,180.719c0.006-0.191,0.007-0.382,0.005-0.574c2.662-0.213,5.366-1.074,7.909,0.524l-0.012,0.083
			c-1.378,1.882-3.495,0.647-5.183,1.241C420.242,181.998,419.281,181.683,418.628,180.719z"/>
		<path fill="#F1D59D" d="M425.784,212.519c-0.56-1.344-0.609-2.754-0.539-4.18C426.232,209.628,425.821,211.098,425.784,212.519z"
			/>
		<path fill="#4F140A" d="M436.22,211.538c4.261-2.663,8.348-5.546,11.785-9.264c0.715-0.774,1.572-2,2.686-1.023
			c1.189,1.043-0.062,2.005-0.767,2.718c-3.449,3.5-7.098,6.764-11.589,8.918C437.494,212.649,436.404,212.804,436.22,211.538z"/>
		<path fill="#4A1008" d="M436.22,211.538c0.705,0.448,1.41,0.898,2.115,1.349c-1.37,0.942-2.775,1.811-4.464,2.069
			c-0.968-0.117-1.719-0.555-2.142-1.468C433.228,212.838,434.724,212.188,436.22,211.538z"/>
		<path fill="#767477" d="M402.172,165.827c0.653,0.803,1.309,1.606,1.962,2.409c-0.031,0.613-0.062,1.227-0.093,1.839
			c-1.265,1.39-2.584,2.739-4.696,1.823c-1.476-0.639-2.012-1.937-1.765-3.451C398.021,165.755,399.891,165.389,402.172,165.827z"/>
		<path fill="#3B393C" d="M437.11,165.08c1.429-2.299,3.358-1.57,5.167-0.729c2.47,1.148,3.022,3.347,2.579,5.794
			c-0.45,2.489-2.292,3.646-4.623,3.952c-2.381,0.314-4.027-0.695-4.609-3.143c0,0.001,0.186-0.19,0.186-0.19
			C441.255,169.072,441.27,169,437.11,165.08z"/>
		<path fill="#767476" d="M437.11,165.08c1.909-0.227,3.447,0.375,4.253,2.187c0.574,1.292,0.362,2.601-0.763,3.53
			c-1.562,1.291-3.2,0.945-4.793-0.032c-0.253-1.073-0.506-2.146-0.76-3.218c0.44-0.642,0.883-1.28,1.323-1.919
			C436.618,165.444,436.863,165.262,437.11,165.08z"/>
		<path fill="#E48329" d="M444.277,154.426c-1.779-0.013-3.559-0.025-5.339-0.039c0.46-0.196,0.921-0.392,1.381-0.587
			C441.642,153.991,443.086,153.418,444.277,154.426z"/>
		<path fill="#FDD093" d="M498.88,207.906c-0.943-11.238,4.928-12.778,13.408-10.756c15.01,3.581,23.164,20.307,17.553,35.725
			c-0.825,2.268-1.867,4.424-3.133,6.479c-3.263,5.301-8.002,6.192-13.041,2.453c-8.531-6.328-12.546-15.189-14.142-25.362
			C499.07,213.541,498.594,210.61,498.88,207.906z"/>
		<path fill="#CD7724" d="M463.953,249.173c-2.656-4.351-1.159-8.478,0.677-12.585c0.221,0,0.439-0.001,0.659-0.001
			C465.465,240.848,463.314,244.862,463.953,249.173z"/>
		<path fill="#CE7825" d="M466.073,258.853c-0.472-0.426-0.941-0.852-1.414-1.276c0.562-1.92,0.72-3.872,0.49-5.856
			C467.31,253.856,466.845,256.334,466.073,258.853z"/>
		<path fill="#E37F23" d="M446.23,316.764c0,2.896,0,5.794,0,8.691c-0.384-2.903-1.32-5.819,0-8.689V316.764z"/>
		<path fill="#ED7A12" d="M487.538,262.913c-0.008,1.287-0.015,2.572-0.021,3.858C486.743,265.481,486.725,264.194,487.538,262.913z
			"/>
		<path fill="#E37F23" d="M446.975,315.62c-0.037,0.382-0.074,0.762-0.111,1.143c-0.21,0.001-0.422,0.001-0.633,0.001v0.002
			c0-0.405-0.069-0.826,0.021-1.21c0.088-0.371-0.377-1.055,0.444-1.032C446.8,314.526,446.883,315.238,446.975,315.62z"/>
		<path fill="#D83C48" d="M438.618,245.545c4.26,0.662,8.495,1.952,11.755,5.381c0.438,0.462,1.077,1.009,0.546,1.649
			c-0.249,0.299-1.043,0.372-1.495,0.235c-3.76-1.135-7.506-2.312-11.233-3.546c-1.269-0.42-1.958-1.364-1.745-2.783
			C436.628,245.265,437.427,245.208,438.618,245.545z"/>
		<path fill="#D83C48" d="M451.422,241.193c-2.888,2.028-5.993,1.897-8.843,2.572c-1.251,0.298-2.575,0.271-3.852,0.483
			c-1.044,0.176-1.928,0.234-2.386-0.994c-0.45-1.208,0.118-1.833,1.13-2.29C442.01,238.911,446.517,238.522,451.422,241.193z"/>
		<path fill="#663429" d="M421.143,180.795c1.796-0.016,3.592-0.029,5.388-0.043c1.489,0.982,3.459,1.49,3.302,3.939
			c-0.164,2.576-1.523,4.258-3.688,5.373c-5.04,2.601-11.479,0.966-13.408-3.306c-0.534-1.181-0.725-2.268,0.018-3.398
			c0.994-0.667,1.935-1.467,3.259-1.316c1.023,1.122,1.99,2.248,3.823,1.685C421.495,183.219,420.763,181.792,421.143,180.795z"/>
		<path fill="#410500" d="M417.401,216.674c-0.245-0.366-0.489-0.733-0.732-1.099c1.829,0,3.659,0,5.488,0
			c0.014,0.129,0.024,0.258,0.036,0.388C420.596,216.2,418.999,216.437,417.401,216.674z"/>
		<path fill="#3C0100" d="M424.623,205.599c-0.082,1.249-0.163,2.497-0.245,3.746c-0.563-1.308-0.771-2.584,0.246-3.744
			L424.623,205.599z"/>
		<path fill="#B29994" d="M421.143,180.795c0.975,0.713,2.788,1.198,1.611,2.83c-1.238,1.716-3.256,2.008-5.269,1.533
			c-1.691-0.399-2.339-1.435-1.475-3.113c0.872-0.442,1.745-0.884,2.617-1.326C419.467,180.745,420.304,180.77,421.143,180.795z"/>
	</g>
</g>
</svg>
