<?xml version="1.0" encoding="utf-8"?>
<!-- Generator: Adobe Illustrator 16.0.0, SVG Export Plug-In . SVG Version: 6.00 Build 0)  -->
<!DOCTYPE svg PUBLIC "-//W3C//DTD SVG 1.1//EN" "http://www.w3.org/Graphics/SVG/1.1/DTD/svg11.dtd">
<svg version="1.1" id="Calque_1" xmlns="http://www.w3.org/2000/svg" xmlns:xlink="http://www.w3.org/1999/xlink" x="0px" y="0px"
	 width="841.9px" height="473.2px" viewBox="0 0 841.9 473.2" enable-background="new 0 0 841.9 473.2" xml:space="preserve">
<g>
	<g>
		<path fill="#83D8EE" d="M719.6,0.7c39.9,0,79.7,0,119.6-0.1c2.2,0,2.7,0.4,2.7,2.7c-0.1,155.9-0.1,311.9,0,467.8
			c0,2.6-0.8,2.8-2.9,2.8c-278.5-0.1-557-0.1-835.5,0c-2.2,0-2.9-0.2-2.9-2.8c0.1-155.9,0.1-311.9,0-467.8c0-2.3,0.5-2.7,2.7-2.7
			C39.9,0.7,76.5,0.7,113,0.7c1.1,0.6,2.4,0.3,3.5,0.3c199.8,0,399.7,0,599.5,0C717.3,1,718.5,1.3,719.6,0.7z"/>
		<path fill="#89DAEF" d="M719.6,0.7c-1.5,1.1-3.2,0.6-4.8,0.6c-157.2,0-314.4,0-471.6,0c-41.9,0-83.9,0-125.8,0
			c-1.5,0-3.1,0.5-4.4-0.6C315.2,0.7,517.4,0.7,719.6,0.7z"/>
		<path fill="#E48329" d="M348.3,131.5c1.9-1.9,4.6-1.7,6.9-2.7c3.6-0.4,7.2-0.5,10.8,0.1c1.7,0.9,3.7,0.7,5.3,1.8
			c2.7-0.7,4.2,1.3,5.9,2.7c3.2,2.6,3.1,2.7,6.6,0.2c6.4-4.6,13.2-8,20.9-9.8c1.5-0.4,3-0.9,4.5-0.1c0.4,0.2,0.6,0.8,1.2,0.9
			c-0.5-0.3-0.5-0.7-0.2-1.2c1.4-1.5,3.5-1.5,5.2-1.6c9.9-0.6,19.6,0.3,28.8,4.4c2.8,1.7,6,2.5,8.8,4.3c1.8,1.2,3.9,2.1,4.6,4.4
			c2.9,8.4,3.7,17,3.2,25.8c-0.4,6.9-2,13.6-4.2,20.1c-0.3,1-0.9,2-1.8,2.7c-1.8,1.1-3.4,0.1-5-0.5c-2.4-0.8-4.6-2-7-2.5
			c-7.8-1.6-15.8-2.1-23.8-1.6c-9.4,0.6-18.6,2.6-26.8,7.5c-8.9,5.2-10.7,12.7-5.7,21.7c1.2,2.1,2.6,4,4.4,5.6
			c1.2,2.4,3.6,3.2,5.6,4.7c1,0.8,2.2,1.3,3,2.3c0.5,0.8,1.3,1.5,2.1,2c0.9,0.6,1.3,1.5,0.4,2.5c-0.9,0.9-2.2,1.2-3.3,1.2
			c-7.9,0.2-15.9,1.4-23.7-1.3c-2.2,0-2.4-0.9-3.8-2.7c3.6,5.6,8.7,10.8,14.1,15.7c0.7,0.6,1.6,0.8,2.2,1.4c2.5,2.9,1.6,6.1,0.6,9.2
			c-0.7,2-1.4,4.1-2,6.1c-4.2,4.9-7.7,10.2-9.5,16.5c-0.7,2.4-0.1,3.7,2.3,4.5c3.1,1.1,6.1,2.4,8.8,4.2c1.2,0.8,2.4,1.6,2.9,3
			c1.3,3.7,4,6.8,5,10.6c0.7,2.4,2.2,4.9,0.4,7.5c-2.1,0.6-2.9-1-4-2.2c-4.9-5.3-10.6-9.1-17.8-10.5c-16.6-3.3-28.5,6.3-30.4,21.3
			c-1.4,10.9,2.7,19.9,9.8,27.8c1.4,1.5,3.8,2.4,3.4,5.2c-1.4,1.3-3,0.8-4.6,0.4c-4.1-1-7.6-3-10.5-5.9c-5.2-6.3-8-13.6-9.2-21.6
			c-0.2-1.2-0.4-2.4-0.5-3.5c-1.3-0.7-1.3-1.9-1.3-3.1c0.7-17.6,10.8-31,27.2-34.5c2.5-0.5,3.2-1.9,3.5-3.9c2.6-3.1,6-5.4,8.7-8.4
			c2.5-2.7,4.7-5.5,6.6-8.9c-5.1,2.5-9.2,6.4-14.7,7.6c-2.3,1-4.5,2-7.1,1.9c-1.6-0.5-3.2-0.2-4.8,0.3c-1.4,0.4-2.7,0.8-4.1,0.6
			c-0.4-0.1-0.8-0.3-1.2-0.2c0.5,0,0.8,0.2,0.9,0.7c-0.4,0.9-1.2,1.3-2,1.5c-17.6,3.5-29.7-4.9-34.6-22.1c-0.4-1.4-0.5-2.8,0.8-3.9
			c1.2-2,0.1-4.2,0.5-5.8c0,1.4,0.3,3.5-0.2,5.5c-2.3,0.3-1.9-1.6-2.1-2.8c-1.5-14.8,10.8-28.7,25.6-29.3c8.2-0.3,16.1,0.9,23.9,3.5
			c1.9,0.6,3.8,1.5,6.2,1.8c-3.1-8.1-6.6-15.7-5.4-24.3c0.9-2.1,1-4.2,0.1-6.3c-0.7-2-0.1-4.4-1.9-6c-0.1-0.3-0.1-0.6-0.1-0.9
			c1.9-1.5,2.6-3.6,3.2-5.8c2.6-10.5,7.7-19.7,15.2-27.6c2.4-2.5,2.3-3.1-0.8-4.7c-1.7-0.9-3.6-1.5-5.5-2.1c-2.3-1-4.5-1-6.8-0.1
			c-4.9,0.9-9,3.2-12.2,7c-0.7,0.8-1.4,1.7-2.5,2c-0.4,0-0.4,0.3-0.3,0.6c0.1,2-1.1,3.5-1.4,5.4c-0.3,1.1-0.8,2.2-0.7,3.5
			c-0.1,1-0.1,2,0,3.1c-0.1,1.2,0.4,2.3,0.7,3.5c0.6,3.6,3.5,6.1,4.5,9.4c-0.7,1.8-2.1,2.5-3.9,2.6c-5.3-2.4-10.1-10.1-9.6-15.8
			c0.1-0.5,0.1-1,0.2-1.6c0.5-1.7,0-3.6,0.4-5.3c0.7-1,0.3-2.2,0.8-3.2c0.5-3.9,2.4-7.1,5.2-9.8
			C345.5,135.4,347.2,133.8,348.3,131.5z"/>
		<path fill="#8FE0F3" d="M491.6,141.3c17.5,12.5,30.2,28.9,38.8,48.5c7.3,16.6,10.6,34,9.7,52.1c-0.9,18.8-5.7,36.7-15.2,53.1
			c-1.9,3.2-3.9,6.3-5.9,9.5c-0.6,1-1.1,2.2-2.4,2.5c-1.6-0.8-1.8-2.4-2-3.9c-1-6.5-4.1-11.9-7.8-17.1c-0.6-0.8-1.4-1.4-2.2-1.9
			c-4.7-3.4-9.7-6.2-15.4-7.4c-3.1-0.7-3.6-2.4-2.3-6.1c0.2-0.3,0.4-0.5,0.6-0.7c0.9-3.3,0.8-6.6,0.1-10c-0.3-0.2-0.5-0.4-0.7-0.6
			c-0.9-1.6-1.3-3.2-0.3-4.9c2.9-2,6.3-1.6,9.5-1.9c7.5-0.8,14.9-2.3,22-5c9.4-3.6,13.9-10.9,14.8-20.3c1.3-12-3.1-21.8-13.5-28.6
			c-2.6-1.7-5.6-2.5-8.6-3.1c-1.7-0.7-3.5-0.6-5.2,0c-7,0.9-13,4-18.7,8c-1.9,1.3-3.7,2.7-5.5,4.1c-1,0.7-1.9,1.4-3.3,1.2
			c-0.4-0.1-0.6-0.4-0.8-0.7c-0.7-2.7,0.7-4.9,1.4-7.3c3.5-12.5,2.9-24.9-1.5-37c-0.5-1.3-1-2.7-0.8-4.1c1-2.7,3.9-3.3,5.8-5.1
			c1.4-1,2.6-2.1,3.5-3.6c1.6-2.2,2.9-4.5,3.8-7.1C489.8,142.8,490.2,141.6,491.6,141.3z"/>
		<path fill="#8FE0F3" d="M362.4,270.1c0.2,4.5,0.2,4.5-4.4,5.4c-13.4,2.8-23.9,14.4-25.5,28.3c-0.3,2.7-0.4,5.4-0.6,8.1
			c-0.2,1.4-0.2,2.3-1.7,0.5c-4.1-5-7.8-10.2-11.1-15.8c-9.2-15.6-14.2-32.5-15.7-50.6c-2-24.3,3.2-46.8,15.1-68
			c4.7-8.5,10.7-15.9,17.2-23.1c0.2-0.2,0.4-0.3,0.6-0.2c0.3,0.2,0.4,0.6,0.6,1c1,6.3,4.1,11.4,9.3,15.1c3.8,0.9,7.4,2.2,10.5,4.6
			c2.1,0,3.1,0.8,2.5,3.1c-0.2,0.9,0,1.9,0,2.8c0.2,2.2,0.2,4.5,0,6.7c0,9.5,3.1,18.2,7.3,26.6c-1.3,0.6-2.2-0.3-3.1-0.7
			c-9.6-3.6-19.4-6.2-29.8-5.7c-15.6,0.9-27.1,15.9-23.7,31l0,0c0.9,15.3,13.7,26.6,29,25.3c2.3-0.2,4.6-0.1,6.8-1
			c2.9-0.9,5.8-2.3,9-2c2.4-0.7,4.8-1.3,7.2-2C364.5,263,363.8,266.6,362.4,270.1z"/>
		<path fill="#70B8CA" d="M516.6,312.2c1.4,0.8,3,0.6,4.5,0.6c14,0,27.9,1.1,41.7,3.6c3.6,0.7,7.6-0.3,11.4-0.5
			c6.5-0.4,12.9,0,19.1,1.7c1,0.3,2.4,0.6,2.4,1.9c0,1.4-1.4,2-2.5,2.3c-3.6,1-7.2,1.7-11,1.6c-2.6-0.1-4.6,0.4-6.7,2.5
			c-2.6,2.8-6.5,3.9-10.9,4.5c1.4,1.2,2.3,0.7,3.2,0.6c8.7-0.5,17.5-1,26.2,0.3c0.4,0.1,0.9,0.1,1.3,0.3c1.1,0.6,2.7,0.7,2.7,2.5
			c0,1.5-1.3,1.9-2.4,2.4c-3.8,1.5-7.8,2.4-11.8,2.6c-9.2,0.4-18.3,1.6-27.5,0.2c-3.7-0.6-6.6,1.5-10.3,3.4c3.4,0.5,6,0.8,8.7,1.3
			c1.6,0.3,3.6,0.6,3.8,2.6c0.2,2.1-1.7,2.6-3.2,3.1c-9.3,3.6-19,4.8-28.8,6c-11.3,1.4-22.6,1.8-34,2.5c-8.1,0.5-16.2,0.1-24.2-1.3
			c-1.6-0.3-3.1-1-4.2-2.3c1.3-1.6,3-0.9,4.6-0.7c8.7,1.2,16.8-1,24.1-5.4c12.2-7.4,19.7-18.3,22.1-32.5
			C514.9,314.4,515.1,313,516.6,312.2z"/>
		<path fill="#7BBECF" d="M425.2,354.9c-1.1,0.4-2.2,0.8-3.4,1.2c-8.5,1.1-16.8-0.3-25.2-1.9c-1.6-0.3-3.2-0.5-4.4-1.8
			c-0.8-1.5,0.2-2.6,1.3-3.3c6.7-4.8,11.1-11.2,13.3-19.2c0.3-1.1,0.9-2,1.9-2.5c2.2-0.8,4.1,0.3,6.1,0.8c0.9,0.1,1.6,0.4,2,1.2
			c0,0.3,0,0.6-0.4,0.6c0,0.1,0.2,0.2,0.4,0c0.6-0.5,1.1-1.1,1.9-1.3c6.3-0.5,12.6,0.1,18.8-1.3c2-0.4,3.6,0.7,4.4,2.6
			c0.6,1.3,1,2.6,1.4,4c0.3,2,1,3.7,2.3,5.2c1.1,1.2,1.9,2.6,1.6,4.4c-0.1,0.4-0.3,0.9-0.7,1.1C440.1,349.6,433.3,353.7,425.2,354.9
			z"/>
		<path fill="#D57B26" d="M447,343.6c-1.6-2.8-3.9-5.2-4.7-8.4c1.7-0.7,2.8,0.5,4.1,1.2c2.1,1.2,4,2.9,6.5,3.2
			c1.3,0.4,2.4,1.2,3.4,2c7.9,6.2,16.7,7.7,25.9,4.1c13.5-5.3,21.1-15.5,23.1-29.8c0.3-2.5,0.5-5,0.4-7.5c0.3-7.6,0.9-15.3-1.3-22.8
			c-0.2-0.8-0.5-2,0.9-2.4c6.1,5.1,9.1,11.8,10.6,19.4c0.3,1.4,0.5,2.8,0.7,4.2c0,1.8,0,3.5,0,5.3c-2,17.6-10.6,30.8-26.4,38.9
			c-8.3,4.2-17.1,5.2-26.2,3.2c-3.2-1-6.3-2.3-9.2-4C450.8,349.7,448.1,347.5,447,343.6z"/>
		<path fill="#D57B26" d="M408.8,328c-2.3,10.1-7.6,18.1-16.5,23.5c-2.2,3.6-6.1,4-9.7,4.6c-13.1,2.3-24.4-1.8-34.5-10.1
			c-1.6-1.3-2.6-3.2-3.8-4.9c-0.8-1.3-1.7-2.7-2.5-4c3.6,1.4,6.9,3.5,10.6,4.6c1.5,0.4,2.9,0.8,4.4,0.7c1.3-0.7,2.3-0.1,3.3,0.6
			c6.5,3.2,13.2,5.7,20.7,4.1c10-2.2,16.3-8.3,18.9-18.2c2.3-8.5,0.3-16.3-3.6-23.9c-0.6-1.2-1.5-2.3-0.6-3.8
			c0.3-5-2.1-9.2-4.1-13.5c-0.7-1.4-2.7-2.4-1.6-4.5c1.6-0.7,2.8,0.3,3.8,1.2c2.2,2.1,4.5,4.1,6.4,6.6c3.1,5.1,6.9,9.8,8.6,15.6
			c1.4,4.9,2.5,9.9,2.1,15.1C410.7,324,410.6,326.2,408.8,328z"/>
		<path fill="#8FE0F3" d="M409.4,124.2c-9.6,1.4-18.1,5.3-25.7,11.2c-2.7,2.1-4.4,2.5-6.5-0.4c-1.5-2-3.6-3.3-5.9-4.4
			c1.2-3.1,4.4-3.2,6.7-4c10.6-3.9,21.4-6.6,32.7-7.8c12-1.2,23.7-0.1,35.5,2c1,0.2,1.9,0.3,2.5,1.2c0.5,0.5,0.4,1.1,0.2,1.7
			c-0.7,1.2-1.4,2.3-2.3,3.3c-0.6,0.4-1.3,0.7-2.1,0.6c-11.2-4.5-22.8-6.2-34.8-3.6C409.8,124.5,409.6,124.5,409.4,124.2z"/>
		<path fill="#E48429" d="M448.1,123.5c0.2-0.5,0.5-0.9,0.7-1.4c10.4-10.8,24.1-12.1,34.5-3.2c5.3,4.5,8.1,10.2,8.2,17.2
			c0,1.7,0,3.5,0,5.2c-1.3,3.8-2.2,7.7-5.2,10.6c-1.4,0.7-2.6,1.7-3.2,3.3c-1.6,1.9-3.8,3-6,3.9c-1.9,0.1-2.3-1.2-2.3-2.7
			c1.4-1.9,3.3-3.4,4.7-5.4c6.6-9.4,3.7-22.7-6.3-28.4c-4-2.3-8.2-4.2-13-2.6c-3.1,0.5-6,1.7-8.6,3.5c-0.9,0.6-1.8,1.3-2.9,1.1
			C448.3,124.4,447.9,124.1,448.1,123.5z"/>
		<path fill="#70B8CA" d="M344.3,341.1c1,0.1,1.4,1,2,1.5c13.5,12.2,28.6,16.7,45.9,8.8c5.9,2.2,12.2,2.6,18.4,3.4
			c3.7,0.5,7.5,0.2,11.2,1.2c-18.2,5.9-36.6,6.1-55.2,2c-7.6-1.7-14.3-5.3-19.5-11.2C345.7,345.2,344.5,343.4,344.3,341.1z"/>
		<path fill="#8FE0F3" d="M447,343.6c2.4,2.4,4.9,4.8,7.8,6.8c-7.1,2.6-14.5,3.8-21.9,4.3c-2.5,0.2-5.1,1.8-7.6,0.1
			C432.7,351.6,440.1,348.1,447,343.6z"/>
		<path fill="#FAFDFD" d="M288.6,419.3c1.4,0,2.8,0,4.2,0c1.8,0,2.5,1.1,2.7,2.7c0.1,1.5-0.6,2.5-2.2,2.7c-1.1,0.1-2.2,0.4-3.2,0.4
			c-3.9,0.1-4.3-0.3-4.2-4.2c0.1-3.7-1.6-7.1-1.4-10.9c0.3-6,3.1-8.2,9-6.6c0.7,0.2,1.3,0.5,2.2,0.2c1.7-0.5,1.7,0.4,0.9,1.5
			c-0.7,0.9-0.4,1.8-0.3,2.8C296.7,417.1,296.2,417.8,288.6,419.3z"/>
		<path fill="#FAFDFD" d="M344,419.3c1.4,0,2.8,0,4.2,0c1.7,0,2.3,1.1,2.5,2.5c0.2,1.5-0.4,2.5-2,2.8c-1.7,0.4-3.5,0.6-5.2,0.4
			c-2-0.2-3.2-0.9-2.6-3.4c0.4-1.9,0.3-4-0.5-6c-1.1-2.8-0.8-5.8-0.3-8.7c0.5-2.9,3.2-4.3,6.9-4c1.5,0.1,2.7,1.4,4.4,0.5
			c0.6-0.3,1.2,0.7,0.7,1.3c-1.3,1.4-0.6,2.9-0.4,4.3C352.1,416.4,351,417.8,344,419.3z"/>
		<path fill="#FBFDFE" d="M131.7,403.8c1.4,5.5,0.6,11.3,2.2,16.8c1-3.2,2-6.4,3-9.6c0.2-0.7,0.4-1.6,1.3-1.7c1.2-0.1,1.3,1,1.5,1.8
			c1,3.3,1.9,6.7,3.2,11c1.2-5.5,1.2-10.1,1.7-14.7c0.1-1,0.1-2,0.2-2.9c0.1-0.6,0.4-1.2,0.9-1.2c0.9,0,0.9,0.8,0.9,1.4
			c-0.7,6.2-1.3,12.4-2,18.6c-0.1,0.7-0.5,1.2-1.3,1.2c-0.8,0-1.2-0.5-1.4-1.2c-0.6-2.1-1.2-4.2-1.9-6.3c-0.5-1.5-0.4-3.2-1.7-4.6
			c-1.6,3.3-2.1,6.8-3.3,10c-0.4,1-0.4,2.4-1.9,2.2c-1.2-0.2-1.2-1.5-1.2-2.4c-0.4-5.8-0.7-11.6-1-17.3
			C130.7,404.5,130.8,404,131.7,403.8z"/>
		<path fill="#FBFDFE" d="M525.6,420.5c1-3.2,2-6.4,3-9.7c0.2-0.7,0.4-1.6,1.4-1.6c0.9,0,1.1,1,1.3,1.7c1,3.4,2,6.9,3.2,10.2
			c1.1-4.7,1.3-9.5,1.7-14.2c0.1-0.9,0.1-1.8,0.2-2.6c0.1-0.5,0.4-1.1,1.1-1c0.7,0.1,0.8,0.7,0.7,1.2c-0.2,2.2-0.4,4.3-0.6,6.5
			c-0.4,3.7-0.8,7.4-1.3,11.1c-0.1,0.9,0.1,2.2-1.2,2.3c-1.5,0.2-1.6-1.2-1.9-2.2c-1-3.2-1.9-6.5-3-10.2c-2,3.6-2.3,7.1-3.5,10.3
			c-0.4,1-0.4,2.5-1.8,2.4c-1.4-0.1-1.4-1.6-1.4-2.6c-0.2-6.1-1.3-12.1-0.5-18.2C525,409.2,523.8,415.1,525.6,420.5z"/>
		<path fill="#F9FCFD" d="M208.1,425.1c-1.4-0.5-1.6-1.3-1.6-2.1c0-5.9-0.1-11.8,0-17.7c0-1.8,0.4-1.9,1.9-0.6
			c0.8,0.7,1.1-0.1,1.5-0.4c3.5-2.2,6.3-1.3,7,2.8c0.9,5.4,1.2,10.8,1.2,16.3c0,0.6,0,1.5-0.9,1.3c-0.9-0.2-0.9-1.1-0.9-1.9
			c-0.3-4.4-0.5-8.7-0.7-13.1c-0.1-2,0-4.4-2.6-4.5c-2.5-0.2-3.4,2-4,4.1c-1.1,4.2-0.5,8.5-0.7,12.7
			C208.3,422.9,208.2,423.9,208.1,425.1z"/>
		<path fill="#F9FCFD" d="M707.1,414.7c0,3,0,5.9,0,8.9c0,0.7,0,1.4-0.8,1.7c-0.6,0.2-0.9-0.3-1.1-0.9c-0.5-1.5-1.1-0.3-1.6,0
			c-3.6,2-6.4,0.9-6.9-3.1c-0.7-5.2-0.9-10.4-1.3-15.7c0-0.6-0.2-1.5,0.7-1.6c1.1-0.1,1.1,0.9,1.1,1.6c0.3,3.7,0.4,7.4,0.7,11.1
			c0.1,1.3,0.1,2.6,0.4,3.9c0.3,1.3,0.7,2.6,2.4,2.7c1.5,0.1,2.5-0.7,3.2-1.9c1-1.8,1.3-3.7,1.3-5.7c0-3.5,0-7,0.1-10.5
			c0-0.7,0.1-1.5,0.9-1.5c0.8,0,0.9,0.8,0.9,1.5C707.1,408.4,707.1,411.6,707.1,414.7C707.1,414.7,707.1,414.7,707.1,414.7z"/>
		<path fill="#F9FCFD" d="M725.6,413.8c0-3,0-5.9,0-8.9c0-0.6,0.1-1.4,0.9-1.6c0.7-0.2,0.8,0.5,1,1c0.6,1.5,1.1,0.2,1.6-0.1
			c3.4-2.1,6.4-0.9,6.9,3c0.7,5.2,0.9,10.4,1.3,15.7c0,0.7,0.3,1.8-0.8,1.8c-1,0-1-1-1-1.8c-0.2-4.4-0.5-8.7-0.7-13.1
			c-0.1-2-0.2-4.4-2.7-4.7c-2.5-0.3-3.4,1.9-4,4c-1.1,4.3-0.4,8.7-0.6,13.1c-0.1,1,0.6,2.6-1,2.6c-1.2,0-0.8-1.6-0.9-2.5
			C725.6,419.5,725.6,416.7,725.6,413.8C725.6,413.8,725.6,413.8,725.6,413.8z"/>
		<path fill="#F8FCFD" d="M452.1,51.4c0-2.7,0.3-5.5,0.7-8.2c0.2-1.5,0.6-2.9,2.1-3.4c1.5-0.5,2.7,0.3,3.8,1.3
			c2.7,2.4,4.2,9.7,2.9,12.9c-0.8,1.8-2.3,1.7-3.8,1.8c-1.2,0.1-2.8-0.7-3.5,0.9c-0.4,0.9,0.1,1.8,0.7,2.4c1.1,1,2.5,1.4,3.9,0.8
			c0.4-0.2,0.8-0.3,1.2-0.5c0.5-0.3,1.1-0.4,1.4,0.1c0.4,0.8-0.3,1.1-0.8,1.5c-3.2,2.4-7.3,1.1-8.2-2.8
			C452.1,56.1,452.2,53.7,452.1,51.4z"/>
		<path fill="#F8FCFD" d="M587.7,414.4c-0.3-3,0-5.9,0.5-8.8c0.5-3.1,2.7-3.9,5.3-2.1c3.1,2.1,5,10.2,3.4,13.6
			c-0.9,1.8-2.4,1.5-3.9,1.6c-1.1,0.1-2.5-0.6-3.3,0.8c-0.5,0.9,0,1.7,0.6,2.4c0.9,1.1,2.2,1.3,3.6,1.1c1.1-0.1,2.6-1.9,3-0.4
			c0.4,1.8-1.9,2-3.3,2.4c-2.8,0.7-5.3-1.1-5.8-4.4C587.5,418.5,587.7,416.4,587.7,414.4z"/>
		<path fill="#FAFDFD" d="M639.4,414.7c0,2.9,0,5.9,0,8.8c0,1.3-0.5,2.4-1.7,0.8c-1.1-1.4-1.4-0.1-2,0.2c-3.2,1.7-6.2,0.4-6.6-3.1
			c-0.6-5.3-0.9-10.6-1.3-16c0-0.7,0-1.5,0.8-1.6c1.2-0.1,1,1,1,1.7c0.3,4,0.3,8.1,0.8,12.1c0.3,2.1-0.5,5.5,3.1,5.5
			c3.5,0,3.8-3.3,4-5.8c0.3-3.9,0.1-7.9,0.2-11.8c0-0.7-0.1-1.8,0.9-1.8c1,0,0.9,1,0.9,1.8C639.5,408.6,639.4,411.6,639.4,414.7z"/>
		<path fill="#F9FCFD" d="M602.9,424.7c-1.2-0.8-0.9-1.9-0.9-2.8c0-5.4,0.1-10.7,0-16.1c-0.1-3,1.4-3.6,3.9-3.3
			c2.9,0.4,5,1.8,5.6,4.7c0.8,3.6,0.2,7-2.6,9.6c-0.6,0.6-1.5,0.9-2.3,1.4c0.8,1.2,2.1,1.3,3.2,2c0.6,0.4,1.6,0.7,1.1,1.7
			c-0.6,1.2-1.5,0.4-2.2,0c-1.5-0.8-2.7-2.3-4.6-2.8C603.5,420.9,604,422.9,602.9,424.7z"/>
		<path fill="#FAFDFD" d="M741.4,415.5c0.2-3,0.4-6.1,0.7-9.1c0.1-1.6,0.5-3.1,2.2-3.7c1.7-0.6,2.9,0.6,4,1.6
			c2.5,2.4,4,9.6,2.7,12.7c-0.8,1.8-2.3,1.6-3.9,1.8c-1.2,0.1-2.8-0.7-3.6,0.9c-0.4,0.9,0.1,1.7,0.7,2.4c1.2,1.2,2.6,1.5,4.2,0.8
			c0.4-0.2,0.8-0.4,1.2-0.6c0.4-0.2,0.9-0.2,1.2,0.2c0.4,0.6-0.1,1-0.5,1.4c-2.6,2.5-7.2,1.4-8.3-2.1
			C741.4,419.6,741.3,417.5,741.4,415.5z"/>
		<path fill="#FAFDFD" d="M377.8,414.2c0.3-2.4,0.5-4.8,0.9-7.1c0.4-2.6,2-4.2,4.7-4.1c2.7,0.1,5,1,5.7,4c1.2,5.3,0.1,10.4-1.9,15.3
			c-0.8,2-2.9,2.7-4.9,2.6c-2.1-0.2-3.2-1.8-3.6-3.8C378.3,418.8,377.8,416.6,377.8,414.2z"/>
		<path fill="#FAFDFD" d="M312.5,410.6c-0.3,3.4-0.5,6.8-1.6,10c-0.9,2.5-2.6,4.2-5.3,4.1c-2.8,0-3.7-2.2-4.1-4.7
			c-0.7-4.4-0.6-8.7,0.2-13c0.5-2.8,2-4.4,4.9-4.2c2.8,0.2,5.1,1.3,5.6,4.5C312.3,408.5,312.4,409.6,312.5,410.6z"/>
		<path fill="#FAFDFD" d="M679.4,414.3c0.3-2.5,0.5-5,1-7.5c0.4-2.4,2-3.9,4.6-3.9c2.6,0,4.9,0.8,5.7,3.6c1.5,5.5,0.4,10.9-1.9,15.9
			c-0.9,1.9-2.9,2.6-5,2.3c-2-0.3-3-1.8-3.3-3.6C679.9,418.9,679.4,416.6,679.4,414.3z"/>
		<path fill="#FAFDFD" d="M326.6,51.1c-0.1-2.3,0.3-4.6,0.7-6.8c0.5-2.7,2-4.2,4.7-4.1c2.7,0.1,5.1,1,5.7,4c1,5,0.3,10-1.6,14.8
			c-0.9,2.2-2.8,3.4-5.3,3.1c-2.3-0.3-3.1-2-3.6-4.1C326.6,55.7,326.7,53.4,326.6,51.1z"/>
		<path fill="#FAFDFD" d="M542.1,414c0.2-2.5,0-4.9,0.7-7.3c0.7-2.5,2.1-3.9,4.6-3.8c2.5,0.1,5,0.9,5.6,3.6
			c1.2,5.4,0.5,10.7-1.8,15.7c-0.9,1.9-2.8,2.8-4.9,2.6c-2.2-0.2-3-1.8-3.6-3.7C542,418.7,542.3,416.3,542.1,414z"/>
		<path fill="#FCFDFE" d="M559.4,425.5c-1.9-1.5-1.5-2.7-1.5-3.7c0-5.5,0-10.9,0-16.4c0-0.8-0.4-2.1,0.9-2.1c1.3,0,0.3,1.5,0.9,2.1
			c0.7,0.1,0.9-0.5,1.3-0.8c3.2-2.6,6.7-1.6,7.2,2.5c0.7,5.4,0.8,10.9,1.2,16.3c0,0.6,0,1.2-0.7,1.2c-0.3,0-0.7-0.5-0.8-0.9
			c-0.2-1.2-0.4-2.4-0.5-3.6c-0.2-3.9-0.1-7.9-0.7-11.8c-0.3-1.6-0.6-3.2-2.5-3.3c-1.7-0.2-2.9,1-3.4,2.6c-1.1,2.9-1.2,6-1.3,9
			C559.3,419.4,559.4,422.1,559.4,425.5z"/>
		<path fill="#FCFDFE" d="M324.9,425.3c-1.4-1.5-1-2.9-1-4.1c-0.1-5.2,0-10.5,0-15.7c0-0.8-0.4-2.1,0.9-2.1c1.3,0,0.3,1.5,1,2.2
			c0.4-0.3,0.8-0.6,1.2-0.9c3.2-2.6,6.7-1.6,7.2,2.6c0.7,5.4,0.8,10.9,1.2,16.3c0,0.6,0,1.2-0.7,1.1c-0.3,0-0.7-0.5-0.8-0.9
			c-0.2-1.2-0.4-2.4-0.5-3.6c-0.2-3.9-0.1-7.9-0.7-11.8c-0.3-1.6-0.7-3.2-2.5-3.3c-1.7-0.1-2.8,1-3.4,2.6c-1.1,2.9-1.1,6-1.3,9
			C325.3,419.4,325.8,422.1,324.9,425.3z"/>
		<path fill="#FBFDFE" d="M447.3,418.3c0.9,1.2,2.2,1.4,3.2,2c0.6,0.4,1.7,0.6,1.2,1.6c-0.6,1.1-1.5,0.4-2.2,0
			c-1.6-0.9-2.9-2.3-4.8-2.9c-0.7,1.9,0.1,3.9-1,6c-1.7-2-1.2-4-1.1-5.8c0.4-4.6,0.4-9.2,0.3-13.8c-0.1-2.8,1.4-3.4,3.7-3
			c2.7,0.4,5,1.6,5.4,4.5c0.6,3.7,0.6,7.5-2.8,10.2C448.6,417.6,447.9,417.9,447.3,418.3z"/>
		<path fill="#FCFDFE" d="M712.1,424.9c-0.8-3.8-0.4-6.8-0.4-9.8c0-3.2,0.1-6.4,0-9.5c-0.2-2.9,1.4-3.4,3.7-3.1
			c2.7,0.4,4.8,1.6,5.5,4.4c0.9,3.6,0.5,7-2.2,9.7c-0.7,0.7-1.6,1.1-2.4,1.7c0.7,0.9,1.8,1.2,2.7,1.8c0.8,0.4,2.3,0.7,1.5,2
			c-0.7,1.1-1.8,0-2.5-0.5c-0.9-0.5-1.7-1-2.4-1.7c-1.7-1.4-2.4-1.1-2.4,1.2C713.2,422.2,713.3,423.3,712.1,424.9z"/>
		<path fill="#F7FCFD" d="M352.1,50.9c0,2.8-0.1,5.7,0,8.5c0.1,2-0.9,2.8-2.7,2.8c-3.4-0.1-6.3-2.5-6.9-5.9c-0.8-4.5,1-9.2,4.2-10
			c2.7-0.7,4.1-1.6,3.7-4.5c-0.1-0.7-0.1-1.8,1-1.7c0.8,0.1,0.8,1,0.8,1.6C352.2,44.8,352.2,47.9,352.1,50.9
			C352.2,50.9,352.1,50.9,352.1,50.9z"/>
		<path fill="#F7FCFD" d="M582.6,402.8c1.3,0.6,0.9,1.9,0.9,2.9c0,5.4-0.1,10.7,0,16.1c0.1,2.9-1.3,3.7-3.9,3.1
			c-3.8-0.8-5.8-3.2-5.9-7.2c-0.2-5,1.5-8,5.4-8.9c2-0.5,2.7-1.4,2.6-3.4C581.6,404.5,581.4,403.4,582.6,402.8z"/>
		<path fill="#FAFCFD" d="M366.6,53.8c0,2.1,0.1,4.2,0,6.2c-0.1,1.2,0,3-2.1,1.2c-0.8-0.7-1.8,0.2-2.8,0.4c-1.6,0.3-3.3,0.7-4.6-0.8
			c-1-1.2-1.2-2.6-0.6-4c0.8-1.9,2.4-2.6,4.3-2.3c3.5,0.6,4.4-1,4-4.2c-0.2-1.4-0.1-2.8-0.1-4.3c-0.1-2.7-1-4.4-4.1-4.1
			c-0.8,0.1-2.1,0.4-2.1-0.8c0-1,1.3-0.9,2.1-1c3.9-0.3,4.9,0.6,5.5,4.6C366.7,47.7,366.6,50.8,366.6,53.8z"/>
		<path fill="#FAFDFD" d="M160.9,417.5c0,1.2,0.1,2.4,0,3.6c-0.2,1.7,0.5,4.6-3.1,2.9c-0.8-0.4-2.1,0.4-3.2,0.6
			c-2.3,0.3-3.9-0.6-4.1-3.1c-0.2-2.5,0.8-4,3.4-4.2c5.3-0.5,5.3-0.5,5.1-6c0-0.8-0.1-1.5-0.1-2.3c-0.2-2.7-1-4.7-4.4-4.2
			c-0.7,0.1-1.8,0.3-1.8-0.8c-0.1-1,0.9-1,1.7-1.1c4.2-0.5,5.6,0.6,6,4.8c0.1,1.6,0.4,3.3,0.5,4.9
			C160.9,414.2,160.8,415.9,160.9,417.5C160.9,417.5,160.9,417.5,160.9,417.5z"/>
		<path fill="#FAFDFD" d="M438.2,417.2c0,1.3,0.1,2.6,0,3.9c-0.2,1.8,0.4,4.5-3.1,2.8c-0.7-0.3-1.9,0.4-2.8,0.5
			c-2.4,0.3-4.2-0.4-4.4-3.1c-0.2-2.7,1-4.2,3.8-4.2c0.8,0,1.5-0.1,2.3,0c1.9,0.2,2.6-0.5,2.5-2.4c-0.1-1.7,0-3.5-0.1-5.2
			c-0.2-3-0.8-5.5-4.8-4.8c-0.6,0.1-1.5,0.1-1.5-0.8c0-0.8,0.7-0.9,1.4-1c4.1-0.8,5.9,0.6,6.3,4.8c0.1,1.6,0.4,3.3,0.5,4.9
			C438.2,414.2,438.2,415.7,438.2,417.2C438.2,417.2,438.2,417.2,438.2,417.2z"/>
		<path fill="#FAFDFD" d="M500.8,52.7c0,1.1,0,1.8,0,2.4c0,6.7,0,6.7-6.5,6.7c-2.3,0-3.5-1.2-3.7-3.3s0.8-3.6,3-4
			c1.7-0.4,4,0.8,5-0.7c1.2-1.8,0.4-4.2,0.4-6.4c-0.1-4.7-0.1-4.7-4.9-5.4c-0.5-0.1-1.2,0-1.3-0.7c-0.1-0.9,0.6-1,1.3-1.2
			c3.7-0.9,5.7,0.4,6.5,4.2C501,47.3,500.7,50.3,500.8,52.7z"/>
		<path fill="#F8FCFD" d="M485.5,40.3c1.2,0.6,0.8,1.6,0.8,2.4c0,5.5-0.1,10.9,0,16.4c0,2.8-1.2,3.4-3.7,2.9
			c-3.6-0.7-5.6-2.8-6.1-6.3c-0.5-4,1.2-8.6,4.1-9.2c3.1-0.7,4.1-2.3,4.2-5.1C484.9,41,485.3,40.7,485.5,40.3z"/>
		<path fill="#F6FBFD" d="M437.7,50.9c0-3.1,0-6.1,0-9.2c0-0.7-0.2-1.8,0.8-1.9c1-0.1,1,1,1,1.7c0,0.9,0.1,1.8,0,2.6
			c-0.2,1.8,0.6,2.4,2.5,2.4c4.3,0.1,5.4,1.2,5.5,5.5c0.1,2.5,0,5-0.1,7.5c0,0.7-0.1,1.8-1.1,1.8c-1.1,0-0.7-1.1-0.8-1.8
			c0-2.7,0.8-5.4,0.3-8.2c-0.5-2.5-1.9-3.3-4.1-3.2c-2.4,0.1-2.2,1.9-2.2,3.6c0,2.8,0,5.7,0,8.5c0,0.7-0.1,1.7-1.1,1.6
			c-0.8-0.1-0.7-1-0.7-1.6C437.7,57.2,437.7,54.1,437.7,50.9z"/>
		<path fill="#FBFDFE" d="M232.7,415.6c0,0.8,0,1.5,0,2.3c-0.1,2.2,0.3,4.4-0.3,6.5c-2-0.5-3.9-0.2-5.8,0.1
			c-2.3,0.4-3.8-0.7-3.9-3.3c-0.1-2.3,0.8-3.7,3.3-4.1c1.7-0.2,4,0.9,4.9-0.7c1-1.7,0.4-4.1,0.2-6.1c0-0.4-0.2-0.9-0.2-1.3
			c0.1-3.1-0.9-4.9-4.4-4.3c-0.7,0.1-1.8,0.2-1.8-0.8c0-1,1-0.9,1.8-1c4.2-0.5,5.8,0.8,6.2,5.1c0,0.3,0,0.7,0,1c0,2.2,0,4.4,0,6.6
			C232.7,415.6,232.7,415.6,232.7,415.6z"/>
		<path fill="#F8FCFD" d="M511.4,52c1.1-3.4,2.2-6.9,3.3-10.2c0.3-0.8,0.1-2.4,1.6-1.9c1.2,0.4,0.4,1.8,0.1,2.6
			c-0.8,2.4-1.6,4.8-2.5,7.1c-1.3,3.4-2.4,6.8-2,10.5c0.1,0.7,0.1,1.7-1,1.7c-0.8,0-0.9-0.9-0.8-1.6c0.6-5.8-2.2-10.8-3.8-16.2
			c-0.2-0.7-0.5-1.5-0.7-2.2c-0.2-0.6-0.4-1.4,0.5-1.6c0.9-0.3,1.1,0.5,1.3,1.1c1.1,3.5,2.2,7.1,3.3,10.6C511,52,511.2,52,511.4,52z
			"/>
		<path fill="#F8FCFD" d="M264.9,414.9c1.1-3.5,2.2-7,3.4-10.5c0.3-0.7,0.2-2.2,1.3-1.9c1.4,0.3,0.6,1.6,0.4,2.5
			c-0.4,1.4-1,2.7-1.4,4c-1.5,4.5-3.8,8.9-3.2,13.9c0.1,0.6,0.1,1.5-0.7,1.6c-0.9,0.2-1.1-0.7-1-1.3c0.6-6.3-2.5-11.7-4.1-17.4
			c-0.3-0.9-1.4-2.3,0.2-2.7c1.3-0.4,1.3,1.3,1.6,2.1c1.1,3.2,2,6.4,3,9.7C264.5,414.9,264.7,414.9,264.9,414.9z"/>
		<path fill="#F9FCFD" d="M405.3,47.8c-0.4,3.2,0.3,5.5,3.9,6.4c2,0.5,2.3,2.4,2.2,4.3c-0.1,1.7-0.9,3-2.5,3.5
			c-1.8,0.6-3.2-0.3-4.5-1.4c-0.4-0.4-0.8-0.8-0.4-1.4c0.4-0.6,0.9-0.3,1.4,0c1.4,1.2,3.1,1.9,4.1-0.2c1.1-2.3-0.6-3.3-2.6-3.9
			c-1.6-0.4-2.5-1.5-2.9-3.2c-0.8-3.5-0.6-6.9,0.5-10.3c0.5-1.7,1.9-2.4,3.6-2.1c1.7,0.3,2.7,1.3,3.2,2.9c0.2,0.6,0.2,1.4-0.6,1.7
			c-0.7,0.3-1-0.3-1.2-0.8c-0.4-1.1-0.9-2.2-2.3-1.7c-1.2,0.4-1.6,1.5-1.7,2.6C405.4,45.4,405.4,46.6,405.3,47.8z"/>
		<path fill="#F8FCFD" d="M761.8,414.9c1.1-3.3,2.1-6.6,3.3-9.9c0.3-0.9,0.2-2.8,1.5-2.4c1.6,0.5,0.4,2.1,0.1,3.1
			c-0.6,2-1.4,3.9-2.1,5.9c-1.4,3.7-2.8,7.4-2.3,11.5c0.1,0.6,0,1.5-0.8,1.5c-0.9,0.1-1-0.8-1-1.4c0.6-6.3-2.6-11.7-4.2-17.4
			c-0.2-0.9-1.2-2.2,0-2.6c1.6-0.6,1.5,1.2,1.8,2.1c1.1,3.2,2,6.4,3,9.6C761.4,414.8,761.6,414.8,761.8,414.9z"/>
		<path fill="#F8FCFD" d="M381.9,39.2c1.2,2.2,0.2,3.6-0.2,5c-1.7,5.3-4.6,10.2-3.8,16.1c0.1,0.6,0,1.5-0.9,1.5
			c-0.9,0.1-1-0.7-1-1.4c0.6-6.1-2.5-11.2-4.1-16.8c-0.1-0.4-0.3-0.8-0.4-1.2c-0.2-0.7-0.6-1.7,0.3-2c1-0.4,1.2,0.7,1.4,1.4
			c0.7,2.3,1.4,4.6,2.1,6.9c0.4,1.1,0.8,2.3,1.3,3.9C379.1,48.2,379.2,43.4,381.9,39.2z"/>
		<path fill="#FAFDFD" d="M166.8,410.8c-0.4,3.2,0.6,5.3,4,6c1.8,0.4,2.4,2.2,2.4,3.9c0,1.8-0.8,3.2-2.5,3.9c-1.6,0.7-3-0.2-4.3-1
			c-0.6-0.4-1.1-0.9-0.7-1.6c0.5-0.9,1.1-0.3,1.6,0.1c1.4,1,2.9,1.5,3.8-0.4c0.9-1.9-0.1-3.2-2-3.7c-2.6-0.6-3.4-2.3-3.8-4.7
			c-0.5-3.1-0.1-6.1,0.8-9c0.5-1.7,1.9-2.4,3.6-2.1c1.6,0.3,2.7,1.4,3,3c0.1,0.5,0.1,1.2-0.5,1.5c-0.6,0.3-1-0.1-1.3-0.6
			c-0.4-1-0.8-2.2-2.2-1.8c-1.4,0.4-1.5,1.8-1.7,2.9C166.9,408.4,166.9,409.6,166.8,410.8z"/>
		<path fill="#FAFDFD" d="M405.4,410.8c-0.4,3.1,0.5,5.3,4,6c1.8,0.4,2.4,2.2,2.5,3.9c0.1,1.8-0.8,3.2-2.5,3.9c-1.6,0.7-3-0.2-4.3-1
			c-0.6-0.4-1.1-0.9-0.7-1.6c0.5-0.9,1.1-0.3,1.6,0.1c1.4,1,2.9,1.6,3.8-0.3c0.9-1.8-0.1-3.3-2-3.7c-2.6-0.6-3.4-2.2-3.8-4.7
			c-0.5-3.1-0.1-6.1,0.8-9c0.5-1.7,1.8-2.5,3.6-2.1c1.6,0.3,2.7,1.4,3.1,3c0.1,0.5,0.1,1.2-0.5,1.5c-0.6,0.3-1,0-1.3-0.6
			c-0.4-1-0.7-2.2-2.2-1.9c-1.5,0.3-1.5,1.8-1.8,2.9C405.5,408.4,405.5,409.6,405.4,410.8z"/>
		<path fill="#F6FBFD" d="M415.8,417.6c3.3-0.6,2.8-2.9,2.9-5c0-2.7,0-5.5,0-8.2c0-0.9,0.1-2,1.3-1.9c1.1,0.1,0.8,1.1,0.8,1.8
			c-0.1,3.3,0.1,6.6-0.3,9.8c-0.3,2.6,2.5,1.9,2.8,3.1c0.4,1.7-3.3,0.6-2.8,3.2c0.2,1.1,0,2.2,1.4,2.7c0.6,0.2,1.4,0.4,1.1,1.2
			c-0.4,1-1.2,0.8-2,0.5c-1.5-0.5-2.4-1.7-2.3-3.3C418.8,419.7,418.2,418.4,415.8,417.6z"/>
		<path fill="#F6FBFD" d="M424.7,54.7c4-0.6,3.9-2.6,3.8-4.8c-0.1-2.5,0-5,0-7.6c0-1-0.4-2.6,1.2-2.5c1.5,0.1,0.7,1.5,0.7,2.4
			c0,2.7-0.1,5.5-0.1,8.2c0,1.5-0.6,3.5,2.1,3.5c0.5,0,0.9,0.4,0.7,0.9c-0.1,0.3-0.5,0.6-0.9,0.8c-2.6,1.5-2.8,3-0.3,4.8
			c0.4,0.3,1,0.5,0.8,1.2c-0.3,0.8-1,0.8-1.6,0.7c-1.6-0.3-2.6-1.5-2.6-3C428.7,57.2,428.1,55.6,424.7,54.7z"/>
		<path fill="#F6FBFD" d="M461.3,409.4c0,1.6,0.2,3.3-0.1,4.9c-0.5,2.6,2.6,1.8,2.8,3.1c0.3,1.7-3.3,0.6-2.8,3.2
			c0.2,1.1,0,2.2,1.4,2.6c0.6,0.2,1.4,0.4,1,1.3c-0.4,0.9-1.3,0.8-2,0.5c-1.6-0.6-2.3-1.9-2.3-3.6c0-1.3,0.1-2.6-1.7-3
			c-1-0.2-1.2-1.2-0.1-1.5c2.3-0.5,1.8-2.2,1.8-3.6c0.1-3,0-5.9,0.1-8.9c0-0.9,0.1-1.9,1.3-1.8c1.1,0.1,0.7,1.1,0.7,1.9
			c0,1.6,0,3.3,0,4.9C461.4,409.4,461.4,409.4,461.3,409.4z"/>
		<path fill="#F6FBFD" d="M615.7,417.4c3.4-0.4,2.9-2.7,2.9-4.8c0-2.5,0-5,0.4-7.5c0.2-1.3,0.7-2.3,2-2.7c0.6-0.2,1.4-0.3,1.8,0.4
			c0.5,0.8,0,1.2-0.8,1.4c-1.5,0.4-1.6,1.6-1.6,2.9c0,2.2,0,4.4,0,6.6c0,1.6-0.2,3.1,2.2,3.2c1,0,1.3,1.4,0.3,1.5
			c-3.1,0.4-2.5,2.3-2.2,4.3c0.2,0.9,0.5,2-0.7,2.2c-1.6,0.3-1.3-1.2-1.4-2C618.6,420.6,618.6,418.4,615.7,417.4z"/>
		<path fill="#F6FBFD" d="M187.2,417.1c2.9-0.2,2.9-2,2.8-3.9c-0.1-2.7,0-5.5,0.4-8.2c0.3-1.6,1.1-2.6,2.8-2.6c0.3,0,0.8,0.3,1,0.6
			c0.3,0.4,0,1-0.4,1.1c-2.5,0.6-2,2.5-2,4.2c0,2.1,0.2,4.2-0.1,6.2c-0.4,2.7,2.7,1.7,2.9,3c0.3,1.8-3.5,0.3-2.9,3
			c0.2,1,0.3,1.9,0.4,2.9c0.1,0.7-0.1,1.4-1,1.4c-0.9,0.1-1.1-0.6-1.1-1.3c-0.1-1.1-0.3-2.2-0.2-3.3
			C190.2,418.4,188.2,418.7,187.2,417.1z"/>
		<path fill="#F4FBFD" d="M317.5,52.1c0-2.3,0-4.6,0-6.9c0-1.9-0.2-3.4-2.6-3c-0.6,0.1-1.5,0.3-1.6-0.6c-0.2-1.1,0.8-1.3,1.5-1.3
			c2.1-0.1,4.1-0.2,6.2-0.2c0.6,0,1.2,0.3,1.3,0.8c0.1,0.6-0.5,1-1.1,1c-2.2,0.1-1.9,1.7-1.9,3.1c0,4.7,0.1,9.4,0,14.1
			c0,1,0.5,2.6-1.1,2.6c-1.3,0-0.8-1.6-0.8-2.5c-0.1-2.4,0-4.8,0-7.2C317.4,52.1,317.5,52.1,317.5,52.1z"/>
		<path fill="#FAFDFD" d="M365.2,417.5c4.3-0.7,4.1-3.1,4-5.4c0-2.4,0-4.8,0.1-7.2c0-0.8-0.3-2,0.9-2.1c1.3,0,1,1.2,1,2
			c-0.1,2.8-0.4,5.7-0.5,8.5c-0.1,1.6-0.5,3.5,2.1,3.5c0.5,0,0.8,0.3,0.8,0.8c0,0.5-0.4,0.7-0.8,0.9c-2.9,1.6-3,3.2-0.4,4.8
			c0.5,0.3,1.1,0.4,0.9,1.1c-0.2,0.8-0.9,0.9-1.6,0.8c-1.7-0.2-2.7-1.3-2.6-2.9C369.5,419.9,368.7,418.4,365.2,417.5z"/>
		<path fill="#F5FBFD" d="M644.1,415.6c0.1-3.6-0.1-7.2,0.5-10.8c0.1-0.7,0.2-1.5,1-1.4c0.8,0.1,0.8,0.9,0.8,1.5
			c-0.2,4.7-0.3,9.4-0.8,14.1c-0.3,2.7,0.2,4,3.2,3.6c0.9-0.1,2.4-0.6,2.5,0.7c0.1,1.4-1.4,1-2.3,1.1c-4.9,0.5-4.9,0.5-4.9-4.3
			C644.1,418.7,644.1,417.2,644.1,415.6z"/>
		<path fill="#F7FCFD" d="M249.9,414.2c0-3,0-5.9,0-8.9c0-0.8,0.2-1.8,1.1-1.8c1.1,0,0.8,1.1,0.8,1.8c-0.2,4.5-0.3,9-0.7,13.4
			c-0.2,2.9,0.4,4.4,3.7,3.9c0.7-0.1,1.8-0.4,1.9,0.6c0.2,1.3-1.1,1.1-1.9,1.2c-1,0.1-2,0.1-2.9,0.2c-1.6,0.3-2.2-0.4-2.2-2
			c0-2.8,0-5.7,0-8.5C249.8,414.2,249.8,414.2,249.9,414.2z"/>
		<path fill="#FAFCFD" d="M237.9,414c0-2.6-0.1-5.3,0-7.9c0-1-0.5-2.7,1-2.6c1.5,0.1,0.8,1.8,0.8,2.8c-0.1,4.1-0.3,8.3-0.6,12.4
			c-0.2,2.8,0.4,4.5,3.7,3.9c0.7-0.1,2-0.4,2,0.9c0,1-1.1,0.8-1.9,0.9c-1,0.1-2,0-2.9,0.2c-1.9,0.4-2.3-0.5-2.2-2.1
			c0.1-2.8,0-5.7,0-8.5C237.9,414,237.9,414,237.9,414z"/>
		<path fill="#FAFDFD" d="M666.7,418.2c1.4,0.5,1,1.6,1.3,2.3c0.5,1.3,0.6,2.9,2.6,2.8c1.8-0.1,2.2-1.4,2.5-2.9
			c0.7-3.9,0.6-7.8,0.5-11.7c0-1-0.6-2.2,0.8-3c1.2,1.4,0.6,3,0.6,4.4c0.1,3.5,0.1,7-0.1,10.5c-0.1,2.1-1.2,3.7-3.4,4.4
			c-1.5,0.5-2.9,0.1-3.9-1.1C666.3,422.2,666,420.3,666.7,418.2z"/>
		<path fill="#F7FCFD" d="M316.8,424.7c0-5.8,0-11.5,0-17.3c0-0.7,0.2-1.4,1-1.4c0.6,0,1,0.5,1,1.1c-0.1,5.8,0.3,11.7-1,17.5
			C317.7,424.7,317.3,424.7,316.8,424.7z"/>
		<path fill="#F7FCFD" d="M397.6,61.9c-1.1-2.3-0.6-4.8-0.6-7.2c-0.1-3.4,0-6.7,0-10.1c0-0.7,0.2-1.4,1-1.4c0.6,0,0.9,0.5,0.9,1.1
			C398.8,50.3,399.1,56.2,397.6,61.9z"/>
		<path fill="#F8FCFD" d="M199.7,424.7c0-3.3,0-6.6,0-9.9c0-2.5,0-5,0-7.5c0-0.7,0.1-1.4,1-1.4c0.6,0,1,0.6,0.9,1.1
			c-0.2,5.9-0.5,11.7-0.7,17.6C200.5,424.7,200.1,424.7,199.7,424.7z"/>
		<path fill="#E48429" d="M348.3,131.5c0.4,0.6,1.8,1.6,0.9,2c-2,0.9-3.2,4.4-6.3,2.5C344.4,134.1,346.1,132.5,348.3,131.5z"/>
		<path fill="#E48429" d="M366,128.8c-3.6,0-7.2,0-10.8-0.1C358.8,127.7,362.4,127.4,366,128.8z"/>
		<path fill="#7EDDF2" d="M336.5,155.1c-0.2,0-0.5,0-0.7,0c0-2.4,0-4.9,0.1-7.3c0-0.1,0.1-0.2,0.1-0.2c0.5-0.2,0.5,0.2,0.6,0.5
			C337.5,150.4,337.4,152.7,336.5,155.1z"/>
		<path fill="#ADB49A" d="M336.5,155.1c0-2.4,0-4.7,0-7.1c0.2-0.1,0.3-0.1,0.5-0.2c0.5,0.4,0.3,1,0.4,1.6c-0.1,1.7,0.2,3.3-0.2,5
			c-0.1,0.5-0.2,1-0.2,1.4C336.9,155.6,336.7,155.3,336.5,155.1z"/>
		<path fill="#E1F4FA" d="M675.4,403.7c0,0.7-0.4,1-1,1.1c-0.5,0.1-0.9-0.1-1-0.6c-0.2-0.7,0.2-1.1,0.8-1.2
			C674.7,402.8,675.2,403,675.4,403.7z"/>
		<path fill="#F3FAFC" d="M318.7,403.8c-0.1,0.4-0.2,0.8-0.8,0.9c-0.6,0-1-0.3-0.9-0.9c0.1-0.5,0.5-0.7,0.9-0.7
			C318.4,403,318.6,403.4,318.7,403.8z"/>
		<path fill="#F3FAFC" d="M398.8,41.1c-0.1,0.5-0.4,0.8-0.8,0.8c-0.6,0-1-0.3-0.9-1c0.1-0.5,0.5-0.7,1-0.6
			C398.7,40.3,398.8,40.7,398.8,41.1z"/>
		<path fill="#F4FBFD" d="M201.6,404c-0.1,0.5-0.5,0.7-0.9,0.7c-0.5,0-0.8-0.3-0.8-0.8c0-0.6,0.4-1,1.1-0.9
			C201.5,403.1,201.6,403.5,201.6,404z"/>
		<path fill="#F0F9FC" d="M521.9,60.6c0.5,0,0.8,0.2,0.9,0.7c0,0.4-0.2,0.8-0.7,0.8c-0.5,0-0.8-0.2-0.8-0.7
			C521.2,61.1,521.4,60.7,521.9,60.6z"/>
		<path fill="#F0F9FC" d="M772.5,423.4c0.5,0.1,0.7,0.4,0.7,0.9c-0.1,0.5-0.4,0.7-0.9,0.7c-0.5,0-0.7-0.4-0.6-0.9
			C771.7,423.6,772,423.4,772.5,423.4z"/>
		<path fill="#E48429" d="M337.3,149.2c-0.1-0.5-0.1-0.9-0.2-1.4c0.2-0.7,0.4-1.4,0.6-2.1c0,1.2,0,2.3,0.1,3.5
			C337.6,149.6,337.5,149.5,337.3,149.2z"/>
		<path fill="#FDD093" d="M398.8,291.2c-2.9-2.7-5.4-5.9-9-8c-3.8-3.3-8.3-5.1-13-6.7c-1.2-0.4-2.7-0.7-2.3-2.5
			c1.5-7.4,4.4-14,10.4-19c2.4,2.1,3.2,5.6,6.3,7.1c1.6,1.9,3.6,2.1,5.9,1.4c5.7-1.7,10.5-5.1,15.2-8.6c1.4-1,2.4-2.5,4.2-2.9
			c1.8,0,3,1.2,4.3,2.2c3.6,3.4,7.4,3.5,12.1,0.4c1.3-0.8,2.4-1.9,4-2.1c1.4-0.1,2.5,0.6,3.6,1.3c3.4,2.5,7.1,4.6,10.6,6.9
			c4.7,3.9,9,3.7,13.2-0.5c0.6-0.6,1.1-1,1.9-1c1.8,0.3,2.7,1.8,3.5,3.2c1.8,3,2.9,6.4,3.8,9.7c0.9,3.7,0.2,5.2-3.4,6.6
			c-11.8,4.6-20.2,12.7-25.4,24.2c-2,4.4-3.4,9-3.6,13.8c-0.2,4-1.5,5.4-5.3,6.3c-5.9,1.4-11.9,1.1-17.9,1c-1.2,0-2.3-0.6-3.3-1.4
			c-1-1.1-1.2-2.5-1.5-3.9C411,308.1,406,299.1,398.8,291.2z"/>
		<path fill="#FDD093" d="M359.4,343.7c-1.2,0.1-1.7-1.1-2.6-1.3c-8.1-6.8-13.5-15.1-14.7-25.8c-1.9-17.2,10.8-33.8,32-29.6
			c9.1,1.8,15.8,7.2,21.4,14.3c0.5,1,1,2,1.4,3c2.9,8.5,0.4,16.4-3.8,23.5c-6.2,10.6-15.5,16.7-28.2,16.7
			C363.1,344.4,361.3,343.8,359.4,343.7z"/>
		<path fill="#D67C27" d="M475.3,156.2c0.6,0.9,1.3,1.9,1.9,2.8c3.4,9.2,5.7,18.5,5.1,28.4c-0.4,7.2-2,14-4.5,20.7
			c0.8,2.9-1.4,4.9-2.4,7.1c-2.7,6-6.8,11-12.1,15.1c-0.6,0.2-1.3,0.2-1.9,0c-7.3-2.6-13.5-0.2-19.4,3.9c-0.5,0.3-1,0.5-1.4,0.9
			c-3.7,3.5-7.4,4.3-12,1.2c-3.3-2.2-6.7-0.6-9.9,1.2c-1,0.3-1.8,1-2.8,1c-1.6,0-2.8-1-4.1-1.8c-3.3-2.2-6.6-4.6-10.4-6.1
			c-2.4-1-5-1.4-7.6-1.3c-3.9,0.1-6.8,1.8-8.5,5.4c-0.7,0.5-1.5,0.5-2.2,0.1c-3.9-2.3-6.9-5.4-9.6-9c-0.4-0.5-0.3-1.2,0.2-1.8
			c6.8,1.3,13.8,1.5,20.7,1.3c2.6-0.1,5.1-0.4,7.6-1.3c0.6-0.5,1.3-0.3,2-0.3c6,2.3,12.4,3.9,18.8,3.7c8.3-0.2,16.3-2.3,23.6-6.7
			c5.9-3.6,10.9-7.9,14-14.3c1.8-3.8,1.9-7.8,1.7-11.8c-0.1-1.2-0.7-2-1.6-2.7c-1.8-2-3.4-4.3-5.4-6.1c-0.7-0.6-1.5-1.3-1.1-2.5
			c3.6-9.8,5.8-19.9,5.3-30.4c-0.2-5.2-1.1-10.2-2.4-15.2c-0.3-1-1.2-2-0.3-3.1c1.9-0.8,3,0.6,4.3,1.6c5.7,4.4,10.1,10.1,13.7,16.3
			C475.5,153.7,476.2,154.9,475.3,156.2z"/>
		<path fill="#FED7A8" d="M390.2,215c-5.6-4.8-8.1-11-7.7-18.3c0.3-4.9,3.5-8.1,7.4-10.7c6.3-4.2,13.5-6.2,20.9-7.5
			c10.8-1.8,21.5-1.9,32.2,1c2.2,1.4,2.6,3.7,2.6,6c0.1,8.5-3.6,15.2-9.7,20.7c-1.3,1.2-2.7,2.3-4.2,3.1c-2.2,1.1-3.5,2.8-3.8,5.2
			c-2.3,1.4-2.8-0.1-3.2-1.9c0-1.3,0.4-2.6-0.2-3.9c-0.2-0.9-0.2-1.9-0.7-2.8c-0.1-0.3-0.1-0.6-0.2-1c-0.5-2.6-0.4-5.2-0.9-7.8
			c-0.4-2.2,0.6-4.1,2.8-5.1c1.2-0.6,2.3-1.2,3.4-2c1.9-1.5,3.1-3.3,2.4-5.9c-0.7-2.8-3-2.3-5-2.5c-2.3-0.6-4.7-0.8-7.1-0.6
			c-2.5,0.3-4.9,0.9-6.8,2.6c-1.5,2.2-1.1,4.4,1.2,6.4c1.6,1.4,3.6,2,5.6,2.4c2.1,0.4,3.1,1.7,3.5,3.8c1,5.3,0.6,10.7,1.6,15.9
			c0.4,2.2-0.7,3.6-3.1,3.6c-1.3,0-2.6,0-3.9,0c-6.9-0.8-13.1-3.4-18.9-7c1.4,0.8,2.8,1.7,4.2,2.5c1.5,0.8,3,1.3,4.5,2
			c1.3,0.7,2.8,1.3,1.6,3.2c-5.1,1.8-10.2,1.5-15.2-0.1C392.4,216.1,391.3,215.4,390.2,215z"/>
		<path fill="#FDD093" d="M312.2,239.9c0-15.3,6.7-25.3,15.8-28.2c3.3-1,6.5-0.3,8,2.6c6.6,12.6,9.8,25.7,3.8,39.6
			c-0.7,1.6-1.6,3.1-2.6,4.5c-2.5,3.3-6.5,4.2-9.9,2C317.9,254.6,312.3,246.5,312.2,239.9z"/>
		<path fill="#FDD093" d="M390.2,215c5.1,0.4,10,1.8,15.2,1.3c1.2-0.1,2.4,0.2,3.4-0.7c1.5-1.4,3.1-0.6,4.6-0.2
			c1.3,0.3,2.6,0.5,3.8,0.8c5.5,1.4,10.6-0.3,15.7-1.9c1.7-0.6,3.2-1.4,4.8-2.1c4-2.2,7.5-5.2,10.8-8.4c-3.7,3.4-7.5,6.6-12,8.9
			c-1.5,0.9-3.3,1.4-4.9,2.1c-1.3,0.4-2.7,0.9-3.9-0.4c-2.3-2.2-1.1-3.6,1.1-4.8c6.1-3.4,10.8-8,13.6-14.5
			c2.2-5.1,2.5-10.3,0.5-15.5c4,0.5,7.6,2.3,11.2,3.9c3,2.1,5.5,4.6,7.1,8c2.2,5.1,1.5,10.2-0.6,15.1c-2.5,6-7.2,10.1-12.5,13.5
			c-6.6,4.1-13.9,6.4-21.8,7.2c-7.7,0.8-14.9-1-22.1-2.8c-1.9-0.7-3.6-1.6-5.1-3C396,219.4,392.6,217.9,390.2,215z"/>
		<path fill="#FDD093" d="M346.4,143.4c3.8-5.1,8.4-9.1,15-10c2.6-0.4,5.3-0.5,7.9,0.1c2.8,1.1,5.7,2,8.2,3.8c1.5,1.1,1.6,1.7,0.3,3
			c-9.4,9-15.3,20-17.8,32.8c-0.4,2.2-1.8,1.7-3.2,1.5c-3.7-0.3-6.1-2.2-7.4-5.5c-2.4-2.7-4.4-5.7-5.2-9.3c-0.8-1.2,0.2-2.7-0.7-3.9
			c-0.7-0.9-0.7-1.9,0-2.8c0.8-1.2-0.2-2.7,0.7-3.9C344.2,146.9,346.3,145.5,346.4,143.4L346.4,143.4z"/>
		<path fill="#F64051" d="M385.1,234.6c-0.1-3.2,1.5-5,4.6-5.9c5.6-1.6,10.8-0.7,15.7,2.3c3.6,2.2,7.1,4.7,10.6,7.1
			c0.3,3.1-1.1,4.4-4.5,3.7c-3-0.6-5.9-1.9-9.1-0.5c3,1,6.2,1.1,9.2,1.9c1,0.2,2.2,0.4,2.3,1.5c0.2,1.4-1.2,1.7-2.2,2
			c-3.5,1-7,1.7-10.3,4.5c3.7-0.9,6.7-2.2,9.9-3.1c2.8-0.8,3.6-0.3,4.4,2.6c-0.4,1.1-1.1,2.1-2,2.9c-4.5,3.9-9.4,7.1-14.9,9.4
			c-2.8,1.1-5.7,1.6-8.5-0.1c-3.3-1.6-5.2-4.1-5.5-7.8c0-2.2,0.7-4.2,1.6-6.2c1.3-2.9,2.1-5.9,0-8.9
			C385,238.4,383.6,236.9,385.1,234.6z"/>
		<path fill="#FDD093" d="M473.9,153.1c-4.7-7.1-9.9-13.7-17.2-18.4c-3.6-3.1-7.9-5-12.1-7c0.5-0.3,1-0.6,1.4-0.9
			c0.9-0.9,1.6-2,2.7-2.7c3.2-2.8,6.7-5,11.1-5.3c7.7-1.2,14.9,4.2,18.1,11.6c2.8,6.5,2.5,13.2-0.7,19.6
			C476.6,151.5,476,153.2,473.9,153.1z"/>
		<path fill="#CC7625" d="M362.4,270.1c-0.6-3.5-0.1-7-0.3-10.5c5.9-2.1,10.7-6.1,16.5-8.7C375.6,259.3,369.6,265.2,362.4,270.1z"/>
		<path fill="#262326" d="M404.7,168.3c1.5,4.8-0.6,9.2-5,10.4c-4.2,1.2-8.8-1.1-9.9-5.2c-1.3-4.6,1-8.6,5.8-9.9
			c0.6,0.6,1.6-0.2,2.1,0.6c0.5,1.6-1.2,2.2-1.6,3.4c-0.5,1.5-0.8,3,0.4,4.3c1,1.2,2.3,1.9,4,1.5c1.7-0.4,2.5-1.6,2.5-3.3
			c0.1-0.7,0.3-1.3,0.8-1.7C404.1,168.1,404.4,168,404.7,168.3z"/>
		<path fill="#252326" d="M435.7,164.9c1.1-1.8,2.5-3,4.6-3.2c1.3,0.5,2.6,0.5,3.9,0c3.9,1.3,6.1,4.1,5.9,7.8
			c-0.2,3.6-2.7,6.6-6.2,7.4c-3.8,0.8-6.9-0.8-8.9-4.7c-0.4-0.7-0.4-1.2,0.5-1.5c0.6,0.1,1,0.4,1.4,0.8c1.8,2.1,3.7,1.5,5.5,0.1
			c1.7-1.4,1.8-3.3,0.6-5c-1.3-1.9-3-2.9-5.2-1c-0.4,0.3-0.9,0.4-1.4,0.3C435.8,165.8,435.4,165.5,435.7,164.9z"/>
		<path fill="#4F1409" d="M404.1,151.2c1.4,1.9,0,3-1.3,3.9c-1.1,0.8-2.5,1.3-3.7,1.1c-3.4-0.7-6.1,0.7-8.8,2.5
			c-1,0.7-2.1,1.5-4.1,1.4c1.6-3.8,4-6.5,7.4-8.4C397,150.4,400.6,150.7,404.1,151.2z"/>
		<path fill="#501409" d="M435.1,153.8c-1.6-0.3-3-1.2-2.9-3c0.1-1.5,1.4-2.1,2.8-2.3c0.5-0.3,0.8,0,1,0.3c2.3,0.8,4.7-0.2,7,0.3
			c3.8,1.4,6.6,3.8,8.8,7.8c-3.1-0.2-5.2-1.7-7.5-2.4c-0.2,0-0.3,0-0.5,0c-1.2,0-2.5,0.1-3.7-0.1
			C438.5,153.6,436.8,153.7,435.1,153.8z"/>
		<path fill="#CD7625" d="M385.1,234.6c0.5,1.8,0.9,3.5,1.4,5.3c-5.2-2.8-9-7.1-12.4-11.7c-2.1-2.8-4.2-5.7-5.1-9.3
			c2.1,1.4,2.7,4,5,5.2C376.5,228.8,380.7,231.8,385.1,234.6z"/>
		<path fill="#3B393C" d="M404,170.1c0.2,2.9-1.8,4.1-4.1,4.6c-2.3,0.5-4.2-0.7-5.1-2.7c-1-2.1-1-4.5,1.1-6.3c0.6-0.5,1.2-1,1.8-1.4
			c0.4-0.9,1.4-0.2,2-0.7c1.1,0,1.9,0.5,2.6,1.3c0.2,0.2,0.3,0.5,0.2,0.8c-0.5,0.8-1.4,1-2.1,1.4c-1,0.5-1.4,1.3-1.1,2.4
			c0.4,1.2,1.3,1.3,2.3,1C402.4,170.2,403.1,169.7,404,170.1z"/>
		<path fill="#E48429" d="M349.6,169c2.6,1.7,4.5,4.3,7.4,5.5c0,0.3,0,0.6-0.1,0.9c-4-0.4-7.4-2.1-10.5-4.6
			C347.4,170.3,348.5,169.6,349.6,169z"/>
		<path fill="#632D20" d="M404.1,151.2c-0.5,0.4-1.2,1.2-1.5,1c-3-1.2-6-0.1-9-0.5C397.6,149.1,401.2,149,404.1,151.2z"/>
		<path fill="#663225" d="M443,149.1c-2.2,1.2-5,0.4-7.2,1.8c-0.5,0.3-1.5,0.4-1.6-0.5c-0.2-1,0.8-1.1,1.5-1.3
			c1.2-1.7,3.1-0.5,4.6-1.1C441.2,148.3,442.2,148.4,443,149.1z"/>
		<path fill="#E58225" d="M354.9,261.6c-2.9,1-5.9,1.9-9,2c-0.6-0.1-1.2-0.1-1.9-0.2C347.8,263.2,351,260.2,354.9,261.6z"/>
		<path fill="#ED7B15" d="M359.4,188c-0.5-2.2-0.6-4.5,0-6.7C360.6,183.6,360.6,185.8,359.4,188z"/>
		<path fill="#D17825" d="M399,221.4c1.7,0.6,3.3,1.3,4.6,2.6c0.4,0.3,0.4,0.5,0,0.8c-0.4-0.2-0.9-0.4-1.3-0.6
			C401.2,223.1,399,223.6,399,221.4z"/>
		<path fill="#3D0605" d="M435.1,153.8c1.8-0.9,3.5-1,5.3,0c-0.2,0.4-0.6,0.6-1,0.6c-0.1,0-0.3,0-0.4,0
			C437.6,154.2,436.3,154.5,435.1,153.8z"/>
		<path fill="#E48429" d="M369.4,133.4c-2.6,0-5.2,0-7.9-0.1C364.1,132.5,366.7,132.4,369.4,133.4z"/>
		<path fill="#EC7C18" d="M310.1,239.3c0-2.3,0-4.6,0-6.8C310.6,234.8,311.5,237.1,310.1,239.3L310.1,239.3z"/>
		<path fill="#443A36" d="M435.6,171c-0.2,0.4-0.4,0.9-0.6,1.3c-1.1-2-1-4.1,0-6.2c0.5,0.2,0.8,0.6,1,1.1c0.5,1.1,0.7,2.3,0,3.5
			C435.9,170.7,435.8,170.9,435.6,171z"/>
		<path fill="#0E1725" d="M399.6,163.6c-0.5,0.6-1.3,0.7-2,0.7c-0.8,0-1.5-0.1-2-0.7C396.9,163,398.3,163.1,399.6,163.6z"/>
		<path fill="#63240F" d="M440.2,148.1c-1.5,0.4-3.1,0.7-4.6,1.1c-0.2-0.2-0.5-0.4-0.7-0.7C436.7,147.4,438.5,147.9,440.2,148.1z"/>
		<path fill="#F2770C" d="M337.3,149.2c0.2,0,0.3,0,0.5,0c-0.2,1.7,0.5,3.5-0.5,5.2C337.3,152.6,337.3,150.9,337.3,149.2z"/>
		<path fill="#F38E2C" d="M444.3,154.4c-1.8,1-3.6,1-5.4,0l0,0C440.7,154,442.5,153.9,444.3,154.4L444.3,154.4z"/>
		<path fill="#4D403A" d="M402.2,165.8c0-0.3,0-0.6,0.1-0.9c1.3,0.8,2.2,1.9,2.5,3.4l-0.3,0l-0.3,0
			C402.4,168.3,402,167.3,402.2,165.8z"/>
		<path fill="#E48429" d="M344.4,149.2c-0.1,1.3,0.2,2.7-0.7,3.9C343.8,151.7,343.3,150.3,344.4,149.2z"/>
		<path fill="#E48429" d="M343.7,155.8c0.8,1.2,0.6,2.5,0.7,3.9C343.3,158.5,343.8,157.1,343.7,155.8z"/>
		<path fill="#0F1826" d="M444.2,161.7c-1.3,0.9-2.6,0.9-3.9,0C441.6,161.3,442.9,161.3,444.2,161.7z"/>
		<path fill="#EC7A15" d="M409.4,124.2c0.1-0.1,0.3-0.2,0.5-0.1c0.6,0.1,1.3,0.2,2.3,0.3C410.9,125,410.1,124.9,409.4,124.2z"/>
		<path fill="#E48429" d="M346.4,143.4c-0.5-0.2-1.1-0.3-1.1-0.9c0-0.2,0.4-0.3,0.6-0.5C346.1,142.4,346.3,142.9,346.4,143.4
			C346.4,143.4,346.4,143.4,346.4,143.4z"/>
		<path fill="#413A38" d="M435,167.5c0-0.5,0-1-0.1-1.5c0.2-0.4,0.5-0.8,0.7-1.2c0.2,0.2,0.5,0.5,0.7,0.7
			C436.7,166.8,436.6,167.7,435,167.5z"/>
		<path fill="#E48329" d="M414.7,322c7.5,1.4,15,0.8,22.5-0.7c2-0.4,2.3-1.8,2.4-3.4c0.9-14.2,7.5-25.4,18.4-34.2
			c3.8-3.1,8.1-5.3,12.7-6.8c1.9-0.6,2.4-1.5,1.9-3.3c-1.2-5.2-3-10.1-6.4-14.2c-0.3-0.1-0.5-0.4-0.6-0.7c0-2.3,0.6-4.7-1.5-6.5
			c-0.7-1-1.2-2.1-1.1-3.4c-0.5-4,1.3-7.8,1.4-11.8c-0.4-2.5,0.8-4.5,2.3-6.3c5.3-6.4,8.4-14,11.4-21.6c0.1-0.3,0.3-0.6,0.5-0.8
			c6.7-5.7,13.7-10.8,22.4-13.3c1.5-0.4,2.9-0.8,4.5-0.7c1.8,0.3,3.6,0,5.3,0c6.9,0.5,12.3,3.9,16.4,9.1c7.9,9.9,9.4,20.9,4.6,32.7
			c-2.4,5.9-6.8,9.8-12.6,12.2c-9.6,4-19.8,5.2-30.1,5.8c-0.7,0-1.3,0.1-2,0.1c-0.9,1-2.3,0.4-3.6,0.9c0.9,2.7,2.6,4.7,4.4,6.7
			c0.1,0.3,0.2,0.6,0.2,0.9c-0.4,1.4-0.2,2.9,0.1,4.3c0,1,0.2,2-0.6,2.9c-0.1,0.6-0.1,1.3-0.3,1.9c-0.6,2.2,0.1,3,2.4,3.4
			c5.9,1,11.3,3.4,15.6,7.8c2.7,8.5,2.2,17.1,1.3,25.7c-0.3,0.1-0.7,0.1-0.9-0.2c-1.1-1.1-1.2-2.6-1.6-3.9
			c-3-10.2-11.9-16.6-22.3-17.2c-13.7-0.7-27.5,9.5-32.3,24.2c-0.4,1.3-0.6,2.8-2,3.6c-1.2-0.1-0.8,1.2-1.5,1.6
			c-0.2,2.4,0.1,4.9-0.2,7.3c0.3-2.5-0.2-5.1,0.3-7.6c0.2-0.3,0.5-0.4,0.9-0.2c1.4,1.3,1.3,3,1.2,4.6c-0.3,5.5,1.2,10.6,4,15.3
			c0.7,1.2,1.7,2.4,0.6,3.9c-4.4,0-7.1-3.3-10.5-5.3c-1.5-2-0.8-5.6-3-6.4c-2.1-0.7-4.8,0.6-7.3,0.9c-4.7,0.6-9.3,0.3-14,0.2
			c-0.4,0.4-0.8,0.4-1.1-0.1c-0.7-0.2-1.4-0.5-2.1-0.7c-2-2.1-1.3-4.6-0.8-7C414.1,321.8,414.4,321.8,414.7,322z"/>
		<path fill="#CC7525" d="M478.5,208.4c-1.5,8.2-4.8,15.5-10,22.1c-1.4,1.8-3.5,3.4-3.2,6.1c-0.3,0.2-0.7,0.2-1,0
			c-1.3-2-1.6-4.2-1-6.6c1-3,3.8-4.3,5.6-6.6c3.6-4.7,6.4-9.8,8.9-15.1C478,208.3,478.3,208.3,478.5,208.4z"/>
		<path fill="#CC7727" d="M487.5,262.2c-3.5-1.4-4.4-4.8-5.9-7.8c-0.5-1,0.2-1.4,1.1-1.2c1.5,0.3,2.9,0.7,4.4,1.1
			c0.2,1.7,0.4,3.5,0.6,5.2C488.3,260.5,488.5,261.4,487.5,262.2z"/>
		<path fill="#8BE6FD" d="M488.3,259.6c0-0.2,0-0.4,0.1-0.6c0.1-0.3,0.5-0.5,0.5-0.1c0.1,3.9,0,7.7,0,11.6c0,0.1-0.2,0.1-0.2,0.2
			c-0.1-0.2-0.2-0.3-0.4-0.5C487.5,266.6,487.5,263.1,488.3,259.6z"/>
		<path fill="#9ECECD" d="M488.3,259.6c0,3.5,0,7,0,10.5c-0.2,0-0.4,0-0.6,0c0-1.1-0.1-2.2-0.1-3.3c-0.3-1.3-0.4-2.6,0-3.9
			c0-0.2,0-0.5,0-0.7c0.1-0.9,0.1-1.8,0.2-2.6C487.9,259.6,488.1,259.6,488.3,259.6z"/>
		<path fill="#EE7912" d="M510.7,194.4c-1.8,1.1-3.6,1.1-5.3,0C507.1,193.9,508.9,193.9,510.7,194.4z"/>
		<path fill="#EA7D1C" d="M483.2,155.2c0.1-2,1.2-3.1,3.2-3.3C485.6,153.3,484.5,154.3,483.2,155.2z"/>
		<path fill="#CC7625" d="M414,322.2c1.5,2.2,0.2,4.6,0.7,6.9c-2-0.4-3.9-0.7-5.9-1.1c0.2-2.3,0.5-4.5,0.7-6.8
			C411.2,320.5,412.8,320.4,414,322.2z"/>
		<path fill="#6DC5E4" d="M416.8,329.8c0.4,0,0.8,0.1,1.1,0.1c-0.4,0.2-0.7,0.5-1.1,0.6c-0.4,0.1-1,0.4-1.2-0.3
			C416,330,416.4,329.9,416.8,329.8z"/>
		<path fill="#FDD093" d="M452.8,340.4c-5-7.1-6.9-15-6-23.7c-0.4-0.4-0.4-0.8,0.1-1.1c1.8-6.6,4.6-12.7,9.1-17.9
			c8.3-9.6,22.8-14.1,33.9-9.8c9.5,3.6,15,10.6,16.1,20.8c0.3,3.2-0.6,6.3-2.1,9c-8.4,15.3-20.8,24.9-38.7,26.6
			c-3.5,0.3-6.7-0.6-9.8-1.9C454.6,341.7,453.7,341.1,452.8,340.4z"/>
		<path fill="#ECC289" d="M455.5,342.4c5.6,0.4,11.2,0.9,16.9-0.5c12.6-3.1,21.7-10.8,28.6-21.5c2.3-3.6,3.9-7.5,5.2-11.6
			c0.2,0.1,0.3,0.2,0.5,0.3c1,15.3-5.1,27.1-17.9,35.3C477.8,351.2,464,350.3,455.5,342.4z"/>
		<path fill="#ECC289" d="M359.4,343.7c1.7-1,3.6-0.8,5.4-0.7c12.6,0.8,25.4-9.3,29.5-20.9c2.1-5.9,2.7-11.9,2.6-18
			c8.6,13.5,6.5,33.1-7.8,41.2C379,351.1,369,349.8,359.4,343.7z"/>
		<path fill="#E3BA84" d="M414,322.2c-1.5-0.6-3.2,0.2-4.5-1c-0.2-11.2-4-21.2-10.7-30c8.2,6.7,13,15.4,15.2,25.7
			c0.4,1.7,0.5,3.5,0.7,5.2C414.5,322.1,414.2,322.1,414,322.2z"/>
		<path fill="#E79A4B" d="M448.8,124.2c-0.7,1.1-1.5,2.1-2.7,2.7c0.5-1.2,1-2.4,2.1-3.3C448.4,123.7,448.6,124,448.8,124.2z"/>
		<path fill="#EEC38A" d="M473.9,153.1c6.6-9.8,6.4-19.2-1.1-27.9c-3.2-3.7-7.5-6.4-12.9-6.2c10.4-2.9,23.1,6.4,24.4,17.8
			c0.7,6.7-1.1,12.6-5.6,17.6c-0.9,1-1.8,2.3-3.5,2C474.8,155.2,474.4,154.1,473.9,153.1z"/>
		<path fill="#84D8EE" d="M294.5,411.8c-0.2,1.1,0.5,3.3-1.8,4.5c-3.2,1.6-5.8,0.4-6.5-3.1c-0.3-1.6-0.1-3.2,0.1-4.9
			c0.4-3,2.3-3.7,4.9-3.5c2.6,0.2,3.2,1.8,3.3,4C294.5,409.5,294.5,410.3,294.5,411.8z"/>
		<path fill="#85D9EE" d="M290.2,423.3c-0.9-0.3-2.7,0.5-2.7-1c0.1-1.8,2-1.2,3.2-1.2c1,0,2.7-0.6,2.7,0.8
			C293.3,423.8,291.3,423,290.2,423.3z"/>
		<path fill="#84D8EE" d="M349.7,411.4c-0.2,1.2,0.6,3.2-1.3,4.5c-2.9,2-6.2,0.7-6.9-2.7c-0.4-1.6-0.2-3.2,0-4.9
			c0.4-2.9,2-3.8,4.8-3.7c2.8,0.1,3.4,1.9,3.4,4.2C349.7,409.5,349.7,410.2,349.7,411.4z"/>
		<path fill="#85D9EE" d="M345.6,423.4c-1-0.4-2.9,0.6-2.9-1.1c0-1.5,1.9-1.1,3-1.1c1,0.1,2.9-0.7,2.9,1
			C348.5,423.6,346.7,423,345.6,423.4z"/>
		<path fill="#84D8EE" d="M460.1,50c0.2,2,0.3,4.1-3.1,4c-2.3-0.1-3.2-0.7-3.1-3c0.2-2.4,0.2-4.8,0.4-7.2c0.1-0.9,0.4-1.8,1.4-2.1
			c1.1-0.3,1.9,0.4,2.5,1.2C459.8,44.9,460.2,47.3,460.1,50z"/>
		<path fill="#84D8EE" d="M595.5,412.9c0.3,2.3-0.1,4-3.3,3.9c-2.1-0.1-3-0.7-2.9-2.9c0.2-2.5,0.2-5,0.4-7.5c0.1-0.8,0.5-1.8,1.5-2
			c1-0.2,1.6,0.4,2.2,1.1C595.2,407.7,595.6,410.1,595.5,412.9z"/>
		<path fill="#85D9EE" d="M603.8,410.8c0-1-0.1-2,0-2.9c0.1-1.1-0.5-2.6,1.2-3c1.5-0.4,3-0.1,4.1,1.3c2.2,2.7,1.3,8.1-1.8,9.8
			c-2.3,1.3-3.3,0.8-3.4-1.9C603.9,413,603.9,411.9,603.8,410.8C603.9,410.8,603.8,410.8,603.8,410.8z"/>
		<path fill="#85D9EE" d="M743.2,411.1c0.1-1.4-0.1-3.1,0.5-4.8c0.7-2.3,2.2-2.6,3.7-0.7c2.2,2.8,2.8,6.2,2.1,9.6
			c-0.5,2.4-2.8,1.4-4.4,1.6c-1.6,0.2-2-0.9-1.9-2.3C743.3,413.5,743.2,412.5,743.2,411.1z"/>
		<path fill="#84D8EE" d="M379.8,414c0.1-2.1-0.1-4.2,0.5-6.2c0.4-1.5,0.9-3,2.9-3c1.9,0,3.6,0.7,4.1,2.6c1.3,5,0.4,9.7-1.7,14.3
			c-0.5,1-1.5,1.6-2.7,1.4c-1.3-0.2-2.1-1-2.4-2.3C379.6,418.6,379.9,416.3,379.8,414z"/>
		<path fill="#84D8EE" d="M302.7,414.1c0.1-2.3,0.1-4.3,0.4-6.3c0.2-1.5,0.8-3,2.8-3.1c1.8-0.1,3.4,0.5,4,2.2
			c1.8,5.2,0.5,10.1-1.6,14.9c-0.5,1-1.6,1.5-2.8,1.2c-1.3-0.3-2.2-1.2-2.3-2.5C302.9,418.4,302.9,416.1,302.7,414.1z"/>
		<path fill="#84D8EE" d="M681.4,414.2c0.1-2.2-0.1-4.4,0.5-6.5c0.4-1.4,0.8-2.8,2.7-2.9c1.9-0.1,3.7,0.5,4.2,2.4
			c1.4,5.1,0.5,9.9-1.8,14.6c-0.5,1-1.6,1.5-2.8,1.3c-1.2-0.2-1.9-0.9-2.2-2.1C681.3,418.8,681.5,416.4,681.4,414.2z"/>
		<path fill="#84D8EE" d="M328.4,51.5c0.1-2.3,0.1-4.3,0.3-6.2c0.2-1.7,0.8-3.3,3-3.3c2,0,3.5,0.7,4.1,2.6c1.5,5,0.3,9.7-1.7,14.3
			c-0.5,1.2-1.7,1.7-3.1,1.3c-1.3-0.3-2.1-1.3-2.2-2.6C328.6,55.6,328.5,53.4,328.4,51.5z"/>
		<path fill="#84D8EE" d="M543.5,414.1c0.2-2.1,0.4-4.1,0.7-6.2c0.2-1.6,0.8-3,2.7-3.2c2-0.2,3.6,0.6,4.2,2.5
			c1.4,4.9,0.5,9.7-1.6,14.3c-0.5,1.2-1.7,1.8-3,1.5c-1.5-0.3-2.2-1.3-2.3-2.8C544,418.3,543.3,416.3,543.5,414.1z"/>
		<path fill="#84D8EE" d="M444.3,410.7c0-1-0.1-2,0-2.9c0.1-1.1-0.5-2.6,1.2-2.9c1.5-0.3,3-0.1,4.2,1.2c2.2,2.6,1.3,8.2-1.6,9.9
			c-2.4,1.4-3.6,0.8-3.7-1.9C444.3,412.9,444.3,411.8,444.3,410.7C444.3,410.7,444.3,410.7,444.3,410.7z"/>
		<path fill="#85D9EE" d="M719.7,409.5c0,2.2-0.1,3.7-1.1,5c-1,1.3-2.2,2.3-3.8,2.1c-2-0.2-1.1-2.1-1.3-3.2
			c-0.3-1.7-0.4-3.5-0.3-5.2c0-1.3-0.7-3.1,1.4-3.4c2.1-0.3,3.9,0.3,4.8,2.5C719.7,408.1,719.7,409.2,719.7,409.5z"/>
		<path fill="#84D8EE" d="M350.3,53.9c0,1.1,0,2.2,0,3.3c-0.1,2.8-1.6,3.6-4,2.2c-2.5-1.5-2.9-3.9-2.5-6.5c0.4-2.5,1.6-4.5,4.2-5.2
			c1.6-0.5,2.2,0.2,2.2,1.8C350.2,50.8,350.3,52.3,350.3,53.9C350.3,53.9,350.3,53.9,350.3,53.9z"/>
		<path fill="#84D8EE" d="M581.7,416.4c0,1.2,0,2.4,0,3.6c-0.1,2.6-1.5,3.4-3.8,2.2c-2.6-1.4-3.1-3.8-2.7-6.4
			c0.3-2.7,1.6-4.7,4.4-5.5c1.3-0.4,2.1,0.1,2.1,1.6C581.6,413.4,581.6,414.9,581.7,416.4C581.6,416.4,581.6,416.4,581.7,416.4z"/>
		<path fill="#87D9EE" d="M361.8,55.9c1.2,0.4,3.3,0.1,2.9,2.1c-0.4,1.9-2.4,1.8-4,1.9c-1.3,0-2.5-0.5-2.4-2
			C358.5,55.8,360.2,56,361.8,55.9z"/>
		<path fill="#87D9EE" d="M155.7,422.7c-1.7,0-3.1-0.1-3.2-1.9c-0.1-2,1.4-2.3,2.9-2.2c1.4,0.1,3.5-0.2,3.5,1.9
			C158.9,422.6,156.8,422.3,155.7,422.7z"/>
		<path fill="#87D9EE" d="M432.9,422.7c-1.5,0-2.9-0.1-3-1.9c-0.1-2,1.4-2.2,2.9-2.1c1.4,0.1,3.5-0.2,3.5,1.9
			C436.2,422.5,434.1,422.4,432.9,422.7z"/>
		<path fill="#89DAEF" d="M495.5,59.9c-1.8,0.1-3.1-0.4-3-2.1c0.1-1.9,1.7-2.1,3.2-1.9c1.4,0.1,3.4,0.1,3.3,1.8
			C499,59.8,496.8,59.7,495.5,59.9z"/>
		<path fill="#85D8EE" d="M484.5,53.5c0,1,0.1,2,0,2.9c-0.1,1.2,0.7,2.9-1.2,3.3c-1.5,0.4-2.8-0.2-3.9-1.3
			c-2.6-2.6-1.7-8.5,1.5-10.4c2.3-1.3,3.3-0.8,3.5,1.8C484.4,51.1,484.4,52.3,484.5,53.5C484.4,53.5,484.4,53.5,484.5,53.5z"/>
		<path fill="#87D9EE" d="M227.2,422.7c-1.3,0-2.5-0.2-2.5-1.8c-0.1-2,1.3-2.3,2.9-2.2c1.4,0.1,3.3-0.2,3.6,1.9
			C231.3,421.6,229.2,422.7,227.2,422.7z"/>
		<path fill="#F64051" d="M463.3,230c1.8,1.9,1.4,4.3,1.3,6.6c0.2,1.2,0,2.3-0.4,3.5c-1.1,3-1.2,6.1-0.3,9.1
			c0.4,0.8,0.8,1.7,1.2,2.5c1.3,1.9,0.8,4,0.4,6c-2.8,5.8-6.8,7.3-12.7,4.9c-0.9-0.4-1.9-0.5-2.6-1.2c-4.5-2.6-8.9-5.3-13-8.5
			c-1.3-0.3-2.6-0.1-3.9,0.1c-1.4,0.3-2.7,0.8-4.1,1.1c-5.3,1-9.2-1.1-12.1-5.3c-2.7-3.9-2.4-7.4,0.9-12.1c5-3.5,9.3-3.5,14.2,0.1
			c1.6,1.2,2.6,1.1,4,0c3.3-2.5,6.8-4.8,10.5-6.7C452.2,227.2,457.7,227.3,463.3,230z"/>
		<path fill="#D83C48" d="M418,236.6c-1.8,4.3-2.3,8.6,1.1,12.5c3.3,3.8,8,4.9,12.7,3.2c0.7-0.2,1.2-1.1,2.1-0.6
			c-0.4,2.9-2.8,4.7-6.4,5c-2.6,0.2-5.1-0.3-7.4-1.7c-1.1-0.8-2.2-1.6-3.4-2.5c-0.8-0.4-1.6-0.8-1.3-1.9c-0.6-2-1.6-2.1-3.5-1.4
			c-3.7,1.4-7.5,2.5-11.2,3.7c-0.6,0.2-1.4,0.4-1.8-0.2c-0.5-0.8,0.3-1.4,0.8-1.9c2.9-2.4,6.2-4.1,9.9-4.8c1.2-0.2,2.3-0.6,4.1-1
			c-5.4-1.2-10.3-1.5-15.7-3.3c4.7-2.7,8.9-2.8,13.1-1.2c2.7,1.1,4.2,0.4,4.9-2.3C416.6,237.6,417.3,237.1,418,236.6z"/>
		<path fill="#E3BA85" d="M415.3,250.5c0.4,0.6,0.9,1.3,1.3,1.9c-5.4,5.5-11.6,9.8-19.1,12.1c-2.6,0.8-5.2,0.6-7.1-1.7
			c9.3,0.6,15.7-5.1,22.4-10.1C413.7,252,414.5,251.2,415.3,250.5z"/>
		<path fill="#E4BB85" d="M420,254.9c5.2,1.4,10,1.4,13.8-3.2c1.8-1.4,2.5,0.3,3.4,1.2c-3.1,2.4-6.1,4.9-10.5,4.8
			C424.1,257.5,421.8,256.9,420,254.9z"/>
		<path fill="#E4BA85" d="M450.2,261.4c1.1,0.3,2.3,0.7,3.4,1c5.2,1.4,8.4,0,11-4.8c1.1-0.2,1.4,0.4,1.4,1.3c0,0.2,0,0.4,0,0.6
			C461,265.4,455.8,266,450.2,261.4z"/>
		<path fill="#C06F23" d="M403.5,224.7c0-0.3,0-0.5,0-0.8c4.7,0.4,9.1,2.2,13.8,2.4c14.2,0.7,26.8-3.3,37.1-13.3
			c6.1-6,8-13.4,6.7-21.7c2.1,0.5,1.9,2.2,2.1,3.7c1.1,9.9-3.1,17.6-10.7,23.3c-7.6,5.7-16.2,9.1-26,9.8
			C418.5,228.7,411,227.2,403.5,224.7z"/>
		<path fill="#4E1309" d="M433.9,215c-5.3,2.4-10.9,3.2-16.7,2.1c0-0.1,0.1-0.3,0.1-0.4c1.1-1.2,2.4-0.5,3.5-0.7
			c-1.3-0.3-2.8,0.6-4.2-0.2c-0.2-0.3-0.2-0.6,0-0.9c6.5,0.1,6.5,0.1,5.9-6.4c-0.4-3.9-0.9-7.8-1.1-11.7c-0.1-1.9-0.6-2.7-2.6-2.8
			c-2.7-0.2-5.1-1.4-6.9-3.3c-2.5-2.6-2.5-5.5,0-7.9c0.5-0.3,0.9,0,1.2,0.4c1.6,5.5,4,7.4,8.9,6.9c5.6-0.6,7.3-3.9,4.3-8.8
			c0.1-0.1,0.1-0.3,0.2-0.4c2.8-0.3,5.1,0.6,6.2,3.2c1,2.5-0.2,4.7-2,6.5c-1.1,1.2-2.5,2.3-4.1,2.6c-3,0.6-3,2.4-2.7,4.7
			c0.4,2.6,0.4,5.2,0.6,7.8c-0.7,0.7-0.3,1.6-0.4,2.4c0.1-0.8-0.2-1.7,0.4-2.4c0.2,0.9,0.4,1.8,0.6,2.7c0.7,1.3-0.1,2.8,0.5,4.2
			c-0.4,1.8,0.2,2.5,2,1.7c1.3-0.2,2.6-0.5,3.9-0.7C432.6,213.7,433.6,213.8,433.9,215z"/>
		<path fill="#4D130A" d="M416.7,214.9c0,0.2,0,0.5,0,0.7c0.4,0.2,0.8,0.6,0.7,1.1c-0.1,0.1-0.1,0.2-0.2,0.4c-2.9,0.2-5.6-1-8.4-1.5
			c-4.1-1.8-8.2-3.5-11.9-6c-0.9-0.6-2.7-1.1-1.9-2.5c0.9-1.6,2.1-0.3,3,0.3C403.8,211,410,213.4,416.7,214.9z"/>
		<path fill="#5F281D" d="M412.8,183.4c-0.3-0.2-0.6-0.5-0.8-0.7c1.9-1.8,4.3-2.1,6.7-2.5c0.2,0.3,0.3,0.5,0.3,0.9
			c-0.4,1.3-1.5,1.7-2.6,2C415.1,182.8,414,184.1,412.8,183.4z"/>
		<path fill="#572219" d="M418.6,180.7c0-0.2,0-0.4,0-0.6c2.7-0.2,5.4-1.1,7.9,0.5l0,0.1c-1.4,1.9-3.5,0.6-5.2,1.2
			C420.2,182,419.3,181.7,418.6,180.7z"/>
		<path fill="#F1D59D" d="M425.8,212.5c-0.6-1.3-0.6-2.8-0.5-4.2C426.2,209.6,425.8,211.1,425.8,212.5z"/>
		<path fill="#4F140A" d="M436.2,211.5c4.3-2.7,8.3-5.5,11.8-9.3c0.7-0.8,1.6-2,2.7-1c1.2,1-0.1,2-0.8,2.7
			c-3.4,3.5-7.1,6.8-11.6,8.9C437.5,212.6,436.4,212.8,436.2,211.5z"/>
		<path fill="#4A1008" d="M436.2,211.5c0.7,0.4,1.4,0.9,2.1,1.3c-1.4,0.9-2.8,1.8-4.5,2.1c-1-0.1-1.7-0.6-2.1-1.5
			C433.2,212.8,434.7,212.2,436.2,211.5z"/>
		<path fill="#767477" d="M402.2,165.8c0.7,0.8,1.3,1.6,2,2.4c0,0.6-0.1,1.2-0.1,1.8c-1.3,1.4-2.6,2.7-4.7,1.8
			c-1.5-0.6-2-1.9-1.8-3.5C398,165.8,399.9,165.4,402.2,165.8z"/>
		<path fill="#3B393C" d="M437.1,165.1c1.4-2.3,3.4-1.6,5.2-0.7c2.5,1.1,3,3.3,2.6,5.8c-0.5,2.5-2.3,3.6-4.6,4
			c-2.4,0.3-4-0.7-4.6-3.1c0,0,0.2-0.2,0.2-0.2C441.3,169.1,441.3,169,437.1,165.1z"/>
		<path fill="#767476" d="M437.1,165.1c1.9-0.2,3.4,0.4,4.3,2.2c0.6,1.3,0.4,2.6-0.8,3.5c-1.6,1.3-3.2,0.9-4.8,0
			c-0.3-1.1-0.5-2.1-0.8-3.2c0.4-0.6,0.9-1.3,1.3-1.9C436.6,165.4,436.9,165.3,437.1,165.1z"/>
		<path fill="#E48329" d="M444.3,154.4c-1.8,0-3.6,0-5.3,0c0.5-0.2,0.9-0.4,1.4-0.6C441.6,154,443.1,153.4,444.3,154.4z"/>
		<path fill="#FDD093" d="M498.9,207.9c-0.9-11.2,4.9-12.8,13.4-10.8c15,3.6,23.2,20.3,17.6,35.7c-0.8,2.3-1.9,4.4-3.1,6.5
			c-3.3,5.3-8,6.2-13,2.5c-8.5-6.3-12.5-15.2-14.1-25.4C499.1,213.5,498.6,210.6,498.9,207.9z"/>
		<path fill="#CD7724" d="M464,249.2c-2.7-4.4-1.2-8.5,0.7-12.6c0.2,0,0.4,0,0.7,0C465.5,240.8,463.3,244.9,464,249.2z"/>
		<path fill="#CE7825" d="M466.1,258.9c-0.5-0.4-0.9-0.9-1.4-1.3c0.6-1.9,0.7-3.9,0.5-5.9C467.3,253.9,466.8,256.3,466.1,258.9z"/>
		<path fill="#E37F23" d="M446.2,316.8c0,2.9,0,5.8,0,8.7C445.8,322.6,444.9,319.6,446.2,316.8L446.2,316.8z"/>
		<path fill="#ED7A12" d="M487.5,262.9c0,1.3,0,2.6,0,3.9C486.7,265.5,486.7,264.2,487.5,262.9z"/>
		<path fill="#E37F23" d="M447,315.6c0,0.4-0.1,0.8-0.1,1.1c-0.2,0-0.4,0-0.6,0v0c0-0.4-0.1-0.8,0-1.2c0.1-0.4-0.4-1.1,0.4-1
			C446.8,314.5,446.9,315.2,447,315.6z"/>
		<path fill="#D83C48" d="M438.6,245.5c4.3,0.7,8.5,2,11.8,5.4c0.4,0.5,1.1,1,0.5,1.6c-0.2,0.3-1,0.4-1.5,0.2
			c-3.8-1.1-7.5-2.3-11.2-3.5c-1.3-0.4-2-1.4-1.7-2.8C436.6,245.3,437.4,245.2,438.6,245.5z"/>
		<path fill="#D83C48" d="M451.4,241.2c-2.9,2-6,1.9-8.8,2.6c-1.3,0.3-2.6,0.3-3.9,0.5c-1,0.2-1.9,0.2-2.4-1
			c-0.5-1.2,0.1-1.8,1.1-2.3C442,238.9,446.5,238.5,451.4,241.2z"/>
		<path fill="#663429" d="M421.1,180.8c1.8,0,3.6,0,5.4,0c1.5,1,3.5,1.5,3.3,3.9c-0.2,2.6-1.5,4.3-3.7,5.4c-5,2.6-11.5,1-13.4-3.3
			c-0.5-1.2-0.7-2.3,0-3.4c1-0.7,1.9-1.5,3.3-1.3c1,1.1,2,2.2,3.8,1.7C421.5,183.2,420.8,181.8,421.1,180.8z"/>
		<path fill="#410500" d="M417.4,216.7c-0.2-0.4-0.5-0.7-0.7-1.1c1.8,0,3.7,0,5.5,0c0,0.1,0,0.3,0,0.4
			C420.6,216.2,419,216.4,417.4,216.7z"/>
		<path fill="#3C0100" d="M424.6,205.6c-0.1,1.2-0.2,2.5-0.2,3.7C423.8,208,423.6,206.8,424.6,205.6L424.6,205.6z"/>
		<path fill="#B29994" d="M421.1,180.8c1,0.7,2.8,1.2,1.6,2.8c-1.2,1.7-3.3,2-5.3,1.5c-1.7-0.4-2.3-1.4-1.5-3.1
			c0.9-0.4,1.7-0.9,2.6-1.3C419.5,180.7,420.3,180.8,421.1,180.8z"/>
		<path fill="#FFFFFF" d="M79.5,401.8c0.1-0.1,0.2-0.2,0.3-0.3c0.2-0.1,0.4-0.2,0.6-0.3c0.2,0,0.4,0,0.6,0c0.2,0.1,0.3,0.3,0.4,0.5
			c0,0.2,0,0.6,0,1.3c0,0.7-0.1,1.6-0.1,2.6c0,1.1-0.1,2.2-0.2,3.5c-0.1,1.3-0.2,2.6-0.2,4s-0.1,2.7-0.2,3.9
			c-0.1,1.3-0.1,2.5-0.1,3.5c0,1,0,1.9,0,2.5c0,0.7,0.1,1,0.2,1.1c0.1,0.1,0.3,0.2,0.7,0.2c0.4,0,0.8,0,1.3-0.1c0.5,0,1-0.1,1.6-0.2
			c0.6-0.1,1.1-0.1,1.5-0.2s0.9,0,1.2,0s0.5,0.1,0.5,0.3c0.1,0.5,0.1,0.8,0.1,1.1c0,0.3-0.1,0.4-0.4,0.4c-0.1,0-0.4,0-0.8,0.1
			c-0.4,0.1-0.9,0.1-1.5,0.2c-0.6,0.1-1.2,0.2-1.9,0.2c-0.7,0.1-1.3,0.1-1.9,0.2c-0.6,0-1.1,0.1-1.5,0.1c-0.4,0-0.6,0-0.7-0.2
			c-0.1-0.1-0.1-0.5-0.1-1.2c0-0.7,0-1.7,0-2.8s0-2.5,0-3.9c0-1.5,0-2.9,0.1-4.5s0.1-3,0.1-4.5c0-1.4,0.1-2.7,0.1-3.9
			c0-1.1,0.1-2.1,0.1-2.8C79.4,402.2,79.5,401.8,79.5,401.8z"/>
		<path fill="#FFFFFF" d="M89.2,418.4c0-0.6,0-1.5,0-2.5c0-1,0-2.1,0-3.3c0-1.2,0.1-2.3,0.1-3.5c0.1-1.2,0.1-2.3,0.3-3.4
			c0.1-1,0.3-2,0.4-2.7c0.2-0.8,0.4-1.3,0.7-1.6c0.6-0.6,1.3-1,2-1c0.7,0,1.5,0.1,2.2,0.5c0.7,0.4,1.4,0.9,2,1.5
			c0.6,0.6,1.1,1.2,1.5,1.8c0.7,1.1,1.2,2.4,1.5,3.8c0.3,1.4,0.5,2.8,0.6,4.2c0.1,1.4,0,2.6-0.1,3.7c-0.1,1.1-0.4,1.9-0.6,2.3
			c-0.2,0.3-0.5,0.6-1,0.7c-0.5,0.2-1,0.3-1.6,0.3c-0.6,0.1-1.2,0.1-1.9,0.1s-1.3,0-1.8,0s-1,0-1.4,0c-0.4,0-0.6,0.1-0.7,0.2
			c-0.1,0.2-0.2,0.5-0.2,0.9c0,0.4,0.1,0.9,0.3,1.4c0.2,0.5,0.5,1,0.9,1.4c0.4,0.5,0.9,0.8,1.6,0.9c0.5,0.1,1,0.2,1.5,0.2
			c0.5,0,1-0.1,1.5-0.2c0.5-0.1,0.9-0.3,1.2-0.5c0.3-0.2,0.6-0.4,0.7-0.7c0.1-0.3,0.3-0.4,0.5-0.3c0.3,0.1,0.5,0.2,0.7,0.4
			c0.2,0.2,0.4,0.4,0.5,0.7c0.1,0.3,0,0.5-0.2,0.7c-0.3,0.2-0.6,0.5-1,0.8c-0.4,0.3-1,0.6-1.6,0.8c-0.6,0.2-1.3,0.4-2.1,0.5
			c-0.8,0.1-1.6,0-2.5-0.2c-0.9-0.3-1.7-0.6-2.2-1.2c-0.5-0.5-0.9-1.1-1.2-1.8c-0.3-0.7-0.4-1.5-0.5-2.4
			C89.2,420.3,89.2,419.4,89.2,418.4z M92.2,403.1c-0.3,0.3-0.5,0.8-0.6,1.6c-0.2,0.8-0.3,1.7-0.4,2.8c-0.1,1-0.2,2.1-0.2,3.3
			c-0.1,1.1-0.1,2.2-0.1,3.2c0,1,0,1.8,0.1,2.4c0.1,0.6,0.1,1,0.3,1c0.1,0,0.3,0,0.7,0.1c0.4,0,0.8,0,1.4,0c0.5,0,1.1,0,1.7-0.1
			s1.1-0.1,1.6-0.1c0.5-0.1,0.9-0.1,1.3-0.2s0.5-0.2,0.5-0.3c0.4-2.4,0.4-4.5,0.1-6.4c-0.3-1.9-0.7-3.5-1.4-4.7
			c-0.4-0.7-0.8-1.3-1.2-1.8c-0.4-0.5-0.9-0.8-1.3-1c-0.5-0.2-0.9-0.3-1.3-0.3C92.8,402.5,92.5,402.7,92.2,403.1z M94.5,394
			c0.2-0.3,0.5-0.5,0.8-0.5c0.3,0,0.5,0.1,0.7,0.3c0.2,0.2,0.3,0.4,0.4,0.7c0.1,0.3,0,0.5-0.2,0.8l-3,3.7c-0.2,0.3-0.3,0.4-0.6,0.4
			c-0.2,0-0.4,0-0.6-0.1c-0.2-0.1-0.3-0.3-0.4-0.5c-0.1-0.2,0-0.5,0.2-0.8c0.5-0.7,1-1.4,1.4-2C93.6,395.3,94.1,394.6,94.5,394z"/>
		<path fill="#FFFFFF" d="M105.3,403.1c-0.4,0-0.6-0.1-0.8-0.3c-0.2-0.2-0.3-0.4-0.3-0.6c0-0.2,0.1-0.5,0.3-0.7
			c0.2-0.2,0.5-0.4,0.8-0.4c0.3,0,0.9-0.1,1.6-0.1c0.7,0,1.5,0,2.3,0c0.8,0,1.5,0.1,2.2,0.3c0.7,0.2,1.1,0.4,1.3,0.8
			c0.3,0.6,0.6,1.5,0.8,2.8c0.2,1.3,0.4,2.7,0.5,4.3c0.1,1.6,0.2,3.3,0.2,5c0,1.8,0,3.4,0,5c0,1.6-0.1,3-0.1,4.3c0,1.3,0,2.2,0,2.8
			c0,0.2-0.1,0.4-0.3,0.5c-0.2,0.1-0.5,0.1-0.7,0.1c-0.2,0-0.5-0.1-0.7-0.2c-0.2-0.1-0.3-0.2-0.3-0.4c0.1-0.3,0.1-0.6,0.1-0.8
			c0-0.2-0.1-0.3-0.3-0.5c-0.1,0-0.4,0.1-0.9,0.3c-0.5,0.2-1.1,0.4-1.9,0.6c-0.7,0.2-1.5,0.4-2.3,0.5c-0.8,0.1-1.6,0.1-2.3-0.2
			c-0.7-0.2-1.3-0.7-1.7-1.4c-0.5-0.7-0.7-1.8-0.6-3.2c0-1,0.3-1.8,0.8-2.4s1.1-1,1.7-1.3c0.7-0.3,1.4-0.4,2.2-0.4
			c0.8,0,1.6,0,2.3,0.1c0.7,0.1,1.3,0.1,1.9,0.2s0.8,0.1,0.9,0.1c0.1,0,0.2-0.4,0.2-1c0.1-0.7,0.1-1.5,0.1-2.4c0-1,0-2-0.1-3.2
			c-0.1-1.1-0.1-2.2-0.2-3.3s-0.2-1.9-0.3-2.7c-0.1-0.8-0.3-1.3-0.5-1.5c-0.3-0.3-0.6-0.6-1.2-0.7c-0.5-0.1-1.1-0.2-1.7-0.2
			c-0.6,0-1.2,0-1.8,0.1C106.2,403.1,105.7,403.1,105.3,403.1z M112.1,420.1c-0.1-0.1-0.4-0.1-0.8-0.2c-0.4-0.1-0.9-0.2-1.5-0.3
			c-0.6-0.1-1.2-0.1-1.8-0.2c-0.6,0-1.2,0-1.7,0.1c-0.5,0.1-1,0.3-1.3,0.6c-0.3,0.3-0.5,0.7-0.5,1.3c0,0.9,0.2,1.6,0.6,2.1
			c0.4,0.5,0.8,0.7,1.4,0.9c0.6,0.1,1.2,0.1,1.8,0c0.7-0.1,1.3-0.3,1.9-0.5c0.6-0.2,1.1-0.4,1.5-0.7c0.4-0.2,0.6-0.4,0.7-0.5
			c0.1-0.2,0.1-0.4,0.2-0.6c0.1-0.2,0.1-0.5,0-0.8c0-0.3-0.1-0.5-0.1-0.7C112.3,420.3,112.2,420.2,112.1,420.1z"/>
		<path fill="#FFFFFF" d="M479.1,402.3c0-0.3,0.1-0.5,0.3-0.6s0.4-0.1,0.6-0.1c0.2,0,0.4,0.1,0.6,0.2c0.2,0.1,0.3,0.3,0.3,0.5
			c0,0.1,0,0.4,0,0.8c0,0.4,0,0.8,0,1.3c0,0.5,0,1,0,1.6c0,0.6,0,1.1,0,1.5c0,0.5,0,0.9,0,1.2c0,0.3,0.1,0.5,0.1,0.5
			c0.1,0,0.4,0,1-0.1c0.6-0.1,1.2-0.1,1.9-0.1c0.7,0,1.5,0.1,2.3,0.3c0.8,0.2,1.4,0.6,2,1.1c0.3,0.3,0.6,0.9,0.7,1.7
			c0.2,0.8,0.3,1.7,0.3,2.7c0.1,1,0.1,2,0,3.1c0,1.1-0.1,2.1-0.1,3c-0.1,0.9-0.1,1.7-0.2,2.4c-0.1,0.6-0.1,1-0.1,1.1
			c0,0.2-0.1,0.3-0.3,0.4c-0.2,0.1-0.4,0.1-0.6,0.1c-0.2,0-0.4-0.1-0.6-0.2c-0.2-0.1-0.2-0.3-0.2-0.5c0-0.2,0.1-0.5,0.1-1.1
			c0.1-0.6,0.1-1.3,0.2-2.1c0.1-0.8,0.1-1.7,0.2-2.7s0-1.9,0-2.7c0-0.9-0.1-1.6-0.3-2.3c-0.1-0.7-0.4-1.2-0.6-1.4
			c-0.4-0.4-0.9-0.6-1.5-0.8c-0.6-0.1-1.2-0.2-1.8-0.2c-0.6,0-1.1,0.1-1.6,0.3c-0.5,0.2-0.7,0.3-0.8,0.5c0,0.1-0.1,0.5-0.1,1.1
			c0,0.6,0,1.4,0,2.3c0,0.9,0,1.9,0,2.9c0,1,0,2,0,2.9c0,0.9,0,1.7,0,2.4c0,0.7,0,1.1,0,1.3c0,0.3-0.1,0.5-0.3,0.7
			c-0.2,0.2-0.4,0.3-0.6,0.4c-0.2,0.1-0.4,0-0.6-0.1c-0.2-0.1-0.3-0.4-0.3-0.7c0-0.2,0-0.6,0-1.3c0-0.7,0-1.6,0-2.6c0-1,0-2.2,0-3.5
			c0-1.3,0-2.6,0-3.9c0-1.3,0-2.6,0-3.8c0-1.3,0-2.4,0-3.4s0-1.8,0-2.5C479.1,402.9,479.1,402.5,479.1,402.3z"/>
		<path fill="#FFFFFF" d="M490.8,417.7c0-0.6,0-1.3,0-2.2c0-0.9,0-1.8,0-2.9c0-1,0.1-2.1,0.1-3.1c0-1.1,0.1-2,0.2-3
			c0.1-0.9,0.2-1.7,0.4-2.4c0.2-0.7,0.4-1.1,0.6-1.4c0.5-0.6,1.1-0.9,1.7-0.9c0.6,0,1.3,0.1,1.9,0.4c0.6,0.3,1.2,0.7,1.8,1.3
			c0.6,0.5,1,1.1,1.3,1.6c0.6,1,1,2.1,1.3,3.4c0.3,1.3,0.5,2.5,0.5,3.7s0,2.3-0.1,3.3c-0.1,1-0.3,1.6-0.6,2.1
			c-0.2,0.3-0.5,0.5-0.9,0.6c-0.4,0.1-0.9,0.2-1.4,0.3c-0.5,0.1-1.1,0.1-1.6,0.1c-0.6,0-1.1,0-1.6,0s-0.9,0-1.3,0
			c-0.3,0-0.5,0.1-0.6,0.2c-0.1,0.2-0.2,0.4-0.2,0.8c0,0.4,0.1,0.8,0.3,1.2c0.2,0.4,0.4,0.9,0.7,1.3c0.3,0.4,0.8,0.7,1.4,0.8
			c0.4,0.1,0.8,0.2,1.3,0.2c0.5,0,0.9-0.1,1.3-0.2c0.4-0.1,0.8-0.2,1.1-0.4c0.3-0.2,0.5-0.4,0.6-0.6c0.1-0.2,0.2-0.3,0.5-0.3
			c0.2,0,0.4,0.2,0.6,0.3c0.2,0.2,0.3,0.4,0.4,0.6c0.1,0.2,0,0.4-0.1,0.6c-0.2,0.2-0.5,0.4-0.9,0.7c-0.4,0.3-0.8,0.5-1.4,0.7
			c-0.5,0.2-1.1,0.4-1.8,0.4c-0.7,0.1-1.4,0-2.2-0.2c-0.8-0.2-1.5-0.6-1.9-1s-0.8-1-1.1-1.6c-0.2-0.6-0.4-1.3-0.5-2.1
			C490.8,419.4,490.8,418.6,490.8,417.7z M493.5,404.3c-0.2,0.2-0.4,0.7-0.6,1.4c-0.1,0.7-0.3,1.5-0.4,2.4c-0.1,0.9-0.2,1.9-0.2,2.9
			c0,1-0.1,1.9-0.1,2.8c0,0.8,0,1.5,0.1,2.1c0.1,0.5,0.1,0.8,0.2,0.9c0.1,0,0.3,0,0.6,0c0.3,0,0.7,0,1.2,0c0.5,0,1,0,1.5,0
			c0.5,0,1-0.1,1.4-0.1c0.4-0.1,0.8-0.1,1.1-0.2c0.3-0.1,0.5-0.2,0.5-0.3c0.3-2.1,0.4-4,0.1-5.6s-0.7-3-1.2-4.2
			c-0.3-0.6-0.7-1.1-1.1-1.5c-0.4-0.4-0.8-0.7-1.2-0.9c-0.4-0.2-0.8-0.3-1.1-0.2C494.1,403.8,493.7,403.9,493.5,404.3z"/>
		<path fill="#FFFFFF" d="M502.4,403c0-0.2,0-0.4,0.1-0.5c0.1-0.1,0.2-0.2,0.4-0.3c0.1-0.1,0.3-0.1,0.5-0.1c0.2,0,0.3-0.1,0.5-0.1
			c0.1,0,0.4-0.1,0.9-0.1c0.5,0,1,0,1.6,0c0.6,0.1,1.3,0.2,2,0.5c0.7,0.2,1.4,0.6,1.9,1.2c0.6,0.6,1,1.3,1.4,2.2
			c0.4,0.9,0.5,2.1,0.5,3.5c-0.1,1.6-0.3,2.9-0.6,3.9c-0.3,1-0.8,1.9-1.3,2.5c-0.5,0.7-1.1,1.1-1.8,1.5c-0.7,0.3-1.3,0.6-2,0.7
			c-0.2,0-0.2,0.1-0.2,0.1c0,0,0.1,0.1,0.2,0.1c1.3,0.7,2.5,1.3,3.4,1.8c1,0.5,1.6,0.8,1.7,0.9c0.2,0.1,0.2,0.3,0.2,0.5
			c0,0.2-0.1,0.5-0.2,0.7c-0.1,0.2-0.3,0.4-0.5,0.5c-0.2,0.1-0.4,0.1-0.6,0c-0.1,0-0.4-0.2-0.9-0.5c-0.4-0.3-1-0.6-1.5-1
			c-0.6-0.4-1.2-0.8-1.9-1.3c-0.7-0.5-1.3-0.9-1.9-1.3c-0.1-0.1-0.2-0.2-0.2-0.1c0,0-0.1,0-0.1,0.1c-0.1,0.1-0.1,0.4-0.1,1
			c0,0.6,0,1.2-0.1,1.9c0,0.7,0,1.3-0.1,2c0,0.6-0.1,1-0.1,1.1c-0.1,0.3-0.3,0.5-0.6,0.5c-0.3,0.1-0.5,0-0.6-0.3
			c-0.1-0.1-0.1-0.4-0.1-0.9c0-0.4-0.1-1.1-0.1-1.9c0-0.9,0-2,0-3.3c0-1.3,0.1-3,0.1-4.9c0-1.2,0-2.4,0.1-3.6c0-1.2,0-2.3,0-3.3
			c0-1,0-1.8,0-2.5C502.4,403.6,502.4,403.2,502.4,403z M503.8,404.6c0,0.1,0,0.4,0,1s0,1.3,0,2.1c0,0.8,0,1.7,0,2.7
			c0,1,0,1.8,0.1,2.6c0,0.8,0,1.5,0,2c0,0.6,0,0.9,0,0.9c0,0.1,0,0.2,0,0.3c0,0.1,0,0.2,0.1,0.3c0,0.1,0.1,0.2,0.2,0.2
			c0.1,0.1,0.2,0.1,0.4,0.1c0.1,0,0.3,0,0.7-0.1c0.3,0,0.7-0.1,1.2-0.3c0.4-0.1,0.9-0.4,1.4-0.6c0.5-0.3,1-0.7,1.4-1.2
			c0.4-0.5,0.7-1.1,1-1.9c0.3-0.8,0.4-1.7,0.4-2.9c0-1.1-0.1-2.1-0.4-2.8s-0.6-1.3-1-1.7s-0.9-0.7-1.4-0.9c-0.5-0.2-1-0.3-1.4-0.3
			c-0.5,0-0.9-0.1-1.3,0c-0.4,0-0.6,0-0.8,0c-0.5,0-0.7,0-0.8,0.1C503.8,404.3,503.8,404.4,503.8,404.6z"/>
	</g>
</g>
</svg>
