<?xml version="1.0" encoding="utf-8"?>
<!-- Generator: Adobe Illustrator 16.0.4, SVG Export Plug-In . SVG Version: 6.00 Build 0)  -->
<!DOCTYPE svg PUBLIC "-//W3C//DTD SVG 1.1//EN" "http://www.w3.org/Graphics/SVG/1.1/DTD/svg11.dtd">
<svg version="1.1" id="Calque_1" xmlns="http://www.w3.org/2000/svg" xmlns:xlink="http://www.w3.org/1999/xlink" x="0px" y="0px"
	 width="841.89px" height="473.176px" viewBox="0 0 841.89 473.176" enable-background="new 0 0 841.89 473.176"
	 xml:space="preserve">
<g>
	<g>
		<path fill="#83D8EE" d="M719.621,0.657c39.863,0,79.726,0.022,119.589-0.061c2.207-0.004,2.713,0.379,2.712,2.669
			c-0.07,155.947-0.073,311.895,0.013,467.842c0.001,2.559-0.755,2.772-2.938,2.772c-278.493-0.05-556.985-0.05-835.479-0.001
			c-2.179,0.001-2.94-0.208-2.938-2.771C0.666,315.161,0.664,159.214,0.593,3.267c0-2.287,0.501-2.676,2.711-2.67
			c36.577,0.086,73.155,0.061,109.732,0.061c1.133,0.625,2.364,0.317,3.544,0.317c199.833,0.016,399.664,0.016,599.496,0
			C717.257,0.975,718.487,1.282,719.621,0.657z"/>
		<path fill-rule="evenodd" clip-rule="evenodd" fill="#89DAEF" d="M719.621,0.657c-1.46,1.144-3.17,0.634-4.763,0.634
			C557.657,1.316,400.455,1.314,243.253,1.314c-41.928,0-83.856,0.005-125.784-0.021c-1.486-0.001-3.086,0.464-4.434-0.637
			C315.231,0.657,517.426,0.657,719.621,0.657z"/>
		<path fill-rule="evenodd" clip-rule="evenodd" fill="#E48329" d="M348.319,131.477c1.915-1.878,4.641-1.708,6.893-2.735
			c3.596-0.387,7.19-0.503,10.78,0.064c1.658,0.943,3.736,0.66,5.316,1.83c2.705-0.724,4.238,1.268,5.946,2.678
			c3.19,2.632,3.149,2.689,6.592,0.221c6.356-4.556,13.237-8.003,20.877-9.82c1.47-0.35,2.965-0.851,4.475-0.126
			c0.441,0.246,0.631,0.809,1.171,0.94c-0.518-0.318-0.526-0.733-0.226-1.215c1.447-1.46,3.454-1.517,5.205-1.624
			c9.901-0.608,19.606,0.34,28.799,4.446c2.789,1.691,6.026,2.483,8.758,4.292c1.791,1.188,3.882,2.08,4.581,4.414
			c2.896,8.363,3.688,17,3.231,25.771c-0.359,6.904-2.015,13.566-4.176,20.107c-0.346,1.044-0.946,1.967-1.821,2.675
			c-1.772,1.059-3.371,0.059-4.995-0.459c-2.371-0.756-4.555-2.044-7.027-2.515c-7.845-1.619-15.805-2.121-23.753-1.595
			c-9.413,0.622-18.588,2.64-26.828,7.497c-8.863,5.226-10.709,12.733-5.704,21.736c1.178,2.119,2.61,4.018,4.4,5.647
			c1.171,2.376,3.644,3.212,5.585,4.671c1.023,0.77,2.203,1.333,3.045,2.343c0.523,0.848,1.268,1.454,2.062,2.043
			c0.864,0.641,1.319,1.47,0.445,2.485c-0.935,0.909-2.212,1.162-3.346,1.196c-7.939,0.245-15.945,1.43-23.711-1.325
			c-2.235-0.032-2.417-0.879-3.772-2.675c3.611,5.599,8.718,10.765,14.073,15.712c0.66,0.609,1.581,0.751,2.22,1.378
			c2.452,2.911,1.635,6.084,0.566,9.162c-0.703,2.024-1.394,4.053-2.039,6.095c-4.195,4.896-7.693,10.176-9.475,16.489
			c-0.664,2.351-0.087,3.666,2.251,4.479c3.081,1.073,6.062,2.411,8.808,4.22c1.193,0.786,2.363,1.568,2.906,2.98
			c1.305,3.722,4.006,6.789,5.042,10.618c0.661,2.447,2.237,4.905,0.354,7.494c-2.059,0.596-2.916-1.038-3.991-2.2
			c-4.88-5.274-10.639-9.115-17.766-10.524c-16.563-3.274-28.549,6.314-30.437,21.332c-1.37,10.893,2.678,19.855,9.815,27.767
			c1.376,1.525,3.803,2.446,3.448,5.164c-1.419,1.285-3.001,0.84-4.587,0.445c-4.06-1.01-7.588-2.961-10.542-5.932
			c-5.187-6.31-8.029-13.62-9.237-21.629c-0.178-1.18-0.356-2.358-0.535-3.538c-1.3-0.688-1.321-1.938-1.272-3.137
			c0.715-17.635,10.836-31.007,27.196-34.54c2.475-0.535,3.198-1.868,3.508-3.942c2.588-3.12,5.983-5.403,8.727-8.382
			c2.461-2.671,4.73-5.454,6.61-8.885c-5.072,2.516-9.202,6.351-14.655,7.584c-2.258,0.986-4.503,2.015-7.056,1.895
			c-1.629-0.508-3.212-0.154-4.797,0.257c-1.356,0.35-2.699,0.842-4.136,0.627c-0.388-0.059-0.755-0.265-1.167-0.196
			c0.489-0.018,0.823,0.162,0.879,0.7c-0.369,0.926-1.168,1.28-2.037,1.454c-17.557,3.512-29.749-4.894-34.567-22.123
			c-0.383-1.366-0.465-2.822,0.774-3.938c1.218-2.031,0.067-4.247,0.49-5.757c-0.04,1.433,0.25,3.46-0.18,5.468
			c-2.304,0.277-1.936-1.601-2.055-2.788c-1.482-14.766,10.76-28.685,25.559-29.281c8.196-0.33,16.116,0.913,23.865,3.509
			c1.925,0.645,3.805,1.514,6.195,1.805c-3.062-8.051-6.553-15.665-5.4-24.268c0.861-2.088,0.95-4.194,0.144-6.318
			c-0.667-1.983-0.117-4.362-1.949-5.97c-0.104-0.304-0.123-0.613-0.053-0.928c1.944-1.469,2.619-3.577,3.19-5.846
			c2.647-10.507,7.721-19.708,15.171-27.588c2.41-2.548,2.317-3.051-0.777-4.725c-1.748-0.946-3.65-1.469-5.521-2.08
			c-2.252-1.024-4.519-0.981-6.797-0.103c-4.876,0.935-8.989,3.179-12.206,7.017c-0.693,0.827-1.415,1.673-2.51,1.969
			c-0.413,0.018-0.413,0.28-0.295,0.619c0.141,1.967-1.095,3.541-1.439,5.361c-0.333,1.14-0.839,2.239-0.748,3.468
			c-0.062,1.018-0.103,2.035,0.006,3.054c-0.112,1.235,0.381,2.347,0.728,3.486c0.642,3.564,3.476,6.076,4.54,9.436
			c-0.7,1.793-2.146,2.475-3.946,2.643c-5.345-2.413-10.056-10.119-9.642-15.757c0.102-0.515,0.117-1.041,0.203-1.558
			c0.469-1.749,0.049-3.561,0.38-5.32c0.658-0.955,0.321-2.157,0.786-3.16c0.484-3.908,2.366-7.076,5.173-9.752
			C345.497,135.413,347.236,133.84,348.319,131.477z"/>
		<path fill-rule="evenodd" clip-rule="evenodd" fill="#8FE0F3" d="M491.571,141.295c17.472,12.548,30.247,28.863,38.839,48.512
			c7.256,16.595,10.581,34.011,9.717,52.053c-0.9,18.805-5.672,36.656-15.18,53.066c-1.862,3.215-3.864,6.349-5.867,9.479
			c-0.629,0.982-1.104,2.19-2.445,2.51c-1.612-0.817-1.764-2.441-1.987-3.91c-0.983-6.45-4.129-11.896-7.785-17.114
			c-0.566-0.807-1.386-1.388-2.221-1.919c-4.726-3.357-9.683-6.169-15.446-7.438c-3.106-0.684-3.628-2.386-2.329-6.062
			c0.161-0.252,0.356-0.484,0.56-0.701c0.907-3.316,0.824-6.638,0.098-9.973c-0.273-0.163-0.482-0.36-0.674-0.6
			c-0.884-1.605-1.291-3.232-0.31-4.943c2.882-1.952,6.262-1.563,9.459-1.888c7.539-0.761,14.873-2.256,21.986-4.952
			c9.4-3.562,13.858-10.882,14.832-20.267c1.25-12.038-3.052-21.85-13.49-28.581c-2.626-1.693-5.555-2.478-8.552-3.105
			c-1.739-0.735-3.483-0.644-5.229-0.014c-6.965,0.939-13.01,4.034-18.65,8.031c-1.861,1.319-3.654,2.738-5.484,4.102
			c-0.965,0.718-1.938,1.437-3.266,1.168c-0.353-0.125-0.613-0.352-0.794-0.678c-0.742-2.653,0.741-4.923,1.403-7.281
			c3.521-12.536,2.91-24.85-1.544-37.026c-0.491-1.339-1.035-2.66-0.792-4.134c1.028-2.718,3.934-3.307,5.786-5.097
			c1.372-0.986,2.572-2.144,3.51-3.561c1.594-2.179,2.923-4.489,3.755-7.08C489.826,142.786,490.157,141.582,491.571,141.295z"/>
		<path fill-rule="evenodd" clip-rule="evenodd" fill="#8FE0F3" d="M362.381,270.112c0.233,4.463,0.233,4.463-4.371,5.435
			c-13.414,2.829-23.875,14.404-25.462,28.262c-0.31,2.702-0.376,5.433-0.555,8.149c-0.173,1.394-0.244,2.306-1.685,0.537
			c-4.08-5.01-7.823-10.232-11.097-15.804c-9.185-15.63-14.207-32.491-15.669-50.558c-1.963-24.266,3.249-46.815,15.107-67.982
			c4.734-8.451,10.691-15.936,17.171-23.058c0.159-0.221,0.37-0.302,0.636-0.243c0.321,0.237,0.417,0.612,0.572,0.95
			c1.047,6.291,4.057,11.371,9.3,15.072c3.785,0.883,7.361,2.244,10.525,4.559c2.09,0.001,3.079,0.83,2.548,3.082
			c-0.209,0.89-0.033,1.872-0.033,2.811c0.177,2.231,0.176,4.462,0.001,6.693c-0.049,9.532,3.073,18.205,7.329,26.611
			c-1.298,0.605-2.177-0.308-3.121-0.66c-9.6-3.588-19.359-6.249-29.758-5.665c-15.565,0.875-27.062,15.888-23.705,31.01
			l0.001,0.013c0.875,15.35,13.709,26.582,29.015,25.297c2.258-0.19,4.59-0.097,6.757-0.993c2.946-0.92,5.792-2.289,9.003-2.036
			c2.408-0.668,4.816-1.336,7.225-2.004C364.512,263.039,363.797,266.567,362.381,270.112z"/>
		<path fill-rule="evenodd" clip-rule="evenodd" fill="#70B8CA" d="M516.598,312.222c1.426,0.778,2.983,0.58,4.506,0.586
			c14.007,0.05,27.909,1.067,41.729,3.557c3.641,0.655,7.576-0.304,11.374-0.55c6.464-0.418,12.852,0.039,19.121,1.711
			c1.005,0.268,2.372,0.564,2.36,1.911c-0.014,1.425-1.365,1.957-2.491,2.271c-3.586,0.999-7.234,1.749-10.985,1.636
			c-2.588-0.078-4.642,0.355-6.675,2.486c-2.64,2.767-6.472,3.874-10.949,4.453c1.413,1.188,2.315,0.687,3.188,0.639
			c8.734-0.48,17.472-0.951,26.185,0.327c0.431,0.063,0.891,0.111,1.272,0.299c1.133,0.555,2.711,0.743,2.7,2.453
			c-0.009,1.481-1.315,1.943-2.403,2.388c-3.776,1.546-7.792,2.433-11.801,2.601c-9.152,0.383-18.318,1.643-27.488,0.175
			c-3.747-0.6-6.586,1.506-10.32,3.414c3.384,0.493,6.046,0.77,8.656,1.304c1.551,0.318,3.593,0.559,3.803,2.556
			c0.217,2.054-1.743,2.554-3.249,3.132c-9.269,3.557-19.017,4.808-28.787,5.983c-11.279,1.359-22.628,1.753-33.95,2.466
			c-8.083,0.51-16.175,0.122-24.174-1.294c-1.604-0.283-3.139-0.976-4.23-2.329c1.308-1.624,3.047-0.86,4.555-0.656
			c8.717,1.185,16.753-0.996,24.059-5.446c12.19-7.427,19.679-18.267,22.087-32.467
			C514.924,314.449,515.124,312.978,516.598,312.222z"/>
		<path fill-rule="evenodd" clip-rule="evenodd" fill="#7BBECF" d="M425.22,354.901c-1.118,0.415-2.237,0.829-3.356,1.244
			c-8.516,1.082-16.848-0.308-25.165-1.888c-1.597-0.303-3.243-0.52-4.437-1.816c-0.786-1.55,0.199-2.561,1.252-3.312
			c6.747-4.816,11.122-11.246,13.339-19.199c0.3-1.075,0.859-2.004,1.914-2.538c2.168-0.753,4.082,0.343,6.078,0.839
			c0.88,0.051,1.601,0.36,1.972,1.215c0.038,0.322,0.002,0.605-0.435,0.61c0.039,0.129,0.212,0.165,0.429-0.008
			c0.586-0.468,1.066-1.086,1.856-1.273c6.27-0.537,12.601,0.07,18.83-1.268c1.997-0.429,3.561,0.716,4.422,2.616
			c0.584,1.29,0.98,2.648,1.438,3.98c0.301,1.958,0.967,3.701,2.333,5.247c1.062,1.2,1.931,2.651,1.606,4.44
			c-0.146,0.416-0.314,0.857-0.666,1.112C440.13,349.595,433.342,353.68,425.22,354.901z"/>
		<path fill-rule="evenodd" clip-rule="evenodd" fill="#D57B26" d="M446.985,343.624c-1.638-2.769-3.861-5.215-4.656-8.449
			c1.696-0.738,2.812,0.519,4.073,1.214c2.133,1.176,3.989,2.902,6.547,3.221c1.271,0.441,2.358,1.188,3.389,2.034
			c7.869,6.205,16.654,7.713,25.895,4.092c13.485-5.284,21.076-15.457,23.078-29.796c0.348-2.495,0.496-5.004,0.396-7.529
			c0.277-7.639,0.861-15.284-1.28-22.793c-0.238-0.836-0.489-1.995,0.904-2.354c6.112,5.075,9.147,11.836,10.622,19.442
			c0.271,1.395,0.457,2.806,0.682,4.209c-0.013,1.769-0.024,3.536-0.037,5.306c-2.014,17.603-10.57,30.818-26.447,38.949
			c-8.271,4.235-17.061,5.245-26.162,3.225c-3.219-1.001-6.289-2.349-9.247-3.959C450.765,349.75,448.122,347.545,446.985,343.624z"
			/>
		<path fill-rule="evenodd" clip-rule="evenodd" fill="#D57B26" d="M408.792,327.996c-2.265,10.105-7.591,18.057-16.522,23.47
			c-2.207,3.646-6.144,3.968-9.664,4.596c-13.106,2.336-24.442-1.82-34.529-10.066c-1.639-1.34-2.554-3.231-3.783-4.884
			c-0.843-1.328-1.687-2.657-2.53-3.986c3.572,1.436,6.856,3.527,10.605,4.574c1.462,0.408,2.897,0.797,4.425,0.714
			c1.259-0.745,2.266-0.051,3.286,0.569c6.53,3.244,13.205,5.726,20.701,4.061c9.991-2.221,16.289-8.277,18.923-18.161
			c2.261-8.486,0.293-16.342-3.558-23.915c-0.582-1.19-1.472-2.338-0.623-3.767c0.253-4.996-2.115-9.169-4.102-13.496
			c-0.653-1.425-2.703-2.432-1.634-4.495c1.617-0.714,2.75,0.271,3.775,1.221c2.238,2.07,4.513,4.115,6.357,6.575
			c3.074,5.09,6.932,9.76,8.558,15.628c1.362,4.916,2.492,9.88,2.116,15.051C410.712,323.994,410.636,326.249,408.792,327.996z"/>
		<path fill-rule="evenodd" clip-rule="evenodd" fill="#8FE0F3" d="M409.413,124.169c-9.595,1.362-18.139,5.282-25.692,11.192
			c-2.673,2.091-4.392,2.521-6.541-0.37c-1.48-1.99-3.631-3.283-5.872-4.356c1.19-3.071,4.394-3.16,6.748-4.036
			c10.571-3.929,21.44-6.612,32.749-7.768c12.001-1.227,23.748-0.124,35.495,2.041c1,0.184,1.949,0.296,2.544,1.235
			c0.501,0.527,0.39,1.108,0.157,1.703c-0.658,1.174-1.426,2.276-2.251,3.341c-0.634,0.437-1.322,0.682-2.105,0.574
			c-11.249-4.471-22.787-6.176-34.769-3.642C409.789,124.483,409.631,124.493,409.413,124.169z"/>
		<path fill-rule="evenodd" clip-rule="evenodd" fill="#E48429" d="M448.146,123.505c0.231-0.465,0.464-0.931,0.697-1.397
			c10.403-10.773,24.07-12.081,34.52-3.206c5.261,4.469,8.063,10.214,8.246,17.161c0.045,1.742-0.022,3.488-0.037,5.232
			c-1.271,3.769-2.172,7.719-5.19,10.635c-1.443,0.708-2.575,1.722-3.179,3.252c-1.638,1.873-3.781,2.96-6.028,3.889
			c-1.949,0.084-2.294-1.173-2.287-2.728c1.399-1.94,3.302-3.436,4.698-5.404c6.645-9.369,3.729-22.732-6.307-28.355
			c-4.025-2.254-8.17-4.231-12.996-2.573c-3.121,0.53-5.976,1.697-8.556,3.539c-0.876,0.625-1.764,1.255-2.943,1.068
			C448.28,124.414,447.919,124.127,448.146,123.505z"/>
		<path fill-rule="evenodd" clip-rule="evenodd" fill="#70B8CA" d="M344.294,341.111c0.976,0.109,1.404,0.959,2.032,1.526
			c13.535,12.22,28.551,16.701,45.944,8.828c5.931,2.224,12.208,2.565,18.394,3.438c3.725,0.525,7.536,0.228,11.201,1.241
			c-18.207,5.914-36.648,6.086-55.179,1.956c-7.598-1.692-14.286-5.288-19.537-11.241
			C345.67,345.186,344.505,343.396,344.294,341.111z"/>
		<path fill-rule="evenodd" clip-rule="evenodd" fill="#8FE0F3" d="M446.985,343.624c2.437,2.44,4.938,4.807,7.756,6.812
			c-7.07,2.638-14.461,3.845-21.923,4.324c-2.487,0.16-5.059,1.799-7.599,0.141C432.715,351.604,440.09,348.076,446.985,343.624z"/>
		<path fill-rule="evenodd" clip-rule="evenodd" fill="#FAFDFD" d="M288.607,419.293c1.395,0,2.79,0.025,4.185-0.006
			c1.837-0.041,2.526,1.118,2.669,2.667c0.14,1.517-0.588,2.495-2.192,2.687c-1.08,0.127-2.153,0.378-3.233,0.404
			c-3.904,0.095-4.335-0.348-4.213-4.234c0.117-3.7-1.585-7.131-1.398-10.882c0.3-6.017,3.135-8.236,8.97-6.62
			c0.713,0.198,1.292,0.504,2.162,0.239c1.744-0.53,1.699,0.426,0.885,1.512c-0.684,0.912-0.398,1.822-0.333,2.803
			C296.709,417.109,296.248,417.805,288.607,419.293z"/>
		<path fill-rule="evenodd" clip-rule="evenodd" fill="#FAFDFD" d="M343.955,419.3c1.403,0,2.808,0.006,4.212-0.002
			c1.68-0.01,2.309,1.11,2.483,2.501c0.186,1.472-0.403,2.472-2.019,2.834c-1.728,0.388-3.455,0.561-5.196,0.367
			c-1.986-0.22-3.156-0.88-2.636-3.411c0.395-1.918,0.276-4.007-0.494-6.02c-1.081-2.82-0.833-5.833-0.337-8.732
			c0.503-2.94,3.18-4.28,6.897-3.982c1.456,0.116,2.695,1.442,4.381,0.541c0.608-0.325,1.213,0.695,0.676,1.262
			c-1.323,1.399-0.564,2.89-0.438,4.348C352.121,416.373,351.028,417.818,343.955,419.3z"/>
		<path fill-rule="evenodd" clip-rule="evenodd" fill="#FBFDFE" d="M99.228,415.826c0,2.298,0.017,4.595-0.012,6.892
			c-0.008,0.619,0.105,1.509-0.742,1.586c-1.133,0.104-1.055-0.93-1.041-1.633c0.116-6.116,0.232-12.234,0.459-18.348
			c0.05-1.345,4.774-2.208,6.424-0.987c1.382,1.023,2.083,1.896,3.745,0.059c1.522-1.683,4.567-0.646,5.325,1.636
			c1.908,5.743,2.117,11.798,2.891,17.745c0.064,0.495,0.114,1.259-0.586,1.314c-1.068,0.086-1.109-0.878-1.196-1.6
			c-0.497-4.119-0.915-8.249-1.447-12.363c-0.167-1.288-0.519-2.571-0.949-3.801c-0.354-1.014-0.82-2.185-2.224-2.007
			c-1.399,0.178-2.04,1.208-2.128,2.528c-0.211,3.158-0.353,6.322-0.547,9.481c-0.044,0.72,0.206,1.83-0.778,1.895
			c-1.251,0.082-1.171-1.159-1.078-1.944c0.352-2.942,0.671-5.864-0.104-8.791c-0.446-1.685-1.137-3.258-3.159-3.17
			c-1.95,0.085-2.392,1.818-2.554,3.323c-0.291,2.712-0.323,5.451-0.464,8.179C99.12,415.822,99.174,415.824,99.228,415.826z"/>
		<path fill-rule="evenodd" clip-rule="evenodd" fill="#FBFDFE" d="M131.725,403.812c1.366,5.547,0.583,11.281,2.188,16.842
			c0.99-3.21,1.958-6.427,2.989-9.623c0.223-0.69,0.368-1.642,1.293-1.727c1.208-0.11,1.298,1.032,1.53,1.794
			c1.013,3.325,1.938,6.677,3.173,10.989c1.239-5.481,1.216-10.098,1.672-14.651c0.098-0.977,0.072-1.967,0.162-2.944
			c0.052-0.571,0.374-1.173,0.939-1.197c0.922-0.039,0.946,0.78,0.877,1.418c-0.659,6.187-1.343,12.37-2.04,18.553
			c-0.08,0.707-0.46,1.223-1.267,1.23c-0.783,0.007-1.178-0.486-1.386-1.157c-0.646-2.086-1.224-4.195-1.927-6.263
			c-0.508-1.492-0.434-3.211-1.73-4.645c-1.644,3.28-2.115,6.782-3.304,10.039c-0.362,0.992-0.434,2.412-1.92,2.185
			c-1.214-0.186-1.183-1.528-1.244-2.427c-0.389-5.774-0.682-11.556-0.978-17.336C130.734,404.506,130.785,404.008,131.725,403.812z
			"/>
		<path fill-rule="evenodd" clip-rule="evenodd" fill="#FBFDFE" d="M525.643,420.524c0.995-3.22,1.969-6.446,3-9.655
			c0.225-0.696,0.441-1.626,1.398-1.596c0.949,0.029,1.115,0.975,1.326,1.673c1.027,3.417,1.999,6.852,3.229,10.241
			c1.126-4.732,1.331-9.499,1.68-14.249c0.063-0.871,0.054-1.751,0.188-2.61c0.083-0.532,0.385-1.083,1.057-1.021
			c0.742,0.069,0.754,0.729,0.712,1.246c-0.18,2.175-0.392,4.348-0.633,6.518c-0.41,3.688-0.841,7.373-1.288,11.057
			c-0.112,0.922,0.143,2.174-1.229,2.333c-1.55,0.178-1.625-1.246-1.925-2.209c-1.002-3.213-1.902-6.458-2.991-10.206
			c-1.975,3.551-2.325,7.065-3.539,10.273c-0.373,0.985-0.395,2.455-1.818,2.351c-1.441-0.106-1.376-1.637-1.41-2.609
			c-0.213-6.051-1.28-12.08-0.489-18.183C524.964,409.25,523.827,415.058,525.643,420.524z"/>
		<path fill-rule="evenodd" clip-rule="evenodd" fill="#F9FCFD" d="M208.128,425.074c-1.427-0.529-1.554-1.348-1.559-2.068
			c-0.044-5.895-0.094-11.792-0.001-17.687c0.028-1.806,0.394-1.901,1.866-0.637c0.837,0.719,1.083-0.105,1.532-0.383
			c3.537-2.177,6.315-1.274,7.025,2.75c0.946,5.362,1.217,10.825,1.207,16.284c-0.001,0.639,0.017,1.499-0.927,1.324
			c-0.938-0.174-0.902-1.125-0.946-1.875c-0.256-4.354-0.486-8.711-0.735-13.065c-0.113-1.974-0.039-4.376-2.637-4.547
			c-2.483-0.163-3.397,1.977-3.952,4.092c-1.1,4.192-0.502,8.474-0.664,12.716C208.3,422.923,208.211,423.864,208.128,425.074z"/>
		<path fill-rule="evenodd" clip-rule="evenodd" fill="#F9FCFD" d="M707.076,414.733c0,2.956,0.007,5.911-0.005,8.866
			c-0.003,0.657-0.001,1.427-0.753,1.658c-0.606,0.186-0.942-0.269-1.125-0.877c-0.461-1.542-1.055-0.346-1.597-0.044
			c-3.567,1.99-6.404,0.893-6.944-3.13c-0.696-5.188-0.899-10.442-1.28-15.671c-0.044-0.604-0.173-1.504,0.709-1.579
			c1.064-0.09,1.1,0.892,1.149,1.624c0.252,3.707,0.449,7.419,0.688,11.127c0.084,1.307,0.127,2.629,0.377,3.907
			c0.254,1.297,0.668,2.595,2.385,2.687c1.502,0.08,2.537-0.681,3.203-1.893c0.966-1.758,1.273-3.707,1.29-5.698
			c0.027-3.503,0.031-7.006,0.065-10.508c0.007-0.652,0.055-1.489,0.897-1.48c0.812,0.008,0.915,0.821,0.919,1.487
			c0.016,3.175,0.007,6.349,0.007,9.523C707.067,414.733,707.072,414.733,707.076,414.733z"/>
		<path fill-rule="evenodd" clip-rule="evenodd" fill="#F9FCFD" d="M725.615,413.812c0-2.955-0.015-5.911,0.012-8.867
			c0.006-0.646,0.087-1.403,0.855-1.587c0.712-0.169,0.804,0.489,1.017,1.001c0.603,1.45,1.11,0.195,1.604-0.11
			c3.367-2.084,6.431-0.925,6.931,2.991c0.662,5.195,0.893,10.446,1.267,15.677c0.049,0.688,0.311,1.781-0.833,1.77
			c-0.962-0.011-0.99-1.002-1.034-1.771c-0.246-4.366-0.456-8.735-0.739-13.1c-0.128-1.974-0.198-4.374-2.663-4.663
			c-2.548-0.299-3.406,1.898-3.959,4.009c-1.13,4.314-0.37,8.719-0.64,13.073c-0.06,0.951,0.616,2.606-0.974,2.601
			c-1.19-0.005-0.84-1.563-0.855-2.482c-0.05-2.846-0.018-5.693-0.018-8.54C725.595,413.812,725.605,413.812,725.615,413.812z"/>
		<path fill-rule="evenodd" clip-rule="evenodd" fill="#F8FCFD" d="M452.069,51.444c0.002-2.748,0.342-5.453,0.693-8.164
			c0.195-1.502,0.615-2.867,2.146-3.384c1.516-0.512,2.742,0.333,3.825,1.31c2.651,2.391,4.214,9.72,2.859,12.904
			c-0.779,1.828-2.309,1.661-3.839,1.79c-1.21,0.102-2.771-0.674-3.504,0.92c-0.39,0.849,0.078,1.777,0.727,2.384
			c1.112,1.039,2.459,1.37,3.938,0.81c0.407-0.155,0.805-0.343,1.19-0.546c0.521-0.275,1.129-0.445,1.444,0.123
			c0.428,0.769-0.291,1.141-0.803,1.523c-3.211,2.394-7.346,1.072-8.2-2.833C452.062,56.073,452.207,53.728,452.069,51.444z"/>
		<path fill-rule="evenodd" clip-rule="evenodd" fill="#F8FCFD" d="M587.744,414.361c-0.339-2.964-0.004-5.899,0.492-8.804
			c0.521-3.059,2.723-3.892,5.262-2.111c3.056,2.144,5.046,10.227,3.409,13.59c-0.866,1.778-2.439,1.499-3.945,1.625
			c-1.123,0.094-2.522-0.562-3.27,0.786c-0.472,0.852-0.027,1.738,0.57,2.405c0.949,1.059,2.182,1.263,3.578,1.113
			c1.069-0.115,2.616-1.931,2.995-0.424c0.441,1.758-1.93,2.036-3.281,2.386c-2.809,0.727-5.272-1.098-5.755-4.357
			C587.5,418.542,587.744,416.434,587.744,414.361z"/>
		<path fill-rule="evenodd" clip-rule="evenodd" fill="#FAFDFD" d="M639.441,414.683c-0.004,2.949,0.024,5.897-0.017,8.846
			c-0.019,1.338-0.545,2.441-1.733,0.833c-1.062-1.436-1.414-0.072-1.988,0.227c-3.173,1.655-6.191,0.418-6.614-3.104
			c-0.637-5.299-0.893-10.645-1.288-15.973c-0.049-0.65-0.025-1.493,0.794-1.563c1.163-0.1,0.978,0.964,1.023,1.65
			c0.27,4.025,0.298,8.079,0.804,12.074c0.268,2.115-0.496,5.545,3.054,5.513c3.462-0.031,3.776-3.257,3.954-5.826
			c0.271-3.916,0.135-7.858,0.193-11.789c0.011-0.741-0.082-1.796,0.896-1.827c1.046-0.034,0.907,1.045,0.913,1.766
			C639.462,408.566,639.445,411.624,639.441,414.683z"/>
		<path fill-rule="evenodd" clip-rule="evenodd" fill="#F9FCFD" d="M602.87,424.669c-1.239-0.845-0.874-1.918-0.878-2.829
			c-0.019-5.352,0.138-10.706-0.004-16.054c-0.08-2.969,1.38-3.572,3.856-3.267c2.895,0.357,5.019,1.836,5.647,4.692
			c0.787,3.574,0.192,6.972-2.604,9.641c-0.612,0.584-1.456,0.927-2.259,1.421c0.751,1.181,2.137,1.34,3.184,2.013
			c0.623,0.4,1.625,0.727,1.143,1.657c-0.599,1.156-1.484,0.366-2.222-0.015c-1.53-0.791-2.652-2.264-4.569-2.761
			C603.505,420.906,604.002,422.877,602.87,424.669z"/>
		<path fill-rule="evenodd" clip-rule="evenodd" fill="#FAFDFD" d="M741.373,415.454c0.214-3.046,0.383-6.096,0.657-9.137
			c0.139-1.554,0.526-3.135,2.223-3.707c1.707-0.576,2.905,0.562,4.012,1.628c2.52,2.429,3.977,9.566,2.652,12.665
			c-0.766,1.793-2.338,1.634-3.872,1.761c-1.218,0.101-2.763-0.664-3.549,0.856c-0.444,0.859,0.127,1.733,0.749,2.357
			c1.188,1.191,2.607,1.531,4.194,0.804c0.397-0.182,0.78-0.397,1.184-0.562c0.422-0.172,0.905-0.232,1.173,0.199
			c0.362,0.586-0.071,0.995-0.464,1.382c-2.581,2.55-7.195,1.425-8.296-2.074C741.407,419.629,741.34,417.544,741.373,415.454z"/>
		<path fill-rule="evenodd" clip-rule="evenodd" fill="#FAFDFD" d="M377.79,414.215c0.29-2.382,0.493-4.779,0.893-7.143
			c0.436-2.583,2.008-4.176,4.705-4.108c2.674,0.067,5.001,0.984,5.682,3.961c1.219,5.327,0.135,10.432-1.907,15.335
			c-0.837,2.012-2.87,2.735-4.927,2.56c-2.123-0.181-3.19-1.779-3.562-3.758C378.252,418.809,377.802,416.55,377.79,414.215z"/>
		<path fill-rule="evenodd" clip-rule="evenodd" fill="#FAFDFD" d="M312.488,410.65c-0.272,3.424-0.525,6.805-1.625,10.048
			c-0.862,2.544-2.621,4.184-5.294,4.143c-2.815-0.043-3.748-2.181-4.14-4.664c-0.688-4.365-0.585-8.694,0.19-13.044
			c0.504-2.826,2.04-4.366,4.9-4.179c2.823,0.185,5.103,1.315,5.612,4.49C312.305,408.521,312.376,409.615,312.488,410.65z"/>
		<path fill-rule="evenodd" clip-rule="evenodd" fill="#FAFDFD" d="M679.412,414.305c0.314-2.488,0.523-4.995,0.972-7.459
			c0.445-2.442,2.024-3.901,4.559-3.884c2.552,0.016,4.93,0.829,5.655,3.56c1.464,5.517,0.363,10.863-1.916,15.933
			c-0.87,1.935-2.929,2.62-5.022,2.323c-1.982-0.281-2.965-1.792-3.312-3.624C679.92,418.903,679.425,416.648,679.412,414.305z"/>
		<path fill-rule="evenodd" clip-rule="evenodd" fill="#FAFDFD" d="M326.617,51.084c-0.088-2.312,0.253-4.574,0.656-6.843
			c0.474-2.667,1.957-4.153,4.676-4.061c2.694,0.092,5.125,1.048,5.689,3.98c0.97,5.045,0.302,10.041-1.604,14.779
			c-0.876,2.179-2.842,3.405-5.277,3.094c-2.262-0.289-3.139-1.97-3.609-4.101C326.645,55.652,326.7,53.372,326.617,51.084z"/>
		<path fill-rule="evenodd" clip-rule="evenodd" fill="#FAFDFD" d="M81.485,414.395c-0.094-2.529,0.203-5.016,0.675-7.498
			c0.477-2.503,1.875-3.958,4.443-3.948c2.697,0.011,5.215,0.888,5.836,3.776c1.106,5.141,0.38,10.241-1.587,15.084
			c-0.842,2.071-2.763,3.229-5.019,3.031c-2.411-0.212-3.374-1.976-3.845-4.25C81.561,418.522,81.583,416.463,81.485,414.395z"/>
		<path fill-rule="evenodd" clip-rule="evenodd" fill="#FAFDFD" d="M542.065,414.005c0.198-2.479,0.024-4.877,0.653-7.254
			c0.652-2.468,2.058-3.861,4.598-3.805c2.549,0.058,4.965,0.849,5.585,3.625c1.199,5.378,0.524,10.679-1.771,15.67
			c-0.878,1.909-2.753,2.804-4.913,2.578c-2.183-0.228-3.03-1.771-3.562-3.733C542.011,418.71,542.263,416.306,542.065,414.005z"/>
		<path fill-rule="evenodd" clip-rule="evenodd" fill="#FCFDFE" d="M559.358,425.522c-1.851-1.545-1.469-2.703-1.476-3.714
			c-0.04-5.468-0.039-10.936,0.014-16.402c0.008-0.764-0.388-2.082,0.866-2.095c1.333-0.013,0.288,1.482,0.876,2.086
			c0.654,0.11,0.91-0.455,1.303-0.773c3.215-2.613,6.673-1.582,7.207,2.532c0.702,5.403,0.799,10.885,1.169,16.331
			c0.04,0.593-0.002,1.186-0.71,1.167c-0.285-0.007-0.729-0.518-0.801-0.86c-0.244-1.171-0.449-2.365-0.499-3.558
			c-0.169-3.929-0.135-7.865-0.746-11.771c-0.254-1.621-0.645-3.178-2.505-3.343c-1.714-0.152-2.853,1.002-3.421,2.559
			c-1.063,2.912-1.188,5.98-1.265,9.035C559.305,419.41,559.358,422.105,559.358,425.522z"/>
		<path fill-rule="evenodd" clip-rule="evenodd" fill="#FCFDFE" d="M324.929,425.255c-1.444-1.528-0.99-2.892-1.002-4.117
			c-0.052-5.248-0.042-10.498,0.012-15.746c0.008-0.76-0.388-2.082,0.878-2.081c1.316,0.001,0.268,1.497,1.014,2.236
			c0.38-0.303,0.774-0.613,1.164-0.931c3.205-2.607,6.667-1.56,7.199,2.554c0.699,5.404,0.798,10.885,1.167,16.332
			c0.04,0.595-0.013,1.184-0.724,1.148c-0.288-0.015-0.722-0.524-0.793-0.871c-0.243-1.17-0.445-2.364-0.496-3.557
			c-0.167-3.93-0.135-7.865-0.747-11.771c-0.254-1.622-0.652-3.176-2.518-3.33c-1.714-0.142-2.846,1.015-3.412,2.572
			c-1.059,2.915-1.12,5.983-1.279,9.036C325.253,419.417,325.764,422.144,324.929,425.255z"/>
		<path fill-rule="evenodd" clip-rule="evenodd" fill="#FBFDFE" d="M447.258,418.296c0.91,1.186,2.154,1.425,3.161,2.043
			c0.607,0.372,1.702,0.621,1.193,1.585c-0.601,1.137-1.496,0.359-2.233-0.045c-1.59-0.871-2.862-2.313-4.8-2.85
			c-0.665,1.896,0.084,3.852-1.007,5.991c-1.688-1.982-1.24-4.012-1.085-5.761c0.405-4.586,0.433-9.173,0.332-13.757
			c-0.063-2.843,1.432-3.374,3.74-2.996c2.661,0.437,4.973,1.605,5.437,4.472c0.606,3.741,0.567,7.489-2.831,10.188
			C448.607,417.609,447.932,417.903,447.258,418.296z"/>
		<path fill-rule="evenodd" clip-rule="evenodd" fill="#FCFDFE" d="M712.132,424.929c-0.805-3.753-0.399-6.786-0.407-9.797
			c-0.008-3.177,0.133-6.358-0.033-9.525c-0.15-2.868,1.426-3.393,3.688-3.086c2.673,0.362,4.839,1.553,5.539,4.392
			c0.886,3.594,0.485,6.97-2.23,9.737c-0.67,0.684-1.585,1.126-2.411,1.695c0.67,0.943,1.761,1.228,2.695,1.767
			c0.764,0.44,2.295,0.747,1.488,1.98c-0.735,1.126-1.753-0.02-2.545-0.47c-0.854-0.484-1.679-1.045-2.438-1.667
			c-1.709-1.4-2.442-1.075-2.355,1.168C713.162,422.168,713.268,423.274,712.132,424.929z"/>
		<path fill-rule="evenodd" clip-rule="evenodd" fill="#F7FCFD" d="M352.123,50.934c0,2.844-0.059,5.689,0.02,8.531
			c0.054,1.972-0.854,2.817-2.743,2.787c-3.424-0.056-6.315-2.521-6.919-5.899c-0.802-4.474,0.958-9.229,4.202-10.03
			c2.664-0.658,4.125-1.605,3.726-4.535c-0.088-0.653-0.096-1.757,1.004-1.659c0.759,0.067,0.765,0.973,0.77,1.618
			c0.021,3.062,0.009,6.124,0.009,9.186C352.168,50.934,352.145,50.934,352.123,50.934z"/>
		<path fill-rule="evenodd" clip-rule="evenodd" fill="#F7FCFD" d="M582.596,402.782c1.327,0.636,0.918,1.866,0.921,2.869
			c0.018,5.359-0.12,10.72-0.025,16.077c0.052,2.932-1.268,3.665-3.877,3.09c-3.847-0.85-5.771-3.152-5.898-7.157
			c-0.159-5.028,1.486-7.97,5.388-8.882c2.036-0.477,2.709-1.436,2.593-3.39C581.643,404.482,581.444,403.371,582.596,402.782z"/>
		<path fill-rule="evenodd" clip-rule="evenodd" fill="#FAFCFD" d="M366.622,53.833c0,2.074,0.085,4.153-0.032,6.22
			c-0.069,1.219-0.04,2.981-2.089,1.167c-0.813-0.721-1.843,0.226-2.78,0.376c-1.61,0.259-3.311,0.728-4.562-0.801
			c-0.962-1.174-1.21-2.596-0.63-4.01c0.771-1.878,2.39-2.615,4.26-2.292c3.54,0.611,4.425-1.026,4.025-4.166
			c-0.179-1.4-0.077-2.834-0.105-4.253c-0.053-2.701-1.032-4.413-4.138-4.074c-0.762,0.083-2.083,0.427-2.06-0.836
			c0.018-1.034,1.259-0.948,2.121-1.018c3.909-0.318,4.858,0.562,5.536,4.552C366.683,47.739,366.638,50.781,366.622,53.833z"/>
		<path fill-rule="evenodd" clip-rule="evenodd" fill="#FAFDFD" d="M160.874,417.524c0,1.203,0.12,2.421-0.028,3.606
			c-0.217,1.729,0.525,4.555-3.115,2.865c-0.793-0.368-2.084,0.434-3.163,0.558c-2.313,0.266-3.861-0.588-4.058-3.108
			c-0.191-2.462,0.765-3.957,3.409-4.215c5.252-0.511,5.252-0.548,5.101-5.971c-0.021-0.765-0.081-1.528-0.142-2.292
			c-0.211-2.684-1.009-4.724-4.361-4.195c-0.684,0.107-1.761,0.275-1.834-0.789c-0.071-1.028,0.943-0.97,1.688-1.066
			c4.195-0.547,5.626,0.607,5.982,4.8c0.139,1.631,0.388,3.255,0.47,4.888c0.082,1.637,0.018,3.28,0.018,4.92
			C160.852,417.524,160.863,417.524,160.874,417.524z"/>
		<path fill-rule="evenodd" clip-rule="evenodd" fill="#FAFDFD" d="M438.207,417.216c0,1.312,0.102,2.635-0.025,3.935
			c-0.176,1.796,0.389,4.466-3.132,2.839c-0.71-0.328-1.872,0.408-2.84,0.539c-2.393,0.322-4.15-0.351-4.367-3.101
			c-0.211-2.688,0.987-4.157,3.755-4.195c0.766-0.011,1.541-0.086,2.295,0.01c1.863,0.235,2.603-0.538,2.484-2.391
			c-0.11-1.744-0.019-3.5-0.115-5.245c-0.166-2.968-0.799-5.521-4.754-4.823c-0.61,0.106-1.472,0.065-1.509-0.812
			c-0.034-0.816,0.737-0.909,1.398-1.038c4.118-0.804,5.936,0.585,6.29,4.805c0.138,1.631,0.385,3.254,0.472,4.888
			c0.081,1.526,0.017,3.061,0.017,4.591C438.187,417.216,438.196,417.216,438.207,417.216z"/>
		<path fill-rule="evenodd" clip-rule="evenodd" fill="#FAFDFD" d="M500.786,52.721c0,1.126,0,1.781,0,2.436
			c0,6.712,0,6.677-6.521,6.688c-2.307,0.004-3.508-1.207-3.714-3.291s0.798-3.553,2.977-4.027c1.675-0.364,3.977,0.797,4.951-0.656
			c1.195-1.78,0.442-4.24,0.397-6.4c-0.1-4.722-0.144-4.722-4.92-5.429c-0.523-0.077-1.212,0.019-1.309-0.671
			c-0.12-0.856,0.614-0.998,1.25-1.161c3.659-0.944,5.729,0.434,6.476,4.176C500.956,47.31,500.673,50.256,500.786,52.721z"/>
		<path fill-rule="evenodd" clip-rule="evenodd" fill="#F8FCFD" d="M485.463,40.333c1.185,0.618,0.847,1.601,0.85,2.396
			c0.016,5.466-0.098,10.933-0.01,16.396c0.046,2.803-1.232,3.391-3.693,2.888c-3.605-0.737-5.651-2.801-6.064-6.338
			c-0.463-3.962,1.23-8.559,4.107-9.219c3.06-0.702,4.128-2.28,4.237-5.085C484.902,41.024,485.256,40.69,485.463,40.333z"/>
		<path fill-rule="evenodd" clip-rule="evenodd" fill="#F6FBFD" d="M437.735,50.889c-0.001-3.063-0.018-6.127,0.01-9.19
			c0.007-0.722-0.198-1.798,0.813-1.864c0.98-0.064,0.994,0.964,1.031,1.717c0.043,0.874,0.09,1.755,0.017,2.624
			c-0.152,1.841,0.604,2.402,2.464,2.447c4.347,0.104,5.364,1.215,5.461,5.523c0.057,2.513-0.02,5.032-0.104,7.545
			c-0.023,0.733-0.108,1.788-1.05,1.766c-1.114-0.026-0.747-1.128-0.76-1.814c-0.049-2.714,0.801-5.355,0.25-8.153
			c-0.492-2.501-1.86-3.31-4.092-3.183c-2.402,0.136-2.174,1.945-2.166,3.608c0.015,2.844,0.013,5.688-0.038,8.532
			c-0.013,0.729-0.059,1.719-1.134,1.584c-0.835-0.105-0.685-1.01-0.689-1.624C437.721,57.234,437.736,54.061,437.735,50.889z"/>
		<path fill-rule="evenodd" clip-rule="evenodd" fill="#F7FCFD" d="M478.588,413.382c0-3.062-0.012-6.122,0.009-9.184
			c0.004-0.656,0.099-1.537,0.835-1.593c1.131-0.085,0.918,0.969,0.97,1.674c0.055,0.762,0.087,1.537,0.006,2.294
			c-0.221,2.065,0.461,2.859,2.724,2.834c4.021-0.043,5.081,1.104,5.197,5.028c0.08,2.729-0.01,5.465-0.084,8.196
			c-0.019,0.704,0.055,1.776-1.051,1.642c-1.06-0.127-0.838-1.174-0.709-1.866c0.484-2.601,0.58-5.208,0.38-7.837
			c-0.169-2.201-1.38-3.424-3.55-3.52c-1.688-0.073-2.978,0.408-2.914,2.566c0.093,3.168,0.035,6.342-0.002,9.512
			c-0.009,0.705,0.151,1.757-0.969,1.682c-0.745-0.05-0.827-0.938-0.831-1.589C478.576,419.941,478.588,416.662,478.588,413.382z"/>
		<path fill-rule="evenodd" clip-rule="evenodd" fill="#FBFDFE" d="M232.737,415.592c0,0.767,0.029,1.534-0.005,2.3
			c-0.099,2.176,0.279,4.375-0.313,6.526c-1.952-0.545-3.855-0.199-5.814,0.111c-2.343,0.371-3.771-0.74-3.894-3.251
			c-0.115-2.33,0.794-3.738,3.255-4.052c1.678-0.215,3.973,0.935,4.908-0.687c0.996-1.729,0.404-4.06,0.208-6.13
			c-0.041-0.435-0.23-0.865-0.214-1.293c0.12-3.061-0.922-4.875-4.387-4.337c-0.71,0.11-1.791,0.199-1.813-0.84
			c-0.021-0.961,0.996-0.933,1.759-1.023c4.168-0.497,5.769,0.827,6.155,5.122c0.029,0.327,0.046,0.656,0.047,0.984
			c0.004,2.189,0.002,4.379,0.002,6.569C232.666,415.592,232.701,415.592,232.737,415.592z"/>
		<path fill-rule="evenodd" clip-rule="evenodd" fill="#F8FCFD" d="M511.438,51.984c1.103-3.417,2.151-6.853,3.349-10.236
			c0.267-0.755,0.134-2.442,1.549-1.91c1.186,0.446,0.406,1.759,0.123,2.624c-0.784,2.392-1.637,4.762-2.54,7.111
			c-1.305,3.392-2.428,6.796-1.987,10.523c0.084,0.709,0.126,1.747-0.955,1.72c-0.781-0.02-0.906-0.905-0.841-1.552
			c0.598-5.83-2.241-10.842-3.8-16.158c-0.215-0.735-0.494-1.452-0.704-2.188c-0.182-0.636-0.367-1.381,0.484-1.636
			c0.854-0.255,1.116,0.48,1.313,1.103c1.123,3.535,2.226,7.078,3.335,10.617C510.988,51.996,511.213,51.99,511.438,51.984z"/>
		<path fill-rule="evenodd" clip-rule="evenodd" fill="#F8FCFD" d="M264.94,414.919c1.13-3.503,2.225-7.019,3.418-10.5
			c0.252-0.733,0.221-2.175,1.328-1.904c1.387,0.339,0.648,1.622,0.391,2.491c-0.403,1.362-0.975,2.673-1.417,4.024
			c-1.484,4.542-3.848,8.884-3.174,13.929c0.082,0.612,0.089,1.464-0.745,1.604c-0.904,0.151-1.086-0.674-1.028-1.299
			c0.588-6.283-2.546-11.667-4.132-17.425c-0.252-0.915-1.406-2.271,0.201-2.746c1.264-0.373,1.278,1.254,1.553,2.081
			c1.063,3.2,2,6.443,2.983,9.67C264.526,414.869,264.733,414.895,264.94,414.919z"/>
		<path fill-rule="evenodd" clip-rule="evenodd" fill="#F9FCFD" d="M405.332,47.785c-0.41,3.185,0.304,5.496,3.928,6.372
			c1.961,0.475,2.316,2.41,2.21,4.297c-0.096,1.708-0.873,2.961-2.507,3.479c-1.759,0.559-3.173-0.322-4.471-1.396
			c-0.441-0.365-0.771-0.836-0.375-1.4c0.44-0.63,0.939-0.323,1.385,0.041c1.428,1.166,3.104,1.909,4.08-0.172
			c1.079-2.304-0.616-3.336-2.633-3.889c-1.632-0.448-2.511-1.53-2.911-3.197c-0.839-3.511-0.609-6.948,0.471-10.345
			c0.548-1.725,1.851-2.385,3.591-2.093c1.665,0.28,2.735,1.333,3.197,2.923c0.177,0.609,0.187,1.376-0.602,1.672
			c-0.677,0.255-0.996-0.268-1.174-0.798c-0.377-1.123-0.902-2.153-2.297-1.705c-1.158,0.372-1.571,1.466-1.677,2.609
			C405.434,45.379,405.399,46.584,405.332,47.785z"/>
		<path fill-rule="evenodd" clip-rule="evenodd" fill="#F8FCFD" d="M761.778,414.852c1.073-3.299,2.096-6.616,3.254-9.885
			c0.321-0.908,0.209-2.809,1.548-2.375c1.575,0.51,0.396,2.087,0.091,3.119c-0.592,1.989-1.356,3.931-2.093,5.875
			c-1.396,3.694-2.774,7.382-2.258,11.46c0.079,0.627,0.019,1.481-0.824,1.537c-0.853,0.057-1.02-0.767-0.959-1.407
			c0.593-6.286-2.576-11.66-4.155-17.419c-0.239-0.873-1.201-2.158,0.008-2.604c1.582-0.582,1.505,1.235,1.801,2.106
			c1.078,3.159,1.989,6.375,2.964,9.569C761.362,414.836,761.57,414.844,761.778,414.852z"/>
		<path fill-rule="evenodd" clip-rule="evenodd" fill="#F8FCFD" d="M381.867,39.205c1.19,2.172,0.212,3.57-0.231,4.97
			c-1.67,5.276-4.606,10.238-3.832,16.104c0.085,0.643-0.049,1.477-0.854,1.542c-0.857,0.069-1.017-0.749-0.956-1.399
			c0.56-6.056-2.51-11.226-4.052-16.768c-0.117-0.421-0.315-0.822-0.412-1.247c-0.163-0.717-0.596-1.664,0.334-2.009
			c1.01-0.375,1.222,0.655,1.443,1.353c0.727,2.294,1.395,4.607,2.109,6.906c0.353,1.133,0.755,2.252,1.3,3.865
			C379.117,48.176,379.217,43.434,381.867,39.205z"/>
		<path fill-rule="evenodd" clip-rule="evenodd" fill="#FAFDFD" d="M501.541,410.834c0.132,2.709,0.393,5.077,3.634,5.831
			c1.84,0.428,2.847,1.929,2.826,3.939c-0.016,1.629-0.51,3.022-1.996,3.867c-1.697,0.965-3.168,0.072-4.597-0.716
			c-0.637-0.351-1.477-0.845-0.853-1.769c0.551-0.814,1.096-0.125,1.631,0.201c1.372,0.835,2.923,1.676,3.754-0.467
			c0.696-1.795-0.008-3.276-2.044-3.694c-2.623-0.54-3.532-2.388-3.686-4.735c-0.191-2.938-0.354-5.896,0.701-8.747
			c0.541-1.46,1.417-2.456,3.133-2.322c1.825,0.144,3.024,1.121,3.669,2.803c0.248,0.647,0.308,1.383-0.362,1.749
			c-0.794,0.434-1.126-0.215-1.4-0.857c-0.396-0.924-0.855-1.902-2.098-1.65c-1.278,0.26-1.604,1.347-1.762,2.475
			C501.895,408.145,501.713,409.55,501.541,410.834z"/>
		<path fill-rule="evenodd" clip-rule="evenodd" fill="#FAFDFD" d="M166.806,410.804c-0.382,3.158,0.588,5.257,3.993,6.03
			c1.833,0.417,2.396,2.199,2.429,3.895c0.035,1.754-0.819,3.164-2.496,3.897c-1.642,0.719-2.954-0.205-4.252-1.01
			c-0.578-0.358-1.104-0.918-0.708-1.615c0.494-0.869,1.077-0.272,1.598,0.106c1.4,1.019,2.947,1.514,3.834-0.389
			c0.865-1.852-0.12-3.239-2.043-3.665c-2.585-0.572-3.372-2.274-3.763-4.678c-0.508-3.12-0.115-6.091,0.79-9.022
			c0.518-1.68,1.865-2.439,3.602-2.069c1.608,0.342,2.708,1.367,3.045,3.044c0.11,0.546,0.058,1.166-0.482,1.452
			c-0.603,0.32-1.035-0.059-1.25-0.63c-0.396-1.049-0.762-2.214-2.223-1.834c-1.437,0.373-1.501,1.779-1.737,2.909
			C166.898,408.391,166.908,409.609,166.806,410.804z"/>
		<path fill-rule="evenodd" clip-rule="evenodd" fill="#FAFDFD" d="M405.364,410.772c-0.363,3.135,0.539,5.279,3.965,6.048
			c1.839,0.413,2.41,2.181,2.458,3.877c0.05,1.756-0.796,3.166-2.464,3.916c-1.64,0.738-2.956-0.177-4.255-0.979
			c-0.57-0.352-1.123-0.885-0.747-1.604c0.472-0.904,1.06-0.328,1.583,0.056c1.389,1.018,2.933,1.552,3.846-0.339
			c0.889-1.842-0.075-3.25-1.999-3.683c-2.569-0.578-3.389-2.244-3.792-4.657c-0.521-3.124-0.099-6.09,0.777-9.025
			c0.5-1.68,1.839-2.459,3.582-2.106c1.616,0.327,2.715,1.355,3.072,3.021c0.116,0.54,0.08,1.156-0.455,1.465
			c-0.599,0.345-1.036-0.014-1.26-0.583c-0.406-1.032-0.739-2.222-2.207-1.869c-1.455,0.349-1.521,1.758-1.761,2.885
			C405.461,408.359,405.468,409.578,405.364,410.772z"/>
		<path fill-rule="evenodd" clip-rule="evenodd" fill="#F6FBFD" d="M415.818,417.625c3.308-0.645,2.848-2.915,2.854-4.954
			c0.009-2.735,0.031-5.471,0.046-8.206c0.005-0.921,0.1-1.953,1.279-1.862c1.064,0.082,0.776,1.083,0.758,1.835
			c-0.077,3.281,0.112,6.593-0.268,9.837c-0.305,2.604,2.549,1.869,2.819,3.061c0.392,1.737-3.319,0.642-2.783,3.155
			c0.226,1.058,0.003,2.246,1.394,2.658c0.627,0.186,1.411,0.356,1.085,1.249c-0.349,0.956-1.233,0.799-1.953,0.55
			c-1.513-0.524-2.37-1.727-2.298-3.254C418.842,419.696,418.234,418.363,415.818,417.625z"/>
		<path fill-rule="evenodd" clip-rule="evenodd" fill="#F6FBFD" d="M424.704,54.717c3.971-0.6,3.91-2.626,3.847-4.761
			c-0.075-2.514,0.005-5.033,0.05-7.549c0.018-1.034-0.365-2.595,1.207-2.533c1.472,0.058,0.743,1.535,0.743,2.405
			c0.001,2.735-0.121,5.47-0.118,8.205c0.002,1.537-0.566,3.509,2.121,3.457c0.508-0.01,0.863,0.429,0.735,0.854
			c-0.101,0.338-0.548,0.621-0.9,0.828c-2.622,1.539-2.752,3.042-0.331,4.815c0.444,0.325,1.048,0.454,0.828,1.15
			c-0.254,0.808-0.967,0.82-1.617,0.683c-1.591-0.334-2.618-1.458-2.603-2.97C428.687,57.154,428.109,55.597,424.704,54.717z"/>
		<path fill-rule="evenodd" clip-rule="evenodd" fill="#F6FBFD" d="M461.31,409.399c0,1.641,0.241,3.327-0.055,4.913
			c-0.486,2.61,2.582,1.817,2.811,3.053c0.315,1.7-3.34,0.631-2.797,3.161c0.227,1.062,0.031,2.24,1.427,2.633
			c0.639,0.181,1.399,0.39,1.041,1.271c-0.378,0.932-1.257,0.771-1.976,0.506c-1.647-0.607-2.281-1.942-2.328-3.605
			c-0.038-1.315,0.125-2.614-1.741-2.979c-1.022-0.199-1.193-1.242-0.086-1.473c2.302-0.48,1.759-2.163,1.793-3.587
			c0.071-2.952,0.047-5.907,0.067-8.86c0.006-0.921,0.125-1.949,1.312-1.819c1.056,0.116,0.729,1.12,0.719,1.865
			c-0.023,1.641-0.007,3.281-0.007,4.922C461.43,409.399,461.369,409.399,461.31,409.399z"/>
		<path fill-rule="evenodd" clip-rule="evenodd" fill="#F6FBFD" d="M615.651,417.427c3.398-0.441,2.894-2.73,2.879-4.752
			c-0.019-2.519,0.008-5.025,0.43-7.524c0.222-1.309,0.716-2.295,2.007-2.725c0.64-0.213,1.4-0.277,1.794,0.356
			c0.469,0.755-0.038,1.206-0.777,1.405c-1.531,0.412-1.563,1.644-1.571,2.876c-0.014,2.189,0.015,4.38-0.017,6.569
			c-0.022,1.579-0.165,3.089,2.151,3.201c0.982,0.047,1.319,1.35,0.349,1.464c-3.143,0.369-2.547,2.29-2.177,4.257
			c0.162,0.86,0.475,1.976-0.66,2.214c-1.616,0.338-1.329-1.195-1.365-2.006C618.597,420.574,618.618,418.424,615.651,417.427z"/>
		<path fill-rule="evenodd" clip-rule="evenodd" fill="#F6FBFD" d="M187.227,417.067c2.911-0.17,2.91-1.979,2.838-3.927
			c-0.102-2.733-0.047-5.464,0.44-8.176c0.292-1.626,1.116-2.601,2.805-2.617c0.348-0.004,0.804,0.309,1.026,0.611
			c0.316,0.43,0.006,0.966-0.395,1.057c-2.492,0.564-1.975,2.537-2.013,4.216c-0.047,2.078,0.238,4.196-0.067,6.229
			c-0.399,2.661,2.696,1.686,2.94,3.037c0.333,1.845-3.485,0.331-2.859,2.96c0.227,0.953,0.318,1.941,0.417,2.919
			c0.072,0.708-0.132,1.362-0.952,1.451c-0.876,0.096-1.06-0.554-1.113-1.265c-0.082-1.089-0.322-2.188-0.234-3.263
			C190.212,418.431,188.204,418.714,187.227,417.067z"/>
		<path fill-rule="evenodd" clip-rule="evenodd" fill="#F4FBFD" d="M317.534,52.064c0-2.298-0.046-4.598,0.014-6.895
			c0.049-1.866-0.182-3.353-2.635-2.95c-0.633,0.104-1.464,0.271-1.633-0.584c-0.214-1.077,0.791-1.255,1.488-1.305
			c2.069-0.145,4.149-0.164,6.226-0.192c0.571-0.008,1.184,0.252,1.264,0.835c0.085,0.627-0.495,0.951-1.062,0.985
			c-2.162,0.132-1.898,1.744-1.9,3.126c-0.008,4.707,0.073,9.413,0.021,14.118c-0.011,0.952,0.455,2.617-1.134,2.555
			c-1.262-0.049-0.814-1.57-0.838-2.473c-0.062-2.406-0.021-4.814-0.021-7.222C317.393,52.064,317.463,52.064,317.534,52.064z"/>
		<path fill-rule="evenodd" clip-rule="evenodd" fill="#F4FBFD" d="M77.625,403.841c-4.357,0.708-3.458,3.769-3.468,6.361
			c-0.016,4.158,0.047,8.316,0.01,12.475c-0.008,0.78,0.148,2.022-1.165,1.88c-0.984-0.108-0.8-1.18-0.794-1.9
			c0.042-4.705,0.106-9.411,0.205-14.115c0.044-2.108,0.135-4.154-3.01-3.515c-0.55,0.112-1.158,0.017-1.288-0.669
			c-0.129-0.677,0.412-1.035,0.94-1.111C71.795,402.854,74.556,402.387,77.625,403.841z"/>
		<path fill-rule="evenodd" clip-rule="evenodd" fill="#FAFDFD" d="M365.214,417.528c4.283-0.749,4.057-3.134,4.04-5.449
			c-0.018-2.403,0.021-4.806,0.062-7.209c0.014-0.828-0.29-2.04,0.933-2.087c1.279-0.05,1.028,1.19,0.993,1.995
			c-0.124,2.832-0.375,5.658-0.472,8.489c-0.053,1.552-0.53,3.499,2.132,3.453c0.478-0.009,0.847,0.306,0.847,0.8
			c0,0.479-0.406,0.66-0.808,0.881c-2.897,1.589-3.036,3.193-0.397,4.796c0.465,0.283,1.117,0.359,0.944,1.052
			c-0.193,0.773-0.9,0.902-1.58,0.818c-1.67-0.208-2.663-1.279-2.552-2.866C369.523,419.865,368.699,418.359,365.214,417.528z"/>
		<path fill-rule="evenodd" clip-rule="evenodd" fill="#F5FBFD" d="M644.083,415.62c0.112-3.604-0.073-7.221,0.532-10.802
			c0.111-0.659,0.185-1.455,1.028-1.373c0.826,0.08,0.812,0.859,0.775,1.544c-0.245,4.692-0.278,9.407-0.793,14.069
			c-0.304,2.748,0.211,3.979,3.165,3.612c0.861-0.107,2.361-0.581,2.48,0.732c0.125,1.363-1.397,1.018-2.281,1.11
			c-4.902,0.517-4.904,0.498-4.907-4.297C644.083,418.686,644.083,417.152,644.083,415.62z"/>
		<path fill-rule="evenodd" clip-rule="evenodd" fill="#F7FCFD" d="M249.894,414.188c0-2.956-0.02-5.912,0.014-8.868
			c0.008-0.768,0.173-1.772,1.077-1.77c1.149,0.004,0.78,1.114,0.753,1.789c-0.177,4.48-0.284,8.969-0.662,13.433
			c-0.247,2.901,0.434,4.448,3.687,3.887c0.665-0.115,1.793-0.368,1.926,0.649c0.172,1.315-1.089,1.072-1.872,1.179
			c-0.974,0.134-1.979,0.052-2.946,0.212c-1.621,0.266-2.183-0.429-2.159-1.97c0.044-2.846,0.013-5.693,0.013-8.541
			C249.781,414.188,249.837,414.188,249.894,414.188z"/>
		<path fill-rule="evenodd" clip-rule="evenodd" fill="#FAFCFD" d="M237.945,414.041c0-2.625-0.053-5.252,0.028-7.874
			c0.03-0.972-0.49-2.694,1.047-2.593c1.459,0.095,0.806,1.785,0.776,2.758c-0.128,4.146-0.276,8.299-0.621,12.432
			c-0.237,2.834,0.362,4.482,3.666,3.9c0.729-0.129,2.02-0.43,1.99,0.911c-0.021,0.951-1.126,0.828-1.855,0.904
			c-0.979,0.103-1.988,0.024-2.94,0.229c-1.895,0.407-2.271-0.536-2.241-2.139c0.054-2.842,0.015-5.687,0.015-8.529
			C237.855,414.041,237.9,414.041,237.945,414.041z"/>
		<path fill-rule="evenodd" clip-rule="evenodd" fill="#FAFDFD" d="M666.676,418.157c1.435,0.504,1.049,1.568,1.301,2.317
			c0.452,1.343,0.634,2.918,2.582,2.81c1.809-0.1,2.204-1.448,2.484-2.933c0.733-3.895,0.572-7.816,0.504-11.742
			c-0.017-0.968-0.645-2.173,0.801-2.963c1.185,1.391,0.623,2.975,0.646,4.397c0.057,3.487,0.055,6.984-0.137,10.465
			c-0.115,2.093-1.231,3.716-3.354,4.403c-1.5,0.486-2.877,0.131-3.858-1.055C666.268,422.192,666.015,420.292,666.676,418.157z"/>
		<path fill-rule="evenodd" clip-rule="evenodd" fill="#F7FCFD" d="M316.775,424.71c0-5.776-0.004-11.519,0.005-17.261
			c0.001-0.684,0.161-1.393,0.986-1.425c0.613-0.024,0.969,0.51,0.955,1.104c-0.138,5.842,0.258,11.717-1.007,17.492
			C317.7,424.678,317.339,424.659,316.775,424.71z"/>
		<path fill-rule="evenodd" clip-rule="evenodd" fill="#F7FCFD" d="M397.641,61.948c-1.111-2.337-0.554-4.801-0.645-7.191
			c-0.128-3.368-0.045-6.742-0.035-10.114c0.002-0.683,0.178-1.378,1.016-1.378c0.624,0,0.935,0.539,0.924,1.131
			C398.796,50.261,399.076,56.157,397.641,61.948z"/>
		<path fill-rule="evenodd" clip-rule="evenodd" fill="#F8FCFD" d="M493.483,424.713c0-5.827-0.007-11.653,0.011-17.48
			c0.001-0.53,0.072-1.175,0.779-1.234c0.835-0.07,1.18,0.552,1.153,1.244c-0.221,5.819-0.481,11.637-0.73,17.455
			C494.292,424.702,493.888,424.708,493.483,424.713z"/>
		<path fill-rule="evenodd" clip-rule="evenodd" fill="#F8FCFD" d="M199.688,424.716c0-3.284-0.003-6.567,0.001-9.852
			c0.003-2.508,0.002-5.017,0.031-7.524c0.008-0.655,0.093-1.407,0.989-1.359c0.598,0.032,0.972,0.551,0.949,1.146
			c-0.231,5.871-0.491,11.741-0.742,17.61C200.507,424.729,200.097,424.723,199.688,424.716z"/>
		<path fill-rule="evenodd" clip-rule="evenodd" fill="#E48429" d="M348.319,131.477c0.449,0.648,1.776,1.608,0.87,2.012
			c-2.039,0.906-3.172,4.362-6.278,2.479C344.402,134.095,346.12,132.496,348.319,131.477z"/>
		<path fill-rule="evenodd" clip-rule="evenodd" fill="#E48429" d="M365.992,128.806c-3.592-0.022-7.185-0.043-10.779-0.064
			C358.812,127.681,362.407,127.387,365.992,128.806z"/>
		<path fill-rule="evenodd" clip-rule="evenodd" fill="#7EDDF2" d="M336.531,155.08c-0.237,0.004-0.474,0.009-0.71,0.014
			c0.016-2.435,0.029-4.869,0.051-7.304c0.001-0.086,0.057-0.225,0.121-0.249c0.461-0.168,0.462,0.234,0.579,0.49
			C337.493,150.386,337.384,152.734,336.531,155.08z"/>
		<path fill-rule="evenodd" clip-rule="evenodd" fill="#ADB49A" d="M336.531,155.08c0.013-2.35,0.026-4.7,0.04-7.05
			c0.166-0.084,0.339-0.149,0.52-0.195c0.484,0.433,0.343,1.016,0.375,1.557c-0.102,1.654,0.224,3.326-0.202,4.967
			c-0.078,0.481-0.157,0.961-0.235,1.442C336.862,155.561,336.696,155.32,336.531,155.08z"/>
		<path fill-rule="evenodd" clip-rule="evenodd" fill="#E1F4FA" d="M675.382,403.719c0.012,0.67-0.367,0.987-0.979,1.057
			c-0.467,0.053-0.895-0.094-1.029-0.575c-0.184-0.654,0.224-1.064,0.787-1.207C674.731,402.85,675.233,403.045,675.382,403.719z"/>
		<path fill-rule="evenodd" clip-rule="evenodd" fill="#F4FBFD" d="M494.621,404.678c-0.474,0.042-0.844-0.095-0.946-0.608
			c-0.097-0.482,0.114-0.853,0.565-0.997c0.632-0.205,1.064,0.091,1.116,0.729C495.393,404.246,495.134,404.611,494.621,404.678z"/>
		<path fill-rule="evenodd" clip-rule="evenodd" fill="#F3FAFC" d="M318.667,403.832c-0.082,0.443-0.247,0.837-0.771,0.854
			c-0.625,0.02-1.021-0.268-0.945-0.945c0.058-0.508,0.465-0.71,0.909-0.719C318.358,403.012,318.592,403.367,318.667,403.832z"/>
		<path fill-rule="evenodd" clip-rule="evenodd" fill="#F3FAFC" d="M398.842,41.097c-0.084,0.518-0.365,0.847-0.842,0.828
			c-0.604-0.024-1.016-0.333-0.85-1.024c0.116-0.482,0.496-0.662,0.961-0.641C398.659,40.284,398.76,40.707,398.842,41.097z"/>
		<path fill-rule="evenodd" clip-rule="evenodd" fill="#F4FBFD" d="M201.596,403.962c-0.081,0.511-0.452,0.722-0.898,0.732
			c-0.484,0.01-0.831-0.3-0.806-0.784c0.032-0.607,0.391-0.979,1.054-0.876C201.46,403.115,201.605,403.494,201.596,403.962z"/>
		<path fill-rule="evenodd" clip-rule="evenodd" fill="#F0F9FC" d="M521.895,60.635c0.452,0.028,0.824,0.225,0.874,0.688
			c0.048,0.449-0.227,0.784-0.693,0.835c-0.46,0.05-0.813-0.163-0.837-0.66C521.218,61.064,521.379,60.695,521.895,60.635z"/>
		<path fill-rule="evenodd" clip-rule="evenodd" fill="#F0F9FC" d="M772.48,423.412c0.46,0.106,0.723,0.426,0.676,0.866
			c-0.051,0.47-0.447,0.676-0.89,0.655c-0.521-0.024-0.668-0.43-0.638-0.863C771.662,423.576,772.016,423.401,772.48,423.412z"/>
		<path fill-rule="evenodd" clip-rule="evenodd" fill="#E48429" d="M337.274,149.213c-0.062-0.459-0.123-0.919-0.184-1.378
			c0.216-0.705,0.432-1.409,0.648-2.115c0.017,1.158,0.035,2.315,0.052,3.473C337.633,149.56,337.459,149.549,337.274,149.213z"/>
		<path fill-rule="evenodd" clip-rule="evenodd" fill="#FDD093" d="M398.77,291.181c-2.948-2.709-5.445-5.925-8.982-7.971
			c-3.793-3.25-8.293-5.134-12.955-6.706c-1.231-0.416-2.69-0.653-2.299-2.516c1.549-7.386,4.441-14.046,10.382-19.04
			c2.402,2.089,3.176,5.611,6.269,7.089c1.642,1.888,3.621,2.066,5.917,1.382c5.743-1.711,10.519-5.072,15.194-8.643
			c1.365-1.042,2.44-2.513,4.233-2.949c1.825-0.026,3.007,1.187,4.289,2.213c3.626,3.377,7.417,3.532,12.085,0.44
			c1.263-0.836,2.387-1.906,3.972-2.144c1.384-0.077,2.519,0.561,3.574,1.331c3.407,2.489,7.052,4.618,10.58,6.924
			c4.703,3.859,8.995,3.725,13.231-0.482c0.57-0.567,1.101-1.044,1.946-1.015c1.825,0.341,2.67,1.78,3.513,3.187
			c1.812,3.027,2.918,6.35,3.785,9.736c0.944,3.688,0.214,5.164-3.436,6.592c-11.772,4.61-20.168,12.745-25.445,24.157
			c-2.027,4.386-3.379,8.966-3.649,13.838c-0.221,3.993-1.46,5.41-5.311,6.347c-5.911,1.437-11.923,1.131-17.921,0.987
			c-1.244-0.029-2.294-0.646-3.266-1.385c-1.009-1.105-1.231-2.538-1.492-3.912C410.981,308.065,405.98,299.055,398.77,291.181z"/>
		<path fill-rule="evenodd" clip-rule="evenodd" fill="#FDD093" d="M359.424,343.745c-1.17,0.136-1.666-1.059-2.628-1.332
			c-8.15-6.764-13.485-15.089-14.663-25.844c-1.885-17.201,10.785-33.842,32.036-29.651c9.056,1.786,15.787,7.203,21.356,14.282
			c0.481,1.004,0.963,2.008,1.446,3.011c2.895,8.507,0.418,16.379-3.779,23.535c-6.212,10.591-15.517,16.719-28.246,16.677
			C363.07,344.417,361.279,343.842,359.424,343.745z"/>
		<path fill-rule="evenodd" clip-rule="evenodd" fill="#D67C27" d="M475.251,156.227c0.641,0.948,1.282,1.896,1.923,2.844
			c3.409,9.17,5.694,18.521,5.142,28.43c-0.399,7.16-1.974,14.023-4.49,20.703c0.83,2.921-1.396,4.892-2.427,7.142
			c-2.748,5.993-6.833,11.033-12.084,15.086c-0.646,0.189-1.328,0.215-1.94-0.005c-7.253-2.615-13.485-0.155-19.415,3.857
			c-0.452,0.306-0.962,0.544-1.358,0.915c-3.685,3.465-7.403,4.332-11.979,1.222c-3.271-2.224-6.728-0.641-9.859,1.16
			c-0.972,0.264-1.772,1.008-2.831,1.032c-1.618-0.035-2.82-0.986-4.082-1.836c-3.329-2.243-6.618-4.562-10.354-6.109
			c-2.44-1.011-4.978-1.393-7.633-1.302c-3.932,0.136-6.801,1.79-8.457,5.417c-0.694,0.462-1.476,0.517-2.151,0.119
			c-3.867-2.276-6.949-5.408-9.556-9.019c-0.396-0.548-0.276-1.241,0.237-1.776c6.838,1.33,13.75,1.483,20.686,1.32
			c2.6-0.062,5.134-0.409,7.577-1.324c0.593-0.515,1.288-0.322,1.96-0.281c6.046,2.313,12.387,3.876,18.77,3.709
			c8.312-0.218,16.342-2.255,23.648-6.661c5.932-3.577,10.92-7.921,14.001-14.267c1.843-3.798,1.892-7.791,1.719-11.843
			c-0.051-1.173-0.744-2.02-1.609-2.737c-1.829-2.022-3.425-4.25-5.441-6.118c-0.691-0.64-1.519-1.333-1.146-2.511
			c3.604-9.826,5.803-19.885,5.297-30.44c-0.247-5.153-1.114-10.181-2.387-15.163c-0.253-0.989-1.171-1.968-0.267-3.074
			c1.906-0.778,3.041,0.632,4.272,1.588c5.728,4.444,10.091,10.054,13.745,16.26C475.452,153.715,476.161,154.864,475.251,156.227z"
			/>
		<path fill-rule="evenodd" clip-rule="evenodd" fill="#FED7A8" d="M390.217,214.979c-5.615-4.831-8.139-11.032-7.694-18.334
			c0.299-4.914,3.53-8.107,7.384-10.659c6.328-4.19,13.487-6.227,20.854-7.485c10.769-1.838,21.529-1.94,32.177,0.957
			c2.246,1.416,2.573,3.696,2.614,6.037c0.148,8.473-3.59,15.166-9.686,20.72c-1.292,1.177-2.68,2.31-4.235,3.091
			c-2.228,1.117-3.493,2.783-3.77,5.238c-2.276,1.424-2.827-0.072-3.2-1.881c0.021-1.308,0.41-2.639-0.233-3.911
			c-0.232-0.926-0.243-1.907-0.692-2.781c-0.084-0.313-0.138-0.63-0.167-0.953c-0.489-2.571-0.416-5.198-0.859-7.787
			c-0.382-2.237,0.63-4.052,2.758-5.087c1.179-0.574,2.344-1.161,3.377-1.987c1.919-1.534,3.088-3.326,2.391-5.935
			c-0.744-2.783-3.027-2.337-5.039-2.493c-2.328-0.579-4.685-0.833-7.08-0.647c-2.469,0.337-4.858,0.882-6.792,2.62
			c-1.518,2.229-1.119,4.409,1.175,6.451c1.608,1.432,3.58,2.048,5.631,2.417c2.14,0.384,3.057,1.663,3.458,3.751
			c1.01,5.261,0.572,10.651,1.623,15.91c0.438,2.188-0.664,3.572-3.057,3.632c-1.31,0.033-2.621,0.024-3.927,0.014
			c-6.865-0.804-13.068-3.412-18.9-7.026c1.422,0.812,2.786,1.712,4.227,2.482c1.452,0.775,3.032,1.261,4.479,2.034
			c1.251,0.668,2.756,1.262,1.646,3.188c-5.083,1.839-10.161,1.505-15.193-0.132C392.371,216.056,391.313,215.448,390.217,214.979z"
			/>
		<path fill-rule="evenodd" clip-rule="evenodd" fill="#FDD093" d="M312.18,239.856c0.031-15.324,6.743-25.345,15.769-28.182
			c3.271-1.028,6.512-0.253,8.03,2.634c6.65,12.649,9.826,25.726,3.806,39.613c-0.69,1.592-1.583,3.142-2.63,4.522
			c-2.472,3.256-6.464,4.194-9.927,2.021C317.946,254.643,312.326,246.525,312.18,239.856z"/>
		<path fill-rule="evenodd" clip-rule="evenodd" fill="#FDD093" d="M390.217,214.979c5.07,0.358,10.046,1.845,15.199,1.25
			c1.163-0.134,2.424,0.241,3.395-0.748c1.463-1.416,3.064-0.571,4.596-0.221c1.271,0.29,2.552,0.513,3.83,0.753
			c5.493,1.447,10.598-0.349,15.729-1.896c1.668-0.56,3.214-1.398,4.801-2.143c4.039-2.217,7.48-5.214,10.81-8.359
			c-3.676,3.406-7.523,6.578-12.008,8.888c-1.549,0.891-3.257,1.408-4.895,2.094c-1.338,0.411-2.688,0.937-3.851-0.384
			c-2.338-2.186-1.064-3.581,1.062-4.756c6.08-3.36,10.815-7.971,13.571-14.454c2.179-5.125,2.499-10.298,0.483-15.548
			c4.013,0.486,7.568,2.266,11.162,3.938c3.004,2.103,5.55,4.611,7.078,8.017c2.248,5.132,1.49,10.193-0.613,15.103
			c-2.55,5.952-7.206,10.148-12.533,13.466c-6.639,4.133-13.873,6.424-21.801,7.241c-7.73,0.797-14.867-1.013-22.128-2.789
			c-1.865-0.739-3.646-1.625-5.113-3.039C395.96,219.398,392.554,217.921,390.217,214.979z"/>
		<path fill-rule="evenodd" clip-rule="evenodd" fill="#FDD093" d="M346.446,143.379c3.846-5.091,8.443-9.058,15.039-10.027
			c2.626-0.394,5.25-0.542,7.866,0.075c2.815,1.117,5.713,1.982,8.242,3.814c1.478,1.07,1.647,1.728,0.346,2.979
			c-9.418,9.05-15.346,20.012-17.782,32.839c-0.413,2.174-1.825,1.725-3.234,1.518c-3.658-0.251-6.062-2.166-7.361-5.548
			c-2.444-2.714-4.445-5.675-5.194-9.332c-0.832-1.182,0.17-2.672-0.651-3.855c-0.708-0.93-0.703-1.859,0-2.789
			c0.826-1.189-0.189-2.69,0.658-3.876c-0.2-2.244,1.921-3.657,2.067-5.778L346.446,143.379z"/>
		<path fill-rule="evenodd" clip-rule="evenodd" fill="#F64051" d="M385.058,234.616c-0.063-3.205,1.547-4.971,4.592-5.863
			c5.625-1.649,10.827-0.667,15.688,2.305c3.624,2.216,7.089,4.692,10.626,7.053c0.327,3.122-1.125,4.362-4.476,3.659
			c-2.981-0.626-5.898-1.891-9.053-0.484c3.016,0.961,6.19,1.111,9.232,1.865c0.961,0.237,2.2,0.431,2.331,1.499
			c0.169,1.369-1.207,1.703-2.215,1.992c-3.463,0.994-7.021,1.732-10.272,4.483c3.658-0.936,6.724-2.194,9.887-3.132
			c2.799-0.829,3.601-0.294,4.364,2.558c-0.447,1.138-1.108,2.135-2.027,2.938c-4.469,3.902-9.391,7.115-14.885,9.366
			c-2.779,1.14-5.663,1.582-8.474-0.063c-3.272-1.602-5.202-4.138-5.46-7.841c0.044-2.181,0.661-4.165,1.556-6.177
			c1.281-2.88,2.058-5.938,0.011-8.902C384.994,238.395,383.572,236.899,385.058,234.616z"/>
		<path fill-rule="evenodd" clip-rule="evenodd" fill="#FDD093" d="M473.903,153.076c-4.723-7.052-9.904-13.674-17.16-18.358
			c-3.6-3.087-7.88-4.998-12.104-6.994c0.483-0.295,0.963-0.592,1.442-0.888c0.887-0.912,1.579-2.026,2.741-2.654
			c3.228-2.776,6.717-5.001,11.129-5.279c7.744-1.231,14.887,4.222,18.052,11.625c2.797,6.541,2.542,13.175-0.69,19.563
			C476.624,151.452,476.039,153.232,473.903,153.076z"/>
		<path fill-rule="evenodd" clip-rule="evenodd" fill="#CC7625" d="M362.381,270.112c-0.569-3.495-0.118-7.016-0.267-10.521
			c5.887-2.092,10.745-6.067,16.459-8.729C375.602,259.307,369.616,265.225,362.381,270.112z"/>
		<path fill-rule="evenodd" clip-rule="evenodd" fill="#262326" d="M404.723,168.256c1.46,4.775-0.64,9.18-4.967,10.417
			c-4.248,1.214-8.771-1.138-9.917-5.155c-1.313-4.603,1.028-8.641,5.761-9.936c0.589,0.594,1.577-0.19,2.109,0.608
			c0.497,1.609-1.207,2.162-1.615,3.35c-0.52,1.512-0.763,3.011,0.352,4.312c1.034,1.206,2.341,1.907,4.044,1.47
			c1.736-0.445,2.529-1.557,2.501-3.313c0.097-0.663,0.338-1.256,0.833-1.727C404.116,168.052,404.417,168.044,404.723,168.256z"/>
		<path fill-rule="evenodd" clip-rule="evenodd" fill="#252326" d="M435.679,164.927c1.058-1.783,2.502-3.012,4.643-3.246
			c1.307,0.507,2.615,0.482,3.926,0.017c3.939,1.278,6.089,4.118,5.934,7.837c-0.151,3.626-2.662,6.604-6.226,7.386
			c-3.849,0.844-6.906-0.757-8.943-4.683c-0.389-0.662-0.378-1.203,0.45-1.498c0.576,0.061,0.991,0.39,1.353,0.814
			c1.759,2.066,3.7,1.541,5.45,0.146c1.7-1.354,1.779-3.285,0.613-4.968c-1.289-1.859-3.026-2.89-5.198-1.047
			c-0.428,0.262-0.886,0.383-1.387,0.315C435.796,165.809,435.431,165.542,435.679,164.927z"/>
		<path fill-rule="evenodd" clip-rule="evenodd" fill="#4F1409" d="M404.109,151.206c1.394,1.93,0.004,2.961-1.333,3.934
			c-1.087,0.792-2.462,1.311-3.707,1.06c-3.448-0.696-6.14,0.716-8.839,2.513c-1.031,0.686-2.11,1.534-4.067,1.393
			c1.593-3.829,4.041-6.484,7.405-8.388C397.027,150.421,400.561,150.659,404.109,151.206z"/>
		<path fill-rule="evenodd" clip-rule="evenodd" fill="#501409" d="M435.065,153.766c-1.646-0.347-2.963-1.216-2.868-3
			c0.078-1.502,1.405-2.071,2.789-2.295c0.472-0.321,0.759-0.022,1.043,0.296c2.292,0.802,4.67-0.216,6.97,0.338
			c3.769,1.379,6.591,3.792,8.798,7.765c-3.146-0.192-5.203-1.735-7.521-2.448c-0.154,0.003-0.309,0.006-0.462,0.009
			c-1.234-0.024-2.471,0.094-3.7-0.104C438.494,153.571,436.771,153.749,435.065,153.766z"/>
		<path fill-rule="evenodd" clip-rule="evenodd" fill="#CD7625" d="M385.058,234.616c0.475,1.751,0.95,3.503,1.425,5.255
			c-5.209-2.754-8.956-7.083-12.43-11.673c-2.133-2.819-4.208-5.7-5.102-9.259c2.077,1.356,2.721,4.045,4.986,5.166
			C376.538,228.78,380.724,231.776,385.058,234.616z"/>
		<path fill-rule="evenodd" clip-rule="evenodd" fill="#3B393C" d="M404.041,170.075c0.19,2.931-1.796,4.094-4.124,4.601
			c-2.272,0.496-4.215-0.696-5.128-2.67c-0.984-2.129-0.998-4.469,1.055-6.26c0.572-0.5,1.185-0.951,1.779-1.424
			c0.437-0.884,1.42-0.186,1.988-0.689c1.078,0.001,1.908,0.514,2.623,1.267c0.228,0.239,0.282,0.517,0.185,0.829
			c-0.505,0.772-1.36,0.992-2.129,1.355c-1.029,0.486-1.396,1.335-1.064,2.387c0.375,1.185,1.311,1.291,2.342,0.951
			C402.375,170.154,403.15,169.728,404.041,170.075z"/>
		<path fill-rule="evenodd" clip-rule="evenodd" fill="#E48429" d="M349.561,169.029c2.599,1.657,4.45,4.307,7.361,5.548
			c-0.022,0.285-0.046,0.569-0.069,0.854c-3.987-0.413-7.408-2.136-10.525-4.559C347.406,170.258,348.483,169.644,349.561,169.029z"
			/>
		<path fill-rule="evenodd" clip-rule="evenodd" fill="#632D20" d="M404.109,151.206c-0.524,0.364-1.223,1.157-1.545,1.025
			c-2.962-1.209-6.02-0.094-8.995-0.514C397.617,149.149,401.153,148.978,404.109,151.206z"/>
		<path fill-rule="evenodd" clip-rule="evenodd" fill="#663225" d="M442.999,149.106c-2.237,1.237-4.999,0.39-7.214,1.833
			c-0.478,0.311-1.454,0.392-1.615-0.465c-0.188-1.001,0.766-1.138,1.494-1.341c1.208-1.723,3.097-0.521,4.579-1.065
			C441.211,148.283,442.226,148.374,442.999,149.106z"/>
		<path fill-rule="evenodd" clip-rule="evenodd" fill="#E58225" d="M354.891,261.595c-2.935,0.975-5.882,1.889-9.003,2.035
			c-0.618-0.066-1.235-0.132-1.853-0.198C347.75,263.247,350.978,260.2,354.891,261.595z"/>
		<path fill-rule="evenodd" clip-rule="evenodd" fill="#ED7B15" d="M359.37,188.018c-0.536-2.231-0.558-4.462-0.001-6.693
			C360.562,183.555,360.56,185.787,359.37,188.018z"/>
		<path fill-rule="evenodd" clip-rule="evenodd" fill="#D17825" d="M398.989,221.393c1.668,0.6,3.283,1.295,4.574,2.567
			c0.415,0.282,0.403,0.545-0.036,0.789c-0.443-0.215-0.886-0.431-1.328-0.646C401.223,223.088,398.954,223.605,398.989,221.393z"/>
		<path fill-rule="evenodd" clip-rule="evenodd" fill="#3D0605" d="M435.065,153.766c1.758-0.945,3.51-0.985,5.254,0.034
			c-0.219,0.388-0.56,0.569-0.995,0.592c-0.136-0.005-0.271-0.01-0.408-0.015C437.62,154.247,436.267,154.486,435.065,153.766z"/>
		<path fill-rule="evenodd" clip-rule="evenodd" fill="#E48429" d="M369.351,133.428c-2.623-0.025-5.245-0.05-7.867-0.075
			C364.115,132.452,366.738,132.355,369.351,133.428z"/>
		<path fill-rule="evenodd" clip-rule="evenodd" fill="#EC7C18" d="M310.114,239.314c0-2.277,0-4.555,0-6.833
			c0.487,2.296,1.366,4.616,0.002,6.846C310.116,239.327,310.114,239.314,310.114,239.314z"/>
		<path fill-rule="evenodd" clip-rule="evenodd" fill="#443A36" d="M435.624,170.955c-0.204,0.427-0.408,0.855-0.612,1.283
			c-1.103-2.044-0.962-4.096-0.039-6.153c0.499,0.217,0.813,0.603,1.014,1.096c0.495,1.147,0.683,2.3,0.045,3.463
			C435.896,170.748,435.76,170.852,435.624,170.955z"/>
		<path fill-rule="evenodd" clip-rule="evenodd" fill="#0E1725" d="M399.611,163.632c-0.52,0.645-1.253,0.668-1.988,0.688
			c-0.751-0.035-1.505-0.064-2.024-0.738C396.944,162.984,398.28,163.111,399.611,163.632z"/>
		<path fill-rule="evenodd" clip-rule="evenodd" fill="#63240F" d="M440.243,148.068c-1.526,0.355-3.052,0.711-4.579,1.066
			c-0.227-0.222-0.452-0.442-0.678-0.663C436.67,147.447,438.465,147.859,440.243,148.068z"/>
		<path fill-rule="evenodd" clip-rule="evenodd" fill="#F2770C" d="M337.274,149.213c0.172-0.008,0.345-0.015,0.517-0.021
			c-0.182,1.722,0.469,3.529-0.527,5.167C337.267,152.644,337.271,150.929,337.274,149.213z"/>
		<path fill-rule="evenodd" clip-rule="evenodd" fill="#F38E2C" d="M444.275,154.423c-1.795,1.001-3.582,1.02-5.359-0.047
			l0.022,0.011c1.783-0.428,3.563-0.483,5.339,0.039L444.275,154.423z"/>
		<path fill-rule="evenodd" clip-rule="evenodd" fill="#4D403A" d="M402.171,165.827c0.021-0.31,0.042-0.62,0.063-0.929
			c1.278,0.787,2.168,1.861,2.489,3.358l-0.295,0.006l-0.294-0.025C402.394,168.318,401.996,167.306,402.171,165.827z"/>
		<path fill-rule="evenodd" clip-rule="evenodd" fill="#E48429" d="M344.374,149.178c-0.083,1.316,0.17,2.688-0.658,3.876
			C343.828,151.744,343.34,150.332,344.374,149.178z"/>
		<path fill-rule="evenodd" clip-rule="evenodd" fill="#E48429" d="M343.716,155.842c0.846,1.179,0.552,2.55,0.651,3.855
			C343.344,158.548,343.826,157.145,343.716,155.842z"/>
		<path fill-rule="evenodd" clip-rule="evenodd" fill="#0F1826" d="M444.247,161.698c-1.312,0.899-2.621,0.908-3.926-0.017
			C441.632,161.295,442.94,161.314,444.247,161.698z"/>
		<path fill-rule="evenodd" clip-rule="evenodd" fill="#EC7A15" d="M409.413,124.169c0.134-0.14,0.288-0.168,0.462-0.085
			c0.625,0.092,1.25,0.184,2.31,0.34C410.889,125.04,410.121,124.884,409.413,124.169z"/>
		<path fill-rule="evenodd" clip-rule="evenodd" fill="#E48429" d="M346.441,143.4c-0.467-0.193-1.062-0.291-1.058-0.939
			c0.001-0.169,0.387-0.336,0.597-0.504c0.155,0.474,0.31,0.948,0.466,1.423C346.446,143.379,346.441,143.4,346.441,143.4z"/>
		<path fill-rule="evenodd" clip-rule="evenodd" fill="#413A38" d="M435.048,167.546c-0.024-0.487-0.049-0.973-0.074-1.46
			c0.235-0.386,0.47-0.772,0.705-1.159c0.23,0.233,0.462,0.467,0.692,0.7C436.688,166.789,436.607,167.677,435.048,167.546z"/>
		<path fill-rule="evenodd" clip-rule="evenodd" fill="#E48329" d="M414.689,322.043c7.546,1.432,15.016,0.812,22.47-0.74
			c1.988-0.414,2.268-1.811,2.366-3.396c0.887-14.213,7.474-25.355,18.398-34.154c3.792-3.055,8.078-5.258,12.672-6.771
			c1.888-0.621,2.372-1.468,1.924-3.321c-1.245-5.151-2.991-10.053-6.4-14.219c-0.289-0.147-0.48-0.373-0.562-0.688
			c-0.001-2.282,0.604-4.7-1.492-6.506c-0.695-1.04-1.229-2.134-1.134-3.435c-0.454-4.03,1.253-7.807,1.374-11.768
			c-0.421-2.506,0.845-4.53,2.271-6.25c5.322-6.412,8.408-13.958,11.379-21.584c0.119-0.308,0.293-0.581,0.511-0.827
			c6.688-5.718,13.732-10.833,22.373-13.258c1.476-0.415,2.949-0.81,4.505-0.664c1.782,0.325,3.562-0.016,5.344-0.028
			c6.902,0.454,12.306,3.927,16.43,9.097c7.885,9.884,9.35,20.941,4.646,32.682c-2.357,5.882-6.798,9.759-12.615,12.199
			c-9.638,4.042-19.804,5.248-30.103,5.817c-0.653,0.035-1.306,0.097-1.958,0.146c-0.934,1.03-2.301,0.358-3.56,0.893
			c0.856,2.687,2.624,4.714,4.445,6.711c0.142,0.294,0.206,0.604,0.211,0.927c-0.375,1.451-0.182,2.891,0.088,4.329
			c-0.006,1.003,0.163,2.04-0.61,2.879c-0.097,0.648-0.121,1.318-0.303,1.943c-0.63,2.177,0.085,3.025,2.405,3.414
			c5.938,0.995,11.254,3.447,15.567,7.794c2.722,8.463,2.201,17.089,1.287,25.734c-0.343,0.121-0.655,0.067-0.938-0.159
			c-1.053-1.09-1.159-2.566-1.551-3.916c-2.965-10.218-11.889-16.599-22.324-17.168c-13.653-0.745-27.538,9.462-32.317,24.21
			c-0.433,1.337-0.632,2.812-1.998,3.619c-1.18-0.148-0.806,1.242-1.521,1.573c-0.202,2.441,0.094,4.898-0.153,7.334
			c0.329-2.517-0.241-5.09,0.316-7.598c0.24-0.32,0.539-0.399,0.907-0.242c1.447,1.254,1.28,2.981,1.185,4.58
			c-0.332,5.544,1.181,10.569,3.951,15.303c0.693,1.186,1.717,2.385,0.65,3.895c-4.377,0.005-7.073-3.349-10.495-5.254
			c-1.467-1.994-0.803-5.627-3.024-6.391c-2.084-0.717-4.843,0.606-7.317,0.929c-4.66,0.609-9.34,0.29-14.014,0.19
			c-0.416,0.379-0.804,0.429-1.145-0.095c-0.716-0.243-1.433-0.487-2.15-0.73c-1.979-2.127-1.309-4.572-0.845-6.994
			C414.105,321.802,414.391,321.788,414.689,322.043z"/>
		<path fill-rule="evenodd" clip-rule="evenodd" fill="#CC7525" d="M478.466,208.382c-1.493,8.178-4.768,15.539-9.95,22.067
			c-1.442,1.817-3.535,3.369-3.227,6.138c-0.333,0.226-0.656,0.212-0.971-0.038c-1.29-2.044-1.558-4.244-0.998-6.57
			c0.959-2.972,3.816-4.349,5.594-6.645c3.618-4.672,6.433-9.797,8.911-15.13C478.039,208.264,478.253,208.323,478.466,208.382z"/>
		<path fill-rule="evenodd" clip-rule="evenodd" fill="#CC7727" d="M487.489,262.22c-3.498-1.416-4.442-4.818-5.947-7.753
			c-0.512-0.996,0.167-1.42,1.138-1.204c1.478,0.33,2.938,0.737,4.407,1.111c0.206,1.732,0.412,3.465,0.619,5.196
			C488.275,260.506,488.508,261.414,487.489,262.22z"/>
		<path fill-rule="evenodd" clip-rule="evenodd" fill="#8BE6FD" d="M488.285,259.599c0.019-0.214,0.007-0.437,0.063-0.64
			c0.09-0.319,0.501-0.546,0.508-0.145c0.06,3.855,0.028,7.712,0.011,11.568c0,0.065-0.153,0.13-0.234,0.195
			c-0.12-0.168-0.24-0.335-0.36-0.504C487.518,266.581,487.524,263.09,488.285,259.599z"/>
		<path fill-rule="evenodd" clip-rule="evenodd" fill="#9ECECD" d="M488.285,259.599c-0.004,3.491-0.008,6.984-0.012,10.477
			c-0.204,0.018-0.407,0.03-0.612,0.037c-0.048-1.113-0.097-2.227-0.146-3.34c-0.316-1.288-0.35-2.575,0.022-3.859
			c-0.017-0.231-0.032-0.462-0.049-0.693c0.072-0.883,0.145-1.766,0.217-2.649C487.899,259.573,488.093,259.582,488.285,259.599z"/>
		<path fill-rule="evenodd" clip-rule="evenodd" fill="#EE7912" d="M510.688,194.433c-1.775,1.125-3.558,1.104-5.344,0.028
			C507.122,193.945,508.903,193.946,510.688,194.433z"/>
		<path fill-rule="evenodd" clip-rule="evenodd" fill="#EA7D1C" d="M483.202,155.182c0.098-2.024,1.181-3.085,3.179-3.252
			C485.587,153.273,484.489,154.32,483.202,155.182z"/>
		<path fill-rule="evenodd" clip-rule="evenodd" fill="#CC7625" d="M414.028,322.202c1.541,2.166,0.219,4.604,0.651,6.876
			c-1.962-0.361-3.925-0.722-5.888-1.082c0.231-2.258,0.463-4.517,0.695-6.774C411.237,320.453,412.838,320.37,414.028,322.202z"/>
		<path fill-rule="evenodd" clip-rule="evenodd" fill="#6DC5E4" d="M416.829,329.809c0.382,0.031,0.764,0.063,1.145,0.095
			c-0.363,0.201-0.709,0.516-1.093,0.572c-0.407,0.06-0.991,0.37-1.246-0.321C416.032,330.039,416.431,329.925,416.829,329.809z"/>
		<path fill-rule="evenodd" clip-rule="evenodd" fill="#FDD093" d="M452.824,340.429c-5.003-7.129-6.885-15.044-5.961-23.666
			c-0.392-0.422-0.378-0.805,0.111-1.142c1.8-6.61,4.582-12.679,9.13-17.934c8.345-9.642,22.811-14.07,33.868-9.818
			c9.472,3.643,14.95,10.648,16.145,20.839c0.281,3.242-0.621,6.255-2.144,9.018c-8.434,15.311-20.821,24.924-38.671,26.579
			c-3.476,0.323-6.678-0.551-9.793-1.949C454.615,341.713,453.72,341.071,452.824,340.429z"/>
		<path fill-rule="evenodd" clip-rule="evenodd" fill="#ECC289" d="M455.51,342.355c5.646,0.431,11.236,0.853,16.883-0.536
			c12.644-3.109,21.711-10.816,28.558-21.51c2.3-3.592,3.91-7.524,5.166-11.6c0.164,0.102,0.331,0.198,0.503,0.287
			c1.016,15.291-5.062,27.071-17.886,35.251C477.757,351.249,464.034,350.318,455.51,342.355z"/>
		<path fill-rule="evenodd" clip-rule="evenodd" fill="#ECC289" d="M359.424,343.745c1.722-0.979,3.623-0.771,5.446-0.659
			c12.591,0.772,25.419-9.266,29.542-20.891c2.082-5.869,2.663-11.854,2.558-17.983c8.62,13.546,6.455,33.129-7.841,41.167
			C379.019,351.062,369.025,349.772,359.424,343.745z"/>
		<path fill-rule="evenodd" clip-rule="evenodd" fill="#E3BA84" d="M414.028,322.202c-1.462-0.569-3.215,0.213-4.542-0.979
			c-0.195-11.22-3.984-21.154-10.716-30.042c8.164,6.729,13,15.439,15.213,25.684c0.367,1.697,0.478,3.45,0.707,5.179
			C414.469,322.096,414.249,322.149,414.028,322.202z"/>
		<path fill-rule="evenodd" clip-rule="evenodd" fill="#E79A4B" d="M448.822,124.182c-0.687,1.119-1.492,2.115-2.741,2.654
			c0.5-1.227,1.037-2.431,2.064-3.331C448.37,123.73,448.597,123.956,448.822,124.182z"/>
		<path fill-rule="evenodd" clip-rule="evenodd" fill="#EEC38A" d="M473.903,153.076c6.581-9.775,6.417-19.196-1.103-27.937
			c-3.22-3.741-7.499-6.362-12.85-6.237c10.431-2.852,23.114,6.42,24.382,17.763c0.749,6.709-1.074,12.564-5.59,17.56
			c-0.919,1.016-1.77,2.316-3.492,2.001C474.802,155.177,474.353,154.126,473.903,153.076z"/>
		<path fill-rule="evenodd" clip-rule="evenodd" fill="#84D8EE" d="M294.478,411.754c-0.16,1.142,0.537,3.3-1.771,4.483
			c-3.172,1.626-5.824,0.38-6.534-3.151c-0.33-1.638-0.119-3.237,0.129-4.879c0.449-2.975,2.277-3.677,4.918-3.508
			c2.616,0.167,3.242,1.824,3.257,4.03C294.482,409.495,294.478,410.261,294.478,411.754z"/>
		<path fill-rule="evenodd" clip-rule="evenodd" fill="#85D9EE" d="M290.166,423.317c-0.944-0.292-2.726,0.493-2.655-0.961
			c0.085-1.763,2.001-1.169,3.176-1.189c0.956-0.018,2.733-0.55,2.669,0.847C293.278,423.755,291.334,423.025,290.166,423.317z"/>
		<path fill-rule="evenodd" clip-rule="evenodd" fill="#84D8EE" d="M349.688,411.448c-0.209,1.156,0.567,3.187-1.337,4.525
			c-2.878,2.022-6.177,0.744-6.933-2.709c-0.357-1.635-0.192-3.233,0.048-4.88c0.419-2.866,2.024-3.845,4.775-3.704
			c2.804,0.143,3.448,1.853,3.446,4.193C349.687,409.531,349.688,410.188,349.688,411.448z"/>
		<path fill-rule="evenodd" clip-rule="evenodd" fill="#85D9EE" d="M345.571,423.354c-0.998-0.434-2.902,0.639-2.858-1.127
			c0.038-1.494,1.883-1.114,2.979-1.057c1.033,0.053,2.901-0.697,2.874,0.974C348.542,423.594,346.659,423.045,345.571,423.354z"/>
		<path fill-rule="evenodd" clip-rule="evenodd" fill="#84D8EE" d="M460.142,50.041c0.159,1.997,0.32,4.116-3.123,4.029
			c-2.25-0.057-3.238-0.703-3.051-3.021c0.194-2.396,0.168-4.81,0.361-7.206c0.068-0.851,0.421-1.789,1.38-2.077
			c1.119-0.338,1.851,0.407,2.487,1.188C459.81,44.936,460.212,47.276,460.142,50.041z"/>
		<path fill-rule="evenodd" clip-rule="evenodd" fill="#84D8EE" d="M595.517,412.927c0.342,2.272-0.057,4.025-3.291,3.909
			c-2.109-0.075-3.026-0.719-2.871-2.864c0.181-2.507,0.184-5.026,0.397-7.53c0.072-0.844,0.489-1.766,1.498-1.96
			c0.965-0.185,1.65,0.427,2.23,1.119C595.204,407.658,595.615,410.102,595.517,412.927z"/>
		<path fill-rule="evenodd" clip-rule="evenodd" fill="#85D9EE" d="M603.823,410.811c0-0.98-0.065-1.967,0.017-2.94
			c0.092-1.105-0.488-2.614,1.178-2.997c1.55-0.357,3.041-0.077,4.139,1.271c2.233,2.74,1.256,8.059-1.806,9.805
			c-2.326,1.327-3.323,0.796-3.438-1.871c-0.047-1.087-0.008-2.178-0.008-3.267C603.877,410.811,603.85,410.811,603.823,410.811z"/>
		<path fill-rule="evenodd" clip-rule="evenodd" fill="#85D9EE" d="M743.233,411.129c0.052-1.35-0.058-3.098,0.495-4.784
			c0.742-2.266,2.229-2.647,3.71-0.739c2.18,2.81,2.777,6.18,2.124,9.577c-0.47,2.439-2.811,1.385-4.389,1.562
			c-1.629,0.184-1.985-0.928-1.946-2.297C743.257,413.47,743.233,412.491,743.233,411.129z"/>
		<path fill-rule="evenodd" clip-rule="evenodd" fill="#84D8EE" d="M379.789,413.984c0.09-2.069-0.124-4.154,0.465-6.193
			c0.44-1.524,0.855-3.003,2.868-3.016c1.94-0.013,3.591,0.69,4.095,2.615c1.299,4.963,0.375,9.746-1.745,14.314
			c-0.478,1.029-1.501,1.604-2.73,1.435c-1.341-0.187-2.069-1.015-2.448-2.31C379.633,418.573,379.893,416.271,379.789,413.984z"/>
		<path fill-rule="evenodd" clip-rule="evenodd" fill="#84D8EE" d="M302.727,414.14c0.136-2.342,0.129-4.324,0.403-6.268
			c0.218-1.55,0.818-3.009,2.799-3.097c1.801-0.081,3.405,0.474,4.014,2.222c1.805,5.182,0.541,10.127-1.611,14.899
			c-0.471,1.042-1.606,1.466-2.819,1.205c-1.327-0.284-2.172-1.169-2.317-2.462C302.938,418.362,302.857,416.064,302.727,414.14z"/>
		<path fill-rule="evenodd" clip-rule="evenodd" fill="#84D8EE" d="M681.438,414.164c0.094-2.178-0.144-4.373,0.503-6.517
			c0.425-1.412,0.831-2.78,2.65-2.862c1.922-0.085,3.654,0.525,4.199,2.441c1.442,5.067,0.463,9.949-1.756,14.601
			c-0.485,1.017-1.563,1.529-2.791,1.289c-1.179-0.23-1.879-0.947-2.249-2.114C681.284,418.755,681.535,416.45,681.438,414.164z"/>
		<path fill-rule="evenodd" clip-rule="evenodd" fill="#84D8EE" d="M328.375,51.546c0.113-2.307,0.087-4.29,0.344-6.235
			c0.22-1.667,0.791-3.26,2.957-3.309c1.961-0.043,3.497,0.71,4.076,2.635c1.497,4.989,0.293,9.734-1.664,14.325
			c-0.497,1.166-1.708,1.683-3.06,1.347c-1.32-0.328-2.098-1.27-2.236-2.551C328.556,55.587,328.491,53.398,328.375,51.546z"/>
		<path fill-rule="evenodd" clip-rule="evenodd" fill="#84D8EE" d="M83.227,414.229c0.13-2.247,0.129-4.338,0.409-6.391
			c0.212-1.556,0.847-2.996,2.826-3.067c1.801-0.064,3.394,0.502,3.994,2.256c1.774,5.186,0.534,10.131-1.646,14.895
			c-0.478,1.045-1.625,1.446-2.831,1.174c-1.322-0.298-2.147-1.197-2.294-2.488C83.436,418.438,83.362,416.25,83.227,414.229z"/>
		<path fill-rule="evenodd" clip-rule="evenodd" fill="#84D8EE" d="M543.464,414.147c0.236-2.061,0.404-4.132,0.729-6.178
			c0.247-1.556,0.753-3.032,2.716-3.186c1.971-0.153,3.646,0.604,4.181,2.468c1.415,4.938,0.492,9.734-1.562,14.326
			c-0.522,1.168-1.669,1.776-3.003,1.544c-1.496-0.259-2.221-1.309-2.35-2.767C543.991,418.289,543.305,416.271,543.464,414.147z"/>
		<path fill-rule="evenodd" clip-rule="evenodd" fill="#84D8EE" d="M444.265,410.725c0-0.983-0.071-1.973,0.019-2.948
			c0.101-1.088-0.55-2.608,1.223-2.934c1.547-0.284,3.049-0.135,4.2,1.186c2.23,2.556,1.32,8.17-1.625,9.92
			c-2.385,1.417-3.605,0.789-3.727-1.948c-0.047-1.09-0.008-2.184-0.008-3.275C444.319,410.725,444.292,410.725,444.265,410.725z"/>
		<path fill-rule="evenodd" clip-rule="evenodd" fill="#85D9EE" d="M719.744,409.453c0.028,2.236-0.123,3.749-1.099,5.023
			c-0.964,1.259-2.232,2.271-3.841,2.071c-1.957-0.244-1.107-2.054-1.288-3.183c-0.272-1.702-0.388-3.451-0.342-5.173
			c0.033-1.252-0.736-3.058,1.436-3.394c2.142-0.331,3.919,0.344,4.768,2.469C719.729,408.146,719.702,409.174,719.744,409.453z"/>
		<path fill-rule="evenodd" clip-rule="evenodd" fill="#84D8EE" d="M350.325,53.854c0,1.086,0.028,2.172-0.005,3.256
			c-0.082,2.752-1.567,3.606-3.959,2.188c-2.512-1.488-2.918-3.93-2.533-6.539c0.373-2.531,1.637-4.477,4.243-5.247
			c1.556-0.459,2.233,0.206,2.197,1.784c-0.035,1.519-0.007,3.038-0.007,4.557C350.282,53.854,350.304,53.854,350.325,53.854z"/>
		<path fill-rule="evenodd" clip-rule="evenodd" fill="#84D8EE" d="M581.655,416.408c0,1.194,0.034,2.39-0.007,3.582
			c-0.089,2.594-1.456,3.422-3.771,2.181c-2.578-1.383-3.083-3.802-2.748-6.433c0.339-2.665,1.617-4.72,4.381-5.483
			c1.327-0.367,2.097,0.114,2.077,1.596c-0.021,1.519-0.005,3.038-0.005,4.558C581.606,416.408,581.631,416.408,581.655,416.408z"/>
		<path fill-rule="evenodd" clip-rule="evenodd" fill="#87D9EE" d="M361.762,55.857c1.228,0.361,3.254,0.131,2.876,2.141
			c-0.367,1.948-2.387,1.849-3.987,1.899c-1.342,0.042-2.463-0.539-2.354-2.016C358.455,55.754,360.236,55.977,361.762,55.857z"/>
		<path fill-rule="evenodd" clip-rule="evenodd" fill="#87D9EE" d="M155.702,422.683c-1.677,0.008-3.075-0.095-3.183-1.857
			c-0.122-2.01,1.396-2.254,2.874-2.154c1.421,0.097,3.494-0.193,3.495,1.894C158.889,422.566,156.782,422.303,155.702,422.683z"/>
		<path fill-rule="evenodd" clip-rule="evenodd" fill="#87D9EE" d="M432.852,422.684c-1.517,0.007-2.905-0.11-3-1.875
			c-0.107-2.013,1.419-2.237,2.891-2.138c1.422,0.097,3.5-0.179,3.474,1.912C436.191,422.537,434.146,422.389,432.852,422.684z"/>
		<path fill-rule="evenodd" clip-rule="evenodd" fill="#89DAEF" d="M495.506,59.907c-1.777,0.076-3.073-0.39-2.964-2.068
			c0.123-1.875,1.724-2.057,3.194-1.938c1.365,0.11,3.383,0.075,3.306,1.839C498.954,59.767,496.787,59.662,495.506,59.907z"/>
		<path fill-rule="evenodd" clip-rule="evenodd" fill="#85D8EE" d="M484.478,53.502c0,0.981,0.092,1.974-0.023,2.941
			c-0.141,1.182,0.673,2.852-1.156,3.316c-1.456,0.37-2.81-0.246-3.862-1.31c-2.592-2.618-1.724-8.536,1.498-10.393
			c2.317-1.336,3.348-0.797,3.454,1.848c0.049,1.197,0.008,2.398,0.008,3.597C484.423,53.502,484.45,53.502,484.478,53.502z"/>
		<path fill-rule="evenodd" clip-rule="evenodd" fill="#87D9EE" d="M227.236,422.686c-1.294,0.023-2.475-0.205-2.53-1.811
			c-0.068-1.967,1.331-2.319,2.851-2.208c1.422,0.104,3.262-0.232,3.593,1.854C231.321,421.611,229.229,422.689,227.236,422.686z"/>
		<path fill-rule="evenodd" clip-rule="evenodd" fill="#F64051" d="M463.32,229.979c1.77,1.939,1.352,4.311,1.309,6.609
			c0.183,1.193,0.006,2.341-0.421,3.462c-1.146,3.011-1.164,6.055-0.255,9.123c0.398,0.849,0.797,1.697,1.194,2.546
			c1.272,1.932,0.771,3.973,0.365,6.006c-2.781,5.752-6.791,7.312-12.734,4.89c-0.872-0.355-1.876-0.475-2.574-1.214
			c-4.533-2.552-8.937-5.304-13.029-8.529c-1.29-0.34-2.57-0.102-3.858,0.07c-1.402,0.254-2.71,0.817-4.112,1.074
			c-5.25,0.963-9.185-1.082-12.083-5.304c-2.678-3.899-2.353-7.433,0.851-12.064c4.991-3.455,9.333-3.542,14.178,0.074
			c1.553,1.158,2.571,1.116,3.997,0.016c3.289-2.54,6.771-4.773,10.488-6.681C452.235,227.184,457.747,227.349,463.32,229.979z"/>
		<path fill-rule="evenodd" clip-rule="evenodd" fill="#D83C48" d="M417.972,236.648c-1.752,4.336-2.335,8.584,1.052,12.474
			c3.267,3.753,8.018,4.905,12.672,3.175c0.667-0.248,1.176-1.079,2.059-0.635c-0.403,2.852-2.793,4.72-6.399,4.957
			c-2.633,0.174-5.138-0.254-7.39-1.729c-1.124-0.825-2.247-1.649-3.371-2.475c-0.807-0.378-1.622-0.751-1.308-1.9
			c-0.551-1.956-1.591-2.117-3.451-1.406c-3.663,1.399-7.454,2.462-11.196,3.653c-0.63,0.2-1.435,0.425-1.823-0.181
			c-0.545-0.848,0.281-1.424,0.831-1.883c2.899-2.415,6.188-4.053,9.903-4.813c1.164-0.237,2.308-0.566,4.148-1.026
			c-5.376-1.205-10.281-1.512-15.67-3.309c4.718-2.713,8.878-2.84,13.064-1.168c2.653,1.06,4.152,0.423,4.872-2.273
			C416.634,237.623,417.303,237.135,417.972,236.648z"/>
		<path fill-rule="evenodd" clip-rule="evenodd" fill="#E3BA85" d="M415.287,250.515c0.436,0.633,0.872,1.267,1.308,1.9
			c-5.417,5.522-11.629,9.833-19.092,12.075c-2.571,0.773-5.176,0.646-7.125-1.699c9.291,0.634,15.689-5.144,22.435-10.139
			C413.686,252.006,414.465,251.23,415.287,250.515z"/>
		<path fill-rule="evenodd" clip-rule="evenodd" fill="#E4BB85" d="M419.965,254.89c5.171,1.384,10.03,1.425,13.79-3.228
			c1.781-1.408,2.455,0.311,3.42,1.21c-3.107,2.421-6.136,4.947-10.466,4.765C424.094,257.527,421.754,256.936,419.965,254.89z"/>
		<path fill-rule="evenodd" clip-rule="evenodd" fill="#E4BA85" d="M450.204,261.4c1.146,0.33,2.288,0.673,3.438,0.985
			c5.205,1.415,8.421,0.007,11.018-4.812c1.062-0.228,1.396,0.35,1.414,1.278c0.01,0.196,0.024,0.393,0.045,0.589
			C461.034,265.378,455.767,266.027,450.204,261.4z"/>
		<path fill-rule="evenodd" clip-rule="evenodd" fill="#C06F23" d="M403.527,224.749c0.012-0.262,0.024-0.525,0.036-0.789
			c4.679,0.436,9.11,2.205,13.84,2.447c14.24,0.728,26.785-3.251,37.082-13.336c6.089-5.963,7.986-13.351,6.693-21.66
			c2.055,0.467,1.942,2.233,2.108,3.717c1.111,9.896-3.088,17.598-10.69,23.302c-7.62,5.717-16.216,9.111-26.004,9.768
			C418.53,228.739,411.019,227.207,403.527,224.749z"/>
		<path fill-rule="evenodd" clip-rule="evenodd" fill="#4E1309" d="M433.872,214.956c-5.343,2.372-10.875,3.228-16.657,2.07
			c0.037-0.149,0.074-0.297,0.11-0.446c1.054-1.156,2.447-0.508,3.522-0.687c-1.292-0.328-2.795,0.557-4.235-0.181
			c-0.18-0.296-0.164-0.58,0.045-0.854c6.518,0.124,6.54,0.122,5.941-6.443c-0.356-3.907-0.911-7.8-1.146-11.714
			c-0.11-1.855-0.602-2.656-2.591-2.827c-2.652-0.228-5.057-1.382-6.935-3.347c-2.5-2.617-2.471-5.495-0.011-7.914
			c0.542-0.254,0.903,0.017,1.226,0.413c1.57,5.531,3.956,7.365,8.919,6.852c5.646-0.585,7.261-3.885,4.296-8.782
			c0.062-0.143,0.124-0.286,0.187-0.429c2.794-0.313,5.097,0.623,6.169,3.246c1.028,2.516-0.249,4.685-1.957,6.523
			c-1.13,1.216-2.532,2.306-4.112,2.599c-3.015,0.559-2.967,2.402-2.65,4.744c0.35,2.588,0.434,5.211,0.633,7.82
			c-0.661,0.696-0.312,1.569-0.417,2.363c0.095-0.796-0.234-1.666,0.416-2.365c0.208,0.913,0.415,1.826,0.622,2.74
			c0.68,1.329-0.082,2.844,0.539,4.18c-0.376,1.833,0.237,2.478,2.037,1.695c1.303-0.242,2.606-0.483,3.909-0.726
			C432.619,213.723,433.592,213.834,433.872,214.956z"/>
		<path fill-rule="evenodd" clip-rule="evenodd" fill="#4D130A" d="M416.658,214.859c0.003,0.239,0.007,0.478,0.01,0.716
			c0.428,0.244,0.757,0.553,0.733,1.099c-0.062,0.118-0.124,0.234-0.187,0.352c-2.94,0.242-5.614-0.971-8.405-1.544
			c-4.073-1.79-8.166-3.547-11.906-5.991c-0.924-0.604-2.656-1.07-1.861-2.548c0.873-1.62,2.117-0.251,3.006,0.322
			C403.783,210.963,410.021,213.392,416.658,214.859z"/>
		<path fill-rule="evenodd" clip-rule="evenodd" fill="#5F281D" d="M412.751,183.362c-0.279-0.249-0.559-0.498-0.837-0.747
			c1.883-1.79,4.315-2.09,6.718-2.47c0.223,0.251,0.335,0.542,0.317,0.88c-0.412,1.257-1.47,1.661-2.596,1.981
			C415.125,182.814,414.039,184.135,412.751,183.362z"/>
		<path fill-rule="evenodd" clip-rule="evenodd" fill="#572219" d="M418.627,180.719c0.006-0.191,0.007-0.382,0.005-0.574
			c2.662-0.213,5.367-1.074,7.909,0.524l-0.011,0.083c-1.378,1.882-3.495,0.648-5.183,1.241
			C420.242,181.998,419.281,181.683,418.627,180.719z"/>
		<path fill-rule="evenodd" clip-rule="evenodd" fill="#F1D59D" d="M425.784,212.519c-0.56-1.344-0.61-2.754-0.539-4.18
			C426.232,209.628,425.821,211.098,425.784,212.519z"/>
		<path fill-rule="evenodd" clip-rule="evenodd" fill="#4F140A" d="M436.22,211.538c4.261-2.663,8.348-5.546,11.785-9.263
			c0.715-0.775,1.573-2,2.686-1.024c1.189,1.043-0.063,2.005-0.767,2.718c-3.449,3.5-7.097,6.764-11.589,8.918
			C437.494,212.649,436.404,212.804,436.22,211.538z"/>
		<path fill-rule="evenodd" clip-rule="evenodd" fill="#4A1008" d="M436.22,211.538c0.705,0.449,1.41,0.899,2.115,1.349
			c-1.37,0.942-2.775,1.811-4.463,2.069c-0.968-0.117-1.719-0.554-2.142-1.467C433.228,212.838,434.724,212.188,436.22,211.538z"/>
		<path fill-rule="evenodd" clip-rule="evenodd" fill="#767477" d="M402.171,165.827c0.654,0.803,1.309,1.607,1.962,2.41
			c-0.031,0.613-0.062,1.226-0.092,1.838c-1.265,1.39-2.584,2.74-4.697,1.824c-1.475-0.639-2.011-1.937-1.764-3.451
			C398.021,165.755,399.891,165.389,402.171,165.827z"/>
		<path fill-rule="evenodd" clip-rule="evenodd" fill="#3B393C" d="M437.11,165.08c1.429-2.298,3.358-1.57,5.167-0.729
			c2.47,1.148,3.022,3.347,2.579,5.794c-0.45,2.489-2.292,3.645-4.623,3.952c-2.381,0.314-4.027-0.695-4.609-3.143
			c0,0.001,0.185-0.19,0.185-0.19C441.254,169.072,441.27,169,437.11,165.08z"/>
		<path fill-rule="evenodd" clip-rule="evenodd" fill="#767476" d="M437.11,165.08c1.909-0.226,3.447,0.375,4.253,2.187
			c0.574,1.292,0.362,2.6-0.763,3.53c-1.562,1.291-3.2,0.945-4.793-0.032c-0.253-1.073-0.506-2.146-0.76-3.218
			c0.441-0.641,0.883-1.28,1.324-1.919C436.618,165.444,436.863,165.262,437.11,165.08z"/>
		<path fill-rule="evenodd" clip-rule="evenodd" fill="#E48329" d="M444.277,154.426c-1.779-0.013-3.559-0.025-5.339-0.039
			c0.46-0.196,0.921-0.392,1.381-0.587C441.642,153.991,443.085,153.418,444.277,154.426z"/>
		<path fill-rule="evenodd" clip-rule="evenodd" fill="#FDD093" d="M498.879,207.906c-0.943-11.239,4.928-12.779,13.409-10.756
			c15.009,3.581,23.164,20.306,17.552,35.724c-0.825,2.268-1.867,4.424-3.133,6.48c-3.262,5.301-8.001,6.192-13.041,2.453
			c-8.531-6.328-12.545-15.19-14.141-25.362C499.07,213.541,498.593,210.61,498.879,207.906z"/>
		<path fill-rule="evenodd" clip-rule="evenodd" fill="#CD7724" d="M463.953,249.173c-2.657-4.35-1.16-8.477,0.676-12.585
			c0.221,0,0.44-0.001,0.66-0.001C465.464,240.848,463.314,244.862,463.953,249.173z"/>
		<path fill-rule="evenodd" clip-rule="evenodd" fill="#CE7825" d="M466.073,258.853c-0.472-0.426-0.942-0.852-1.414-1.277
			c0.562-1.919,0.719-3.872,0.49-5.856C467.31,253.856,466.845,256.334,466.073,258.853z"/>
		<path fill-rule="evenodd" clip-rule="evenodd" fill="#E37F23" d="M446.23,316.764c0,2.897,0,5.794,0,8.692
			c-0.384-2.904-1.32-5.82,0-8.69V316.764z"/>
		<path fill-rule="evenodd" clip-rule="evenodd" fill="#ED7A12" d="M487.538,262.913c-0.008,1.287-0.015,2.573-0.022,3.859
			C486.743,265.481,486.725,264.194,487.538,262.913z"/>
		<path fill-rule="evenodd" clip-rule="evenodd" fill="#E37F23" d="M446.975,315.621c-0.037,0.381-0.074,0.761-0.111,1.142
			c-0.21,0.001-0.422,0.001-0.633,0.001v0.002c0-0.405-0.069-0.826,0.021-1.21c0.088-0.371-0.377-1.055,0.445-1.032
			C446.799,314.526,446.882,315.238,446.975,315.621z"/>
		<path fill-rule="evenodd" clip-rule="evenodd" fill="#D83C48" d="M438.618,245.545c4.259,0.662,8.495,1.952,11.755,5.381
			c0.438,0.462,1.077,1.009,0.545,1.649c-0.249,0.299-1.043,0.373-1.495,0.236c-3.759-1.135-7.506-2.312-11.233-3.546
			c-1.269-0.42-1.958-1.364-1.745-2.783C436.627,245.265,437.427,245.208,438.618,245.545z"/>
		<path fill-rule="evenodd" clip-rule="evenodd" fill="#D83C48" d="M451.421,241.193c-2.887,2.028-5.993,1.897-8.842,2.572
			c-1.251,0.298-2.576,0.271-3.852,0.483c-1.044,0.176-1.928,0.235-2.386-0.994c-0.45-1.208,0.118-1.833,1.13-2.29
			C442.01,238.911,446.517,238.522,451.421,241.193z"/>
		<path fill-rule="evenodd" clip-rule="evenodd" fill="#663429" d="M421.143,180.795c1.796-0.015,3.592-0.029,5.388-0.043
			c1.489,0.983,3.459,1.49,3.302,3.94c-0.165,2.576-1.524,4.257-3.689,5.373c-5.04,2.6-11.479,0.966-13.408-3.306
			c-0.534-1.181-0.725-2.268,0.017-3.398c0.995-0.667,1.935-1.467,3.259-1.317c1.024,1.122,1.99,2.248,3.823,1.685
			C421.495,183.219,420.763,181.792,421.143,180.795z"/>
		<path fill-rule="evenodd" clip-rule="evenodd" fill="#410500" d="M417.401,216.674c-0.245-0.366-0.489-0.733-0.733-1.099
			c1.83,0,3.66,0,5.489,0c0.013,0.129,0.024,0.258,0.036,0.388C420.596,216.2,418.999,216.437,417.401,216.674z"/>
		<path fill-rule="evenodd" clip-rule="evenodd" fill="#3C0100" d="M424.623,205.599c-0.082,1.249-0.164,2.497-0.246,3.746
			c-0.563-1.308-0.771-2.584,0.247-3.744L424.623,205.599z"/>
		<path fill-rule="evenodd" clip-rule="evenodd" fill="#B29994" d="M421.143,180.795c0.975,0.713,2.788,1.198,1.611,2.83
			c-1.238,1.716-3.255,2.008-5.268,1.533c-1.692-0.399-2.339-1.434-1.475-3.113c0.872-0.442,1.745-0.884,2.617-1.326
			C419.466,180.745,420.304,180.77,421.143,180.795z"/>
	</g>
</g>
</svg>
