<?xml version="1.0" encoding="utf-8"?>
<!-- Generator: Adobe Illustrator 16.0.4, SVG Export Plug-In . SVG Version: 6.00 Build 0)  -->
<!DOCTYPE svg PUBLIC "-//W3C//DTD SVG 1.1//EN" "http://www.w3.org/Graphics/SVG/1.1/DTD/svg11.dtd">
<svg version="1.1" id="Calque_1" xmlns="http://www.w3.org/2000/svg" xmlns:xlink="http://www.w3.org/1999/xlink" x="0px" y="0px"
	 width="1280px" height="720px" viewBox="0 0 1280 720" enable-background="new 0 0 1280 720" xml:space="preserve">
<rect x="-4" y="3" fill="#92A55B" width="477" height="722"/>
<rect x="473" y="1" fill="#66A38B" width="471" height="722"/>
<g>
	<g>
		<defs>
			<rect id="SVGID_1_" x="-1236.497" y="-383.682" width="2207.385" height="1241.655"/>
		</defs>
		<clipPath id="SVGID_2_">
			<use xlink:href="#SVGID_1_"  overflow="visible"/>
		</clipPath>
		<path clip-path="url(#SVGID_2_)" fill="#7C694A" d="M282.235,657.228c5.612-4.863-18.504,16.238-42.62,14.229
			c-24.116-2.011-24.116-38.519-25.122-62.467c0,0-6.029-52.809,0-67.771c35.167-107.405,192.928-115.443,225.585,10.16
			c3.872,41.032,1.466,78.105-9.547,114.801c0,0-9.669,10.3-25.183,0c-13.002-6.782-15.586-7.479-26.353-10.898"/>
		<path clip-path="url(#SVGID_2_)" fill="none" stroke="#000000" stroke-width="0.3" stroke-miterlimit="10" d="M282.235,657.228
			c5.612-4.863-18.504,16.238-42.62,14.229c-24.116-2.011-24.116-38.519-25.122-62.467c0,0-6.029-52.809,0-67.771
			c35.167-107.405,192.928-115.443,225.585,10.16c3.872,41.032,1.466,78.105-9.547,114.801c0,0-9.669,10.3-25.183,0
			c-13.002-6.782-15.586-7.479-26.353-10.898"/>
		<path clip-path="url(#SVGID_2_)" fill="#D3BB93" d="M216.665,606.009c0,0-5.827-51.007,0-65.463
			c40.353-108.792,187.488-110.299,217.988,9.814c0.878,13.612,4.059,18.553,5.626,44.599c-0.102-22.369-0.731-39.777-1.912-45.014
			C405.831,424.857,248.66,432.863,213.62,539.827c-6.006,14.9-0.197,68.213-0.197,68.213c0.295,7.053,0.586,19.954,1.255,23.047
			C214.462,625.218,216.438,618.526,216.665,606.009"/>
		<g opacity="0.3" clip-path="url(#SVGID_2_)">
			<g>
				<defs>
					<rect id="SVGID_3_" x="221.924" y="489.784" width="207.891" height="171.006"/>
				</defs>
				<clipPath id="SVGID_4_">
					<use xlink:href="#SVGID_3_"  overflow="visible"/>
				</clipPath>
				<line clip-path="url(#SVGID_4_)" fill="#41AF68" x1="399.577" y1="528.951" x2="399.577" y2="528.951"/>
				<g opacity="0.4" clip-path="url(#SVGID_4_)">
					<g>
						<defs>
							<rect id="SVGID_5_" x="221.924" y="489.784" width="207.891" height="171.006"/>
						</defs>
						<clipPath id="SVGID_6_">
							<use xlink:href="#SVGID_5_"  overflow="visible"/>
						</clipPath>
						<path clip-path="url(#SVGID_6_)" d="M397.178,525.706c-24.114-7.622-64.309-0.599-71.091-28.231
							c-7.914,19.09-24.743,13.534-70.812,26.244c-43.144,22.956-22.356,102.596-13.399,123.571
							c-23.446-36.007-21.546-79.715-17.429-95.123c4.118-15.408,20.257-32.327,30.828-36.151
							c10.567-3.825,63.779-7.141,71.692-26.231c6.784,27.633,56.521,13.398,76.808,30.352c1.268,1.502,19.864,10.929,24.556,29.687
							c4.688,18.758-1.296,87.68-24.081,110.968C404.25,660.79,452.782,555.514,397.178,525.706"/>
					</g>
				</g>
			</g>
		</g>
		<path clip-path="url(#SVGID_2_)" fill="#1F1A12" d="M250.681,669.698c-0.157-0.219-0.327-0.486-0.507-0.8
			c-0.4-0.689-0.859-1.597-1.361-2.686c-5.207-11.275-15.261-41.99-15.894-49.397c4.065,7.358,31.18,36.472,48.197,39.21
			C272.695,661.595,259.997,666.693,250.681,669.698"/>
		<path clip-path="url(#SVGID_2_)" fill="#1F1A12" d="M402.13,664.076c0.312-0.248,0.695-0.763,1.139-1.494
			c4.433-7.34,15.077-40.538,15.077-44.018c-3.542,5.851-25.903,28.965-40.546,35.662c8.076,2.689,14.881,4.729,22.407,8.867
			C400.752,663.395,401.669,663.647,402.13,664.076"/>
		<line clip-path="url(#SVGID_2_)" x1="326.967" y1="495.562" x2="326.967" y2="480.49"/>
		
			<line clip-path="url(#SVGID_2_)" fill="none" stroke="#000000" stroke-width="0.2" stroke-miterlimit="10" x1="326.967" y1="495.562" x2="326.967" y2="480.49"/>
		<path clip-path="url(#SVGID_2_)" fill="#E65151" d="M363.517,459.137c0,11.792-16.757,21.354-37.43,21.354
			c-20.671,0-35.921-9.562-35.921-21.354c0-11.791,15.25-21.354,35.921-21.354C346.76,437.783,363.517,447.346,363.517,459.137"/>
		<path clip-path="url(#SVGID_2_)" fill="none" stroke="#000000" stroke-width="0.3" stroke-miterlimit="10" d="M363.517,459.137
			c0,11.792-16.757,21.354-37.43,21.354c-20.671,0-35.921-9.562-35.921-21.354c0-11.791,15.25-21.354,35.921-21.354
			C346.76,437.783,363.517,447.346,363.517,459.137z"/>
		<g opacity="0.9" clip-path="url(#SVGID_2_)">
			<g>
				<defs>
					<rect id="SVGID_7_" x="290.939" y="437.784" width="71.745" height="18.11"/>
				</defs>
				<clipPath id="SVGID_8_">
					<use xlink:href="#SVGID_7_"  overflow="visible"/>
				</clipPath>
				<path clip-path="url(#SVGID_8_)" fill="#E5E1DB" d="M362.684,454.915c-3.62-9.69-18.63-17.132-36.596-17.132
					c-17.945,0-31.806,7.423-35.148,17.096l0.45,0.914c4.002-8.869,17.464-16.166,34.698-16.166c17.3,0,31.853,7.347,36.143,16.267
					L362.684,454.915z"/>
			</g>
		</g>
		<g opacity="0.3" clip-path="url(#SVGID_2_)">
			<g>
				<defs>
					<rect id="SVGID_9_" x="290.159" y="454.882" width="73.385" height="35.655"/>
				</defs>
				<clipPath id="SVGID_10_">
					<use xlink:href="#SVGID_9_"  overflow="visible"/>
				</clipPath>
				<path clip-path="url(#SVGID_10_)" fill="#403F3A" d="M326.087,470.942c-16.99,0-30.938-6.777-35.145-16.06
					c-0.913,1.762-0.776,3.628-0.776,5.56c0,10.849,15.25,30.095,35.921,30.095c20.672,0,37.43-19.246,37.43-30.095
					c0-1.932,0.244-3.798-0.747-5.56C358.202,464.165,343.079,470.942,326.087,470.942"/>
			</g>
		</g>
		<path clip-path="url(#SVGID_2_)" fill="#7C694A" d="M240.864,493.945c-15.295-11.971-37.616-27.021-60.224-24.007
			c-9.043,36.675,19.593,76.87,31.025,76.773C215.306,530.729,226.32,511.006,240.864,493.945"/>
		<path clip-path="url(#SVGID_2_)" fill="none" stroke="#000000" stroke-width="0.3" stroke-miterlimit="10" d="M240.864,493.945
			c-15.295-11.971-37.616-27.021-60.224-24.007c-9.043,36.675,19.593,76.87,31.025,76.773
			C215.306,530.729,226.32,511.006,240.864,493.945z"/>
		<path clip-path="url(#SVGID_2_)" fill="#7C694A" d="M410.578,494.538c15.292-11.968,34.33-27.614,60.225-24.007
			c9.043,36.677-20.489,79.889-31.923,79.793C435.242,534.342,425.122,511.601,410.578,494.538"/>
		<path clip-path="url(#SVGID_2_)" fill="none" stroke="#000000" stroke-width="0.3" stroke-miterlimit="10" d="M410.578,494.538
			c15.292-11.968,34.33-27.614,60.225-24.007c9.043,36.677-20.489,79.889-31.923,79.793
			C435.242,534.342,425.122,511.601,410.578,494.538z"/>
		<path clip-path="url(#SVGID_2_)" fill="#B09063" d="M470.739,470.754c-24.197-4-45.004,11.578-59.85,23.844
			c1.51,1.771,2.661,3.184,4.102,5.002c13.726-13.158,31.081-28.127,56.127-27.149L470.739,470.754z"/>
		<path clip-path="url(#SVGID_2_)" fill="#B09A75" d="M240.864,494.057c-15.295-11.97-37.616-27.021-60.224-24.007
			c-0.049,0.192-0.091,0.388-0.134,0.581c21.612,3.703,40.784,17.46,54.976,29.958L240.864,494.057z"/>
		<path clip-path="url(#SVGID_2_)" fill="#5D4F38" d="M433.824,534.228c0,0,4.956,16.185,5.938,16.097
			c9.924-1.075,32.736-31.055,32.736-63.879C469.532,502.439,449.695,526.923,433.824,534.228"/>
		<path clip-path="url(#SVGID_2_)" fill="#F0ABAB" d="M228.769,508.13c-8.24-6.447-23.893-25.845-36.072-24.222
			c-0.792,18.088,11.054,45.818,22.725,49.726C217.381,525.023,220.933,517.321,228.769,508.13"/>
		<path clip-path="url(#SVGID_2_)" fill="none" stroke="#000000" stroke-width="0.3" stroke-miterlimit="10" d="M228.769,508.13
			c-8.24-6.447-23.893-25.845-36.072-24.222c-0.792,18.088,11.054,45.818,22.725,49.726
			C217.381,525.023,220.933,517.321,228.769,508.13z"/>
		<g opacity="0.3" clip-path="url(#SVGID_2_)">
			<g>
				<defs>
					<rect id="SVGID_11_" x="192.955" y="483.908" width="35.475" height="49.726"/>
				</defs>
				<clipPath id="SVGID_12_">
					<use xlink:href="#SVGID_11_"  overflow="visible"/>
				</clipPath>
				<path clip-path="url(#SVGID_12_)" fill="#785656" d="M215.422,533.634c2.703-3.818,9.648-21.618,13.008-25.545
					c-8.24-6.449-22.747-24.276-35.475-24.181c14.226,11.271,22.853,29.739,19.547,48.264
					C212.126,534.275,215.356,532.489,215.422,533.634"/>
			</g>
		</g>
		<path clip-path="url(#SVGID_2_)" fill="#F0ABAB" d="M422.672,508.724c8.241-6.449,23.891-25.846,36.072-24.221
			c0.793,18.087-11.053,45.816-22.726,49.725C434.059,525.616,430.509,517.916,422.672,508.724"/>
		<path clip-path="url(#SVGID_2_)" fill="none" stroke="#000000" stroke-width="0.3" stroke-miterlimit="10" d="M422.672,508.724
			c8.241-6.449,23.891-25.846,36.072-24.221c0.793,18.087-11.053,45.816-22.726,49.725
			C434.059,525.616,430.509,517.916,422.672,508.724z"/>
		<g opacity="0.3" clip-path="url(#SVGID_2_)">
			<g>
				<defs>
					<rect id="SVGID_13_" x="423.265" y="484.456" width="35.477" height="49.724"/>
				</defs>
				<clipPath id="SVGID_14_">
					<use xlink:href="#SVGID_13_"  overflow="visible"/>
				</clipPath>
				<path clip-path="url(#SVGID_14_)" fill="#785656" d="M436.276,534.18c0.092-5.229-9.651-21.616-13.011-25.545
					c8.24-6.448,22.747-24.276,35.477-24.179c-20.113,14.119-19.232,36.215-18.321,44.495
					C440.652,531.074,436.339,533.037,436.276,534.18"/>
			</g>
		</g>
		<path clip-path="url(#SVGID_2_)" fill="#872C2A" d="M281.964,718.205c-1.21-0.494-3.099-0.83-3.099-0.83
			c3.432-1.994,3.851-13.457,3.851-13.457c-8.038-14.786-3.851-39.04,9.41-42.952c19.21,4.264,46.504,5.241,69.974,0
			c14.694,4.244,18.232,35.144,11.7,43.783c1.383,2.325,3.245,11.711,3.372,12.626c-0.023,0.02-4.161,1.309-2.512,0.996
			C370.785,720.032,301.162,726.013,281.964,718.205"/>
		<path clip-path="url(#SVGID_2_)" fill="none" stroke="#000000" stroke-width="0.3" stroke-miterlimit="10" d="M281.964,720.892
			c-1.21-0.526-3.099-0.885-3.099-0.885c3.432-2.122,3.851-14.323,3.851-14.323c-8.038-15.738-3.851-41.554,9.41-45.718
			c19.21,4.538,46.504,5.578,69.974,0c14.694,4.517,18.232,37.406,11.7,46.603c1.383,2.475,3.245,12.465,3.372,13.438
			c-0.023,0.021-4.161,1.393-2.512,1.061C370.785,722.835,301.162,729.201,281.964,720.892z"/>
		<polyline clip-path="url(#SVGID_2_)" fill="#801913" points="282.221,724.914 279.757,709.956 286,709.956 		"/>
		<path clip-path="url(#SVGID_2_)" fill="#801913" d="M371.312,714.196c0,0,2.339-0.448,5.455-0.196
			c-0.812,6.19-2.287,12.045-3.043,13.448L371.312,714.196z"/>
		<path clip-path="url(#SVGID_2_)" fill="#9E4441" d="M362.834,660.327c-9.762,3.023-21.653,4.798-34.485,4.798
			c-13.577,0-26.098-1.986-36.163-5.339l-3.927,3.003c9.17,8.015,23.975,12.135,39.532,12.135c15.157,0,28.731-4.742,37.903-12.398
			L362.834,660.327"/>
		<path clip-path="url(#SVGID_2_)" fill="#9E4441" d="M360.839,674.419c-6.366,5.443-19.825,12.225-32.658,12.225
			c-13.577,0-25.833-3.308-32.783-10.59l-4.731,15.951c9.169,8.015,21.565,10.636,37.123,10.636
			c15.157,0,27.312-6.103,36.482-13.759L360.839,674.419z"/>
		<path clip-path="url(#SVGID_2_)" fill="#9E4441" d="M375.72,687.308c-3.05,1.119-6.219,2.132-9.485,3.033l2.198,9.696
			c2.97-0.744,5.876-1.565,8.707-2.467 M291.064,690.397c-3.884-1.061-7.626-2.283-11.205-3.652l-0.688,10.578
			c3.035,0.983,6.154,1.88,9.351,2.681"/>
		<line clip-path="url(#SVGID_2_)" fill="#311201" x1="282.717" y1="723.92" x2="294.297" y2="681.362"/>
		<path clip-path="url(#SVGID_2_)" fill="#3F0400" d="M282.468,723.853c0,0-0.19-0.767-0.347-2.06
			c-0.158-1.291-0.323-3.122-0.282-5.252c0.004-1.072,0.018-2.229,0.146-3.421c0.098-1.201,0.181-2.473,0.381-3.757
			c0.189-1.288,0.401-2.615,0.694-3.941c0.261-1.334,0.616-2.667,0.955-4.001c0.386-1.324,0.761-2.651,1.211-3.935
			c0.409-1.296,0.973-2.524,1.43-3.738c0.441-1.22,1.032-2.355,1.549-3.441c0.493-1.093,1.072-2.097,1.607-3.021
			c1.042-1.858,2.11-3.354,2.897-4.391c0.788-1.036,1.338-1.602,1.338-1.602l0.499,0.138c0,0-0.646,2.682-1.674,6.686
			c-1.056,3.999-2.462,9.329-3.867,14.659l-4.094,14.6c-1.142,3.976-1.945,6.613-1.945,6.613L282.468,723.853z"/>
		<line clip-path="url(#SVGID_2_)" fill="#311201" x1="362.5" y1="682.346" x2="374.042" y2="724.914"/>
		<path clip-path="url(#SVGID_2_)" fill="#3F0400" d="M362.749,682.279c0,0,0.551,0.564,1.34,1.6c0.792,1.035,1.861,2.529,2.9,4.39
			c0.541,0.926,1.113,1.93,1.605,3.023c0.524,1.084,1.096,2.225,1.571,3.435c0.488,1.206,0.976,2.457,1.394,3.749
			c0.451,1.284,0.819,2.613,1.205,3.937c0.334,1.337,0.681,2.67,0.943,4.005c0.302,1.324,0.439,2.67,0.658,3.949
			c0.237,1.273,0.301,2.552,0.406,3.751c0.127,1.192,0.134,2.351,0.14,3.42c0.041,2.13-0.12,3.96-0.277,5.253
			c-0.156,1.292-0.345,2.055-0.345,2.055l-0.499,0.136c0,0-0.8-2.641-1.938-6.614c-1.111-3.981-2.597-9.291-4.083-14.602
			c-1.399-5.332-2.802-10.666-3.851-14.664c-1.027-4.005-1.669-6.687-1.669-6.687L362.749,682.279z"/>
		<path clip-path="url(#SVGID_2_)" fill="#872C2A" d="M308.735,633.042l36.445-6.076l-1.059-7.58
			c-10.764,6.987-22.757,11.725-35.509,13.673C308.654,633.051,308.694,633.046,308.735,633.042"/>
		<path clip-path="url(#SVGID_2_)" fill="#872C2A" d="M247.132,627.576l27.272,3.88c-8.89-2.22-17.342-5.803-25.179-10.567
			l-2.085,6.684L247.132,627.576"/>
		<path clip-path="url(#SVGID_2_)" fill="#FFE9D8" d="M425.065,571.678c0,49.737-11.683,61.545-35.17,75.865
			c-15.197,9.264-32.828,17.582-64.309,17.582c-57.527-0.249-110.531-43.959-99.729-90.182c0-51.056,32.129-59.537,98.724-59.537
			C391.176,515.406,425.065,524.117,425.065,571.678"/>
		<path clip-path="url(#SVGID_2_)" fill="none" stroke="#000000" stroke-miterlimit="10" d="M425.065,571.678
			c0,49.737-11.683,61.545-35.17,75.865c-15.197,9.264-32.828,17.582-64.309,17.582c-57.527-0.249-110.531-43.959-99.729-90.182
			c0-51.056,32.129-59.537,98.724-59.537C391.176,515.406,425.065,524.117,425.065,571.678z"/>
		<g opacity="0.3" clip-path="url(#SVGID_2_)">
			<g>
				<defs>
					<rect id="SVGID_15_" x="224.656" y="541.056" width="200.694" height="124.07"/>
				</defs>
				<clipPath id="SVGID_16_">
					<use xlink:href="#SVGID_15_"  overflow="visible"/>
				</clipPath>
				<path clip-path="url(#SVGID_16_)" d="M418.346,542.165c4.037,7.639,4.326,17.466,4.326,29.541
					c0,46.455-13.267,60.368-35.204,73.741c-14.194,8.655-32.323,16.918-61.728,16.918c-53.728-0.237-106.785-43.105-96.698-86.275
					c0-12.098-3.518-22.705,1.661-29.378c-5.632,9.021-4.636,17.208-4.636,28.231c-10.804,46.222,42.202,89.933,99.729,90.183
					c31.483,0,49.11-8.319,64.309-17.586c23.484-14.317,35.167-26.123,35.167-75.862
					C425.273,560.496,426.595,549.563,418.346,542.165"/>
			</g>
		</g>
		<path clip-path="url(#SVGID_2_)" fill="#FFFFFF" d="M295.691,601.318c0,8.542-4.456,21.103-17.496,21.103
			c-13.042,0-17.422-8.615-17.422-21.103c0-11.052,12.427-16.077,17.422-16.077C287.32,585.241,295.691,594.368,295.691,601.318"/>
		<path clip-path="url(#SVGID_2_)" fill="none" stroke="#000000" stroke-miterlimit="10" d="M295.691,601.318
			c0,8.542-4.456,21.103-17.496,21.103c-13.042,0-17.422-8.615-17.422-21.103c0-11.052,12.427-16.077,17.422-16.077
			C287.32,585.241,295.691,594.368,295.691,601.318z"/>
		<path clip-path="url(#SVGID_2_)" fill="#FFFFFF" d="M360,606.429c-0.66-8.517,3.704-21.187,16.744-21.187
			c11.058,0,17.756,8.364,17.756,20.85c0,9.379-6.362,16.329-17.756,16.329C363.704,622.421,360.458,612.314,360,606.429"/>
		<path clip-path="url(#SVGID_2_)" fill="none" stroke="#000000" stroke-miterlimit="10" d="M360,606.429
			c-0.66-8.517,3.704-21.187,16.744-21.187c11.058,0,17.756,8.364,17.756,20.85c0,9.379-6.362,16.329-17.756,16.329
			C363.704,622.421,360.458,612.314,360,606.429z"/>
		<path clip-path="url(#SVGID_2_)" d="M287.684,598.903c0,8.189-6.195,14.83-13.063,14.83c-8.372,0-12.392-6.641-12.392-14.83
			c0-8.19,7.269-13.397,12.729-13.397C280.416,585.506,287.684,590.713,287.684,598.903"/>
		<path clip-path="url(#SVGID_2_)" d="M385.626,598.066c0,8.189-4.521,15.667-11.386,15.667c-8.375,0-12.728-6.975-12.728-15.165
			c0-8.189,6.512-13.062,11.972-13.062C378.942,585.506,385.626,589.876,385.626,598.066"/>
		<path clip-path="url(#SVGID_2_)" fill="#FFFCF5" d="M272.78,601.332c0,1.387-1.125,2.512-2.513,2.512s-2.511-1.125-2.511-2.512
			c0-1.39,1.123-2.514,2.511-2.514S272.78,599.942,272.78,601.332"/>
		<path clip-path="url(#SVGID_2_)" fill="#FFFCF5" d="M274.537,593.46c0,2.543-2.06,4.605-4.604,4.605
			c-2.543,0-4.606-2.062-4.606-4.605c0-2.544,2.063-4.604,4.606-4.604C272.477,588.856,274.537,590.916,274.537,593.46"/>
		<path clip-path="url(#SVGID_2_)" fill="#FFFCF5" d="M371.055,594.215c0,2.219-1.8,4.021-4.02,4.021
			c-2.219,0-4.018-1.802-4.018-4.021c0-2.22,1.799-4.021,4.018-4.021C369.255,590.194,371.055,591.995,371.055,594.215"/>
		<path clip-path="url(#SVGID_2_)" fill="#FFFCF5" d="M370.386,602.921c0,1.39-1.125,2.514-2.512,2.514
			c-1.389,0-2.511-1.124-2.511-2.514c0-1.387,1.123-2.512,2.511-2.512C369.261,600.409,370.386,601.534,370.386,602.921"/>
		<path clip-path="url(#SVGID_2_)" fill="none" stroke="#000000" stroke-miterlimit="10" d="M347.862,639.037
			c-4.682,6.363-12.424,11.984-23.537,11.984c-5.583,0-9.034-0.403-13.43-2.308"/>
		<path clip-path="url(#SVGID_2_)" fill="none" stroke="#000000" stroke-miterlimit="10" d="M327.486,632.386
			c-1.367,1.674-5.082,1.508-5.082,1.508c-3.932,0-7.119-3.232-7.119-7.117s4.188-7.788,7.119-7.454
			c1.59,0.084,3.838-2.771,5.082-4.855c1.281-2.93,1.037-4.018,1.037-5.024"/>
		<g opacity="0.1" clip-path="url(#SVGID_2_)">
			<g>
				<defs>
					<rect id="SVGID_17_" x="255.178" y="502.092" width="144.4" height="73.998"/>
				</defs>
				<clipPath id="SVGID_18_">
					<use xlink:href="#SVGID_17_"  overflow="visible"/>
				</clipPath>
				<path clip-path="url(#SVGID_18_)" d="M398.183,530.733c1.268,1.503,1.396,4.412,1.396,5.92
					c-5.526,8.876-23.5,15.932-23.5,15.932c2.01-3.182,3.433-4.786,11.304-13.495c-27.968,27.299-66.821,32.616-66.821,32.616
					c5.212-3.455,32.405-20.545,41.449-33.774c-13.062,25.959-92.707,40.522-86.344,37.843c6.364-2.682,23.375-35.497,23.375-35.497
					c-10.217,14.904-29.808,24.45-31.149,26.461c-1.339,2.008-4.131,1.468-2.011,0c3.184-3.015,9.212-21.606,9.38-31.151
					c-0.168-0.502-0.997-1.144-2.011-0.837c-3.917,3.482-4.271,10.299-5.945,19.342c-10.551-6.028-12.636-21.811-12.033-23.842
					c46.072-12.708,63.781-9.065,71.694-28.158C333.751,529.727,377.896,513.779,398.183,530.733"/>
			</g>
		</g>
		<path clip-path="url(#SVGID_2_)" fill="#654427" d="M403.775,527.841c1.268,1.501-1.069,3.56-1.069,5.066
			c-5.528,8.877-23.278,15.575-23.278,15.575c2.009-3.182,2.678-5.191,10.551-13.898c-27.967,27.297-59.956,28.971-59.956,28.971
			c5.211-3.454,22.944-18.924,31.989-32.154c-13.064,25.957-95.46,42.705-89.096,40.023c6.362-2.678,26.125-37.679,26.125-37.679
			c-10.215,14.905-29.808,24.451-31.149,26.46c-1.34,2.011-4.133,1.471-2.009,0c3.181-3.014,9.21-21.604,9.377-31.147
			c-0.167-0.504-0.995-1.146-2.007-0.839c-3.919,3.481-9.381,13.397-11.055,22.44c-10.55-6.028-7.528-24.907-6.925-26.94
			c44.438-17.354,63.781-9.064,71.694-28.157C333.749,523.193,383.488,510.886,403.775,527.841"/>
		<path clip-path="url(#SVGID_2_)" fill="none" stroke="#000000" stroke-width="0.5" stroke-miterlimit="10" d="M403.775,527.841
			c1.268,1.501-1.069,3.56-1.069,5.066c-5.528,8.877-23.278,15.575-23.278,15.575c2.009-3.182,2.678-5.191,10.551-13.898
			c-27.967,27.297-59.956,28.971-59.956,28.971c5.211-3.454,22.944-18.924,31.989-32.154c-13.064,25.957-95.46,42.705-89.096,40.023
			c6.362-2.678,26.125-37.679,26.125-37.679c-10.215,14.905-29.808,24.451-31.149,26.46c-1.34,2.011-4.133,1.471-2.009,0
			c3.181-3.014,9.21-21.604,9.377-31.147c-0.167-0.504-0.995-1.146-2.007-0.839c-3.919,3.481-9.381,13.397-11.055,22.44
			c-10.55-6.028-7.528-24.907-6.925-26.94c44.438-17.354,63.781-9.064,71.694-28.157
			C333.749,523.193,383.488,510.886,403.775,527.841z"/>
		<g opacity="0.15" clip-path="url(#SVGID_2_)">
			<g>
				<defs>
					<rect id="SVGID_19_" x="315.579" y="632.471" width="12.505" height="4.771"/>
				</defs>
				<clipPath id="SVGID_20_">
					<use xlink:href="#SVGID_19_"  overflow="visible"/>
				</clipPath>
				<path clip-path="url(#SVGID_20_)" d="M328.084,632.468c0,2.636-2.799,4.774-6.254,4.774c-3.452,0-6.253-2.139-6.253-4.774"/>
			</g>
		</g>
	</g>
</g>
<rect x="-3" y="4" fill="none" stroke="#FCFCFC" stroke-width="18" stroke-miterlimit="10" width="476" height="720"/>
<circle fill="#FFFFFF" cx="239.5" cy="439.5" r="8.5"/>
<rect x="15.498" y="501.082" fill="none" width="172.491" height="202.49"/>
<text transform="matrix(1 0 0 1 15.498 529.165)"><tspan x="0" y="0" fill="#FFFFFF" font-family="'FISHfingers'" font-size="41" letter-spacing="1">Tom always </tspan><tspan x="0" y="49.2" fill="#FFFFFF" font-family="'FISHfingers'" font-size="41" letter-spacing="1">wanted to </tspan><tspan x="0" y="98.399" fill="#FFFFFF" font-family="'FISHfingers'" font-size="41" letter-spacing="1">go to the </tspan><tspan x="0" y="147.601" fill="#FFFFFF" font-family="'FISHfingers'" font-size="41" letter-spacing="1">moon...</tspan></text>
<rect x="660.498" y="49.666" fill="none" width="278.502" height="202.49"/>
<text transform="matrix(1 0 0 1 660.498 77.749)"><tspan x="0" y="0" fill="#FFFFFF" font-family="'FISHfingers'" font-size="41" letter-spacing="1">But everyone tells </tspan><tspan x="0" y="49.2" fill="#FFFFFF" font-family="'FISHfingers'" font-size="41" letter-spacing="1">him that he is</tspan><tspan x="0" y="98.4" fill="#FFFFFF" font-family="'FISHfingers'" font-size="41" letter-spacing="1">too young.</tspan></text>
<g>
	<g>
		<defs>
			<rect id="SVGID_21_" x="-570.252" y="-199.345" width="2057.824" height="1157.526"/>
		</defs>
		<clipPath id="SVGID_22_">
			<use xlink:href="#SVGID_21_"  overflow="visible"/>
		</clipPath>
		<path clip-path="url(#SVGID_22_)" fill="#7C694A" d="M770.746,660.101c5.231-4.533-17.251,15.138-39.73,13.266
			c-22.483-1.875-22.483-35.909-23.42-58.234c0,0-5.621-49.231,0-63.179c32.783-100.128,179.854-107.622,210.3,9.473
			c3.609,38.251,1.365,72.813-8.901,107.021c0,0-9.013,9.602-23.476,0c-12.119-6.322-14.53-6.973-24.566-10.16"/>
		<path clip-path="url(#SVGID_22_)" fill="none" stroke="#000000" stroke-width="0.3" stroke-miterlimit="10" d="M770.746,660.101
			c5.231-4.533-17.251,15.138-39.73,13.266c-22.483-1.875-22.483-35.909-23.42-58.234c0,0-5.621-49.231,0-63.179
			c32.783-100.128,179.854-107.622,210.3,9.473c3.609,38.251,1.365,72.813-8.901,107.021c0,0-9.013,9.602-23.476,0
			c-12.119-6.322-14.53-6.973-24.566-10.16"/>
		<path clip-path="url(#SVGID_22_)" fill="#D3BB93" d="M709.618,612.354c0,0-5.432-47.553,0-61.028
			c37.618-101.421,174.784-102.827,203.219,9.15c0.817,12.688,3.784,17.295,5.243,41.575c-0.093-20.853-0.681-37.082-1.782-41.963
			c-30.33-116.613-176.853-109.149-209.518-9.433c-5.6,13.891-0.184,63.592-0.184,63.592c0.274,6.573,0.545,18.6,1.169,21.484
			C707.564,630.26,709.406,624.022,709.618,612.354"/>
		<g opacity="0.3" clip-path="url(#SVGID_22_)">
			<g>
				<defs>
					<rect id="SVGID_23_" x="714.521" y="504.003" width="193.806" height="159.419"/>
				</defs>
				<clipPath id="SVGID_24_">
					<use xlink:href="#SVGID_23_"  overflow="visible"/>
				</clipPath>
				<line clip-path="url(#SVGID_24_)" fill="#41AF68" x1="880.137" y1="540.516" x2="880.137" y2="540.516"/>
				<g opacity="0.4" clip-path="url(#SVGID_24_)">
					<g>
						<defs>
							<rect id="SVGID_25_" x="714.521" y="504.003" width="193.806" height="159.419"/>
						</defs>
						<clipPath id="SVGID_26_">
							<use xlink:href="#SVGID_25_"  overflow="visible"/>
						</clipPath>
						<path clip-path="url(#SVGID_26_)" d="M877.901,537.49c-22.481-7.106-59.952-0.558-66.273-26.319
							c-7.377,17.797-23.067,12.618-66.017,24.467c-40.219,21.4-20.841,95.644-12.49,115.198
							c-21.857-33.565-20.086-74.313-16.248-88.678c3.84-14.364,18.884-30.135,28.738-33.702
							c9.852-3.564,59.457-6.656,66.836-24.453c6.323,25.759,52.691,12.49,71.604,28.295c1.182,1.399,18.518,10.188,22.891,27.675
							c4.371,17.487-1.206,81.739-22.447,103.449C884.494,663.422,929.736,565.277,877.901,537.49"/>
					</g>
				</g>
			</g>
		</g>
		<path clip-path="url(#SVGID_22_)" fill="#1F1A12" d="M741.329,671.727c-0.146-0.204-0.306-0.453-0.473-0.746
			c-0.374-0.641-0.801-1.487-1.27-2.504c-4.854-10.511-14.227-39.145-14.816-46.049c3.789,6.858,29.066,33.999,44.932,36.552
			C761.852,664.172,750.015,668.926,741.329,671.727"/>
		<path clip-path="url(#SVGID_22_)" fill="#1F1A12" d="M882.517,666.484c0.291-0.23,0.649-0.71,1.062-1.393
			c4.133-6.843,14.058-37.791,14.058-41.034c-3.303,5.454-24.149,27.002-37.801,33.246c7.528,2.507,13.872,4.408,20.89,8.265
			C881.233,665.851,882.086,666.085,882.517,666.484"/>
		<line clip-path="url(#SVGID_22_)" x1="812.447" y1="509.389" x2="812.447" y2="495.338"/>
		
			<line clip-path="url(#SVGID_22_)" fill="none" stroke="#000000" stroke-width="0.2" stroke-miterlimit="10" x1="812.447" y1="509.389" x2="812.447" y2="495.338"/>
		<path clip-path="url(#SVGID_22_)" fill="#E65151" d="M846.52,475.431c0,10.995-15.62,19.907-34.892,19.907
			c-19.273,0-33.489-8.912-33.489-19.907c0-10.992,14.216-19.905,33.489-19.905C830.899,455.525,846.52,464.438,846.52,475.431"/>
		<path clip-path="url(#SVGID_22_)" fill="none" stroke="#000000" stroke-width="0.3" stroke-miterlimit="10" d="M846.52,475.431
			c0,10.995-15.62,19.907-34.892,19.907c-19.273,0-33.489-8.912-33.489-19.907c0-10.992,14.216-19.905,33.489-19.905
			C830.899,455.525,846.52,464.438,846.52,475.431z"/>
		<g opacity="0.9" clip-path="url(#SVGID_22_)">
			<g>
				<defs>
					<rect id="SVGID_27_" x="781.274" y="454.001" width="60.672" height="15.316"/>
				</defs>
				<clipPath id="SVGID_28_">
					<use xlink:href="#SVGID_27_"  overflow="visible"/>
				</clipPath>
				<path clip-path="url(#SVGID_28_)" fill="#E5E1DB" d="M841.946,468.488C838.886,460.293,826.193,454,811,454
					c-15.176,0-26.898,6.277-29.726,14.458l0.38,0.772c3.386-7.5,14.771-13.671,29.346-13.671c14.628,0,26.937,6.214,30.563,13.756
					L841.946,468.488z"/>
			</g>
		</g>
		<g opacity="0.3" clip-path="url(#SVGID_22_)">
			<g>
				<defs>
					<rect id="SVGID_29_" x="778.133" y="471.464" width="68.412" height="33.239"/>
				</defs>
				<clipPath id="SVGID_30_">
					<use xlink:href="#SVGID_29_"  overflow="visible"/>
				</clipPath>
				<path clip-path="url(#SVGID_30_)" fill="#403F3A" d="M811.628,486.438c-15.841,0-28.843-6.318-32.765-14.973
					c-0.851,1.643-0.725,3.383-0.725,5.183c0,10.115,14.216,28.056,33.489,28.056c19.271,0,34.892-17.94,34.892-28.056
					c0-1.8,0.228-3.54-0.695-5.183C841.564,480.119,827.467,486.438,811.628,486.438"/>
			</g>
		</g>
		<path clip-path="url(#SVGID_22_)" fill="#7C694A" d="M732.178,507.882c-14.259-11.159-35.067-25.19-56.144-22.38
			c-8.431,34.19,18.265,71.661,28.922,71.571C708.352,542.174,718.619,523.786,732.178,507.882"/>
		<path clip-path="url(#SVGID_22_)" fill="none" stroke="#000000" stroke-width="0.3" stroke-miterlimit="10" d="M732.178,507.882
			c-14.259-11.159-35.067-25.19-56.144-22.38c-8.431,34.19,18.265,71.661,28.922,71.571
			C708.352,542.174,718.619,523.786,732.178,507.882z"/>
		<path clip-path="url(#SVGID_22_)" fill="#7C694A" d="M890.392,508.434c14.259-11.156,32.005-25.742,56.146-22.379
			c8.43,34.19-19.101,74.476-29.76,74.386C913.386,545.541,903.951,524.34,890.392,508.434"/>
		<path clip-path="url(#SVGID_22_)" fill="none" stroke="#000000" stroke-width="0.3" stroke-miterlimit="10" d="M890.392,508.434
			c14.259-11.156,32.005-25.742,56.146-22.379c8.43,34.19-19.101,74.476-29.76,74.386
			C913.386,545.541,903.951,524.34,890.392,508.434z"/>
		<path clip-path="url(#SVGID_22_)" fill="#B09063" d="M946.477,486.262c-22.557-3.729-41.954,10.793-55.794,22.228
			c1.406,1.651,2.48,2.97,3.823,4.663c12.795-12.267,28.975-26.221,52.324-25.309L946.477,486.262z"/>
		<path clip-path="url(#SVGID_22_)" fill="#B09A75" d="M732.178,507.984c-14.259-11.158-35.067-25.188-56.144-22.379
			c-0.045,0.18-0.085,0.361-0.124,0.541c20.146,3.453,38.02,16.277,51.25,27.929L732.178,507.984z"/>
		<path clip-path="url(#SVGID_22_)" fill="#5D4F38" d="M912.063,545.436c0,0,4.619,15.086,5.536,15.005
			c9.251-1.004,30.519-28.951,30.519-59.552C945.351,515.799,926.857,538.625,912.063,545.436"/>
		<path clip-path="url(#SVGID_22_)" fill="#F0ABAB" d="M720.901,521.104c-7.682-6.01-22.273-24.093-33.627-22.579
			c-0.738,16.861,10.305,42.713,21.186,46.355C710.285,536.854,713.596,529.674,720.901,521.104"/>
		<path clip-path="url(#SVGID_22_)" fill="none" stroke="#000000" stroke-width="0.3" stroke-miterlimit="10" d="M720.901,521.104
			c-7.682-6.01-22.273-24.093-33.627-22.579c-0.738,16.861,10.305,42.713,21.186,46.355
			C710.285,536.854,713.596,529.674,720.901,521.104z"/>
		<g opacity="0.3" clip-path="url(#SVGID_22_)">
			<g>
				<defs>
					<rect id="SVGID_31_" x="687.514" y="498.525" width="33.072" height="46.355"/>
				</defs>
				<clipPath id="SVGID_32_">
					<use xlink:href="#SVGID_31_"  overflow="visible"/>
				</clipPath>
				<path clip-path="url(#SVGID_32_)" fill="#785656" d="M708.46,544.881c2.519-3.56,8.994-20.152,12.126-23.814
					c-7.681-6.011-21.205-22.631-33.072-22.541c13.263,10.506,21.307,27.724,18.225,44.992
					C705.387,545.478,708.399,543.814,708.46,544.881"/>
			</g>
		</g>
		<path clip-path="url(#SVGID_22_)" fill="#F0ABAB" d="M901.668,521.659c7.682-6.013,22.271-24.095,33.627-22.58
			c0.739,16.861-10.304,42.712-21.185,46.356C912.283,537.408,908.973,530.228,901.668,521.659"/>
		<path clip-path="url(#SVGID_22_)" fill="none" stroke="#000000" stroke-width="0.3" stroke-miterlimit="10" d="M901.668,521.659
			c7.682-6.013,22.271-24.095,33.627-22.58c0.739,16.861-10.304,42.712-21.185,46.356
			C912.283,537.408,908.973,530.228,901.668,521.659z"/>
		<g opacity="0.3" clip-path="url(#SVGID_22_)">
			<g>
				<defs>
					<rect id="SVGID_33_" x="902.221" y="499.034" width="33.071" height="46.357"/>
				</defs>
				<clipPath id="SVGID_34_">
					<use xlink:href="#SVGID_33_"  overflow="visible"/>
				</clipPath>
				<path clip-path="url(#SVGID_34_)" fill="#785656" d="M914.349,545.392c0.086-4.876-8.997-20.154-12.128-23.815
					c7.682-6.012,21.206-22.632,33.071-22.542c-18.75,13.164-17.929,33.762-17.079,41.481
					C918.429,542.494,914.409,544.325,914.349,545.392"/>
			</g>
		</g>
		<path clip-path="url(#SVGID_22_)" fill="#872C2A" d="M770.493,724.984c-1.128-0.537-2.889-0.904-2.889-0.904
			c3.199-2.171,3.591-14.653,3.591-14.653c-7.494-16.103-3.591-42.514,8.771-46.772c17.909,4.641,43.354,5.706,65.233,0
			c13.698,4.62,16.997,38.27,10.907,47.678c1.289,2.532,3.025,12.752,3.144,13.748c-0.021,0.023-3.881,1.425-2.342,1.086
			C853.297,726.974,788.39,733.487,770.493,724.984"/>
		<path clip-path="url(#SVGID_22_)" fill="none" stroke="#000000" stroke-width="0.3" stroke-miterlimit="10" d="M770.493,724.85
			c-1.128-0.536-2.889-0.902-2.889-0.902c3.199-2.166,3.591-14.622,3.591-14.622c-7.494-16.067-3.591-42.422,8.771-46.671
			c17.909,4.631,43.354,5.694,65.233,0c13.698,4.61,16.997,38.187,10.907,47.574c1.289,2.527,3.025,12.725,3.144,13.719
			c-0.021,0.023-3.881,1.422-2.342,1.084C853.297,726.834,788.39,733.334,770.493,724.85z"/>
		<polyline clip-path="url(#SVGID_22_)" fill="#801913" points="770.732,723.2 768.435,709.256 774.256,709.256 		"/>
		<path clip-path="url(#SVGID_22_)" fill="#801913" d="M853.787,713.209c0,0,2.182-0.418,5.086-0.182
			c-0.757,5.77-2.133,11.228-2.838,12.536L853.787,713.209z"/>
		<path clip-path="url(#SVGID_22_)" fill="#9E4441" d="M845.885,662.99c-9.102,2.819-20.187,4.472-32.149,4.472
			c-12.656,0-24.33-1.851-33.713-4.976l-3.661,2.799c8.549,7.472,22.351,11.313,36.854,11.313c14.13,0,26.785-4.421,35.335-11.558
			L845.885,662.99"/>
		<path clip-path="url(#SVGID_22_)" fill="#9E4441" d="M844.023,676.127c-5.934,5.075-18.481,11.396-30.444,11.396
			c-12.657,0-24.082-3.084-30.562-9.871l-4.41,14.868c8.549,7.472,20.104,9.917,34.607,9.917c14.13,0,25.461-5.69,34.011-12.827
			L844.023,676.127z"/>
		<path clip-path="url(#SVGID_22_)" fill="#9E4441" d="M855.514,716.38c-8.549,5.256-28.169,10.62-42.299,10.62
			c-14.503,0-31.225-4.255-40.947-11.297l1.943-9.943c6.637,4.14,26.868,6.752,39.524,6.752c11.961,0,31-1.864,37.869-6.752
			L855.514,716.38z"/>
		<path clip-path="url(#SVGID_22_)" fill="#9E4441" d="M857.896,688.143c-2.844,1.044-5.797,1.988-8.842,2.827l2.049,9.04
			c2.77-0.694,5.478-1.46,8.116-2.3 M778.976,691.022c-3.62-0.988-7.108-2.128-10.445-3.404l-0.642,9.86
			c2.829,0.918,5.737,1.753,8.717,2.5"/>
		<line clip-path="url(#SVGID_22_)" fill="#311201" x1="771.195" y1="722.274" x2="781.99" y2="682.601"/>
		<path clip-path="url(#SVGID_22_)" fill="#3F0400" d="M770.962,722.212c0,0-0.177-0.714-0.323-1.921
			c-0.146-1.204-0.301-2.911-0.263-4.897c0.005-0.998,0.017-2.076,0.138-3.188c0.091-1.119,0.168-2.306,0.354-3.504
			c0.176-1.2,0.374-2.436,0.647-3.674c0.242-1.243,0.575-2.483,0.889-3.729c0.361-1.234,0.711-2.471,1.131-3.668
			c0.38-1.207,0.907-2.353,1.331-3.484c0.413-1.136,0.964-2.194,1.445-3.208c0.46-1.019,1-1.955,1.498-2.816
			c0.973-1.733,1.967-3.128,2.7-4.093c0.734-0.966,1.248-1.492,1.248-1.492l0.464,0.127c0,0-0.601,2.5-1.561,6.232
			c-0.982,3.728-2.295,8.697-3.604,13.667l-3.814,13.609c-1.065,3.706-1.814,6.166-1.814,6.166L770.962,722.212z"/>
		<line clip-path="url(#SVGID_22_)" fill="#311201" x1="845.572" y1="683.518" x2="856.332" y2="723.2"/>
		<path clip-path="url(#SVGID_22_)" fill="#3F0400" d="M845.804,683.454c0,0,0.514,0.526,1.251,1.491
			c0.738,0.966,1.735,2.358,2.704,4.093c0.503,0.862,1.036,1.8,1.494,2.818c0.49,1.012,1.022,2.074,1.466,3.202
			c0.454,1.125,0.91,2.29,1.3,3.495c0.421,1.198,0.763,2.436,1.122,3.669c0.313,1.248,0.637,2.49,0.88,3.735
			c0.282,1.233,0.409,2.487,0.614,3.681c0.221,1.187,0.281,2.379,0.378,3.496c0.118,1.112,0.125,2.192,0.133,3.189
			c0.037,1.985-0.114,3.691-0.261,4.896c-0.146,1.205-0.321,1.917-0.321,1.917l-0.465,0.127c0,0-0.744-2.462-1.807-6.168
			c-1.036-3.712-2.421-8.661-3.807-13.612c-1.304-4.97-2.611-9.941-3.589-13.669c-0.959-3.732-1.558-6.234-1.558-6.234
			L845.804,683.454z"/>
		<path clip-path="url(#SVGID_22_)" fill="#FFE9D8" d="M903.897,580.348c0,46.367-10.893,57.375-32.787,70.725
			c-14.166,8.637-30.603,16.39-59.952,16.39c-53.628-0.231-103.041-40.979-92.972-84.07c0-47.597,29.954-55.504,92.035-55.504
			C872.305,527.888,903.897,536.01,903.897,580.348"/>
		<path clip-path="url(#SVGID_22_)" fill="none" stroke="#000000" stroke-miterlimit="10" d="M903.897,580.348
			c0,46.367-10.893,57.375-32.787,70.725c-14.166,8.637-30.603,16.39-59.952,16.39c-53.628-0.231-103.041-40.979-92.972-84.07
			c0-47.597,29.954-55.504,92.035-55.504C872.305,527.888,903.897,536.01,903.897,580.348z"/>
		<g opacity="0.3" clip-path="url(#SVGID_22_)">
			<g>
				<defs>
					<rect id="SVGID_35_" x="717.067" y="551.8" width="187.097" height="115.665"/>
				</defs>
				<clipPath id="SVGID_36_">
					<use xlink:href="#SVGID_35_"  overflow="visible"/>
				</clipPath>
				<path clip-path="url(#SVGID_36_)" d="M897.636,552.834c3.761,7.121,4.032,16.282,4.032,27.539
					c0,43.309-12.368,56.279-32.818,68.745c-13.233,8.068-30.134,15.771-57.546,15.771c-50.088-0.22-99.55-40.184-90.146-80.429
					c0-11.277-3.279-21.167,1.549-27.387c-5.251,8.41-4.323,16.042-4.323,26.318c-10.071,43.09,39.344,83.839,92.974,84.073
					c29.349,0,45.781-7.756,59.951-16.394c21.895-13.349,32.784-24.355,32.784-70.724
					C904.092,569.923,905.324,559.732,897.636,552.834"/>
			</g>
		</g>
		<path clip-path="url(#SVGID_22_)" fill="#FFFFFF" d="M783.291,607.98c0,7.962-4.155,19.672-16.311,19.672
			c-12.158,0-16.243-8.031-16.243-19.672c0-10.304,11.586-14.989,16.243-14.989C775.485,592.991,783.291,601.502,783.291,607.98"/>
		<path clip-path="url(#SVGID_22_)" fill="none" stroke="#000000" stroke-miterlimit="10" d="M783.291,607.98
			c0,0.649-0.027,1.324-0.085,2.016c-0.646,7.78-5.062,17.656-16.226,17.656c-11.256,0-15.592-6.883-16.174-17.141
			c-0.047-0.822-0.069-1.667-0.069-2.531c0-0.368,0.015-0.729,0.043-1.084c0.776-9.549,11.71-13.905,16.2-13.905
			C775.485,592.991,783.291,601.502,783.291,607.98z"/>
		<path clip-path="url(#SVGID_22_)" fill="#FFFFFF" d="M843.242,612.743c-0.614-7.939,3.453-19.75,15.608-19.75
			c10.31,0,16.553,7.797,16.553,19.436c0,8.745-5.932,15.224-16.553,15.224C846.695,627.652,843.67,618.231,843.242,612.743"/>
		<path clip-path="url(#SVGID_22_)" fill="none" stroke="#000000" stroke-miterlimit="10" d="M843.242,612.743
			c-0.614-7.939,3.453-19.75,15.608-19.75c10.31,0,16.553,7.797,16.553,19.436c0,8.745-5.932,15.224-16.553,15.224
			C846.695,627.652,843.67,618.231,843.242,612.743z"/>
		<path clip-path="url(#SVGID_22_)" d="M779.219,614.06c0,7.634-5.775,13.824-12.179,13.824c-7.804,0-11.552-6.19-11.552-13.824
			c0-7.636,6.777-12.489,11.866-12.489C772.442,601.57,779.219,606.424,779.219,614.06"/>
		<path clip-path="url(#SVGID_22_)" d="M871.598,613.278c0,7.635-4.214,14.605-10.615,14.605c-7.807,0-11.866-6.503-11.866-14.138
			c0-7.634,6.071-12.176,11.161-12.176C865.366,601.57,871.598,605.643,871.598,613.278"/>
		<path clip-path="url(#SVGID_22_)" fill="#FFFCF5" d="M764.074,619.197c0,0.672-0.545,1.217-1.217,1.217s-1.217-0.545-1.217-1.217
			c0-0.673,0.545-1.217,1.217-1.217S764.074,618.524,764.074,619.197"/>
		<path clip-path="url(#SVGID_22_)" fill="#FFFCF5" d="M857.324,620.197c0,0.672-0.545,1.217-1.217,1.217s-1.217-0.545-1.217-1.217
			c0-0.673,0.545-1.217,1.217-1.217S857.324,619.524,857.324,620.197"/>
		<path clip-path="url(#SVGID_22_)" fill="#FFFCF5" d="M763.38,614.011c0,1.404-1.137,2.542-2.542,2.542
			c-1.403,0-2.544-1.138-2.544-2.542c0-1.405,1.141-2.543,2.544-2.543C762.243,611.468,763.38,612.605,763.38,614.011"/>
		<path clip-path="url(#SVGID_22_)" fill="#FFFCF5" d="M856.38,614.511c0,1.404-1.137,2.542-2.542,2.542
			c-1.403,0-2.544-1.138-2.544-2.542c0-1.405,1.141-2.543,2.544-2.543C855.243,611.968,856.38,613.105,856.38,614.511"/>
		<path clip-path="url(#SVGID_22_)" fill="none" stroke="#000000" stroke-miterlimit="10" d="M797.187,657.124
			c5.031-5.818,12.975-10.676,23.753-9.828c5.417,0.426,8.737,1.073,12.855,3.259"/>
		<path clip-path="url(#SVGID_22_)" fill="none" stroke="#000000" stroke-miterlimit="10" d="M812.93,636.94
			c-1.272,1.562-4.736,1.406-4.736,1.406c-3.666,0-6.636-3.012-6.636-6.635c0-3.622,3.904-7.261,6.636-6.948
			c1.482,0.079,3.578-2.582,4.736-4.527c1.195-2.731,0.968-3.746,0.968-4.683"/>
		<g opacity="0.1" clip-path="url(#SVGID_22_)">
			<g>
				<defs>
					<rect id="SVGID_37_" x="745.523" y="515.477" width="134.616" height="68.983"/>
				</defs>
				<clipPath id="SVGID_38_">
					<use xlink:href="#SVGID_37_"  overflow="visible"/>
				</clipPath>
				<path clip-path="url(#SVGID_38_)" d="M878.837,542.177c1.183,1.401,1.303,4.112,1.303,5.519
					c-5.154,8.275-21.909,14.853-21.909,14.853c1.872-2.966,3.199-4.462,10.537-12.581c-26.072,25.449-62.293,30.406-62.293,30.406
					c4.858-3.221,30.209-19.151,38.641-31.486c-12.176,24.201-86.426,37.777-80.494,35.279c5.934-2.499,21.792-33.092,21.792-33.092
					c-9.524,13.895-27.789,22.793-29.039,24.668c-1.247,1.873-3.851,1.369-1.874,0c2.969-2.811,8.587-20.142,8.744-29.041
					c-0.157-0.468-0.929-1.065-1.873-0.779c-3.652,3.246-3.982,9.6-5.544,18.031c-9.836-5.62-11.778-20.333-11.218-22.227
					c42.951-11.848,59.459-8.451,66.838-26.25C818.771,541.238,859.925,526.371,878.837,542.177"/>
			</g>
		</g>
		<path clip-path="url(#SVGID_22_)" fill="#654427" d="M884.051,539.479c1.182,1.4-0.997,3.318-0.997,4.725
			c-5.152,8.275-21.7,14.519-21.7,14.519c1.873-2.965,2.496-4.839,9.836-12.957c-26.073,25.448-55.893,27.008-55.893,27.008
			c4.856-3.219,21.39-17.641,29.819-29.976c-12.177,24.199-88.991,39.812-83.06,37.313c5.932-2.496,24.356-35.125,24.356-35.125
			c-9.523,13.894-27.789,22.793-29.039,24.666c-1.249,1.875-3.852,1.371-1.872,0c2.966-2.812,8.585-20.141,8.74-29.038
			c-0.155-0.47-0.927-1.066-1.87-0.781c-3.653,3.245-8.745,12.489-10.307,20.919c-9.836-5.619-7.017-23.22-6.456-25.114
			c41.429-16.18,59.459-8.451,66.838-26.249C818.77,535.147,865.139,523.675,884.051,539.479"/>
		<path clip-path="url(#SVGID_22_)" fill="none" stroke="#000000" stroke-width="0.5" stroke-miterlimit="10" d="M884.051,539.479
			c1.182,1.4-0.997,3.318-0.997,4.725c-5.152,8.275-21.7,14.519-21.7,14.519c1.873-2.965,2.496-4.839,9.836-12.957
			c-26.073,25.448-55.893,27.008-55.893,27.008c4.856-3.219,21.39-17.641,29.819-29.976c-12.177,24.199-88.991,39.812-83.06,37.313
			c5.932-2.496,24.356-35.125,24.356-35.125c-9.523,13.894-27.789,22.793-29.039,24.666c-1.249,1.875-3.852,1.371-1.872,0
			c2.966-2.812,8.585-20.141,8.74-29.038c-0.155-0.47-0.927-1.066-1.87-0.781c-3.653,3.245-8.745,12.489-10.307,20.919
			c-9.836-5.619-7.017-23.22-6.456-25.114c41.429-16.18,59.459-8.451,66.838-26.249C818.77,535.147,865.139,523.675,884.051,539.479
			z"/>
		<g opacity="0.15" clip-path="url(#SVGID_22_)">
			<g>
				<defs>
					<rect id="SVGID_39_" x="801.83" y="637.02" width="11.656" height="4.45"/>
				</defs>
				<clipPath id="SVGID_40_">
					<use xlink:href="#SVGID_39_"  overflow="visible"/>
				</clipPath>
				<path clip-path="url(#SVGID_40_)" d="M813.486,637.019c0,2.458-2.607,4.451-5.829,4.451c-3.218,0-5.828-1.993-5.828-4.451"/>
			</g>
		</g>
		<path clip-path="url(#SVGID_22_)" fill="#FFFFFF" stroke="#020202" stroke-miterlimit="10" d="M783.291,607.98
			c-6.815,5.752-23.791,5.52-32.791-1.23C751.5,592.75,777.75,584.46,783.291,607.98z"/>
		<path clip-path="url(#SVGID_22_)" fill="#FFFCF5" stroke="#020202" stroke-miterlimit="10" d="M843.25,607.75
			c0,0,12.25,9.25,31.5-1C871.75,588.75,846.25,587.75,843.25,607.75z"/>
		<path clip-path="url(#SVGID_22_)" fill="#FFE9D8" stroke="#000000" stroke-miterlimit="10" d="M525.345,148.591
			c0,0,42.156,40.022,82.179,63.502s26.682,25.615,40.556,35.753c13.875,17.61,30.817,40.022,30.817,40.022l31.618,38.421
			c0,0,14.408,19.21,19.744,23.479s12.808,13.875,12.808,13.875s11.74,27.748-22.412,12.273
			c-20.279-17.077-26.683-25.082-26.683-25.082l-21.879-22.946c0,0-17.076-12.034-27.748-26.295c-4.27-0.387-4.27-0.387-4.27-0.387
			s1.066,28.816-4.803,30.951c-4.269,9.605-11.206,20.812-28.816,13.34c-9.071-5.87-9.071-5.87-9.071-5.87
			s-17.077,18.678-29.883,6.404c-14.408,10.672-26.682,2.667-30.951,0c-4.269-2.669-17.076-19.211-17.076-19.211
			s-8.004-8.538-5.87-16.542c2.134-8.004,2.134-8.004,2.134-8.004s-2.667-5.336-7.471-12.273
			c-10.139-9.072-15.475-19.744-15.475-19.744l-12.273-17.076l-6.938-11.206c0,0-6.724-11.207-6.19-31.485
			c5.99-11.35,9.863-24.393,5.594-32.397C469.251,178.095,497.062,140.053,525.345,148.591z"/>
		<path clip-path="url(#SVGID_22_)" fill="#FFE9D8" stroke="#000000" stroke-miterlimit="10" d="M522.143,200.283"/>
		<path clip-path="url(#SVGID_22_)" fill="#FFE9D8" stroke="#000000" stroke-miterlimit="10" d="M515.739,302.277
			c0,0,0.534-34.686,15.476-21.879"/>
		<path clip-path="url(#SVGID_22_)" fill="#FFE9D8" stroke="#000000" stroke-miterlimit="10" d="M567.501,346.035
			c-8.538-2.669-21.879-24.547-21.879-24.547s0,0-9.071-12.273c-8.004-6.404-6.403-18.677-6.403-18.677s-0.534-15.475,2.667-21.346
			c3.202-5.87,10.673-11.206,14.942-2.134c-1.601,16.542,4.803,29.35,4.803,29.35s2.668,11.74,17.609,22.946
			c6.404,5.87,17.077,16.009,17.077,16.009l10.139,4.268"/>
		<path clip-path="url(#SVGID_22_)" fill="#C62447" stroke="#000000" stroke-miterlimit="10" d="M547.529,274.133
			c0,0,1.642-1.283,3.885-2.391c3.676-1.814,8.965-3.157,11.285,2.391c3.734,8.934-0.534,19.073-7.471,16.404
			C548.291,287.87,547.529,274.133,547.529,274.133z"/>
		<path clip-path="url(#SVGID_22_)" fill="#FFE9D8" stroke="#000000" stroke-miterlimit="10" d="M548.824,274.133
			c10.139-22.809,29.35,9.467,29.35,9.467s6.402,42.157,22.678,56.565c16.276,14.409,25.882-4.803,24.815-9.072
			c-0.534-14.941-3.736-25.081-3.736-25.081l-3.202-12.273c0,0,3.736-6.128-5.336-19.606c-9.072-13.479-5.336-24.151-5.336-24.151
			s2.133-10.673-7.205-22.946c-9.338-12.274-9.338-12.274-9.338-12.274"/>
		<path clip-path="url(#SVGID_22_)" fill="#FFE9D8" stroke="#000000" stroke-miterlimit="10" d="M563.232,233.974
			c0,0-1.601,16.542,15.475,47.492c-0.533,2.135-0.533,2.135-0.533,2.135"/>
		<path clip-path="url(#SVGID_22_)" fill="#C62447" stroke="#000000" stroke-miterlimit="10" d="M603.789,325.224
			c-5.337-9.071,11.932-25.562,18.676-4.269C629.21,342.249,600.852,340.166,603.789,325.224z"/>
		<path clip-path="url(#SVGID_22_)" fill="#FFE9D8" stroke="#000000" stroke-miterlimit="10" d="M498.129,191.816
			c0,0-9.605,44.825,35.22,65.636c22.64,12.787,35.753,3.579,35.753,3.579s-11.74-8.381-11.74-23.323"/>
		<path clip-path="url(#SVGID_22_)" fill="#FFE9D8" stroke="#000000" stroke-miterlimit="10" d="M609.659,223.3
			c0,0,12.806,11.74-1.602,22.946"/>
		<path clip-path="url(#SVGID_22_)" fill="#FFE9D8" stroke="#000000" stroke-miterlimit="10" d="M641.142,252.65
			c-2.134,12.273-18.677,14.942-19.21,15.476"/>
		<path clip-path="url(#SVGID_22_)" fill="#075B57" stroke="#000000" stroke-miterlimit="10" d="M481.245,96.333l-6.047,87.69
			c0,0,13.909-27.214,53.218-38.181c-2.62-3.293-4.922-6.197-6.944-8.754c-12.394-15.679-14.271-18.38-14.271-18.38
			S489.106,95.729,481.245,96.333z"/>
		
			<line clip-path="url(#SVGID_22_)" fill="none" stroke="#020202" stroke-miterlimit="10" x1="525.345" y1="148.591" x2="528.416" y2="145.842"/>
		<path clip-path="url(#SVGID_22_)" fill="none" stroke="#D8681D" stroke-miterlimit="10" d="M528.6,148.537"/>
		<path clip-path="url(#SVGID_22_)" fill="#FFE9D8" stroke="#000000" stroke-miterlimit="10" d="M632.437,287.437
			c0,0,4.463,9.572,11.908,14.16"/>
		<path clip-path="url(#SVGID_22_)" fill="#C62447" stroke="#000000" stroke-miterlimit="10" d="M545.089,263.856
			c0,0-12.273-5.594-11.74,10.277C537.084,288.937,549.892,268.125,545.089,263.856z"/>
		<path clip-path="url(#SVGID_22_)" fill="#C62447" stroke="#000000" stroke-miterlimit="10" d="M733.733,353.13
			c-2.893-3.098,3.629,10.506,9.979,16.856c6.35,6.351,4.536,1.814,4.536,1.814S751.876,372.56,733.733,353.13z"/>
		<path clip-path="url(#SVGID_22_)" fill="#C62447" stroke="#000000" stroke-miterlimit="10" d="M519.194,282.447
			c0,0,2.268-5.442,6.35-1.814c0,7.257-0.907,9.979-0.907,9.979s-4.802,6.599-7.844,0.805
			C519.194,282.447,519.194,282.447,519.194,282.447z"/>
		<path opacity="0.6" clip-path="url(#SVGID_22_)" fill="#D1BCAE" d="M639.088,298.322"/>
	</g>
</g>
<rect x="473" y="4" fill="none" stroke="#FFFFFF" stroke-width="18" stroke-miterlimit="10" width="471" height="720"/>
<rect x="944" y="4" fill="none" stroke="#FFFFFF" stroke-width="18" stroke-miterlimit="10" width="336" height="720"/>
<circle fill="#FFFFFF" cx="253.75" cy="374.25" r="14.25"/>
<circle fill="#FFFFFF" cx="231" cy="317" r="19"/>
<path fill="#FFFFFF" d="M87,91c-41.666-16.667-69.666,32.666-28.999,61.333C17,146.333,15,224.667,69,216
	c-30.666,45.667,53,86.667,96,35c4.48,31.36,64.667,45,54.667-17.333C238.667,274,281.333,246.333,268,221
	c34.333,38.001,98.667,20.667,78-22c52,7.667,59-69.333,10-71c40.333-27,5.333-102.284-57-64c4-48-84.667-55.666-84-5.06
	C204,24.339,132.334,30.001,136.001,76C122.334,40.333,75.001,58.666,87,91z"/>
<path opacity="0.6" fill="#E8E8E8" d="M242.728,328.007c-1.625-12.247,3.987-16.525-11.743-26.181
	C230.984,301.826,257.506,303.299,242.728,328.007"/>
<path opacity="0.6" fill="#E8E8E8" d="M244.312,368.884c1.575,7.015-0.217,9.168,6.501,15.393
	C250.812,384.276,240.646,382.169,244.312,368.884"/>
<g>
	<defs>
		<path id="SVGID_41_" d="M91.884,93.636c-40.176-16.071-67.176,31.499-27.963,59.14c-39.535-5.783-41.464,69.749,10.606,61.394
			c-29.57,44.034,51.106,83.569,92.569,33.748c4.32,30.241,62.356,43.394,52.713-16.714c18.321,38.894,59.463,12.216,46.606-12.213
			c33.107,36.643,95.142,19.93,75.212-21.213c50.142,7.394,56.892-66.856,9.644-68.463c38.893-26.035,5.143-98.628-54.963-61.713
			c3.857-46.284-81.64-53.676-80.998-4.879c-10.606-33.364-79.712-27.904-76.176,16.451C125.956,44.779,80.314,62.457,91.884,93.636
			z"/>
	</defs>
	<clipPath id="SVGID_42_">
		<use xlink:href="#SVGID_41_"  overflow="visible"/>
	</clipPath>
	<g id="oMTzcI_1_" clip-path="url(#SVGID_42_)">
		
			<image overflow="visible" width="736" height="1125" id="oMTzcI" xlink:href="34C51495AC1BDAA4.jpg"  transform="matrix(0.5991 0 0 0.5991 31.0991 -354.3105)">
		</image>
	</g>
</g>
<path opacity="0.6" fill="#E8E8E8" d="M378.594,144.057c0,0,26.001,36.259-23.531,48.944
	C378.333,173.667,380.333,168.529,378.594,144.057z"/>
<path opacity="0.6" fill="#E8E8E8" d="M326.164,60.432c0,0,47.362-7.237,38.648,43.146C357.4,83.999,355.062,72.334,326.164,60.432z
	"/>
<path opacity="0.6" fill="#E8E8E8" d="M70.027,237.146c14.306,15.284,32.896,25.022,56.911,24
	C126.938,261.146,81.146,287.052,70.027,237.146"/>
<path opacity="0.6" fill="#E8E8E8" d="M104.744,63.714c-6.704,10.377-13.75,9.996-8.035,27.545
	C96.708,91.259,77.472,72.941,104.744,63.714"/>
<g>
	<defs>
		<rect id="SVGID_43_" x="953" y="11" width="327" height="705"/>
	</defs>
	<clipPath id="SVGID_44_">
		<use xlink:href="#SVGID_43_"  overflow="visible"/>
	</clipPath>
	<g id="_x34_nPA9k_1_" clip-path="url(#SVGID_44_)">
		
			<image overflow="visible" width="970" height="546" id="_x34_nPA9k" xlink:href="34C51495AC1BDAA3.jpg"  transform="matrix(1.501 0 0 1.5263 945 11)">
		</image>
	</g>
</g>
<rect x="970.889" y="372.559" fill="none" width="152" height="133.884"/>
<text transform="matrix(1 0 0 1 970.8887 439.6836)" fill="#FFFFFF" font-family="'FISHfingers'" font-size="98" letter-spacing="3">So,</text>
<rect x="987.271" y="466.5" fill="none" width="271.236" height="213.827"/>
<text transform="matrix(1 0 0 1 987.2705 490.4727)"><tspan x="0" y="0" fill="#FFFFFF" font-family="'FISHfingers'" font-size="35" letter-spacing="1">when everyone is at </tspan><tspan x="0" y="42" fill="#FFFFFF" font-family="'FISHfingers'" font-size="35" letter-spacing="1">sleep, He starts</tspan><tspan x="0" y="84" fill="#FFFFFF" font-family="'FISHfingers'" font-size="35" letter-spacing="1">stacking up everything </tspan><tspan x="0" y="126.001" fill="#FFFFFF" font-family="'FISHfingers'" font-size="35" letter-spacing="1">he finds to go to</tspan><tspan x="0" y="168.001" fill="#FFFFFF" font-family="'FISHfingers'" font-size="35" letter-spacing="1">the moon.</tspan></text>
</svg>
