<?xml version="1.0" encoding="utf-8"?>
<!-- Generator: Adobe Illustrator 16.0.4, SVG Export Plug-In . SVG Version: 6.00 Build 0)  -->
<!DOCTYPE svg PUBLIC "-//W3C//DTD SVG 1.1//EN" "http://www.w3.org/Graphics/SVG/1.1/DTD/svg11.dtd">
<svg version="1.1" xmlns="http://www.w3.org/2000/svg" xmlns:xlink="http://www.w3.org/1999/xlink" x="0px" y="0px"
	 width="841.89px" height="595.28px" viewBox="0 0 841.89 595.28" enable-background="new 0 0 841.89 595.28" xml:space="preserve">
<g id="chapeau">
	<path fill="#7C694A" stroke="#000000" stroke-width="0.3" stroke-miterlimit="10" d="M375.608,389.17
		c5.584-4.84-18.416,16.16-42.416,14.16s-24-38.334-25-62.167c0,0-6-52.554,0-67.443c35-106.89,192-114.89,224.5,10.11
		c3.855,40.835,1.46,77.73-9.5,114.25c0,0-9.621,10.25-25.061,0c-12.939-6.75-15.512-7.443-26.226-10.847"/>
	<path fill="#D3BB93" d="M310.352,338.198c0,0-5.798-50.765,0-65.148c40.16-108.27,186.587-109.77,216.943,9.766
		c0.871,13.547,4.038,18.464,5.597,44.383c-0.101-22.26-0.726-39.585-1.902-44.796c-32.379-124.488-188.796-116.521-223.666-10.069
		c-5.978,14.829-0.198,67.883-0.198,67.883c0.294,7.02,0.583,19.859,1.25,22.938C308.16,357.314,310.125,350.655,310.352,338.198z"
		/>
	<g opacity="0.3">
		<line fill="#41AF68" x1="492.387" y1="261.509" x2="492.387" y2="261.509"/>
		<path opacity="0.4" d="M490,258.28c-23.999-7.586-64-0.597-70.75-28.097c-7.875,19-24.625,13.472-70.474,26.12
			c-42.934,22.846-22.246,102.103-13.333,122.978c-23.333-35.833-21.442-79.333-17.345-94.667s20.16-32.171,30.678-35.978
			s63.475-7.106,71.35-26.106c6.75,27.5,56.25,13.333,76.439,30.207c1.262,1.495,19.769,10.876,24.436,29.543
			s-1.288,87.259-23.964,110.435C497.036,392.715,545.335,287.944,490,258.28z"/>
	</g>
	<path d="M320.805,270.82"/>
	<path fill="#1F1A12" d="M344.204,401.581c-0.156-0.218-0.325-0.484-0.505-0.796c-0.397-0.685-0.853-1.589-1.354-2.673
		c-5.18-11.222-15.188-41.788-15.816-49.16c4.044,7.323,31.029,36.295,47.965,39.021
		C366.113,393.517,353.477,398.592,344.204,401.581z"/>
	<path fill="#1F1A12" d="M494.926,395.985c0.311-0.247,0.693-0.758,1.135-1.487c4.41-7.303,15.004-40.343,15.004-43.806
		c-3.524,5.823-25.779,28.826-40.351,35.491c8.037,2.676,14.809,4.706,22.298,8.823C493.557,395.307,494.467,395.56,494.926,395.985
		z"/>
	<path fill="#A38560" d="M348,407.611"/>
	<path fill="#A38560" d="M543.501,304.06"/>
	<line stroke="#000000" stroke-width="0.2" stroke-miterlimit="10" x1="420.125" y1="228.28" x2="420.125" y2="213.28"/>
</g>
<g id="nez__x2B__ombre">
	<path fill="#7D4E24" d="M469,230.03"/>
	<path fill="#E65151" stroke="#000000" stroke-width="0.3" stroke-miterlimit="10" d="M456.499,192.03
		c0,11.736-16.677,21.25-37.25,21.25c-20.572,0-35.75-9.514-35.75-21.25c0-11.736,15.177-21.25,35.75-21.25
		C439.822,170.78,456.499,180.294,456.499,192.03z"/>
	<path opacity="0.9" fill="#E5E1DB" d="M455.67,187.829c-3.603-9.644-18.54-17.048-36.42-17.048
		c-17.859,0-31.652,7.387-34.98,17.015l0.448,0.909c3.982-8.827,17.38-16.09,34.532-16.09c17.216,0,31.701,7.312,35.968,16.19
		L455.67,187.829z"/>
	<path opacity="0.3" fill="#403F3A" d="M419.25,203.78c-16.909,0-30.789-6.745-34.977-15.984c-0.907,1.755-0.772,3.611-0.772,5.533
		c0,10.797,15.177,29.951,35.75,29.951c20.573,0,37.25-19.154,37.25-29.951c0-1.922,0.244-3.778-0.741-5.533
		C451.209,197.035,436.159,203.78,419.25,203.78z"/>
</g>
<g id="Calque_8">
	<path fill="#593324" stroke="#804933" stroke-width="0.5" stroke-miterlimit="10" d="M444.579,552.807
		c-1.079-5.192,2.671-4.276,9.25-4.276c8.25,0,8.25,2.048,8.25,5.5c0,2.148-1.5,2.75-8.25,2.75
		C444.579,556.78,445.281,556.187,444.579,552.807z"/>
	<path fill="#593324" stroke="#804933" stroke-miterlimit="10" d="M398.5,552.504c-0.351,3.435-3.175,4.276-9.25,4.276
		s-8.25-0.824-8.25-4.276c0-2.148,1.5-3.974,8.25-3.974C398.5,548.53,399,547.614,398.5,552.504z"/>
</g>
<g id="oreilles">
	<path fill="#7C694A" stroke="#000000" stroke-width="0.3" stroke-miterlimit="10" d="M334.435,226.672
		C319.214,214.761,297,199.78,274.5,202.78c-9,36.5,19.5,76.5,30.878,76.405C309,263.28,319.961,243.651,334.435,226.672z"/>
	<path fill="#7C694A" stroke="#000000" stroke-width="0.3" stroke-miterlimit="10" d="M503.333,227.263
		c15.221-11.912,34.167-27.483,59.936-23.892c9,36.5-20.391,79.504-31.769,79.409C527.878,266.875,517.808,244.242,503.333,227.263z
		"/>
	<g>
		<path fill="#B09063" d="M563.206,203.593c-24.081-3.982-44.789,11.521-59.562,23.729c1.502,1.762,2.647,3.167,4.081,4.977
			c13.66-13.095,30.93-27.99,55.857-27.019L563.206,203.593z"/>
	</g>
	<path fill="#B09A75" d="M334.435,226.783C319.214,214.871,297,199.891,274.5,202.891c-0.047,0.193-0.088,0.386-0.133,0.579
		c21.508,3.686,40.589,17.375,54.711,29.813L334.435,226.783z"/>
	<path fill="#5D4F38" d="M526.467,266.761c0,0,4.933,16.106,5.91,16.019c9.878-1.071,32.579-30.905,32.579-63.572
		C562.005,235.125,542.263,259.491,526.467,266.761z"/>
	<path fill="#F0ABAB" stroke="#000000" stroke-width="0.3" stroke-miterlimit="10" d="M322.398,240.789
		c-8.2-6.417-23.776-25.721-35.898-24.104c-0.789,18,11,45.596,22.615,49.486C311.066,257.601,314.6,249.936,322.398,240.789z"/>
	<path opacity="0.3" fill="#785656" d="M309.115,266.17c2.692-3.799,9.603-21.513,12.946-25.422
		c-8.2-6.417-22.639-24.16-35.305-24.064c14.157,11.216,22.744,29.596,19.453,48.031C305.836,266.809,309.05,265.031,309.115,266.17
		z"/>
	<path fill="#F0ABAB" stroke="#000000" stroke-width="0.3" stroke-miterlimit="10" d="M515.37,241.379
		c8.201-6.417,23.776-25.721,35.898-24.104c0.789,18-11,45.596-22.615,49.486C526.702,258.192,523.169,250.527,515.37,241.379z"/>
	<path opacity="0.3" fill="#785656" d="M528.907,266.713c0.093-5.204-9.604-21.513-12.946-25.422
		c8.2-6.417,22.639-24.16,35.306-24.064c-20.017,14.053-19.141,36.041-18.233,44.282
		C533.266,263.623,528.973,265.575,528.907,266.713z"/>
</g>
<g id="pantalon">
	<path fill="#7A8BA9" stroke="#000000" stroke-width="0.3" stroke-miterlimit="10" d="M470.088,476.78
		c0.434,4.248-2.159,12.5-2.159,12.5c-1.625,31.625-9.5,48.625-6.671,58.334c-1.296,0.709-15.087,1.12-16.133,0.329
		c0-15.916-11.321-31.663-11.321-31.663c-0.5-2.375-17.125-1.375-24.75,1.5c-3.375,1.375-11.304,19.375-11.304,29.834
		c-3.25,1.209-10.685,1.039-13.696-0.625c-1.697-12.966-5.75-60.209-7.75-68.709C387.5,489.28,462.238,481.53,470.088,476.78z"/>
	<line opacity="0.7" stroke="#C0D8EC" stroke-miterlimit="10" x1="377.47" y1="478.068" x2="384.53" y2="546.076"/>
	<path opacity="0.7" fill="none" stroke="#C0D8EC" stroke-miterlimit="10" d="M459.628,547.94c0,0,1.421-14.131,1.8-17.893
		c2.553-8.92,6.107-37.766,6.072-41.393c1.608-3.761,2.588-11.875,2.588-11.875"/>
	<g>
		<path fill="#16252B" d="M445.25,547.177c0.088-2.31-0.553-4.777-0.753-7.295c-2.497-10.227-9.604-22.619-10.966-24.195
			c-1.93-1.35-17.109-1.015-24.188,1.844c-3.781,0.969-11.321,18.858-11.321,29.317v-7.685c0-10.459,7.302-22.447,10.625-23.945
			c3.791-1.71,27.144-1.676,30.301,0.559c0.755,4.479,7.99,16.106,7.99,25.4L445.25,547.177z"/>
	</g>
	<path fill="#CADBF8" d="M398.5,546.28c-1.877,1.048-4.849,0.625-7.625,0.625c-3.176,0-6.575,0.139-8.5-1.188l0.438-2.812
		c1.89,1.101,5.208,1.188,8.062,1.188c2.735,0,5.76,0.084,7.625-0.938V546.28z"/>
	<path fill="#CADBF8" d="M460.704,546.905c-1.877,1.048-4.849,0.625-7.625,0.625c-3.176,0-6.575,0.139-8.5-1.188l0.438-2.812
		c1.89,1.101,5.208,1.188,8.062,1.188c2.735,0,5.76,0.084,7.625-0.938V546.905z"/>
	<path fill="none" stroke="#2A313D" stroke-miterlimit="10" d="M464.257,493.905c-4.327-1.13-9.268-3.236-11.02-7.899"/>
	<g>
		<path fill="#2A313D" d="M419.75,487.53c0,0,0.058,0.363,0.135,1.001c0.067,0.638,0.192,1.547,0.29,2.641
			c0.21,2.187,0.405,5.105,0.52,8.027c0.108,2.922,0.137,5.847,0.094,8.043c-0.014,1.098-0.07,2.015-0.089,2.655
			c-0.029,0.641-0.059,1.008-0.059,1.008s-0.058-0.363-0.135-1.001c-0.067-0.638-0.193-1.547-0.291-2.641
			c-0.211-2.187-0.404-5.105-0.519-8.027c-0.108-2.922-0.135-5.847-0.092-8.043c0.015-1.098,0.069-2.015,0.088-2.655
			C419.72,487.897,419.75,487.53,419.75,487.53z"/>
	</g>
	<g>
		<line fill="#BFD5FB" x1="423.125" y1="491.03" x2="424.25" y2="505.655"/>
		<path fill="#2A313D" d="M423.125,491.03c0,0,0.237,0.901,0.461,2.264c0.231,1.361,0.455,3.183,0.6,5.011
			c0.138,1.828,0.196,3.662,0.175,5.043c-0.013,1.381-0.11,2.308-0.11,2.308s-0.238-0.901-0.462-2.263
			c-0.232-1.361-0.455-3.184-0.599-5.012c-0.137-1.828-0.194-3.663-0.174-5.044C423.028,491.957,423.125,491.03,423.125,491.03z"/>
	</g>
	<path fill="none" stroke="#2A313D" stroke-miterlimit="10" d="M388.717,485.338c-1.252,4.794-4.604,8.624-8.903,10.239"/>
</g>
<g id="haut">
	<path fill="#872C2A" stroke="#000000" stroke-width="0.3" stroke-miterlimit="10" d="M375.338,478.03
		c-1.205-0.741-3.084-1.25-3.084-1.25c3.417-3,3.834-20.25,3.834-20.25c-8-22.25-3.834-58.75,9.363-64.634
		c19.118,6.414,46.282,7.884,69.638,0c14.624,6.384,18.145,52.884,11.645,65.884c1.375,3.5,3.229,17.625,3.354,19
		c-0.022,0.031-4.142,1.969-2.5,1.5C463.733,480.78,394.442,489.78,375.338,478.03z"/>
	<polyline fill="#801913" points="375.594,456.53 373.141,441.644 379.354,441.644 	"/>
	<path fill="#801913" d="M464.257,445.865c0,0,2.329-0.446,5.431-0.196c-0.81,6.161-2.277,11.988-3.029,13.385L464.257,445.865z"/>
	<path display="none" fill="none" stroke="#000000" stroke-width="0.5" stroke-miterlimit="10" d="M457.285,414.489
		c5.214,19.606,9.453,45.041,9.453,45.041c4.958-13.789,4.508-31.805,0.508-46.399"/>
	<g>
		<path fill="#9E4441" d="M455.82,392.255c-9.716,3.009-21.551,4.775-34.32,4.775c-13.512,0-25.974-1.979-35.989-5.314l-3.908,2.988
			c9.125,7.977,23.859,12.077,39.342,12.077c15.083,0,28.594-4.72,37.72-12.338L455.82,392.255"/>
	</g>
	<g>
		<path fill="#9E4441" d="M453.834,406.279c-6.334,5.416-19.73,12.166-32.5,12.166c-13.512,0-25.709-3.291-32.626-10.539L384,423.78
			c9.125,7.977,21.462,10.585,36.945,10.585c15.083,0,27.18-6.073,36.306-13.691L453.834,406.279z"/>
	</g>
	<g>
		<path fill="#9E4441" d="M466.099,453.306c-9.126,7.618-30.07,15.393-45.154,15.393c-15.483,0-33.333-6.168-43.712-16.375
			l2.075-14.409c7.083,6,28.681,9.785,42.193,9.785c12.77,0,33.093-2.702,40.426-9.785L466.099,453.306z"/>
	</g>
	<path fill="#9E4441" d="M468.645,419.106c-3.037,1.113-6.188,2.121-9.44,3.017l2.188,9.651c2.957-0.74,5.848-1.56,8.665-2.455
		 M384.394,422.182c-3.866-1.058-7.59-2.274-11.151-3.637l-0.684,10.527c3.019,0.979,6.123,1.87,9.304,2.669"/>
	<path fill="#801913" d="M379.307,441.834"/>
	<line display="none" fill="none" x1="390.828" y1="400.651" x2="375.594" y2="456.53"/>
	<path display="none" fill="none" stroke="#000000" stroke-width="0.5" stroke-miterlimit="10" d="M393,395.28
		c-1.675,3.35-3.931,10.341-6.258,18.444c-5.313,18.503-11,42.806-11,42.806c-5.91-23.25-4.064-54.949,9.363-64.634L393,395.28z"/>
	<g>
		<line fill="#311201" x1="376.088" y1="455.542" x2="387.612" y2="413.189"/>
		<path fill="#3F0400" d="M375.943,455.503c0,0-0.001-0.179-0.004-0.513c0.004-0.332-0.024-0.828,0.01-1.44
			c0.04-1.233,0.131-2.985,0.382-5.049c0.114-1.035,0.245-2.155,0.448-3.321c0.186-1.171,0.366-2.41,0.644-3.667
			c0.275-1.258,0.478-2.58,0.832-3.883c0.327-1.311,0.66-2.642,0.992-3.973c0.389-1.315,0.777-2.632,1.16-3.927
			c0.365-1.3,0.852-2.545,1.253-3.768c0.396-1.225,0.875-2.383,1.305-3.487c0.415-1.109,0.873-2.14,1.296-3.091
			c0.83-1.906,1.635-3.464,2.225-4.547c0.28-0.546,0.556-0.96,0.72-1.248c0.171-0.287,0.262-0.439,0.262-0.439l0.289,0.078
			c0,0-0.689,2.656-1.723,6.639c-1.062,3.976-2.479,9.276-3.895,14.577c-1.465,5.287-2.93,10.575-4.028,14.541
			c-1.127,3.957-1.879,6.596-1.879,6.596L375.943,455.503z"/>
	</g>
	<g>
		<line fill="#311201" x1="455.487" y1="414.168" x2="466.973" y2="456.53"/>
		<path fill="#3F0400" d="M455.632,414.129c0,0,0.092,0.152,0.263,0.439c0.164,0.288,0.44,0.702,0.721,1.248
			c0.59,1.083,1.396,2.641,2.225,4.548c0.425,0.951,0.879,1.982,1.293,3.092c0.433,1.104,0.904,2.264,1.301,3.489
			c0.398,1.224,0.893,2.467,1.246,3.77c0.381,1.296,0.768,2.612,1.154,3.928c0.331,1.332,0.661,2.664,0.986,3.975
			c0.343,1.306,0.553,2.626,0.824,3.884c0.278,1.257,0.451,2.498,0.64,3.669c0.203,1.166,0.329,2.286,0.445,3.32
			c0.249,2.064,0.342,3.815,0.382,5.049c0.034,0.612,0.005,1.108,0.01,1.44c-0.002,0.334-0.004,0.512-0.004,0.512l-0.289,0.078
			c0,0-0.749-2.639-1.873-6.598c-1.095-3.967-2.555-9.256-4.015-14.544c-1.411-5.302-2.822-10.604-3.881-14.58
			c-1.03-3.984-1.717-6.641-1.717-6.641L455.632,414.129z"/>
	</g>
	<g>
		<path fill="#9E4441" d="M372.254,476.78"/>
		<path fill="#9E4441" d="M470.057,476.485"/>
	</g>
	<path fill="#872C2A" stroke="#000000" stroke-width="0.3" stroke-miterlimit="10" d="M372.56,477.482"/>
	<path opacity="0.4" fill="#05113B" d="M373.149,478.086 M434.188,483.28c-4.51,0.404-7.785,0.46-12.258,0.46
		c-1.077,0-2.986,0.232-4.055,0.192l-44.734-5.844c14.712,6.512,30.992,10.129,48.115,10.129c17.648,0,34.4-3.842,49.463-10.735
		L434.188,483.28z"/>
	<g>
		<path fill="#872C2A" d="M433.826,483.528l36.271-6.046l-1.055-7.543c-10.713,6.953-22.648,11.669-35.338,13.605
			C433.746,483.538,433.786,483.534,433.826,483.528z"/>
		<path fill="#872C2A" d="M372.52,478.089l27.141,3.861c-8.847-2.208-17.258-5.774-25.057-10.518l-2.076,6.653L372.52,478.089"/>
	</g>
</g>
<g id="tete">
	<path fill="#FFE9D8" stroke="#000000" stroke-miterlimit="10" d="M517.75,304.03c0,49.5-11.626,61.25-35,75.5
		c-15.125,9.221-32.669,17.5-64,17.5c-57.25-0.25-110-43.75-99.25-89.75c0-50.81,31.976-59.25,98.25-59.25
		S517.75,256.7,517.75,304.03z"/>
	<g opacity="0.3">
		<path d="M338.233,273.556"/>
		<path d="M511.064,274.66c4.019,7.603,4.306,17.381,4.306,29.4c0,46.233-13.202,60.078-35.034,73.388
			c-14.126,8.612-32.168,16.834-61.432,16.834c-53.47-0.233-106.273-42.896-96.233-85.86c0-12.038-3.5-22.596,1.653-29.236
			c-5.605,8.979-4.615,17.125-4.615,28.095c-10.75,46,42,89.5,99.25,89.75c31.331,0,48.875-8.279,64-17.5
			c23.374-14.25,35-26,35-75.5C517.959,292.903,519.275,282.021,511.064,274.66z"/>
	</g>
	<path fill="#FFFFFF" stroke="#000000" stroke-miterlimit="10" d="M389,333.53c0,8.5-4.435,21-17.413,21s-17.337-8.573-17.337-21
		c0-11,12.367-16,17.337-16C380.667,317.53,389,326.614,389,333.53z"/>
	<path fill="#FFFFFF" stroke="#000000" stroke-miterlimit="10" d="M453,338.614c-0.657-8.475,3.685-21.084,16.663-21.084
		c11.004,0,17.671,8.323,17.671,20.75c0,9.334-6.334,16.25-17.671,16.25C456.685,354.53,453.454,344.473,453,338.614z"/>
	<path d="M387.5,333.614c0,8.15-6.167,14.758-13,14.758c-8.333,0-12.333-6.607-12.333-14.758s7.234-13.333,12.667-13.333
		S387.5,325.464,387.5,333.614z"/>
	<path d="M479,332.78c0,8.15-4.499,15.592-11.333,15.592c-8.334,0-12.667-6.941-12.667-15.092s6.482-12.999,11.916-12.999
		C472.348,320.281,479,324.63,479,332.78z"/>
	<circle fill="#FFFCF5" cx="370.167" cy="336.03" r="2.5"/>
	<circle fill="#FFFCF5" cx="369.833" cy="328.196" r="4.583"/>
	<circle fill="#FFFCF5" cx="460.499" cy="328.947" r="4"/>
	<circle fill="#FFFCF5" cx="461.333" cy="337.613" r="2.5"/>
	<path fill="none" stroke="#000000" stroke-miterlimit="10" d="M427.334,377.447c-1.433,1.947-3.805,3.667-7.208,3.667
		c-1.709,0-2.766-0.122-4.112-0.705"/>
	<path fill="none" stroke="#000000" stroke-miterlimit="10" d="M420.64,364.447c-1.36,1.667-5.056,1.5-5.056,1.5
		c-3.913,0-7.084-3.217-7.084-7.083s4.168-7.75,7.084-7.417c1.583,0.083,3.82-2.759,5.056-4.833c1.277-2.917,1.034-4,1.034-5"/>
	<path fill="#FFFFFF" stroke="#000000" stroke-miterlimit="10" d="M348.775,256.303"/>
	<path opacity="0.1" d="M490.999,263.283c1.262,1.495,1.388,4.393,1.388,5.893C486.887,278.009,469,285.03,469,285.03
		c2-3.167,3.416-4.763,11.25-13.43c-27.833,27.167-66.5,32.459-66.5,32.459c5.187-3.438,32.25-20.445,41.25-33.612
		c-13,25.833-92.262,40.327-85.929,37.66s23.262-35.327,23.262-35.327c-10.167,14.833-29.667,24.333-31,26.333s-4.111,1.462-2,0
		c3.167-3,9.167-21.5,9.333-31c-0.167-0.5-0.992-1.139-2-0.833c-3.899,3.466-4.25,10.25-5.917,19.25
		c-10.5-6-12.574-21.705-11.975-23.728c45.85-12.647,63.475-9.022,71.35-28.022C426.875,262.28,470.81,246.41,490.999,263.283z"/>
	<path fill="#654427" stroke="#000000" stroke-width="0.5" stroke-miterlimit="10" d="M496.564,260.403
		c1.262,1.495-1.064,3.544-1.064,5.044c-5.5,8.833-23.166,15.5-23.166,15.5c2-3.167,2.666-5.167,10.5-13.833
		c-27.833,27.167-59.667,28.833-59.667,28.833c5.187-3.438,22.833-18.833,31.833-32c-13,25.833-95,42.5-88.667,39.833
		s26-37.5,26-37.5c-10.167,14.833-29.667,24.333-31,26.333s-4.111,1.462-2,0c3.167-3,9.167-21.5,9.333-31
		c-0.167-0.5-0.992-1.139-2-0.833c-3.899,3.466-9.333,13.333-11,22.333c-10.5-6-7.491-24.789-6.892-26.812
		c44.225-17.272,63.475-9.022,71.35-28.022C426.875,255.78,476.375,243.53,496.564,260.403z"/>
	<path opacity="0.15" d="M421.236,364.53c0,2.623-2.786,4.75-6.223,4.75s-6.223-2.127-6.223-4.75"/>
</g>
</svg>
