<?xml version="1.0" encoding="utf-8"?>
<!-- Generator: Adobe Illustrator 16.0.4, SVG Export Plug-In . SVG Version: 6.00 Build 0)  -->
<!DOCTYPE svg PUBLIC "-//W3C//DTD SVG 1.1//EN" "http://www.w3.org/Graphics/SVG/1.1/DTD/svg11.dtd">
<svg version="1.1" id="Calque_1" xmlns="http://www.w3.org/2000/svg" xmlns:xlink="http://www.w3.org/1999/xlink" x="0px" y="0px"
	 width="375px" height="495px" viewBox="231.445 101.14 375 495" enable-background="new 231.445 101.14 375 495"
	 xml:space="preserve">
<g id="chapeau">
	<path fill="#7C694A" stroke="#000000" stroke-width="0.3" stroke-miterlimit="10" d="M364.824,379.5
		c6.977-6.048-23.007,20.188-52.99,17.688c-29.983-2.498-29.983-47.891-31.233-77.665c0,0-7.496-65.656,0-84.256
		c43.726-133.538,239.867-143.533,280.47,12.631c4.816,51.014,1.823,97.108-11.869,142.732c0,0-12.02,12.806-31.308,0
		c-16.166-8.433-19.381-9.298-32.766-13.551"/>
	<path fill="#D3BB93" d="M283.3,315.82c0,0-7.243-63.42,0-81.389c50.172-135.263,233.104-137.137,271.028,12.2
		c1.088,16.924,5.044,23.067,6.992,55.449c-0.126-27.81-0.907-49.455-2.376-55.965c-40.451-155.523-235.864-145.57-279.428-12.578
		c-7.468,18.526-0.248,84.807-0.248,84.807c0.367,8.77,0.728,24.81,1.562,28.655C280.561,339.701,283.015,331.382,283.3,315.82z"/>
	<g opacity="0.3">
		<line fill="none" x1="510.718" y1="220.012" x2="510.718" y2="220.012"/>
		<path opacity="0.4" enable-background="new    " d="M507.736,215.977c-29.982-9.477-79.956-0.745-88.389-35.102
			c-9.838,23.737-30.766,16.831-88.044,32.632c-53.639,28.541-27.792,127.558-16.657,153.637
			c-29.15-44.767-26.788-99.111-21.668-118.268c5.118-19.157,25.185-40.191,38.326-44.947c13.14-4.756,79.3-8.878,89.139-32.615
			c8.433,34.356,70.273,16.657,95.496,37.738c1.576,1.868,24.698,13.587,30.527,36.908c5.831,23.322-1.608,109.013-29.938,137.968
			C516.525,383.929,576.866,253.037,507.736,215.977z"/>
	</g>
	<path d="M296.359,231.644"/>
	<path fill="#1F1A12" d="M325.591,395.004c-0.195-0.272-0.406-0.604-0.631-0.994c-0.495-0.855-1.065-1.985-1.691-3.339
		c-6.472-14.02-18.975-52.207-19.759-61.416c5.052,9.148,38.765,45.343,59.922,48.75
		C352.962,384.931,337.176,391.271,325.591,395.004z"/>
	<path fill="#1F1A12" d="M513.889,388.014c0.388-0.309,0.865-0.947,1.418-1.858c5.51-9.123,18.745-50.4,18.745-54.727
		c-4.402,7.275-32.207,36.013-50.411,44.339c10.04,3.343,18.501,5.88,27.857,11.023
		C512.179,387.166,513.316,387.483,513.889,388.014z"/>
	<path fill="#A38560" d="M330.333,402.538"/>
	<path fill="#A38560" d="M574.573,273.171"/>
	
		<line fill="none" stroke="#000000" stroke-width="0.2" stroke-miterlimit="10" x1="420.44" y1="178.498" x2="420.44" y2="159.759"/>
</g>
<g id="nez__x2B__ombre">
	<path fill="#7D4E24" d="M481.501,180.685"/>
	<path fill="#E65151" stroke="#000000" stroke-width="0.3" stroke-miterlimit="10" d="M465.882,133.211
		c0,14.663-20.835,26.548-46.537,26.548c-25.7,0-44.663-11.885-44.663-26.548c0-14.661,18.961-26.547,44.663-26.547
		C445.047,106.663,465.882,118.55,465.882,133.211z"/>
	<path opacity="0.9" fill="#E5E1DB" enable-background="new    " d="M464.847,127.964c-4.503-12.049-23.162-21.299-45.5-21.299
		c-22.312,0-39.544,9.229-43.701,21.257l0.559,1.136c4.975-11.028,21.714-20.103,43.143-20.103c21.508,0,39.604,9.136,44.935,20.227
		L464.847,127.964z"/>
	<path opacity="0.3" fill="#403F3A" enable-background="new    " d="M419.347,147.89c-21.125,0-38.466-8.425-43.698-19.968
		c-1.134,2.193-0.965,4.512-0.965,6.913c0,13.489,18.961,37.417,44.664,37.417c25.701,0,46.537-23.928,46.537-37.417
		c0-2.401,0.304-4.72-0.927-6.913C459.273,139.465,440.47,147.89,419.347,147.89z"/>
</g>
<g id="Calque_8">
	<path fill="#593324" stroke="#804933" stroke-width="0.5" stroke-miterlimit="10" d="M450.99,583.933
		c-1.347-6.487,3.338-5.343,11.556-5.343c10.308,0,10.308,2.559,10.308,6.871c0,2.685-1.875,3.436-10.308,3.436
		C450.99,588.896,451.867,588.156,450.99,583.933z"/>
	<path fill="#593324" stroke="#804933" stroke-miterlimit="10" d="M393.424,583.555c-0.439,4.291-3.967,5.341-11.558,5.341
		c-7.589,0-10.307-1.028-10.307-5.341c0-2.685,1.874-4.966,10.307-4.966C393.424,578.589,394.049,577.445,393.424,583.555z"/>
</g>
<g id="oreilles">
	<path fill="#7C694A" stroke="#000000" stroke-width="0.3" stroke-miterlimit="10" d="M313.387,176.49
		c-19.017-14.88-46.769-33.597-74.878-29.849c-11.244,45.6,24.362,95.572,38.576,95.454
		C281.61,222.224,295.303,197.701,313.387,176.49z"/>
	<path fill="#7C694A" stroke="#000000" stroke-width="0.3" stroke-miterlimit="10" d="M524.391,177.228
		c19.017-14.882,42.687-34.335,74.88-29.848c11.243,45.6-25.475,99.325-39.689,99.205
		C555.056,226.716,542.476,198.441,524.391,177.228z"/>
	<g>
		<path fill="#B09063" d="M599.191,147.657c-30.083-4.975-55.955,14.393-74.41,29.644c1.876,2.203,3.308,3.957,5.098,6.219
			c17.066-16.359,38.641-34.968,69.782-33.755L599.191,147.657z"/>
	</g>
	<path fill="#B09A75" d="M313.387,176.629c-19.017-14.882-46.769-33.597-74.878-29.849c-0.059,0.242-0.11,0.482-0.166,0.724
		c26.87,4.604,50.708,21.707,68.351,37.246L313.387,176.629z"/>
	<path fill="#5D4F38" d="M553.294,226.573c0,0,6.163,20.122,7.384,20.012c12.341-1.337,40.7-38.609,40.7-79.419
		C597.692,187.051,573.028,217.491,553.294,226.573z"/>
	<path fill="#F0ABAB" stroke="#000000" stroke-width="0.3" stroke-miterlimit="10" d="M298.348,194.127
		c-10.244-8.017-29.704-32.134-44.848-30.114c-0.986,22.487,13.742,56.963,28.253,61.824
		C284.192,215.129,288.607,205.553,298.348,194.127z"/>
	<path opacity="0.3" fill="#785656" enable-background="new    " d="M281.754,225.835c3.363-4.746,11.996-26.876,16.174-31.76
		c-10.245-8.017-28.284-30.183-44.108-30.063c17.687,14.012,28.415,36.974,24.303,60.005
		C277.657,226.633,281.672,224.411,281.754,225.835z"/>
	<path fill="#F0ABAB" stroke="#000000" stroke-width="0.3" stroke-miterlimit="10" d="M539.43,194.864
		c10.245-8.017,29.703-32.133,44.848-30.114c0.986,22.488-13.742,56.964-28.254,61.824
		C553.588,215.868,549.174,206.292,539.43,194.864z"/>
	<path opacity="0.3" fill="#785656" enable-background="new    " d="M556.342,226.513c0.117-6.501-11.997-26.875-16.172-31.76
		c10.242-8.017,28.281-30.183,44.107-30.063c-25.008,17.556-23.914,45.026-22.779,55.322
		C561.788,222.654,556.425,225.092,556.342,226.513z"/>
</g>
<g id="pantalon">
	<path fill="#7A8BA9" stroke="#000000" stroke-width="0.3" stroke-miterlimit="10" d="M482.859,488.951
		c0.542,5.307-2.697,15.616-2.697,15.616c-2.029,39.509-11.868,60.747-8.334,72.877c-1.619,0.886-18.848,1.399-20.154,0.411
		c0-19.884-14.144-39.557-14.144-39.557c-0.626-2.967-21.395-1.718-30.921,1.874c-4.216,1.718-14.122,24.205-14.122,37.271
		c-4.062,1.51-13.35,1.298-17.111-0.781c-2.121-16.198-7.183-75.22-9.682-85.838C379.68,504.568,473.052,494.885,482.859,488.951z"
		/>
	
		<line opacity="0.7" fill="none" stroke="#C0D8EC" stroke-miterlimit="10" enable-background="new    " x1="367.151" y1="490.561" x2="375.97" y2="575.523"/>
	<path opacity="0.7" fill="none" stroke="#C0D8EC" stroke-miterlimit="10" enable-background="new    " d="M469.792,577.852
		c0,0,1.775-17.653,2.248-22.354c3.189-11.144,7.629-47.182,7.586-51.713c2.009-4.698,3.233-14.835,3.233-14.835"/>
	<g>
		<path fill="#16252B" d="M451.829,576.899c0.11-2.886-0.691-5.968-0.941-9.113c-3.118-12.777-11.998-28.258-13.7-30.227
			c-2.41-1.687-21.373-1.269-30.217,2.303c-4.724,1.21-14.144,23.561-14.144,36.626v-9.602c0-13.066,9.122-28.042,13.274-29.913
			c4.736-2.136,33.912-2.094,37.855,0.698c0.942,5.596,9.981,20.121,9.981,31.732L451.829,576.899z"/>
	</g>
	<path fill="#CADBF8" d="M393.424,575.778c-2.346,1.31-6.059,0.781-9.527,0.781c-3.967,0-8.214,0.175-10.619-1.483l0.547-3.514
		c2.361,1.376,6.506,1.484,10.071,1.484c3.417,0,7.197,0.105,9.527-1.173V575.778z"/>
	<path fill="#CADBF8" d="M471.135,576.559c-2.345,1.309-6.058,0.781-9.526,0.781c-3.968,0-8.214,0.174-10.619-1.484l0.548-3.513
		c2.36,1.375,6.507,1.484,10.071,1.484c3.417,0,7.197,0.105,9.526-1.173V576.559z"/>
	<path fill="none" stroke="#2A313D" stroke-miterlimit="10" d="M475.575,510.345c-5.406-1.411-11.579-4.042-13.769-9.867"/>
	<g>
		<path fill="#2A313D" d="M419.972,502.381c0,0,0.072,0.454,0.168,1.25c0.083,0.799,0.239,1.934,0.362,3.301
			c0.262,2.731,0.505,6.377,0.649,10.027c0.135,3.65,0.171,7.306,0.118,10.048c-0.017,1.373-0.087,2.519-0.111,3.317
			c-0.036,0.8-0.073,1.259-0.073,1.259s-0.073-0.452-0.168-1.25c-0.084-0.796-0.242-1.933-0.364-3.299
			c-0.263-2.733-0.505-6.378-0.649-10.029c-0.134-3.649-0.168-7.304-0.115-10.047c0.019-1.372,0.087-2.518,0.11-3.318
			C419.934,502.84,419.972,502.381,419.972,502.381z"/>
	</g>
	<g>
		<line fill="none" x1="424.188" y1="506.754" x2="425.594" y2="525.025"/>
		<path fill="#2A313D" d="M424.188,506.754c0,0,0.296,1.126,0.576,2.829c0.288,1.699,0.567,3.977,0.749,6.26
			c0.172,2.284,0.245,4.575,0.218,6.3c-0.016,1.726-0.137,2.883-0.137,2.883s-0.297-1.124-0.578-2.826
			c-0.288-1.7-0.566-3.978-0.747-6.261c-0.171-2.285-0.243-4.577-0.218-6.302C424.066,507.911,424.188,506.754,424.188,506.754z"/>
	</g>
	<path fill="none" stroke="#2A313D" stroke-miterlimit="10" d="M381.201,499.644c-1.564,5.989-5.751,10.773-11.122,12.79"/>
</g>
<g id="haut">
	<path fill="#872C2A" stroke="#000000" stroke-width="0.3" stroke-miterlimit="10" d="M364.486,490.513
		c-1.505-0.926-3.853-1.562-3.853-1.562c4.269-3.748,4.79-25.299,4.79-25.299c-9.995-27.797-4.79-73.396,11.698-80.747
		c23.885,8.013,57.821,9.849,87,0c18.271,7.975,22.668,66.068,14.548,82.309c1.718,4.373,4.035,22.02,4.19,23.737
		c-0.027,0.038-5.175,2.459-3.123,1.874C474.92,493.948,388.354,505.193,364.486,490.513z"/>
	<polyline fill="#801913" points="364.807,463.653 361.742,445.056 369.504,445.056 	"/>
	<path fill="#801913" d="M475.575,450.328c0,0,2.909-0.556,6.784-0.243c-1.012,7.695-2.845,14.976-3.784,16.721L475.575,450.328z"/>
	<path display="none" fill="none" stroke="#000000" stroke-width="0.5" stroke-miterlimit="10" d="M466.864,411.13
		c6.514,24.495,11.81,56.271,11.81,56.271c6.194-17.227,5.632-39.734,0.635-57.966"/>
	<g>
		<path fill="#9E4441" d="M465.034,383.354c-12.139,3.76-26.924,5.965-42.876,5.965c-16.881,0-32.45-2.472-44.961-6.638
			l-4.882,3.732c11.4,9.966,29.808,15.087,49.149,15.087c18.844,0,35.723-5.896,47.124-15.413L465.034,383.354"/>
	</g>
	<g>
		<path fill="#9E4441" d="M462.553,400.874c-7.913,6.766-24.649,15.199-40.603,15.199c-16.882,0-32.12-4.112-40.761-13.167
			l-5.881,19.832c11.399,9.966,26.813,13.224,46.155,13.224c18.844,0,33.957-7.586,45.358-17.104L462.553,400.874z"/>
	</g>
	<g>
		<path fill="#9E4441" d="M477.876,459.625c-11.401,9.518-37.567,19.23-56.412,19.23c-19.342,0-41.643-7.706-54.609-20.458
			l2.593-18.001c8.849,7.495,35.831,12.225,52.713,12.225c15.952,0,41.343-3.376,50.504-12.225L477.876,459.625z"/>
	</g>
	<path fill="#9E4441" d="M481.056,416.899c-3.794,1.392-7.731,2.65-11.794,3.769l2.734,12.058c3.694-0.925,7.305-1.948,10.825-3.067
		 M375.801,420.742c-4.83-1.323-9.481-2.842-13.931-4.544l-0.854,13.15c3.771,1.225,7.649,2.337,11.624,3.335"/>
	<path fill="#801913" d="M369.446,445.293"/>
	<line display="none" fill="none" x1="383.838" y1="393.843" x2="364.807" y2="463.653"/>
	<path display="none" fill="none" stroke="#000000" stroke-width="0.5" stroke-miterlimit="10" d="M386.552,387.132
		c-2.093,4.187-4.911,12.92-7.818,23.043c-6.637,23.116-13.742,53.478-13.742,53.478c-7.384-29.046-5.077-68.648,11.697-80.747
		L386.552,387.132z"/>
	<g>
		<line fill="none" x1="365.423" y1="462.419" x2="379.821" y2="409.506"/>
		<path fill="#3F0400" d="M365.243,462.37c0,0-0.001-0.225-0.005-0.642c0.005-0.415-0.031-1.034,0.012-1.799
			c0.05-1.541,0.164-3.729,0.477-6.307c0.143-1.293,0.306-2.693,0.561-4.149c0.231-1.464,0.457-3.012,0.804-4.581
			c0.344-1.572,0.598-3.224,1.04-4.852c0.409-1.638,0.825-3.301,1.24-4.965c0.486-1.642,0.971-3.287,1.449-4.905
			c0.457-1.623,1.064-3.179,1.565-4.706c0.496-1.532,1.093-2.979,1.63-4.357c0.518-1.386,1.09-2.673,1.62-3.861
			c1.036-2.381,2.042-4.327,2.779-5.681c0.351-0.683,0.694-1.199,0.899-1.56c0.214-0.358,0.327-0.548,0.327-0.548l0.361,0.098
			c0,0-0.86,3.318-2.152,8.294c-1.326,4.967-3.097,11.589-4.866,18.211c-1.831,6.605-3.661,13.212-5.033,18.166
			c-1.408,4.943-2.347,8.24-2.347,8.24L365.243,462.37z"/>
	</g>
	<g>
		<line fill="none" x1="464.618" y1="410.73" x2="478.968" y2="463.653"/>
		<path fill="#3F0400" d="M464.8,410.682c0,0,0.114,0.189,0.328,0.548c0.205,0.359,0.551,0.877,0.9,1.559
			c0.737,1.354,1.744,3.299,2.78,5.683c0.53,1.188,1.099,2.476,1.615,3.861c0.541,1.381,1.128,2.829,1.625,4.359
			c0.496,1.53,1.115,3.082,1.557,4.711c0.477,1.619,0.959,3.263,1.442,4.907c0.413,1.664,0.824,3.328,1.23,4.965
			c0.429,1.633,0.691,3.281,1.03,4.854c0.348,1.57,0.563,3.12,0.799,4.584c0.254,1.456,0.411,2.854,0.557,4.146
			c0.312,2.579,0.428,4.767,0.478,6.309c0.042,0.764,0.005,1.384,0.012,1.799c-0.002,0.417-0.005,0.639-0.005,0.639l-0.361,0.098
			c0,0-0.936-3.296-2.34-8.242c-1.367-4.956-3.191-11.563-5.016-18.17c-1.763-6.623-3.526-13.248-4.849-18.215
			c-1.287-4.978-2.145-8.296-2.145-8.296L464.8,410.682z"/>
	</g>
	<g>
		<path fill="#9E4441" d="M360.634,488.951"/>
		<path fill="#9E4441" d="M482.82,488.583"/>
	</g>
	<path fill="#872C2A" stroke="#000000" stroke-width="0.3" stroke-miterlimit="10" d="M361.016,489.828"/>
	<path opacity="0.4" fill="#05113B" enable-background="new    " d="M438.01,497.072c-5.635,0.506-9.727,0.574-15.314,0.574
		c-1.346,0-3.731,0.291-5.066,0.24l-55.887-7.3c18.38,8.135,38.719,12.654,60.111,12.654c22.047,0,42.976-4.802,61.794-13.412
		L438.01,497.072z"/>
	<g>
		<path fill="#872C2A" d="M437.556,497.381l45.314-7.553l-1.319-9.423c-13.384,8.687-28.293,14.578-44.147,16.996
			C437.457,497.394,437.507,497.389,437.556,497.381z"/>
		<path fill="#872C2A" d="M360.967,490.587l33.907,4.823c-11.052-2.759-21.56-7.213-31.303-13.14l-2.594,8.312L360.967,490.587"/>
	</g>
</g>
<g id="tete">
	<path fill="#FFE9D8" stroke="#000000" stroke-miterlimit="10" d="M542.404,273.133c0,61.841-14.525,76.521-43.726,94.323
		c-18.896,11.521-40.814,21.862-79.956,21.862c-71.524-0.312-137.425-54.657-123.995-112.125c0-63.477,39.948-74.021,122.746-74.021
		C500.269,203.172,542.404,214.005,542.404,273.133z"/>
	<g opacity="0.3">
		<path d="M318.131,235.063"/>
		<path d="M534.051,236.442c5.021,9.498,5.38,21.714,5.38,36.729c0,57.76-16.493,75.056-43.768,91.684
			c-17.648,10.76-40.188,21.031-76.749,21.031c-66.8-0.29-132.768-53.59-120.225-107.265c0-15.04-4.373-28.229,2.065-36.525
			c-7.002,11.218-5.766,21.394-5.766,35.099c-13.43,57.468,52.471,111.812,123.995,112.126c39.141,0,61.06-10.343,79.956-21.863
			c29.2-17.803,43.727-32.482,43.727-94.323C542.666,259.232,544.308,245.637,534.051,236.442z"/>
	</g>
	<path fill="#FFFFFF" stroke="#000000" stroke-miterlimit="10" d="M381.554,309.988c0,10.619-5.54,26.236-21.754,26.236
		c-16.213,0-21.659-10.711-21.659-26.236c0-13.742,15.45-19.988,21.659-19.988C371.144,289.999,381.554,301.347,381.554,309.988z"/>
	<path fill="#FFFFFF" stroke="#000000" stroke-miterlimit="10" d="M461.511,316.339c-0.82-10.587,4.604-26.34,20.815-26.34
		c13.748,0,22.078,10.398,22.078,25.923c0,11.661-7.914,20.302-22.078,20.302C466.115,336.224,462.078,323.659,461.511,316.339z"/>
	<path d="M379.68,310.093c0,10.182-7.705,18.438-16.241,18.438c-10.411,0-15.408-8.254-15.408-18.438
		c0-10.183,9.038-16.657,15.825-16.657C370.645,293.436,379.68,299.911,379.68,310.093z"/>
	<path d="M493.993,309.051c0,10.182-5.62,19.479-14.159,19.479c-10.412,0-15.824-8.672-15.824-18.855
		c0-10.182,8.098-16.239,14.888-16.239C485.682,293.436,493.993,298.87,493.993,309.051z"/>
	<circle fill="#FFFCF5" cx="358.026" cy="313.111" r="3.124"/>
	<circle fill="#FFFCF5" cx="357.609" cy="303.324" r="5.726"/>
	<circle fill="#FFFCF5" cx="470.879" cy="304.262" r="4.997"/>
	<circle fill="#FFFCF5" cx="471.921" cy="315.089" r="3.123"/>
	<path fill="none" stroke="#000000" stroke-miterlimit="10" d="M429.446,364.854c-1.79,2.433-4.754,4.581-9.004,4.581
		c-2.136,0-3.457-0.152-5.138-0.881"/>
	<path fill="none" stroke="#000000" stroke-miterlimit="10" d="M421.083,348.613c-1.699,2.083-6.316,1.874-6.316,1.874
		c-4.889,0-8.85-4.019-8.85-8.849s5.207-9.682,8.85-9.266c1.978,0.104,4.771-3.447,6.316-6.039c1.596-3.644,1.292-4.997,1.292-6.246
		"/>
	<path fill="#FFFFFF" stroke="#000000" stroke-miterlimit="10" d="M331.302,213.508"/>
	<path opacity="0.1" enable-background="new    " d="M508.982,222.229c1.578,1.867,1.735,5.488,1.735,7.362
		c-6.871,11.035-29.217,19.806-29.217,19.806c2.498-3.956,4.266-5.95,14.055-16.778c-34.773,33.94-83.079,40.551-83.079,40.551
		c6.479-4.294,40.29-25.542,51.533-41.992c-16.24,32.273-115.264,50.381-107.352,47.049s29.061-44.134,29.061-44.134
		c-12.702,18.531-37.063,30.399-38.729,32.898c-1.665,2.499-5.135,1.828-2.499,0c3.957-3.748,11.452-26.86,11.66-38.729
		c-0.209-0.625-1.24-1.423-2.499-1.041c-4.871,4.331-5.31,12.805-7.392,24.049c-13.118-7.496-15.709-27.115-14.96-29.644
		c57.28-15.8,79.299-11.271,89.137-35.008C428.873,220.975,483.761,201.15,508.982,222.229z"/>
	<path fill="#654427" stroke="#000000" stroke-width="0.5" stroke-miterlimit="10" d="M515.935,218.63
		c1.576,1.868-1.328,4.428-1.328,6.301c-6.871,11.035-28.941,19.365-28.941,19.365c2.498-3.957,3.329-6.455,13.117-17.282
		c-34.773,33.94-74.543,36.021-74.543,36.021c6.48-4.295,28.526-23.528,39.77-39.978c-16.24,32.273-118.685,53.096-110.773,49.764
		s32.482-46.849,32.482-46.849c-12.702,18.531-37.063,30.399-38.729,32.898c-1.665,2.498-5.135,1.827-2.499,0
		c3.957-3.749,11.452-26.86,11.66-38.729c-0.209-0.625-1.24-1.422-2.499-1.041c-4.871,4.331-11.66,16.657-13.743,27.901
		c-13.118-7.496-9.359-30.968-8.609-33.496c55.25-21.579,79.299-11.271,89.137-35.008
		C428.873,212.854,490.714,197.55,515.935,218.63z"/>
	<path opacity="0.15" enable-background="new    " d="M421.828,348.716c0,3.277-3.481,5.935-7.774,5.935
		c-4.294,0-7.775-2.657-7.775-5.935"/>
</g>
</svg>
